M48
; DRILL file {KiCad (5.1.2)-1} date 8/08/2019 11:50:42
; FORMAT={-:-/ absolute / metric / decimal}
; #@! TF.CreationDate,2019-08-08T11:50:42+10:00
; #@! TF.GenerationSoftware,Kicad,Pcbnew,(5.1.2)-1
FMAT,2
METRIC
T1C0.200
T2C0.250
T3C0.300
T4C1.000
T5C0.300
T6C0.600
T7C2.540
%
G90
G05
T1
X54.65Y-58.5
X54.65Y-59.9
X54.65Y-61.3
X54.65Y-62.7
X56.05Y-58.5
X56.05Y-59.9
X56.05Y-61.3
X56.05Y-62.7
X57.45Y-58.5
X57.45Y-59.9
X57.45Y-61.3
X57.45Y-62.7
X58.85Y-58.5
X58.85Y-59.9
X58.85Y-61.3
X58.85Y-62.7
X54.65Y-33.0
X54.65Y-34.4
X54.65Y-35.8
X54.65Y-37.2
X56.05Y-33.0
X56.05Y-34.4
X56.05Y-35.8
X56.05Y-37.2
X57.45Y-33.0
X57.45Y-34.4
X57.45Y-35.8
X57.45Y-37.2
X58.85Y-33.0
X58.85Y-34.4
X58.85Y-35.8
X58.85Y-37.2
X68.3Y-56.95
X68.3Y-59.35
X68.3Y-61.75
X70.7Y-56.95
X70.7Y-59.35
X70.9Y-61.75
X73.1Y-56.95
X73.1Y-59.35
X73.1Y-61.75
X68.3Y-31.45
X68.3Y-33.85
X68.3Y-36.25
X70.7Y-31.45
X70.7Y-33.85
X70.9Y-36.25
X73.1Y-31.45
X73.1Y-33.85
X73.1Y-36.25
T2
X28.2Y-37.75
X28.2Y-63.25
X28.25Y-29.85
X28.25Y-32.65
X28.25Y-34.95
X28.25Y-55.35
X28.25Y-58.15
X28.25Y-60.45
X30.303Y-27.708
X30.303Y-53.208
X30.5Y-30.7
X30.5Y-36.95
X30.5Y-56.2
X30.5Y-62.45
X31.5Y-23.5
X31.5Y-26.0
X31.5Y-49.0
X31.5Y-51.5
X32.0Y-38.825
X32.0Y-64.325
X33.0Y-32.15
X33.0Y-57.65
X34.0Y-28.5
X34.0Y-54.0
X35.7Y-32.4
X35.7Y-57.9
X37.0Y-23.5
X37.0Y-26.0
X37.0Y-49.0
X37.0Y-51.5
X37.65Y-41.4
X37.65Y-66.9
X39.6Y-34.4
X39.6Y-59.9
X40.275Y-38.575
X40.275Y-64.075
X40.5Y-28.5
X40.5Y-36.8
X40.5Y-54.0
X40.5Y-62.3
X41.0Y-39.95
X41.0Y-65.45
X44.0Y-41.6
X44.0Y-67.1
X44.4Y-39.1
X44.4Y-64.6
X44.65Y-25.65
X44.65Y-51.15
X46.093Y-28.693
X46.093Y-54.193
X46.25Y-42.05
X46.25Y-67.55
X47.4Y-30.8
X47.4Y-56.3
X47.75Y-33.0
X47.75Y-58.5
X47.9Y-42.4
X47.9Y-67.9
X48.5Y-40.1
X48.5Y-65.6
X48.725Y-25.594
X48.725Y-51.094
X50.82Y-39.308
X50.82Y-64.808
X51.525Y-25.4
X51.525Y-50.9
X51.546Y-31.475
X51.546Y-56.975
X51.55Y-39.95
X51.55Y-65.45
X52.207Y-39.665
X52.207Y-65.165
X52.35Y-29.8
X52.35Y-55.3
X52.863Y-27.78
X52.863Y-53.28
X53.063Y-37.4
X53.063Y-62.9
X53.1Y-33.4
X53.1Y-58.9
X53.113Y-36.3
X53.113Y-61.8
X53.2Y-35.6
X53.2Y-61.1
X53.204Y-38.099
X53.204Y-63.599
X53.471Y-40.067
X53.471Y-65.567
X53.83Y-38.275
X53.83Y-63.775
X53.86Y-42.588
X53.86Y-68.088
X54.515Y-29.835
X54.515Y-55.335
X54.684Y-25.667
X54.684Y-51.167
X54.78Y-38.35
X54.78Y-63.85
X55.4Y-25.735
X55.4Y-51.235
X55.858Y-38.678
X55.858Y-64.178
X56.426Y-38.362
X56.426Y-63.862
X56.8Y-42.1
X56.8Y-67.6
X57.05Y-32.275
X57.05Y-57.775
X57.1Y-38.375
X57.1Y-63.875
X57.75Y-29.75
X57.75Y-55.25
X59.449Y-31.481
X59.449Y-56.981
X59.67Y-28.206
X59.67Y-53.706
X59.689Y-35.239
X59.689Y-60.739
X59.802Y-41.281
X59.802Y-66.781
X60.026Y-29.831
X60.026Y-55.331
X60.14Y-25.509
X60.14Y-51.009
X60.15Y-33.25
X60.15Y-58.75
X60.171Y-26.158
X60.171Y-51.658
X60.3Y-36.275
X60.3Y-61.775
X60.434Y-28.835
X60.434Y-54.335
X60.45Y-37.75
X60.45Y-63.25
X60.522Y-42.006
X60.522Y-67.506
X61.76Y-35.853
X61.76Y-61.353
X61.9Y-31.844
X61.9Y-57.344
X62.103Y-42.175
X62.103Y-67.675
X62.8Y-42.175
X62.8Y-67.675
X62.875Y-31.625
X62.875Y-57.125
X62.875Y-37.8
X62.875Y-63.3
X62.925Y-37.102
X62.925Y-62.602
X63.55Y-29.0
X63.55Y-54.5
X63.575Y-25.5
X63.575Y-51.0
X63.699Y-35.075
X63.699Y-60.575
X64.75Y-42.2
X64.75Y-67.7
X65.156Y-29.929
X65.156Y-55.429
X65.175Y-34.286
X65.175Y-59.786
X65.5Y-36.1
X65.5Y-61.6
X65.94Y-39.109
X65.94Y-64.609
X66.212Y-35.165
X66.212Y-60.665
X66.3Y-37.25
X66.3Y-62.75
X66.359Y-32.35
X66.359Y-57.85
X66.4Y-34.543
X66.4Y-60.043
X66.439Y-39.525
X66.439Y-65.025
X66.552Y-30.445
X66.552Y-55.945
X67.05Y-26.7
X67.05Y-52.2
X67.202Y-30.448
X67.202Y-55.948
X67.35Y-29.125
X67.35Y-54.625
X67.386Y-39.004
X67.386Y-64.504
X68.258Y-29.28
X68.258Y-54.78
X68.429Y-38.467
X68.429Y-63.967
X68.79Y-28.907
X68.79Y-54.407
X68.9Y-27.0
X68.9Y-52.5
X69.085Y-38.277
X69.085Y-63.777
X69.44Y-29.24
X69.44Y-54.74
X69.95Y-29.703
X69.95Y-55.203
X70.463Y-29.304
X70.463Y-54.804
X70.597Y-25.727
X70.597Y-51.227
X71.034Y-28.994
X71.034Y-54.494
X71.05Y-38.292
X71.05Y-63.792
X71.4Y-41.7
X71.4Y-67.2
X71.65Y-38.6
X71.65Y-64.1
X72.168Y-29.39
X72.168Y-54.89
X72.834Y-29.359
X72.834Y-54.859
X72.91Y-38.19
X72.91Y-63.69
X73.5Y-29.339
X73.5Y-54.839
X74.06Y-37.298
X74.06Y-62.798
X74.793Y-35.616
X74.793Y-61.116
X74.835Y-36.62
X74.835Y-62.12
X74.844Y-33.092
X74.844Y-58.592
X74.884Y-34.625
X74.884Y-60.125
X74.95Y-32.1
X74.95Y-57.6
X75.0Y-30.4
X75.0Y-55.9
X75.226Y-36.101
X75.226Y-61.601
X75.3Y-31.4
X75.3Y-33.6
X75.3Y-56.9
X75.3Y-59.1
X75.475Y-34.35
X75.475Y-35.158
X75.475Y-59.85
X75.475Y-60.658
X75.5Y-32.6
X75.5Y-58.1
X75.58Y-27.959
X75.58Y-53.459
X75.9Y-39.5
X75.9Y-65.0
T3
X32.0Y-35.1
X32.0Y-60.6
X33.4Y-23.6
X33.4Y-24.6
X33.4Y-25.6
X33.4Y-49.1
X33.4Y-50.1
X33.4Y-51.1
X34.4Y-40.9
X34.4Y-66.4
X35.55Y-35.2
X35.55Y-60.7
X37.2Y-34.5
X37.2Y-60.0
X37.7Y-32.4
X37.7Y-57.9
X38.9Y-36.0
X38.9Y-61.5
X40.1Y-23.6
X40.1Y-24.6
X40.1Y-25.6
X40.1Y-49.1
X40.1Y-50.1
X40.1Y-51.1
X41.65Y-30.5
X41.65Y-56.0
X42.35Y-36.95
X42.35Y-62.45
X44.076Y-39.926
X44.076Y-65.426
X44.1Y-37.4
X44.1Y-62.9
X44.6Y-36.1
X44.6Y-61.6
X44.7Y-30.6
X44.7Y-56.1
X44.8Y-33.1
X44.8Y-58.6
X45.7Y-33.05
X45.7Y-58.55
X46.95Y-40.075
X46.95Y-65.575
X47.4Y-27.8
X47.4Y-53.3
X47.5Y-32.0
X47.5Y-57.5
X47.75Y-36.1
X47.75Y-61.6
X50.875Y-29.125
X50.875Y-54.625
X53.65Y-31.65
X53.65Y-57.15
X53.8Y-32.9
X53.8Y-58.4
X56.35Y-28.4
X56.35Y-53.9
X58.552Y-29.1
X58.552Y-54.6
X63.8Y-42.1
X63.8Y-67.6
X64.481Y-31.035
X64.481Y-56.535
X69.45Y-24.95
X69.45Y-50.45
X69.55Y-28.1
X69.55Y-53.6
X69.938Y-41.91
X69.938Y-67.41
X72.95Y-27.418
X72.95Y-52.918
X74.246Y-38.706
X74.246Y-64.206
T4
X32.74Y-44.015
X35.28Y-44.015
X37.82Y-44.015
X40.36Y-44.015
X42.9Y-23.695
X42.9Y-44.015
X45.44Y-23.695
X45.44Y-44.015
X47.98Y-23.695
X47.98Y-44.015
X50.52Y-23.695
X50.52Y-44.015
X53.06Y-23.695
X53.06Y-44.015
X55.6Y-23.695
X55.6Y-44.015
X58.14Y-23.695
X58.14Y-44.015
X60.68Y-23.695
X60.68Y-44.015
X63.22Y-23.695
X63.22Y-44.015
X65.76Y-23.695
X65.76Y-44.015
X68.3Y-23.695
X68.3Y-44.015
X70.84Y-23.695
X70.84Y-44.015
X32.74Y-69.515
X35.28Y-69.515
X37.82Y-69.515
X40.36Y-69.515
X42.9Y-49.195
X42.9Y-69.515
X45.44Y-49.195
X45.44Y-69.515
X47.98Y-49.195
X47.98Y-69.515
X50.52Y-49.195
X50.52Y-69.515
X53.06Y-49.195
X53.06Y-69.515
X55.6Y-49.195
X55.6Y-69.515
X58.14Y-49.195
X58.14Y-69.515
X60.68Y-49.195
X60.68Y-69.515
X63.22Y-49.195
X63.22Y-69.515
X65.76Y-49.195
X65.76Y-69.515
X68.3Y-49.195
X68.3Y-69.515
X70.84Y-49.195
X70.84Y-69.515
T5
X67.1Y-47.775
X68.1Y-47.775
X69.1Y-47.775
X70.1Y-47.775
X71.1Y-47.775
X72.1Y-47.775
X31.5Y-47.775
X32.5Y-47.775
X33.5Y-47.775
X34.5Y-47.775
X35.5Y-47.775
X36.5Y-47.775
X67.1Y-45.44
X68.1Y-45.44
X69.1Y-45.44
X70.1Y-45.44
X71.1Y-45.44
X72.1Y-45.44
X31.5Y-45.44
X32.5Y-45.44
X33.5Y-45.44
X34.5Y-45.44
X35.5Y-45.44
X36.5Y-45.44
T6
X30.38Y-31.8
X30.38Y-35.8
X30.38Y-57.3
X30.38Y-61.3
T7
X28.93Y-24.965
X28.93Y-42.745
X74.65Y-24.965
X74.65Y-42.745
X28.93Y-50.465
X28.93Y-68.245
X74.65Y-50.465
X74.65Y-68.245
T0
M30
