G04 #@! TF.GenerationSoftware,KiCad,Pcbnew,(5.1.2)-1*
G04 #@! TF.CreationDate,2019-07-17T11:45:06+10:00*
G04 #@! TF.ProjectId,output.panel,6f757470-7574-42e7-9061-6e656c2e6b69,rev?*
G04 #@! TF.SameCoordinates,Original*
G04 #@! TF.FileFunction,Profile,NP*
%FSLAX46Y46*%
G04 Gerber Fmt 4.6, Leading zero omitted, Abs format (unit mm)*
G04 Created by KiCad (PCBNEW (5.1.2)-1) date 2019-07-17 11:45:06*
%MOMM*%
%LPD*%
G04 APERTURE LIST*
%ADD10C,0.100000*%
%ADD11C,0.050000*%
G04 APERTURE END LIST*
D10*
X71599998Y-48025001D02*
X73743600Y-48025001D01*
X71599998Y-45285001D02*
X73743600Y-45285001D01*
X71599998Y-45285001D02*
X71500345Y-45293327D01*
X71599998Y-48025001D02*
X71500345Y-48016675D01*
X71500345Y-45293327D02*
X71401731Y-45309921D01*
X71500345Y-48016675D02*
X71401731Y-48000081D01*
X71401731Y-45309921D02*
X71304841Y-45334668D01*
X71401731Y-48000081D02*
X71304841Y-47975334D01*
X71304841Y-45334668D02*
X71210348Y-45367396D01*
X71304841Y-47975334D02*
X71210348Y-47942606D01*
X71210348Y-45367396D02*
X71118908Y-45407878D01*
X71210348Y-47942606D02*
X71118908Y-47902124D01*
X71118908Y-45407878D02*
X71031156Y-45455833D01*
X71118908Y-47902124D02*
X71031156Y-47854169D01*
X71031156Y-45455833D02*
X70947701Y-45510928D01*
X71031156Y-47854169D02*
X70947701Y-47799074D01*
X70947701Y-45510928D02*
X70869123Y-45572780D01*
X70947701Y-47799074D02*
X70869123Y-47737222D01*
X70869123Y-45572780D02*
X70795968Y-45640960D01*
X70869123Y-47737222D02*
X70795968Y-47669042D01*
X70795968Y-45640960D02*
X70728744Y-45714994D01*
X70795968Y-47669042D02*
X70728744Y-47595008D01*
X70728744Y-45714994D02*
X70667918Y-45794368D01*
X70728744Y-47595008D02*
X70667918Y-47515634D01*
X70667918Y-45794368D02*
X70613912Y-45878531D01*
X70667918Y-47515634D02*
X70613912Y-47431471D01*
X70613912Y-45878531D02*
X70567101Y-45966898D01*
X70613912Y-47431471D02*
X70567101Y-47343104D01*
X70567101Y-45966898D02*
X70527810Y-46058856D01*
X70567101Y-47343104D02*
X70527810Y-47251146D01*
X70527810Y-46058856D02*
X70496312Y-46153766D01*
X70527810Y-47251146D02*
X70496312Y-47156236D01*
X70496312Y-46153766D02*
X70472826Y-46250969D01*
X70496312Y-47156236D02*
X70472826Y-47059033D01*
X70472826Y-46250969D02*
X70457515Y-46349790D01*
X70472826Y-47059033D02*
X70457515Y-46960212D01*
X70457515Y-46349790D02*
X70450485Y-46449543D01*
X70457515Y-46960212D02*
X70450485Y-46860459D01*
X70450485Y-46860459D02*
X70450485Y-46449543D01*
X66600032Y-45285001D02*
X66699685Y-45293327D01*
X66600032Y-48025001D02*
X66699685Y-48016675D01*
X66699685Y-45293327D02*
X66798299Y-45309921D01*
X66699685Y-48016675D02*
X66798299Y-48000081D01*
X66798299Y-45309921D02*
X66895189Y-45334668D01*
X66798299Y-48000081D02*
X66895189Y-47975334D01*
X66895189Y-45334668D02*
X66989682Y-45367396D01*
X66895189Y-47975334D02*
X66989682Y-47942606D01*
X66989682Y-45367396D02*
X67081122Y-45407878D01*
X66989682Y-47942606D02*
X67081122Y-47902124D01*
X67081122Y-45407878D02*
X67168874Y-45455833D01*
X67081122Y-47902124D02*
X67168874Y-47854169D01*
X67168874Y-45455833D02*
X67252329Y-45510928D01*
X67168874Y-47854169D02*
X67252329Y-47799074D01*
X67252329Y-45510928D02*
X67330907Y-45572780D01*
X67252329Y-47799074D02*
X67330907Y-47737222D01*
X67330907Y-45572780D02*
X67404062Y-45640960D01*
X67330907Y-47737222D02*
X67404062Y-47669042D01*
X67404062Y-45640960D02*
X67471286Y-45714994D01*
X67404062Y-47669042D02*
X67471286Y-47595008D01*
X67471286Y-45714994D02*
X67532112Y-45794368D01*
X67471286Y-47595008D02*
X67532112Y-47515634D01*
X67532112Y-45794368D02*
X67586118Y-45878531D01*
X67532112Y-47515634D02*
X67586118Y-47431471D01*
X67586118Y-45878531D02*
X67632929Y-45966898D01*
X67586118Y-47431471D02*
X67632929Y-47343104D01*
X67632929Y-45966898D02*
X67672220Y-46058856D01*
X67632929Y-47343104D02*
X67672220Y-47251146D01*
X67672220Y-46058856D02*
X67703718Y-46153766D01*
X67672220Y-47251146D02*
X67703718Y-47156236D01*
X67703718Y-46153766D02*
X67727204Y-46250969D01*
X67703718Y-47156236D02*
X67727204Y-47059033D01*
X67727204Y-46250969D02*
X67742515Y-46349790D01*
X67727204Y-47059033D02*
X67742515Y-46960212D01*
X67742515Y-46349790D02*
X67749545Y-46449543D01*
X67742515Y-46960212D02*
X67749545Y-46860459D01*
X67749545Y-46860459D02*
X67749545Y-46449543D01*
X35999963Y-48025001D02*
X66600032Y-48025001D01*
X30999995Y-48025001D02*
X28836400Y-48025001D01*
X35999963Y-45285001D02*
X66600032Y-45285001D01*
X30999995Y-45285001D02*
X28836400Y-45285001D01*
X35999963Y-45285001D02*
X35900310Y-45293327D01*
X35999963Y-48025001D02*
X35900310Y-48016675D01*
X35900310Y-45293327D02*
X35801696Y-45309921D01*
X35900310Y-48016675D02*
X35801696Y-48000081D01*
X35801696Y-45309921D02*
X35704806Y-45334668D01*
X35801696Y-48000081D02*
X35704806Y-47975334D01*
X35704806Y-45334668D02*
X35610313Y-45367396D01*
X35704806Y-47975334D02*
X35610313Y-47942606D01*
X35610313Y-45367396D02*
X35518873Y-45407878D01*
X35610313Y-47942606D02*
X35518873Y-47902124D01*
X35518873Y-45407878D02*
X35431121Y-45455833D01*
X35518873Y-47902124D02*
X35431121Y-47854169D01*
X35431121Y-45455833D02*
X35347666Y-45510928D01*
X35431121Y-47854169D02*
X35347666Y-47799074D01*
X35347666Y-45510928D02*
X35269088Y-45572780D01*
X35347666Y-47799074D02*
X35269088Y-47737222D01*
X35269088Y-45572780D02*
X35195933Y-45640960D01*
X35269088Y-47737222D02*
X35195933Y-47669042D01*
X35195933Y-45640960D02*
X35128709Y-45714994D01*
X35195933Y-47669042D02*
X35128709Y-47595008D01*
X35128709Y-45714994D02*
X35067883Y-45794368D01*
X35128709Y-47595008D02*
X35067883Y-47515634D01*
X35067883Y-45794368D02*
X35013877Y-45878531D01*
X35067883Y-47515634D02*
X35013877Y-47431471D01*
X35013877Y-45878531D02*
X34967066Y-45966898D01*
X35013877Y-47431471D02*
X34967066Y-47343104D01*
X34967066Y-45966898D02*
X34927775Y-46058856D01*
X34967066Y-47343104D02*
X34927775Y-47251146D01*
X34927775Y-46058856D02*
X34896277Y-46153766D01*
X34927775Y-47251146D02*
X34896277Y-47156236D01*
X34896277Y-46153766D02*
X34872791Y-46250969D01*
X34896277Y-47156236D02*
X34872791Y-47059033D01*
X34872791Y-46250969D02*
X34857480Y-46349790D01*
X34872791Y-47059033D02*
X34857480Y-46960212D01*
X34857480Y-46349790D02*
X34850450Y-46449543D01*
X34857480Y-46960212D02*
X34850450Y-46860459D01*
X34850450Y-46860459D02*
X34850450Y-46449543D01*
X30999995Y-45285001D02*
X31099648Y-45293327D01*
X30999995Y-48025001D02*
X31099648Y-48016675D01*
X31099648Y-45293327D02*
X31198262Y-45309921D01*
X31099648Y-48016675D02*
X31198262Y-48000081D01*
X31198262Y-45309921D02*
X31295152Y-45334668D01*
X31198262Y-48000081D02*
X31295152Y-47975334D01*
X31295152Y-45334668D02*
X31389645Y-45367396D01*
X31295152Y-47975334D02*
X31389645Y-47942606D01*
X31389645Y-45367396D02*
X31481085Y-45407878D01*
X31389645Y-47942606D02*
X31481085Y-47902124D01*
X31481085Y-45407878D02*
X31568837Y-45455833D01*
X31481085Y-47902124D02*
X31568837Y-47854169D01*
X31568837Y-45455833D02*
X31652292Y-45510928D01*
X31568837Y-47854169D02*
X31652292Y-47799074D01*
X31652292Y-45510928D02*
X31730870Y-45572780D01*
X31652292Y-47799074D02*
X31730870Y-47737222D01*
X31730870Y-45572780D02*
X31804025Y-45640960D01*
X31730870Y-47737222D02*
X31804025Y-47669042D01*
X31804025Y-45640960D02*
X31871249Y-45714994D01*
X31804025Y-47669042D02*
X31871249Y-47595008D01*
X31871249Y-45714994D02*
X31932075Y-45794368D01*
X31871249Y-47595008D02*
X31932075Y-47515634D01*
X31932075Y-45794368D02*
X31986081Y-45878531D01*
X31932075Y-47515634D02*
X31986081Y-47431471D01*
X31986081Y-45878531D02*
X32032892Y-45966898D01*
X31986081Y-47431471D02*
X32032892Y-47343104D01*
X32032892Y-45966898D02*
X32072183Y-46058856D01*
X32032892Y-47343104D02*
X32072183Y-47251146D01*
X32072183Y-46058856D02*
X32103681Y-46153766D01*
X32072183Y-47251146D02*
X32103681Y-47156236D01*
X32103681Y-46153766D02*
X32127167Y-46250969D01*
X32103681Y-47156236D02*
X32127167Y-47059033D01*
X32127167Y-46250969D02*
X32142478Y-46349790D01*
X32127167Y-47059033D02*
X32142478Y-46960212D01*
X32142478Y-46349790D02*
X32149508Y-46449543D01*
X32142478Y-46960212D02*
X32149508Y-46860459D01*
X32149508Y-46860459D02*
X32149508Y-46449543D01*
D11*
X76283132Y-68393763D02*
X76283600Y-50565001D01*
X28836400Y-70885001D02*
X73743600Y-70885001D01*
X26296400Y-50565001D02*
X26296400Y-68345001D01*
X76283600Y-50565001D02*
G75*
G03X73743600Y-48025001I-2540000J0D01*
G01*
X76283132Y-68393763D02*
G75*
G02X73743600Y-70885001I-2539532J48762D01*
G01*
X26296400Y-68345001D02*
G75*
G03X28836400Y-70885001I2540000J0D01*
G01*
X28836400Y-48025001D02*
G75*
G03X26296400Y-50565001I0J-2540000D01*
G01*
X28836400Y-22425001D02*
G75*
G03X26296400Y-24965001I0J-2540000D01*
G01*
X26296400Y-42745001D02*
G75*
G03X28836400Y-45285001I2540000J0D01*
G01*
X76283132Y-42793763D02*
G75*
G02X73743600Y-45285001I-2539532J48762D01*
G01*
X76283600Y-24965001D02*
G75*
G03X73743600Y-22425001I-2540000J0D01*
G01*
X26296400Y-24965001D02*
X26296400Y-42745001D01*
X76283132Y-42793763D02*
X76283600Y-24965001D01*
X73743600Y-22425001D02*
X28836400Y-22425001D01*
M02*
