G04 #@! TF.GenerationSoftware,KiCad,Pcbnew,(5.1.2)-1*
G04 #@! TF.CreationDate,2019-07-17T11:45:06+10:00*
G04 #@! TF.ProjectId,output.panel,6f757470-7574-42e7-9061-6e656c2e6b69,rev?*
G04 #@! TF.SameCoordinates,Original*
G04 #@! TF.FileFunction,Soldermask,Bot*
G04 #@! TF.FilePolarity,Negative*
%FSLAX46Y46*%
G04 Gerber Fmt 4.6, Leading zero omitted, Abs format (unit mm)*
G04 Created by KiCad (PCBNEW (5.1.2)-1) date 2019-07-17 11:45:06*
%MOMM*%
%LPD*%
G04 APERTURE LIST*
%ADD10C,0.010000*%
%ADD11C,3.658000*%
%ADD12C,1.802000*%
%ADD13C,0.702000*%
%ADD14C,1.602000*%
%ADD15C,0.402000*%
G04 APERTURE END LIST*
D10*
G36*
X34853975Y-62613358D02*
G01*
X34812914Y-62613668D01*
X34776061Y-62614144D01*
X34744552Y-62614763D01*
X34719522Y-62615502D01*
X34702107Y-62616337D01*
X34693443Y-62617244D01*
X34692790Y-62617471D01*
X34690213Y-62623471D01*
X34686078Y-62638787D01*
X34680534Y-62662721D01*
X34673732Y-62694573D01*
X34665821Y-62733644D01*
X34656953Y-62779237D01*
X34649099Y-62820850D01*
X34640849Y-62864601D01*
X34632999Y-62905265D01*
X34625775Y-62941748D01*
X34619401Y-62972957D01*
X34614102Y-62997798D01*
X34610103Y-63015177D01*
X34607628Y-63024000D01*
X34607198Y-63024834D01*
X34600952Y-63028371D01*
X34586849Y-63034916D01*
X34566324Y-63043889D01*
X34540810Y-63054710D01*
X34511742Y-63066800D01*
X34480554Y-63079578D01*
X34448680Y-63092466D01*
X34417553Y-63104882D01*
X34388608Y-63116248D01*
X34363279Y-63125983D01*
X34343001Y-63133508D01*
X34329206Y-63138242D01*
X34323329Y-63139607D01*
X34323322Y-63139605D01*
X34318012Y-63136333D01*
X34305276Y-63127928D01*
X34286052Y-63115025D01*
X34261276Y-63098257D01*
X34231886Y-63078260D01*
X34198820Y-63055669D01*
X34163014Y-63031119D01*
X34154344Y-63025162D01*
X34117915Y-63000277D01*
X34083852Y-62977306D01*
X34053114Y-62956874D01*
X34026661Y-62939606D01*
X34005451Y-62926126D01*
X33990444Y-62917059D01*
X33982599Y-62913028D01*
X33981914Y-62912879D01*
X33976193Y-62916391D01*
X33964398Y-62926292D01*
X33947480Y-62941632D01*
X33926391Y-62961458D01*
X33902081Y-62984820D01*
X33875500Y-63010767D01*
X33847600Y-63038347D01*
X33819331Y-63066609D01*
X33791645Y-63094603D01*
X33765492Y-63121376D01*
X33741822Y-63145978D01*
X33721588Y-63167458D01*
X33705739Y-63184864D01*
X33695226Y-63197246D01*
X33691001Y-63203651D01*
X33690960Y-63203938D01*
X33693757Y-63210058D01*
X33701721Y-63223530D01*
X33714211Y-63243372D01*
X33730590Y-63268598D01*
X33750217Y-63298226D01*
X33772453Y-63331269D01*
X33796659Y-63366745D01*
X33798212Y-63369005D01*
X33822706Y-63404726D01*
X33845501Y-63438139D01*
X33865920Y-63468244D01*
X33883292Y-63494038D01*
X33896940Y-63514521D01*
X33906193Y-63528692D01*
X33910374Y-63535550D01*
X33910432Y-63535670D01*
X33911216Y-63540391D01*
X33910088Y-63548231D01*
X33906701Y-63560143D01*
X33900708Y-63577084D01*
X33891759Y-63600007D01*
X33879509Y-63629867D01*
X33863610Y-63667619D01*
X33855251Y-63687252D01*
X33838982Y-63724852D01*
X33823989Y-63758510D01*
X33810769Y-63787168D01*
X33799825Y-63809772D01*
X33791654Y-63825265D01*
X33786757Y-63832592D01*
X33786290Y-63832948D01*
X33779440Y-63834928D01*
X33763752Y-63838502D01*
X33740384Y-63843434D01*
X33710492Y-63849491D01*
X33675233Y-63856439D01*
X33635764Y-63864044D01*
X33593243Y-63872071D01*
X33588591Y-63872940D01*
X33539854Y-63882180D01*
X33496947Y-63890621D01*
X33460610Y-63898102D01*
X33431582Y-63904463D01*
X33410603Y-63909544D01*
X33398415Y-63913184D01*
X33395549Y-63914714D01*
X33394628Y-63921096D01*
X33393775Y-63936503D01*
X33393011Y-63959798D01*
X33392362Y-63989847D01*
X33391849Y-64025514D01*
X33391497Y-64065663D01*
X33391329Y-64109159D01*
X33391318Y-64120027D01*
X33391351Y-64171548D01*
X33391514Y-64213801D01*
X33391838Y-64247680D01*
X33392353Y-64274077D01*
X33393092Y-64293884D01*
X33394084Y-64307996D01*
X33395361Y-64317303D01*
X33396954Y-64322699D01*
X33398405Y-64324741D01*
X33404905Y-64326999D01*
X33420237Y-64330799D01*
X33443235Y-64335898D01*
X33472729Y-64342050D01*
X33507550Y-64349013D01*
X33546530Y-64356543D01*
X33587635Y-64364236D01*
X33633790Y-64372897D01*
X33675202Y-64380981D01*
X33710938Y-64388286D01*
X33740063Y-64394611D01*
X33761646Y-64399758D01*
X33774751Y-64403525D01*
X33778274Y-64405133D01*
X33782296Y-64411585D01*
X33789286Y-64425987D01*
X33798686Y-64446948D01*
X33809937Y-64473082D01*
X33822481Y-64503000D01*
X33835760Y-64535313D01*
X33849215Y-64568634D01*
X33862288Y-64601575D01*
X33874420Y-64632747D01*
X33885054Y-64660763D01*
X33893631Y-64684233D01*
X33899592Y-64701771D01*
X33902380Y-64711987D01*
X33902444Y-64713842D01*
X33899099Y-64719358D01*
X33890652Y-64732262D01*
X33877764Y-64751573D01*
X33861094Y-64776312D01*
X33841303Y-64805498D01*
X33819052Y-64838151D01*
X33795488Y-64872582D01*
X33771513Y-64907797D01*
X33749474Y-64940662D01*
X33730018Y-64970174D01*
X33713791Y-64995331D01*
X33701442Y-65015130D01*
X33693617Y-65028568D01*
X33690960Y-65034588D01*
X33694463Y-65040258D01*
X33704338Y-65052017D01*
X33719637Y-65068914D01*
X33739410Y-65089997D01*
X33762710Y-65114314D01*
X33788586Y-65140912D01*
X33816092Y-65168838D01*
X33844277Y-65197142D01*
X33872193Y-65224870D01*
X33898891Y-65251071D01*
X33923422Y-65274792D01*
X33944838Y-65295081D01*
X33962190Y-65310985D01*
X33974529Y-65321554D01*
X33980906Y-65325834D01*
X33981208Y-65325880D01*
X33987083Y-65323089D01*
X34000310Y-65315148D01*
X34019898Y-65302705D01*
X34044853Y-65286406D01*
X34074186Y-65266900D01*
X34106902Y-65244834D01*
X34140726Y-65221740D01*
X34175808Y-65197807D01*
X34208507Y-65175813D01*
X34237821Y-65156405D01*
X34262753Y-65140232D01*
X34282304Y-65127942D01*
X34295473Y-65120183D01*
X34301188Y-65117600D01*
X34308614Y-65119920D01*
X34323106Y-65126305D01*
X34342843Y-65135890D01*
X34366009Y-65147810D01*
X34376650Y-65153481D01*
X34402200Y-65166747D01*
X34424486Y-65177375D01*
X34441828Y-65184622D01*
X34452544Y-65187744D01*
X34454177Y-65187771D01*
X34456765Y-65186377D01*
X34460126Y-65182452D01*
X34464533Y-65175381D01*
X34470262Y-65164547D01*
X34477586Y-65149334D01*
X34486780Y-65129125D01*
X34498116Y-65103305D01*
X34511871Y-65071257D01*
X34528316Y-65032365D01*
X34547728Y-64986012D01*
X34570380Y-64931582D01*
X34596546Y-64868459D01*
X34601140Y-64857359D01*
X34623743Y-64802528D01*
X34645089Y-64750342D01*
X34664872Y-64701575D01*
X34682787Y-64656998D01*
X34698527Y-64617386D01*
X34711788Y-64583510D01*
X34722264Y-64556143D01*
X34729648Y-64536060D01*
X34733636Y-64524031D01*
X34734240Y-64520809D01*
X34729051Y-64514897D01*
X34717277Y-64504827D01*
X34700766Y-64492102D01*
X34684827Y-64480629D01*
X34642673Y-64449570D01*
X34608247Y-64420231D01*
X34579797Y-64390682D01*
X34555568Y-64358997D01*
X34533806Y-64323247D01*
X34523137Y-64302918D01*
X34499244Y-64244488D01*
X34484924Y-64184158D01*
X34480021Y-64122953D01*
X34484377Y-64061898D01*
X34497837Y-64002019D01*
X34520244Y-63944342D01*
X34551441Y-63889891D01*
X34591273Y-63839692D01*
X34594336Y-63836411D01*
X34641983Y-63792833D01*
X34695192Y-63757422D01*
X34754646Y-63729755D01*
X34783340Y-63719807D01*
X34800067Y-63714974D01*
X34815835Y-63711632D01*
X34833146Y-63709519D01*
X34854503Y-63708373D01*
X34882407Y-63707935D01*
X34897460Y-63707900D01*
X34929085Y-63708110D01*
X34953064Y-63708916D01*
X34971907Y-63710578D01*
X34988123Y-63713357D01*
X35004222Y-63717516D01*
X35011760Y-63719802D01*
X35073754Y-63744205D01*
X35130039Y-63776690D01*
X35180031Y-63816763D01*
X35223146Y-63863933D01*
X35258799Y-63917707D01*
X35268671Y-63936500D01*
X35289244Y-63983357D01*
X35302766Y-64027726D01*
X35310140Y-64073443D01*
X35312273Y-64121920D01*
X35307414Y-64186989D01*
X35293008Y-64249065D01*
X35269312Y-64307510D01*
X35236584Y-64361687D01*
X35196045Y-64409975D01*
X35177860Y-64426971D01*
X35154238Y-64446791D01*
X35128252Y-64467052D01*
X35102977Y-64485368D01*
X35081486Y-64499354D01*
X35078861Y-64500883D01*
X35067168Y-64509785D01*
X35060128Y-64519264D01*
X35059675Y-64520648D01*
X35061128Y-64527322D01*
X35066359Y-64542833D01*
X35075168Y-64566671D01*
X35087353Y-64598326D01*
X35102713Y-64637287D01*
X35121047Y-64683043D01*
X35142154Y-64735085D01*
X35165834Y-64792901D01*
X35189272Y-64849679D01*
X35211700Y-64903781D01*
X35233086Y-64955286D01*
X35253097Y-65003399D01*
X35271401Y-65047325D01*
X35287666Y-65086268D01*
X35301558Y-65119433D01*
X35312747Y-65146026D01*
X35320898Y-65165249D01*
X35325681Y-65176309D01*
X35326747Y-65178609D01*
X35334980Y-65186716D01*
X35341789Y-65188720D01*
X35349502Y-65186394D01*
X35364255Y-65179995D01*
X35384210Y-65170387D01*
X35407530Y-65158437D01*
X35418358Y-65152672D01*
X35448166Y-65137192D01*
X35471684Y-65126189D01*
X35488125Y-65120007D01*
X35496178Y-65118837D01*
X35503320Y-65122269D01*
X35517462Y-65130700D01*
X35537291Y-65143286D01*
X35561494Y-65159184D01*
X35588759Y-65177551D01*
X35606120Y-65189461D01*
X35653038Y-65221822D01*
X35692318Y-65248815D01*
X35724648Y-65270892D01*
X35750719Y-65288506D01*
X35771219Y-65302109D01*
X35786837Y-65312155D01*
X35798261Y-65319097D01*
X35806181Y-65323388D01*
X35811286Y-65325480D01*
X35813613Y-65325880D01*
X35818879Y-65322399D01*
X35830465Y-65312478D01*
X35847540Y-65296897D01*
X35869279Y-65276437D01*
X35894852Y-65251880D01*
X35923432Y-65224006D01*
X35954191Y-65193597D01*
X35960269Y-65187541D01*
X35991264Y-65156470D01*
X36019990Y-65127382D01*
X36045643Y-65101112D01*
X36067423Y-65078494D01*
X36084527Y-65060363D01*
X36096153Y-65047552D01*
X36101499Y-65040896D01*
X36101734Y-65040413D01*
X36102633Y-65037436D01*
X36102948Y-65034393D01*
X36102165Y-65030460D01*
X36099774Y-65024812D01*
X36095263Y-65016624D01*
X36088121Y-65005072D01*
X36077835Y-64989330D01*
X36063895Y-64968575D01*
X36045788Y-64941980D01*
X36023004Y-64908721D01*
X35995031Y-64867973D01*
X35992485Y-64864266D01*
X35968839Y-64829625D01*
X35947135Y-64797438D01*
X35928027Y-64768706D01*
X35912169Y-64744428D01*
X35900215Y-64725605D01*
X35892819Y-64713237D01*
X35890600Y-64708469D01*
X35892429Y-64702070D01*
X35897610Y-64687455D01*
X35905686Y-64665826D01*
X35916198Y-64638385D01*
X35928688Y-64606333D01*
X35942700Y-64570874D01*
X35949706Y-64553307D01*
X35967443Y-64509314D01*
X35981995Y-64474051D01*
X35993724Y-64446727D01*
X36002994Y-64426551D01*
X36010167Y-64412734D01*
X36015606Y-64404485D01*
X36019556Y-64401059D01*
X36026915Y-64399121D01*
X36043064Y-64395609D01*
X36066798Y-64390762D01*
X36096909Y-64384819D01*
X36132191Y-64378018D01*
X36171438Y-64370597D01*
X36210079Y-64363414D01*
X36251719Y-64355616D01*
X36290331Y-64348154D01*
X36324739Y-64341273D01*
X36353770Y-64335217D01*
X36376249Y-64330232D01*
X36391002Y-64326560D01*
X36396769Y-64324531D01*
X36398567Y-64321360D01*
X36400039Y-64314541D01*
X36401215Y-64303211D01*
X36402123Y-64286509D01*
X36402793Y-64263571D01*
X36403254Y-64233536D01*
X36403535Y-64195541D01*
X36403664Y-64148724D01*
X36403680Y-64118875D01*
X36403680Y-63918954D01*
X36392250Y-63911902D01*
X36384763Y-63909400D01*
X36368464Y-63905372D01*
X36344545Y-63900066D01*
X36314198Y-63893732D01*
X36278616Y-63886617D01*
X36238991Y-63878971D01*
X36196514Y-63871042D01*
X36195400Y-63870838D01*
X36153124Y-63862950D01*
X36113892Y-63855374D01*
X36078855Y-63848352D01*
X36049164Y-63842126D01*
X36025970Y-63836937D01*
X36010424Y-63833026D01*
X36003677Y-63830637D01*
X36003595Y-63830566D01*
X35999910Y-63824301D01*
X35992978Y-63810106D01*
X35983423Y-63789428D01*
X35971866Y-63763713D01*
X35958930Y-63734406D01*
X35945237Y-63702954D01*
X35931409Y-63670802D01*
X35918069Y-63639397D01*
X35905839Y-63610185D01*
X35895341Y-63584611D01*
X35887197Y-63564123D01*
X35882031Y-63550165D01*
X35880440Y-63544394D01*
X35883233Y-63538575D01*
X35891189Y-63525372D01*
X35903681Y-63505749D01*
X35920076Y-63480667D01*
X35939746Y-63451089D01*
X35962061Y-63417976D01*
X35986389Y-63382293D01*
X35990258Y-63376655D01*
X36014952Y-63340538D01*
X36037845Y-63306750D01*
X36058287Y-63276274D01*
X36075629Y-63250088D01*
X36089222Y-63229175D01*
X36098417Y-63214516D01*
X36102566Y-63207090D01*
X36102707Y-63206684D01*
X36101946Y-63202579D01*
X36097786Y-63195668D01*
X36089683Y-63185355D01*
X36077095Y-63171048D01*
X36059479Y-63152154D01*
X36036292Y-63128078D01*
X36006992Y-63098226D01*
X35971036Y-63062005D01*
X35963801Y-63054749D01*
X35927782Y-63018889D01*
X35895644Y-62987378D01*
X35867932Y-62960731D01*
X35845194Y-62939461D01*
X35827977Y-62924081D01*
X35816826Y-62915105D01*
X35812675Y-62912880D01*
X35806440Y-62915672D01*
X35792844Y-62923627D01*
X35772867Y-62936110D01*
X35747492Y-62952487D01*
X35717700Y-62972122D01*
X35684474Y-62994382D01*
X35648795Y-63018631D01*
X35644914Y-63021289D01*
X35608900Y-63045928D01*
X35575178Y-63068914D01*
X35544747Y-63089573D01*
X35518605Y-63107230D01*
X35497752Y-63121211D01*
X35483185Y-63130841D01*
X35475904Y-63135446D01*
X35475648Y-63135587D01*
X35471195Y-63136941D01*
X35464661Y-63136744D01*
X35454941Y-63134631D01*
X35440932Y-63130234D01*
X35421529Y-63123187D01*
X35395627Y-63113124D01*
X35362123Y-63099677D01*
X35338488Y-63090068D01*
X35296634Y-63072981D01*
X35263212Y-63059243D01*
X35237240Y-63048382D01*
X35217736Y-63039926D01*
X35203719Y-63033403D01*
X35194205Y-63028340D01*
X35188214Y-63024266D01*
X35184764Y-63020708D01*
X35182872Y-63017193D01*
X35182055Y-63014840D01*
X35180440Y-63007736D01*
X35177207Y-62991805D01*
X35172580Y-62968215D01*
X35166784Y-62938129D01*
X35160042Y-62902714D01*
X35152580Y-62863135D01*
X35144622Y-62820558D01*
X35143805Y-62816168D01*
X35135748Y-62773481D01*
X35128032Y-62733799D01*
X35120896Y-62698266D01*
X35114580Y-62668028D01*
X35109324Y-62644228D01*
X35105367Y-62628012D01*
X35102950Y-62620524D01*
X35102788Y-62620283D01*
X35099758Y-62618437D01*
X35093437Y-62616928D01*
X35082937Y-62615727D01*
X35067367Y-62614801D01*
X35045841Y-62614121D01*
X35017468Y-62613657D01*
X34981361Y-62613376D01*
X34936630Y-62613250D01*
X34898108Y-62613237D01*
X34853975Y-62613358D01*
X34853975Y-62613358D01*
G37*
X34853975Y-62613358D02*
X34812914Y-62613668D01*
X34776061Y-62614144D01*
X34744552Y-62614763D01*
X34719522Y-62615502D01*
X34702107Y-62616337D01*
X34693443Y-62617244D01*
X34692790Y-62617471D01*
X34690213Y-62623471D01*
X34686078Y-62638787D01*
X34680534Y-62662721D01*
X34673732Y-62694573D01*
X34665821Y-62733644D01*
X34656953Y-62779237D01*
X34649099Y-62820850D01*
X34640849Y-62864601D01*
X34632999Y-62905265D01*
X34625775Y-62941748D01*
X34619401Y-62972957D01*
X34614102Y-62997798D01*
X34610103Y-63015177D01*
X34607628Y-63024000D01*
X34607198Y-63024834D01*
X34600952Y-63028371D01*
X34586849Y-63034916D01*
X34566324Y-63043889D01*
X34540810Y-63054710D01*
X34511742Y-63066800D01*
X34480554Y-63079578D01*
X34448680Y-63092466D01*
X34417553Y-63104882D01*
X34388608Y-63116248D01*
X34363279Y-63125983D01*
X34343001Y-63133508D01*
X34329206Y-63138242D01*
X34323329Y-63139607D01*
X34323322Y-63139605D01*
X34318012Y-63136333D01*
X34305276Y-63127928D01*
X34286052Y-63115025D01*
X34261276Y-63098257D01*
X34231886Y-63078260D01*
X34198820Y-63055669D01*
X34163014Y-63031119D01*
X34154344Y-63025162D01*
X34117915Y-63000277D01*
X34083852Y-62977306D01*
X34053114Y-62956874D01*
X34026661Y-62939606D01*
X34005451Y-62926126D01*
X33990444Y-62917059D01*
X33982599Y-62913028D01*
X33981914Y-62912879D01*
X33976193Y-62916391D01*
X33964398Y-62926292D01*
X33947480Y-62941632D01*
X33926391Y-62961458D01*
X33902081Y-62984820D01*
X33875500Y-63010767D01*
X33847600Y-63038347D01*
X33819331Y-63066609D01*
X33791645Y-63094603D01*
X33765492Y-63121376D01*
X33741822Y-63145978D01*
X33721588Y-63167458D01*
X33705739Y-63184864D01*
X33695226Y-63197246D01*
X33691001Y-63203651D01*
X33690960Y-63203938D01*
X33693757Y-63210058D01*
X33701721Y-63223530D01*
X33714211Y-63243372D01*
X33730590Y-63268598D01*
X33750217Y-63298226D01*
X33772453Y-63331269D01*
X33796659Y-63366745D01*
X33798212Y-63369005D01*
X33822706Y-63404726D01*
X33845501Y-63438139D01*
X33865920Y-63468244D01*
X33883292Y-63494038D01*
X33896940Y-63514521D01*
X33906193Y-63528692D01*
X33910374Y-63535550D01*
X33910432Y-63535670D01*
X33911216Y-63540391D01*
X33910088Y-63548231D01*
X33906701Y-63560143D01*
X33900708Y-63577084D01*
X33891759Y-63600007D01*
X33879509Y-63629867D01*
X33863610Y-63667619D01*
X33855251Y-63687252D01*
X33838982Y-63724852D01*
X33823989Y-63758510D01*
X33810769Y-63787168D01*
X33799825Y-63809772D01*
X33791654Y-63825265D01*
X33786757Y-63832592D01*
X33786290Y-63832948D01*
X33779440Y-63834928D01*
X33763752Y-63838502D01*
X33740384Y-63843434D01*
X33710492Y-63849491D01*
X33675233Y-63856439D01*
X33635764Y-63864044D01*
X33593243Y-63872071D01*
X33588591Y-63872940D01*
X33539854Y-63882180D01*
X33496947Y-63890621D01*
X33460610Y-63898102D01*
X33431582Y-63904463D01*
X33410603Y-63909544D01*
X33398415Y-63913184D01*
X33395549Y-63914714D01*
X33394628Y-63921096D01*
X33393775Y-63936503D01*
X33393011Y-63959798D01*
X33392362Y-63989847D01*
X33391849Y-64025514D01*
X33391497Y-64065663D01*
X33391329Y-64109159D01*
X33391318Y-64120027D01*
X33391351Y-64171548D01*
X33391514Y-64213801D01*
X33391838Y-64247680D01*
X33392353Y-64274077D01*
X33393092Y-64293884D01*
X33394084Y-64307996D01*
X33395361Y-64317303D01*
X33396954Y-64322699D01*
X33398405Y-64324741D01*
X33404905Y-64326999D01*
X33420237Y-64330799D01*
X33443235Y-64335898D01*
X33472729Y-64342050D01*
X33507550Y-64349013D01*
X33546530Y-64356543D01*
X33587635Y-64364236D01*
X33633790Y-64372897D01*
X33675202Y-64380981D01*
X33710938Y-64388286D01*
X33740063Y-64394611D01*
X33761646Y-64399758D01*
X33774751Y-64403525D01*
X33778274Y-64405133D01*
X33782296Y-64411585D01*
X33789286Y-64425987D01*
X33798686Y-64446948D01*
X33809937Y-64473082D01*
X33822481Y-64503000D01*
X33835760Y-64535313D01*
X33849215Y-64568634D01*
X33862288Y-64601575D01*
X33874420Y-64632747D01*
X33885054Y-64660763D01*
X33893631Y-64684233D01*
X33899592Y-64701771D01*
X33902380Y-64711987D01*
X33902444Y-64713842D01*
X33899099Y-64719358D01*
X33890652Y-64732262D01*
X33877764Y-64751573D01*
X33861094Y-64776312D01*
X33841303Y-64805498D01*
X33819052Y-64838151D01*
X33795488Y-64872582D01*
X33771513Y-64907797D01*
X33749474Y-64940662D01*
X33730018Y-64970174D01*
X33713791Y-64995331D01*
X33701442Y-65015130D01*
X33693617Y-65028568D01*
X33690960Y-65034588D01*
X33694463Y-65040258D01*
X33704338Y-65052017D01*
X33719637Y-65068914D01*
X33739410Y-65089997D01*
X33762710Y-65114314D01*
X33788586Y-65140912D01*
X33816092Y-65168838D01*
X33844277Y-65197142D01*
X33872193Y-65224870D01*
X33898891Y-65251071D01*
X33923422Y-65274792D01*
X33944838Y-65295081D01*
X33962190Y-65310985D01*
X33974529Y-65321554D01*
X33980906Y-65325834D01*
X33981208Y-65325880D01*
X33987083Y-65323089D01*
X34000310Y-65315148D01*
X34019898Y-65302705D01*
X34044853Y-65286406D01*
X34074186Y-65266900D01*
X34106902Y-65244834D01*
X34140726Y-65221740D01*
X34175808Y-65197807D01*
X34208507Y-65175813D01*
X34237821Y-65156405D01*
X34262753Y-65140232D01*
X34282304Y-65127942D01*
X34295473Y-65120183D01*
X34301188Y-65117600D01*
X34308614Y-65119920D01*
X34323106Y-65126305D01*
X34342843Y-65135890D01*
X34366009Y-65147810D01*
X34376650Y-65153481D01*
X34402200Y-65166747D01*
X34424486Y-65177375D01*
X34441828Y-65184622D01*
X34452544Y-65187744D01*
X34454177Y-65187771D01*
X34456765Y-65186377D01*
X34460126Y-65182452D01*
X34464533Y-65175381D01*
X34470262Y-65164547D01*
X34477586Y-65149334D01*
X34486780Y-65129125D01*
X34498116Y-65103305D01*
X34511871Y-65071257D01*
X34528316Y-65032365D01*
X34547728Y-64986012D01*
X34570380Y-64931582D01*
X34596546Y-64868459D01*
X34601140Y-64857359D01*
X34623743Y-64802528D01*
X34645089Y-64750342D01*
X34664872Y-64701575D01*
X34682787Y-64656998D01*
X34698527Y-64617386D01*
X34711788Y-64583510D01*
X34722264Y-64556143D01*
X34729648Y-64536060D01*
X34733636Y-64524031D01*
X34734240Y-64520809D01*
X34729051Y-64514897D01*
X34717277Y-64504827D01*
X34700766Y-64492102D01*
X34684827Y-64480629D01*
X34642673Y-64449570D01*
X34608247Y-64420231D01*
X34579797Y-64390682D01*
X34555568Y-64358997D01*
X34533806Y-64323247D01*
X34523137Y-64302918D01*
X34499244Y-64244488D01*
X34484924Y-64184158D01*
X34480021Y-64122953D01*
X34484377Y-64061898D01*
X34497837Y-64002019D01*
X34520244Y-63944342D01*
X34551441Y-63889891D01*
X34591273Y-63839692D01*
X34594336Y-63836411D01*
X34641983Y-63792833D01*
X34695192Y-63757422D01*
X34754646Y-63729755D01*
X34783340Y-63719807D01*
X34800067Y-63714974D01*
X34815835Y-63711632D01*
X34833146Y-63709519D01*
X34854503Y-63708373D01*
X34882407Y-63707935D01*
X34897460Y-63707900D01*
X34929085Y-63708110D01*
X34953064Y-63708916D01*
X34971907Y-63710578D01*
X34988123Y-63713357D01*
X35004222Y-63717516D01*
X35011760Y-63719802D01*
X35073754Y-63744205D01*
X35130039Y-63776690D01*
X35180031Y-63816763D01*
X35223146Y-63863933D01*
X35258799Y-63917707D01*
X35268671Y-63936500D01*
X35289244Y-63983357D01*
X35302766Y-64027726D01*
X35310140Y-64073443D01*
X35312273Y-64121920D01*
X35307414Y-64186989D01*
X35293008Y-64249065D01*
X35269312Y-64307510D01*
X35236584Y-64361687D01*
X35196045Y-64409975D01*
X35177860Y-64426971D01*
X35154238Y-64446791D01*
X35128252Y-64467052D01*
X35102977Y-64485368D01*
X35081486Y-64499354D01*
X35078861Y-64500883D01*
X35067168Y-64509785D01*
X35060128Y-64519264D01*
X35059675Y-64520648D01*
X35061128Y-64527322D01*
X35066359Y-64542833D01*
X35075168Y-64566671D01*
X35087353Y-64598326D01*
X35102713Y-64637287D01*
X35121047Y-64683043D01*
X35142154Y-64735085D01*
X35165834Y-64792901D01*
X35189272Y-64849679D01*
X35211700Y-64903781D01*
X35233086Y-64955286D01*
X35253097Y-65003399D01*
X35271401Y-65047325D01*
X35287666Y-65086268D01*
X35301558Y-65119433D01*
X35312747Y-65146026D01*
X35320898Y-65165249D01*
X35325681Y-65176309D01*
X35326747Y-65178609D01*
X35334980Y-65186716D01*
X35341789Y-65188720D01*
X35349502Y-65186394D01*
X35364255Y-65179995D01*
X35384210Y-65170387D01*
X35407530Y-65158437D01*
X35418358Y-65152672D01*
X35448166Y-65137192D01*
X35471684Y-65126189D01*
X35488125Y-65120007D01*
X35496178Y-65118837D01*
X35503320Y-65122269D01*
X35517462Y-65130700D01*
X35537291Y-65143286D01*
X35561494Y-65159184D01*
X35588759Y-65177551D01*
X35606120Y-65189461D01*
X35653038Y-65221822D01*
X35692318Y-65248815D01*
X35724648Y-65270892D01*
X35750719Y-65288506D01*
X35771219Y-65302109D01*
X35786837Y-65312155D01*
X35798261Y-65319097D01*
X35806181Y-65323388D01*
X35811286Y-65325480D01*
X35813613Y-65325880D01*
X35818879Y-65322399D01*
X35830465Y-65312478D01*
X35847540Y-65296897D01*
X35869279Y-65276437D01*
X35894852Y-65251880D01*
X35923432Y-65224006D01*
X35954191Y-65193597D01*
X35960269Y-65187541D01*
X35991264Y-65156470D01*
X36019990Y-65127382D01*
X36045643Y-65101112D01*
X36067423Y-65078494D01*
X36084527Y-65060363D01*
X36096153Y-65047552D01*
X36101499Y-65040896D01*
X36101734Y-65040413D01*
X36102633Y-65037436D01*
X36102948Y-65034393D01*
X36102165Y-65030460D01*
X36099774Y-65024812D01*
X36095263Y-65016624D01*
X36088121Y-65005072D01*
X36077835Y-64989330D01*
X36063895Y-64968575D01*
X36045788Y-64941980D01*
X36023004Y-64908721D01*
X35995031Y-64867973D01*
X35992485Y-64864266D01*
X35968839Y-64829625D01*
X35947135Y-64797438D01*
X35928027Y-64768706D01*
X35912169Y-64744428D01*
X35900215Y-64725605D01*
X35892819Y-64713237D01*
X35890600Y-64708469D01*
X35892429Y-64702070D01*
X35897610Y-64687455D01*
X35905686Y-64665826D01*
X35916198Y-64638385D01*
X35928688Y-64606333D01*
X35942700Y-64570874D01*
X35949706Y-64553307D01*
X35967443Y-64509314D01*
X35981995Y-64474051D01*
X35993724Y-64446727D01*
X36002994Y-64426551D01*
X36010167Y-64412734D01*
X36015606Y-64404485D01*
X36019556Y-64401059D01*
X36026915Y-64399121D01*
X36043064Y-64395609D01*
X36066798Y-64390762D01*
X36096909Y-64384819D01*
X36132191Y-64378018D01*
X36171438Y-64370597D01*
X36210079Y-64363414D01*
X36251719Y-64355616D01*
X36290331Y-64348154D01*
X36324739Y-64341273D01*
X36353770Y-64335217D01*
X36376249Y-64330232D01*
X36391002Y-64326560D01*
X36396769Y-64324531D01*
X36398567Y-64321360D01*
X36400039Y-64314541D01*
X36401215Y-64303211D01*
X36402123Y-64286509D01*
X36402793Y-64263571D01*
X36403254Y-64233536D01*
X36403535Y-64195541D01*
X36403664Y-64148724D01*
X36403680Y-64118875D01*
X36403680Y-63918954D01*
X36392250Y-63911902D01*
X36384763Y-63909400D01*
X36368464Y-63905372D01*
X36344545Y-63900066D01*
X36314198Y-63893732D01*
X36278616Y-63886617D01*
X36238991Y-63878971D01*
X36196514Y-63871042D01*
X36195400Y-63870838D01*
X36153124Y-63862950D01*
X36113892Y-63855374D01*
X36078855Y-63848352D01*
X36049164Y-63842126D01*
X36025970Y-63836937D01*
X36010424Y-63833026D01*
X36003677Y-63830637D01*
X36003595Y-63830566D01*
X35999910Y-63824301D01*
X35992978Y-63810106D01*
X35983423Y-63789428D01*
X35971866Y-63763713D01*
X35958930Y-63734406D01*
X35945237Y-63702954D01*
X35931409Y-63670802D01*
X35918069Y-63639397D01*
X35905839Y-63610185D01*
X35895341Y-63584611D01*
X35887197Y-63564123D01*
X35882031Y-63550165D01*
X35880440Y-63544394D01*
X35883233Y-63538575D01*
X35891189Y-63525372D01*
X35903681Y-63505749D01*
X35920076Y-63480667D01*
X35939746Y-63451089D01*
X35962061Y-63417976D01*
X35986389Y-63382293D01*
X35990258Y-63376655D01*
X36014952Y-63340538D01*
X36037845Y-63306750D01*
X36058287Y-63276274D01*
X36075629Y-63250088D01*
X36089222Y-63229175D01*
X36098417Y-63214516D01*
X36102566Y-63207090D01*
X36102707Y-63206684D01*
X36101946Y-63202579D01*
X36097786Y-63195668D01*
X36089683Y-63185355D01*
X36077095Y-63171048D01*
X36059479Y-63152154D01*
X36036292Y-63128078D01*
X36006992Y-63098226D01*
X35971036Y-63062005D01*
X35963801Y-63054749D01*
X35927782Y-63018889D01*
X35895644Y-62987378D01*
X35867932Y-62960731D01*
X35845194Y-62939461D01*
X35827977Y-62924081D01*
X35816826Y-62915105D01*
X35812675Y-62912880D01*
X35806440Y-62915672D01*
X35792844Y-62923627D01*
X35772867Y-62936110D01*
X35747492Y-62952487D01*
X35717700Y-62972122D01*
X35684474Y-62994382D01*
X35648795Y-63018631D01*
X35644914Y-63021289D01*
X35608900Y-63045928D01*
X35575178Y-63068914D01*
X35544747Y-63089573D01*
X35518605Y-63107230D01*
X35497752Y-63121211D01*
X35483185Y-63130841D01*
X35475904Y-63135446D01*
X35475648Y-63135587D01*
X35471195Y-63136941D01*
X35464661Y-63136744D01*
X35454941Y-63134631D01*
X35440932Y-63130234D01*
X35421529Y-63123187D01*
X35395627Y-63113124D01*
X35362123Y-63099677D01*
X35338488Y-63090068D01*
X35296634Y-63072981D01*
X35263212Y-63059243D01*
X35237240Y-63048382D01*
X35217736Y-63039926D01*
X35203719Y-63033403D01*
X35194205Y-63028340D01*
X35188214Y-63024266D01*
X35184764Y-63020708D01*
X35182872Y-63017193D01*
X35182055Y-63014840D01*
X35180440Y-63007736D01*
X35177207Y-62991805D01*
X35172580Y-62968215D01*
X35166784Y-62938129D01*
X35160042Y-62902714D01*
X35152580Y-62863135D01*
X35144622Y-62820558D01*
X35143805Y-62816168D01*
X35135748Y-62773481D01*
X35128032Y-62733799D01*
X35120896Y-62698266D01*
X35114580Y-62668028D01*
X35109324Y-62644228D01*
X35105367Y-62628012D01*
X35102950Y-62620524D01*
X35102788Y-62620283D01*
X35099758Y-62618437D01*
X35093437Y-62616928D01*
X35082937Y-62615727D01*
X35067367Y-62614801D01*
X35045841Y-62614121D01*
X35017468Y-62613657D01*
X34981361Y-62613376D01*
X34936630Y-62613250D01*
X34898108Y-62613237D01*
X34853975Y-62613358D01*
G36*
X34853975Y-37013358D02*
G01*
X34812914Y-37013668D01*
X34776061Y-37014144D01*
X34744552Y-37014763D01*
X34719522Y-37015502D01*
X34702107Y-37016337D01*
X34693443Y-37017244D01*
X34692790Y-37017471D01*
X34690213Y-37023471D01*
X34686078Y-37038787D01*
X34680534Y-37062721D01*
X34673732Y-37094573D01*
X34665821Y-37133644D01*
X34656953Y-37179237D01*
X34649099Y-37220850D01*
X34640849Y-37264601D01*
X34632999Y-37305265D01*
X34625775Y-37341748D01*
X34619401Y-37372957D01*
X34614102Y-37397798D01*
X34610103Y-37415177D01*
X34607628Y-37424000D01*
X34607198Y-37424834D01*
X34600952Y-37428371D01*
X34586849Y-37434916D01*
X34566324Y-37443889D01*
X34540810Y-37454710D01*
X34511742Y-37466800D01*
X34480554Y-37479578D01*
X34448680Y-37492466D01*
X34417553Y-37504882D01*
X34388608Y-37516248D01*
X34363279Y-37525983D01*
X34343001Y-37533508D01*
X34329206Y-37538242D01*
X34323329Y-37539607D01*
X34323322Y-37539605D01*
X34318012Y-37536333D01*
X34305276Y-37527928D01*
X34286052Y-37515025D01*
X34261276Y-37498257D01*
X34231886Y-37478260D01*
X34198820Y-37455669D01*
X34163014Y-37431119D01*
X34154344Y-37425162D01*
X34117915Y-37400277D01*
X34083852Y-37377306D01*
X34053114Y-37356874D01*
X34026661Y-37339606D01*
X34005451Y-37326126D01*
X33990444Y-37317059D01*
X33982599Y-37313028D01*
X33981914Y-37312879D01*
X33976193Y-37316391D01*
X33964398Y-37326292D01*
X33947480Y-37341632D01*
X33926391Y-37361458D01*
X33902081Y-37384820D01*
X33875500Y-37410767D01*
X33847600Y-37438347D01*
X33819331Y-37466609D01*
X33791645Y-37494603D01*
X33765492Y-37521376D01*
X33741822Y-37545978D01*
X33721588Y-37567458D01*
X33705739Y-37584864D01*
X33695226Y-37597246D01*
X33691001Y-37603651D01*
X33690960Y-37603938D01*
X33693757Y-37610058D01*
X33701721Y-37623530D01*
X33714211Y-37643372D01*
X33730590Y-37668598D01*
X33750217Y-37698226D01*
X33772453Y-37731269D01*
X33796659Y-37766745D01*
X33798212Y-37769005D01*
X33822706Y-37804726D01*
X33845501Y-37838139D01*
X33865920Y-37868244D01*
X33883292Y-37894038D01*
X33896940Y-37914521D01*
X33906193Y-37928692D01*
X33910374Y-37935550D01*
X33910432Y-37935670D01*
X33911216Y-37940391D01*
X33910088Y-37948231D01*
X33906701Y-37960143D01*
X33900708Y-37977084D01*
X33891759Y-38000007D01*
X33879509Y-38029867D01*
X33863610Y-38067619D01*
X33855251Y-38087252D01*
X33838982Y-38124852D01*
X33823989Y-38158510D01*
X33810769Y-38187168D01*
X33799825Y-38209772D01*
X33791654Y-38225265D01*
X33786757Y-38232592D01*
X33786290Y-38232948D01*
X33779440Y-38234928D01*
X33763752Y-38238502D01*
X33740384Y-38243434D01*
X33710492Y-38249491D01*
X33675233Y-38256439D01*
X33635764Y-38264044D01*
X33593243Y-38272071D01*
X33588591Y-38272940D01*
X33539854Y-38282180D01*
X33496947Y-38290621D01*
X33460610Y-38298102D01*
X33431582Y-38304463D01*
X33410603Y-38309544D01*
X33398415Y-38313184D01*
X33395549Y-38314714D01*
X33394628Y-38321096D01*
X33393775Y-38336503D01*
X33393011Y-38359798D01*
X33392362Y-38389847D01*
X33391849Y-38425514D01*
X33391497Y-38465663D01*
X33391329Y-38509159D01*
X33391318Y-38520027D01*
X33391351Y-38571548D01*
X33391514Y-38613801D01*
X33391838Y-38647680D01*
X33392353Y-38674077D01*
X33393092Y-38693884D01*
X33394084Y-38707996D01*
X33395361Y-38717303D01*
X33396954Y-38722699D01*
X33398405Y-38724741D01*
X33404905Y-38726999D01*
X33420237Y-38730799D01*
X33443235Y-38735898D01*
X33472729Y-38742050D01*
X33507550Y-38749013D01*
X33546530Y-38756543D01*
X33587635Y-38764236D01*
X33633790Y-38772897D01*
X33675202Y-38780981D01*
X33710938Y-38788286D01*
X33740063Y-38794611D01*
X33761646Y-38799758D01*
X33774751Y-38803525D01*
X33778274Y-38805133D01*
X33782296Y-38811585D01*
X33789286Y-38825987D01*
X33798686Y-38846948D01*
X33809937Y-38873082D01*
X33822481Y-38903000D01*
X33835760Y-38935313D01*
X33849215Y-38968634D01*
X33862288Y-39001575D01*
X33874420Y-39032747D01*
X33885054Y-39060763D01*
X33893631Y-39084233D01*
X33899592Y-39101771D01*
X33902380Y-39111987D01*
X33902444Y-39113842D01*
X33899099Y-39119358D01*
X33890652Y-39132262D01*
X33877764Y-39151573D01*
X33861094Y-39176312D01*
X33841303Y-39205498D01*
X33819052Y-39238151D01*
X33795488Y-39272582D01*
X33771513Y-39307797D01*
X33749474Y-39340662D01*
X33730018Y-39370174D01*
X33713791Y-39395331D01*
X33701442Y-39415130D01*
X33693617Y-39428568D01*
X33690960Y-39434588D01*
X33694463Y-39440258D01*
X33704338Y-39452017D01*
X33719637Y-39468914D01*
X33739410Y-39489997D01*
X33762710Y-39514314D01*
X33788586Y-39540912D01*
X33816092Y-39568838D01*
X33844277Y-39597142D01*
X33872193Y-39624870D01*
X33898891Y-39651071D01*
X33923422Y-39674792D01*
X33944838Y-39695081D01*
X33962190Y-39710985D01*
X33974529Y-39721554D01*
X33980906Y-39725834D01*
X33981208Y-39725880D01*
X33987083Y-39723089D01*
X34000310Y-39715148D01*
X34019898Y-39702705D01*
X34044853Y-39686406D01*
X34074186Y-39666900D01*
X34106902Y-39644834D01*
X34140726Y-39621740D01*
X34175808Y-39597807D01*
X34208507Y-39575813D01*
X34237821Y-39556405D01*
X34262753Y-39540232D01*
X34282304Y-39527942D01*
X34295473Y-39520183D01*
X34301188Y-39517600D01*
X34308614Y-39519920D01*
X34323106Y-39526305D01*
X34342843Y-39535890D01*
X34366009Y-39547810D01*
X34376650Y-39553481D01*
X34402200Y-39566747D01*
X34424486Y-39577375D01*
X34441828Y-39584622D01*
X34452544Y-39587744D01*
X34454177Y-39587771D01*
X34456765Y-39586377D01*
X34460126Y-39582452D01*
X34464533Y-39575381D01*
X34470262Y-39564547D01*
X34477586Y-39549334D01*
X34486780Y-39529125D01*
X34498116Y-39503305D01*
X34511871Y-39471257D01*
X34528316Y-39432365D01*
X34547728Y-39386012D01*
X34570380Y-39331582D01*
X34596546Y-39268459D01*
X34601140Y-39257359D01*
X34623743Y-39202528D01*
X34645089Y-39150342D01*
X34664872Y-39101575D01*
X34682787Y-39056998D01*
X34698527Y-39017386D01*
X34711788Y-38983510D01*
X34722264Y-38956143D01*
X34729648Y-38936060D01*
X34733636Y-38924031D01*
X34734240Y-38920809D01*
X34729051Y-38914897D01*
X34717277Y-38904827D01*
X34700766Y-38892102D01*
X34684827Y-38880629D01*
X34642673Y-38849570D01*
X34608247Y-38820231D01*
X34579797Y-38790682D01*
X34555568Y-38758997D01*
X34533806Y-38723247D01*
X34523137Y-38702918D01*
X34499244Y-38644488D01*
X34484924Y-38584158D01*
X34480021Y-38522953D01*
X34484377Y-38461898D01*
X34497837Y-38402019D01*
X34520244Y-38344342D01*
X34551441Y-38289891D01*
X34591273Y-38239692D01*
X34594336Y-38236411D01*
X34641983Y-38192833D01*
X34695192Y-38157422D01*
X34754646Y-38129755D01*
X34783340Y-38119807D01*
X34800067Y-38114974D01*
X34815835Y-38111632D01*
X34833146Y-38109519D01*
X34854503Y-38108373D01*
X34882407Y-38107935D01*
X34897460Y-38107900D01*
X34929085Y-38108110D01*
X34953064Y-38108916D01*
X34971907Y-38110578D01*
X34988123Y-38113357D01*
X35004222Y-38117516D01*
X35011760Y-38119802D01*
X35073754Y-38144205D01*
X35130039Y-38176690D01*
X35180031Y-38216763D01*
X35223146Y-38263933D01*
X35258799Y-38317707D01*
X35268671Y-38336500D01*
X35289244Y-38383357D01*
X35302766Y-38427726D01*
X35310140Y-38473443D01*
X35312273Y-38521920D01*
X35307414Y-38586989D01*
X35293008Y-38649065D01*
X35269312Y-38707510D01*
X35236584Y-38761687D01*
X35196045Y-38809975D01*
X35177860Y-38826971D01*
X35154238Y-38846791D01*
X35128252Y-38867052D01*
X35102977Y-38885368D01*
X35081486Y-38899354D01*
X35078861Y-38900883D01*
X35067168Y-38909785D01*
X35060128Y-38919264D01*
X35059675Y-38920648D01*
X35061128Y-38927322D01*
X35066359Y-38942833D01*
X35075168Y-38966671D01*
X35087353Y-38998326D01*
X35102713Y-39037287D01*
X35121047Y-39083043D01*
X35142154Y-39135085D01*
X35165834Y-39192901D01*
X35189272Y-39249679D01*
X35211700Y-39303781D01*
X35233086Y-39355286D01*
X35253097Y-39403399D01*
X35271401Y-39447325D01*
X35287666Y-39486268D01*
X35301558Y-39519433D01*
X35312747Y-39546026D01*
X35320898Y-39565249D01*
X35325681Y-39576309D01*
X35326747Y-39578609D01*
X35334980Y-39586716D01*
X35341789Y-39588720D01*
X35349502Y-39586394D01*
X35364255Y-39579995D01*
X35384210Y-39570387D01*
X35407530Y-39558437D01*
X35418358Y-39552672D01*
X35448166Y-39537192D01*
X35471684Y-39526189D01*
X35488125Y-39520007D01*
X35496178Y-39518837D01*
X35503320Y-39522269D01*
X35517462Y-39530700D01*
X35537291Y-39543286D01*
X35561494Y-39559184D01*
X35588759Y-39577551D01*
X35606120Y-39589461D01*
X35653038Y-39621822D01*
X35692318Y-39648815D01*
X35724648Y-39670892D01*
X35750719Y-39688506D01*
X35771219Y-39702109D01*
X35786837Y-39712155D01*
X35798261Y-39719097D01*
X35806181Y-39723388D01*
X35811286Y-39725480D01*
X35813613Y-39725880D01*
X35818879Y-39722399D01*
X35830465Y-39712478D01*
X35847540Y-39696897D01*
X35869279Y-39676437D01*
X35894852Y-39651880D01*
X35923432Y-39624006D01*
X35954191Y-39593597D01*
X35960269Y-39587541D01*
X35991264Y-39556470D01*
X36019990Y-39527382D01*
X36045643Y-39501112D01*
X36067423Y-39478494D01*
X36084527Y-39460363D01*
X36096153Y-39447552D01*
X36101499Y-39440896D01*
X36101734Y-39440413D01*
X36102633Y-39437436D01*
X36102948Y-39434393D01*
X36102165Y-39430460D01*
X36099774Y-39424812D01*
X36095263Y-39416624D01*
X36088121Y-39405072D01*
X36077835Y-39389330D01*
X36063895Y-39368575D01*
X36045788Y-39341980D01*
X36023004Y-39308721D01*
X35995031Y-39267973D01*
X35992485Y-39264266D01*
X35968839Y-39229625D01*
X35947135Y-39197438D01*
X35928027Y-39168706D01*
X35912169Y-39144428D01*
X35900215Y-39125605D01*
X35892819Y-39113237D01*
X35890600Y-39108469D01*
X35892429Y-39102070D01*
X35897610Y-39087455D01*
X35905686Y-39065826D01*
X35916198Y-39038385D01*
X35928688Y-39006333D01*
X35942700Y-38970874D01*
X35949706Y-38953307D01*
X35967443Y-38909314D01*
X35981995Y-38874051D01*
X35993724Y-38846727D01*
X36002994Y-38826551D01*
X36010167Y-38812734D01*
X36015606Y-38804485D01*
X36019556Y-38801059D01*
X36026915Y-38799121D01*
X36043064Y-38795609D01*
X36066798Y-38790762D01*
X36096909Y-38784819D01*
X36132191Y-38778018D01*
X36171438Y-38770597D01*
X36210079Y-38763414D01*
X36251719Y-38755616D01*
X36290331Y-38748154D01*
X36324739Y-38741273D01*
X36353770Y-38735217D01*
X36376249Y-38730232D01*
X36391002Y-38726560D01*
X36396769Y-38724531D01*
X36398567Y-38721360D01*
X36400039Y-38714541D01*
X36401215Y-38703211D01*
X36402123Y-38686509D01*
X36402793Y-38663571D01*
X36403254Y-38633536D01*
X36403535Y-38595541D01*
X36403664Y-38548724D01*
X36403680Y-38518875D01*
X36403680Y-38318954D01*
X36392250Y-38311902D01*
X36384763Y-38309400D01*
X36368464Y-38305372D01*
X36344545Y-38300066D01*
X36314198Y-38293732D01*
X36278616Y-38286617D01*
X36238991Y-38278971D01*
X36196514Y-38271042D01*
X36195400Y-38270838D01*
X36153124Y-38262950D01*
X36113892Y-38255374D01*
X36078855Y-38248352D01*
X36049164Y-38242126D01*
X36025970Y-38236937D01*
X36010424Y-38233026D01*
X36003677Y-38230637D01*
X36003595Y-38230566D01*
X35999910Y-38224301D01*
X35992978Y-38210106D01*
X35983423Y-38189428D01*
X35971866Y-38163713D01*
X35958930Y-38134406D01*
X35945237Y-38102954D01*
X35931409Y-38070802D01*
X35918069Y-38039397D01*
X35905839Y-38010185D01*
X35895341Y-37984611D01*
X35887197Y-37964123D01*
X35882031Y-37950165D01*
X35880440Y-37944394D01*
X35883233Y-37938575D01*
X35891189Y-37925372D01*
X35903681Y-37905749D01*
X35920076Y-37880667D01*
X35939746Y-37851089D01*
X35962061Y-37817976D01*
X35986389Y-37782293D01*
X35990258Y-37776655D01*
X36014952Y-37740538D01*
X36037845Y-37706750D01*
X36058287Y-37676274D01*
X36075629Y-37650088D01*
X36089222Y-37629175D01*
X36098417Y-37614516D01*
X36102566Y-37607090D01*
X36102707Y-37606684D01*
X36101946Y-37602579D01*
X36097786Y-37595668D01*
X36089683Y-37585355D01*
X36077095Y-37571048D01*
X36059479Y-37552154D01*
X36036292Y-37528078D01*
X36006992Y-37498226D01*
X35971036Y-37462005D01*
X35963801Y-37454749D01*
X35927782Y-37418889D01*
X35895644Y-37387378D01*
X35867932Y-37360731D01*
X35845194Y-37339461D01*
X35827977Y-37324081D01*
X35816826Y-37315105D01*
X35812675Y-37312880D01*
X35806440Y-37315672D01*
X35792844Y-37323627D01*
X35772867Y-37336110D01*
X35747492Y-37352487D01*
X35717700Y-37372122D01*
X35684474Y-37394382D01*
X35648795Y-37418631D01*
X35644914Y-37421289D01*
X35608900Y-37445928D01*
X35575178Y-37468914D01*
X35544747Y-37489573D01*
X35518605Y-37507230D01*
X35497752Y-37521211D01*
X35483185Y-37530841D01*
X35475904Y-37535446D01*
X35475648Y-37535587D01*
X35471195Y-37536941D01*
X35464661Y-37536744D01*
X35454941Y-37534631D01*
X35440932Y-37530234D01*
X35421529Y-37523187D01*
X35395627Y-37513124D01*
X35362123Y-37499677D01*
X35338488Y-37490068D01*
X35296634Y-37472981D01*
X35263212Y-37459243D01*
X35237240Y-37448382D01*
X35217736Y-37439926D01*
X35203719Y-37433403D01*
X35194205Y-37428340D01*
X35188214Y-37424266D01*
X35184764Y-37420708D01*
X35182872Y-37417193D01*
X35182055Y-37414840D01*
X35180440Y-37407736D01*
X35177207Y-37391805D01*
X35172580Y-37368215D01*
X35166784Y-37338129D01*
X35160042Y-37302714D01*
X35152580Y-37263135D01*
X35144622Y-37220558D01*
X35143805Y-37216168D01*
X35135748Y-37173481D01*
X35128032Y-37133799D01*
X35120896Y-37098266D01*
X35114580Y-37068028D01*
X35109324Y-37044228D01*
X35105367Y-37028012D01*
X35102950Y-37020524D01*
X35102788Y-37020283D01*
X35099758Y-37018437D01*
X35093437Y-37016928D01*
X35082937Y-37015727D01*
X35067367Y-37014801D01*
X35045841Y-37014121D01*
X35017468Y-37013657D01*
X34981361Y-37013376D01*
X34936630Y-37013250D01*
X34898108Y-37013237D01*
X34853975Y-37013358D01*
X34853975Y-37013358D01*
G37*
X34853975Y-37013358D02*
X34812914Y-37013668D01*
X34776061Y-37014144D01*
X34744552Y-37014763D01*
X34719522Y-37015502D01*
X34702107Y-37016337D01*
X34693443Y-37017244D01*
X34692790Y-37017471D01*
X34690213Y-37023471D01*
X34686078Y-37038787D01*
X34680534Y-37062721D01*
X34673732Y-37094573D01*
X34665821Y-37133644D01*
X34656953Y-37179237D01*
X34649099Y-37220850D01*
X34640849Y-37264601D01*
X34632999Y-37305265D01*
X34625775Y-37341748D01*
X34619401Y-37372957D01*
X34614102Y-37397798D01*
X34610103Y-37415177D01*
X34607628Y-37424000D01*
X34607198Y-37424834D01*
X34600952Y-37428371D01*
X34586849Y-37434916D01*
X34566324Y-37443889D01*
X34540810Y-37454710D01*
X34511742Y-37466800D01*
X34480554Y-37479578D01*
X34448680Y-37492466D01*
X34417553Y-37504882D01*
X34388608Y-37516248D01*
X34363279Y-37525983D01*
X34343001Y-37533508D01*
X34329206Y-37538242D01*
X34323329Y-37539607D01*
X34323322Y-37539605D01*
X34318012Y-37536333D01*
X34305276Y-37527928D01*
X34286052Y-37515025D01*
X34261276Y-37498257D01*
X34231886Y-37478260D01*
X34198820Y-37455669D01*
X34163014Y-37431119D01*
X34154344Y-37425162D01*
X34117915Y-37400277D01*
X34083852Y-37377306D01*
X34053114Y-37356874D01*
X34026661Y-37339606D01*
X34005451Y-37326126D01*
X33990444Y-37317059D01*
X33982599Y-37313028D01*
X33981914Y-37312879D01*
X33976193Y-37316391D01*
X33964398Y-37326292D01*
X33947480Y-37341632D01*
X33926391Y-37361458D01*
X33902081Y-37384820D01*
X33875500Y-37410767D01*
X33847600Y-37438347D01*
X33819331Y-37466609D01*
X33791645Y-37494603D01*
X33765492Y-37521376D01*
X33741822Y-37545978D01*
X33721588Y-37567458D01*
X33705739Y-37584864D01*
X33695226Y-37597246D01*
X33691001Y-37603651D01*
X33690960Y-37603938D01*
X33693757Y-37610058D01*
X33701721Y-37623530D01*
X33714211Y-37643372D01*
X33730590Y-37668598D01*
X33750217Y-37698226D01*
X33772453Y-37731269D01*
X33796659Y-37766745D01*
X33798212Y-37769005D01*
X33822706Y-37804726D01*
X33845501Y-37838139D01*
X33865920Y-37868244D01*
X33883292Y-37894038D01*
X33896940Y-37914521D01*
X33906193Y-37928692D01*
X33910374Y-37935550D01*
X33910432Y-37935670D01*
X33911216Y-37940391D01*
X33910088Y-37948231D01*
X33906701Y-37960143D01*
X33900708Y-37977084D01*
X33891759Y-38000007D01*
X33879509Y-38029867D01*
X33863610Y-38067619D01*
X33855251Y-38087252D01*
X33838982Y-38124852D01*
X33823989Y-38158510D01*
X33810769Y-38187168D01*
X33799825Y-38209772D01*
X33791654Y-38225265D01*
X33786757Y-38232592D01*
X33786290Y-38232948D01*
X33779440Y-38234928D01*
X33763752Y-38238502D01*
X33740384Y-38243434D01*
X33710492Y-38249491D01*
X33675233Y-38256439D01*
X33635764Y-38264044D01*
X33593243Y-38272071D01*
X33588591Y-38272940D01*
X33539854Y-38282180D01*
X33496947Y-38290621D01*
X33460610Y-38298102D01*
X33431582Y-38304463D01*
X33410603Y-38309544D01*
X33398415Y-38313184D01*
X33395549Y-38314714D01*
X33394628Y-38321096D01*
X33393775Y-38336503D01*
X33393011Y-38359798D01*
X33392362Y-38389847D01*
X33391849Y-38425514D01*
X33391497Y-38465663D01*
X33391329Y-38509159D01*
X33391318Y-38520027D01*
X33391351Y-38571548D01*
X33391514Y-38613801D01*
X33391838Y-38647680D01*
X33392353Y-38674077D01*
X33393092Y-38693884D01*
X33394084Y-38707996D01*
X33395361Y-38717303D01*
X33396954Y-38722699D01*
X33398405Y-38724741D01*
X33404905Y-38726999D01*
X33420237Y-38730799D01*
X33443235Y-38735898D01*
X33472729Y-38742050D01*
X33507550Y-38749013D01*
X33546530Y-38756543D01*
X33587635Y-38764236D01*
X33633790Y-38772897D01*
X33675202Y-38780981D01*
X33710938Y-38788286D01*
X33740063Y-38794611D01*
X33761646Y-38799758D01*
X33774751Y-38803525D01*
X33778274Y-38805133D01*
X33782296Y-38811585D01*
X33789286Y-38825987D01*
X33798686Y-38846948D01*
X33809937Y-38873082D01*
X33822481Y-38903000D01*
X33835760Y-38935313D01*
X33849215Y-38968634D01*
X33862288Y-39001575D01*
X33874420Y-39032747D01*
X33885054Y-39060763D01*
X33893631Y-39084233D01*
X33899592Y-39101771D01*
X33902380Y-39111987D01*
X33902444Y-39113842D01*
X33899099Y-39119358D01*
X33890652Y-39132262D01*
X33877764Y-39151573D01*
X33861094Y-39176312D01*
X33841303Y-39205498D01*
X33819052Y-39238151D01*
X33795488Y-39272582D01*
X33771513Y-39307797D01*
X33749474Y-39340662D01*
X33730018Y-39370174D01*
X33713791Y-39395331D01*
X33701442Y-39415130D01*
X33693617Y-39428568D01*
X33690960Y-39434588D01*
X33694463Y-39440258D01*
X33704338Y-39452017D01*
X33719637Y-39468914D01*
X33739410Y-39489997D01*
X33762710Y-39514314D01*
X33788586Y-39540912D01*
X33816092Y-39568838D01*
X33844277Y-39597142D01*
X33872193Y-39624870D01*
X33898891Y-39651071D01*
X33923422Y-39674792D01*
X33944838Y-39695081D01*
X33962190Y-39710985D01*
X33974529Y-39721554D01*
X33980906Y-39725834D01*
X33981208Y-39725880D01*
X33987083Y-39723089D01*
X34000310Y-39715148D01*
X34019898Y-39702705D01*
X34044853Y-39686406D01*
X34074186Y-39666900D01*
X34106902Y-39644834D01*
X34140726Y-39621740D01*
X34175808Y-39597807D01*
X34208507Y-39575813D01*
X34237821Y-39556405D01*
X34262753Y-39540232D01*
X34282304Y-39527942D01*
X34295473Y-39520183D01*
X34301188Y-39517600D01*
X34308614Y-39519920D01*
X34323106Y-39526305D01*
X34342843Y-39535890D01*
X34366009Y-39547810D01*
X34376650Y-39553481D01*
X34402200Y-39566747D01*
X34424486Y-39577375D01*
X34441828Y-39584622D01*
X34452544Y-39587744D01*
X34454177Y-39587771D01*
X34456765Y-39586377D01*
X34460126Y-39582452D01*
X34464533Y-39575381D01*
X34470262Y-39564547D01*
X34477586Y-39549334D01*
X34486780Y-39529125D01*
X34498116Y-39503305D01*
X34511871Y-39471257D01*
X34528316Y-39432365D01*
X34547728Y-39386012D01*
X34570380Y-39331582D01*
X34596546Y-39268459D01*
X34601140Y-39257359D01*
X34623743Y-39202528D01*
X34645089Y-39150342D01*
X34664872Y-39101575D01*
X34682787Y-39056998D01*
X34698527Y-39017386D01*
X34711788Y-38983510D01*
X34722264Y-38956143D01*
X34729648Y-38936060D01*
X34733636Y-38924031D01*
X34734240Y-38920809D01*
X34729051Y-38914897D01*
X34717277Y-38904827D01*
X34700766Y-38892102D01*
X34684827Y-38880629D01*
X34642673Y-38849570D01*
X34608247Y-38820231D01*
X34579797Y-38790682D01*
X34555568Y-38758997D01*
X34533806Y-38723247D01*
X34523137Y-38702918D01*
X34499244Y-38644488D01*
X34484924Y-38584158D01*
X34480021Y-38522953D01*
X34484377Y-38461898D01*
X34497837Y-38402019D01*
X34520244Y-38344342D01*
X34551441Y-38289891D01*
X34591273Y-38239692D01*
X34594336Y-38236411D01*
X34641983Y-38192833D01*
X34695192Y-38157422D01*
X34754646Y-38129755D01*
X34783340Y-38119807D01*
X34800067Y-38114974D01*
X34815835Y-38111632D01*
X34833146Y-38109519D01*
X34854503Y-38108373D01*
X34882407Y-38107935D01*
X34897460Y-38107900D01*
X34929085Y-38108110D01*
X34953064Y-38108916D01*
X34971907Y-38110578D01*
X34988123Y-38113357D01*
X35004222Y-38117516D01*
X35011760Y-38119802D01*
X35073754Y-38144205D01*
X35130039Y-38176690D01*
X35180031Y-38216763D01*
X35223146Y-38263933D01*
X35258799Y-38317707D01*
X35268671Y-38336500D01*
X35289244Y-38383357D01*
X35302766Y-38427726D01*
X35310140Y-38473443D01*
X35312273Y-38521920D01*
X35307414Y-38586989D01*
X35293008Y-38649065D01*
X35269312Y-38707510D01*
X35236584Y-38761687D01*
X35196045Y-38809975D01*
X35177860Y-38826971D01*
X35154238Y-38846791D01*
X35128252Y-38867052D01*
X35102977Y-38885368D01*
X35081486Y-38899354D01*
X35078861Y-38900883D01*
X35067168Y-38909785D01*
X35060128Y-38919264D01*
X35059675Y-38920648D01*
X35061128Y-38927322D01*
X35066359Y-38942833D01*
X35075168Y-38966671D01*
X35087353Y-38998326D01*
X35102713Y-39037287D01*
X35121047Y-39083043D01*
X35142154Y-39135085D01*
X35165834Y-39192901D01*
X35189272Y-39249679D01*
X35211700Y-39303781D01*
X35233086Y-39355286D01*
X35253097Y-39403399D01*
X35271401Y-39447325D01*
X35287666Y-39486268D01*
X35301558Y-39519433D01*
X35312747Y-39546026D01*
X35320898Y-39565249D01*
X35325681Y-39576309D01*
X35326747Y-39578609D01*
X35334980Y-39586716D01*
X35341789Y-39588720D01*
X35349502Y-39586394D01*
X35364255Y-39579995D01*
X35384210Y-39570387D01*
X35407530Y-39558437D01*
X35418358Y-39552672D01*
X35448166Y-39537192D01*
X35471684Y-39526189D01*
X35488125Y-39520007D01*
X35496178Y-39518837D01*
X35503320Y-39522269D01*
X35517462Y-39530700D01*
X35537291Y-39543286D01*
X35561494Y-39559184D01*
X35588759Y-39577551D01*
X35606120Y-39589461D01*
X35653038Y-39621822D01*
X35692318Y-39648815D01*
X35724648Y-39670892D01*
X35750719Y-39688506D01*
X35771219Y-39702109D01*
X35786837Y-39712155D01*
X35798261Y-39719097D01*
X35806181Y-39723388D01*
X35811286Y-39725480D01*
X35813613Y-39725880D01*
X35818879Y-39722399D01*
X35830465Y-39712478D01*
X35847540Y-39696897D01*
X35869279Y-39676437D01*
X35894852Y-39651880D01*
X35923432Y-39624006D01*
X35954191Y-39593597D01*
X35960269Y-39587541D01*
X35991264Y-39556470D01*
X36019990Y-39527382D01*
X36045643Y-39501112D01*
X36067423Y-39478494D01*
X36084527Y-39460363D01*
X36096153Y-39447552D01*
X36101499Y-39440896D01*
X36101734Y-39440413D01*
X36102633Y-39437436D01*
X36102948Y-39434393D01*
X36102165Y-39430460D01*
X36099774Y-39424812D01*
X36095263Y-39416624D01*
X36088121Y-39405072D01*
X36077835Y-39389330D01*
X36063895Y-39368575D01*
X36045788Y-39341980D01*
X36023004Y-39308721D01*
X35995031Y-39267973D01*
X35992485Y-39264266D01*
X35968839Y-39229625D01*
X35947135Y-39197438D01*
X35928027Y-39168706D01*
X35912169Y-39144428D01*
X35900215Y-39125605D01*
X35892819Y-39113237D01*
X35890600Y-39108469D01*
X35892429Y-39102070D01*
X35897610Y-39087455D01*
X35905686Y-39065826D01*
X35916198Y-39038385D01*
X35928688Y-39006333D01*
X35942700Y-38970874D01*
X35949706Y-38953307D01*
X35967443Y-38909314D01*
X35981995Y-38874051D01*
X35993724Y-38846727D01*
X36002994Y-38826551D01*
X36010167Y-38812734D01*
X36015606Y-38804485D01*
X36019556Y-38801059D01*
X36026915Y-38799121D01*
X36043064Y-38795609D01*
X36066798Y-38790762D01*
X36096909Y-38784819D01*
X36132191Y-38778018D01*
X36171438Y-38770597D01*
X36210079Y-38763414D01*
X36251719Y-38755616D01*
X36290331Y-38748154D01*
X36324739Y-38741273D01*
X36353770Y-38735217D01*
X36376249Y-38730232D01*
X36391002Y-38726560D01*
X36396769Y-38724531D01*
X36398567Y-38721360D01*
X36400039Y-38714541D01*
X36401215Y-38703211D01*
X36402123Y-38686509D01*
X36402793Y-38663571D01*
X36403254Y-38633536D01*
X36403535Y-38595541D01*
X36403664Y-38548724D01*
X36403680Y-38518875D01*
X36403680Y-38318954D01*
X36392250Y-38311902D01*
X36384763Y-38309400D01*
X36368464Y-38305372D01*
X36344545Y-38300066D01*
X36314198Y-38293732D01*
X36278616Y-38286617D01*
X36238991Y-38278971D01*
X36196514Y-38271042D01*
X36195400Y-38270838D01*
X36153124Y-38262950D01*
X36113892Y-38255374D01*
X36078855Y-38248352D01*
X36049164Y-38242126D01*
X36025970Y-38236937D01*
X36010424Y-38233026D01*
X36003677Y-38230637D01*
X36003595Y-38230566D01*
X35999910Y-38224301D01*
X35992978Y-38210106D01*
X35983423Y-38189428D01*
X35971866Y-38163713D01*
X35958930Y-38134406D01*
X35945237Y-38102954D01*
X35931409Y-38070802D01*
X35918069Y-38039397D01*
X35905839Y-38010185D01*
X35895341Y-37984611D01*
X35887197Y-37964123D01*
X35882031Y-37950165D01*
X35880440Y-37944394D01*
X35883233Y-37938575D01*
X35891189Y-37925372D01*
X35903681Y-37905749D01*
X35920076Y-37880667D01*
X35939746Y-37851089D01*
X35962061Y-37817976D01*
X35986389Y-37782293D01*
X35990258Y-37776655D01*
X36014952Y-37740538D01*
X36037845Y-37706750D01*
X36058287Y-37676274D01*
X36075629Y-37650088D01*
X36089222Y-37629175D01*
X36098417Y-37614516D01*
X36102566Y-37607090D01*
X36102707Y-37606684D01*
X36101946Y-37602579D01*
X36097786Y-37595668D01*
X36089683Y-37585355D01*
X36077095Y-37571048D01*
X36059479Y-37552154D01*
X36036292Y-37528078D01*
X36006992Y-37498226D01*
X35971036Y-37462005D01*
X35963801Y-37454749D01*
X35927782Y-37418889D01*
X35895644Y-37387378D01*
X35867932Y-37360731D01*
X35845194Y-37339461D01*
X35827977Y-37324081D01*
X35816826Y-37315105D01*
X35812675Y-37312880D01*
X35806440Y-37315672D01*
X35792844Y-37323627D01*
X35772867Y-37336110D01*
X35747492Y-37352487D01*
X35717700Y-37372122D01*
X35684474Y-37394382D01*
X35648795Y-37418631D01*
X35644914Y-37421289D01*
X35608900Y-37445928D01*
X35575178Y-37468914D01*
X35544747Y-37489573D01*
X35518605Y-37507230D01*
X35497752Y-37521211D01*
X35483185Y-37530841D01*
X35475904Y-37535446D01*
X35475648Y-37535587D01*
X35471195Y-37536941D01*
X35464661Y-37536744D01*
X35454941Y-37534631D01*
X35440932Y-37530234D01*
X35421529Y-37523187D01*
X35395627Y-37513124D01*
X35362123Y-37499677D01*
X35338488Y-37490068D01*
X35296634Y-37472981D01*
X35263212Y-37459243D01*
X35237240Y-37448382D01*
X35217736Y-37439926D01*
X35203719Y-37433403D01*
X35194205Y-37428340D01*
X35188214Y-37424266D01*
X35184764Y-37420708D01*
X35182872Y-37417193D01*
X35182055Y-37414840D01*
X35180440Y-37407736D01*
X35177207Y-37391805D01*
X35172580Y-37368215D01*
X35166784Y-37338129D01*
X35160042Y-37302714D01*
X35152580Y-37263135D01*
X35144622Y-37220558D01*
X35143805Y-37216168D01*
X35135748Y-37173481D01*
X35128032Y-37133799D01*
X35120896Y-37098266D01*
X35114580Y-37068028D01*
X35109324Y-37044228D01*
X35105367Y-37028012D01*
X35102950Y-37020524D01*
X35102788Y-37020283D01*
X35099758Y-37018437D01*
X35093437Y-37016928D01*
X35082937Y-37015727D01*
X35067367Y-37014801D01*
X35045841Y-37014121D01*
X35017468Y-37013657D01*
X34981361Y-37013376D01*
X34936630Y-37013250D01*
X34898108Y-37013237D01*
X34853975Y-37013358D01*
D11*
X74150000Y-68345001D03*
X28430000Y-68345001D03*
X74150000Y-50565001D03*
X28430000Y-50565001D03*
D12*
X70340000Y-49295001D03*
X67800000Y-49295001D03*
X65260000Y-49295001D03*
X62720000Y-49295001D03*
X60180000Y-49295001D03*
X57640000Y-49295001D03*
X55100000Y-49295001D03*
X52560000Y-49295001D03*
X50020000Y-49295001D03*
X47480000Y-49295001D03*
X44940000Y-49295001D03*
X42400000Y-49295001D03*
X70340000Y-69615001D03*
X32240000Y-69615001D03*
X67800000Y-69615001D03*
X65260000Y-69615001D03*
X62720000Y-69615001D03*
X60180000Y-69615001D03*
X57640000Y-69615001D03*
X55100000Y-69615001D03*
X52560000Y-69615001D03*
X50020000Y-69615001D03*
X47480000Y-69615001D03*
X44940000Y-69615001D03*
X42400000Y-69615001D03*
X39860000Y-69615001D03*
X37320000Y-69615001D03*
X34780000Y-69615001D03*
X34780000Y-44015001D03*
X37320000Y-44015001D03*
X39860000Y-44015001D03*
X42400000Y-44015001D03*
X44940000Y-44015001D03*
X47480000Y-44015001D03*
X50020000Y-44015001D03*
X52560000Y-44015001D03*
X55100000Y-44015001D03*
X57640000Y-44015001D03*
X60180000Y-44015001D03*
X62720000Y-44015001D03*
X65260000Y-44015001D03*
X67800000Y-44015001D03*
X32240000Y-44015001D03*
X70340000Y-44015001D03*
X42400000Y-23695001D03*
X44940000Y-23695001D03*
X47480000Y-23695001D03*
X50020000Y-23695001D03*
X52560000Y-23695001D03*
X55100000Y-23695001D03*
X57640000Y-23695001D03*
X60180000Y-23695001D03*
X62720000Y-23695001D03*
X65260000Y-23695001D03*
X67800000Y-23695001D03*
X70340000Y-23695001D03*
D11*
X28430000Y-24965001D03*
X74150000Y-24965001D03*
X28430000Y-42745001D03*
X74150000Y-42745001D03*
D13*
X29880000Y-57400000D03*
X29880000Y-61400000D03*
D14*
X68900000Y-58150000D03*
X71450000Y-60700000D03*
X71450000Y-58150000D03*
X68900000Y-60700000D03*
X68900000Y-32550000D03*
X68900000Y-35100000D03*
X71450000Y-32550000D03*
X71450000Y-35100000D03*
D13*
X29880000Y-35800000D03*
X29880000Y-31800000D03*
D15*
X71599998Y-47875001D03*
X70600007Y-47875001D03*
X69600016Y-47875001D03*
X68600025Y-47875001D03*
X67600034Y-47875001D03*
X66600043Y-47875001D03*
X66600032Y-45435001D03*
X67600023Y-45435001D03*
X68600014Y-45435001D03*
X69600005Y-45435001D03*
X70599996Y-45435001D03*
X71599987Y-45435001D03*
X35999963Y-47875001D03*
X34999970Y-47875001D03*
X33999977Y-47875001D03*
X32999984Y-47875001D03*
X31999991Y-47875001D03*
X30999998Y-47875001D03*
X30999995Y-45435001D03*
X31999988Y-45435001D03*
X32999981Y-45435001D03*
X33999974Y-45435001D03*
X34999967Y-45435001D03*
X35999960Y-45435001D03*
M02*
