G04 #@! TF.GenerationSoftware,KiCad,Pcbnew,(5.1.2)-1*
G04 #@! TF.CreationDate,2019-07-17T11:45:06+10:00*
G04 #@! TF.ProjectId,output.panel,6f757470-7574-42e7-9061-6e656c2e6b69,rev?*
G04 #@! TF.SameCoordinates,Original*
G04 #@! TF.FileFunction,Legend,Bot*
G04 #@! TF.FilePolarity,Positive*
%FSLAX46Y46*%
G04 Gerber Fmt 4.6, Leading zero omitted, Abs format (unit mm)*
G04 Created by KiCad (PCBNEW (5.1.2)-1) date 2019-07-17 11:45:06*
%MOMM*%
%LPD*%
G04 APERTURE LIST*
%ADD10C,0.200000*%
%ADD11C,0.120000*%
%ADD12C,0.150000*%
%ADD13C,0.125000*%
G04 APERTURE END LIST*
D10*
X70333333Y-41452380D02*
X70333333Y-42166666D01*
X70380952Y-42309523D01*
X70476190Y-42404761D01*
X70619047Y-42452380D01*
X70714285Y-42452380D01*
X69380952Y-42452380D02*
X69857142Y-42452380D01*
X69857142Y-41452380D01*
X68476190Y-42357142D02*
X68523809Y-42404761D01*
X68666666Y-42452380D01*
X68761904Y-42452380D01*
X68904761Y-42404761D01*
X69000000Y-42309523D01*
X69047619Y-42214285D01*
X69095238Y-42023809D01*
X69095238Y-41880952D01*
X69047619Y-41690476D01*
X69000000Y-41595238D01*
X68904761Y-41500000D01*
X68761904Y-41452380D01*
X68666666Y-41452380D01*
X68523809Y-41500000D01*
X68476190Y-41547619D01*
X67761904Y-41452380D02*
X67761904Y-42166666D01*
X67809523Y-42309523D01*
X67904761Y-42404761D01*
X68047619Y-42452380D01*
X68142857Y-42452380D01*
X66809523Y-42452380D02*
X67285714Y-42452380D01*
X67285714Y-41452380D01*
X65904761Y-42357142D02*
X65952380Y-42404761D01*
X66095238Y-42452380D01*
X66190476Y-42452380D01*
X66333333Y-42404761D01*
X66428571Y-42309523D01*
X66476190Y-42214285D01*
X66523809Y-42023809D01*
X66523809Y-41880952D01*
X66476190Y-41690476D01*
X66428571Y-41595238D01*
X66333333Y-41500000D01*
X66190476Y-41452380D01*
X66095238Y-41452380D01*
X65952380Y-41500000D01*
X65904761Y-41547619D01*
X65190476Y-41452380D02*
X65190476Y-42166666D01*
X65238095Y-42309523D01*
X65333333Y-42404761D01*
X65476190Y-42452380D01*
X65571428Y-42452380D01*
X64238095Y-42452380D02*
X64714285Y-42452380D01*
X64714285Y-41452380D01*
X63333333Y-42357142D02*
X63380952Y-42404761D01*
X63523809Y-42452380D01*
X63619047Y-42452380D01*
X63761904Y-42404761D01*
X63857142Y-42309523D01*
X63904761Y-42214285D01*
X63952380Y-42023809D01*
X63952380Y-41880952D01*
X63904761Y-41690476D01*
X63857142Y-41595238D01*
X63761904Y-41500000D01*
X63619047Y-41452380D01*
X63523809Y-41452380D01*
X63380952Y-41500000D01*
X63333333Y-41547619D01*
D11*
X69850000Y-58150000D02*
G75*
G03X69850000Y-58150000I-950000J0D01*
G01*
X72400000Y-60700000D02*
G75*
G03X72400000Y-60700000I-950000J0D01*
G01*
X72400000Y-58150000D02*
G75*
G03X72400000Y-58150000I-950000J0D01*
G01*
X69850000Y-60700000D02*
G75*
G03X69850000Y-60700000I-950000J0D01*
G01*
X69850000Y-32550000D02*
G75*
G03X69850000Y-32550000I-950000J0D01*
G01*
X69850000Y-35100000D02*
G75*
G03X69850000Y-35100000I-950000J0D01*
G01*
X72400000Y-32550000D02*
G75*
G03X72400000Y-32550000I-950000J0D01*
G01*
X72400000Y-35100000D02*
G75*
G03X72400000Y-35100000I-950000J0D01*
G01*
D12*
X49645238Y-63602380D02*
X49645238Y-64316666D01*
X49692857Y-64459523D01*
X49788095Y-64554761D01*
X49930952Y-64602380D01*
X50026190Y-64602380D01*
X49026190Y-64602380D02*
X49121428Y-64554761D01*
X49169047Y-64507142D01*
X49216666Y-64411904D01*
X49216666Y-64126190D01*
X49169047Y-64030952D01*
X49121428Y-63983333D01*
X49026190Y-63935714D01*
X48883333Y-63935714D01*
X48788095Y-63983333D01*
X48740476Y-64030952D01*
X48692857Y-64126190D01*
X48692857Y-64411904D01*
X48740476Y-64507142D01*
X48788095Y-64554761D01*
X48883333Y-64602380D01*
X49026190Y-64602380D01*
X48311904Y-64554761D02*
X48216666Y-64602380D01*
X48026190Y-64602380D01*
X47930952Y-64554761D01*
X47883333Y-64459523D01*
X47883333Y-64411904D01*
X47930952Y-64316666D01*
X48026190Y-64269047D01*
X48169047Y-64269047D01*
X48264285Y-64221428D01*
X48311904Y-64126190D01*
X48311904Y-64078571D01*
X48264285Y-63983333D01*
X48169047Y-63935714D01*
X48026190Y-63935714D01*
X47930952Y-63983333D01*
X47454761Y-64602380D02*
X47454761Y-63602380D01*
X47026190Y-64602380D02*
X47026190Y-64078571D01*
X47073809Y-63983333D01*
X47169047Y-63935714D01*
X47311904Y-63935714D01*
X47407142Y-63983333D01*
X47454761Y-64030952D01*
X45502380Y-63602380D02*
X45502380Y-64316666D01*
X45550000Y-64459523D01*
X45645238Y-64554761D01*
X45788095Y-64602380D01*
X45883333Y-64602380D01*
X44883333Y-64602380D02*
X44978571Y-64554761D01*
X45026190Y-64507142D01*
X45073809Y-64411904D01*
X45073809Y-64126190D01*
X45026190Y-64030952D01*
X44978571Y-63983333D01*
X44883333Y-63935714D01*
X44740476Y-63935714D01*
X44645238Y-63983333D01*
X44597619Y-64030952D01*
X44550000Y-64126190D01*
X44550000Y-64411904D01*
X44597619Y-64507142D01*
X44645238Y-64554761D01*
X44740476Y-64602380D01*
X44883333Y-64602380D01*
X44121428Y-64602380D02*
X44121428Y-63602380D01*
X43692857Y-64602380D02*
X43692857Y-64078571D01*
X43740476Y-63983333D01*
X43835714Y-63935714D01*
X43978571Y-63935714D01*
X44073809Y-63983333D01*
X44121428Y-64030952D01*
X43216666Y-63935714D02*
X43216666Y-64602380D01*
X43216666Y-64030952D02*
X43169047Y-63983333D01*
X43073809Y-63935714D01*
X42930952Y-63935714D01*
X42835714Y-63983333D01*
X42788095Y-64078571D01*
X42788095Y-64602380D01*
X42359523Y-64554761D02*
X42264285Y-64602380D01*
X42073809Y-64602380D01*
X41978571Y-64554761D01*
X41930952Y-64459523D01*
X41930952Y-64411904D01*
X41978571Y-64316666D01*
X42073809Y-64269047D01*
X42216666Y-64269047D01*
X42311904Y-64221428D01*
X42359523Y-64126190D01*
X42359523Y-64078571D01*
X42311904Y-63983333D01*
X42216666Y-63935714D01*
X42073809Y-63935714D01*
X41978571Y-63983333D01*
X41359523Y-64602380D02*
X41454761Y-64554761D01*
X41502380Y-64507142D01*
X41550000Y-64411904D01*
X41550000Y-64126190D01*
X41502380Y-64030952D01*
X41454761Y-63983333D01*
X41359523Y-63935714D01*
X41216666Y-63935714D01*
X41121428Y-63983333D01*
X41073809Y-64030952D01*
X41026190Y-64126190D01*
X41026190Y-64411904D01*
X41073809Y-64507142D01*
X41121428Y-64554761D01*
X41216666Y-64602380D01*
X41359523Y-64602380D01*
X40597619Y-63935714D02*
X40597619Y-64602380D01*
X40597619Y-64030952D02*
X40550000Y-63983333D01*
X40454761Y-63935714D01*
X40311904Y-63935714D01*
X40216666Y-63983333D01*
X40169047Y-64078571D01*
X40169047Y-64602380D01*
X49702380Y-65435714D02*
X49702380Y-66292857D01*
X49750000Y-66388095D01*
X49845238Y-66435714D01*
X49892857Y-66435714D01*
X49702380Y-65102380D02*
X49750000Y-65150000D01*
X49702380Y-65197619D01*
X49654761Y-65150000D01*
X49702380Y-65102380D01*
X49702380Y-65197619D01*
X49083333Y-66102380D02*
X49178571Y-66054761D01*
X49226190Y-66007142D01*
X49273809Y-65911904D01*
X49273809Y-65626190D01*
X49226190Y-65530952D01*
X49178571Y-65483333D01*
X49083333Y-65435714D01*
X48940476Y-65435714D01*
X48845238Y-65483333D01*
X48797619Y-65530952D01*
X48750000Y-65626190D01*
X48750000Y-65911904D01*
X48797619Y-66007142D01*
X48845238Y-66054761D01*
X48940476Y-66102380D01*
X49083333Y-66102380D01*
X48369047Y-66054761D02*
X48273809Y-66102380D01*
X48083333Y-66102380D01*
X47988095Y-66054761D01*
X47940476Y-65959523D01*
X47940476Y-65911904D01*
X47988095Y-65816666D01*
X48083333Y-65769047D01*
X48226190Y-65769047D01*
X48321428Y-65721428D01*
X48369047Y-65626190D01*
X48369047Y-65578571D01*
X48321428Y-65483333D01*
X48226190Y-65435714D01*
X48083333Y-65435714D01*
X47988095Y-65483333D01*
X47511904Y-66102380D02*
X47511904Y-65102380D01*
X47083333Y-66102380D02*
X47083333Y-65578571D01*
X47130952Y-65483333D01*
X47226190Y-65435714D01*
X47369047Y-65435714D01*
X47464285Y-65483333D01*
X47511904Y-65530952D01*
X46178571Y-66102380D02*
X46178571Y-65578571D01*
X46226190Y-65483333D01*
X46321428Y-65435714D01*
X46511904Y-65435714D01*
X46607142Y-65483333D01*
X46178571Y-66054761D02*
X46273809Y-66102380D01*
X46511904Y-66102380D01*
X46607142Y-66054761D01*
X46654761Y-65959523D01*
X46654761Y-65864285D01*
X46607142Y-65769047D01*
X46511904Y-65721428D01*
X46273809Y-65721428D01*
X46178571Y-65673809D01*
X45702380Y-65435714D02*
X45702380Y-66292857D01*
X45750000Y-66388095D01*
X45845238Y-66435714D01*
X45892857Y-66435714D01*
X45702380Y-65102380D02*
X45750000Y-65150000D01*
X45702380Y-65197619D01*
X45654761Y-65150000D01*
X45702380Y-65102380D01*
X45702380Y-65197619D01*
X45083333Y-66102380D02*
X45178571Y-66054761D01*
X45226190Y-66007142D01*
X45273809Y-65911904D01*
X45273809Y-65626190D01*
X45226190Y-65530952D01*
X45178571Y-65483333D01*
X45083333Y-65435714D01*
X44940476Y-65435714D01*
X44845238Y-65483333D01*
X44797619Y-65530952D01*
X44750000Y-65626190D01*
X44750000Y-65911904D01*
X44797619Y-66007142D01*
X44845238Y-66054761D01*
X44940476Y-66102380D01*
X45083333Y-66102380D01*
X44321428Y-66102380D02*
X44321428Y-65102380D01*
X43892857Y-66102380D02*
X43892857Y-65578571D01*
X43940476Y-65483333D01*
X44035714Y-65435714D01*
X44178571Y-65435714D01*
X44273809Y-65483333D01*
X44321428Y-65530952D01*
X43416666Y-65435714D02*
X43416666Y-66102380D01*
X43416666Y-65530952D02*
X43369047Y-65483333D01*
X43273809Y-65435714D01*
X43130952Y-65435714D01*
X43035714Y-65483333D01*
X42988095Y-65578571D01*
X42988095Y-66102380D01*
X42559523Y-66054761D02*
X42464285Y-66102380D01*
X42273809Y-66102380D01*
X42178571Y-66054761D01*
X42130952Y-65959523D01*
X42130952Y-65911904D01*
X42178571Y-65816666D01*
X42273809Y-65769047D01*
X42416666Y-65769047D01*
X42511904Y-65721428D01*
X42559523Y-65626190D01*
X42559523Y-65578571D01*
X42511904Y-65483333D01*
X42416666Y-65435714D01*
X42273809Y-65435714D01*
X42178571Y-65483333D01*
X41559523Y-66102380D02*
X41654761Y-66054761D01*
X41702380Y-66007142D01*
X41750000Y-65911904D01*
X41750000Y-65626190D01*
X41702380Y-65530952D01*
X41654761Y-65483333D01*
X41559523Y-65435714D01*
X41416666Y-65435714D01*
X41321428Y-65483333D01*
X41273809Y-65530952D01*
X41226190Y-65626190D01*
X41226190Y-65911904D01*
X41273809Y-66007142D01*
X41321428Y-66054761D01*
X41416666Y-66102380D01*
X41559523Y-66102380D01*
X40797619Y-65435714D02*
X40797619Y-66102380D01*
X40797619Y-65530952D02*
X40750000Y-65483333D01*
X40654761Y-65435714D01*
X40511904Y-65435714D01*
X40416666Y-65483333D01*
X40369047Y-65578571D01*
X40369047Y-66102380D01*
X39892857Y-66007142D02*
X39845238Y-66054761D01*
X39892857Y-66102380D01*
X39940476Y-66054761D01*
X39892857Y-66007142D01*
X39892857Y-66102380D01*
X38988095Y-66054761D02*
X39083333Y-66102380D01*
X39273809Y-66102380D01*
X39369047Y-66054761D01*
X39416666Y-66007142D01*
X39464285Y-65911904D01*
X39464285Y-65626190D01*
X39416666Y-65530952D01*
X39369047Y-65483333D01*
X39273809Y-65435714D01*
X39083333Y-65435714D01*
X38988095Y-65483333D01*
X38416666Y-66102380D02*
X38511904Y-66054761D01*
X38559523Y-66007142D01*
X38607142Y-65911904D01*
X38607142Y-65626190D01*
X38559523Y-65530952D01*
X38511904Y-65483333D01*
X38416666Y-65435714D01*
X38273809Y-65435714D01*
X38178571Y-65483333D01*
X38130952Y-65530952D01*
X38083333Y-65626190D01*
X38083333Y-65911904D01*
X38130952Y-66007142D01*
X38178571Y-66054761D01*
X38273809Y-66102380D01*
X38416666Y-66102380D01*
X37654761Y-66102380D02*
X37654761Y-65435714D01*
X37654761Y-65530952D02*
X37607142Y-65483333D01*
X37511904Y-65435714D01*
X37369047Y-65435714D01*
X37273809Y-65483333D01*
X37226190Y-65578571D01*
X37226190Y-66102380D01*
X37226190Y-65578571D02*
X37178571Y-65483333D01*
X37083333Y-65435714D01*
X36940476Y-65435714D01*
X36845238Y-65483333D01*
X36797619Y-65578571D01*
X36797619Y-66102380D01*
X49457352Y-66967714D02*
X49457352Y-67777238D01*
X49504971Y-67872476D01*
X49552590Y-67920095D01*
X49647828Y-67967714D01*
X49790685Y-67967714D01*
X49885923Y-67920095D01*
X49457352Y-67586761D02*
X49552590Y-67634380D01*
X49743066Y-67634380D01*
X49838304Y-67586761D01*
X49885923Y-67539142D01*
X49933542Y-67443904D01*
X49933542Y-67158190D01*
X49885923Y-67062952D01*
X49838304Y-67015333D01*
X49743066Y-66967714D01*
X49552590Y-66967714D01*
X49457352Y-67015333D01*
X48981161Y-67634380D02*
X48981161Y-66967714D01*
X48981161Y-66634380D02*
X49028780Y-66682000D01*
X48981161Y-66729619D01*
X48933542Y-66682000D01*
X48981161Y-66634380D01*
X48981161Y-66729619D01*
X48647828Y-66967714D02*
X48266876Y-66967714D01*
X48504971Y-66634380D02*
X48504971Y-67491523D01*
X48457352Y-67586761D01*
X48362114Y-67634380D01*
X48266876Y-67634380D01*
X47933542Y-67634380D02*
X47933542Y-66634380D01*
X47504971Y-67634380D02*
X47504971Y-67110571D01*
X47552590Y-67015333D01*
X47647828Y-66967714D01*
X47790685Y-66967714D01*
X47885923Y-67015333D01*
X47933542Y-67062952D01*
X46600209Y-66967714D02*
X46600209Y-67634380D01*
X47028780Y-66967714D02*
X47028780Y-67491523D01*
X46981161Y-67586761D01*
X46885923Y-67634380D01*
X46743066Y-67634380D01*
X46647828Y-67586761D01*
X46600209Y-67539142D01*
X46124019Y-67634380D02*
X46124019Y-66634380D01*
X46124019Y-67015333D02*
X46028780Y-66967714D01*
X45838304Y-66967714D01*
X45743066Y-67015333D01*
X45695447Y-67062952D01*
X45647828Y-67158190D01*
X45647828Y-67443904D01*
X45695447Y-67539142D01*
X45743066Y-67586761D01*
X45838304Y-67634380D01*
X46028780Y-67634380D01*
X46124019Y-67586761D01*
X45219257Y-67539142D02*
X45171638Y-67586761D01*
X45219257Y-67634380D01*
X45266876Y-67586761D01*
X45219257Y-67539142D01*
X45219257Y-67634380D01*
X44314495Y-67586761D02*
X44409733Y-67634380D01*
X44600209Y-67634380D01*
X44695447Y-67586761D01*
X44743066Y-67539142D01*
X44790685Y-67443904D01*
X44790685Y-67158190D01*
X44743066Y-67062952D01*
X44695447Y-67015333D01*
X44600209Y-66967714D01*
X44409733Y-66967714D01*
X44314495Y-67015333D01*
X43743066Y-67634380D02*
X43838304Y-67586761D01*
X43885923Y-67539142D01*
X43933542Y-67443904D01*
X43933542Y-67158190D01*
X43885923Y-67062952D01*
X43838304Y-67015333D01*
X43743066Y-66967714D01*
X43600209Y-66967714D01*
X43504971Y-67015333D01*
X43457352Y-67062952D01*
X43409733Y-67158190D01*
X43409733Y-67443904D01*
X43457352Y-67539142D01*
X43504971Y-67586761D01*
X43600209Y-67634380D01*
X43743066Y-67634380D01*
X42981161Y-67634380D02*
X42981161Y-66967714D01*
X42981161Y-67062952D02*
X42933542Y-67015333D01*
X42838304Y-66967714D01*
X42695447Y-66967714D01*
X42600209Y-67015333D01*
X42552590Y-67110571D01*
X42552590Y-67634380D01*
X42552590Y-67110571D02*
X42504971Y-67015333D01*
X42409733Y-66967714D01*
X42266876Y-66967714D01*
X42171638Y-67015333D01*
X42124019Y-67110571D01*
X42124019Y-67634380D01*
X40933542Y-66586761D02*
X41790685Y-67872476D01*
X40600209Y-66967714D02*
X40600209Y-67824857D01*
X40647828Y-67920095D01*
X40743066Y-67967714D01*
X40790685Y-67967714D01*
X40600209Y-66634380D02*
X40647828Y-66682000D01*
X40600209Y-66729619D01*
X40552590Y-66682000D01*
X40600209Y-66634380D01*
X40600209Y-66729619D01*
X39981161Y-67634380D02*
X40076400Y-67586761D01*
X40124019Y-67539142D01*
X40171638Y-67443904D01*
X40171638Y-67158190D01*
X40124019Y-67062952D01*
X40076400Y-67015333D01*
X39981161Y-66967714D01*
X39838304Y-66967714D01*
X39743066Y-67015333D01*
X39695447Y-67062952D01*
X39647828Y-67158190D01*
X39647828Y-67443904D01*
X39695447Y-67539142D01*
X39743066Y-67586761D01*
X39838304Y-67634380D01*
X39981161Y-67634380D01*
X39266876Y-67586761D02*
X39171638Y-67634380D01*
X38981161Y-67634380D01*
X38885923Y-67586761D01*
X38838304Y-67491523D01*
X38838304Y-67443904D01*
X38885923Y-67348666D01*
X38981161Y-67301047D01*
X39124019Y-67301047D01*
X39219257Y-67253428D01*
X39266876Y-67158190D01*
X39266876Y-67110571D01*
X39219257Y-67015333D01*
X39124019Y-66967714D01*
X38981161Y-66967714D01*
X38885923Y-67015333D01*
X38409733Y-67634380D02*
X38409733Y-66634380D01*
X37981161Y-67634380D02*
X37981161Y-67110571D01*
X38028780Y-67015333D01*
X38124019Y-66967714D01*
X38266876Y-66967714D01*
X38362114Y-67015333D01*
X38409733Y-67062952D01*
X37076400Y-67634380D02*
X37076400Y-67110571D01*
X37124019Y-67015333D01*
X37219257Y-66967714D01*
X37409733Y-66967714D01*
X37504971Y-67015333D01*
X37076400Y-67586761D02*
X37171638Y-67634380D01*
X37409733Y-67634380D01*
X37504971Y-67586761D01*
X37552590Y-67491523D01*
X37552590Y-67396285D01*
X37504971Y-67301047D01*
X37409733Y-67253428D01*
X37171638Y-67253428D01*
X37076400Y-67205809D01*
X36600209Y-66967714D02*
X36600209Y-67824857D01*
X36647828Y-67920095D01*
X36743066Y-67967714D01*
X36790685Y-67967714D01*
X36600209Y-66634380D02*
X36647828Y-66682000D01*
X36600209Y-66729619D01*
X36552590Y-66682000D01*
X36600209Y-66634380D01*
X36600209Y-66729619D01*
X35981161Y-67634380D02*
X36076400Y-67586761D01*
X36124019Y-67539142D01*
X36171638Y-67443904D01*
X36171638Y-67158190D01*
X36124019Y-67062952D01*
X36076400Y-67015333D01*
X35981161Y-66967714D01*
X35838304Y-66967714D01*
X35743066Y-67015333D01*
X35695447Y-67062952D01*
X35647828Y-67158190D01*
X35647828Y-67443904D01*
X35695447Y-67539142D01*
X35743066Y-67586761D01*
X35838304Y-67634380D01*
X35981161Y-67634380D01*
X35219257Y-67634380D02*
X35219257Y-66634380D01*
X34790685Y-67634380D02*
X34790685Y-67110571D01*
X34838304Y-67015333D01*
X34933542Y-66967714D01*
X35076400Y-66967714D01*
X35171638Y-67015333D01*
X35219257Y-67062952D01*
X34314495Y-66967714D02*
X34314495Y-67634380D01*
X34314495Y-67062952D02*
X34266876Y-67015333D01*
X34171638Y-66967714D01*
X34028780Y-66967714D01*
X33933542Y-67015333D01*
X33885923Y-67110571D01*
X33885923Y-67634380D01*
X33457352Y-67586761D02*
X33362114Y-67634380D01*
X33171638Y-67634380D01*
X33076400Y-67586761D01*
X33028780Y-67491523D01*
X33028780Y-67443904D01*
X33076400Y-67348666D01*
X33171638Y-67301047D01*
X33314495Y-67301047D01*
X33409733Y-67253428D01*
X33457352Y-67158190D01*
X33457352Y-67110571D01*
X33409733Y-67015333D01*
X33314495Y-66967714D01*
X33171638Y-66967714D01*
X33076400Y-67015333D01*
X32457352Y-67634380D02*
X32552590Y-67586761D01*
X32600209Y-67539142D01*
X32647828Y-67443904D01*
X32647828Y-67158190D01*
X32600209Y-67062952D01*
X32552590Y-67015333D01*
X32457352Y-66967714D01*
X32314495Y-66967714D01*
X32219257Y-67015333D01*
X32171638Y-67062952D01*
X32124019Y-67158190D01*
X32124019Y-67443904D01*
X32171638Y-67539142D01*
X32219257Y-67586761D01*
X32314495Y-67634380D01*
X32457352Y-67634380D01*
X31695447Y-66967714D02*
X31695447Y-67634380D01*
X31695447Y-67062952D02*
X31647828Y-67015333D01*
X31552590Y-66967714D01*
X31409733Y-66967714D01*
X31314495Y-67015333D01*
X31266876Y-67110571D01*
X31266876Y-67634380D01*
D13*
X67633333Y-57833333D02*
X67600000Y-57800000D01*
X67533333Y-57766666D01*
X67366666Y-57766666D01*
X67300000Y-57800000D01*
X67266666Y-57833333D01*
X67233333Y-57900000D01*
X67233333Y-57966666D01*
X67266666Y-58066666D01*
X67666666Y-58466666D01*
X67233333Y-58466666D01*
X66566666Y-58466666D02*
X66966666Y-58466666D01*
X66766666Y-58466666D02*
X66766666Y-57766666D01*
X66833333Y-57866666D01*
X66900000Y-57933333D01*
X66966666Y-57966666D01*
X73733333Y-60383333D02*
X73700000Y-60350000D01*
X73633333Y-60316666D01*
X73466666Y-60316666D01*
X73400000Y-60350000D01*
X73366666Y-60383333D01*
X73333333Y-60450000D01*
X73333333Y-60516666D01*
X73366666Y-60616666D01*
X73766666Y-61016666D01*
X73333333Y-61016666D01*
X73066666Y-60383333D02*
X73033333Y-60350000D01*
X72966666Y-60316666D01*
X72800000Y-60316666D01*
X72733333Y-60350000D01*
X72700000Y-60383333D01*
X72666666Y-60450000D01*
X72666666Y-60516666D01*
X72700000Y-60616666D01*
X73100000Y-61016666D01*
X72666666Y-61016666D01*
X73733333Y-57833333D02*
X73700000Y-57800000D01*
X73633333Y-57766666D01*
X73466666Y-57766666D01*
X73400000Y-57800000D01*
X73366666Y-57833333D01*
X73333333Y-57900000D01*
X73333333Y-57966666D01*
X73366666Y-58066666D01*
X73766666Y-58466666D01*
X73333333Y-58466666D01*
X72900000Y-57766666D02*
X72833333Y-57766666D01*
X72766666Y-57800000D01*
X72733333Y-57833333D01*
X72700000Y-57900000D01*
X72666666Y-58033333D01*
X72666666Y-58200000D01*
X72700000Y-58333333D01*
X72733333Y-58400000D01*
X72766666Y-58433333D01*
X72833333Y-58466666D01*
X72900000Y-58466666D01*
X72966666Y-58433333D01*
X73000000Y-58400000D01*
X73033333Y-58333333D01*
X73066666Y-58200000D01*
X73066666Y-58033333D01*
X73033333Y-57900000D01*
X73000000Y-57833333D01*
X72966666Y-57800000D01*
X72900000Y-57766666D01*
X67633333Y-60383333D02*
X67600000Y-60350000D01*
X67533333Y-60316666D01*
X67366666Y-60316666D01*
X67300000Y-60350000D01*
X67266666Y-60383333D01*
X67233333Y-60450000D01*
X67233333Y-60516666D01*
X67266666Y-60616666D01*
X67666666Y-61016666D01*
X67233333Y-61016666D01*
X67000000Y-60316666D02*
X66566666Y-60316666D01*
X66800000Y-60583333D01*
X66700000Y-60583333D01*
X66633333Y-60616666D01*
X66600000Y-60650000D01*
X66566666Y-60716666D01*
X66566666Y-60883333D01*
X66600000Y-60950000D01*
X66633333Y-60983333D01*
X66700000Y-61016666D01*
X66900000Y-61016666D01*
X66966666Y-60983333D01*
X67000000Y-60950000D01*
X67633333Y-32233333D02*
X67600000Y-32200000D01*
X67533333Y-32166666D01*
X67366666Y-32166666D01*
X67300000Y-32200000D01*
X67266666Y-32233333D01*
X67233333Y-32300000D01*
X67233333Y-32366666D01*
X67266666Y-32466666D01*
X67666666Y-32866666D01*
X67233333Y-32866666D01*
X66566666Y-32866666D02*
X66966666Y-32866666D01*
X66766666Y-32866666D02*
X66766666Y-32166666D01*
X66833333Y-32266666D01*
X66900000Y-32333333D01*
X66966666Y-32366666D01*
X67633333Y-34783333D02*
X67600000Y-34750000D01*
X67533333Y-34716666D01*
X67366666Y-34716666D01*
X67300000Y-34750000D01*
X67266666Y-34783333D01*
X67233333Y-34850000D01*
X67233333Y-34916666D01*
X67266666Y-35016666D01*
X67666666Y-35416666D01*
X67233333Y-35416666D01*
X67000000Y-34716666D02*
X66566666Y-34716666D01*
X66800000Y-34983333D01*
X66700000Y-34983333D01*
X66633333Y-35016666D01*
X66600000Y-35050000D01*
X66566666Y-35116666D01*
X66566666Y-35283333D01*
X66600000Y-35350000D01*
X66633333Y-35383333D01*
X66700000Y-35416666D01*
X66900000Y-35416666D01*
X66966666Y-35383333D01*
X67000000Y-35350000D01*
X73733333Y-32233333D02*
X73700000Y-32200000D01*
X73633333Y-32166666D01*
X73466666Y-32166666D01*
X73400000Y-32200000D01*
X73366666Y-32233333D01*
X73333333Y-32300000D01*
X73333333Y-32366666D01*
X73366666Y-32466666D01*
X73766666Y-32866666D01*
X73333333Y-32866666D01*
X72900000Y-32166666D02*
X72833333Y-32166666D01*
X72766666Y-32200000D01*
X72733333Y-32233333D01*
X72700000Y-32300000D01*
X72666666Y-32433333D01*
X72666666Y-32600000D01*
X72700000Y-32733333D01*
X72733333Y-32800000D01*
X72766666Y-32833333D01*
X72833333Y-32866666D01*
X72900000Y-32866666D01*
X72966666Y-32833333D01*
X73000000Y-32800000D01*
X73033333Y-32733333D01*
X73066666Y-32600000D01*
X73066666Y-32433333D01*
X73033333Y-32300000D01*
X73000000Y-32233333D01*
X72966666Y-32200000D01*
X72900000Y-32166666D01*
X73733333Y-34783333D02*
X73700000Y-34750000D01*
X73633333Y-34716666D01*
X73466666Y-34716666D01*
X73400000Y-34750000D01*
X73366666Y-34783333D01*
X73333333Y-34850000D01*
X73333333Y-34916666D01*
X73366666Y-35016666D01*
X73766666Y-35416666D01*
X73333333Y-35416666D01*
X73066666Y-34783333D02*
X73033333Y-34750000D01*
X72966666Y-34716666D01*
X72800000Y-34716666D01*
X72733333Y-34750000D01*
X72700000Y-34783333D01*
X72666666Y-34850000D01*
X72666666Y-34916666D01*
X72700000Y-35016666D01*
X73100000Y-35416666D01*
X72666666Y-35416666D01*
D12*
X49457352Y-41367714D02*
X49457352Y-42177238D01*
X49504971Y-42272476D01*
X49552590Y-42320095D01*
X49647828Y-42367714D01*
X49790685Y-42367714D01*
X49885923Y-42320095D01*
X49457352Y-41986761D02*
X49552590Y-42034380D01*
X49743066Y-42034380D01*
X49838304Y-41986761D01*
X49885923Y-41939142D01*
X49933542Y-41843904D01*
X49933542Y-41558190D01*
X49885923Y-41462952D01*
X49838304Y-41415333D01*
X49743066Y-41367714D01*
X49552590Y-41367714D01*
X49457352Y-41415333D01*
X48981161Y-42034380D02*
X48981161Y-41367714D01*
X48981161Y-41034380D02*
X49028780Y-41082000D01*
X48981161Y-41129619D01*
X48933542Y-41082000D01*
X48981161Y-41034380D01*
X48981161Y-41129619D01*
X48647828Y-41367714D02*
X48266876Y-41367714D01*
X48504971Y-41034380D02*
X48504971Y-41891523D01*
X48457352Y-41986761D01*
X48362114Y-42034380D01*
X48266876Y-42034380D01*
X47933542Y-42034380D02*
X47933542Y-41034380D01*
X47504971Y-42034380D02*
X47504971Y-41510571D01*
X47552590Y-41415333D01*
X47647828Y-41367714D01*
X47790685Y-41367714D01*
X47885923Y-41415333D01*
X47933542Y-41462952D01*
X46600209Y-41367714D02*
X46600209Y-42034380D01*
X47028780Y-41367714D02*
X47028780Y-41891523D01*
X46981161Y-41986761D01*
X46885923Y-42034380D01*
X46743066Y-42034380D01*
X46647828Y-41986761D01*
X46600209Y-41939142D01*
X46124019Y-42034380D02*
X46124019Y-41034380D01*
X46124019Y-41415333D02*
X46028780Y-41367714D01*
X45838304Y-41367714D01*
X45743066Y-41415333D01*
X45695447Y-41462952D01*
X45647828Y-41558190D01*
X45647828Y-41843904D01*
X45695447Y-41939142D01*
X45743066Y-41986761D01*
X45838304Y-42034380D01*
X46028780Y-42034380D01*
X46124019Y-41986761D01*
X45219257Y-41939142D02*
X45171638Y-41986761D01*
X45219257Y-42034380D01*
X45266876Y-41986761D01*
X45219257Y-41939142D01*
X45219257Y-42034380D01*
X44314495Y-41986761D02*
X44409733Y-42034380D01*
X44600209Y-42034380D01*
X44695447Y-41986761D01*
X44743066Y-41939142D01*
X44790685Y-41843904D01*
X44790685Y-41558190D01*
X44743066Y-41462952D01*
X44695447Y-41415333D01*
X44600209Y-41367714D01*
X44409733Y-41367714D01*
X44314495Y-41415333D01*
X43743066Y-42034380D02*
X43838304Y-41986761D01*
X43885923Y-41939142D01*
X43933542Y-41843904D01*
X43933542Y-41558190D01*
X43885923Y-41462952D01*
X43838304Y-41415333D01*
X43743066Y-41367714D01*
X43600209Y-41367714D01*
X43504971Y-41415333D01*
X43457352Y-41462952D01*
X43409733Y-41558190D01*
X43409733Y-41843904D01*
X43457352Y-41939142D01*
X43504971Y-41986761D01*
X43600209Y-42034380D01*
X43743066Y-42034380D01*
X42981161Y-42034380D02*
X42981161Y-41367714D01*
X42981161Y-41462952D02*
X42933542Y-41415333D01*
X42838304Y-41367714D01*
X42695447Y-41367714D01*
X42600209Y-41415333D01*
X42552590Y-41510571D01*
X42552590Y-42034380D01*
X42552590Y-41510571D02*
X42504971Y-41415333D01*
X42409733Y-41367714D01*
X42266876Y-41367714D01*
X42171638Y-41415333D01*
X42124019Y-41510571D01*
X42124019Y-42034380D01*
X40933542Y-40986761D02*
X41790685Y-42272476D01*
X40600209Y-41367714D02*
X40600209Y-42224857D01*
X40647828Y-42320095D01*
X40743066Y-42367714D01*
X40790685Y-42367714D01*
X40600209Y-41034380D02*
X40647828Y-41082000D01*
X40600209Y-41129619D01*
X40552590Y-41082000D01*
X40600209Y-41034380D01*
X40600209Y-41129619D01*
X39981161Y-42034380D02*
X40076400Y-41986761D01*
X40124019Y-41939142D01*
X40171638Y-41843904D01*
X40171638Y-41558190D01*
X40124019Y-41462952D01*
X40076400Y-41415333D01*
X39981161Y-41367714D01*
X39838304Y-41367714D01*
X39743066Y-41415333D01*
X39695447Y-41462952D01*
X39647828Y-41558190D01*
X39647828Y-41843904D01*
X39695447Y-41939142D01*
X39743066Y-41986761D01*
X39838304Y-42034380D01*
X39981161Y-42034380D01*
X39266876Y-41986761D02*
X39171638Y-42034380D01*
X38981161Y-42034380D01*
X38885923Y-41986761D01*
X38838304Y-41891523D01*
X38838304Y-41843904D01*
X38885923Y-41748666D01*
X38981161Y-41701047D01*
X39124019Y-41701047D01*
X39219257Y-41653428D01*
X39266876Y-41558190D01*
X39266876Y-41510571D01*
X39219257Y-41415333D01*
X39124019Y-41367714D01*
X38981161Y-41367714D01*
X38885923Y-41415333D01*
X38409733Y-42034380D02*
X38409733Y-41034380D01*
X37981161Y-42034380D02*
X37981161Y-41510571D01*
X38028780Y-41415333D01*
X38124019Y-41367714D01*
X38266876Y-41367714D01*
X38362114Y-41415333D01*
X38409733Y-41462952D01*
X37076400Y-42034380D02*
X37076400Y-41510571D01*
X37124019Y-41415333D01*
X37219257Y-41367714D01*
X37409733Y-41367714D01*
X37504971Y-41415333D01*
X37076400Y-41986761D02*
X37171638Y-42034380D01*
X37409733Y-42034380D01*
X37504971Y-41986761D01*
X37552590Y-41891523D01*
X37552590Y-41796285D01*
X37504971Y-41701047D01*
X37409733Y-41653428D01*
X37171638Y-41653428D01*
X37076400Y-41605809D01*
X36600209Y-41367714D02*
X36600209Y-42224857D01*
X36647828Y-42320095D01*
X36743066Y-42367714D01*
X36790685Y-42367714D01*
X36600209Y-41034380D02*
X36647828Y-41082000D01*
X36600209Y-41129619D01*
X36552590Y-41082000D01*
X36600209Y-41034380D01*
X36600209Y-41129619D01*
X35981161Y-42034380D02*
X36076400Y-41986761D01*
X36124019Y-41939142D01*
X36171638Y-41843904D01*
X36171638Y-41558190D01*
X36124019Y-41462952D01*
X36076400Y-41415333D01*
X35981161Y-41367714D01*
X35838304Y-41367714D01*
X35743066Y-41415333D01*
X35695447Y-41462952D01*
X35647828Y-41558190D01*
X35647828Y-41843904D01*
X35695447Y-41939142D01*
X35743066Y-41986761D01*
X35838304Y-42034380D01*
X35981161Y-42034380D01*
X35219257Y-42034380D02*
X35219257Y-41034380D01*
X34790685Y-42034380D02*
X34790685Y-41510571D01*
X34838304Y-41415333D01*
X34933542Y-41367714D01*
X35076400Y-41367714D01*
X35171638Y-41415333D01*
X35219257Y-41462952D01*
X34314495Y-41367714D02*
X34314495Y-42034380D01*
X34314495Y-41462952D02*
X34266876Y-41415333D01*
X34171638Y-41367714D01*
X34028780Y-41367714D01*
X33933542Y-41415333D01*
X33885923Y-41510571D01*
X33885923Y-42034380D01*
X33457352Y-41986761D02*
X33362114Y-42034380D01*
X33171638Y-42034380D01*
X33076400Y-41986761D01*
X33028780Y-41891523D01*
X33028780Y-41843904D01*
X33076400Y-41748666D01*
X33171638Y-41701047D01*
X33314495Y-41701047D01*
X33409733Y-41653428D01*
X33457352Y-41558190D01*
X33457352Y-41510571D01*
X33409733Y-41415333D01*
X33314495Y-41367714D01*
X33171638Y-41367714D01*
X33076400Y-41415333D01*
X32457352Y-42034380D02*
X32552590Y-41986761D01*
X32600209Y-41939142D01*
X32647828Y-41843904D01*
X32647828Y-41558190D01*
X32600209Y-41462952D01*
X32552590Y-41415333D01*
X32457352Y-41367714D01*
X32314495Y-41367714D01*
X32219257Y-41415333D01*
X32171638Y-41462952D01*
X32124019Y-41558190D01*
X32124019Y-41843904D01*
X32171638Y-41939142D01*
X32219257Y-41986761D01*
X32314495Y-42034380D01*
X32457352Y-42034380D01*
X31695447Y-41367714D02*
X31695447Y-42034380D01*
X31695447Y-41462952D02*
X31647828Y-41415333D01*
X31552590Y-41367714D01*
X31409733Y-41367714D01*
X31314495Y-41415333D01*
X31266876Y-41510571D01*
X31266876Y-42034380D01*
X49702380Y-39835714D02*
X49702380Y-40692857D01*
X49750000Y-40788095D01*
X49845238Y-40835714D01*
X49892857Y-40835714D01*
X49702380Y-39502380D02*
X49750000Y-39550000D01*
X49702380Y-39597619D01*
X49654761Y-39550000D01*
X49702380Y-39502380D01*
X49702380Y-39597619D01*
X49083333Y-40502380D02*
X49178571Y-40454761D01*
X49226190Y-40407142D01*
X49273809Y-40311904D01*
X49273809Y-40026190D01*
X49226190Y-39930952D01*
X49178571Y-39883333D01*
X49083333Y-39835714D01*
X48940476Y-39835714D01*
X48845238Y-39883333D01*
X48797619Y-39930952D01*
X48750000Y-40026190D01*
X48750000Y-40311904D01*
X48797619Y-40407142D01*
X48845238Y-40454761D01*
X48940476Y-40502380D01*
X49083333Y-40502380D01*
X48369047Y-40454761D02*
X48273809Y-40502380D01*
X48083333Y-40502380D01*
X47988095Y-40454761D01*
X47940476Y-40359523D01*
X47940476Y-40311904D01*
X47988095Y-40216666D01*
X48083333Y-40169047D01*
X48226190Y-40169047D01*
X48321428Y-40121428D01*
X48369047Y-40026190D01*
X48369047Y-39978571D01*
X48321428Y-39883333D01*
X48226190Y-39835714D01*
X48083333Y-39835714D01*
X47988095Y-39883333D01*
X47511904Y-40502380D02*
X47511904Y-39502380D01*
X47083333Y-40502380D02*
X47083333Y-39978571D01*
X47130952Y-39883333D01*
X47226190Y-39835714D01*
X47369047Y-39835714D01*
X47464285Y-39883333D01*
X47511904Y-39930952D01*
X46178571Y-40502380D02*
X46178571Y-39978571D01*
X46226190Y-39883333D01*
X46321428Y-39835714D01*
X46511904Y-39835714D01*
X46607142Y-39883333D01*
X46178571Y-40454761D02*
X46273809Y-40502380D01*
X46511904Y-40502380D01*
X46607142Y-40454761D01*
X46654761Y-40359523D01*
X46654761Y-40264285D01*
X46607142Y-40169047D01*
X46511904Y-40121428D01*
X46273809Y-40121428D01*
X46178571Y-40073809D01*
X45702380Y-39835714D02*
X45702380Y-40692857D01*
X45750000Y-40788095D01*
X45845238Y-40835714D01*
X45892857Y-40835714D01*
X45702380Y-39502380D02*
X45750000Y-39550000D01*
X45702380Y-39597619D01*
X45654761Y-39550000D01*
X45702380Y-39502380D01*
X45702380Y-39597619D01*
X45083333Y-40502380D02*
X45178571Y-40454761D01*
X45226190Y-40407142D01*
X45273809Y-40311904D01*
X45273809Y-40026190D01*
X45226190Y-39930952D01*
X45178571Y-39883333D01*
X45083333Y-39835714D01*
X44940476Y-39835714D01*
X44845238Y-39883333D01*
X44797619Y-39930952D01*
X44750000Y-40026190D01*
X44750000Y-40311904D01*
X44797619Y-40407142D01*
X44845238Y-40454761D01*
X44940476Y-40502380D01*
X45083333Y-40502380D01*
X44321428Y-40502380D02*
X44321428Y-39502380D01*
X43892857Y-40502380D02*
X43892857Y-39978571D01*
X43940476Y-39883333D01*
X44035714Y-39835714D01*
X44178571Y-39835714D01*
X44273809Y-39883333D01*
X44321428Y-39930952D01*
X43416666Y-39835714D02*
X43416666Y-40502380D01*
X43416666Y-39930952D02*
X43369047Y-39883333D01*
X43273809Y-39835714D01*
X43130952Y-39835714D01*
X43035714Y-39883333D01*
X42988095Y-39978571D01*
X42988095Y-40502380D01*
X42559523Y-40454761D02*
X42464285Y-40502380D01*
X42273809Y-40502380D01*
X42178571Y-40454761D01*
X42130952Y-40359523D01*
X42130952Y-40311904D01*
X42178571Y-40216666D01*
X42273809Y-40169047D01*
X42416666Y-40169047D01*
X42511904Y-40121428D01*
X42559523Y-40026190D01*
X42559523Y-39978571D01*
X42511904Y-39883333D01*
X42416666Y-39835714D01*
X42273809Y-39835714D01*
X42178571Y-39883333D01*
X41559523Y-40502380D02*
X41654761Y-40454761D01*
X41702380Y-40407142D01*
X41750000Y-40311904D01*
X41750000Y-40026190D01*
X41702380Y-39930952D01*
X41654761Y-39883333D01*
X41559523Y-39835714D01*
X41416666Y-39835714D01*
X41321428Y-39883333D01*
X41273809Y-39930952D01*
X41226190Y-40026190D01*
X41226190Y-40311904D01*
X41273809Y-40407142D01*
X41321428Y-40454761D01*
X41416666Y-40502380D01*
X41559523Y-40502380D01*
X40797619Y-39835714D02*
X40797619Y-40502380D01*
X40797619Y-39930952D02*
X40750000Y-39883333D01*
X40654761Y-39835714D01*
X40511904Y-39835714D01*
X40416666Y-39883333D01*
X40369047Y-39978571D01*
X40369047Y-40502380D01*
X39892857Y-40407142D02*
X39845238Y-40454761D01*
X39892857Y-40502380D01*
X39940476Y-40454761D01*
X39892857Y-40407142D01*
X39892857Y-40502380D01*
X38988095Y-40454761D02*
X39083333Y-40502380D01*
X39273809Y-40502380D01*
X39369047Y-40454761D01*
X39416666Y-40407142D01*
X39464285Y-40311904D01*
X39464285Y-40026190D01*
X39416666Y-39930952D01*
X39369047Y-39883333D01*
X39273809Y-39835714D01*
X39083333Y-39835714D01*
X38988095Y-39883333D01*
X38416666Y-40502380D02*
X38511904Y-40454761D01*
X38559523Y-40407142D01*
X38607142Y-40311904D01*
X38607142Y-40026190D01*
X38559523Y-39930952D01*
X38511904Y-39883333D01*
X38416666Y-39835714D01*
X38273809Y-39835714D01*
X38178571Y-39883333D01*
X38130952Y-39930952D01*
X38083333Y-40026190D01*
X38083333Y-40311904D01*
X38130952Y-40407142D01*
X38178571Y-40454761D01*
X38273809Y-40502380D01*
X38416666Y-40502380D01*
X37654761Y-40502380D02*
X37654761Y-39835714D01*
X37654761Y-39930952D02*
X37607142Y-39883333D01*
X37511904Y-39835714D01*
X37369047Y-39835714D01*
X37273809Y-39883333D01*
X37226190Y-39978571D01*
X37226190Y-40502380D01*
X37226190Y-39978571D02*
X37178571Y-39883333D01*
X37083333Y-39835714D01*
X36940476Y-39835714D01*
X36845238Y-39883333D01*
X36797619Y-39978571D01*
X36797619Y-40502380D01*
X49645238Y-38002380D02*
X49645238Y-38716666D01*
X49692857Y-38859523D01*
X49788095Y-38954761D01*
X49930952Y-39002380D01*
X50026190Y-39002380D01*
X49026190Y-39002380D02*
X49121428Y-38954761D01*
X49169047Y-38907142D01*
X49216666Y-38811904D01*
X49216666Y-38526190D01*
X49169047Y-38430952D01*
X49121428Y-38383333D01*
X49026190Y-38335714D01*
X48883333Y-38335714D01*
X48788095Y-38383333D01*
X48740476Y-38430952D01*
X48692857Y-38526190D01*
X48692857Y-38811904D01*
X48740476Y-38907142D01*
X48788095Y-38954761D01*
X48883333Y-39002380D01*
X49026190Y-39002380D01*
X48311904Y-38954761D02*
X48216666Y-39002380D01*
X48026190Y-39002380D01*
X47930952Y-38954761D01*
X47883333Y-38859523D01*
X47883333Y-38811904D01*
X47930952Y-38716666D01*
X48026190Y-38669047D01*
X48169047Y-38669047D01*
X48264285Y-38621428D01*
X48311904Y-38526190D01*
X48311904Y-38478571D01*
X48264285Y-38383333D01*
X48169047Y-38335714D01*
X48026190Y-38335714D01*
X47930952Y-38383333D01*
X47454761Y-39002380D02*
X47454761Y-38002380D01*
X47026190Y-39002380D02*
X47026190Y-38478571D01*
X47073809Y-38383333D01*
X47169047Y-38335714D01*
X47311904Y-38335714D01*
X47407142Y-38383333D01*
X47454761Y-38430952D01*
X45502380Y-38002380D02*
X45502380Y-38716666D01*
X45550000Y-38859523D01*
X45645238Y-38954761D01*
X45788095Y-39002380D01*
X45883333Y-39002380D01*
X44883333Y-39002380D02*
X44978571Y-38954761D01*
X45026190Y-38907142D01*
X45073809Y-38811904D01*
X45073809Y-38526190D01*
X45026190Y-38430952D01*
X44978571Y-38383333D01*
X44883333Y-38335714D01*
X44740476Y-38335714D01*
X44645238Y-38383333D01*
X44597619Y-38430952D01*
X44550000Y-38526190D01*
X44550000Y-38811904D01*
X44597619Y-38907142D01*
X44645238Y-38954761D01*
X44740476Y-39002380D01*
X44883333Y-39002380D01*
X44121428Y-39002380D02*
X44121428Y-38002380D01*
X43692857Y-39002380D02*
X43692857Y-38478571D01*
X43740476Y-38383333D01*
X43835714Y-38335714D01*
X43978571Y-38335714D01*
X44073809Y-38383333D01*
X44121428Y-38430952D01*
X43216666Y-38335714D02*
X43216666Y-39002380D01*
X43216666Y-38430952D02*
X43169047Y-38383333D01*
X43073809Y-38335714D01*
X42930952Y-38335714D01*
X42835714Y-38383333D01*
X42788095Y-38478571D01*
X42788095Y-39002380D01*
X42359523Y-38954761D02*
X42264285Y-39002380D01*
X42073809Y-39002380D01*
X41978571Y-38954761D01*
X41930952Y-38859523D01*
X41930952Y-38811904D01*
X41978571Y-38716666D01*
X42073809Y-38669047D01*
X42216666Y-38669047D01*
X42311904Y-38621428D01*
X42359523Y-38526190D01*
X42359523Y-38478571D01*
X42311904Y-38383333D01*
X42216666Y-38335714D01*
X42073809Y-38335714D01*
X41978571Y-38383333D01*
X41359523Y-39002380D02*
X41454761Y-38954761D01*
X41502380Y-38907142D01*
X41550000Y-38811904D01*
X41550000Y-38526190D01*
X41502380Y-38430952D01*
X41454761Y-38383333D01*
X41359523Y-38335714D01*
X41216666Y-38335714D01*
X41121428Y-38383333D01*
X41073809Y-38430952D01*
X41026190Y-38526190D01*
X41026190Y-38811904D01*
X41073809Y-38907142D01*
X41121428Y-38954761D01*
X41216666Y-39002380D01*
X41359523Y-39002380D01*
X40597619Y-38335714D02*
X40597619Y-39002380D01*
X40597619Y-38430952D02*
X40550000Y-38383333D01*
X40454761Y-38335714D01*
X40311904Y-38335714D01*
X40216666Y-38383333D01*
X40169047Y-38478571D01*
X40169047Y-39002380D01*
M02*
