M48
; DRILL file {KiCad (5.1.2)-1} date 17/07/2019 11:45:08
; FORMAT={-:-/ absolute / metric / decimal}
; #@! TF.CreationDate,2019-07-17T11:45:08+10:00
; #@! TF.GenerationSoftware,Kicad,Pcbnew,(5.1.2)-1
FMAT,2
METRIC
T1C0.200
T2C0.250
T3C0.300
T4C1.000
T5C0.300
T6C0.600
T7C2.540
%
G90
G05
T1
X67.8Y-31.45
X67.8Y-33.85
X67.8Y-36.25
X70.2Y-31.45
X70.2Y-33.85
X70.4Y-36.25
X72.6Y-31.45
X72.6Y-33.85
X72.6Y-36.25
X54.15Y-33.0
X54.15Y-34.4
X54.15Y-35.8
X54.15Y-37.2
X55.55Y-33.0
X55.55Y-34.4
X55.55Y-35.8
X55.55Y-37.2
X56.95Y-33.0
X56.95Y-34.4
X56.95Y-35.8
X56.95Y-37.2
X58.35Y-33.0
X58.35Y-34.4
X58.35Y-35.8
X58.35Y-37.2
X54.15Y-58.6
X54.15Y-60.0
X54.15Y-61.4
X54.15Y-62.8
X55.55Y-58.6
X55.55Y-60.0
X55.55Y-61.4
X55.55Y-62.8
X56.95Y-58.6
X56.95Y-60.0
X56.95Y-61.4
X56.95Y-62.8
X58.35Y-58.6
X58.35Y-60.0
X58.35Y-61.4
X58.35Y-62.8
X67.8Y-57.05
X67.8Y-59.45
X67.8Y-61.85
X70.2Y-57.05
X70.2Y-59.45
X70.4Y-61.85
X72.6Y-57.05
X72.6Y-59.45
X72.6Y-61.85
T2
X27.7Y-37.75
X27.7Y-63.35
X27.75Y-29.85
X27.75Y-32.65
X27.75Y-34.95
X27.75Y-55.45
X27.75Y-58.25
X27.75Y-60.55
X29.803Y-27.708
X29.803Y-53.308
X30.0Y-30.7
X30.0Y-36.95
X30.0Y-56.3
X30.0Y-62.55
X31.0Y-23.5
X31.0Y-26.0
X31.0Y-49.1
X31.0Y-51.6
X31.5Y-38.825
X31.5Y-64.425
X32.312Y-40.887
X32.312Y-66.487
X32.5Y-32.15
X32.5Y-57.75
X33.5Y-28.5
X33.5Y-54.1
X35.6Y-32.6
X35.6Y-58.2
X36.5Y-23.5
X36.5Y-26.0
X36.5Y-49.1
X36.5Y-51.6
X37.15Y-41.4
X37.15Y-67.0
X39.775Y-38.575
X39.775Y-64.175
X40.0Y-28.5
X40.0Y-36.8
X40.0Y-54.1
X40.0Y-62.4
X40.5Y-39.95
X40.5Y-65.55
X42.9Y-26.0
X42.9Y-51.6
X43.5Y-41.6
X43.5Y-67.2
X43.9Y-39.1
X43.9Y-64.7
X44.15Y-25.65
X44.15Y-51.25
X45.0Y-30.575
X45.0Y-56.175
X45.593Y-28.693
X45.593Y-54.293
X45.75Y-42.05
X45.75Y-67.65
X46.9Y-30.8
X46.9Y-56.4
X47.25Y-33.0
X47.25Y-58.6
X47.4Y-42.4
X47.4Y-68.0
X48.0Y-40.1
X48.0Y-65.7
X48.225Y-25.594
X48.225Y-51.194
X50.32Y-39.308
X50.32Y-64.908
X51.025Y-25.4
X51.025Y-51.0
X51.046Y-31.475
X51.046Y-57.075
X51.05Y-39.95
X51.05Y-65.55
X51.707Y-39.665
X51.707Y-65.265
X51.85Y-29.8
X51.85Y-55.4
X52.363Y-27.78
X52.363Y-53.38
X52.563Y-37.4
X52.563Y-63.0
X52.6Y-33.4
X52.6Y-59.0
X52.613Y-36.3
X52.613Y-61.9
X52.7Y-35.6
X52.7Y-61.2
X52.704Y-38.099
X52.704Y-63.699
X52.971Y-40.067
X52.971Y-65.667
X53.33Y-38.275
X53.33Y-63.875
X53.36Y-42.588
X53.36Y-68.188
X54.015Y-29.835
X54.015Y-55.435
X54.184Y-25.667
X54.184Y-51.267
X54.28Y-38.35
X54.28Y-63.95
X54.9Y-25.735
X54.9Y-51.335
X55.358Y-38.678
X55.358Y-64.278
X55.926Y-38.362
X55.926Y-63.962
X56.3Y-42.1
X56.3Y-67.7
X56.55Y-32.275
X56.55Y-57.875
X56.6Y-38.375
X56.6Y-63.975
X57.25Y-29.75
X57.25Y-55.35
X58.949Y-31.481
X58.949Y-57.081
X59.17Y-28.206
X59.17Y-53.806
X59.189Y-35.239
X59.189Y-60.839
X59.302Y-41.281
X59.302Y-66.881
X59.526Y-29.831
X59.526Y-55.431
X59.64Y-25.509
X59.64Y-51.109
X59.65Y-33.25
X59.65Y-58.85
X59.671Y-26.158
X59.671Y-51.758
X59.8Y-36.275
X59.8Y-61.875
X59.934Y-28.835
X59.934Y-54.435
X59.95Y-37.75
X59.95Y-63.35
X60.022Y-42.006
X60.022Y-67.606
X61.26Y-35.853
X61.26Y-61.453
X61.4Y-31.844
X61.4Y-57.444
X61.603Y-42.175
X61.603Y-67.775
X62.3Y-42.175
X62.3Y-67.775
X62.375Y-31.625
X62.375Y-57.225
X62.375Y-37.8
X62.375Y-63.4
X62.425Y-37.102
X62.425Y-62.702
X63.05Y-29.0
X63.05Y-54.6
X63.075Y-25.5
X63.075Y-51.1
X63.199Y-35.075
X63.199Y-60.675
X64.25Y-42.2
X64.25Y-67.8
X64.656Y-29.929
X64.656Y-55.529
X64.675Y-34.286
X64.675Y-59.886
X65.0Y-36.1
X65.0Y-61.7
X65.44Y-39.109
X65.44Y-64.709
X65.712Y-35.165
X65.712Y-60.765
X65.8Y-37.25
X65.8Y-62.85
X65.859Y-32.35
X65.859Y-57.95
X65.9Y-34.543
X65.9Y-60.143
X65.939Y-39.525
X65.939Y-65.125
X66.052Y-30.445
X66.052Y-56.045
X66.55Y-26.7
X66.55Y-52.3
X66.702Y-30.448
X66.702Y-56.048
X66.85Y-29.125
X66.85Y-54.725
X66.886Y-39.004
X66.886Y-64.604
X67.758Y-29.28
X67.758Y-54.88
X67.929Y-38.467
X67.929Y-64.067
X68.29Y-28.907
X68.29Y-54.507
X68.4Y-27.0
X68.4Y-52.6
X68.585Y-38.277
X68.585Y-63.877
X68.94Y-29.24
X68.94Y-54.84
X69.45Y-29.703
X69.45Y-55.303
X69.963Y-29.304
X69.963Y-54.904
X70.097Y-25.727
X70.097Y-51.327
X70.534Y-28.994
X70.534Y-54.594
X70.55Y-38.292
X70.55Y-63.892
X70.9Y-41.7
X70.9Y-67.3
X71.15Y-38.6
X71.15Y-64.2
X71.668Y-29.39
X71.668Y-54.99
X72.334Y-29.359
X72.334Y-54.959
X72.41Y-38.19
X72.41Y-63.79
X73.0Y-29.339
X73.0Y-54.939
X73.56Y-37.298
X73.56Y-62.898
X74.293Y-35.616
X74.293Y-61.216
X74.335Y-36.62
X74.335Y-62.22
X74.344Y-33.092
X74.344Y-58.692
X74.384Y-34.625
X74.384Y-60.225
X74.45Y-32.1
X74.45Y-57.7
X74.5Y-30.4
X74.5Y-56.0
X74.726Y-36.101
X74.726Y-61.701
X74.8Y-31.4
X74.8Y-33.6
X74.8Y-57.0
X74.8Y-59.2
X74.975Y-34.35
X74.975Y-35.158
X74.975Y-59.95
X74.975Y-60.758
X75.0Y-32.6
X75.0Y-58.2
X75.08Y-27.959
X75.08Y-53.559
X75.4Y-39.5
X75.4Y-65.1
T3
X31.5Y-35.1
X31.5Y-60.7
X35.05Y-35.2
X35.05Y-60.8
X36.7Y-34.5
X36.7Y-60.1
X37.6Y-32.2
X37.6Y-57.8
X38.4Y-36.0
X38.4Y-61.6
X41.15Y-30.5
X41.15Y-56.1
X41.85Y-36.95
X41.85Y-62.55
X43.576Y-39.926
X43.576Y-65.526
X44.1Y-36.1
X44.1Y-61.7
X44.2Y-30.6
X44.2Y-56.2
X44.3Y-33.1
X44.3Y-58.7
X45.2Y-33.05
X45.2Y-58.65
X46.45Y-40.075
X46.45Y-65.675
X46.9Y-27.8
X46.9Y-53.4
X47.25Y-36.1
X47.25Y-61.7
X50.375Y-29.125
X50.375Y-54.725
X53.15Y-31.65
X53.15Y-57.25
X53.3Y-32.9
X53.3Y-58.5
X55.85Y-28.4
X55.85Y-54.0
X58.052Y-29.1
X58.052Y-54.7
X63.3Y-42.1
X63.3Y-67.7
X63.981Y-31.035
X63.981Y-56.635
X68.95Y-24.95
X68.95Y-50.55
X69.05Y-28.1
X69.05Y-53.7
X69.438Y-41.91
X69.438Y-67.51
X72.45Y-27.418
X72.45Y-53.018
X73.746Y-38.706
X73.746Y-64.306
T4
X32.24Y-69.615
X34.78Y-69.615
X37.32Y-69.615
X39.86Y-69.615
X42.4Y-49.295
X42.4Y-69.615
X44.94Y-49.295
X44.94Y-69.615
X47.48Y-49.295
X47.48Y-69.615
X50.02Y-49.295
X50.02Y-69.615
X52.56Y-49.295
X52.56Y-69.615
X55.1Y-49.295
X55.1Y-69.615
X57.64Y-49.295
X57.64Y-69.615
X60.18Y-49.295
X60.18Y-69.615
X62.72Y-49.295
X62.72Y-69.615
X65.26Y-49.295
X65.26Y-69.615
X67.8Y-49.295
X67.8Y-69.615
X70.34Y-49.295
X70.34Y-69.615
X32.24Y-44.015
X34.78Y-44.015
X37.32Y-44.015
X39.86Y-44.015
X42.4Y-23.695
X42.4Y-44.015
X44.94Y-23.695
X44.94Y-44.015
X47.48Y-23.695
X47.48Y-44.015
X50.02Y-23.695
X50.02Y-44.015
X52.56Y-23.695
X52.56Y-44.015
X55.1Y-23.695
X55.1Y-44.015
X57.64Y-23.695
X57.64Y-44.015
X60.18Y-23.695
X60.18Y-44.015
X62.72Y-23.695
X62.72Y-44.015
X65.26Y-23.695
X65.26Y-44.015
X67.8Y-23.695
X67.8Y-44.015
X70.34Y-23.695
X70.34Y-44.015
T5
X31.0Y-45.435
X32.0Y-45.435
X33.0Y-45.435
X34.0Y-45.435
X35.0Y-45.435
X36.0Y-45.435
X66.6Y-45.435
X67.6Y-45.435
X68.6Y-45.435
X69.6Y-45.435
X70.6Y-45.435
X71.6Y-45.435
X31.0Y-47.875
X32.0Y-47.875
X33.0Y-47.875
X34.0Y-47.875
X35.0Y-47.875
X36.0Y-47.875
X66.6Y-47.875
X67.6Y-47.875
X68.6Y-47.875
X69.6Y-47.875
X70.6Y-47.875
X71.6Y-47.875
T6
X29.88Y-57.4
X29.88Y-61.4
X29.88Y-31.8
X29.88Y-35.8
T7
X28.43Y-50.565
X28.43Y-68.345
X74.15Y-50.565
X74.15Y-68.345
X28.43Y-24.965
X28.43Y-42.745
X74.15Y-24.965
X74.15Y-42.745
T0
M30
