G04 #@! TF.GenerationSoftware,KiCad,Pcbnew,(5.1.2)-1*
G04 #@! TF.CreationDate,2019-08-08T11:50:39+10:00*
G04 #@! TF.ProjectId,output.panel,6f757470-7574-42e7-9061-6e656c2e6b69,rev?*
G04 #@! TF.SameCoordinates,Original*
G04 #@! TF.FileFunction,Legend,Bot*
G04 #@! TF.FilePolarity,Positive*
%FSLAX46Y46*%
G04 Gerber Fmt 4.6, Leading zero omitted, Abs format (unit mm)*
G04 Created by KiCad (PCBNEW (5.1.2)-1) date 2019-08-08 11:50:39*
%MOMM*%
%LPD*%
G04 APERTURE LIST*
%ADD10C,0.150000*%
%ADD11C,0.125000*%
%ADD12C,0.120000*%
%ADD13C,0.010000*%
G04 APERTURE END LIST*
D10*
X38283333Y-48452380D02*
X38283333Y-49166666D01*
X38330952Y-49309523D01*
X38426190Y-49404761D01*
X38569047Y-49452380D01*
X38664285Y-49452380D01*
X37330952Y-49452380D02*
X37807142Y-49452380D01*
X37807142Y-48452380D01*
X36426190Y-49357142D02*
X36473809Y-49404761D01*
X36616666Y-49452380D01*
X36711904Y-49452380D01*
X36854761Y-49404761D01*
X36950000Y-49309523D01*
X36997619Y-49214285D01*
X37045238Y-49023809D01*
X37045238Y-48880952D01*
X36997619Y-48690476D01*
X36950000Y-48595238D01*
X36854761Y-48500000D01*
X36711904Y-48452380D01*
X36616666Y-48452380D01*
X36473809Y-48500000D01*
X36426190Y-48547619D01*
X35711904Y-48452380D02*
X35711904Y-49166666D01*
X35759523Y-49309523D01*
X35854761Y-49404761D01*
X35997619Y-49452380D01*
X36092857Y-49452380D01*
X34759523Y-49452380D02*
X35235714Y-49452380D01*
X35235714Y-48452380D01*
X33854761Y-49357142D02*
X33902380Y-49404761D01*
X34045238Y-49452380D01*
X34140476Y-49452380D01*
X34283333Y-49404761D01*
X34378571Y-49309523D01*
X34426190Y-49214285D01*
X34473809Y-49023809D01*
X34473809Y-48880952D01*
X34426190Y-48690476D01*
X34378571Y-48595238D01*
X34283333Y-48500000D01*
X34140476Y-48452380D01*
X34045238Y-48452380D01*
X33902380Y-48500000D01*
X33854761Y-48547619D01*
X33140476Y-48452380D02*
X33140476Y-49166666D01*
X33188095Y-49309523D01*
X33283333Y-49404761D01*
X33426190Y-49452380D01*
X33521428Y-49452380D01*
X32188095Y-49452380D02*
X32664285Y-49452380D01*
X32664285Y-48452380D01*
X31283333Y-49357142D02*
X31330952Y-49404761D01*
X31473809Y-49452380D01*
X31569047Y-49452380D01*
X31711904Y-49404761D01*
X31807142Y-49309523D01*
X31854761Y-49214285D01*
X31902380Y-49023809D01*
X31902380Y-48880952D01*
X31854761Y-48690476D01*
X31807142Y-48595238D01*
X31711904Y-48500000D01*
X31569047Y-48452380D01*
X31473809Y-48452380D01*
X31330952Y-48500000D01*
X31283333Y-48547619D01*
X35913240Y-66087309D02*
X35475507Y-66525042D01*
X35980583Y-66558713D01*
X35879568Y-66659729D01*
X35845896Y-66760744D01*
X35845896Y-66828087D01*
X35879568Y-66929103D01*
X36047927Y-67097461D01*
X36148942Y-67131133D01*
X36216286Y-67131133D01*
X36317301Y-67097461D01*
X36519331Y-66895431D01*
X36553003Y-66794416D01*
X36553003Y-66727072D01*
X35273477Y-66727072D02*
X35744881Y-67669881D01*
X34802072Y-67198477D01*
X34633713Y-67366835D02*
X34195981Y-67804568D01*
X34701057Y-67838240D01*
X34600042Y-67939255D01*
X34566370Y-68040270D01*
X34566370Y-68107614D01*
X34600042Y-68208629D01*
X34768400Y-68376988D01*
X34869416Y-68410660D01*
X34936759Y-68410660D01*
X35037774Y-68376988D01*
X35239805Y-68174957D01*
X35273477Y-68073942D01*
X35273477Y-68006599D01*
X57909523Y-67246825D02*
X58100000Y-67246825D01*
X58195238Y-67294445D01*
X58242857Y-67342064D01*
X58338095Y-67484921D01*
X58385714Y-67675397D01*
X58385714Y-68056349D01*
X58338095Y-68151587D01*
X58290476Y-68199206D01*
X58195238Y-68246825D01*
X58004761Y-68246825D01*
X57909523Y-68199206D01*
X57861904Y-68151587D01*
X57814285Y-68056349D01*
X57814285Y-67818254D01*
X57861904Y-67723016D01*
X57909523Y-67675397D01*
X58004761Y-67627778D01*
X58195238Y-67627778D01*
X58290476Y-67675397D01*
X58338095Y-67723016D01*
X58385714Y-67818254D01*
X44092857Y-50552380D02*
X43759523Y-51552380D01*
X43426190Y-50552380D01*
X42759523Y-51028571D02*
X42616666Y-51076190D01*
X42569047Y-51123809D01*
X42521428Y-51219047D01*
X42521428Y-51361904D01*
X42569047Y-51457142D01*
X42616666Y-51504761D01*
X42711904Y-51552380D01*
X43092857Y-51552380D01*
X43092857Y-50552380D01*
X42759523Y-50552380D01*
X42664285Y-50600000D01*
X42616666Y-50647619D01*
X42569047Y-50742857D01*
X42569047Y-50838095D01*
X42616666Y-50933333D01*
X42664285Y-50980952D01*
X42759523Y-51028571D01*
X43092857Y-51028571D01*
X42140476Y-51266666D02*
X41664285Y-51266666D01*
X42235714Y-51552380D02*
X41902380Y-50552380D01*
X41569047Y-51552380D01*
X41378571Y-50552380D02*
X40807142Y-50552380D01*
X41092857Y-51552380D02*
X41092857Y-50552380D01*
X68540476Y-51527380D02*
X69111904Y-51527380D01*
X68826190Y-51527380D02*
X68826190Y-50527380D01*
X68921428Y-50670238D01*
X69016666Y-50765476D01*
X69111904Y-50813095D01*
X68159523Y-50622619D02*
X68111904Y-50575000D01*
X68016666Y-50527380D01*
X67778571Y-50527380D01*
X67683333Y-50575000D01*
X67635714Y-50622619D01*
X67588095Y-50717857D01*
X67588095Y-50813095D01*
X67635714Y-50955952D01*
X68207142Y-51527380D01*
X67588095Y-51527380D01*
X63390476Y-51527380D02*
X63961904Y-51527380D01*
X63676190Y-51527380D02*
X63676190Y-50527380D01*
X63771428Y-50670238D01*
X63866666Y-50765476D01*
X63961904Y-50813095D01*
X62533333Y-50860714D02*
X62533333Y-51527380D01*
X62771428Y-50479761D02*
X63009523Y-51194047D01*
X62390476Y-51194047D01*
X55790476Y-51527380D02*
X56361904Y-51527380D01*
X56076190Y-51527380D02*
X56076190Y-50527380D01*
X56171428Y-50670238D01*
X56266666Y-50765476D01*
X56361904Y-50813095D01*
X55457142Y-50527380D02*
X54790476Y-50527380D01*
X55219047Y-51527380D01*
X63295238Y-67680952D02*
X63390476Y-67633333D01*
X63438095Y-67585714D01*
X63485714Y-67490476D01*
X63485714Y-67442857D01*
X63438095Y-67347619D01*
X63390476Y-67300000D01*
X63295238Y-67252380D01*
X63104761Y-67252380D01*
X63009523Y-67300000D01*
X62961904Y-67347619D01*
X62914285Y-67442857D01*
X62914285Y-67490476D01*
X62961904Y-67585714D01*
X63009523Y-67633333D01*
X63104761Y-67680952D01*
X63295238Y-67680952D01*
X63390476Y-67728571D01*
X63438095Y-67776190D01*
X63485714Y-67871428D01*
X63485714Y-68061904D01*
X63438095Y-68157142D01*
X63390476Y-68204761D01*
X63295238Y-68252380D01*
X63104761Y-68252380D01*
X63009523Y-68204761D01*
X62961904Y-68157142D01*
X62914285Y-68061904D01*
X62914285Y-67871428D01*
X62961904Y-67776190D01*
X63009523Y-67728571D01*
X63104761Y-67680952D01*
X60833333Y-67252380D02*
X60166666Y-67252380D01*
X60595238Y-68252380D01*
X38750465Y-67189297D02*
X38043358Y-66482190D01*
X38346404Y-67593358D01*
X37639297Y-66886251D01*
X37538282Y-68266793D02*
X37605625Y-68266793D01*
X37740312Y-68199450D01*
X37807656Y-68132106D01*
X37875000Y-67997419D01*
X37875000Y-67862732D01*
X37841328Y-67761717D01*
X37740312Y-67593358D01*
X37639297Y-67492343D01*
X37470938Y-67391328D01*
X37369923Y-67357656D01*
X37235236Y-67357656D01*
X37100549Y-67425000D01*
X37033206Y-67492343D01*
X36965862Y-67627030D01*
X36965862Y-67694374D01*
X65890476Y-68252380D02*
X65700000Y-68252380D01*
X65604761Y-68204761D01*
X65557142Y-68157142D01*
X65461904Y-68014285D01*
X65414285Y-67823809D01*
X65414285Y-67442857D01*
X65461904Y-67347619D01*
X65509523Y-67300000D01*
X65604761Y-67252380D01*
X65795238Y-67252380D01*
X65890476Y-67300000D01*
X65938095Y-67347619D01*
X65985714Y-67442857D01*
X65985714Y-67680952D01*
X65938095Y-67776190D01*
X65890476Y-67823809D01*
X65795238Y-67871428D01*
X65604761Y-67871428D01*
X65509523Y-67823809D01*
X65461904Y-67776190D01*
X65414285Y-67680952D01*
X71060194Y-66407698D02*
X71093866Y-66306683D01*
X71194881Y-66205668D01*
X71329568Y-66138324D01*
X71464255Y-66138324D01*
X71565270Y-66171996D01*
X71733629Y-66273011D01*
X71834644Y-66374026D01*
X71935660Y-66542385D01*
X71969331Y-66643400D01*
X71969331Y-66778087D01*
X71901988Y-66912774D01*
X71834644Y-66980118D01*
X71699957Y-67047461D01*
X71632614Y-67047461D01*
X71396912Y-66811759D01*
X71531599Y-66677072D01*
X71396912Y-67417851D02*
X70689805Y-66710744D01*
X70992851Y-67821912D01*
X70285744Y-67114805D01*
X70656133Y-68158629D02*
X69949026Y-67451522D01*
X69780668Y-67619881D01*
X69713324Y-67754568D01*
X69713324Y-67889255D01*
X69746996Y-67990270D01*
X69848011Y-68158629D01*
X69949026Y-68259644D01*
X70117385Y-68360660D01*
X70218400Y-68394331D01*
X70353087Y-68394331D01*
X70487774Y-68326988D01*
X70656133Y-68158629D01*
X71040476Y-51579239D02*
X71611904Y-51579239D01*
X71326190Y-51579239D02*
X71326190Y-50579239D01*
X71421428Y-50722097D01*
X71516666Y-50817335D01*
X71611904Y-50864954D01*
X70088095Y-51579239D02*
X70659523Y-51579239D01*
X70373809Y-51579239D02*
X70373809Y-50579239D01*
X70469047Y-50722097D01*
X70564285Y-50817335D01*
X70659523Y-50864954D01*
X33659644Y-65937309D02*
X34131049Y-66408713D01*
X33726988Y-66004652D02*
X33659644Y-66004652D01*
X33558629Y-66038324D01*
X33457614Y-66139339D01*
X33423942Y-66240355D01*
X33457614Y-66341370D01*
X33828003Y-66711759D01*
X33087225Y-67452538D02*
X32986209Y-66880118D01*
X33491286Y-67048477D02*
X32784179Y-66341370D01*
X32514805Y-66610744D01*
X32481133Y-66711759D01*
X32481133Y-66779103D01*
X32514805Y-66880118D01*
X32615820Y-66981133D01*
X32716835Y-67014805D01*
X32784179Y-67014805D01*
X32885194Y-66981133D01*
X33154568Y-66711759D01*
X32784179Y-67688240D02*
X32716835Y-67822927D01*
X32548477Y-67991286D01*
X32447461Y-68024957D01*
X32380118Y-68024957D01*
X32279103Y-67991286D01*
X32211759Y-67923942D01*
X32178087Y-67822927D01*
X32178087Y-67755583D01*
X32211759Y-67654568D01*
X32312774Y-67486209D01*
X32346446Y-67385194D01*
X32346446Y-67317851D01*
X32312774Y-67216835D01*
X32245431Y-67149492D01*
X32144416Y-67115820D01*
X32077072Y-67115820D01*
X31976057Y-67149492D01*
X31807698Y-67317851D01*
X31740355Y-67452538D01*
X31504652Y-67620896D02*
X31100591Y-68024957D01*
X32009729Y-68530034D02*
X31302622Y-67822927D01*
X48185714Y-67347619D02*
X48138095Y-67300000D01*
X48042857Y-67252380D01*
X47804761Y-67252380D01*
X47709523Y-67300000D01*
X47661904Y-67347619D01*
X47614285Y-67442857D01*
X47614285Y-67538095D01*
X47661904Y-67680952D01*
X48233333Y-68252380D01*
X47614285Y-68252380D01*
X50733333Y-67252380D02*
X50114285Y-67252380D01*
X50447619Y-67633333D01*
X50304761Y-67633333D01*
X50209523Y-67680952D01*
X50161904Y-67728571D01*
X50114285Y-67823809D01*
X50114285Y-68061904D01*
X50161904Y-68157142D01*
X50209523Y-68204761D01*
X50304761Y-68252380D01*
X50590476Y-68252380D01*
X50685714Y-68204761D01*
X50733333Y-68157142D01*
X55161904Y-67252380D02*
X55638095Y-67252380D01*
X55685714Y-67728571D01*
X55638095Y-67680952D01*
X55542857Y-67633333D01*
X55304761Y-67633333D01*
X55209523Y-67680952D01*
X55161904Y-67728571D01*
X55114285Y-67823809D01*
X55114285Y-68061904D01*
X55161904Y-68157142D01*
X55209523Y-68204761D01*
X55304761Y-68252380D01*
X55542857Y-68252380D01*
X55638095Y-68204761D01*
X55685714Y-68157142D01*
X58340476Y-51527380D02*
X58911904Y-51527380D01*
X58626190Y-51527380D02*
X58626190Y-50527380D01*
X58721428Y-50670238D01*
X58816666Y-50765476D01*
X58911904Y-50813095D01*
X57483333Y-50527380D02*
X57673809Y-50527380D01*
X57769047Y-50575000D01*
X57816666Y-50622619D01*
X57911904Y-50765476D01*
X57959523Y-50955952D01*
X57959523Y-51336904D01*
X57911904Y-51432142D01*
X57864285Y-51479761D01*
X57769047Y-51527380D01*
X57578571Y-51527380D01*
X57483333Y-51479761D01*
X57435714Y-51432142D01*
X57388095Y-51336904D01*
X57388095Y-51098809D01*
X57435714Y-51003571D01*
X57483333Y-50955952D01*
X57578571Y-50908333D01*
X57769047Y-50908333D01*
X57864285Y-50955952D01*
X57911904Y-51003571D01*
X57959523Y-51098809D01*
X65915476Y-51527380D02*
X66486904Y-51527380D01*
X66201190Y-51527380D02*
X66201190Y-50527380D01*
X66296428Y-50670238D01*
X66391666Y-50765476D01*
X66486904Y-50813095D01*
X65582142Y-50527380D02*
X64963095Y-50527380D01*
X65296428Y-50908333D01*
X65153571Y-50908333D01*
X65058333Y-50955952D01*
X65010714Y-51003571D01*
X64963095Y-51098809D01*
X64963095Y-51336904D01*
X65010714Y-51432142D01*
X65058333Y-51479761D01*
X65153571Y-51527380D01*
X65439285Y-51527380D01*
X65534523Y-51479761D01*
X65582142Y-51432142D01*
X50765476Y-51527380D02*
X51336904Y-51527380D01*
X51051190Y-51527380D02*
X51051190Y-50527380D01*
X51146428Y-50670238D01*
X51241666Y-50765476D01*
X51336904Y-50813095D01*
X50289285Y-51527380D02*
X50098809Y-51527380D01*
X50003571Y-51479761D01*
X49955952Y-51432142D01*
X49860714Y-51289285D01*
X49813095Y-51098809D01*
X49813095Y-50717857D01*
X49860714Y-50622619D01*
X49908333Y-50575000D01*
X50003571Y-50527380D01*
X50194047Y-50527380D01*
X50289285Y-50575000D01*
X50336904Y-50622619D01*
X50384523Y-50717857D01*
X50384523Y-50955952D01*
X50336904Y-51051190D01*
X50289285Y-51098809D01*
X50194047Y-51146428D01*
X50003571Y-51146428D01*
X49908333Y-51098809D01*
X49860714Y-51051190D01*
X49813095Y-50955952D01*
X40710194Y-66382698D02*
X40743866Y-66281683D01*
X40844881Y-66180668D01*
X40979568Y-66113324D01*
X41114255Y-66113324D01*
X41215270Y-66146996D01*
X41383629Y-66248011D01*
X41484644Y-66349026D01*
X41585660Y-66517385D01*
X41619331Y-66618400D01*
X41619331Y-66753087D01*
X41551988Y-66887774D01*
X41484644Y-66955118D01*
X41349957Y-67022461D01*
X41282614Y-67022461D01*
X41046912Y-66786759D01*
X41181599Y-66652072D01*
X41046912Y-67392851D02*
X40339805Y-66685744D01*
X40642851Y-67796912D01*
X39935744Y-67089805D01*
X40306133Y-68133629D02*
X39599026Y-67426522D01*
X39430668Y-67594881D01*
X39363324Y-67729568D01*
X39363324Y-67864255D01*
X39396996Y-67965270D01*
X39498011Y-68133629D01*
X39599026Y-68234644D01*
X39767385Y-68335660D01*
X39868400Y-68369331D01*
X40003087Y-68369331D01*
X40137774Y-68301988D01*
X40306133Y-68133629D01*
X52809523Y-67585714D02*
X52809523Y-68252380D01*
X53047619Y-67204761D02*
X53285714Y-67919047D01*
X52666666Y-67919047D01*
D11*
X49233333Y-50691666D02*
X49000000Y-51391666D01*
X48766666Y-50691666D01*
X48533333Y-50691666D02*
X48533333Y-51258333D01*
X48500000Y-51325000D01*
X48466666Y-51358333D01*
X48400000Y-51391666D01*
X48266666Y-51391666D01*
X48200000Y-51358333D01*
X48166666Y-51325000D01*
X48133333Y-51258333D01*
X48133333Y-50691666D01*
X47833333Y-51358333D02*
X47733333Y-51391666D01*
X47566666Y-51391666D01*
X47500000Y-51358333D01*
X47466666Y-51325000D01*
X47433333Y-51258333D01*
X47433333Y-51191666D01*
X47466666Y-51125000D01*
X47500000Y-51091666D01*
X47566666Y-51058333D01*
X47700000Y-51025000D01*
X47766666Y-50991666D01*
X47800000Y-50958333D01*
X47833333Y-50891666D01*
X47833333Y-50825000D01*
X47800000Y-50758333D01*
X47766666Y-50725000D01*
X47700000Y-50691666D01*
X47533333Y-50691666D01*
X47433333Y-50725000D01*
X46900000Y-51025000D02*
X46800000Y-51058333D01*
X46766666Y-51091666D01*
X46733333Y-51158333D01*
X46733333Y-51258333D01*
X46766666Y-51325000D01*
X46800000Y-51358333D01*
X46866666Y-51391666D01*
X47133333Y-51391666D01*
X47133333Y-50691666D01*
X46900000Y-50691666D01*
X46833333Y-50725000D01*
X46800000Y-50758333D01*
X46766666Y-50825000D01*
X46766666Y-50891666D01*
X46800000Y-50958333D01*
X46833333Y-50991666D01*
X46900000Y-51025000D01*
X47133333Y-51025000D01*
D10*
X46238095Y-51003571D02*
X45904761Y-51003571D01*
X45761904Y-51527380D02*
X46238095Y-51527380D01*
X46238095Y-50527380D01*
X45761904Y-50527380D01*
X45333333Y-51527380D02*
X45333333Y-50527380D01*
X44761904Y-51527380D01*
X44761904Y-50527380D01*
X68490476Y-68252380D02*
X69061904Y-68252380D01*
X68776190Y-68252380D02*
X68776190Y-67252380D01*
X68871428Y-67395238D01*
X68966666Y-67490476D01*
X69061904Y-67538095D01*
X67871428Y-67252380D02*
X67776190Y-67252380D01*
X67680952Y-67300000D01*
X67633333Y-67347619D01*
X67585714Y-67442857D01*
X67538095Y-67633333D01*
X67538095Y-67871428D01*
X67585714Y-68061904D01*
X67633333Y-68157142D01*
X67680952Y-68204761D01*
X67776190Y-68252380D01*
X67871428Y-68252380D01*
X67966666Y-68204761D01*
X68014285Y-68157142D01*
X68061904Y-68061904D01*
X68109523Y-67871428D01*
X68109523Y-67633333D01*
X68061904Y-67442857D01*
X68014285Y-67347619D01*
X67966666Y-67300000D01*
X67871428Y-67252380D01*
X60915476Y-51527380D02*
X61486904Y-51527380D01*
X61201190Y-51527380D02*
X61201190Y-50527380D01*
X61296428Y-50670238D01*
X61391666Y-50765476D01*
X61486904Y-50813095D01*
X60010714Y-50527380D02*
X60486904Y-50527380D01*
X60534523Y-51003571D01*
X60486904Y-50955952D01*
X60391666Y-50908333D01*
X60153571Y-50908333D01*
X60058333Y-50955952D01*
X60010714Y-51003571D01*
X59963095Y-51098809D01*
X59963095Y-51336904D01*
X60010714Y-51432142D01*
X60058333Y-51479761D01*
X60153571Y-51527380D01*
X60391666Y-51527380D01*
X60486904Y-51479761D01*
X60534523Y-51432142D01*
X42872619Y-67252380D02*
X42777380Y-67252380D01*
X42682142Y-67300000D01*
X42634523Y-67347619D01*
X42586904Y-67442857D01*
X42539285Y-67633333D01*
X42539285Y-67871428D01*
X42586904Y-68061904D01*
X42634523Y-68157142D01*
X42682142Y-68204761D01*
X42777380Y-68252380D01*
X42872619Y-68252380D01*
X42967857Y-68204761D01*
X43015476Y-68157142D01*
X43063095Y-68061904D01*
X43110714Y-67871428D01*
X43110714Y-67633333D01*
X43063095Y-67442857D01*
X43015476Y-67347619D01*
X42967857Y-67300000D01*
X42872619Y-67252380D01*
X45114285Y-68252380D02*
X45685714Y-68252380D01*
X45400000Y-68252380D02*
X45400000Y-67252380D01*
X45495238Y-67395238D01*
X45590476Y-67490476D01*
X45685714Y-67538095D01*
X53265476Y-51527380D02*
X53836904Y-51527380D01*
X53551190Y-51527380D02*
X53551190Y-50527380D01*
X53646428Y-50670238D01*
X53741666Y-50765476D01*
X53836904Y-50813095D01*
X52694047Y-50955952D02*
X52789285Y-50908333D01*
X52836904Y-50860714D01*
X52884523Y-50765476D01*
X52884523Y-50717857D01*
X52836904Y-50622619D01*
X52789285Y-50575000D01*
X52694047Y-50527380D01*
X52503571Y-50527380D01*
X52408333Y-50575000D01*
X52360714Y-50622619D01*
X52313095Y-50717857D01*
X52313095Y-50765476D01*
X52360714Y-50860714D01*
X52408333Y-50908333D01*
X52503571Y-50955952D01*
X52694047Y-50955952D01*
X52789285Y-51003571D01*
X52836904Y-51051190D01*
X52884523Y-51146428D01*
X52884523Y-51336904D01*
X52836904Y-51432142D01*
X52789285Y-51479761D01*
X52694047Y-51527380D01*
X52503571Y-51527380D01*
X52408333Y-51479761D01*
X52360714Y-51432142D01*
X52313095Y-51336904D01*
X52313095Y-51146428D01*
X52360714Y-51051190D01*
X52408333Y-51003571D01*
X52503571Y-50955952D01*
X63390476Y-26027380D02*
X63961904Y-26027380D01*
X63676190Y-26027380D02*
X63676190Y-25027380D01*
X63771428Y-25170238D01*
X63866666Y-25265476D01*
X63961904Y-25313095D01*
X62533333Y-25360714D02*
X62533333Y-26027380D01*
X62771428Y-24979761D02*
X63009523Y-25694047D01*
X62390476Y-25694047D01*
X65915476Y-26027380D02*
X66486904Y-26027380D01*
X66201190Y-26027380D02*
X66201190Y-25027380D01*
X66296428Y-25170238D01*
X66391666Y-25265476D01*
X66486904Y-25313095D01*
X65582142Y-25027380D02*
X64963095Y-25027380D01*
X65296428Y-25408333D01*
X65153571Y-25408333D01*
X65058333Y-25455952D01*
X65010714Y-25503571D01*
X64963095Y-25598809D01*
X64963095Y-25836904D01*
X65010714Y-25932142D01*
X65058333Y-25979761D01*
X65153571Y-26027380D01*
X65439285Y-26027380D01*
X65534523Y-25979761D01*
X65582142Y-25932142D01*
X68540476Y-26027380D02*
X69111904Y-26027380D01*
X68826190Y-26027380D02*
X68826190Y-25027380D01*
X68921428Y-25170238D01*
X69016666Y-25265476D01*
X69111904Y-25313095D01*
X68159523Y-25122619D02*
X68111904Y-25075000D01*
X68016666Y-25027380D01*
X67778571Y-25027380D01*
X67683333Y-25075000D01*
X67635714Y-25122619D01*
X67588095Y-25217857D01*
X67588095Y-25313095D01*
X67635714Y-25455952D01*
X68207142Y-26027380D01*
X67588095Y-26027380D01*
X55790476Y-26027380D02*
X56361904Y-26027380D01*
X56076190Y-26027380D02*
X56076190Y-25027380D01*
X56171428Y-25170238D01*
X56266666Y-25265476D01*
X56361904Y-25313095D01*
X55457142Y-25027380D02*
X54790476Y-25027380D01*
X55219047Y-26027380D01*
X71040476Y-26079239D02*
X71611904Y-26079239D01*
X71326190Y-26079239D02*
X71326190Y-25079239D01*
X71421428Y-25222097D01*
X71516666Y-25317335D01*
X71611904Y-25364954D01*
X70088095Y-26079239D02*
X70659523Y-26079239D01*
X70373809Y-26079239D02*
X70373809Y-25079239D01*
X70469047Y-25222097D01*
X70564285Y-25317335D01*
X70659523Y-25364954D01*
X53265476Y-26027380D02*
X53836904Y-26027380D01*
X53551190Y-26027380D02*
X53551190Y-25027380D01*
X53646428Y-25170238D01*
X53741666Y-25265476D01*
X53836904Y-25313095D01*
X52694047Y-25455952D02*
X52789285Y-25408333D01*
X52836904Y-25360714D01*
X52884523Y-25265476D01*
X52884523Y-25217857D01*
X52836904Y-25122619D01*
X52789285Y-25075000D01*
X52694047Y-25027380D01*
X52503571Y-25027380D01*
X52408333Y-25075000D01*
X52360714Y-25122619D01*
X52313095Y-25217857D01*
X52313095Y-25265476D01*
X52360714Y-25360714D01*
X52408333Y-25408333D01*
X52503571Y-25455952D01*
X52694047Y-25455952D01*
X52789285Y-25503571D01*
X52836904Y-25551190D01*
X52884523Y-25646428D01*
X52884523Y-25836904D01*
X52836904Y-25932142D01*
X52789285Y-25979761D01*
X52694047Y-26027380D01*
X52503571Y-26027380D01*
X52408333Y-25979761D01*
X52360714Y-25932142D01*
X52313095Y-25836904D01*
X52313095Y-25646428D01*
X52360714Y-25551190D01*
X52408333Y-25503571D01*
X52503571Y-25455952D01*
X60915476Y-26027380D02*
X61486904Y-26027380D01*
X61201190Y-26027380D02*
X61201190Y-25027380D01*
X61296428Y-25170238D01*
X61391666Y-25265476D01*
X61486904Y-25313095D01*
X60010714Y-25027380D02*
X60486904Y-25027380D01*
X60534523Y-25503571D01*
X60486904Y-25455952D01*
X60391666Y-25408333D01*
X60153571Y-25408333D01*
X60058333Y-25455952D01*
X60010714Y-25503571D01*
X59963095Y-25598809D01*
X59963095Y-25836904D01*
X60010714Y-25932142D01*
X60058333Y-25979761D01*
X60153571Y-26027380D01*
X60391666Y-26027380D01*
X60486904Y-25979761D01*
X60534523Y-25932142D01*
X44092857Y-25052380D02*
X43759523Y-26052380D01*
X43426190Y-25052380D01*
X42759523Y-25528571D02*
X42616666Y-25576190D01*
X42569047Y-25623809D01*
X42521428Y-25719047D01*
X42521428Y-25861904D01*
X42569047Y-25957142D01*
X42616666Y-26004761D01*
X42711904Y-26052380D01*
X43092857Y-26052380D01*
X43092857Y-25052380D01*
X42759523Y-25052380D01*
X42664285Y-25100000D01*
X42616666Y-25147619D01*
X42569047Y-25242857D01*
X42569047Y-25338095D01*
X42616666Y-25433333D01*
X42664285Y-25480952D01*
X42759523Y-25528571D01*
X43092857Y-25528571D01*
X42140476Y-25766666D02*
X41664285Y-25766666D01*
X42235714Y-26052380D02*
X41902380Y-25052380D01*
X41569047Y-26052380D01*
X41378571Y-25052380D02*
X40807142Y-25052380D01*
X41092857Y-26052380D02*
X41092857Y-25052380D01*
X46238095Y-25503571D02*
X45904761Y-25503571D01*
X45761904Y-26027380D02*
X46238095Y-26027380D01*
X46238095Y-25027380D01*
X45761904Y-25027380D01*
X45333333Y-26027380D02*
X45333333Y-25027380D01*
X44761904Y-26027380D01*
X44761904Y-25027380D01*
D11*
X49233333Y-25191666D02*
X49000000Y-25891666D01*
X48766666Y-25191666D01*
X48533333Y-25191666D02*
X48533333Y-25758333D01*
X48500000Y-25825000D01*
X48466666Y-25858333D01*
X48400000Y-25891666D01*
X48266666Y-25891666D01*
X48200000Y-25858333D01*
X48166666Y-25825000D01*
X48133333Y-25758333D01*
X48133333Y-25191666D01*
X47833333Y-25858333D02*
X47733333Y-25891666D01*
X47566666Y-25891666D01*
X47500000Y-25858333D01*
X47466666Y-25825000D01*
X47433333Y-25758333D01*
X47433333Y-25691666D01*
X47466666Y-25625000D01*
X47500000Y-25591666D01*
X47566666Y-25558333D01*
X47700000Y-25525000D01*
X47766666Y-25491666D01*
X47800000Y-25458333D01*
X47833333Y-25391666D01*
X47833333Y-25325000D01*
X47800000Y-25258333D01*
X47766666Y-25225000D01*
X47700000Y-25191666D01*
X47533333Y-25191666D01*
X47433333Y-25225000D01*
X46900000Y-25525000D02*
X46800000Y-25558333D01*
X46766666Y-25591666D01*
X46733333Y-25658333D01*
X46733333Y-25758333D01*
X46766666Y-25825000D01*
X46800000Y-25858333D01*
X46866666Y-25891666D01*
X47133333Y-25891666D01*
X47133333Y-25191666D01*
X46900000Y-25191666D01*
X46833333Y-25225000D01*
X46800000Y-25258333D01*
X46766666Y-25325000D01*
X46766666Y-25391666D01*
X46800000Y-25458333D01*
X46833333Y-25491666D01*
X46900000Y-25525000D01*
X47133333Y-25525000D01*
D10*
X50765476Y-26027380D02*
X51336904Y-26027380D01*
X51051190Y-26027380D02*
X51051190Y-25027380D01*
X51146428Y-25170238D01*
X51241666Y-25265476D01*
X51336904Y-25313095D01*
X50289285Y-26027380D02*
X50098809Y-26027380D01*
X50003571Y-25979761D01*
X49955952Y-25932142D01*
X49860714Y-25789285D01*
X49813095Y-25598809D01*
X49813095Y-25217857D01*
X49860714Y-25122619D01*
X49908333Y-25075000D01*
X50003571Y-25027380D01*
X50194047Y-25027380D01*
X50289285Y-25075000D01*
X50336904Y-25122619D01*
X50384523Y-25217857D01*
X50384523Y-25455952D01*
X50336904Y-25551190D01*
X50289285Y-25598809D01*
X50194047Y-25646428D01*
X50003571Y-25646428D01*
X49908333Y-25598809D01*
X49860714Y-25551190D01*
X49813095Y-25455952D01*
X58340476Y-26027380D02*
X58911904Y-26027380D01*
X58626190Y-26027380D02*
X58626190Y-25027380D01*
X58721428Y-25170238D01*
X58816666Y-25265476D01*
X58911904Y-25313095D01*
X57483333Y-25027380D02*
X57673809Y-25027380D01*
X57769047Y-25075000D01*
X57816666Y-25122619D01*
X57911904Y-25265476D01*
X57959523Y-25455952D01*
X57959523Y-25836904D01*
X57911904Y-25932142D01*
X57864285Y-25979761D01*
X57769047Y-26027380D01*
X57578571Y-26027380D01*
X57483333Y-25979761D01*
X57435714Y-25932142D01*
X57388095Y-25836904D01*
X57388095Y-25598809D01*
X57435714Y-25503571D01*
X57483333Y-25455952D01*
X57578571Y-25408333D01*
X57769047Y-25408333D01*
X57864285Y-25455952D01*
X57911904Y-25503571D01*
X57959523Y-25598809D01*
X52809523Y-42085714D02*
X52809523Y-42752380D01*
X53047619Y-41704761D02*
X53285714Y-42419047D01*
X52666666Y-42419047D01*
X40710194Y-40882698D02*
X40743866Y-40781683D01*
X40844881Y-40680668D01*
X40979568Y-40613324D01*
X41114255Y-40613324D01*
X41215270Y-40646996D01*
X41383629Y-40748011D01*
X41484644Y-40849026D01*
X41585660Y-41017385D01*
X41619331Y-41118400D01*
X41619331Y-41253087D01*
X41551988Y-41387774D01*
X41484644Y-41455118D01*
X41349957Y-41522461D01*
X41282614Y-41522461D01*
X41046912Y-41286759D01*
X41181599Y-41152072D01*
X41046912Y-41892851D02*
X40339805Y-41185744D01*
X40642851Y-42296912D01*
X39935744Y-41589805D01*
X40306133Y-42633629D02*
X39599026Y-41926522D01*
X39430668Y-42094881D01*
X39363324Y-42229568D01*
X39363324Y-42364255D01*
X39396996Y-42465270D01*
X39498011Y-42633629D01*
X39599026Y-42734644D01*
X39767385Y-42835660D01*
X39868400Y-42869331D01*
X40003087Y-42869331D01*
X40137774Y-42801988D01*
X40306133Y-42633629D01*
X35913240Y-40587309D02*
X35475507Y-41025042D01*
X35980583Y-41058713D01*
X35879568Y-41159729D01*
X35845896Y-41260744D01*
X35845896Y-41328087D01*
X35879568Y-41429103D01*
X36047927Y-41597461D01*
X36148942Y-41631133D01*
X36216286Y-41631133D01*
X36317301Y-41597461D01*
X36519331Y-41395431D01*
X36553003Y-41294416D01*
X36553003Y-41227072D01*
X35273477Y-41227072D02*
X35744881Y-42169881D01*
X34802072Y-41698477D01*
X34633713Y-41866835D02*
X34195981Y-42304568D01*
X34701057Y-42338240D01*
X34600042Y-42439255D01*
X34566370Y-42540270D01*
X34566370Y-42607614D01*
X34600042Y-42708629D01*
X34768400Y-42876988D01*
X34869416Y-42910660D01*
X34936759Y-42910660D01*
X35037774Y-42876988D01*
X35239805Y-42674957D01*
X35273477Y-42573942D01*
X35273477Y-42506599D01*
X55161904Y-41752380D02*
X55638095Y-41752380D01*
X55685714Y-42228571D01*
X55638095Y-42180952D01*
X55542857Y-42133333D01*
X55304761Y-42133333D01*
X55209523Y-42180952D01*
X55161904Y-42228571D01*
X55114285Y-42323809D01*
X55114285Y-42561904D01*
X55161904Y-42657142D01*
X55209523Y-42704761D01*
X55304761Y-42752380D01*
X55542857Y-42752380D01*
X55638095Y-42704761D01*
X55685714Y-42657142D01*
X71060194Y-40907698D02*
X71093866Y-40806683D01*
X71194881Y-40705668D01*
X71329568Y-40638324D01*
X71464255Y-40638324D01*
X71565270Y-40671996D01*
X71733629Y-40773011D01*
X71834644Y-40874026D01*
X71935660Y-41042385D01*
X71969331Y-41143400D01*
X71969331Y-41278087D01*
X71901988Y-41412774D01*
X71834644Y-41480118D01*
X71699957Y-41547461D01*
X71632614Y-41547461D01*
X71396912Y-41311759D01*
X71531599Y-41177072D01*
X71396912Y-41917851D02*
X70689805Y-41210744D01*
X70992851Y-42321912D01*
X70285744Y-41614805D01*
X70656133Y-42658629D02*
X69949026Y-41951522D01*
X69780668Y-42119881D01*
X69713324Y-42254568D01*
X69713324Y-42389255D01*
X69746996Y-42490270D01*
X69848011Y-42658629D01*
X69949026Y-42759644D01*
X70117385Y-42860660D01*
X70218400Y-42894331D01*
X70353087Y-42894331D01*
X70487774Y-42826988D01*
X70656133Y-42658629D01*
X50733333Y-41752380D02*
X50114285Y-41752380D01*
X50447619Y-42133333D01*
X50304761Y-42133333D01*
X50209523Y-42180952D01*
X50161904Y-42228571D01*
X50114285Y-42323809D01*
X50114285Y-42561904D01*
X50161904Y-42657142D01*
X50209523Y-42704761D01*
X50304761Y-42752380D01*
X50590476Y-42752380D01*
X50685714Y-42704761D01*
X50733333Y-42657142D01*
X60833333Y-41752380D02*
X60166666Y-41752380D01*
X60595238Y-42752380D01*
X38750465Y-41689297D02*
X38043358Y-40982190D01*
X38346404Y-42093358D01*
X37639297Y-41386251D01*
X37538282Y-42766793D02*
X37605625Y-42766793D01*
X37740312Y-42699450D01*
X37807656Y-42632106D01*
X37875000Y-42497419D01*
X37875000Y-42362732D01*
X37841328Y-42261717D01*
X37740312Y-42093358D01*
X37639297Y-41992343D01*
X37470938Y-41891328D01*
X37369923Y-41857656D01*
X37235236Y-41857656D01*
X37100549Y-41925000D01*
X37033206Y-41992343D01*
X36965862Y-42127030D01*
X36965862Y-42194374D01*
X65890476Y-42752380D02*
X65700000Y-42752380D01*
X65604761Y-42704761D01*
X65557142Y-42657142D01*
X65461904Y-42514285D01*
X65414285Y-42323809D01*
X65414285Y-41942857D01*
X65461904Y-41847619D01*
X65509523Y-41800000D01*
X65604761Y-41752380D01*
X65795238Y-41752380D01*
X65890476Y-41800000D01*
X65938095Y-41847619D01*
X65985714Y-41942857D01*
X65985714Y-42180952D01*
X65938095Y-42276190D01*
X65890476Y-42323809D01*
X65795238Y-42371428D01*
X65604761Y-42371428D01*
X65509523Y-42323809D01*
X65461904Y-42276190D01*
X65414285Y-42180952D01*
X68490476Y-42752380D02*
X69061904Y-42752380D01*
X68776190Y-42752380D02*
X68776190Y-41752380D01*
X68871428Y-41895238D01*
X68966666Y-41990476D01*
X69061904Y-42038095D01*
X67871428Y-41752380D02*
X67776190Y-41752380D01*
X67680952Y-41800000D01*
X67633333Y-41847619D01*
X67585714Y-41942857D01*
X67538095Y-42133333D01*
X67538095Y-42371428D01*
X67585714Y-42561904D01*
X67633333Y-42657142D01*
X67680952Y-42704761D01*
X67776190Y-42752380D01*
X67871428Y-42752380D01*
X67966666Y-42704761D01*
X68014285Y-42657142D01*
X68061904Y-42561904D01*
X68109523Y-42371428D01*
X68109523Y-42133333D01*
X68061904Y-41942857D01*
X68014285Y-41847619D01*
X67966666Y-41800000D01*
X67871428Y-41752380D01*
X45114285Y-42752380D02*
X45685714Y-42752380D01*
X45400000Y-42752380D02*
X45400000Y-41752380D01*
X45495238Y-41895238D01*
X45590476Y-41990476D01*
X45685714Y-42038095D01*
X33659644Y-40437309D02*
X34131049Y-40908713D01*
X33726988Y-40504652D02*
X33659644Y-40504652D01*
X33558629Y-40538324D01*
X33457614Y-40639339D01*
X33423942Y-40740355D01*
X33457614Y-40841370D01*
X33828003Y-41211759D01*
X33087225Y-41952538D02*
X32986209Y-41380118D01*
X33491286Y-41548477D02*
X32784179Y-40841370D01*
X32514805Y-41110744D01*
X32481133Y-41211759D01*
X32481133Y-41279103D01*
X32514805Y-41380118D01*
X32615820Y-41481133D01*
X32716835Y-41514805D01*
X32784179Y-41514805D01*
X32885194Y-41481133D01*
X33154568Y-41211759D01*
X32784179Y-42188240D02*
X32716835Y-42322927D01*
X32548477Y-42491286D01*
X32447461Y-42524957D01*
X32380118Y-42524957D01*
X32279103Y-42491286D01*
X32211759Y-42423942D01*
X32178087Y-42322927D01*
X32178087Y-42255583D01*
X32211759Y-42154568D01*
X32312774Y-41986209D01*
X32346446Y-41885194D01*
X32346446Y-41817851D01*
X32312774Y-41716835D01*
X32245431Y-41649492D01*
X32144416Y-41615820D01*
X32077072Y-41615820D01*
X31976057Y-41649492D01*
X31807698Y-41817851D01*
X31740355Y-41952538D01*
X31504652Y-42120896D02*
X31100591Y-42524957D01*
X32009729Y-43030034D02*
X31302622Y-42322927D01*
X57909523Y-41746825D02*
X58100000Y-41746825D01*
X58195238Y-41794445D01*
X58242857Y-41842064D01*
X58338095Y-41984921D01*
X58385714Y-42175397D01*
X58385714Y-42556349D01*
X58338095Y-42651587D01*
X58290476Y-42699206D01*
X58195238Y-42746825D01*
X58004761Y-42746825D01*
X57909523Y-42699206D01*
X57861904Y-42651587D01*
X57814285Y-42556349D01*
X57814285Y-42318254D01*
X57861904Y-42223016D01*
X57909523Y-42175397D01*
X58004761Y-42127778D01*
X58195238Y-42127778D01*
X58290476Y-42175397D01*
X58338095Y-42223016D01*
X58385714Y-42318254D01*
X48185714Y-41847619D02*
X48138095Y-41800000D01*
X48042857Y-41752380D01*
X47804761Y-41752380D01*
X47709523Y-41800000D01*
X47661904Y-41847619D01*
X47614285Y-41942857D01*
X47614285Y-42038095D01*
X47661904Y-42180952D01*
X48233333Y-42752380D01*
X47614285Y-42752380D01*
X63295238Y-42180952D02*
X63390476Y-42133333D01*
X63438095Y-42085714D01*
X63485714Y-41990476D01*
X63485714Y-41942857D01*
X63438095Y-41847619D01*
X63390476Y-41800000D01*
X63295238Y-41752380D01*
X63104761Y-41752380D01*
X63009523Y-41800000D01*
X62961904Y-41847619D01*
X62914285Y-41942857D01*
X62914285Y-41990476D01*
X62961904Y-42085714D01*
X63009523Y-42133333D01*
X63104761Y-42180952D01*
X63295238Y-42180952D01*
X63390476Y-42228571D01*
X63438095Y-42276190D01*
X63485714Y-42371428D01*
X63485714Y-42561904D01*
X63438095Y-42657142D01*
X63390476Y-42704761D01*
X63295238Y-42752380D01*
X63104761Y-42752380D01*
X63009523Y-42704761D01*
X62961904Y-42657142D01*
X62914285Y-42561904D01*
X62914285Y-42371428D01*
X62961904Y-42276190D01*
X63009523Y-42228571D01*
X63104761Y-42180952D01*
X42872619Y-41752380D02*
X42777380Y-41752380D01*
X42682142Y-41800000D01*
X42634523Y-41847619D01*
X42586904Y-41942857D01*
X42539285Y-42133333D01*
X42539285Y-42371428D01*
X42586904Y-42561904D01*
X42634523Y-42657142D01*
X42682142Y-42704761D01*
X42777380Y-42752380D01*
X42872619Y-42752380D01*
X42967857Y-42704761D01*
X43015476Y-42657142D01*
X43063095Y-42561904D01*
X43110714Y-42371428D01*
X43110714Y-42133333D01*
X43063095Y-41942857D01*
X43015476Y-41847619D01*
X42967857Y-41800000D01*
X42872619Y-41752380D01*
D12*
X70350000Y-58050000D02*
G75*
G03X70350000Y-58050000I-950000J0D01*
G01*
D13*
G36*
X42665488Y-60712303D02*
G01*
X42620797Y-60729400D01*
X42582598Y-60757249D01*
X42551610Y-60795399D01*
X42539927Y-60816380D01*
X42530030Y-60839051D01*
X42524710Y-60859692D01*
X42522763Y-60884133D01*
X42522681Y-60899950D01*
X42523095Y-60915919D01*
X42524426Y-60930667D01*
X42527242Y-60946131D01*
X42532112Y-60964244D01*
X42539606Y-60986941D01*
X42550293Y-61016157D01*
X42564742Y-61053827D01*
X42577796Y-61087275D01*
X42632505Y-61226975D01*
X42635131Y-61474625D01*
X42635873Y-61538909D01*
X42636649Y-61591825D01*
X42637525Y-61634702D01*
X42638566Y-61668873D01*
X42639836Y-61695669D01*
X42641403Y-61716419D01*
X42643329Y-61732456D01*
X42645682Y-61745110D01*
X42648526Y-61755713D01*
X42648995Y-61757194D01*
X42659367Y-61782570D01*
X42674816Y-61812333D01*
X42692945Y-61842512D01*
X42711355Y-61869136D01*
X42727650Y-61888233D01*
X42728735Y-61889266D01*
X42746645Y-61902602D01*
X42772374Y-61917744D01*
X42801671Y-61932557D01*
X42830281Y-61944908D01*
X42853952Y-61952662D01*
X42856000Y-61953128D01*
X42883615Y-61957545D01*
X42918057Y-61960964D01*
X42954128Y-61963056D01*
X42986630Y-61963490D01*
X43004875Y-61962593D01*
X43024225Y-61959993D01*
X43050215Y-61955522D01*
X43076313Y-61950336D01*
X43122350Y-61940483D01*
X43122350Y-61803289D01*
X43092188Y-61809298D01*
X43073546Y-61811813D01*
X43046137Y-61814024D01*
X43013894Y-61815666D01*
X42985825Y-61816416D01*
X42939103Y-61815760D01*
X42902598Y-61811853D01*
X42874106Y-61804079D01*
X42851421Y-61791823D01*
X42832338Y-61774470D01*
X42831312Y-61773313D01*
X42823366Y-61762959D01*
X42816790Y-61750831D01*
X42811459Y-61735702D01*
X42807249Y-61716342D01*
X42804033Y-61691523D01*
X42801686Y-61660016D01*
X42800085Y-61620593D01*
X42799104Y-61572026D01*
X42798618Y-61513085D01*
X42798500Y-61450775D01*
X42798500Y-61231115D01*
X42854063Y-61089345D01*
X42871593Y-61044448D01*
X42884987Y-61009430D01*
X42894796Y-60982367D01*
X42901576Y-60961336D01*
X42905879Y-60944413D01*
X42908258Y-60929674D01*
X42909267Y-60915196D01*
X42909394Y-60904503D01*
X42827746Y-60904503D01*
X42821686Y-60936112D01*
X42807560Y-60964453D01*
X42786697Y-60987806D01*
X42760427Y-61004453D01*
X42730080Y-61012675D01*
X42696986Y-61010751D01*
X42680799Y-61005829D01*
X42647826Y-60986930D01*
X42623702Y-60960391D01*
X42609302Y-60928401D01*
X42605499Y-60893148D01*
X42613167Y-60856820D01*
X42617373Y-60846995D01*
X42636757Y-60819789D01*
X42663164Y-60800990D01*
X42693995Y-60790715D01*
X42726653Y-60789080D01*
X42758540Y-60796202D01*
X42787059Y-60812196D01*
X42809613Y-60837180D01*
X42810347Y-60838357D01*
X42824410Y-60871345D01*
X42827746Y-60904503D01*
X42909394Y-60904503D01*
X42909459Y-60899055D01*
X42909453Y-60896775D01*
X42908441Y-60866666D01*
X42905080Y-60844603D01*
X42898517Y-60826019D01*
X42894891Y-60818701D01*
X42865657Y-60775692D01*
X42828514Y-60741410D01*
X42799520Y-60723926D01*
X42776517Y-60713934D01*
X42755339Y-60708550D01*
X42730087Y-60706540D01*
X42715950Y-60706406D01*
X42665488Y-60712303D01*
X42665488Y-60712303D01*
G37*
X42665488Y-60712303D02*
X42620797Y-60729400D01*
X42582598Y-60757249D01*
X42551610Y-60795399D01*
X42539927Y-60816380D01*
X42530030Y-60839051D01*
X42524710Y-60859692D01*
X42522763Y-60884133D01*
X42522681Y-60899950D01*
X42523095Y-60915919D01*
X42524426Y-60930667D01*
X42527242Y-60946131D01*
X42532112Y-60964244D01*
X42539606Y-60986941D01*
X42550293Y-61016157D01*
X42564742Y-61053827D01*
X42577796Y-61087275D01*
X42632505Y-61226975D01*
X42635131Y-61474625D01*
X42635873Y-61538909D01*
X42636649Y-61591825D01*
X42637525Y-61634702D01*
X42638566Y-61668873D01*
X42639836Y-61695669D01*
X42641403Y-61716419D01*
X42643329Y-61732456D01*
X42645682Y-61745110D01*
X42648526Y-61755713D01*
X42648995Y-61757194D01*
X42659367Y-61782570D01*
X42674816Y-61812333D01*
X42692945Y-61842512D01*
X42711355Y-61869136D01*
X42727650Y-61888233D01*
X42728735Y-61889266D01*
X42746645Y-61902602D01*
X42772374Y-61917744D01*
X42801671Y-61932557D01*
X42830281Y-61944908D01*
X42853952Y-61952662D01*
X42856000Y-61953128D01*
X42883615Y-61957545D01*
X42918057Y-61960964D01*
X42954128Y-61963056D01*
X42986630Y-61963490D01*
X43004875Y-61962593D01*
X43024225Y-61959993D01*
X43050215Y-61955522D01*
X43076313Y-61950336D01*
X43122350Y-61940483D01*
X43122350Y-61803289D01*
X43092188Y-61809298D01*
X43073546Y-61811813D01*
X43046137Y-61814024D01*
X43013894Y-61815666D01*
X42985825Y-61816416D01*
X42939103Y-61815760D01*
X42902598Y-61811853D01*
X42874106Y-61804079D01*
X42851421Y-61791823D01*
X42832338Y-61774470D01*
X42831312Y-61773313D01*
X42823366Y-61762959D01*
X42816790Y-61750831D01*
X42811459Y-61735702D01*
X42807249Y-61716342D01*
X42804033Y-61691523D01*
X42801686Y-61660016D01*
X42800085Y-61620593D01*
X42799104Y-61572026D01*
X42798618Y-61513085D01*
X42798500Y-61450775D01*
X42798500Y-61231115D01*
X42854063Y-61089345D01*
X42871593Y-61044448D01*
X42884987Y-61009430D01*
X42894796Y-60982367D01*
X42901576Y-60961336D01*
X42905879Y-60944413D01*
X42908258Y-60929674D01*
X42909267Y-60915196D01*
X42909394Y-60904503D01*
X42827746Y-60904503D01*
X42821686Y-60936112D01*
X42807560Y-60964453D01*
X42786697Y-60987806D01*
X42760427Y-61004453D01*
X42730080Y-61012675D01*
X42696986Y-61010751D01*
X42680799Y-61005829D01*
X42647826Y-60986930D01*
X42623702Y-60960391D01*
X42609302Y-60928401D01*
X42605499Y-60893148D01*
X42613167Y-60856820D01*
X42617373Y-60846995D01*
X42636757Y-60819789D01*
X42663164Y-60800990D01*
X42693995Y-60790715D01*
X42726653Y-60789080D01*
X42758540Y-60796202D01*
X42787059Y-60812196D01*
X42809613Y-60837180D01*
X42810347Y-60838357D01*
X42824410Y-60871345D01*
X42827746Y-60904503D01*
X42909394Y-60904503D01*
X42909459Y-60899055D01*
X42909453Y-60896775D01*
X42908441Y-60866666D01*
X42905080Y-60844603D01*
X42898517Y-60826019D01*
X42894891Y-60818701D01*
X42865657Y-60775692D01*
X42828514Y-60741410D01*
X42799520Y-60723926D01*
X42776517Y-60713934D01*
X42755339Y-60708550D01*
X42730087Y-60706540D01*
X42715950Y-60706406D01*
X42665488Y-60712303D01*
G36*
X45807103Y-60690293D02*
G01*
X45792760Y-60695991D01*
X45756894Y-60717575D01*
X45724022Y-60747874D01*
X45698290Y-60782955D01*
X45695284Y-60788422D01*
X45686587Y-60806875D01*
X45681502Y-60824148D01*
X45679146Y-60844807D01*
X45678638Y-60873416D01*
X45678642Y-60874550D01*
X45678872Y-60892041D01*
X45679767Y-60907205D01*
X45681889Y-60922008D01*
X45685803Y-60938418D01*
X45692070Y-60958403D01*
X45701256Y-60983929D01*
X45713921Y-61016963D01*
X45730631Y-61059474D01*
X45734088Y-61068225D01*
X45789296Y-61207925D01*
X45789433Y-61436525D01*
X45789614Y-61503669D01*
X45790095Y-61559312D01*
X45790917Y-61604646D01*
X45792119Y-61640868D01*
X45793741Y-61669173D01*
X45795824Y-61690754D01*
X45798407Y-61706807D01*
X45798513Y-61707314D01*
X45816869Y-61766385D01*
X45844976Y-61817779D01*
X45882263Y-61860854D01*
X45928158Y-61894967D01*
X45982090Y-61919478D01*
X45989755Y-61921955D01*
X46015947Y-61928040D01*
X46049823Y-61933137D01*
X46086996Y-61936862D01*
X46123081Y-61938833D01*
X46153689Y-61938667D01*
X46167175Y-61937444D01*
X46182967Y-61934735D01*
X46206183Y-61930259D01*
X46231845Y-61924977D01*
X46232263Y-61924888D01*
X46278300Y-61915083D01*
X46278300Y-61780831D01*
X46244963Y-61785017D01*
X46177587Y-61791830D01*
X46121082Y-61793777D01*
X46074511Y-61790667D01*
X46036936Y-61782309D01*
X46007420Y-61768511D01*
X45985026Y-61749082D01*
X45971547Y-61729242D01*
X45968035Y-61722305D01*
X45965156Y-61715034D01*
X45962834Y-61706133D01*
X45960996Y-61694307D01*
X45959567Y-61678259D01*
X45958470Y-61656694D01*
X45957633Y-61628316D01*
X45956980Y-61591829D01*
X45956436Y-61545939D01*
X45955926Y-61489349D01*
X45955637Y-61453646D01*
X45953648Y-61204067D01*
X46004878Y-61071975D01*
X46025034Y-61019456D01*
X46040693Y-60976973D01*
X46052238Y-60942841D01*
X46060057Y-60915370D01*
X46064532Y-60892876D01*
X46066050Y-60873669D01*
X46064995Y-60856064D01*
X46064634Y-60854092D01*
X45979907Y-60854092D01*
X45979889Y-60885914D01*
X45972118Y-60917411D01*
X45957608Y-60945173D01*
X45937377Y-60965789D01*
X45927680Y-60971377D01*
X45899433Y-60982978D01*
X45877116Y-60987950D01*
X45856083Y-60986695D01*
X45831793Y-60979650D01*
X45802855Y-60965348D01*
X45782165Y-60944599D01*
X45769543Y-60922175D01*
X45759403Y-60886440D01*
X45760839Y-60851572D01*
X45772792Y-60819699D01*
X45794200Y-60792952D01*
X45824003Y-60773463D01*
X45847429Y-60765684D01*
X45881735Y-60764117D01*
X45915296Y-60773546D01*
X45945031Y-60792487D01*
X45967856Y-60819451D01*
X45971157Y-60825357D01*
X45979907Y-60854092D01*
X46064634Y-60854092D01*
X46061752Y-60838374D01*
X46059907Y-60830812D01*
X46042211Y-60784678D01*
X46015596Y-60745827D01*
X45981730Y-60715103D01*
X45942280Y-60693345D01*
X45898914Y-60681397D01*
X45853299Y-60680099D01*
X45807103Y-60690293D01*
X45807103Y-60690293D01*
G37*
X45807103Y-60690293D02*
X45792760Y-60695991D01*
X45756894Y-60717575D01*
X45724022Y-60747874D01*
X45698290Y-60782955D01*
X45695284Y-60788422D01*
X45686587Y-60806875D01*
X45681502Y-60824148D01*
X45679146Y-60844807D01*
X45678638Y-60873416D01*
X45678642Y-60874550D01*
X45678872Y-60892041D01*
X45679767Y-60907205D01*
X45681889Y-60922008D01*
X45685803Y-60938418D01*
X45692070Y-60958403D01*
X45701256Y-60983929D01*
X45713921Y-61016963D01*
X45730631Y-61059474D01*
X45734088Y-61068225D01*
X45789296Y-61207925D01*
X45789433Y-61436525D01*
X45789614Y-61503669D01*
X45790095Y-61559312D01*
X45790917Y-61604646D01*
X45792119Y-61640868D01*
X45793741Y-61669173D01*
X45795824Y-61690754D01*
X45798407Y-61706807D01*
X45798513Y-61707314D01*
X45816869Y-61766385D01*
X45844976Y-61817779D01*
X45882263Y-61860854D01*
X45928158Y-61894967D01*
X45982090Y-61919478D01*
X45989755Y-61921955D01*
X46015947Y-61928040D01*
X46049823Y-61933137D01*
X46086996Y-61936862D01*
X46123081Y-61938833D01*
X46153689Y-61938667D01*
X46167175Y-61937444D01*
X46182967Y-61934735D01*
X46206183Y-61930259D01*
X46231845Y-61924977D01*
X46232263Y-61924888D01*
X46278300Y-61915083D01*
X46278300Y-61780831D01*
X46244963Y-61785017D01*
X46177587Y-61791830D01*
X46121082Y-61793777D01*
X46074511Y-61790667D01*
X46036936Y-61782309D01*
X46007420Y-61768511D01*
X45985026Y-61749082D01*
X45971547Y-61729242D01*
X45968035Y-61722305D01*
X45965156Y-61715034D01*
X45962834Y-61706133D01*
X45960996Y-61694307D01*
X45959567Y-61678259D01*
X45958470Y-61656694D01*
X45957633Y-61628316D01*
X45956980Y-61591829D01*
X45956436Y-61545939D01*
X45955926Y-61489349D01*
X45955637Y-61453646D01*
X45953648Y-61204067D01*
X46004878Y-61071975D01*
X46025034Y-61019456D01*
X46040693Y-60976973D01*
X46052238Y-60942841D01*
X46060057Y-60915370D01*
X46064532Y-60892876D01*
X46066050Y-60873669D01*
X46064995Y-60856064D01*
X46064634Y-60854092D01*
X45979907Y-60854092D01*
X45979889Y-60885914D01*
X45972118Y-60917411D01*
X45957608Y-60945173D01*
X45937377Y-60965789D01*
X45927680Y-60971377D01*
X45899433Y-60982978D01*
X45877116Y-60987950D01*
X45856083Y-60986695D01*
X45831793Y-60979650D01*
X45802855Y-60965348D01*
X45782165Y-60944599D01*
X45769543Y-60922175D01*
X45759403Y-60886440D01*
X45760839Y-60851572D01*
X45772792Y-60819699D01*
X45794200Y-60792952D01*
X45824003Y-60773463D01*
X45847429Y-60765684D01*
X45881735Y-60764117D01*
X45915296Y-60773546D01*
X45945031Y-60792487D01*
X45967856Y-60819451D01*
X45971157Y-60825357D01*
X45979907Y-60854092D01*
X46064634Y-60854092D01*
X46061752Y-60838374D01*
X46059907Y-60830812D01*
X46042211Y-60784678D01*
X46015596Y-60745827D01*
X45981730Y-60715103D01*
X45942280Y-60693345D01*
X45898914Y-60681397D01*
X45853299Y-60680099D01*
X45807103Y-60690293D01*
G36*
X45280566Y-61069483D02*
G01*
X45262336Y-61071906D01*
X45218043Y-61080229D01*
X45182371Y-61091423D01*
X45151275Y-61107446D01*
X45120708Y-61130253D01*
X45096711Y-61152018D01*
X45048463Y-61206329D01*
X45011162Y-61266743D01*
X44984644Y-61333612D01*
X44968748Y-61407290D01*
X44965510Y-61436525D01*
X44962790Y-61516336D01*
X44969152Y-61589425D01*
X44985051Y-61658390D01*
X45010940Y-61725829D01*
X45019146Y-61742994D01*
X45053475Y-61801250D01*
X45093407Y-61849544D01*
X45138217Y-61887259D01*
X45187176Y-61913780D01*
X45237572Y-61928164D01*
X45271826Y-61933557D01*
X45297721Y-61936463D01*
X45319312Y-61937084D01*
X45340654Y-61935620D01*
X45354128Y-61933949D01*
X45413194Y-61921302D01*
X45464666Y-61900104D01*
X45509593Y-61869526D01*
X45549026Y-61828742D01*
X45584014Y-61776926D01*
X45605324Y-61735979D01*
X45622655Y-61697273D01*
X45635269Y-61663024D01*
X45643862Y-61629799D01*
X45649131Y-61594161D01*
X45651770Y-61552676D01*
X45652477Y-61503200D01*
X45652393Y-61497384D01*
X45515533Y-61497384D01*
X45514821Y-61528600D01*
X45513476Y-61565938D01*
X45511757Y-61593795D01*
X45509146Y-61615387D01*
X45505126Y-61633931D01*
X45499180Y-61652644D01*
X45491696Y-61672438D01*
X45470373Y-61718476D01*
X45445762Y-61757262D01*
X45419406Y-61786515D01*
X45409099Y-61794766D01*
X45374510Y-61812292D01*
X45333834Y-61821551D01*
X45290867Y-61822256D01*
X45249404Y-61814115D01*
X45233725Y-61808155D01*
X45200407Y-61786636D01*
X45170254Y-61753418D01*
X45143918Y-61709251D01*
X45139567Y-61700050D01*
X45124338Y-61664018D01*
X45113554Y-61631023D01*
X45106529Y-61597449D01*
X45102572Y-61559677D01*
X45100995Y-61514092D01*
X45100881Y-61496850D01*
X45101639Y-61448149D01*
X45104580Y-61408660D01*
X45110405Y-61374983D01*
X45119819Y-61343715D01*
X45133523Y-61311456D01*
X45143245Y-61291862D01*
X45169600Y-61248839D01*
X45199092Y-61217460D01*
X45233258Y-61196770D01*
X45273638Y-61185814D01*
X45317798Y-61183514D01*
X45362819Y-61190249D01*
X45402351Y-61208170D01*
X45436590Y-61237436D01*
X45465735Y-61278204D01*
X45484373Y-61316431D01*
X45497333Y-61350410D01*
X45506470Y-61382297D01*
X45512244Y-61415290D01*
X45515111Y-61452586D01*
X45515533Y-61497384D01*
X45652393Y-61497384D01*
X45651743Y-61452622D01*
X45649073Y-61411301D01*
X45643763Y-61375853D01*
X45635112Y-61342894D01*
X45622416Y-61309042D01*
X45604972Y-61270912D01*
X45603679Y-61268250D01*
X45585907Y-61233665D01*
X45569513Y-61206892D01*
X45551628Y-61183774D01*
X45529378Y-61160155D01*
X45528191Y-61158976D01*
X45492123Y-61126585D01*
X45457353Y-61103445D01*
X45419672Y-61087365D01*
X45374868Y-61076155D01*
X45365908Y-61074517D01*
X45333102Y-61069583D01*
X45306620Y-61067955D01*
X45280566Y-61069483D01*
X45280566Y-61069483D01*
G37*
X45280566Y-61069483D02*
X45262336Y-61071906D01*
X45218043Y-61080229D01*
X45182371Y-61091423D01*
X45151275Y-61107446D01*
X45120708Y-61130253D01*
X45096711Y-61152018D01*
X45048463Y-61206329D01*
X45011162Y-61266743D01*
X44984644Y-61333612D01*
X44968748Y-61407290D01*
X44965510Y-61436525D01*
X44962790Y-61516336D01*
X44969152Y-61589425D01*
X44985051Y-61658390D01*
X45010940Y-61725829D01*
X45019146Y-61742994D01*
X45053475Y-61801250D01*
X45093407Y-61849544D01*
X45138217Y-61887259D01*
X45187176Y-61913780D01*
X45237572Y-61928164D01*
X45271826Y-61933557D01*
X45297721Y-61936463D01*
X45319312Y-61937084D01*
X45340654Y-61935620D01*
X45354128Y-61933949D01*
X45413194Y-61921302D01*
X45464666Y-61900104D01*
X45509593Y-61869526D01*
X45549026Y-61828742D01*
X45584014Y-61776926D01*
X45605324Y-61735979D01*
X45622655Y-61697273D01*
X45635269Y-61663024D01*
X45643862Y-61629799D01*
X45649131Y-61594161D01*
X45651770Y-61552676D01*
X45652477Y-61503200D01*
X45652393Y-61497384D01*
X45515533Y-61497384D01*
X45514821Y-61528600D01*
X45513476Y-61565938D01*
X45511757Y-61593795D01*
X45509146Y-61615387D01*
X45505126Y-61633931D01*
X45499180Y-61652644D01*
X45491696Y-61672438D01*
X45470373Y-61718476D01*
X45445762Y-61757262D01*
X45419406Y-61786515D01*
X45409099Y-61794766D01*
X45374510Y-61812292D01*
X45333834Y-61821551D01*
X45290867Y-61822256D01*
X45249404Y-61814115D01*
X45233725Y-61808155D01*
X45200407Y-61786636D01*
X45170254Y-61753418D01*
X45143918Y-61709251D01*
X45139567Y-61700050D01*
X45124338Y-61664018D01*
X45113554Y-61631023D01*
X45106529Y-61597449D01*
X45102572Y-61559677D01*
X45100995Y-61514092D01*
X45100881Y-61496850D01*
X45101639Y-61448149D01*
X45104580Y-61408660D01*
X45110405Y-61374983D01*
X45119819Y-61343715D01*
X45133523Y-61311456D01*
X45143245Y-61291862D01*
X45169600Y-61248839D01*
X45199092Y-61217460D01*
X45233258Y-61196770D01*
X45273638Y-61185814D01*
X45317798Y-61183514D01*
X45362819Y-61190249D01*
X45402351Y-61208170D01*
X45436590Y-61237436D01*
X45465735Y-61278204D01*
X45484373Y-61316431D01*
X45497333Y-61350410D01*
X45506470Y-61382297D01*
X45512244Y-61415290D01*
X45515111Y-61452586D01*
X45515533Y-61497384D01*
X45652393Y-61497384D01*
X45651743Y-61452622D01*
X45649073Y-61411301D01*
X45643763Y-61375853D01*
X45635112Y-61342894D01*
X45622416Y-61309042D01*
X45604972Y-61270912D01*
X45603679Y-61268250D01*
X45585907Y-61233665D01*
X45569513Y-61206892D01*
X45551628Y-61183774D01*
X45529378Y-61160155D01*
X45528191Y-61158976D01*
X45492123Y-61126585D01*
X45457353Y-61103445D01*
X45419672Y-61087365D01*
X45374868Y-61076155D01*
X45365908Y-61074517D01*
X45333102Y-61069583D01*
X45306620Y-61067955D01*
X45280566Y-61069483D01*
G36*
X44548047Y-61071856D02*
G01*
X44530303Y-61074503D01*
X44477349Y-61085763D01*
X44434623Y-61099913D01*
X44399747Y-61118301D01*
X44370341Y-61142277D01*
X44344029Y-61173187D01*
X44335904Y-61184719D01*
X44322350Y-61205807D01*
X44308553Y-61229076D01*
X44295942Y-61251860D01*
X44285947Y-61271491D01*
X44279999Y-61285301D01*
X44279211Y-61290489D01*
X44285810Y-61292883D01*
X44301900Y-61297743D01*
X44324703Y-61304247D01*
X44339954Y-61308460D01*
X44398683Y-61324506D01*
X44402618Y-61307490D01*
X44417762Y-61268878D01*
X44443160Y-61236250D01*
X44477405Y-61210562D01*
X44519089Y-61192770D01*
X44566803Y-61183829D01*
X44586025Y-61182954D01*
X44633397Y-61186785D01*
X44673339Y-61198736D01*
X44704867Y-61218206D01*
X44726998Y-61244596D01*
X44738509Y-61275988D01*
X44738417Y-61307622D01*
X44727684Y-61339813D01*
X44712292Y-61363213D01*
X44703903Y-61371732D01*
X44693097Y-61379298D01*
X44678196Y-61386522D01*
X44657523Y-61394017D01*
X44629399Y-61402393D01*
X44592147Y-61412263D01*
X44546404Y-61423670D01*
X44480527Y-61440962D01*
X44426042Y-61458160D01*
X44381683Y-61476202D01*
X44346184Y-61496028D01*
X44318280Y-61518575D01*
X44296705Y-61544782D01*
X44280192Y-61575589D01*
X44267476Y-61611934D01*
X44261577Y-61634905D01*
X44255118Y-61688585D01*
X44260771Y-61739774D01*
X44278044Y-61787512D01*
X44306440Y-61830837D01*
X44345465Y-61868787D01*
X44394625Y-61900401D01*
X44399404Y-61902840D01*
X44421788Y-61913531D01*
X44441511Y-61921291D01*
X44461848Y-61926895D01*
X44486075Y-61931119D01*
X44517467Y-61934739D01*
X44544750Y-61937267D01*
X44561659Y-61937186D01*
X44586277Y-61935195D01*
X44613827Y-61931706D01*
X44619253Y-61930867D01*
X44680149Y-61918455D01*
X44730472Y-61902054D01*
X44771931Y-61880897D01*
X44806239Y-61854218D01*
X44818627Y-61841513D01*
X44836409Y-61819090D01*
X44856653Y-61789357D01*
X44876690Y-61756624D01*
X44893847Y-61725196D01*
X44903154Y-61705226D01*
X44912875Y-61681827D01*
X44863750Y-61671349D01*
X44839272Y-61666239D01*
X44818981Y-61662205D01*
X44806613Y-61659985D01*
X44805417Y-61659823D01*
X44797860Y-61664637D01*
X44786634Y-61678820D01*
X44773410Y-61700219D01*
X44771799Y-61703115D01*
X44750052Y-61739286D01*
X44728814Y-61765673D01*
X44704953Y-61784661D01*
X44675339Y-61798634D01*
X44636841Y-61809976D01*
X44629023Y-61811853D01*
X44578233Y-61819647D01*
X44530282Y-61819130D01*
X44486957Y-61810762D01*
X44450046Y-61795002D01*
X44421338Y-61772312D01*
X44408517Y-61755095D01*
X44396054Y-61724842D01*
X44391300Y-61692323D01*
X44394258Y-61661362D01*
X44404928Y-61635783D01*
X44408494Y-61631039D01*
X44420849Y-61617908D01*
X44434978Y-61606693D01*
X44452692Y-61596621D01*
X44475797Y-61586923D01*
X44506103Y-61576828D01*
X44545418Y-61565566D01*
X44589411Y-61553945D01*
X44629553Y-61543241D01*
X44667805Y-61532410D01*
X44701562Y-61522238D01*
X44728215Y-61513512D01*
X44745158Y-61507016D01*
X44745235Y-61506981D01*
X44788004Y-61480731D01*
X44822771Y-61445668D01*
X44848687Y-61403472D01*
X44864901Y-61355827D01*
X44870561Y-61304413D01*
X44867509Y-61265269D01*
X44859768Y-61229500D01*
X44847763Y-61200477D01*
X44828989Y-61173162D01*
X44812268Y-61154256D01*
X44771587Y-61119979D01*
X44722846Y-61094040D01*
X44668024Y-61077001D01*
X44609098Y-61069419D01*
X44548047Y-61071856D01*
X44548047Y-61071856D01*
G37*
X44548047Y-61071856D02*
X44530303Y-61074503D01*
X44477349Y-61085763D01*
X44434623Y-61099913D01*
X44399747Y-61118301D01*
X44370341Y-61142277D01*
X44344029Y-61173187D01*
X44335904Y-61184719D01*
X44322350Y-61205807D01*
X44308553Y-61229076D01*
X44295942Y-61251860D01*
X44285947Y-61271491D01*
X44279999Y-61285301D01*
X44279211Y-61290489D01*
X44285810Y-61292883D01*
X44301900Y-61297743D01*
X44324703Y-61304247D01*
X44339954Y-61308460D01*
X44398683Y-61324506D01*
X44402618Y-61307490D01*
X44417762Y-61268878D01*
X44443160Y-61236250D01*
X44477405Y-61210562D01*
X44519089Y-61192770D01*
X44566803Y-61183829D01*
X44586025Y-61182954D01*
X44633397Y-61186785D01*
X44673339Y-61198736D01*
X44704867Y-61218206D01*
X44726998Y-61244596D01*
X44738509Y-61275988D01*
X44738417Y-61307622D01*
X44727684Y-61339813D01*
X44712292Y-61363213D01*
X44703903Y-61371732D01*
X44693097Y-61379298D01*
X44678196Y-61386522D01*
X44657523Y-61394017D01*
X44629399Y-61402393D01*
X44592147Y-61412263D01*
X44546404Y-61423670D01*
X44480527Y-61440962D01*
X44426042Y-61458160D01*
X44381683Y-61476202D01*
X44346184Y-61496028D01*
X44318280Y-61518575D01*
X44296705Y-61544782D01*
X44280192Y-61575589D01*
X44267476Y-61611934D01*
X44261577Y-61634905D01*
X44255118Y-61688585D01*
X44260771Y-61739774D01*
X44278044Y-61787512D01*
X44306440Y-61830837D01*
X44345465Y-61868787D01*
X44394625Y-61900401D01*
X44399404Y-61902840D01*
X44421788Y-61913531D01*
X44441511Y-61921291D01*
X44461848Y-61926895D01*
X44486075Y-61931119D01*
X44517467Y-61934739D01*
X44544750Y-61937267D01*
X44561659Y-61937186D01*
X44586277Y-61935195D01*
X44613827Y-61931706D01*
X44619253Y-61930867D01*
X44680149Y-61918455D01*
X44730472Y-61902054D01*
X44771931Y-61880897D01*
X44806239Y-61854218D01*
X44818627Y-61841513D01*
X44836409Y-61819090D01*
X44856653Y-61789357D01*
X44876690Y-61756624D01*
X44893847Y-61725196D01*
X44903154Y-61705226D01*
X44912875Y-61681827D01*
X44863750Y-61671349D01*
X44839272Y-61666239D01*
X44818981Y-61662205D01*
X44806613Y-61659985D01*
X44805417Y-61659823D01*
X44797860Y-61664637D01*
X44786634Y-61678820D01*
X44773410Y-61700219D01*
X44771799Y-61703115D01*
X44750052Y-61739286D01*
X44728814Y-61765673D01*
X44704953Y-61784661D01*
X44675339Y-61798634D01*
X44636841Y-61809976D01*
X44629023Y-61811853D01*
X44578233Y-61819647D01*
X44530282Y-61819130D01*
X44486957Y-61810762D01*
X44450046Y-61795002D01*
X44421338Y-61772312D01*
X44408517Y-61755095D01*
X44396054Y-61724842D01*
X44391300Y-61692323D01*
X44394258Y-61661362D01*
X44404928Y-61635783D01*
X44408494Y-61631039D01*
X44420849Y-61617908D01*
X44434978Y-61606693D01*
X44452692Y-61596621D01*
X44475797Y-61586923D01*
X44506103Y-61576828D01*
X44545418Y-61565566D01*
X44589411Y-61553945D01*
X44629553Y-61543241D01*
X44667805Y-61532410D01*
X44701562Y-61522238D01*
X44728215Y-61513512D01*
X44745158Y-61507016D01*
X44745235Y-61506981D01*
X44788004Y-61480731D01*
X44822771Y-61445668D01*
X44848687Y-61403472D01*
X44864901Y-61355827D01*
X44870561Y-61304413D01*
X44867509Y-61265269D01*
X44859768Y-61229500D01*
X44847763Y-61200477D01*
X44828989Y-61173162D01*
X44812268Y-61154256D01*
X44771587Y-61119979D01*
X44722846Y-61094040D01*
X44668024Y-61077001D01*
X44609098Y-61069419D01*
X44548047Y-61071856D01*
G36*
X42103004Y-61076524D02*
G01*
X42050323Y-61088203D01*
X42003505Y-61107615D01*
X42003400Y-61107673D01*
X41976647Y-61126075D01*
X41946905Y-61152785D01*
X41916941Y-61184792D01*
X41889524Y-61219083D01*
X41867423Y-61252649D01*
X41863372Y-61259971D01*
X41842699Y-61303735D01*
X41828004Y-61347136D01*
X41818557Y-61393522D01*
X41813627Y-61446245D01*
X41812450Y-61493675D01*
X41813551Y-61550306D01*
X41817713Y-61598024D01*
X41825670Y-61640401D01*
X41838158Y-61681009D01*
X41855912Y-61723421D01*
X41862652Y-61737599D01*
X41882687Y-61775384D01*
X41903595Y-61806513D01*
X41929316Y-61836656D01*
X41937390Y-61845146D01*
X41972444Y-61878278D01*
X42005634Y-61902092D01*
X42040670Y-61918681D01*
X42081260Y-61930141D01*
X42091665Y-61932251D01*
X42126477Y-61938020D01*
X42155735Y-61940248D01*
X42184857Y-61938929D01*
X42219261Y-61934056D01*
X42230369Y-61932092D01*
X42269909Y-61922529D01*
X42303916Y-61908300D01*
X42336184Y-61887345D01*
X42370507Y-61857605D01*
X42374328Y-61853944D01*
X42397588Y-61829850D01*
X42416399Y-61805870D01*
X42433811Y-61777706D01*
X42449164Y-61748520D01*
X42469805Y-61703666D01*
X42484557Y-61661721D01*
X42494214Y-61619002D01*
X42499573Y-61571822D01*
X42501431Y-61516497D01*
X42501456Y-61506375D01*
X42363363Y-61506375D01*
X42362636Y-61554972D01*
X42359983Y-61594231D01*
X42354699Y-61627453D01*
X42346081Y-61657940D01*
X42333423Y-61688995D01*
X42317549Y-61721011D01*
X42288991Y-61764396D01*
X42254910Y-61796483D01*
X42215785Y-61817061D01*
X42172094Y-61825919D01*
X42124316Y-61822848D01*
X42099566Y-61816927D01*
X42063114Y-61799737D01*
X42030300Y-61771114D01*
X42001747Y-61731959D01*
X41978076Y-61683177D01*
X41959911Y-61625671D01*
X41956005Y-61608644D01*
X41951170Y-61575424D01*
X41948679Y-61535024D01*
X41948409Y-61490874D01*
X41950239Y-61446408D01*
X41954047Y-61405056D01*
X41959710Y-61370251D01*
X41965195Y-61350246D01*
X41986583Y-61299035D01*
X42010331Y-61258834D01*
X42037596Y-61228013D01*
X42067263Y-61206253D01*
X42083206Y-61197707D01*
X42098024Y-61192515D01*
X42115752Y-61189872D01*
X42140421Y-61188972D01*
X42153975Y-61188920D01*
X42184693Y-61189580D01*
X42206609Y-61191930D01*
X42223576Y-61196611D01*
X42236525Y-61202651D01*
X42272983Y-61228919D01*
X42303462Y-61265518D01*
X42321726Y-61297892D01*
X42337381Y-61332149D01*
X42348646Y-61362554D01*
X42356199Y-61392494D01*
X42360717Y-61425361D01*
X42362876Y-61464544D01*
X42363363Y-61506375D01*
X42501456Y-61506375D01*
X42499796Y-61447756D01*
X42494421Y-61397793D01*
X42484545Y-61352786D01*
X42469380Y-61309032D01*
X42450849Y-61268250D01*
X42421412Y-61218170D01*
X42385579Y-61172360D01*
X42345898Y-61133706D01*
X42308684Y-61107234D01*
X42264389Y-61087934D01*
X42213221Y-61076385D01*
X42158365Y-61072584D01*
X42103004Y-61076524D01*
X42103004Y-61076524D01*
G37*
X42103004Y-61076524D02*
X42050323Y-61088203D01*
X42003505Y-61107615D01*
X42003400Y-61107673D01*
X41976647Y-61126075D01*
X41946905Y-61152785D01*
X41916941Y-61184792D01*
X41889524Y-61219083D01*
X41867423Y-61252649D01*
X41863372Y-61259971D01*
X41842699Y-61303735D01*
X41828004Y-61347136D01*
X41818557Y-61393522D01*
X41813627Y-61446245D01*
X41812450Y-61493675D01*
X41813551Y-61550306D01*
X41817713Y-61598024D01*
X41825670Y-61640401D01*
X41838158Y-61681009D01*
X41855912Y-61723421D01*
X41862652Y-61737599D01*
X41882687Y-61775384D01*
X41903595Y-61806513D01*
X41929316Y-61836656D01*
X41937390Y-61845146D01*
X41972444Y-61878278D01*
X42005634Y-61902092D01*
X42040670Y-61918681D01*
X42081260Y-61930141D01*
X42091665Y-61932251D01*
X42126477Y-61938020D01*
X42155735Y-61940248D01*
X42184857Y-61938929D01*
X42219261Y-61934056D01*
X42230369Y-61932092D01*
X42269909Y-61922529D01*
X42303916Y-61908300D01*
X42336184Y-61887345D01*
X42370507Y-61857605D01*
X42374328Y-61853944D01*
X42397588Y-61829850D01*
X42416399Y-61805870D01*
X42433811Y-61777706D01*
X42449164Y-61748520D01*
X42469805Y-61703666D01*
X42484557Y-61661721D01*
X42494214Y-61619002D01*
X42499573Y-61571822D01*
X42501431Y-61516497D01*
X42501456Y-61506375D01*
X42363363Y-61506375D01*
X42362636Y-61554972D01*
X42359983Y-61594231D01*
X42354699Y-61627453D01*
X42346081Y-61657940D01*
X42333423Y-61688995D01*
X42317549Y-61721011D01*
X42288991Y-61764396D01*
X42254910Y-61796483D01*
X42215785Y-61817061D01*
X42172094Y-61825919D01*
X42124316Y-61822848D01*
X42099566Y-61816927D01*
X42063114Y-61799737D01*
X42030300Y-61771114D01*
X42001747Y-61731959D01*
X41978076Y-61683177D01*
X41959911Y-61625671D01*
X41956005Y-61608644D01*
X41951170Y-61575424D01*
X41948679Y-61535024D01*
X41948409Y-61490874D01*
X41950239Y-61446408D01*
X41954047Y-61405056D01*
X41959710Y-61370251D01*
X41965195Y-61350246D01*
X41986583Y-61299035D01*
X42010331Y-61258834D01*
X42037596Y-61228013D01*
X42067263Y-61206253D01*
X42083206Y-61197707D01*
X42098024Y-61192515D01*
X42115752Y-61189872D01*
X42140421Y-61188972D01*
X42153975Y-61188920D01*
X42184693Y-61189580D01*
X42206609Y-61191930D01*
X42223576Y-61196611D01*
X42236525Y-61202651D01*
X42272983Y-61228919D01*
X42303462Y-61265518D01*
X42321726Y-61297892D01*
X42337381Y-61332149D01*
X42348646Y-61362554D01*
X42356199Y-61392494D01*
X42360717Y-61425361D01*
X42362876Y-61464544D01*
X42363363Y-61506375D01*
X42501456Y-61506375D01*
X42499796Y-61447756D01*
X42494421Y-61397793D01*
X42484545Y-61352786D01*
X42469380Y-61309032D01*
X42450849Y-61268250D01*
X42421412Y-61218170D01*
X42385579Y-61172360D01*
X42345898Y-61133706D01*
X42308684Y-61107234D01*
X42264389Y-61087934D01*
X42213221Y-61076385D01*
X42158365Y-61072584D01*
X42103004Y-61076524D01*
G36*
X39799213Y-61073608D02*
G01*
X39740445Y-61081667D01*
X39687132Y-61097091D01*
X39641218Y-61119309D01*
X39604646Y-61147749D01*
X39603051Y-61149372D01*
X39588504Y-61166554D01*
X39571864Y-61189520D01*
X39554939Y-61215330D01*
X39539538Y-61241049D01*
X39527470Y-61263736D01*
X39520544Y-61280455D01*
X39519612Y-61284891D01*
X39522482Y-61291110D01*
X39533336Y-61297455D01*
X39553886Y-61304743D01*
X39572700Y-61310219D01*
X39597246Y-61316933D01*
X39616882Y-61322115D01*
X39628592Y-61324979D01*
X39630433Y-61325301D01*
X39634375Y-61319898D01*
X39639812Y-61306211D01*
X39641919Y-61299605D01*
X39657052Y-61268716D01*
X39682287Y-61239434D01*
X39715064Y-61214404D01*
X39734625Y-61203763D01*
X39775315Y-61189963D01*
X39818501Y-61184792D01*
X39861388Y-61187848D01*
X39901183Y-61198731D01*
X39935092Y-61217040D01*
X39954952Y-61235372D01*
X39971827Y-61264510D01*
X39976623Y-61296519D01*
X39969120Y-61329729D01*
X39967749Y-61332910D01*
X39959680Y-61349386D01*
X39950816Y-61362860D01*
X39939581Y-61374107D01*
X39924399Y-61383906D01*
X39903694Y-61393033D01*
X39875888Y-61402264D01*
X39839406Y-61412378D01*
X39792670Y-61424149D01*
X39772725Y-61429017D01*
X39707726Y-61446219D01*
X39654236Y-61463673D01*
X39611070Y-61482007D01*
X39577044Y-61501848D01*
X39550971Y-61523822D01*
X39531668Y-61548555D01*
X39525325Y-61559858D01*
X39502845Y-61616150D01*
X39492555Y-61671169D01*
X39494137Y-61723926D01*
X39507273Y-61773431D01*
X39531644Y-61818697D01*
X39566933Y-61858732D01*
X39612822Y-61892549D01*
X39636342Y-61905228D01*
X39692221Y-61927068D01*
X39749720Y-61938328D01*
X39811077Y-61939267D01*
X39868863Y-61931975D01*
X39922476Y-61920194D01*
X39966140Y-61905572D01*
X40002514Y-61886814D01*
X40034257Y-61862619D01*
X40056341Y-61840437D01*
X40072923Y-61820159D01*
X40090199Y-61795763D01*
X40106966Y-61769415D01*
X40122022Y-61743281D01*
X40134164Y-61719528D01*
X40142188Y-61700322D01*
X40144892Y-61687829D01*
X40143060Y-61684268D01*
X40130083Y-61680479D01*
X40109974Y-61675515D01*
X40086901Y-61670296D01*
X40065034Y-61665740D01*
X40048540Y-61662767D01*
X40042600Y-61662119D01*
X40034958Y-61667312D01*
X40024043Y-61680951D01*
X40012205Y-61700095D01*
X40012095Y-61700294D01*
X39988264Y-61739499D01*
X39964294Y-61768451D01*
X39937242Y-61789284D01*
X39904166Y-61804132D01*
X39862124Y-61815129D01*
X39850665Y-61817378D01*
X39794109Y-61823388D01*
X39743613Y-61819267D01*
X39699876Y-61805153D01*
X39663601Y-61781185D01*
X39662585Y-61780269D01*
X39642022Y-61754809D01*
X39630887Y-61723429D01*
X39628160Y-61693531D01*
X39629971Y-61667467D01*
X39636734Y-61645517D01*
X39649640Y-61626820D01*
X39669881Y-61610516D01*
X39698646Y-61595744D01*
X39737127Y-61581643D01*
X39786515Y-61567355D01*
X39811886Y-61560817D01*
X39866826Y-61546680D01*
X39911084Y-61534313D01*
X39946428Y-61522985D01*
X39974627Y-61511965D01*
X39997450Y-61500522D01*
X40016665Y-61487925D01*
X40034041Y-61473443D01*
X40042256Y-61465599D01*
X40073771Y-61428218D01*
X40094092Y-61388336D01*
X40104329Y-61343252D01*
X40106100Y-61310112D01*
X40101534Y-61257161D01*
X40087399Y-61211502D01*
X40063041Y-61172135D01*
X40027804Y-61138060D01*
X39981034Y-61108277D01*
X39970377Y-61102816D01*
X39942319Y-61089652D01*
X39919590Y-61081449D01*
X39896589Y-61076701D01*
X39867717Y-61073897D01*
X39861491Y-61073484D01*
X39799213Y-61073608D01*
X39799213Y-61073608D01*
G37*
X39799213Y-61073608D02*
X39740445Y-61081667D01*
X39687132Y-61097091D01*
X39641218Y-61119309D01*
X39604646Y-61147749D01*
X39603051Y-61149372D01*
X39588504Y-61166554D01*
X39571864Y-61189520D01*
X39554939Y-61215330D01*
X39539538Y-61241049D01*
X39527470Y-61263736D01*
X39520544Y-61280455D01*
X39519612Y-61284891D01*
X39522482Y-61291110D01*
X39533336Y-61297455D01*
X39553886Y-61304743D01*
X39572700Y-61310219D01*
X39597246Y-61316933D01*
X39616882Y-61322115D01*
X39628592Y-61324979D01*
X39630433Y-61325301D01*
X39634375Y-61319898D01*
X39639812Y-61306211D01*
X39641919Y-61299605D01*
X39657052Y-61268716D01*
X39682287Y-61239434D01*
X39715064Y-61214404D01*
X39734625Y-61203763D01*
X39775315Y-61189963D01*
X39818501Y-61184792D01*
X39861388Y-61187848D01*
X39901183Y-61198731D01*
X39935092Y-61217040D01*
X39954952Y-61235372D01*
X39971827Y-61264510D01*
X39976623Y-61296519D01*
X39969120Y-61329729D01*
X39967749Y-61332910D01*
X39959680Y-61349386D01*
X39950816Y-61362860D01*
X39939581Y-61374107D01*
X39924399Y-61383906D01*
X39903694Y-61393033D01*
X39875888Y-61402264D01*
X39839406Y-61412378D01*
X39792670Y-61424149D01*
X39772725Y-61429017D01*
X39707726Y-61446219D01*
X39654236Y-61463673D01*
X39611070Y-61482007D01*
X39577044Y-61501848D01*
X39550971Y-61523822D01*
X39531668Y-61548555D01*
X39525325Y-61559858D01*
X39502845Y-61616150D01*
X39492555Y-61671169D01*
X39494137Y-61723926D01*
X39507273Y-61773431D01*
X39531644Y-61818697D01*
X39566933Y-61858732D01*
X39612822Y-61892549D01*
X39636342Y-61905228D01*
X39692221Y-61927068D01*
X39749720Y-61938328D01*
X39811077Y-61939267D01*
X39868863Y-61931975D01*
X39922476Y-61920194D01*
X39966140Y-61905572D01*
X40002514Y-61886814D01*
X40034257Y-61862619D01*
X40056341Y-61840437D01*
X40072923Y-61820159D01*
X40090199Y-61795763D01*
X40106966Y-61769415D01*
X40122022Y-61743281D01*
X40134164Y-61719528D01*
X40142188Y-61700322D01*
X40144892Y-61687829D01*
X40143060Y-61684268D01*
X40130083Y-61680479D01*
X40109974Y-61675515D01*
X40086901Y-61670296D01*
X40065034Y-61665740D01*
X40048540Y-61662767D01*
X40042600Y-61662119D01*
X40034958Y-61667312D01*
X40024043Y-61680951D01*
X40012205Y-61700095D01*
X40012095Y-61700294D01*
X39988264Y-61739499D01*
X39964294Y-61768451D01*
X39937242Y-61789284D01*
X39904166Y-61804132D01*
X39862124Y-61815129D01*
X39850665Y-61817378D01*
X39794109Y-61823388D01*
X39743613Y-61819267D01*
X39699876Y-61805153D01*
X39663601Y-61781185D01*
X39662585Y-61780269D01*
X39642022Y-61754809D01*
X39630887Y-61723429D01*
X39628160Y-61693531D01*
X39629971Y-61667467D01*
X39636734Y-61645517D01*
X39649640Y-61626820D01*
X39669881Y-61610516D01*
X39698646Y-61595744D01*
X39737127Y-61581643D01*
X39786515Y-61567355D01*
X39811886Y-61560817D01*
X39866826Y-61546680D01*
X39911084Y-61534313D01*
X39946428Y-61522985D01*
X39974627Y-61511965D01*
X39997450Y-61500522D01*
X40016665Y-61487925D01*
X40034041Y-61473443D01*
X40042256Y-61465599D01*
X40073771Y-61428218D01*
X40094092Y-61388336D01*
X40104329Y-61343252D01*
X40106100Y-61310112D01*
X40101534Y-61257161D01*
X40087399Y-61211502D01*
X40063041Y-61172135D01*
X40027804Y-61138060D01*
X39981034Y-61108277D01*
X39970377Y-61102816D01*
X39942319Y-61089652D01*
X39919590Y-61081449D01*
X39896589Y-61076701D01*
X39867717Y-61073897D01*
X39861491Y-61073484D01*
X39799213Y-61073608D01*
G36*
X39023277Y-61073627D02*
G01*
X38988003Y-61079468D01*
X38952850Y-61088027D01*
X38921884Y-61098301D01*
X38899170Y-61109285D01*
X38897635Y-61110297D01*
X38859821Y-61140721D01*
X38822414Y-61178991D01*
X38789338Y-61220751D01*
X38768994Y-61253083D01*
X38747156Y-61297197D01*
X38731487Y-61339871D01*
X38721192Y-61384552D01*
X38715478Y-61434684D01*
X38713550Y-61493675D01*
X38714517Y-61550011D01*
X38718494Y-61597370D01*
X38726227Y-61639272D01*
X38738459Y-61679234D01*
X38755936Y-61720777D01*
X38766009Y-61741522D01*
X38798100Y-61796269D01*
X38835184Y-61843471D01*
X38875719Y-61881457D01*
X38918166Y-61908557D01*
X38921825Y-61910311D01*
X38961702Y-61925101D01*
X39005989Y-61935272D01*
X39050118Y-61940129D01*
X39089517Y-61938976D01*
X39099625Y-61937375D01*
X39140609Y-61928933D01*
X39171974Y-61921103D01*
X39196643Y-61912505D01*
X39217542Y-61901757D01*
X39237594Y-61887477D01*
X39259722Y-61868284D01*
X39273985Y-61854994D01*
X39296658Y-61832338D01*
X39314404Y-61810904D01*
X39330188Y-61786560D01*
X39346975Y-61755172D01*
X39350171Y-61748780D01*
X39371779Y-61700458D01*
X39386986Y-61653992D01*
X39396607Y-61605597D01*
X39401460Y-61551492D01*
X39402460Y-61506375D01*
X39264466Y-61506375D01*
X39263828Y-61554843D01*
X39261255Y-61593980D01*
X39256041Y-61627093D01*
X39247481Y-61657491D01*
X39234872Y-61688482D01*
X39218749Y-61721011D01*
X39190191Y-61764396D01*
X39156110Y-61796483D01*
X39116985Y-61817061D01*
X39073294Y-61825919D01*
X39025516Y-61822848D01*
X39000766Y-61816927D01*
X38963097Y-61799312D01*
X38929792Y-61770085D01*
X38901279Y-61729709D01*
X38881554Y-61688051D01*
X38867539Y-61649077D01*
X38857975Y-61612955D01*
X38852153Y-61575532D01*
X38849365Y-61532656D01*
X38848837Y-61496428D01*
X38850284Y-61443247D01*
X38855131Y-61398859D01*
X38864044Y-61359654D01*
X38877687Y-61322022D01*
X38883252Y-61309525D01*
X38903475Y-61270801D01*
X38924544Y-61241684D01*
X38948928Y-61219184D01*
X38968532Y-61206212D01*
X38984451Y-61197684D01*
X38999271Y-61192504D01*
X39017021Y-61189868D01*
X39041733Y-61188971D01*
X39055175Y-61188920D01*
X39085893Y-61189580D01*
X39107809Y-61191930D01*
X39124776Y-61196611D01*
X39137725Y-61202651D01*
X39172802Y-61227865D01*
X39202692Y-61263311D01*
X39222251Y-61297156D01*
X39238053Y-61330990D01*
X39249457Y-61361608D01*
X39257131Y-61392325D01*
X39261744Y-61426452D01*
X39263964Y-61467301D01*
X39264466Y-61506375D01*
X39402460Y-61506375D01*
X39400375Y-61443491D01*
X39393417Y-61388840D01*
X39380779Y-61338624D01*
X39361654Y-61289043D01*
X39351864Y-61268250D01*
X39322436Y-61217985D01*
X39286526Y-61172052D01*
X39246677Y-61133333D01*
X39209884Y-61107234D01*
X39177527Y-61092765D01*
X39137120Y-61081302D01*
X39093159Y-61073880D01*
X39054604Y-61071510D01*
X39023277Y-61073627D01*
X39023277Y-61073627D01*
G37*
X39023277Y-61073627D02*
X38988003Y-61079468D01*
X38952850Y-61088027D01*
X38921884Y-61098301D01*
X38899170Y-61109285D01*
X38897635Y-61110297D01*
X38859821Y-61140721D01*
X38822414Y-61178991D01*
X38789338Y-61220751D01*
X38768994Y-61253083D01*
X38747156Y-61297197D01*
X38731487Y-61339871D01*
X38721192Y-61384552D01*
X38715478Y-61434684D01*
X38713550Y-61493675D01*
X38714517Y-61550011D01*
X38718494Y-61597370D01*
X38726227Y-61639272D01*
X38738459Y-61679234D01*
X38755936Y-61720777D01*
X38766009Y-61741522D01*
X38798100Y-61796269D01*
X38835184Y-61843471D01*
X38875719Y-61881457D01*
X38918166Y-61908557D01*
X38921825Y-61910311D01*
X38961702Y-61925101D01*
X39005989Y-61935272D01*
X39050118Y-61940129D01*
X39089517Y-61938976D01*
X39099625Y-61937375D01*
X39140609Y-61928933D01*
X39171974Y-61921103D01*
X39196643Y-61912505D01*
X39217542Y-61901757D01*
X39237594Y-61887477D01*
X39259722Y-61868284D01*
X39273985Y-61854994D01*
X39296658Y-61832338D01*
X39314404Y-61810904D01*
X39330188Y-61786560D01*
X39346975Y-61755172D01*
X39350171Y-61748780D01*
X39371779Y-61700458D01*
X39386986Y-61653992D01*
X39396607Y-61605597D01*
X39401460Y-61551492D01*
X39402460Y-61506375D01*
X39264466Y-61506375D01*
X39263828Y-61554843D01*
X39261255Y-61593980D01*
X39256041Y-61627093D01*
X39247481Y-61657491D01*
X39234872Y-61688482D01*
X39218749Y-61721011D01*
X39190191Y-61764396D01*
X39156110Y-61796483D01*
X39116985Y-61817061D01*
X39073294Y-61825919D01*
X39025516Y-61822848D01*
X39000766Y-61816927D01*
X38963097Y-61799312D01*
X38929792Y-61770085D01*
X38901279Y-61729709D01*
X38881554Y-61688051D01*
X38867539Y-61649077D01*
X38857975Y-61612955D01*
X38852153Y-61575532D01*
X38849365Y-61532656D01*
X38848837Y-61496428D01*
X38850284Y-61443247D01*
X38855131Y-61398859D01*
X38864044Y-61359654D01*
X38877687Y-61322022D01*
X38883252Y-61309525D01*
X38903475Y-61270801D01*
X38924544Y-61241684D01*
X38948928Y-61219184D01*
X38968532Y-61206212D01*
X38984451Y-61197684D01*
X38999271Y-61192504D01*
X39017021Y-61189868D01*
X39041733Y-61188971D01*
X39055175Y-61188920D01*
X39085893Y-61189580D01*
X39107809Y-61191930D01*
X39124776Y-61196611D01*
X39137725Y-61202651D01*
X39172802Y-61227865D01*
X39202692Y-61263311D01*
X39222251Y-61297156D01*
X39238053Y-61330990D01*
X39249457Y-61361608D01*
X39257131Y-61392325D01*
X39261744Y-61426452D01*
X39263964Y-61467301D01*
X39264466Y-61506375D01*
X39402460Y-61506375D01*
X39400375Y-61443491D01*
X39393417Y-61388840D01*
X39380779Y-61338624D01*
X39361654Y-61289043D01*
X39351864Y-61268250D01*
X39322436Y-61217985D01*
X39286526Y-61172052D01*
X39246677Y-61133333D01*
X39209884Y-61107234D01*
X39177527Y-61092765D01*
X39137120Y-61081302D01*
X39093159Y-61073880D01*
X39054604Y-61071510D01*
X39023277Y-61073627D01*
G36*
X43985950Y-61420650D02*
G01*
X43643050Y-61420650D01*
X43643050Y-61084100D01*
X43509700Y-61084100D01*
X43509700Y-61922300D01*
X43643050Y-61922300D01*
X43643050Y-61534950D01*
X43985950Y-61534950D01*
X43985950Y-61922300D01*
X44119300Y-61922300D01*
X44119300Y-61084100D01*
X43985950Y-61084100D01*
X43985950Y-61420650D01*
X43985950Y-61420650D01*
G37*
X43985950Y-61420650D02*
X43643050Y-61420650D01*
X43643050Y-61084100D01*
X43509700Y-61084100D01*
X43509700Y-61922300D01*
X43643050Y-61922300D01*
X43643050Y-61534950D01*
X43985950Y-61534950D01*
X43985950Y-61922300D01*
X44119300Y-61922300D01*
X44119300Y-61084100D01*
X43985950Y-61084100D01*
X43985950Y-61420650D01*
G36*
X41064950Y-61922300D02*
G01*
X41198300Y-61922300D01*
X41198300Y-61541300D01*
X41541200Y-61541300D01*
X41541200Y-61922300D01*
X41668200Y-61922300D01*
X41668200Y-61084100D01*
X41541200Y-61084100D01*
X41541200Y-61420650D01*
X41198511Y-61420650D01*
X41196818Y-61253962D01*
X41195125Y-61087275D01*
X41130038Y-61085465D01*
X41064950Y-61083655D01*
X41064950Y-61922300D01*
X41064950Y-61922300D01*
G37*
X41064950Y-61922300D02*
X41198300Y-61922300D01*
X41198300Y-61541300D01*
X41541200Y-61541300D01*
X41541200Y-61922300D01*
X41668200Y-61922300D01*
X41668200Y-61084100D01*
X41541200Y-61084100D01*
X41541200Y-61420650D01*
X41198511Y-61420650D01*
X41196818Y-61253962D01*
X41195125Y-61087275D01*
X41130038Y-61085465D01*
X41064950Y-61083655D01*
X41064950Y-61922300D01*
G36*
X40304705Y-61085437D02*
G01*
X40248975Y-61087275D01*
X40245709Y-61922745D01*
X40309623Y-61920935D01*
X40373536Y-61919125D01*
X40564109Y-61582575D01*
X40598153Y-61522455D01*
X40630389Y-61465533D01*
X40660264Y-61412784D01*
X40687225Y-61365184D01*
X40710718Y-61323710D01*
X40730192Y-61289339D01*
X40745092Y-61263046D01*
X40754867Y-61245807D01*
X40758961Y-61238600D01*
X40759003Y-61238527D01*
X40759779Y-61243250D01*
X40760441Y-61259554D01*
X40760981Y-61286320D01*
X40761391Y-61322427D01*
X40761664Y-61366757D01*
X40761791Y-61418191D01*
X40761765Y-61475610D01*
X40761578Y-61537894D01*
X40761388Y-61576664D01*
X40759450Y-61922300D01*
X40874450Y-61922300D01*
X40874450Y-61084100D01*
X40724515Y-61084100D01*
X40583901Y-61333337D01*
X40552948Y-61388208D01*
X40522332Y-61442498D01*
X40492956Y-61494602D01*
X40465725Y-61542913D01*
X40441545Y-61585827D01*
X40421319Y-61621740D01*
X40405953Y-61649045D01*
X40400106Y-61659447D01*
X40356925Y-61736319D01*
X40358680Y-61409959D01*
X40360435Y-61083600D01*
X40304705Y-61085437D01*
X40304705Y-61085437D01*
G37*
X40304705Y-61085437D02*
X40248975Y-61087275D01*
X40245709Y-61922745D01*
X40309623Y-61920935D01*
X40373536Y-61919125D01*
X40564109Y-61582575D01*
X40598153Y-61522455D01*
X40630389Y-61465533D01*
X40660264Y-61412784D01*
X40687225Y-61365184D01*
X40710718Y-61323710D01*
X40730192Y-61289339D01*
X40745092Y-61263046D01*
X40754867Y-61245807D01*
X40758961Y-61238600D01*
X40759003Y-61238527D01*
X40759779Y-61243250D01*
X40760441Y-61259554D01*
X40760981Y-61286320D01*
X40761391Y-61322427D01*
X40761664Y-61366757D01*
X40761791Y-61418191D01*
X40761765Y-61475610D01*
X40761578Y-61537894D01*
X40761388Y-61576664D01*
X40759450Y-61922300D01*
X40874450Y-61922300D01*
X40874450Y-61084100D01*
X40724515Y-61084100D01*
X40583901Y-61333337D01*
X40552948Y-61388208D01*
X40522332Y-61442498D01*
X40492956Y-61494602D01*
X40465725Y-61542913D01*
X40441545Y-61585827D01*
X40421319Y-61621740D01*
X40405953Y-61649045D01*
X40400106Y-61659447D01*
X40356925Y-61736319D01*
X40358680Y-61409959D01*
X40360435Y-61083600D01*
X40304705Y-61085437D01*
G36*
X38494788Y-61085485D02*
G01*
X38420175Y-61087275D01*
X38237613Y-61410848D01*
X38055050Y-61734421D01*
X38055050Y-61084100D01*
X37947100Y-61084100D01*
X37947100Y-61922300D01*
X38009013Y-61922025D01*
X38070925Y-61921751D01*
X38458275Y-61234105D01*
X38459918Y-61578202D01*
X38461560Y-61922300D01*
X38569400Y-61922300D01*
X38569400Y-61083696D01*
X38494788Y-61085485D01*
X38494788Y-61085485D01*
G37*
X38494788Y-61085485D02*
X38420175Y-61087275D01*
X38237613Y-61410848D01*
X38055050Y-61734421D01*
X38055050Y-61084100D01*
X37947100Y-61084100D01*
X37947100Y-61922300D01*
X38009013Y-61922025D01*
X38070925Y-61921751D01*
X38458275Y-61234105D01*
X38459918Y-61578202D01*
X38461560Y-61922300D01*
X38569400Y-61922300D01*
X38569400Y-61083696D01*
X38494788Y-61085485D01*
D12*
X72900000Y-58050000D02*
G75*
G03X72900000Y-58050000I-950000J0D01*
G01*
X72900000Y-60600000D02*
G75*
G03X72900000Y-60600000I-950000J0D01*
G01*
X70350000Y-60600000D02*
G75*
G03X70350000Y-60600000I-950000J0D01*
G01*
D13*
G36*
X38494788Y-35585485D02*
G01*
X38420175Y-35587275D01*
X38237613Y-35910848D01*
X38055050Y-36234421D01*
X38055050Y-35584100D01*
X37947100Y-35584100D01*
X37947100Y-36422300D01*
X38009013Y-36422025D01*
X38070925Y-36421751D01*
X38458275Y-35734105D01*
X38459918Y-36078202D01*
X38461560Y-36422300D01*
X38569400Y-36422300D01*
X38569400Y-35583696D01*
X38494788Y-35585485D01*
X38494788Y-35585485D01*
G37*
X38494788Y-35585485D02*
X38420175Y-35587275D01*
X38237613Y-35910848D01*
X38055050Y-36234421D01*
X38055050Y-35584100D01*
X37947100Y-35584100D01*
X37947100Y-36422300D01*
X38009013Y-36422025D01*
X38070925Y-36421751D01*
X38458275Y-35734105D01*
X38459918Y-36078202D01*
X38461560Y-36422300D01*
X38569400Y-36422300D01*
X38569400Y-35583696D01*
X38494788Y-35585485D01*
G36*
X40304705Y-35585437D02*
G01*
X40248975Y-35587275D01*
X40245709Y-36422745D01*
X40309623Y-36420935D01*
X40373536Y-36419125D01*
X40564109Y-36082575D01*
X40598153Y-36022455D01*
X40630389Y-35965533D01*
X40660264Y-35912784D01*
X40687225Y-35865184D01*
X40710718Y-35823710D01*
X40730192Y-35789339D01*
X40745092Y-35763046D01*
X40754867Y-35745807D01*
X40758961Y-35738600D01*
X40759003Y-35738527D01*
X40759779Y-35743250D01*
X40760441Y-35759554D01*
X40760981Y-35786320D01*
X40761391Y-35822427D01*
X40761664Y-35866757D01*
X40761791Y-35918191D01*
X40761765Y-35975610D01*
X40761578Y-36037894D01*
X40761388Y-36076664D01*
X40759450Y-36422300D01*
X40874450Y-36422300D01*
X40874450Y-35584100D01*
X40724515Y-35584100D01*
X40583901Y-35833337D01*
X40552948Y-35888208D01*
X40522332Y-35942498D01*
X40492956Y-35994602D01*
X40465725Y-36042913D01*
X40441545Y-36085827D01*
X40421319Y-36121740D01*
X40405953Y-36149045D01*
X40400106Y-36159447D01*
X40356925Y-36236319D01*
X40358680Y-35909959D01*
X40360435Y-35583600D01*
X40304705Y-35585437D01*
X40304705Y-35585437D01*
G37*
X40304705Y-35585437D02*
X40248975Y-35587275D01*
X40245709Y-36422745D01*
X40309623Y-36420935D01*
X40373536Y-36419125D01*
X40564109Y-36082575D01*
X40598153Y-36022455D01*
X40630389Y-35965533D01*
X40660264Y-35912784D01*
X40687225Y-35865184D01*
X40710718Y-35823710D01*
X40730192Y-35789339D01*
X40745092Y-35763046D01*
X40754867Y-35745807D01*
X40758961Y-35738600D01*
X40759003Y-35738527D01*
X40759779Y-35743250D01*
X40760441Y-35759554D01*
X40760981Y-35786320D01*
X40761391Y-35822427D01*
X40761664Y-35866757D01*
X40761791Y-35918191D01*
X40761765Y-35975610D01*
X40761578Y-36037894D01*
X40761388Y-36076664D01*
X40759450Y-36422300D01*
X40874450Y-36422300D01*
X40874450Y-35584100D01*
X40724515Y-35584100D01*
X40583901Y-35833337D01*
X40552948Y-35888208D01*
X40522332Y-35942498D01*
X40492956Y-35994602D01*
X40465725Y-36042913D01*
X40441545Y-36085827D01*
X40421319Y-36121740D01*
X40405953Y-36149045D01*
X40400106Y-36159447D01*
X40356925Y-36236319D01*
X40358680Y-35909959D01*
X40360435Y-35583600D01*
X40304705Y-35585437D01*
G36*
X41064950Y-36422300D02*
G01*
X41198300Y-36422300D01*
X41198300Y-36041300D01*
X41541200Y-36041300D01*
X41541200Y-36422300D01*
X41668200Y-36422300D01*
X41668200Y-35584100D01*
X41541200Y-35584100D01*
X41541200Y-35920650D01*
X41198511Y-35920650D01*
X41196818Y-35753962D01*
X41195125Y-35587275D01*
X41130038Y-35585465D01*
X41064950Y-35583655D01*
X41064950Y-36422300D01*
X41064950Y-36422300D01*
G37*
X41064950Y-36422300D02*
X41198300Y-36422300D01*
X41198300Y-36041300D01*
X41541200Y-36041300D01*
X41541200Y-36422300D01*
X41668200Y-36422300D01*
X41668200Y-35584100D01*
X41541200Y-35584100D01*
X41541200Y-35920650D01*
X41198511Y-35920650D01*
X41196818Y-35753962D01*
X41195125Y-35587275D01*
X41130038Y-35585465D01*
X41064950Y-35583655D01*
X41064950Y-36422300D01*
G36*
X43985950Y-35920650D02*
G01*
X43643050Y-35920650D01*
X43643050Y-35584100D01*
X43509700Y-35584100D01*
X43509700Y-36422300D01*
X43643050Y-36422300D01*
X43643050Y-36034950D01*
X43985950Y-36034950D01*
X43985950Y-36422300D01*
X44119300Y-36422300D01*
X44119300Y-35584100D01*
X43985950Y-35584100D01*
X43985950Y-35920650D01*
X43985950Y-35920650D01*
G37*
X43985950Y-35920650D02*
X43643050Y-35920650D01*
X43643050Y-35584100D01*
X43509700Y-35584100D01*
X43509700Y-36422300D01*
X43643050Y-36422300D01*
X43643050Y-36034950D01*
X43985950Y-36034950D01*
X43985950Y-36422300D01*
X44119300Y-36422300D01*
X44119300Y-35584100D01*
X43985950Y-35584100D01*
X43985950Y-35920650D01*
G36*
X39023277Y-35573627D02*
G01*
X38988003Y-35579468D01*
X38952850Y-35588027D01*
X38921884Y-35598301D01*
X38899170Y-35609285D01*
X38897635Y-35610297D01*
X38859821Y-35640721D01*
X38822414Y-35678991D01*
X38789338Y-35720751D01*
X38768994Y-35753083D01*
X38747156Y-35797197D01*
X38731487Y-35839871D01*
X38721192Y-35884552D01*
X38715478Y-35934684D01*
X38713550Y-35993675D01*
X38714517Y-36050011D01*
X38718494Y-36097370D01*
X38726227Y-36139272D01*
X38738459Y-36179234D01*
X38755936Y-36220777D01*
X38766009Y-36241522D01*
X38798100Y-36296269D01*
X38835184Y-36343471D01*
X38875719Y-36381457D01*
X38918166Y-36408557D01*
X38921825Y-36410311D01*
X38961702Y-36425101D01*
X39005989Y-36435272D01*
X39050118Y-36440129D01*
X39089517Y-36438976D01*
X39099625Y-36437375D01*
X39140609Y-36428933D01*
X39171974Y-36421103D01*
X39196643Y-36412505D01*
X39217542Y-36401757D01*
X39237594Y-36387477D01*
X39259722Y-36368284D01*
X39273985Y-36354994D01*
X39296658Y-36332338D01*
X39314404Y-36310904D01*
X39330188Y-36286560D01*
X39346975Y-36255172D01*
X39350171Y-36248780D01*
X39371779Y-36200458D01*
X39386986Y-36153992D01*
X39396607Y-36105597D01*
X39401460Y-36051492D01*
X39402460Y-36006375D01*
X39264466Y-36006375D01*
X39263828Y-36054843D01*
X39261255Y-36093980D01*
X39256041Y-36127093D01*
X39247481Y-36157491D01*
X39234872Y-36188482D01*
X39218749Y-36221011D01*
X39190191Y-36264396D01*
X39156110Y-36296483D01*
X39116985Y-36317061D01*
X39073294Y-36325919D01*
X39025516Y-36322848D01*
X39000766Y-36316927D01*
X38963097Y-36299312D01*
X38929792Y-36270085D01*
X38901279Y-36229709D01*
X38881554Y-36188051D01*
X38867539Y-36149077D01*
X38857975Y-36112955D01*
X38852153Y-36075532D01*
X38849365Y-36032656D01*
X38848837Y-35996428D01*
X38850284Y-35943247D01*
X38855131Y-35898859D01*
X38864044Y-35859654D01*
X38877687Y-35822022D01*
X38883252Y-35809525D01*
X38903475Y-35770801D01*
X38924544Y-35741684D01*
X38948928Y-35719184D01*
X38968532Y-35706212D01*
X38984451Y-35697684D01*
X38999271Y-35692504D01*
X39017021Y-35689868D01*
X39041733Y-35688971D01*
X39055175Y-35688920D01*
X39085893Y-35689580D01*
X39107809Y-35691930D01*
X39124776Y-35696611D01*
X39137725Y-35702651D01*
X39172802Y-35727865D01*
X39202692Y-35763311D01*
X39222251Y-35797156D01*
X39238053Y-35830990D01*
X39249457Y-35861608D01*
X39257131Y-35892325D01*
X39261744Y-35926452D01*
X39263964Y-35967301D01*
X39264466Y-36006375D01*
X39402460Y-36006375D01*
X39400375Y-35943491D01*
X39393417Y-35888840D01*
X39380779Y-35838624D01*
X39361654Y-35789043D01*
X39351864Y-35768250D01*
X39322436Y-35717985D01*
X39286526Y-35672052D01*
X39246677Y-35633333D01*
X39209884Y-35607234D01*
X39177527Y-35592765D01*
X39137120Y-35581302D01*
X39093159Y-35573880D01*
X39054604Y-35571510D01*
X39023277Y-35573627D01*
X39023277Y-35573627D01*
G37*
X39023277Y-35573627D02*
X38988003Y-35579468D01*
X38952850Y-35588027D01*
X38921884Y-35598301D01*
X38899170Y-35609285D01*
X38897635Y-35610297D01*
X38859821Y-35640721D01*
X38822414Y-35678991D01*
X38789338Y-35720751D01*
X38768994Y-35753083D01*
X38747156Y-35797197D01*
X38731487Y-35839871D01*
X38721192Y-35884552D01*
X38715478Y-35934684D01*
X38713550Y-35993675D01*
X38714517Y-36050011D01*
X38718494Y-36097370D01*
X38726227Y-36139272D01*
X38738459Y-36179234D01*
X38755936Y-36220777D01*
X38766009Y-36241522D01*
X38798100Y-36296269D01*
X38835184Y-36343471D01*
X38875719Y-36381457D01*
X38918166Y-36408557D01*
X38921825Y-36410311D01*
X38961702Y-36425101D01*
X39005989Y-36435272D01*
X39050118Y-36440129D01*
X39089517Y-36438976D01*
X39099625Y-36437375D01*
X39140609Y-36428933D01*
X39171974Y-36421103D01*
X39196643Y-36412505D01*
X39217542Y-36401757D01*
X39237594Y-36387477D01*
X39259722Y-36368284D01*
X39273985Y-36354994D01*
X39296658Y-36332338D01*
X39314404Y-36310904D01*
X39330188Y-36286560D01*
X39346975Y-36255172D01*
X39350171Y-36248780D01*
X39371779Y-36200458D01*
X39386986Y-36153992D01*
X39396607Y-36105597D01*
X39401460Y-36051492D01*
X39402460Y-36006375D01*
X39264466Y-36006375D01*
X39263828Y-36054843D01*
X39261255Y-36093980D01*
X39256041Y-36127093D01*
X39247481Y-36157491D01*
X39234872Y-36188482D01*
X39218749Y-36221011D01*
X39190191Y-36264396D01*
X39156110Y-36296483D01*
X39116985Y-36317061D01*
X39073294Y-36325919D01*
X39025516Y-36322848D01*
X39000766Y-36316927D01*
X38963097Y-36299312D01*
X38929792Y-36270085D01*
X38901279Y-36229709D01*
X38881554Y-36188051D01*
X38867539Y-36149077D01*
X38857975Y-36112955D01*
X38852153Y-36075532D01*
X38849365Y-36032656D01*
X38848837Y-35996428D01*
X38850284Y-35943247D01*
X38855131Y-35898859D01*
X38864044Y-35859654D01*
X38877687Y-35822022D01*
X38883252Y-35809525D01*
X38903475Y-35770801D01*
X38924544Y-35741684D01*
X38948928Y-35719184D01*
X38968532Y-35706212D01*
X38984451Y-35697684D01*
X38999271Y-35692504D01*
X39017021Y-35689868D01*
X39041733Y-35688971D01*
X39055175Y-35688920D01*
X39085893Y-35689580D01*
X39107809Y-35691930D01*
X39124776Y-35696611D01*
X39137725Y-35702651D01*
X39172802Y-35727865D01*
X39202692Y-35763311D01*
X39222251Y-35797156D01*
X39238053Y-35830990D01*
X39249457Y-35861608D01*
X39257131Y-35892325D01*
X39261744Y-35926452D01*
X39263964Y-35967301D01*
X39264466Y-36006375D01*
X39402460Y-36006375D01*
X39400375Y-35943491D01*
X39393417Y-35888840D01*
X39380779Y-35838624D01*
X39361654Y-35789043D01*
X39351864Y-35768250D01*
X39322436Y-35717985D01*
X39286526Y-35672052D01*
X39246677Y-35633333D01*
X39209884Y-35607234D01*
X39177527Y-35592765D01*
X39137120Y-35581302D01*
X39093159Y-35573880D01*
X39054604Y-35571510D01*
X39023277Y-35573627D01*
G36*
X39799213Y-35573608D02*
G01*
X39740445Y-35581667D01*
X39687132Y-35597091D01*
X39641218Y-35619309D01*
X39604646Y-35647749D01*
X39603051Y-35649372D01*
X39588504Y-35666554D01*
X39571864Y-35689520D01*
X39554939Y-35715330D01*
X39539538Y-35741049D01*
X39527470Y-35763736D01*
X39520544Y-35780455D01*
X39519612Y-35784891D01*
X39522482Y-35791110D01*
X39533336Y-35797455D01*
X39553886Y-35804743D01*
X39572700Y-35810219D01*
X39597246Y-35816933D01*
X39616882Y-35822115D01*
X39628592Y-35824979D01*
X39630433Y-35825301D01*
X39634375Y-35819898D01*
X39639812Y-35806211D01*
X39641919Y-35799605D01*
X39657052Y-35768716D01*
X39682287Y-35739434D01*
X39715064Y-35714404D01*
X39734625Y-35703763D01*
X39775315Y-35689963D01*
X39818501Y-35684792D01*
X39861388Y-35687848D01*
X39901183Y-35698731D01*
X39935092Y-35717040D01*
X39954952Y-35735372D01*
X39971827Y-35764510D01*
X39976623Y-35796519D01*
X39969120Y-35829729D01*
X39967749Y-35832910D01*
X39959680Y-35849386D01*
X39950816Y-35862860D01*
X39939581Y-35874107D01*
X39924399Y-35883906D01*
X39903694Y-35893033D01*
X39875888Y-35902264D01*
X39839406Y-35912378D01*
X39792670Y-35924149D01*
X39772725Y-35929017D01*
X39707726Y-35946219D01*
X39654236Y-35963673D01*
X39611070Y-35982007D01*
X39577044Y-36001848D01*
X39550971Y-36023822D01*
X39531668Y-36048555D01*
X39525325Y-36059858D01*
X39502845Y-36116150D01*
X39492555Y-36171169D01*
X39494137Y-36223926D01*
X39507273Y-36273431D01*
X39531644Y-36318697D01*
X39566933Y-36358732D01*
X39612822Y-36392549D01*
X39636342Y-36405228D01*
X39692221Y-36427068D01*
X39749720Y-36438328D01*
X39811077Y-36439267D01*
X39868863Y-36431975D01*
X39922476Y-36420194D01*
X39966140Y-36405572D01*
X40002514Y-36386814D01*
X40034257Y-36362619D01*
X40056341Y-36340437D01*
X40072923Y-36320159D01*
X40090199Y-36295763D01*
X40106966Y-36269415D01*
X40122022Y-36243281D01*
X40134164Y-36219528D01*
X40142188Y-36200322D01*
X40144892Y-36187829D01*
X40143060Y-36184268D01*
X40130083Y-36180479D01*
X40109974Y-36175515D01*
X40086901Y-36170296D01*
X40065034Y-36165740D01*
X40048540Y-36162767D01*
X40042600Y-36162119D01*
X40034958Y-36167312D01*
X40024043Y-36180951D01*
X40012205Y-36200095D01*
X40012095Y-36200294D01*
X39988264Y-36239499D01*
X39964294Y-36268451D01*
X39937242Y-36289284D01*
X39904166Y-36304132D01*
X39862124Y-36315129D01*
X39850665Y-36317378D01*
X39794109Y-36323388D01*
X39743613Y-36319267D01*
X39699876Y-36305153D01*
X39663601Y-36281185D01*
X39662585Y-36280269D01*
X39642022Y-36254809D01*
X39630887Y-36223429D01*
X39628160Y-36193531D01*
X39629971Y-36167467D01*
X39636734Y-36145517D01*
X39649640Y-36126820D01*
X39669881Y-36110516D01*
X39698646Y-36095744D01*
X39737127Y-36081643D01*
X39786515Y-36067355D01*
X39811886Y-36060817D01*
X39866826Y-36046680D01*
X39911084Y-36034313D01*
X39946428Y-36022985D01*
X39974627Y-36011965D01*
X39997450Y-36000522D01*
X40016665Y-35987925D01*
X40034041Y-35973443D01*
X40042256Y-35965599D01*
X40073771Y-35928218D01*
X40094092Y-35888336D01*
X40104329Y-35843252D01*
X40106100Y-35810112D01*
X40101534Y-35757161D01*
X40087399Y-35711502D01*
X40063041Y-35672135D01*
X40027804Y-35638060D01*
X39981034Y-35608277D01*
X39970377Y-35602816D01*
X39942319Y-35589652D01*
X39919590Y-35581449D01*
X39896589Y-35576701D01*
X39867717Y-35573897D01*
X39861491Y-35573484D01*
X39799213Y-35573608D01*
X39799213Y-35573608D01*
G37*
X39799213Y-35573608D02*
X39740445Y-35581667D01*
X39687132Y-35597091D01*
X39641218Y-35619309D01*
X39604646Y-35647749D01*
X39603051Y-35649372D01*
X39588504Y-35666554D01*
X39571864Y-35689520D01*
X39554939Y-35715330D01*
X39539538Y-35741049D01*
X39527470Y-35763736D01*
X39520544Y-35780455D01*
X39519612Y-35784891D01*
X39522482Y-35791110D01*
X39533336Y-35797455D01*
X39553886Y-35804743D01*
X39572700Y-35810219D01*
X39597246Y-35816933D01*
X39616882Y-35822115D01*
X39628592Y-35824979D01*
X39630433Y-35825301D01*
X39634375Y-35819898D01*
X39639812Y-35806211D01*
X39641919Y-35799605D01*
X39657052Y-35768716D01*
X39682287Y-35739434D01*
X39715064Y-35714404D01*
X39734625Y-35703763D01*
X39775315Y-35689963D01*
X39818501Y-35684792D01*
X39861388Y-35687848D01*
X39901183Y-35698731D01*
X39935092Y-35717040D01*
X39954952Y-35735372D01*
X39971827Y-35764510D01*
X39976623Y-35796519D01*
X39969120Y-35829729D01*
X39967749Y-35832910D01*
X39959680Y-35849386D01*
X39950816Y-35862860D01*
X39939581Y-35874107D01*
X39924399Y-35883906D01*
X39903694Y-35893033D01*
X39875888Y-35902264D01*
X39839406Y-35912378D01*
X39792670Y-35924149D01*
X39772725Y-35929017D01*
X39707726Y-35946219D01*
X39654236Y-35963673D01*
X39611070Y-35982007D01*
X39577044Y-36001848D01*
X39550971Y-36023822D01*
X39531668Y-36048555D01*
X39525325Y-36059858D01*
X39502845Y-36116150D01*
X39492555Y-36171169D01*
X39494137Y-36223926D01*
X39507273Y-36273431D01*
X39531644Y-36318697D01*
X39566933Y-36358732D01*
X39612822Y-36392549D01*
X39636342Y-36405228D01*
X39692221Y-36427068D01*
X39749720Y-36438328D01*
X39811077Y-36439267D01*
X39868863Y-36431975D01*
X39922476Y-36420194D01*
X39966140Y-36405572D01*
X40002514Y-36386814D01*
X40034257Y-36362619D01*
X40056341Y-36340437D01*
X40072923Y-36320159D01*
X40090199Y-36295763D01*
X40106966Y-36269415D01*
X40122022Y-36243281D01*
X40134164Y-36219528D01*
X40142188Y-36200322D01*
X40144892Y-36187829D01*
X40143060Y-36184268D01*
X40130083Y-36180479D01*
X40109974Y-36175515D01*
X40086901Y-36170296D01*
X40065034Y-36165740D01*
X40048540Y-36162767D01*
X40042600Y-36162119D01*
X40034958Y-36167312D01*
X40024043Y-36180951D01*
X40012205Y-36200095D01*
X40012095Y-36200294D01*
X39988264Y-36239499D01*
X39964294Y-36268451D01*
X39937242Y-36289284D01*
X39904166Y-36304132D01*
X39862124Y-36315129D01*
X39850665Y-36317378D01*
X39794109Y-36323388D01*
X39743613Y-36319267D01*
X39699876Y-36305153D01*
X39663601Y-36281185D01*
X39662585Y-36280269D01*
X39642022Y-36254809D01*
X39630887Y-36223429D01*
X39628160Y-36193531D01*
X39629971Y-36167467D01*
X39636734Y-36145517D01*
X39649640Y-36126820D01*
X39669881Y-36110516D01*
X39698646Y-36095744D01*
X39737127Y-36081643D01*
X39786515Y-36067355D01*
X39811886Y-36060817D01*
X39866826Y-36046680D01*
X39911084Y-36034313D01*
X39946428Y-36022985D01*
X39974627Y-36011965D01*
X39997450Y-36000522D01*
X40016665Y-35987925D01*
X40034041Y-35973443D01*
X40042256Y-35965599D01*
X40073771Y-35928218D01*
X40094092Y-35888336D01*
X40104329Y-35843252D01*
X40106100Y-35810112D01*
X40101534Y-35757161D01*
X40087399Y-35711502D01*
X40063041Y-35672135D01*
X40027804Y-35638060D01*
X39981034Y-35608277D01*
X39970377Y-35602816D01*
X39942319Y-35589652D01*
X39919590Y-35581449D01*
X39896589Y-35576701D01*
X39867717Y-35573897D01*
X39861491Y-35573484D01*
X39799213Y-35573608D01*
G36*
X42103004Y-35576524D02*
G01*
X42050323Y-35588203D01*
X42003505Y-35607615D01*
X42003400Y-35607673D01*
X41976647Y-35626075D01*
X41946905Y-35652785D01*
X41916941Y-35684792D01*
X41889524Y-35719083D01*
X41867423Y-35752649D01*
X41863372Y-35759971D01*
X41842699Y-35803735D01*
X41828004Y-35847136D01*
X41818557Y-35893522D01*
X41813627Y-35946245D01*
X41812450Y-35993675D01*
X41813551Y-36050306D01*
X41817713Y-36098024D01*
X41825670Y-36140401D01*
X41838158Y-36181009D01*
X41855912Y-36223421D01*
X41862652Y-36237599D01*
X41882687Y-36275384D01*
X41903595Y-36306513D01*
X41929316Y-36336656D01*
X41937390Y-36345146D01*
X41972444Y-36378278D01*
X42005634Y-36402092D01*
X42040670Y-36418681D01*
X42081260Y-36430141D01*
X42091665Y-36432251D01*
X42126477Y-36438020D01*
X42155735Y-36440248D01*
X42184857Y-36438929D01*
X42219261Y-36434056D01*
X42230369Y-36432092D01*
X42269909Y-36422529D01*
X42303916Y-36408300D01*
X42336184Y-36387345D01*
X42370507Y-36357605D01*
X42374328Y-36353944D01*
X42397588Y-36329850D01*
X42416399Y-36305870D01*
X42433811Y-36277706D01*
X42449164Y-36248520D01*
X42469805Y-36203666D01*
X42484557Y-36161721D01*
X42494214Y-36119002D01*
X42499573Y-36071822D01*
X42501431Y-36016497D01*
X42501456Y-36006375D01*
X42363363Y-36006375D01*
X42362636Y-36054972D01*
X42359983Y-36094231D01*
X42354699Y-36127453D01*
X42346081Y-36157940D01*
X42333423Y-36188995D01*
X42317549Y-36221011D01*
X42288991Y-36264396D01*
X42254910Y-36296483D01*
X42215785Y-36317061D01*
X42172094Y-36325919D01*
X42124316Y-36322848D01*
X42099566Y-36316927D01*
X42063114Y-36299737D01*
X42030300Y-36271114D01*
X42001747Y-36231959D01*
X41978076Y-36183177D01*
X41959911Y-36125671D01*
X41956005Y-36108644D01*
X41951170Y-36075424D01*
X41948679Y-36035024D01*
X41948409Y-35990874D01*
X41950239Y-35946408D01*
X41954047Y-35905056D01*
X41959710Y-35870251D01*
X41965195Y-35850246D01*
X41986583Y-35799035D01*
X42010331Y-35758834D01*
X42037596Y-35728013D01*
X42067263Y-35706253D01*
X42083206Y-35697707D01*
X42098024Y-35692515D01*
X42115752Y-35689872D01*
X42140421Y-35688972D01*
X42153975Y-35688920D01*
X42184693Y-35689580D01*
X42206609Y-35691930D01*
X42223576Y-35696611D01*
X42236525Y-35702651D01*
X42272983Y-35728919D01*
X42303462Y-35765518D01*
X42321726Y-35797892D01*
X42337381Y-35832149D01*
X42348646Y-35862554D01*
X42356199Y-35892494D01*
X42360717Y-35925361D01*
X42362876Y-35964544D01*
X42363363Y-36006375D01*
X42501456Y-36006375D01*
X42499796Y-35947756D01*
X42494421Y-35897793D01*
X42484545Y-35852786D01*
X42469380Y-35809032D01*
X42450849Y-35768250D01*
X42421412Y-35718170D01*
X42385579Y-35672360D01*
X42345898Y-35633706D01*
X42308684Y-35607234D01*
X42264389Y-35587934D01*
X42213221Y-35576385D01*
X42158365Y-35572584D01*
X42103004Y-35576524D01*
X42103004Y-35576524D01*
G37*
X42103004Y-35576524D02*
X42050323Y-35588203D01*
X42003505Y-35607615D01*
X42003400Y-35607673D01*
X41976647Y-35626075D01*
X41946905Y-35652785D01*
X41916941Y-35684792D01*
X41889524Y-35719083D01*
X41867423Y-35752649D01*
X41863372Y-35759971D01*
X41842699Y-35803735D01*
X41828004Y-35847136D01*
X41818557Y-35893522D01*
X41813627Y-35946245D01*
X41812450Y-35993675D01*
X41813551Y-36050306D01*
X41817713Y-36098024D01*
X41825670Y-36140401D01*
X41838158Y-36181009D01*
X41855912Y-36223421D01*
X41862652Y-36237599D01*
X41882687Y-36275384D01*
X41903595Y-36306513D01*
X41929316Y-36336656D01*
X41937390Y-36345146D01*
X41972444Y-36378278D01*
X42005634Y-36402092D01*
X42040670Y-36418681D01*
X42081260Y-36430141D01*
X42091665Y-36432251D01*
X42126477Y-36438020D01*
X42155735Y-36440248D01*
X42184857Y-36438929D01*
X42219261Y-36434056D01*
X42230369Y-36432092D01*
X42269909Y-36422529D01*
X42303916Y-36408300D01*
X42336184Y-36387345D01*
X42370507Y-36357605D01*
X42374328Y-36353944D01*
X42397588Y-36329850D01*
X42416399Y-36305870D01*
X42433811Y-36277706D01*
X42449164Y-36248520D01*
X42469805Y-36203666D01*
X42484557Y-36161721D01*
X42494214Y-36119002D01*
X42499573Y-36071822D01*
X42501431Y-36016497D01*
X42501456Y-36006375D01*
X42363363Y-36006375D01*
X42362636Y-36054972D01*
X42359983Y-36094231D01*
X42354699Y-36127453D01*
X42346081Y-36157940D01*
X42333423Y-36188995D01*
X42317549Y-36221011D01*
X42288991Y-36264396D01*
X42254910Y-36296483D01*
X42215785Y-36317061D01*
X42172094Y-36325919D01*
X42124316Y-36322848D01*
X42099566Y-36316927D01*
X42063114Y-36299737D01*
X42030300Y-36271114D01*
X42001747Y-36231959D01*
X41978076Y-36183177D01*
X41959911Y-36125671D01*
X41956005Y-36108644D01*
X41951170Y-36075424D01*
X41948679Y-36035024D01*
X41948409Y-35990874D01*
X41950239Y-35946408D01*
X41954047Y-35905056D01*
X41959710Y-35870251D01*
X41965195Y-35850246D01*
X41986583Y-35799035D01*
X42010331Y-35758834D01*
X42037596Y-35728013D01*
X42067263Y-35706253D01*
X42083206Y-35697707D01*
X42098024Y-35692515D01*
X42115752Y-35689872D01*
X42140421Y-35688972D01*
X42153975Y-35688920D01*
X42184693Y-35689580D01*
X42206609Y-35691930D01*
X42223576Y-35696611D01*
X42236525Y-35702651D01*
X42272983Y-35728919D01*
X42303462Y-35765518D01*
X42321726Y-35797892D01*
X42337381Y-35832149D01*
X42348646Y-35862554D01*
X42356199Y-35892494D01*
X42360717Y-35925361D01*
X42362876Y-35964544D01*
X42363363Y-36006375D01*
X42501456Y-36006375D01*
X42499796Y-35947756D01*
X42494421Y-35897793D01*
X42484545Y-35852786D01*
X42469380Y-35809032D01*
X42450849Y-35768250D01*
X42421412Y-35718170D01*
X42385579Y-35672360D01*
X42345898Y-35633706D01*
X42308684Y-35607234D01*
X42264389Y-35587934D01*
X42213221Y-35576385D01*
X42158365Y-35572584D01*
X42103004Y-35576524D01*
G36*
X44548047Y-35571856D02*
G01*
X44530303Y-35574503D01*
X44477349Y-35585763D01*
X44434623Y-35599913D01*
X44399747Y-35618301D01*
X44370341Y-35642277D01*
X44344029Y-35673187D01*
X44335904Y-35684719D01*
X44322350Y-35705807D01*
X44308553Y-35729076D01*
X44295942Y-35751860D01*
X44285947Y-35771491D01*
X44279999Y-35785301D01*
X44279211Y-35790489D01*
X44285810Y-35792883D01*
X44301900Y-35797743D01*
X44324703Y-35804247D01*
X44339954Y-35808460D01*
X44398683Y-35824506D01*
X44402618Y-35807490D01*
X44417762Y-35768878D01*
X44443160Y-35736250D01*
X44477405Y-35710562D01*
X44519089Y-35692770D01*
X44566803Y-35683829D01*
X44586025Y-35682954D01*
X44633397Y-35686785D01*
X44673339Y-35698736D01*
X44704867Y-35718206D01*
X44726998Y-35744596D01*
X44738509Y-35775988D01*
X44738417Y-35807622D01*
X44727684Y-35839813D01*
X44712292Y-35863213D01*
X44703903Y-35871732D01*
X44693097Y-35879298D01*
X44678196Y-35886522D01*
X44657523Y-35894017D01*
X44629399Y-35902393D01*
X44592147Y-35912263D01*
X44546404Y-35923670D01*
X44480527Y-35940962D01*
X44426042Y-35958160D01*
X44381683Y-35976202D01*
X44346184Y-35996028D01*
X44318280Y-36018575D01*
X44296705Y-36044782D01*
X44280192Y-36075589D01*
X44267476Y-36111934D01*
X44261577Y-36134905D01*
X44255118Y-36188585D01*
X44260771Y-36239774D01*
X44278044Y-36287512D01*
X44306440Y-36330837D01*
X44345465Y-36368787D01*
X44394625Y-36400401D01*
X44399404Y-36402840D01*
X44421788Y-36413531D01*
X44441511Y-36421291D01*
X44461848Y-36426895D01*
X44486075Y-36431119D01*
X44517467Y-36434739D01*
X44544750Y-36437267D01*
X44561659Y-36437186D01*
X44586277Y-36435195D01*
X44613827Y-36431706D01*
X44619253Y-36430867D01*
X44680149Y-36418455D01*
X44730472Y-36402054D01*
X44771931Y-36380897D01*
X44806239Y-36354218D01*
X44818627Y-36341513D01*
X44836409Y-36319090D01*
X44856653Y-36289357D01*
X44876690Y-36256624D01*
X44893847Y-36225196D01*
X44903154Y-36205226D01*
X44912875Y-36181827D01*
X44863750Y-36171349D01*
X44839272Y-36166239D01*
X44818981Y-36162205D01*
X44806613Y-36159985D01*
X44805417Y-36159823D01*
X44797860Y-36164637D01*
X44786634Y-36178820D01*
X44773410Y-36200219D01*
X44771799Y-36203115D01*
X44750052Y-36239286D01*
X44728814Y-36265673D01*
X44704953Y-36284661D01*
X44675339Y-36298634D01*
X44636841Y-36309976D01*
X44629023Y-36311853D01*
X44578233Y-36319647D01*
X44530282Y-36319130D01*
X44486957Y-36310762D01*
X44450046Y-36295002D01*
X44421338Y-36272312D01*
X44408517Y-36255095D01*
X44396054Y-36224842D01*
X44391300Y-36192323D01*
X44394258Y-36161362D01*
X44404928Y-36135783D01*
X44408494Y-36131039D01*
X44420849Y-36117908D01*
X44434978Y-36106693D01*
X44452692Y-36096621D01*
X44475797Y-36086923D01*
X44506103Y-36076828D01*
X44545418Y-36065566D01*
X44589411Y-36053945D01*
X44629553Y-36043241D01*
X44667805Y-36032410D01*
X44701562Y-36022238D01*
X44728215Y-36013512D01*
X44745158Y-36007016D01*
X44745235Y-36006981D01*
X44788004Y-35980731D01*
X44822771Y-35945668D01*
X44848687Y-35903472D01*
X44864901Y-35855827D01*
X44870561Y-35804413D01*
X44867509Y-35765269D01*
X44859768Y-35729500D01*
X44847763Y-35700477D01*
X44828989Y-35673162D01*
X44812268Y-35654256D01*
X44771587Y-35619979D01*
X44722846Y-35594040D01*
X44668024Y-35577001D01*
X44609098Y-35569419D01*
X44548047Y-35571856D01*
X44548047Y-35571856D01*
G37*
X44548047Y-35571856D02*
X44530303Y-35574503D01*
X44477349Y-35585763D01*
X44434623Y-35599913D01*
X44399747Y-35618301D01*
X44370341Y-35642277D01*
X44344029Y-35673187D01*
X44335904Y-35684719D01*
X44322350Y-35705807D01*
X44308553Y-35729076D01*
X44295942Y-35751860D01*
X44285947Y-35771491D01*
X44279999Y-35785301D01*
X44279211Y-35790489D01*
X44285810Y-35792883D01*
X44301900Y-35797743D01*
X44324703Y-35804247D01*
X44339954Y-35808460D01*
X44398683Y-35824506D01*
X44402618Y-35807490D01*
X44417762Y-35768878D01*
X44443160Y-35736250D01*
X44477405Y-35710562D01*
X44519089Y-35692770D01*
X44566803Y-35683829D01*
X44586025Y-35682954D01*
X44633397Y-35686785D01*
X44673339Y-35698736D01*
X44704867Y-35718206D01*
X44726998Y-35744596D01*
X44738509Y-35775988D01*
X44738417Y-35807622D01*
X44727684Y-35839813D01*
X44712292Y-35863213D01*
X44703903Y-35871732D01*
X44693097Y-35879298D01*
X44678196Y-35886522D01*
X44657523Y-35894017D01*
X44629399Y-35902393D01*
X44592147Y-35912263D01*
X44546404Y-35923670D01*
X44480527Y-35940962D01*
X44426042Y-35958160D01*
X44381683Y-35976202D01*
X44346184Y-35996028D01*
X44318280Y-36018575D01*
X44296705Y-36044782D01*
X44280192Y-36075589D01*
X44267476Y-36111934D01*
X44261577Y-36134905D01*
X44255118Y-36188585D01*
X44260771Y-36239774D01*
X44278044Y-36287512D01*
X44306440Y-36330837D01*
X44345465Y-36368787D01*
X44394625Y-36400401D01*
X44399404Y-36402840D01*
X44421788Y-36413531D01*
X44441511Y-36421291D01*
X44461848Y-36426895D01*
X44486075Y-36431119D01*
X44517467Y-36434739D01*
X44544750Y-36437267D01*
X44561659Y-36437186D01*
X44586277Y-36435195D01*
X44613827Y-36431706D01*
X44619253Y-36430867D01*
X44680149Y-36418455D01*
X44730472Y-36402054D01*
X44771931Y-36380897D01*
X44806239Y-36354218D01*
X44818627Y-36341513D01*
X44836409Y-36319090D01*
X44856653Y-36289357D01*
X44876690Y-36256624D01*
X44893847Y-36225196D01*
X44903154Y-36205226D01*
X44912875Y-36181827D01*
X44863750Y-36171349D01*
X44839272Y-36166239D01*
X44818981Y-36162205D01*
X44806613Y-36159985D01*
X44805417Y-36159823D01*
X44797860Y-36164637D01*
X44786634Y-36178820D01*
X44773410Y-36200219D01*
X44771799Y-36203115D01*
X44750052Y-36239286D01*
X44728814Y-36265673D01*
X44704953Y-36284661D01*
X44675339Y-36298634D01*
X44636841Y-36309976D01*
X44629023Y-36311853D01*
X44578233Y-36319647D01*
X44530282Y-36319130D01*
X44486957Y-36310762D01*
X44450046Y-36295002D01*
X44421338Y-36272312D01*
X44408517Y-36255095D01*
X44396054Y-36224842D01*
X44391300Y-36192323D01*
X44394258Y-36161362D01*
X44404928Y-36135783D01*
X44408494Y-36131039D01*
X44420849Y-36117908D01*
X44434978Y-36106693D01*
X44452692Y-36096621D01*
X44475797Y-36086923D01*
X44506103Y-36076828D01*
X44545418Y-36065566D01*
X44589411Y-36053945D01*
X44629553Y-36043241D01*
X44667805Y-36032410D01*
X44701562Y-36022238D01*
X44728215Y-36013512D01*
X44745158Y-36007016D01*
X44745235Y-36006981D01*
X44788004Y-35980731D01*
X44822771Y-35945668D01*
X44848687Y-35903472D01*
X44864901Y-35855827D01*
X44870561Y-35804413D01*
X44867509Y-35765269D01*
X44859768Y-35729500D01*
X44847763Y-35700477D01*
X44828989Y-35673162D01*
X44812268Y-35654256D01*
X44771587Y-35619979D01*
X44722846Y-35594040D01*
X44668024Y-35577001D01*
X44609098Y-35569419D01*
X44548047Y-35571856D01*
G36*
X45280566Y-35569483D02*
G01*
X45262336Y-35571906D01*
X45218043Y-35580229D01*
X45182371Y-35591423D01*
X45151275Y-35607446D01*
X45120708Y-35630253D01*
X45096711Y-35652018D01*
X45048463Y-35706329D01*
X45011162Y-35766743D01*
X44984644Y-35833612D01*
X44968748Y-35907290D01*
X44965510Y-35936525D01*
X44962790Y-36016336D01*
X44969152Y-36089425D01*
X44985051Y-36158390D01*
X45010940Y-36225829D01*
X45019146Y-36242994D01*
X45053475Y-36301250D01*
X45093407Y-36349544D01*
X45138217Y-36387259D01*
X45187176Y-36413780D01*
X45237572Y-36428164D01*
X45271826Y-36433557D01*
X45297721Y-36436463D01*
X45319312Y-36437084D01*
X45340654Y-36435620D01*
X45354128Y-36433949D01*
X45413194Y-36421302D01*
X45464666Y-36400104D01*
X45509593Y-36369526D01*
X45549026Y-36328742D01*
X45584014Y-36276926D01*
X45605324Y-36235979D01*
X45622655Y-36197273D01*
X45635269Y-36163024D01*
X45643862Y-36129799D01*
X45649131Y-36094161D01*
X45651770Y-36052676D01*
X45652477Y-36003200D01*
X45652393Y-35997384D01*
X45515533Y-35997384D01*
X45514821Y-36028600D01*
X45513476Y-36065938D01*
X45511757Y-36093795D01*
X45509146Y-36115387D01*
X45505126Y-36133931D01*
X45499180Y-36152644D01*
X45491696Y-36172438D01*
X45470373Y-36218476D01*
X45445762Y-36257262D01*
X45419406Y-36286515D01*
X45409099Y-36294766D01*
X45374510Y-36312292D01*
X45333834Y-36321551D01*
X45290867Y-36322256D01*
X45249404Y-36314115D01*
X45233725Y-36308155D01*
X45200407Y-36286636D01*
X45170254Y-36253418D01*
X45143918Y-36209251D01*
X45139567Y-36200050D01*
X45124338Y-36164018D01*
X45113554Y-36131023D01*
X45106529Y-36097449D01*
X45102572Y-36059677D01*
X45100995Y-36014092D01*
X45100881Y-35996850D01*
X45101639Y-35948149D01*
X45104580Y-35908660D01*
X45110405Y-35874983D01*
X45119819Y-35843715D01*
X45133523Y-35811456D01*
X45143245Y-35791862D01*
X45169600Y-35748839D01*
X45199092Y-35717460D01*
X45233258Y-35696770D01*
X45273638Y-35685814D01*
X45317798Y-35683514D01*
X45362819Y-35690249D01*
X45402351Y-35708170D01*
X45436590Y-35737436D01*
X45465735Y-35778204D01*
X45484373Y-35816431D01*
X45497333Y-35850410D01*
X45506470Y-35882297D01*
X45512244Y-35915290D01*
X45515111Y-35952586D01*
X45515533Y-35997384D01*
X45652393Y-35997384D01*
X45651743Y-35952622D01*
X45649073Y-35911301D01*
X45643763Y-35875853D01*
X45635112Y-35842894D01*
X45622416Y-35809042D01*
X45604972Y-35770912D01*
X45603679Y-35768250D01*
X45585907Y-35733665D01*
X45569513Y-35706892D01*
X45551628Y-35683774D01*
X45529378Y-35660155D01*
X45528191Y-35658976D01*
X45492123Y-35626585D01*
X45457353Y-35603445D01*
X45419672Y-35587365D01*
X45374868Y-35576155D01*
X45365908Y-35574517D01*
X45333102Y-35569583D01*
X45306620Y-35567955D01*
X45280566Y-35569483D01*
X45280566Y-35569483D01*
G37*
X45280566Y-35569483D02*
X45262336Y-35571906D01*
X45218043Y-35580229D01*
X45182371Y-35591423D01*
X45151275Y-35607446D01*
X45120708Y-35630253D01*
X45096711Y-35652018D01*
X45048463Y-35706329D01*
X45011162Y-35766743D01*
X44984644Y-35833612D01*
X44968748Y-35907290D01*
X44965510Y-35936525D01*
X44962790Y-36016336D01*
X44969152Y-36089425D01*
X44985051Y-36158390D01*
X45010940Y-36225829D01*
X45019146Y-36242994D01*
X45053475Y-36301250D01*
X45093407Y-36349544D01*
X45138217Y-36387259D01*
X45187176Y-36413780D01*
X45237572Y-36428164D01*
X45271826Y-36433557D01*
X45297721Y-36436463D01*
X45319312Y-36437084D01*
X45340654Y-36435620D01*
X45354128Y-36433949D01*
X45413194Y-36421302D01*
X45464666Y-36400104D01*
X45509593Y-36369526D01*
X45549026Y-36328742D01*
X45584014Y-36276926D01*
X45605324Y-36235979D01*
X45622655Y-36197273D01*
X45635269Y-36163024D01*
X45643862Y-36129799D01*
X45649131Y-36094161D01*
X45651770Y-36052676D01*
X45652477Y-36003200D01*
X45652393Y-35997384D01*
X45515533Y-35997384D01*
X45514821Y-36028600D01*
X45513476Y-36065938D01*
X45511757Y-36093795D01*
X45509146Y-36115387D01*
X45505126Y-36133931D01*
X45499180Y-36152644D01*
X45491696Y-36172438D01*
X45470373Y-36218476D01*
X45445762Y-36257262D01*
X45419406Y-36286515D01*
X45409099Y-36294766D01*
X45374510Y-36312292D01*
X45333834Y-36321551D01*
X45290867Y-36322256D01*
X45249404Y-36314115D01*
X45233725Y-36308155D01*
X45200407Y-36286636D01*
X45170254Y-36253418D01*
X45143918Y-36209251D01*
X45139567Y-36200050D01*
X45124338Y-36164018D01*
X45113554Y-36131023D01*
X45106529Y-36097449D01*
X45102572Y-36059677D01*
X45100995Y-36014092D01*
X45100881Y-35996850D01*
X45101639Y-35948149D01*
X45104580Y-35908660D01*
X45110405Y-35874983D01*
X45119819Y-35843715D01*
X45133523Y-35811456D01*
X45143245Y-35791862D01*
X45169600Y-35748839D01*
X45199092Y-35717460D01*
X45233258Y-35696770D01*
X45273638Y-35685814D01*
X45317798Y-35683514D01*
X45362819Y-35690249D01*
X45402351Y-35708170D01*
X45436590Y-35737436D01*
X45465735Y-35778204D01*
X45484373Y-35816431D01*
X45497333Y-35850410D01*
X45506470Y-35882297D01*
X45512244Y-35915290D01*
X45515111Y-35952586D01*
X45515533Y-35997384D01*
X45652393Y-35997384D01*
X45651743Y-35952622D01*
X45649073Y-35911301D01*
X45643763Y-35875853D01*
X45635112Y-35842894D01*
X45622416Y-35809042D01*
X45604972Y-35770912D01*
X45603679Y-35768250D01*
X45585907Y-35733665D01*
X45569513Y-35706892D01*
X45551628Y-35683774D01*
X45529378Y-35660155D01*
X45528191Y-35658976D01*
X45492123Y-35626585D01*
X45457353Y-35603445D01*
X45419672Y-35587365D01*
X45374868Y-35576155D01*
X45365908Y-35574517D01*
X45333102Y-35569583D01*
X45306620Y-35567955D01*
X45280566Y-35569483D01*
G36*
X45807103Y-35190293D02*
G01*
X45792760Y-35195991D01*
X45756894Y-35217575D01*
X45724022Y-35247874D01*
X45698290Y-35282955D01*
X45695284Y-35288422D01*
X45686587Y-35306875D01*
X45681502Y-35324148D01*
X45679146Y-35344807D01*
X45678638Y-35373416D01*
X45678642Y-35374550D01*
X45678872Y-35392041D01*
X45679767Y-35407205D01*
X45681889Y-35422008D01*
X45685803Y-35438418D01*
X45692070Y-35458403D01*
X45701256Y-35483929D01*
X45713921Y-35516963D01*
X45730631Y-35559474D01*
X45734088Y-35568225D01*
X45789296Y-35707925D01*
X45789433Y-35936525D01*
X45789614Y-36003669D01*
X45790095Y-36059312D01*
X45790917Y-36104646D01*
X45792119Y-36140868D01*
X45793741Y-36169173D01*
X45795824Y-36190754D01*
X45798407Y-36206807D01*
X45798513Y-36207314D01*
X45816869Y-36266385D01*
X45844976Y-36317779D01*
X45882263Y-36360854D01*
X45928158Y-36394967D01*
X45982090Y-36419478D01*
X45989755Y-36421955D01*
X46015947Y-36428040D01*
X46049823Y-36433137D01*
X46086996Y-36436862D01*
X46123081Y-36438833D01*
X46153689Y-36438667D01*
X46167175Y-36437444D01*
X46182967Y-36434735D01*
X46206183Y-36430259D01*
X46231845Y-36424977D01*
X46232263Y-36424888D01*
X46278300Y-36415083D01*
X46278300Y-36280831D01*
X46244963Y-36285017D01*
X46177587Y-36291830D01*
X46121082Y-36293777D01*
X46074511Y-36290667D01*
X46036936Y-36282309D01*
X46007420Y-36268511D01*
X45985026Y-36249082D01*
X45971547Y-36229242D01*
X45968035Y-36222305D01*
X45965156Y-36215034D01*
X45962834Y-36206133D01*
X45960996Y-36194307D01*
X45959567Y-36178259D01*
X45958470Y-36156694D01*
X45957633Y-36128316D01*
X45956980Y-36091829D01*
X45956436Y-36045939D01*
X45955926Y-35989349D01*
X45955637Y-35953646D01*
X45953648Y-35704067D01*
X46004878Y-35571975D01*
X46025034Y-35519456D01*
X46040693Y-35476973D01*
X46052238Y-35442841D01*
X46060057Y-35415370D01*
X46064532Y-35392876D01*
X46066050Y-35373669D01*
X46064995Y-35356064D01*
X46064634Y-35354092D01*
X45979907Y-35354092D01*
X45979889Y-35385914D01*
X45972118Y-35417411D01*
X45957608Y-35445173D01*
X45937377Y-35465789D01*
X45927680Y-35471377D01*
X45899433Y-35482978D01*
X45877116Y-35487950D01*
X45856083Y-35486695D01*
X45831793Y-35479650D01*
X45802855Y-35465348D01*
X45782165Y-35444599D01*
X45769543Y-35422175D01*
X45759403Y-35386440D01*
X45760839Y-35351572D01*
X45772792Y-35319699D01*
X45794200Y-35292952D01*
X45824003Y-35273463D01*
X45847429Y-35265684D01*
X45881735Y-35264117D01*
X45915296Y-35273546D01*
X45945031Y-35292487D01*
X45967856Y-35319451D01*
X45971157Y-35325357D01*
X45979907Y-35354092D01*
X46064634Y-35354092D01*
X46061752Y-35338374D01*
X46059907Y-35330812D01*
X46042211Y-35284678D01*
X46015596Y-35245827D01*
X45981730Y-35215103D01*
X45942280Y-35193345D01*
X45898914Y-35181397D01*
X45853299Y-35180099D01*
X45807103Y-35190293D01*
X45807103Y-35190293D01*
G37*
X45807103Y-35190293D02*
X45792760Y-35195991D01*
X45756894Y-35217575D01*
X45724022Y-35247874D01*
X45698290Y-35282955D01*
X45695284Y-35288422D01*
X45686587Y-35306875D01*
X45681502Y-35324148D01*
X45679146Y-35344807D01*
X45678638Y-35373416D01*
X45678642Y-35374550D01*
X45678872Y-35392041D01*
X45679767Y-35407205D01*
X45681889Y-35422008D01*
X45685803Y-35438418D01*
X45692070Y-35458403D01*
X45701256Y-35483929D01*
X45713921Y-35516963D01*
X45730631Y-35559474D01*
X45734088Y-35568225D01*
X45789296Y-35707925D01*
X45789433Y-35936525D01*
X45789614Y-36003669D01*
X45790095Y-36059312D01*
X45790917Y-36104646D01*
X45792119Y-36140868D01*
X45793741Y-36169173D01*
X45795824Y-36190754D01*
X45798407Y-36206807D01*
X45798513Y-36207314D01*
X45816869Y-36266385D01*
X45844976Y-36317779D01*
X45882263Y-36360854D01*
X45928158Y-36394967D01*
X45982090Y-36419478D01*
X45989755Y-36421955D01*
X46015947Y-36428040D01*
X46049823Y-36433137D01*
X46086996Y-36436862D01*
X46123081Y-36438833D01*
X46153689Y-36438667D01*
X46167175Y-36437444D01*
X46182967Y-36434735D01*
X46206183Y-36430259D01*
X46231845Y-36424977D01*
X46232263Y-36424888D01*
X46278300Y-36415083D01*
X46278300Y-36280831D01*
X46244963Y-36285017D01*
X46177587Y-36291830D01*
X46121082Y-36293777D01*
X46074511Y-36290667D01*
X46036936Y-36282309D01*
X46007420Y-36268511D01*
X45985026Y-36249082D01*
X45971547Y-36229242D01*
X45968035Y-36222305D01*
X45965156Y-36215034D01*
X45962834Y-36206133D01*
X45960996Y-36194307D01*
X45959567Y-36178259D01*
X45958470Y-36156694D01*
X45957633Y-36128316D01*
X45956980Y-36091829D01*
X45956436Y-36045939D01*
X45955926Y-35989349D01*
X45955637Y-35953646D01*
X45953648Y-35704067D01*
X46004878Y-35571975D01*
X46025034Y-35519456D01*
X46040693Y-35476973D01*
X46052238Y-35442841D01*
X46060057Y-35415370D01*
X46064532Y-35392876D01*
X46066050Y-35373669D01*
X46064995Y-35356064D01*
X46064634Y-35354092D01*
X45979907Y-35354092D01*
X45979889Y-35385914D01*
X45972118Y-35417411D01*
X45957608Y-35445173D01*
X45937377Y-35465789D01*
X45927680Y-35471377D01*
X45899433Y-35482978D01*
X45877116Y-35487950D01*
X45856083Y-35486695D01*
X45831793Y-35479650D01*
X45802855Y-35465348D01*
X45782165Y-35444599D01*
X45769543Y-35422175D01*
X45759403Y-35386440D01*
X45760839Y-35351572D01*
X45772792Y-35319699D01*
X45794200Y-35292952D01*
X45824003Y-35273463D01*
X45847429Y-35265684D01*
X45881735Y-35264117D01*
X45915296Y-35273546D01*
X45945031Y-35292487D01*
X45967856Y-35319451D01*
X45971157Y-35325357D01*
X45979907Y-35354092D01*
X46064634Y-35354092D01*
X46061752Y-35338374D01*
X46059907Y-35330812D01*
X46042211Y-35284678D01*
X46015596Y-35245827D01*
X45981730Y-35215103D01*
X45942280Y-35193345D01*
X45898914Y-35181397D01*
X45853299Y-35180099D01*
X45807103Y-35190293D01*
G36*
X42665488Y-35212303D02*
G01*
X42620797Y-35229400D01*
X42582598Y-35257249D01*
X42551610Y-35295399D01*
X42539927Y-35316380D01*
X42530030Y-35339051D01*
X42524710Y-35359692D01*
X42522763Y-35384133D01*
X42522681Y-35399950D01*
X42523095Y-35415919D01*
X42524426Y-35430667D01*
X42527242Y-35446131D01*
X42532112Y-35464244D01*
X42539606Y-35486941D01*
X42550293Y-35516157D01*
X42564742Y-35553827D01*
X42577796Y-35587275D01*
X42632505Y-35726975D01*
X42635131Y-35974625D01*
X42635873Y-36038909D01*
X42636649Y-36091825D01*
X42637525Y-36134702D01*
X42638566Y-36168873D01*
X42639836Y-36195669D01*
X42641403Y-36216419D01*
X42643329Y-36232456D01*
X42645682Y-36245110D01*
X42648526Y-36255713D01*
X42648995Y-36257194D01*
X42659367Y-36282570D01*
X42674816Y-36312333D01*
X42692945Y-36342512D01*
X42711355Y-36369136D01*
X42727650Y-36388233D01*
X42728735Y-36389266D01*
X42746645Y-36402602D01*
X42772374Y-36417744D01*
X42801671Y-36432557D01*
X42830281Y-36444908D01*
X42853952Y-36452662D01*
X42856000Y-36453128D01*
X42883615Y-36457545D01*
X42918057Y-36460964D01*
X42954128Y-36463056D01*
X42986630Y-36463490D01*
X43004875Y-36462593D01*
X43024225Y-36459993D01*
X43050215Y-36455522D01*
X43076313Y-36450336D01*
X43122350Y-36440483D01*
X43122350Y-36303289D01*
X43092188Y-36309298D01*
X43073546Y-36311813D01*
X43046137Y-36314024D01*
X43013894Y-36315666D01*
X42985825Y-36316416D01*
X42939103Y-36315760D01*
X42902598Y-36311853D01*
X42874106Y-36304079D01*
X42851421Y-36291823D01*
X42832338Y-36274470D01*
X42831312Y-36273313D01*
X42823366Y-36262959D01*
X42816790Y-36250831D01*
X42811459Y-36235702D01*
X42807249Y-36216342D01*
X42804033Y-36191523D01*
X42801686Y-36160016D01*
X42800085Y-36120593D01*
X42799104Y-36072026D01*
X42798618Y-36013085D01*
X42798500Y-35950775D01*
X42798500Y-35731115D01*
X42854063Y-35589345D01*
X42871593Y-35544448D01*
X42884987Y-35509430D01*
X42894796Y-35482367D01*
X42901576Y-35461336D01*
X42905879Y-35444413D01*
X42908258Y-35429674D01*
X42909267Y-35415196D01*
X42909394Y-35404503D01*
X42827746Y-35404503D01*
X42821686Y-35436112D01*
X42807560Y-35464453D01*
X42786697Y-35487806D01*
X42760427Y-35504453D01*
X42730080Y-35512675D01*
X42696986Y-35510751D01*
X42680799Y-35505829D01*
X42647826Y-35486930D01*
X42623702Y-35460391D01*
X42609302Y-35428401D01*
X42605499Y-35393148D01*
X42613167Y-35356820D01*
X42617373Y-35346995D01*
X42636757Y-35319789D01*
X42663164Y-35300990D01*
X42693995Y-35290715D01*
X42726653Y-35289080D01*
X42758540Y-35296202D01*
X42787059Y-35312196D01*
X42809613Y-35337180D01*
X42810347Y-35338357D01*
X42824410Y-35371345D01*
X42827746Y-35404503D01*
X42909394Y-35404503D01*
X42909459Y-35399055D01*
X42909453Y-35396775D01*
X42908441Y-35366666D01*
X42905080Y-35344603D01*
X42898517Y-35326019D01*
X42894891Y-35318701D01*
X42865657Y-35275692D01*
X42828514Y-35241410D01*
X42799520Y-35223926D01*
X42776517Y-35213934D01*
X42755339Y-35208550D01*
X42730087Y-35206540D01*
X42715950Y-35206406D01*
X42665488Y-35212303D01*
X42665488Y-35212303D01*
G37*
X42665488Y-35212303D02*
X42620797Y-35229400D01*
X42582598Y-35257249D01*
X42551610Y-35295399D01*
X42539927Y-35316380D01*
X42530030Y-35339051D01*
X42524710Y-35359692D01*
X42522763Y-35384133D01*
X42522681Y-35399950D01*
X42523095Y-35415919D01*
X42524426Y-35430667D01*
X42527242Y-35446131D01*
X42532112Y-35464244D01*
X42539606Y-35486941D01*
X42550293Y-35516157D01*
X42564742Y-35553827D01*
X42577796Y-35587275D01*
X42632505Y-35726975D01*
X42635131Y-35974625D01*
X42635873Y-36038909D01*
X42636649Y-36091825D01*
X42637525Y-36134702D01*
X42638566Y-36168873D01*
X42639836Y-36195669D01*
X42641403Y-36216419D01*
X42643329Y-36232456D01*
X42645682Y-36245110D01*
X42648526Y-36255713D01*
X42648995Y-36257194D01*
X42659367Y-36282570D01*
X42674816Y-36312333D01*
X42692945Y-36342512D01*
X42711355Y-36369136D01*
X42727650Y-36388233D01*
X42728735Y-36389266D01*
X42746645Y-36402602D01*
X42772374Y-36417744D01*
X42801671Y-36432557D01*
X42830281Y-36444908D01*
X42853952Y-36452662D01*
X42856000Y-36453128D01*
X42883615Y-36457545D01*
X42918057Y-36460964D01*
X42954128Y-36463056D01*
X42986630Y-36463490D01*
X43004875Y-36462593D01*
X43024225Y-36459993D01*
X43050215Y-36455522D01*
X43076313Y-36450336D01*
X43122350Y-36440483D01*
X43122350Y-36303289D01*
X43092188Y-36309298D01*
X43073546Y-36311813D01*
X43046137Y-36314024D01*
X43013894Y-36315666D01*
X42985825Y-36316416D01*
X42939103Y-36315760D01*
X42902598Y-36311853D01*
X42874106Y-36304079D01*
X42851421Y-36291823D01*
X42832338Y-36274470D01*
X42831312Y-36273313D01*
X42823366Y-36262959D01*
X42816790Y-36250831D01*
X42811459Y-36235702D01*
X42807249Y-36216342D01*
X42804033Y-36191523D01*
X42801686Y-36160016D01*
X42800085Y-36120593D01*
X42799104Y-36072026D01*
X42798618Y-36013085D01*
X42798500Y-35950775D01*
X42798500Y-35731115D01*
X42854063Y-35589345D01*
X42871593Y-35544448D01*
X42884987Y-35509430D01*
X42894796Y-35482367D01*
X42901576Y-35461336D01*
X42905879Y-35444413D01*
X42908258Y-35429674D01*
X42909267Y-35415196D01*
X42909394Y-35404503D01*
X42827746Y-35404503D01*
X42821686Y-35436112D01*
X42807560Y-35464453D01*
X42786697Y-35487806D01*
X42760427Y-35504453D01*
X42730080Y-35512675D01*
X42696986Y-35510751D01*
X42680799Y-35505829D01*
X42647826Y-35486930D01*
X42623702Y-35460391D01*
X42609302Y-35428401D01*
X42605499Y-35393148D01*
X42613167Y-35356820D01*
X42617373Y-35346995D01*
X42636757Y-35319789D01*
X42663164Y-35300990D01*
X42693995Y-35290715D01*
X42726653Y-35289080D01*
X42758540Y-35296202D01*
X42787059Y-35312196D01*
X42809613Y-35337180D01*
X42810347Y-35338357D01*
X42824410Y-35371345D01*
X42827746Y-35404503D01*
X42909394Y-35404503D01*
X42909459Y-35399055D01*
X42909453Y-35396775D01*
X42908441Y-35366666D01*
X42905080Y-35344603D01*
X42898517Y-35326019D01*
X42894891Y-35318701D01*
X42865657Y-35275692D01*
X42828514Y-35241410D01*
X42799520Y-35223926D01*
X42776517Y-35213934D01*
X42755339Y-35208550D01*
X42730087Y-35206540D01*
X42715950Y-35206406D01*
X42665488Y-35212303D01*
D12*
X70350000Y-32550000D02*
G75*
G03X70350000Y-32550000I-950000J0D01*
G01*
X70350000Y-35100000D02*
G75*
G03X70350000Y-35100000I-950000J0D01*
G01*
X72900000Y-32550000D02*
G75*
G03X72900000Y-32550000I-950000J0D01*
G01*
X72900000Y-35100000D02*
G75*
G03X72900000Y-35100000I-950000J0D01*
G01*
D10*
X67761904Y-57572619D02*
X67714285Y-57525000D01*
X67619047Y-57477380D01*
X67380952Y-57477380D01*
X67285714Y-57525000D01*
X67238095Y-57572619D01*
X67190476Y-57667857D01*
X67190476Y-57763095D01*
X67238095Y-57905952D01*
X67809523Y-58477380D01*
X67190476Y-58477380D01*
X66238095Y-58477380D02*
X66809523Y-58477380D01*
X66523809Y-58477380D02*
X66523809Y-57477380D01*
X66619047Y-57620238D01*
X66714285Y-57715476D01*
X66809523Y-57763095D01*
X75061904Y-57597619D02*
X75014285Y-57550000D01*
X74919047Y-57502380D01*
X74680952Y-57502380D01*
X74585714Y-57550000D01*
X74538095Y-57597619D01*
X74490476Y-57692857D01*
X74490476Y-57788095D01*
X74538095Y-57930952D01*
X75109523Y-58502380D01*
X74490476Y-58502380D01*
X73871428Y-57502380D02*
X73776190Y-57502380D01*
X73680952Y-57550000D01*
X73633333Y-57597619D01*
X73585714Y-57692857D01*
X73538095Y-57883333D01*
X73538095Y-58121428D01*
X73585714Y-58311904D01*
X73633333Y-58407142D01*
X73680952Y-58454761D01*
X73776190Y-58502380D01*
X73871428Y-58502380D01*
X73966666Y-58454761D01*
X74014285Y-58407142D01*
X74061904Y-58311904D01*
X74109523Y-58121428D01*
X74109523Y-57883333D01*
X74061904Y-57692857D01*
X74014285Y-57597619D01*
X73966666Y-57550000D01*
X73871428Y-57502380D01*
X75061904Y-60147619D02*
X75014285Y-60100000D01*
X74919047Y-60052380D01*
X74680952Y-60052380D01*
X74585714Y-60100000D01*
X74538095Y-60147619D01*
X74490476Y-60242857D01*
X74490476Y-60338095D01*
X74538095Y-60480952D01*
X75109523Y-61052380D01*
X74490476Y-61052380D01*
X74109523Y-60147619D02*
X74061904Y-60100000D01*
X73966666Y-60052380D01*
X73728571Y-60052380D01*
X73633333Y-60100000D01*
X73585714Y-60147619D01*
X73538095Y-60242857D01*
X73538095Y-60338095D01*
X73585714Y-60480952D01*
X74157142Y-61052380D01*
X73538095Y-61052380D01*
X67761904Y-60147619D02*
X67714285Y-60100000D01*
X67619047Y-60052380D01*
X67380952Y-60052380D01*
X67285714Y-60100000D01*
X67238095Y-60147619D01*
X67190476Y-60242857D01*
X67190476Y-60338095D01*
X67238095Y-60480952D01*
X67809523Y-61052380D01*
X67190476Y-61052380D01*
X66857142Y-60052380D02*
X66238095Y-60052380D01*
X66571428Y-60433333D01*
X66428571Y-60433333D01*
X66333333Y-60480952D01*
X66285714Y-60528571D01*
X66238095Y-60623809D01*
X66238095Y-60861904D01*
X66285714Y-60957142D01*
X66333333Y-61004761D01*
X66428571Y-61052380D01*
X66714285Y-61052380D01*
X66809523Y-61004761D01*
X66857142Y-60957142D01*
X46002380Y-62610714D02*
X46002380Y-63467857D01*
X46050000Y-63563095D01*
X46145238Y-63610714D01*
X46192857Y-63610714D01*
X46002380Y-62277380D02*
X46050000Y-62325000D01*
X46002380Y-62372619D01*
X45954761Y-62325000D01*
X46002380Y-62277380D01*
X46002380Y-62372619D01*
X45383333Y-63277380D02*
X45478571Y-63229761D01*
X45526190Y-63182142D01*
X45573809Y-63086904D01*
X45573809Y-62801190D01*
X45526190Y-62705952D01*
X45478571Y-62658333D01*
X45383333Y-62610714D01*
X45240476Y-62610714D01*
X45145238Y-62658333D01*
X45097619Y-62705952D01*
X45050000Y-62801190D01*
X45050000Y-63086904D01*
X45097619Y-63182142D01*
X45145238Y-63229761D01*
X45240476Y-63277380D01*
X45383333Y-63277380D01*
X44669047Y-63229761D02*
X44573809Y-63277380D01*
X44383333Y-63277380D01*
X44288095Y-63229761D01*
X44240476Y-63134523D01*
X44240476Y-63086904D01*
X44288095Y-62991666D01*
X44383333Y-62944047D01*
X44526190Y-62944047D01*
X44621428Y-62896428D01*
X44669047Y-62801190D01*
X44669047Y-62753571D01*
X44621428Y-62658333D01*
X44526190Y-62610714D01*
X44383333Y-62610714D01*
X44288095Y-62658333D01*
X43811904Y-63277380D02*
X43811904Y-62277380D01*
X43383333Y-63277380D02*
X43383333Y-62753571D01*
X43430952Y-62658333D01*
X43526190Y-62610714D01*
X43669047Y-62610714D01*
X43764285Y-62658333D01*
X43811904Y-62705952D01*
X42478571Y-63277380D02*
X42478571Y-62753571D01*
X42526190Y-62658333D01*
X42621428Y-62610714D01*
X42811904Y-62610714D01*
X42907142Y-62658333D01*
X42478571Y-63229761D02*
X42573809Y-63277380D01*
X42811904Y-63277380D01*
X42907142Y-63229761D01*
X42954761Y-63134523D01*
X42954761Y-63039285D01*
X42907142Y-62944047D01*
X42811904Y-62896428D01*
X42573809Y-62896428D01*
X42478571Y-62848809D01*
X42002380Y-62610714D02*
X42002380Y-63467857D01*
X42050000Y-63563095D01*
X42145238Y-63610714D01*
X42192857Y-63610714D01*
X42002380Y-62277380D02*
X42050000Y-62325000D01*
X42002380Y-62372619D01*
X41954761Y-62325000D01*
X42002380Y-62277380D01*
X42002380Y-62372619D01*
X41383333Y-63277380D02*
X41478571Y-63229761D01*
X41526190Y-63182142D01*
X41573809Y-63086904D01*
X41573809Y-62801190D01*
X41526190Y-62705952D01*
X41478571Y-62658333D01*
X41383333Y-62610714D01*
X41240476Y-62610714D01*
X41145238Y-62658333D01*
X41097619Y-62705952D01*
X41050000Y-62801190D01*
X41050000Y-63086904D01*
X41097619Y-63182142D01*
X41145238Y-63229761D01*
X41240476Y-63277380D01*
X41383333Y-63277380D01*
X40621428Y-63277380D02*
X40621428Y-62277380D01*
X40192857Y-63277380D02*
X40192857Y-62753571D01*
X40240476Y-62658333D01*
X40335714Y-62610714D01*
X40478571Y-62610714D01*
X40573809Y-62658333D01*
X40621428Y-62705952D01*
X39716666Y-62610714D02*
X39716666Y-63277380D01*
X39716666Y-62705952D02*
X39669047Y-62658333D01*
X39573809Y-62610714D01*
X39430952Y-62610714D01*
X39335714Y-62658333D01*
X39288095Y-62753571D01*
X39288095Y-63277380D01*
X38859523Y-63229761D02*
X38764285Y-63277380D01*
X38573809Y-63277380D01*
X38478571Y-63229761D01*
X38430952Y-63134523D01*
X38430952Y-63086904D01*
X38478571Y-62991666D01*
X38573809Y-62944047D01*
X38716666Y-62944047D01*
X38811904Y-62896428D01*
X38859523Y-62801190D01*
X38859523Y-62753571D01*
X38811904Y-62658333D01*
X38716666Y-62610714D01*
X38573809Y-62610714D01*
X38478571Y-62658333D01*
X37859523Y-63277380D02*
X37954761Y-63229761D01*
X38002380Y-63182142D01*
X38050000Y-63086904D01*
X38050000Y-62801190D01*
X38002380Y-62705952D01*
X37954761Y-62658333D01*
X37859523Y-62610714D01*
X37716666Y-62610714D01*
X37621428Y-62658333D01*
X37573809Y-62705952D01*
X37526190Y-62801190D01*
X37526190Y-63086904D01*
X37573809Y-63182142D01*
X37621428Y-63229761D01*
X37716666Y-63277380D01*
X37859523Y-63277380D01*
X37097619Y-62610714D02*
X37097619Y-63277380D01*
X37097619Y-62705952D02*
X37050000Y-62658333D01*
X36954761Y-62610714D01*
X36811904Y-62610714D01*
X36716666Y-62658333D01*
X36669047Y-62753571D01*
X36669047Y-63277380D01*
X36192857Y-63182142D02*
X36145238Y-63229761D01*
X36192857Y-63277380D01*
X36240476Y-63229761D01*
X36192857Y-63182142D01*
X36192857Y-63277380D01*
X35288095Y-63229761D02*
X35383333Y-63277380D01*
X35573809Y-63277380D01*
X35669047Y-63229761D01*
X35716666Y-63182142D01*
X35764285Y-63086904D01*
X35764285Y-62801190D01*
X35716666Y-62705952D01*
X35669047Y-62658333D01*
X35573809Y-62610714D01*
X35383333Y-62610714D01*
X35288095Y-62658333D01*
X34716666Y-63277380D02*
X34811904Y-63229761D01*
X34859523Y-63182142D01*
X34907142Y-63086904D01*
X34907142Y-62801190D01*
X34859523Y-62705952D01*
X34811904Y-62658333D01*
X34716666Y-62610714D01*
X34573809Y-62610714D01*
X34478571Y-62658333D01*
X34430952Y-62705952D01*
X34383333Y-62801190D01*
X34383333Y-63086904D01*
X34430952Y-63182142D01*
X34478571Y-63229761D01*
X34573809Y-63277380D01*
X34716666Y-63277380D01*
X33954761Y-63277380D02*
X33954761Y-62610714D01*
X33954761Y-62705952D02*
X33907142Y-62658333D01*
X33811904Y-62610714D01*
X33669047Y-62610714D01*
X33573809Y-62658333D01*
X33526190Y-62753571D01*
X33526190Y-63277380D01*
X33526190Y-62753571D02*
X33478571Y-62658333D01*
X33383333Y-62610714D01*
X33240476Y-62610714D01*
X33145238Y-62658333D01*
X33097619Y-62753571D01*
X33097619Y-63277380D01*
X45757352Y-64142714D02*
X45757352Y-64952238D01*
X45804971Y-65047476D01*
X45852590Y-65095095D01*
X45947828Y-65142714D01*
X46090685Y-65142714D01*
X46185923Y-65095095D01*
X45757352Y-64761761D02*
X45852590Y-64809380D01*
X46043066Y-64809380D01*
X46138304Y-64761761D01*
X46185923Y-64714142D01*
X46233542Y-64618904D01*
X46233542Y-64333190D01*
X46185923Y-64237952D01*
X46138304Y-64190333D01*
X46043066Y-64142714D01*
X45852590Y-64142714D01*
X45757352Y-64190333D01*
X45281161Y-64809380D02*
X45281161Y-64142714D01*
X45281161Y-63809380D02*
X45328780Y-63857000D01*
X45281161Y-63904619D01*
X45233542Y-63857000D01*
X45281161Y-63809380D01*
X45281161Y-63904619D01*
X44947828Y-64142714D02*
X44566876Y-64142714D01*
X44804971Y-63809380D02*
X44804971Y-64666523D01*
X44757352Y-64761761D01*
X44662114Y-64809380D01*
X44566876Y-64809380D01*
X44233542Y-64809380D02*
X44233542Y-63809380D01*
X43804971Y-64809380D02*
X43804971Y-64285571D01*
X43852590Y-64190333D01*
X43947828Y-64142714D01*
X44090685Y-64142714D01*
X44185923Y-64190333D01*
X44233542Y-64237952D01*
X42900209Y-64142714D02*
X42900209Y-64809380D01*
X43328780Y-64142714D02*
X43328780Y-64666523D01*
X43281161Y-64761761D01*
X43185923Y-64809380D01*
X43043066Y-64809380D01*
X42947828Y-64761761D01*
X42900209Y-64714142D01*
X42424019Y-64809380D02*
X42424019Y-63809380D01*
X42424019Y-64190333D02*
X42328780Y-64142714D01*
X42138304Y-64142714D01*
X42043066Y-64190333D01*
X41995447Y-64237952D01*
X41947828Y-64333190D01*
X41947828Y-64618904D01*
X41995447Y-64714142D01*
X42043066Y-64761761D01*
X42138304Y-64809380D01*
X42328780Y-64809380D01*
X42424019Y-64761761D01*
X41519257Y-64714142D02*
X41471638Y-64761761D01*
X41519257Y-64809380D01*
X41566876Y-64761761D01*
X41519257Y-64714142D01*
X41519257Y-64809380D01*
X40614495Y-64761761D02*
X40709733Y-64809380D01*
X40900209Y-64809380D01*
X40995447Y-64761761D01*
X41043066Y-64714142D01*
X41090685Y-64618904D01*
X41090685Y-64333190D01*
X41043066Y-64237952D01*
X40995447Y-64190333D01*
X40900209Y-64142714D01*
X40709733Y-64142714D01*
X40614495Y-64190333D01*
X40043066Y-64809380D02*
X40138304Y-64761761D01*
X40185923Y-64714142D01*
X40233542Y-64618904D01*
X40233542Y-64333190D01*
X40185923Y-64237952D01*
X40138304Y-64190333D01*
X40043066Y-64142714D01*
X39900209Y-64142714D01*
X39804971Y-64190333D01*
X39757352Y-64237952D01*
X39709733Y-64333190D01*
X39709733Y-64618904D01*
X39757352Y-64714142D01*
X39804971Y-64761761D01*
X39900209Y-64809380D01*
X40043066Y-64809380D01*
X39281161Y-64809380D02*
X39281161Y-64142714D01*
X39281161Y-64237952D02*
X39233542Y-64190333D01*
X39138304Y-64142714D01*
X38995447Y-64142714D01*
X38900209Y-64190333D01*
X38852590Y-64285571D01*
X38852590Y-64809380D01*
X38852590Y-64285571D02*
X38804971Y-64190333D01*
X38709733Y-64142714D01*
X38566876Y-64142714D01*
X38471638Y-64190333D01*
X38424019Y-64285571D01*
X38424019Y-64809380D01*
X37233542Y-63761761D02*
X38090685Y-65047476D01*
X36900209Y-64142714D02*
X36900209Y-64999857D01*
X36947828Y-65095095D01*
X37043066Y-65142714D01*
X37090685Y-65142714D01*
X36900209Y-63809380D02*
X36947828Y-63857000D01*
X36900209Y-63904619D01*
X36852590Y-63857000D01*
X36900209Y-63809380D01*
X36900209Y-63904619D01*
X36281161Y-64809380D02*
X36376400Y-64761761D01*
X36424019Y-64714142D01*
X36471638Y-64618904D01*
X36471638Y-64333190D01*
X36424019Y-64237952D01*
X36376400Y-64190333D01*
X36281161Y-64142714D01*
X36138304Y-64142714D01*
X36043066Y-64190333D01*
X35995447Y-64237952D01*
X35947828Y-64333190D01*
X35947828Y-64618904D01*
X35995447Y-64714142D01*
X36043066Y-64761761D01*
X36138304Y-64809380D01*
X36281161Y-64809380D01*
X35566876Y-64761761D02*
X35471638Y-64809380D01*
X35281161Y-64809380D01*
X35185923Y-64761761D01*
X35138304Y-64666523D01*
X35138304Y-64618904D01*
X35185923Y-64523666D01*
X35281161Y-64476047D01*
X35424019Y-64476047D01*
X35519257Y-64428428D01*
X35566876Y-64333190D01*
X35566876Y-64285571D01*
X35519257Y-64190333D01*
X35424019Y-64142714D01*
X35281161Y-64142714D01*
X35185923Y-64190333D01*
X34709733Y-64809380D02*
X34709733Y-63809380D01*
X34281161Y-64809380D02*
X34281161Y-64285571D01*
X34328780Y-64190333D01*
X34424019Y-64142714D01*
X34566876Y-64142714D01*
X34662114Y-64190333D01*
X34709733Y-64237952D01*
X33376400Y-64809380D02*
X33376400Y-64285571D01*
X33424019Y-64190333D01*
X33519257Y-64142714D01*
X33709733Y-64142714D01*
X33804971Y-64190333D01*
X33376400Y-64761761D02*
X33471638Y-64809380D01*
X33709733Y-64809380D01*
X33804971Y-64761761D01*
X33852590Y-64666523D01*
X33852590Y-64571285D01*
X33804971Y-64476047D01*
X33709733Y-64428428D01*
X33471638Y-64428428D01*
X33376400Y-64380809D01*
X32900209Y-64142714D02*
X32900209Y-64999857D01*
X32947828Y-65095095D01*
X33043066Y-65142714D01*
X33090685Y-65142714D01*
X32900209Y-63809380D02*
X32947828Y-63857000D01*
X32900209Y-63904619D01*
X32852590Y-63857000D01*
X32900209Y-63809380D01*
X32900209Y-63904619D01*
X32281161Y-64809380D02*
X32376400Y-64761761D01*
X32424019Y-64714142D01*
X32471638Y-64618904D01*
X32471638Y-64333190D01*
X32424019Y-64237952D01*
X32376400Y-64190333D01*
X32281161Y-64142714D01*
X32138304Y-64142714D01*
X32043066Y-64190333D01*
X31995447Y-64237952D01*
X31947828Y-64333190D01*
X31947828Y-64618904D01*
X31995447Y-64714142D01*
X32043066Y-64761761D01*
X32138304Y-64809380D01*
X32281161Y-64809380D01*
X31519257Y-64809380D02*
X31519257Y-63809380D01*
X31090685Y-64809380D02*
X31090685Y-64285571D01*
X31138304Y-64190333D01*
X31233542Y-64142714D01*
X31376400Y-64142714D01*
X31471638Y-64190333D01*
X31519257Y-64237952D01*
X30614495Y-64142714D02*
X30614495Y-64809380D01*
X30614495Y-64237952D02*
X30566876Y-64190333D01*
X30471638Y-64142714D01*
X30328780Y-64142714D01*
X30233542Y-64190333D01*
X30185923Y-64285571D01*
X30185923Y-64809380D01*
X29757352Y-64761761D02*
X29662114Y-64809380D01*
X29471638Y-64809380D01*
X29376400Y-64761761D01*
X29328780Y-64666523D01*
X29328780Y-64618904D01*
X29376400Y-64523666D01*
X29471638Y-64476047D01*
X29614495Y-64476047D01*
X29709733Y-64428428D01*
X29757352Y-64333190D01*
X29757352Y-64285571D01*
X29709733Y-64190333D01*
X29614495Y-64142714D01*
X29471638Y-64142714D01*
X29376400Y-64190333D01*
X28757352Y-64809380D02*
X28852590Y-64761761D01*
X28900209Y-64714142D01*
X28947828Y-64618904D01*
X28947828Y-64333190D01*
X28900209Y-64237952D01*
X28852590Y-64190333D01*
X28757352Y-64142714D01*
X28614495Y-64142714D01*
X28519257Y-64190333D01*
X28471638Y-64237952D01*
X28424019Y-64333190D01*
X28424019Y-64618904D01*
X28471638Y-64714142D01*
X28519257Y-64761761D01*
X28614495Y-64809380D01*
X28757352Y-64809380D01*
X27995447Y-64142714D02*
X27995447Y-64809380D01*
X27995447Y-64237952D02*
X27947828Y-64190333D01*
X27852590Y-64142714D01*
X27709733Y-64142714D01*
X27614495Y-64190333D01*
X27566876Y-64285571D01*
X27566876Y-64809380D01*
X67761904Y-32072619D02*
X67714285Y-32025000D01*
X67619047Y-31977380D01*
X67380952Y-31977380D01*
X67285714Y-32025000D01*
X67238095Y-32072619D01*
X67190476Y-32167857D01*
X67190476Y-32263095D01*
X67238095Y-32405952D01*
X67809523Y-32977380D01*
X67190476Y-32977380D01*
X66238095Y-32977380D02*
X66809523Y-32977380D01*
X66523809Y-32977380D02*
X66523809Y-31977380D01*
X66619047Y-32120238D01*
X66714285Y-32215476D01*
X66809523Y-32263095D01*
X67761904Y-34647619D02*
X67714285Y-34600000D01*
X67619047Y-34552380D01*
X67380952Y-34552380D01*
X67285714Y-34600000D01*
X67238095Y-34647619D01*
X67190476Y-34742857D01*
X67190476Y-34838095D01*
X67238095Y-34980952D01*
X67809523Y-35552380D01*
X67190476Y-35552380D01*
X66857142Y-34552380D02*
X66238095Y-34552380D01*
X66571428Y-34933333D01*
X66428571Y-34933333D01*
X66333333Y-34980952D01*
X66285714Y-35028571D01*
X66238095Y-35123809D01*
X66238095Y-35361904D01*
X66285714Y-35457142D01*
X66333333Y-35504761D01*
X66428571Y-35552380D01*
X66714285Y-35552380D01*
X66809523Y-35504761D01*
X66857142Y-35457142D01*
X75061904Y-32097619D02*
X75014285Y-32050000D01*
X74919047Y-32002380D01*
X74680952Y-32002380D01*
X74585714Y-32050000D01*
X74538095Y-32097619D01*
X74490476Y-32192857D01*
X74490476Y-32288095D01*
X74538095Y-32430952D01*
X75109523Y-33002380D01*
X74490476Y-33002380D01*
X73871428Y-32002380D02*
X73776190Y-32002380D01*
X73680952Y-32050000D01*
X73633333Y-32097619D01*
X73585714Y-32192857D01*
X73538095Y-32383333D01*
X73538095Y-32621428D01*
X73585714Y-32811904D01*
X73633333Y-32907142D01*
X73680952Y-32954761D01*
X73776190Y-33002380D01*
X73871428Y-33002380D01*
X73966666Y-32954761D01*
X74014285Y-32907142D01*
X74061904Y-32811904D01*
X74109523Y-32621428D01*
X74109523Y-32383333D01*
X74061904Y-32192857D01*
X74014285Y-32097619D01*
X73966666Y-32050000D01*
X73871428Y-32002380D01*
X75061904Y-34647619D02*
X75014285Y-34600000D01*
X74919047Y-34552380D01*
X74680952Y-34552380D01*
X74585714Y-34600000D01*
X74538095Y-34647619D01*
X74490476Y-34742857D01*
X74490476Y-34838095D01*
X74538095Y-34980952D01*
X75109523Y-35552380D01*
X74490476Y-35552380D01*
X74109523Y-34647619D02*
X74061904Y-34600000D01*
X73966666Y-34552380D01*
X73728571Y-34552380D01*
X73633333Y-34600000D01*
X73585714Y-34647619D01*
X73538095Y-34742857D01*
X73538095Y-34838095D01*
X73585714Y-34980952D01*
X74157142Y-35552380D01*
X73538095Y-35552380D01*
X45757352Y-38642714D02*
X45757352Y-39452238D01*
X45804971Y-39547476D01*
X45852590Y-39595095D01*
X45947828Y-39642714D01*
X46090685Y-39642714D01*
X46185923Y-39595095D01*
X45757352Y-39261761D02*
X45852590Y-39309380D01*
X46043066Y-39309380D01*
X46138304Y-39261761D01*
X46185923Y-39214142D01*
X46233542Y-39118904D01*
X46233542Y-38833190D01*
X46185923Y-38737952D01*
X46138304Y-38690333D01*
X46043066Y-38642714D01*
X45852590Y-38642714D01*
X45757352Y-38690333D01*
X45281161Y-39309380D02*
X45281161Y-38642714D01*
X45281161Y-38309380D02*
X45328780Y-38357000D01*
X45281161Y-38404619D01*
X45233542Y-38357000D01*
X45281161Y-38309380D01*
X45281161Y-38404619D01*
X44947828Y-38642714D02*
X44566876Y-38642714D01*
X44804971Y-38309380D02*
X44804971Y-39166523D01*
X44757352Y-39261761D01*
X44662114Y-39309380D01*
X44566876Y-39309380D01*
X44233542Y-39309380D02*
X44233542Y-38309380D01*
X43804971Y-39309380D02*
X43804971Y-38785571D01*
X43852590Y-38690333D01*
X43947828Y-38642714D01*
X44090685Y-38642714D01*
X44185923Y-38690333D01*
X44233542Y-38737952D01*
X42900209Y-38642714D02*
X42900209Y-39309380D01*
X43328780Y-38642714D02*
X43328780Y-39166523D01*
X43281161Y-39261761D01*
X43185923Y-39309380D01*
X43043066Y-39309380D01*
X42947828Y-39261761D01*
X42900209Y-39214142D01*
X42424019Y-39309380D02*
X42424019Y-38309380D01*
X42424019Y-38690333D02*
X42328780Y-38642714D01*
X42138304Y-38642714D01*
X42043066Y-38690333D01*
X41995447Y-38737952D01*
X41947828Y-38833190D01*
X41947828Y-39118904D01*
X41995447Y-39214142D01*
X42043066Y-39261761D01*
X42138304Y-39309380D01*
X42328780Y-39309380D01*
X42424019Y-39261761D01*
X41519257Y-39214142D02*
X41471638Y-39261761D01*
X41519257Y-39309380D01*
X41566876Y-39261761D01*
X41519257Y-39214142D01*
X41519257Y-39309380D01*
X40614495Y-39261761D02*
X40709733Y-39309380D01*
X40900209Y-39309380D01*
X40995447Y-39261761D01*
X41043066Y-39214142D01*
X41090685Y-39118904D01*
X41090685Y-38833190D01*
X41043066Y-38737952D01*
X40995447Y-38690333D01*
X40900209Y-38642714D01*
X40709733Y-38642714D01*
X40614495Y-38690333D01*
X40043066Y-39309380D02*
X40138304Y-39261761D01*
X40185923Y-39214142D01*
X40233542Y-39118904D01*
X40233542Y-38833190D01*
X40185923Y-38737952D01*
X40138304Y-38690333D01*
X40043066Y-38642714D01*
X39900209Y-38642714D01*
X39804971Y-38690333D01*
X39757352Y-38737952D01*
X39709733Y-38833190D01*
X39709733Y-39118904D01*
X39757352Y-39214142D01*
X39804971Y-39261761D01*
X39900209Y-39309380D01*
X40043066Y-39309380D01*
X39281161Y-39309380D02*
X39281161Y-38642714D01*
X39281161Y-38737952D02*
X39233542Y-38690333D01*
X39138304Y-38642714D01*
X38995447Y-38642714D01*
X38900209Y-38690333D01*
X38852590Y-38785571D01*
X38852590Y-39309380D01*
X38852590Y-38785571D02*
X38804971Y-38690333D01*
X38709733Y-38642714D01*
X38566876Y-38642714D01*
X38471638Y-38690333D01*
X38424019Y-38785571D01*
X38424019Y-39309380D01*
X37233542Y-38261761D02*
X38090685Y-39547476D01*
X36900209Y-38642714D02*
X36900209Y-39499857D01*
X36947828Y-39595095D01*
X37043066Y-39642714D01*
X37090685Y-39642714D01*
X36900209Y-38309380D02*
X36947828Y-38357000D01*
X36900209Y-38404619D01*
X36852590Y-38357000D01*
X36900209Y-38309380D01*
X36900209Y-38404619D01*
X36281161Y-39309380D02*
X36376400Y-39261761D01*
X36424019Y-39214142D01*
X36471638Y-39118904D01*
X36471638Y-38833190D01*
X36424019Y-38737952D01*
X36376400Y-38690333D01*
X36281161Y-38642714D01*
X36138304Y-38642714D01*
X36043066Y-38690333D01*
X35995447Y-38737952D01*
X35947828Y-38833190D01*
X35947828Y-39118904D01*
X35995447Y-39214142D01*
X36043066Y-39261761D01*
X36138304Y-39309380D01*
X36281161Y-39309380D01*
X35566876Y-39261761D02*
X35471638Y-39309380D01*
X35281161Y-39309380D01*
X35185923Y-39261761D01*
X35138304Y-39166523D01*
X35138304Y-39118904D01*
X35185923Y-39023666D01*
X35281161Y-38976047D01*
X35424019Y-38976047D01*
X35519257Y-38928428D01*
X35566876Y-38833190D01*
X35566876Y-38785571D01*
X35519257Y-38690333D01*
X35424019Y-38642714D01*
X35281161Y-38642714D01*
X35185923Y-38690333D01*
X34709733Y-39309380D02*
X34709733Y-38309380D01*
X34281161Y-39309380D02*
X34281161Y-38785571D01*
X34328780Y-38690333D01*
X34424019Y-38642714D01*
X34566876Y-38642714D01*
X34662114Y-38690333D01*
X34709733Y-38737952D01*
X33376400Y-39309380D02*
X33376400Y-38785571D01*
X33424019Y-38690333D01*
X33519257Y-38642714D01*
X33709733Y-38642714D01*
X33804971Y-38690333D01*
X33376400Y-39261761D02*
X33471638Y-39309380D01*
X33709733Y-39309380D01*
X33804971Y-39261761D01*
X33852590Y-39166523D01*
X33852590Y-39071285D01*
X33804971Y-38976047D01*
X33709733Y-38928428D01*
X33471638Y-38928428D01*
X33376400Y-38880809D01*
X32900209Y-38642714D02*
X32900209Y-39499857D01*
X32947828Y-39595095D01*
X33043066Y-39642714D01*
X33090685Y-39642714D01*
X32900209Y-38309380D02*
X32947828Y-38357000D01*
X32900209Y-38404619D01*
X32852590Y-38357000D01*
X32900209Y-38309380D01*
X32900209Y-38404619D01*
X32281161Y-39309380D02*
X32376400Y-39261761D01*
X32424019Y-39214142D01*
X32471638Y-39118904D01*
X32471638Y-38833190D01*
X32424019Y-38737952D01*
X32376400Y-38690333D01*
X32281161Y-38642714D01*
X32138304Y-38642714D01*
X32043066Y-38690333D01*
X31995447Y-38737952D01*
X31947828Y-38833190D01*
X31947828Y-39118904D01*
X31995447Y-39214142D01*
X32043066Y-39261761D01*
X32138304Y-39309380D01*
X32281161Y-39309380D01*
X31519257Y-39309380D02*
X31519257Y-38309380D01*
X31090685Y-39309380D02*
X31090685Y-38785571D01*
X31138304Y-38690333D01*
X31233542Y-38642714D01*
X31376400Y-38642714D01*
X31471638Y-38690333D01*
X31519257Y-38737952D01*
X30614495Y-38642714D02*
X30614495Y-39309380D01*
X30614495Y-38737952D02*
X30566876Y-38690333D01*
X30471638Y-38642714D01*
X30328780Y-38642714D01*
X30233542Y-38690333D01*
X30185923Y-38785571D01*
X30185923Y-39309380D01*
X29757352Y-39261761D02*
X29662114Y-39309380D01*
X29471638Y-39309380D01*
X29376400Y-39261761D01*
X29328780Y-39166523D01*
X29328780Y-39118904D01*
X29376400Y-39023666D01*
X29471638Y-38976047D01*
X29614495Y-38976047D01*
X29709733Y-38928428D01*
X29757352Y-38833190D01*
X29757352Y-38785571D01*
X29709733Y-38690333D01*
X29614495Y-38642714D01*
X29471638Y-38642714D01*
X29376400Y-38690333D01*
X28757352Y-39309380D02*
X28852590Y-39261761D01*
X28900209Y-39214142D01*
X28947828Y-39118904D01*
X28947828Y-38833190D01*
X28900209Y-38737952D01*
X28852590Y-38690333D01*
X28757352Y-38642714D01*
X28614495Y-38642714D01*
X28519257Y-38690333D01*
X28471638Y-38737952D01*
X28424019Y-38833190D01*
X28424019Y-39118904D01*
X28471638Y-39214142D01*
X28519257Y-39261761D01*
X28614495Y-39309380D01*
X28757352Y-39309380D01*
X27995447Y-38642714D02*
X27995447Y-39309380D01*
X27995447Y-38737952D02*
X27947828Y-38690333D01*
X27852590Y-38642714D01*
X27709733Y-38642714D01*
X27614495Y-38690333D01*
X27566876Y-38785571D01*
X27566876Y-39309380D01*
X46002380Y-37110714D02*
X46002380Y-37967857D01*
X46050000Y-38063095D01*
X46145238Y-38110714D01*
X46192857Y-38110714D01*
X46002380Y-36777380D02*
X46050000Y-36825000D01*
X46002380Y-36872619D01*
X45954761Y-36825000D01*
X46002380Y-36777380D01*
X46002380Y-36872619D01*
X45383333Y-37777380D02*
X45478571Y-37729761D01*
X45526190Y-37682142D01*
X45573809Y-37586904D01*
X45573809Y-37301190D01*
X45526190Y-37205952D01*
X45478571Y-37158333D01*
X45383333Y-37110714D01*
X45240476Y-37110714D01*
X45145238Y-37158333D01*
X45097619Y-37205952D01*
X45050000Y-37301190D01*
X45050000Y-37586904D01*
X45097619Y-37682142D01*
X45145238Y-37729761D01*
X45240476Y-37777380D01*
X45383333Y-37777380D01*
X44669047Y-37729761D02*
X44573809Y-37777380D01*
X44383333Y-37777380D01*
X44288095Y-37729761D01*
X44240476Y-37634523D01*
X44240476Y-37586904D01*
X44288095Y-37491666D01*
X44383333Y-37444047D01*
X44526190Y-37444047D01*
X44621428Y-37396428D01*
X44669047Y-37301190D01*
X44669047Y-37253571D01*
X44621428Y-37158333D01*
X44526190Y-37110714D01*
X44383333Y-37110714D01*
X44288095Y-37158333D01*
X43811904Y-37777380D02*
X43811904Y-36777380D01*
X43383333Y-37777380D02*
X43383333Y-37253571D01*
X43430952Y-37158333D01*
X43526190Y-37110714D01*
X43669047Y-37110714D01*
X43764285Y-37158333D01*
X43811904Y-37205952D01*
X42478571Y-37777380D02*
X42478571Y-37253571D01*
X42526190Y-37158333D01*
X42621428Y-37110714D01*
X42811904Y-37110714D01*
X42907142Y-37158333D01*
X42478571Y-37729761D02*
X42573809Y-37777380D01*
X42811904Y-37777380D01*
X42907142Y-37729761D01*
X42954761Y-37634523D01*
X42954761Y-37539285D01*
X42907142Y-37444047D01*
X42811904Y-37396428D01*
X42573809Y-37396428D01*
X42478571Y-37348809D01*
X42002380Y-37110714D02*
X42002380Y-37967857D01*
X42050000Y-38063095D01*
X42145238Y-38110714D01*
X42192857Y-38110714D01*
X42002380Y-36777380D02*
X42050000Y-36825000D01*
X42002380Y-36872619D01*
X41954761Y-36825000D01*
X42002380Y-36777380D01*
X42002380Y-36872619D01*
X41383333Y-37777380D02*
X41478571Y-37729761D01*
X41526190Y-37682142D01*
X41573809Y-37586904D01*
X41573809Y-37301190D01*
X41526190Y-37205952D01*
X41478571Y-37158333D01*
X41383333Y-37110714D01*
X41240476Y-37110714D01*
X41145238Y-37158333D01*
X41097619Y-37205952D01*
X41050000Y-37301190D01*
X41050000Y-37586904D01*
X41097619Y-37682142D01*
X41145238Y-37729761D01*
X41240476Y-37777380D01*
X41383333Y-37777380D01*
X40621428Y-37777380D02*
X40621428Y-36777380D01*
X40192857Y-37777380D02*
X40192857Y-37253571D01*
X40240476Y-37158333D01*
X40335714Y-37110714D01*
X40478571Y-37110714D01*
X40573809Y-37158333D01*
X40621428Y-37205952D01*
X39716666Y-37110714D02*
X39716666Y-37777380D01*
X39716666Y-37205952D02*
X39669047Y-37158333D01*
X39573809Y-37110714D01*
X39430952Y-37110714D01*
X39335714Y-37158333D01*
X39288095Y-37253571D01*
X39288095Y-37777380D01*
X38859523Y-37729761D02*
X38764285Y-37777380D01*
X38573809Y-37777380D01*
X38478571Y-37729761D01*
X38430952Y-37634523D01*
X38430952Y-37586904D01*
X38478571Y-37491666D01*
X38573809Y-37444047D01*
X38716666Y-37444047D01*
X38811904Y-37396428D01*
X38859523Y-37301190D01*
X38859523Y-37253571D01*
X38811904Y-37158333D01*
X38716666Y-37110714D01*
X38573809Y-37110714D01*
X38478571Y-37158333D01*
X37859523Y-37777380D02*
X37954761Y-37729761D01*
X38002380Y-37682142D01*
X38050000Y-37586904D01*
X38050000Y-37301190D01*
X38002380Y-37205952D01*
X37954761Y-37158333D01*
X37859523Y-37110714D01*
X37716666Y-37110714D01*
X37621428Y-37158333D01*
X37573809Y-37205952D01*
X37526190Y-37301190D01*
X37526190Y-37586904D01*
X37573809Y-37682142D01*
X37621428Y-37729761D01*
X37716666Y-37777380D01*
X37859523Y-37777380D01*
X37097619Y-37110714D02*
X37097619Y-37777380D01*
X37097619Y-37205952D02*
X37050000Y-37158333D01*
X36954761Y-37110714D01*
X36811904Y-37110714D01*
X36716666Y-37158333D01*
X36669047Y-37253571D01*
X36669047Y-37777380D01*
X36192857Y-37682142D02*
X36145238Y-37729761D01*
X36192857Y-37777380D01*
X36240476Y-37729761D01*
X36192857Y-37682142D01*
X36192857Y-37777380D01*
X35288095Y-37729761D02*
X35383333Y-37777380D01*
X35573809Y-37777380D01*
X35669047Y-37729761D01*
X35716666Y-37682142D01*
X35764285Y-37586904D01*
X35764285Y-37301190D01*
X35716666Y-37205952D01*
X35669047Y-37158333D01*
X35573809Y-37110714D01*
X35383333Y-37110714D01*
X35288095Y-37158333D01*
X34716666Y-37777380D02*
X34811904Y-37729761D01*
X34859523Y-37682142D01*
X34907142Y-37586904D01*
X34907142Y-37301190D01*
X34859523Y-37205952D01*
X34811904Y-37158333D01*
X34716666Y-37110714D01*
X34573809Y-37110714D01*
X34478571Y-37158333D01*
X34430952Y-37205952D01*
X34383333Y-37301190D01*
X34383333Y-37586904D01*
X34430952Y-37682142D01*
X34478571Y-37729761D01*
X34573809Y-37777380D01*
X34716666Y-37777380D01*
X33954761Y-37777380D02*
X33954761Y-37110714D01*
X33954761Y-37205952D02*
X33907142Y-37158333D01*
X33811904Y-37110714D01*
X33669047Y-37110714D01*
X33573809Y-37158333D01*
X33526190Y-37253571D01*
X33526190Y-37777380D01*
X33526190Y-37253571D02*
X33478571Y-37158333D01*
X33383333Y-37110714D01*
X33240476Y-37110714D01*
X33145238Y-37158333D01*
X33097619Y-37253571D01*
X33097619Y-37777380D01*
M02*
