G04 #@! TF.GenerationSoftware,KiCad,Pcbnew,(5.1.2)-1*
G04 #@! TF.CreationDate,2019-07-17T11:07:14+10:00*
G04 #@! TF.ProjectId,7seg-dip-wing,37736567-2d64-4697-902d-77696e672e6b,rev?*
G04 #@! TF.SameCoordinates,Original*
G04 #@! TF.FileFunction,Copper,L2,Bot*
G04 #@! TF.FilePolarity,Positive*
%FSLAX46Y46*%
G04 Gerber Fmt 4.6, Leading zero omitted, Abs format (unit mm)*
G04 Created by KiCad (PCBNEW (5.1.2)-1) date 2019-07-17 11:07:14*
%MOMM*%
%LPD*%
G04 APERTURE LIST*
%ADD10C,1.500000*%
%ADD11R,1.500000X1.500000*%
%ADD12C,1.700000*%
%ADD13C,3.556000*%
%ADD14R,0.500000X0.400000*%
%ADD15R,0.500000X0.300000*%
%ADD16R,0.400000X0.650000*%
%ADD17R,0.800000X1.000000*%
%ADD18R,1.500000X0.700000*%
%ADD19R,0.400000X0.500000*%
%ADD20R,0.300000X0.500000*%
%ADD21R,1.600000X1.600000*%
%ADD22O,1.600000X1.600000*%
%ADD23C,0.500000*%
%ADD24C,0.200000*%
%ADD25C,0.250000*%
%ADD26C,0.300000*%
G04 APERTURE END LIST*
D10*
X50900000Y-51360000D03*
X53440000Y-51360000D03*
X55980000Y-51360000D03*
X58520000Y-51360000D03*
X61060000Y-51360000D03*
X63600000Y-51360000D03*
X66140000Y-51360000D03*
X68680000Y-51360000D03*
X71220000Y-51360000D03*
X71220000Y-66600000D03*
X68680000Y-66600000D03*
X66140000Y-66600000D03*
X63600000Y-66600000D03*
X61060000Y-66600000D03*
X58520000Y-66600000D03*
X55980000Y-66600000D03*
X53440000Y-66600000D03*
D11*
X50900000Y-66600000D03*
D12*
X54308601Y-69215001D03*
X56848601Y-69215001D03*
X59388601Y-69215001D03*
X61928601Y-69215001D03*
X64468601Y-69215001D03*
X67008601Y-69215001D03*
X69548601Y-69215001D03*
X72088601Y-69215001D03*
X74628601Y-69215001D03*
X77168601Y-69215001D03*
X79708601Y-69215001D03*
X82248601Y-69215001D03*
X84788601Y-69215001D03*
X87328601Y-69215001D03*
X51768601Y-69215001D03*
X89868601Y-69215001D03*
X61928601Y-48895001D03*
X64468601Y-48895001D03*
X67008601Y-48895001D03*
X69548601Y-48895001D03*
X72088601Y-48895001D03*
X74628601Y-48895001D03*
X77168601Y-48895001D03*
X79708601Y-48895001D03*
X82248601Y-48895001D03*
X84788601Y-48895001D03*
X87328601Y-48895001D03*
X89868601Y-48895001D03*
D13*
X47958601Y-50165001D03*
X93678601Y-50165001D03*
X47958601Y-67945001D03*
X93678601Y-67945001D03*
D14*
X69700000Y-60450000D03*
D15*
X69700000Y-59950000D03*
D14*
X69700000Y-58950000D03*
D15*
X69700000Y-59450000D03*
D14*
X70700000Y-60450000D03*
D15*
X70700000Y-59450000D03*
X70700000Y-59950000D03*
D14*
X70700000Y-58950000D03*
X69700000Y-57850000D03*
D15*
X69700000Y-57350000D03*
D14*
X69700000Y-56350000D03*
D15*
X69700000Y-56850000D03*
D14*
X70700000Y-57850000D03*
D15*
X70700000Y-56850000D03*
X70700000Y-57350000D03*
D14*
X70700000Y-56350000D03*
D16*
X62950000Y-55700000D03*
X61650000Y-55700000D03*
X62300000Y-57600000D03*
X62300000Y-55700000D03*
X61650000Y-57600000D03*
X62950000Y-57600000D03*
D17*
X48680000Y-62650000D03*
X48680000Y-55350000D03*
X46470000Y-55350000D03*
X46470000Y-62650000D03*
D18*
X49330000Y-56750000D03*
X49330000Y-58250000D03*
X49330000Y-61250000D03*
D19*
X87050000Y-59700000D03*
D20*
X87550000Y-59700000D03*
D19*
X88550000Y-59700000D03*
D20*
X88050000Y-59700000D03*
D19*
X87050000Y-60700000D03*
D20*
X88050000Y-60700000D03*
X87550000Y-60700000D03*
D19*
X88550000Y-60700000D03*
D21*
X95100000Y-55300000D03*
D22*
X77320000Y-62920000D03*
X92560000Y-55300000D03*
X79860000Y-62920000D03*
X90020000Y-55300000D03*
X82400000Y-62920000D03*
X87480000Y-55300000D03*
X84940000Y-62920000D03*
X84940000Y-55300000D03*
X87480000Y-62920000D03*
X82400000Y-55300000D03*
X90020000Y-62920000D03*
X79860000Y-55300000D03*
X92560000Y-62920000D03*
X77320000Y-55300000D03*
X95100000Y-62920000D03*
D19*
X86000000Y-60700000D03*
D20*
X85000000Y-60700000D03*
X85500000Y-60700000D03*
D19*
X84500000Y-60700000D03*
D20*
X85500000Y-59700000D03*
D19*
X86000000Y-59700000D03*
D20*
X85000000Y-59700000D03*
D19*
X84500000Y-59700000D03*
D23*
X62300000Y-56700000D03*
X62200000Y-67600000D03*
X57200000Y-67600000D03*
X54600000Y-67500000D03*
X56900000Y-64400000D03*
X65000000Y-67600000D03*
X47500000Y-55000000D03*
X53000000Y-60650000D03*
X47500000Y-65000000D03*
X57500000Y-55900000D03*
X78300000Y-60000000D03*
X83300000Y-60000000D03*
X90800000Y-60000000D03*
X95800000Y-60000000D03*
X90000000Y-65000000D03*
X72500000Y-55000000D03*
X86200000Y-53800000D03*
X82800000Y-50600000D03*
X57550000Y-60650000D03*
X53100000Y-55600000D03*
X64500000Y-61300000D03*
X62300000Y-54700000D03*
X54524499Y-63924499D03*
X63800000Y-61900000D03*
X63200000Y-62500000D03*
X58900000Y-53900000D03*
X62300000Y-65500000D03*
X60260000Y-64860000D03*
X62000000Y-64100000D03*
X63750000Y-64250000D03*
X61499996Y-62600000D03*
D24*
X84500000Y-60700000D02*
X84500000Y-60750000D01*
X84500000Y-60750000D02*
X84550000Y-60700000D01*
D25*
X62300000Y-57550000D02*
X62300000Y-56700000D01*
D26*
X95100000Y-62920000D02*
X92620000Y-62920000D01*
X92620000Y-62920000D02*
X92600000Y-62900000D01*
X92600000Y-62900000D02*
X90000000Y-62900000D01*
X90000000Y-62900000D02*
X87500000Y-62900000D01*
X87500000Y-62900000D02*
X85000000Y-62900000D01*
X85000000Y-62900000D02*
X82400000Y-62900000D01*
X82400000Y-62900000D02*
X79900000Y-62900000D01*
X79900000Y-62900000D02*
X77300000Y-62900000D01*
D25*
X62300000Y-55650000D02*
X62300000Y-54700000D01*
D24*
X51850000Y-61250000D02*
X54524499Y-63924499D01*
X49330000Y-61250000D02*
X51850000Y-61250000D01*
X81200000Y-56600000D02*
X79900000Y-55300000D01*
X82400000Y-56600000D02*
X81200000Y-56600000D01*
X85000000Y-59700000D02*
X85000000Y-59200000D01*
X85000000Y-59200000D02*
X82400000Y-56600000D01*
D25*
X79800000Y-54100000D02*
X79800000Y-55200000D01*
X74600000Y-48900000D02*
X79800000Y-54100000D01*
D24*
X84500000Y-59300000D02*
X84500000Y-59700000D01*
X82300000Y-57100000D02*
X84500000Y-59300000D01*
X77320000Y-55300000D02*
X79120000Y-57100000D01*
X79120000Y-57100000D02*
X82300000Y-57100000D01*
D25*
X77300000Y-54100000D02*
X77300000Y-55300000D01*
X72100000Y-48900000D02*
X77300000Y-54100000D01*
D24*
X85500000Y-59700000D02*
X85500000Y-59250000D01*
X85500000Y-59250000D02*
X85500000Y-58400000D01*
X85500000Y-58400000D02*
X82400000Y-55300000D01*
D25*
X82400000Y-54200000D02*
X82400000Y-55400000D01*
X77200000Y-48900000D02*
X77200000Y-49000000D01*
X77200000Y-49000000D02*
X82400000Y-54200000D01*
D24*
X86000000Y-59700000D02*
X86000000Y-56400000D01*
X86000000Y-56400000D02*
X84900000Y-55300000D01*
D25*
X84940000Y-54140000D02*
X84940000Y-55300000D01*
X79700000Y-48900000D02*
X84940000Y-54140000D01*
D24*
X94400000Y-56000000D02*
X95100000Y-55300000D01*
X88550000Y-59650000D02*
X88600000Y-59600000D01*
X88600000Y-59600000D02*
X88600000Y-59100000D01*
X88600000Y-59100000D02*
X90700000Y-57000000D01*
X88550000Y-59700000D02*
X88550000Y-59650000D01*
X90700000Y-57000000D02*
X93400000Y-57000000D01*
X93400000Y-57000000D02*
X94400000Y-56000000D01*
D25*
X95100000Y-55300000D02*
X90600000Y-50800000D01*
X89800000Y-50000000D02*
X89800000Y-48800000D01*
X90600000Y-50800000D02*
X89800000Y-50000000D01*
D24*
X88050000Y-59700000D02*
X88050000Y-58784300D01*
X88050000Y-58784300D02*
X90234300Y-56600000D01*
X91200000Y-56600000D02*
X92500000Y-55300000D01*
X90234300Y-56600000D02*
X91200000Y-56600000D01*
D25*
X87400000Y-49000000D02*
X87200000Y-49000000D01*
X92500000Y-55300000D02*
X92500000Y-54100000D01*
X92500000Y-54100000D02*
X87400000Y-49000000D01*
D24*
X74900066Y-63740166D02*
X76059911Y-64900011D01*
X82100011Y-64900011D02*
X84800000Y-67600000D01*
X70600000Y-56850000D02*
X72084300Y-56850000D01*
X84800000Y-67600000D02*
X84800000Y-69200000D01*
X72084300Y-56850000D02*
X74900066Y-59665766D01*
X76059911Y-64900011D02*
X82100011Y-64900011D01*
X74900066Y-59665766D02*
X74900066Y-63740166D01*
X72615688Y-68050012D02*
X70649988Y-68050012D01*
X72250000Y-60450000D02*
X72500000Y-60700000D01*
X72500000Y-60700000D02*
X72500000Y-65165700D01*
X70649988Y-68050012D02*
X69500000Y-69200000D01*
X72500000Y-65165700D02*
X72900011Y-65565711D01*
X72900011Y-65565711D02*
X72900011Y-67765689D01*
X70600000Y-60450000D02*
X72250000Y-60450000D01*
X72900011Y-67765689D02*
X72615688Y-68050012D01*
X72150000Y-56350000D02*
X75300077Y-59500077D01*
X75300077Y-59500077D02*
X75300077Y-63574477D01*
X75300077Y-63574477D02*
X76225600Y-64500000D01*
X70600000Y-56350000D02*
X72150000Y-56350000D01*
X76225600Y-64500000D02*
X82600000Y-64500000D01*
X82600000Y-64500000D02*
X87300000Y-69200000D01*
X72450000Y-58950000D02*
X73700033Y-60200033D01*
X73700033Y-64237233D02*
X77200000Y-67737200D01*
X70600000Y-58950000D02*
X72450000Y-58950000D01*
X73700033Y-60200033D02*
X73700033Y-64237233D01*
X77200000Y-67737200D02*
X77200000Y-69200000D01*
X70600000Y-59950000D02*
X72318600Y-59950000D01*
X72318600Y-59950000D02*
X72900011Y-60531411D01*
X72900011Y-65000011D02*
X73300022Y-65400022D01*
X73300022Y-67999978D02*
X72100000Y-69200000D01*
X73300022Y-65400022D02*
X73300022Y-67999978D01*
X72900011Y-60531411D02*
X72900011Y-65000011D01*
X82300000Y-66500000D02*
X82300000Y-69300000D01*
X72018600Y-57350000D02*
X74500055Y-59831455D01*
X74500055Y-59831455D02*
X74500055Y-63905855D01*
X74500055Y-63905855D02*
X75894222Y-65300022D01*
X75894222Y-65300022D02*
X81100022Y-65300022D01*
X70600000Y-57350000D02*
X72018600Y-57350000D01*
X81100022Y-65300022D02*
X82300000Y-66500000D01*
X73300022Y-60365722D02*
X73300022Y-64402922D01*
X72384300Y-59450000D02*
X73300022Y-60365722D01*
X73300022Y-64402922D02*
X74600000Y-65702900D01*
X74600000Y-65702900D02*
X74600000Y-69200000D01*
X70600000Y-59450000D02*
X72384300Y-59450000D01*
X79600000Y-66200000D02*
X79600000Y-69100000D01*
X79600000Y-69100000D02*
X79700000Y-69200000D01*
X79100033Y-65700033D02*
X79600000Y-66200000D01*
X75728533Y-65700033D02*
X79100033Y-65700033D01*
X74100044Y-64071544D02*
X75728533Y-65700033D01*
X74100044Y-59997144D02*
X74100044Y-64071544D01*
X71952900Y-57850000D02*
X74100044Y-59997144D01*
X70600000Y-57850000D02*
X71952900Y-57850000D01*
X63600000Y-52900000D02*
X63600000Y-51400000D01*
X62950000Y-55650000D02*
X62950000Y-53550000D01*
X62950000Y-53550000D02*
X63600000Y-52900000D01*
X61000000Y-51500000D02*
X61100000Y-51400000D01*
X61000000Y-52900000D02*
X61000000Y-51500000D01*
X61650000Y-55650000D02*
X61650000Y-53550000D01*
X61650000Y-53550000D02*
X61000000Y-52900000D01*
D25*
X62950000Y-61050000D02*
X63800000Y-61900000D01*
X62900000Y-57500000D02*
X62950000Y-57550000D01*
X62950000Y-57550000D02*
X62950000Y-61050000D01*
X61650000Y-60950000D02*
X63200000Y-62500000D01*
X61650000Y-57600000D02*
X61650000Y-60950000D01*
D24*
X60350000Y-49800000D02*
X60750000Y-50200000D01*
X60750000Y-50200000D02*
X68250000Y-50200000D01*
X50750000Y-58250000D02*
X52200000Y-56800000D01*
X52200000Y-56800000D02*
X52200000Y-50350000D01*
X52200000Y-50350000D02*
X52750000Y-49800000D01*
X68250000Y-50200000D02*
X69550000Y-48900000D01*
X49330000Y-58250000D02*
X50750000Y-58250000D01*
X52750000Y-49800000D02*
X60350000Y-49800000D01*
X87550000Y-59700000D02*
X87550000Y-57750000D01*
X87550000Y-57750000D02*
X90000000Y-55300000D01*
D25*
X89220000Y-53320000D02*
X84800000Y-48900000D01*
X90020000Y-54140000D02*
X89200000Y-53320000D01*
X90020000Y-55300000D02*
X90020000Y-54140000D01*
D24*
X87050000Y-59700000D02*
X87050000Y-57250000D01*
X87050000Y-57250000D02*
X87500000Y-56800000D01*
X87500000Y-56800000D02*
X87500000Y-55300000D01*
D25*
X87480000Y-53880000D02*
X87480000Y-55300000D01*
X82400000Y-48800000D02*
X87480000Y-53880000D01*
X82200000Y-48900000D02*
X82200000Y-48800000D01*
X82200000Y-48800000D02*
X82400000Y-48800000D01*
X61060000Y-66600000D02*
X59660000Y-65200000D01*
X59660000Y-65200000D02*
X59200000Y-65200000D01*
D24*
X68750000Y-57850000D02*
X63349999Y-63250001D01*
X60749999Y-63250001D02*
X59200000Y-64800000D01*
X63349999Y-63250001D02*
X60749999Y-63250001D01*
X59200000Y-64800000D02*
X59200000Y-65200000D01*
X69500000Y-57850000D02*
X68750000Y-57850000D01*
D25*
X52200000Y-65200000D02*
X50900000Y-66500000D01*
X53300000Y-65200000D02*
X52200000Y-65200000D01*
X59200000Y-65200000D02*
X53300000Y-65200000D01*
D24*
X67500000Y-52700000D02*
X66100000Y-51300000D01*
X67500000Y-56300000D02*
X67500000Y-52700000D01*
X69500000Y-57350000D02*
X68550000Y-57350000D01*
X68550000Y-57350000D02*
X67500000Y-56300000D01*
D25*
X58520000Y-51360000D02*
X58520000Y-53520000D01*
X58520000Y-53520000D02*
X58900000Y-53900000D01*
D24*
X68300000Y-54300000D02*
X71200000Y-51400000D01*
X68300000Y-55800000D02*
X68300000Y-54300000D01*
X69600000Y-56350000D02*
X68850000Y-56350000D01*
X68850000Y-56350000D02*
X68300000Y-55800000D01*
X69500000Y-56850000D02*
X68750000Y-56850000D01*
X68750000Y-56850000D02*
X67900000Y-56000000D01*
X67900000Y-56000000D02*
X67900000Y-52200000D01*
X67900000Y-52200000D02*
X68700000Y-51400000D01*
D25*
X67600000Y-65500000D02*
X68700000Y-66600000D01*
X62300000Y-65500000D02*
X67600000Y-65500000D01*
D24*
X69730001Y-67650001D02*
X68680000Y-66600000D01*
X72149999Y-67650001D02*
X69730001Y-67650001D01*
X72500000Y-67300000D02*
X72149999Y-67650001D01*
X72500000Y-66000000D02*
X72500000Y-67300000D01*
X68850000Y-60450000D02*
X68800000Y-60500000D01*
X69500000Y-60450000D02*
X68850000Y-60450000D01*
X68800000Y-60500000D02*
X68800000Y-63500000D01*
X70500000Y-65200000D02*
X71700000Y-65200000D01*
X68800000Y-63500000D02*
X70500000Y-65200000D01*
X71700000Y-65200000D02*
X72500000Y-66000000D01*
D25*
X60613553Y-64860000D02*
X60260000Y-64860000D01*
X70160000Y-65540000D02*
X69480000Y-64860000D01*
X71220000Y-66600000D02*
X70160000Y-65540000D01*
X69480000Y-64860000D02*
X68340000Y-64860000D01*
X68340000Y-64860000D02*
X60613553Y-64860000D01*
D24*
X68000000Y-64860000D02*
X68340000Y-64860000D01*
X68000000Y-60700000D02*
X68000000Y-64860000D01*
X69500000Y-59950000D02*
X68750000Y-59950000D01*
X68750000Y-59950000D02*
X68000000Y-60700000D01*
X62400000Y-63700000D02*
X62000000Y-64100000D01*
X63600000Y-63700000D02*
X62400000Y-63700000D01*
X69500000Y-58950000D02*
X68350000Y-58950000D01*
X68350000Y-58950000D02*
X63600000Y-63700000D01*
X69500000Y-59450000D02*
X68550000Y-59450000D01*
X68550000Y-59450000D02*
X63750000Y-64250000D01*
D25*
X53400000Y-54500004D02*
X61499996Y-62600000D01*
X53400000Y-51400000D02*
X53400000Y-54500004D01*
D24*
G36*
X71355519Y-48001738D02*
G01*
X71195338Y-48161919D01*
X71069485Y-48350272D01*
X70982795Y-48559558D01*
X70938601Y-48781736D01*
X70938601Y-49008266D01*
X70982795Y-49230444D01*
X71069485Y-49439730D01*
X71195338Y-49628083D01*
X71355519Y-49788264D01*
X71543872Y-49914117D01*
X71753158Y-50000807D01*
X71975336Y-50045001D01*
X72201866Y-50045001D01*
X72424044Y-50000807D01*
X72548299Y-49949339D01*
X76875000Y-54276040D01*
X76875000Y-54290581D01*
X76705916Y-54380958D01*
X76538419Y-54518419D01*
X76400958Y-54685916D01*
X76298816Y-54877012D01*
X76235916Y-55084362D01*
X76214678Y-55300000D01*
X76235916Y-55515638D01*
X76298816Y-55722988D01*
X76400958Y-55914084D01*
X76538419Y-56081581D01*
X76705916Y-56219042D01*
X76897012Y-56321184D01*
X77104362Y-56384084D01*
X77265964Y-56400000D01*
X77374036Y-56400000D01*
X77535638Y-56384084D01*
X77742988Y-56321184D01*
X77764175Y-56309860D01*
X78823263Y-57368948D01*
X78835789Y-57384211D01*
X78896697Y-57434197D01*
X78966186Y-57471340D01*
X79041586Y-57494212D01*
X79100353Y-57500000D01*
X79100363Y-57500000D01*
X79119999Y-57501934D01*
X79139635Y-57500000D01*
X82134315Y-57500000D01*
X84009267Y-59374953D01*
X84004341Y-59391190D01*
X83998549Y-59450000D01*
X83998549Y-59950000D01*
X84004341Y-60008810D01*
X84021496Y-60065360D01*
X84049353Y-60117477D01*
X84086842Y-60163158D01*
X84123852Y-60193531D01*
X84079736Y-60229736D01*
X84040997Y-60276940D01*
X84012212Y-60330794D01*
X83994485Y-60389229D01*
X83988500Y-60450000D01*
X83990000Y-60617500D01*
X84067500Y-60695000D01*
X84495000Y-60695000D01*
X84495000Y-60675000D01*
X84505000Y-60675000D01*
X84505000Y-60695000D01*
X84995000Y-60695000D01*
X84995000Y-60675000D01*
X85005000Y-60675000D01*
X85005000Y-60695000D01*
X85495000Y-60695000D01*
X85495000Y-60675000D01*
X85505000Y-60675000D01*
X85505000Y-60695000D01*
X85995000Y-60695000D01*
X85995000Y-60675000D01*
X86005000Y-60675000D01*
X86005000Y-60695000D01*
X86432500Y-60695000D01*
X86510000Y-60617500D01*
X86511500Y-60450000D01*
X86505515Y-60389229D01*
X86487788Y-60330794D01*
X86459003Y-60276940D01*
X86420264Y-60229736D01*
X86376148Y-60193531D01*
X86413158Y-60163158D01*
X86450647Y-60117477D01*
X86478504Y-60065360D01*
X86495659Y-60008810D01*
X86501451Y-59950000D01*
X86501451Y-59450000D01*
X86495659Y-59391190D01*
X86478504Y-59334640D01*
X86450647Y-59282523D01*
X86413158Y-59236842D01*
X86400000Y-59226044D01*
X86400000Y-56419646D01*
X86401935Y-56400000D01*
X86397011Y-56350000D01*
X86394212Y-56321586D01*
X86388727Y-56303504D01*
X86371340Y-56246185D01*
X86334197Y-56176697D01*
X86296735Y-56131049D01*
X86296733Y-56131047D01*
X86284211Y-56115789D01*
X86268953Y-56103267D01*
X85935927Y-55770241D01*
X85961184Y-55722988D01*
X86024084Y-55515638D01*
X86045322Y-55300000D01*
X86024084Y-55084362D01*
X85961184Y-54877012D01*
X85859042Y-54685916D01*
X85721581Y-54518419D01*
X85554084Y-54380958D01*
X85365000Y-54279891D01*
X85365000Y-54160866D01*
X85367055Y-54139999D01*
X85365000Y-54119132D01*
X85365000Y-54119126D01*
X85358850Y-54056686D01*
X85334548Y-53976573D01*
X85295084Y-53902740D01*
X85241974Y-53838026D01*
X85225763Y-53824722D01*
X80760830Y-49359790D01*
X80814407Y-49230444D01*
X80858601Y-49008266D01*
X80858601Y-48781736D01*
X80814407Y-48559558D01*
X80727717Y-48350272D01*
X80601864Y-48161919D01*
X80441683Y-48001738D01*
X80364253Y-47950001D01*
X81592949Y-47950001D01*
X81515519Y-48001738D01*
X81355338Y-48161919D01*
X81229485Y-48350272D01*
X81142795Y-48559558D01*
X81098601Y-48781736D01*
X81098601Y-49008266D01*
X81142795Y-49230444D01*
X81229485Y-49439730D01*
X81355338Y-49628083D01*
X81515519Y-49788264D01*
X81703872Y-49914117D01*
X81913158Y-50000807D01*
X82135336Y-50045001D01*
X82361866Y-50045001D01*
X82584044Y-50000807D01*
X82793330Y-49914117D01*
X82865113Y-49866153D01*
X87055000Y-54056041D01*
X87055000Y-54279891D01*
X86865916Y-54380958D01*
X86698419Y-54518419D01*
X86560958Y-54685916D01*
X86458816Y-54877012D01*
X86395916Y-55084362D01*
X86374678Y-55300000D01*
X86395916Y-55515638D01*
X86458816Y-55722988D01*
X86560958Y-55914084D01*
X86698419Y-56081581D01*
X86865916Y-56219042D01*
X87057012Y-56321184D01*
X87100000Y-56334225D01*
X87100000Y-56634314D01*
X86781047Y-56953268D01*
X86765790Y-56965789D01*
X86753268Y-56981047D01*
X86753265Y-56981050D01*
X86715803Y-57026698D01*
X86678661Y-57096186D01*
X86655788Y-57171587D01*
X86648065Y-57250000D01*
X86650001Y-57269656D01*
X86650000Y-59226043D01*
X86636842Y-59236842D01*
X86599353Y-59282523D01*
X86571496Y-59334640D01*
X86554341Y-59391190D01*
X86548549Y-59450000D01*
X86548549Y-59950000D01*
X86554341Y-60008810D01*
X86571496Y-60065360D01*
X86599353Y-60117477D01*
X86636842Y-60163158D01*
X86673852Y-60193531D01*
X86629736Y-60229736D01*
X86590997Y-60276940D01*
X86562212Y-60330794D01*
X86544485Y-60389229D01*
X86538500Y-60450000D01*
X86540000Y-60617500D01*
X86617500Y-60695000D01*
X87045000Y-60695000D01*
X87045000Y-60675000D01*
X87055000Y-60675000D01*
X87055000Y-60695000D01*
X87545000Y-60695000D01*
X87545000Y-60675000D01*
X87555000Y-60675000D01*
X87555000Y-60695000D01*
X88045000Y-60695000D01*
X88045000Y-60675000D01*
X88055000Y-60675000D01*
X88055000Y-60695000D01*
X88545000Y-60695000D01*
X88545000Y-60675000D01*
X88555000Y-60675000D01*
X88555000Y-60695000D01*
X88982500Y-60695000D01*
X89060000Y-60617500D01*
X89061500Y-60450000D01*
X89055515Y-60389229D01*
X89037788Y-60330794D01*
X89009003Y-60276940D01*
X88970264Y-60229736D01*
X88926148Y-60193531D01*
X88963158Y-60163158D01*
X89000647Y-60117477D01*
X89028504Y-60065360D01*
X89045659Y-60008810D01*
X89051451Y-59950000D01*
X89051451Y-59450000D01*
X89045659Y-59391190D01*
X89028504Y-59334640D01*
X89000647Y-59282523D01*
X89000000Y-59281735D01*
X89000000Y-59265685D01*
X90865685Y-57400000D01*
X93380354Y-57400000D01*
X93400000Y-57401935D01*
X93419646Y-57400000D01*
X93419647Y-57400000D01*
X93478414Y-57394212D01*
X93553814Y-57371340D01*
X93623303Y-57334197D01*
X93684211Y-57284211D01*
X93696737Y-57268948D01*
X94564234Y-56401451D01*
X95900000Y-56401451D01*
X95958810Y-56395659D01*
X96015360Y-56378504D01*
X96067477Y-56350647D01*
X96113158Y-56313158D01*
X96150647Y-56267477D01*
X96178504Y-56215360D01*
X96195659Y-56158810D01*
X96201451Y-56100000D01*
X96201451Y-54500000D01*
X96195659Y-54441190D01*
X96178504Y-54384640D01*
X96150647Y-54332523D01*
X96113158Y-54286842D01*
X96067477Y-54249353D01*
X96015360Y-54221496D01*
X95958810Y-54204341D01*
X95900000Y-54198549D01*
X94599590Y-54198549D01*
X90915285Y-50514245D01*
X90915280Y-50514239D01*
X90361377Y-49960336D01*
X91600601Y-49960336D01*
X91600601Y-50369666D01*
X91680457Y-50771131D01*
X91837101Y-51149303D01*
X92064513Y-51489649D01*
X92353953Y-51779089D01*
X92694299Y-52006501D01*
X93072471Y-52163145D01*
X93473936Y-52243001D01*
X93883266Y-52243001D01*
X94284731Y-52163145D01*
X94662903Y-52006501D01*
X95003249Y-51779089D01*
X95292689Y-51489649D01*
X95520101Y-51149303D01*
X95676745Y-50771131D01*
X95756601Y-50369666D01*
X95756601Y-49960336D01*
X95676745Y-49558871D01*
X95520101Y-49180699D01*
X95292689Y-48840353D01*
X95003249Y-48550913D01*
X94662903Y-48323501D01*
X94284731Y-48166857D01*
X93883266Y-48087001D01*
X93473936Y-48087001D01*
X93072471Y-48166857D01*
X92694299Y-48323501D01*
X92353953Y-48550913D01*
X92064513Y-48840353D01*
X91837101Y-49180699D01*
X91680457Y-49558871D01*
X91600601Y-49960336D01*
X90361377Y-49960336D01*
X90343912Y-49942871D01*
X90413330Y-49914117D01*
X90601683Y-49788264D01*
X90761864Y-49628083D01*
X90887717Y-49439730D01*
X90974407Y-49230444D01*
X91018601Y-49008266D01*
X91018601Y-48781736D01*
X90974407Y-48559558D01*
X90887717Y-48350272D01*
X90761864Y-48161919D01*
X90601683Y-48001738D01*
X90524253Y-47950001D01*
X95256304Y-47950001D01*
X95702127Y-47993714D01*
X96115679Y-48118573D01*
X96497101Y-48321379D01*
X96831868Y-48594407D01*
X97107225Y-48927257D01*
X97312692Y-49307261D01*
X97440433Y-49719924D01*
X97487199Y-50164872D01*
X97487202Y-50165726D01*
X97486734Y-67974728D01*
X97434835Y-68416529D01*
X97302059Y-68827611D01*
X97091969Y-69205068D01*
X96812562Y-69534532D01*
X96474485Y-69803451D01*
X96090610Y-70001583D01*
X95674608Y-70121656D01*
X95257297Y-70160001D01*
X90550135Y-70160001D01*
X90634470Y-69987941D01*
X89868601Y-69222072D01*
X89102732Y-69987941D01*
X89187067Y-70160001D01*
X87984253Y-70160001D01*
X88061683Y-70108264D01*
X88221864Y-69948083D01*
X88347717Y-69759730D01*
X88434407Y-69550444D01*
X88478601Y-69328266D01*
X88478601Y-69174236D01*
X88703702Y-69174236D01*
X88718133Y-69402280D01*
X88776775Y-69623127D01*
X88877375Y-69828290D01*
X88922670Y-69896079D01*
X89095661Y-69980870D01*
X89861530Y-69215001D01*
X89875672Y-69215001D01*
X90641541Y-69980870D01*
X90814532Y-69896079D01*
X90929228Y-69698451D01*
X91003164Y-69482243D01*
X91033500Y-69255766D01*
X91019069Y-69027722D01*
X90960427Y-68806875D01*
X90859827Y-68601712D01*
X90814532Y-68533923D01*
X90641541Y-68449132D01*
X89875672Y-69215001D01*
X89861530Y-69215001D01*
X89095661Y-68449132D01*
X88922670Y-68533923D01*
X88807974Y-68731551D01*
X88734038Y-68947759D01*
X88703702Y-69174236D01*
X88478601Y-69174236D01*
X88478601Y-69101736D01*
X88434407Y-68879558D01*
X88347717Y-68670272D01*
X88221864Y-68481919D01*
X88182006Y-68442061D01*
X89102732Y-68442061D01*
X89868601Y-69207930D01*
X90634470Y-68442061D01*
X90549679Y-68269070D01*
X90352051Y-68154374D01*
X90135843Y-68080438D01*
X89909366Y-68050102D01*
X89681322Y-68064533D01*
X89460475Y-68123175D01*
X89255312Y-68223775D01*
X89187523Y-68269070D01*
X89102732Y-68442061D01*
X88182006Y-68442061D01*
X88061683Y-68321738D01*
X87873330Y-68195885D01*
X87664044Y-68109195D01*
X87441866Y-68065001D01*
X87215336Y-68065001D01*
X86993158Y-68109195D01*
X86838813Y-68173127D01*
X86406022Y-67740336D01*
X91600601Y-67740336D01*
X91600601Y-68149666D01*
X91680457Y-68551131D01*
X91837101Y-68929303D01*
X92064513Y-69269649D01*
X92353953Y-69559089D01*
X92694299Y-69786501D01*
X93072471Y-69943145D01*
X93473936Y-70023001D01*
X93883266Y-70023001D01*
X94284731Y-69943145D01*
X94662903Y-69786501D01*
X95003249Y-69559089D01*
X95292689Y-69269649D01*
X95520101Y-68929303D01*
X95676745Y-68551131D01*
X95756601Y-68149666D01*
X95756601Y-67740336D01*
X95676745Y-67338871D01*
X95520101Y-66960699D01*
X95292689Y-66620353D01*
X95003249Y-66330913D01*
X94662903Y-66103501D01*
X94284731Y-65946857D01*
X93883266Y-65867001D01*
X93473936Y-65867001D01*
X93072471Y-65946857D01*
X92694299Y-66103501D01*
X92353953Y-66330913D01*
X92064513Y-66620353D01*
X91837101Y-66960699D01*
X91680457Y-67338871D01*
X91600601Y-67740336D01*
X86406022Y-67740336D01*
X82896737Y-64231052D01*
X82884211Y-64215789D01*
X82823303Y-64165803D01*
X82753814Y-64128660D01*
X82678414Y-64105788D01*
X82619647Y-64100000D01*
X82619646Y-64100000D01*
X82600000Y-64098065D01*
X82580354Y-64100000D01*
X76391286Y-64100000D01*
X75700077Y-63408792D01*
X75700077Y-62920000D01*
X76214678Y-62920000D01*
X76235916Y-63135638D01*
X76298816Y-63342988D01*
X76400958Y-63534084D01*
X76538419Y-63701581D01*
X76705916Y-63839042D01*
X76897012Y-63941184D01*
X77104362Y-64004084D01*
X77265964Y-64020000D01*
X77374036Y-64020000D01*
X77535638Y-64004084D01*
X77742988Y-63941184D01*
X77934084Y-63839042D01*
X78101581Y-63701581D01*
X78239042Y-63534084D01*
X78337436Y-63350000D01*
X78842564Y-63350000D01*
X78940958Y-63534084D01*
X79078419Y-63701581D01*
X79245916Y-63839042D01*
X79437012Y-63941184D01*
X79644362Y-64004084D01*
X79805964Y-64020000D01*
X79914036Y-64020000D01*
X80075638Y-64004084D01*
X80282988Y-63941184D01*
X80474084Y-63839042D01*
X80641581Y-63701581D01*
X80779042Y-63534084D01*
X80877436Y-63350000D01*
X81382564Y-63350000D01*
X81480958Y-63534084D01*
X81618419Y-63701581D01*
X81785916Y-63839042D01*
X81977012Y-63941184D01*
X82184362Y-64004084D01*
X82345964Y-64020000D01*
X82454036Y-64020000D01*
X82615638Y-64004084D01*
X82822988Y-63941184D01*
X83014084Y-63839042D01*
X83181581Y-63701581D01*
X83319042Y-63534084D01*
X83417436Y-63350000D01*
X83922564Y-63350000D01*
X84020958Y-63534084D01*
X84158419Y-63701581D01*
X84325916Y-63839042D01*
X84517012Y-63941184D01*
X84724362Y-64004084D01*
X84885964Y-64020000D01*
X84994036Y-64020000D01*
X85155638Y-64004084D01*
X85362988Y-63941184D01*
X85554084Y-63839042D01*
X85721581Y-63701581D01*
X85859042Y-63534084D01*
X85957436Y-63350000D01*
X86462564Y-63350000D01*
X86560958Y-63534084D01*
X86698419Y-63701581D01*
X86865916Y-63839042D01*
X87057012Y-63941184D01*
X87264362Y-64004084D01*
X87425964Y-64020000D01*
X87534036Y-64020000D01*
X87695638Y-64004084D01*
X87902988Y-63941184D01*
X88094084Y-63839042D01*
X88261581Y-63701581D01*
X88399042Y-63534084D01*
X88497436Y-63350000D01*
X89002564Y-63350000D01*
X89100958Y-63534084D01*
X89238419Y-63701581D01*
X89405916Y-63839042D01*
X89597012Y-63941184D01*
X89804362Y-64004084D01*
X89965964Y-64020000D01*
X90074036Y-64020000D01*
X90235638Y-64004084D01*
X90442988Y-63941184D01*
X90634084Y-63839042D01*
X90801581Y-63701581D01*
X90939042Y-63534084D01*
X91037436Y-63350000D01*
X91542564Y-63350000D01*
X91640958Y-63534084D01*
X91778419Y-63701581D01*
X91945916Y-63839042D01*
X92137012Y-63941184D01*
X92344362Y-64004084D01*
X92505964Y-64020000D01*
X92614036Y-64020000D01*
X92775638Y-64004084D01*
X92982988Y-63941184D01*
X93174084Y-63839042D01*
X93341581Y-63701581D01*
X93479042Y-63534084D01*
X93566746Y-63370000D01*
X94093254Y-63370000D01*
X94180958Y-63534084D01*
X94318419Y-63701581D01*
X94485916Y-63839042D01*
X94677012Y-63941184D01*
X94884362Y-64004084D01*
X95045964Y-64020000D01*
X95154036Y-64020000D01*
X95315638Y-64004084D01*
X95522988Y-63941184D01*
X95714084Y-63839042D01*
X95881581Y-63701581D01*
X96019042Y-63534084D01*
X96121184Y-63342988D01*
X96184084Y-63135638D01*
X96205322Y-62920000D01*
X96184084Y-62704362D01*
X96121184Y-62497012D01*
X96019042Y-62305916D01*
X95881581Y-62138419D01*
X95714084Y-62000958D01*
X95522988Y-61898816D01*
X95315638Y-61835916D01*
X95154036Y-61820000D01*
X95045964Y-61820000D01*
X94884362Y-61835916D01*
X94677012Y-61898816D01*
X94485916Y-62000958D01*
X94318419Y-62138419D01*
X94180958Y-62305916D01*
X94093254Y-62470000D01*
X93566746Y-62470000D01*
X93479042Y-62305916D01*
X93341581Y-62138419D01*
X93174084Y-62000958D01*
X92982988Y-61898816D01*
X92775638Y-61835916D01*
X92614036Y-61820000D01*
X92505964Y-61820000D01*
X92344362Y-61835916D01*
X92137012Y-61898816D01*
X91945916Y-62000958D01*
X91778419Y-62138419D01*
X91640958Y-62305916D01*
X91563944Y-62450000D01*
X91016056Y-62450000D01*
X90939042Y-62305916D01*
X90801581Y-62138419D01*
X90634084Y-62000958D01*
X90442988Y-61898816D01*
X90235638Y-61835916D01*
X90074036Y-61820000D01*
X89965964Y-61820000D01*
X89804362Y-61835916D01*
X89597012Y-61898816D01*
X89405916Y-62000958D01*
X89238419Y-62138419D01*
X89100958Y-62305916D01*
X89023944Y-62450000D01*
X88476056Y-62450000D01*
X88399042Y-62305916D01*
X88261581Y-62138419D01*
X88094084Y-62000958D01*
X87902988Y-61898816D01*
X87695638Y-61835916D01*
X87534036Y-61820000D01*
X87425964Y-61820000D01*
X87264362Y-61835916D01*
X87057012Y-61898816D01*
X86865916Y-62000958D01*
X86698419Y-62138419D01*
X86560958Y-62305916D01*
X86483944Y-62450000D01*
X85936056Y-62450000D01*
X85859042Y-62305916D01*
X85721581Y-62138419D01*
X85554084Y-62000958D01*
X85362988Y-61898816D01*
X85155638Y-61835916D01*
X84994036Y-61820000D01*
X84885964Y-61820000D01*
X84724362Y-61835916D01*
X84517012Y-61898816D01*
X84325916Y-62000958D01*
X84158419Y-62138419D01*
X84020958Y-62305916D01*
X83943944Y-62450000D01*
X83396056Y-62450000D01*
X83319042Y-62305916D01*
X83181581Y-62138419D01*
X83014084Y-62000958D01*
X82822988Y-61898816D01*
X82615638Y-61835916D01*
X82454036Y-61820000D01*
X82345964Y-61820000D01*
X82184362Y-61835916D01*
X81977012Y-61898816D01*
X81785916Y-62000958D01*
X81618419Y-62138419D01*
X81480958Y-62305916D01*
X81403944Y-62450000D01*
X80856056Y-62450000D01*
X80779042Y-62305916D01*
X80641581Y-62138419D01*
X80474084Y-62000958D01*
X80282988Y-61898816D01*
X80075638Y-61835916D01*
X79914036Y-61820000D01*
X79805964Y-61820000D01*
X79644362Y-61835916D01*
X79437012Y-61898816D01*
X79245916Y-62000958D01*
X79078419Y-62138419D01*
X78940958Y-62305916D01*
X78863944Y-62450000D01*
X78316056Y-62450000D01*
X78239042Y-62305916D01*
X78101581Y-62138419D01*
X77934084Y-62000958D01*
X77742988Y-61898816D01*
X77535638Y-61835916D01*
X77374036Y-61820000D01*
X77265964Y-61820000D01*
X77104362Y-61835916D01*
X76897012Y-61898816D01*
X76705916Y-62000958D01*
X76538419Y-62138419D01*
X76400958Y-62305916D01*
X76298816Y-62497012D01*
X76235916Y-62704362D01*
X76214678Y-62920000D01*
X75700077Y-62920000D01*
X75700077Y-60950000D01*
X83988500Y-60950000D01*
X83994485Y-61010771D01*
X84012212Y-61069206D01*
X84040997Y-61123060D01*
X84079736Y-61170264D01*
X84126940Y-61209003D01*
X84180794Y-61237788D01*
X84239229Y-61255515D01*
X84300000Y-61261500D01*
X84417500Y-61260000D01*
X84495000Y-61182500D01*
X84495000Y-60705000D01*
X84505000Y-60705000D01*
X84505000Y-61182500D01*
X84582500Y-61260000D01*
X84700000Y-61261500D01*
X84760771Y-61255515D01*
X84775000Y-61251198D01*
X84789229Y-61255515D01*
X84850000Y-61261500D01*
X84917500Y-61260000D01*
X84995000Y-61182500D01*
X84995000Y-61045432D01*
X85005000Y-61012469D01*
X85005000Y-61182500D01*
X85082500Y-61260000D01*
X85150000Y-61261500D01*
X85210771Y-61255515D01*
X85250000Y-61243614D01*
X85289229Y-61255515D01*
X85350000Y-61261500D01*
X85417500Y-61260000D01*
X85495000Y-61182500D01*
X85495000Y-61012469D01*
X85505000Y-61045432D01*
X85505000Y-61182500D01*
X85582500Y-61260000D01*
X85650000Y-61261500D01*
X85710771Y-61255515D01*
X85725000Y-61251198D01*
X85739229Y-61255515D01*
X85800000Y-61261500D01*
X85917500Y-61260000D01*
X85995000Y-61182500D01*
X85995000Y-60705000D01*
X86005000Y-60705000D01*
X86005000Y-61182500D01*
X86082500Y-61260000D01*
X86200000Y-61261500D01*
X86260771Y-61255515D01*
X86319206Y-61237788D01*
X86373060Y-61209003D01*
X86420264Y-61170264D01*
X86459003Y-61123060D01*
X86487788Y-61069206D01*
X86505515Y-61010771D01*
X86511500Y-60950000D01*
X86538500Y-60950000D01*
X86544485Y-61010771D01*
X86562212Y-61069206D01*
X86590997Y-61123060D01*
X86629736Y-61170264D01*
X86676940Y-61209003D01*
X86730794Y-61237788D01*
X86789229Y-61255515D01*
X86850000Y-61261500D01*
X86967500Y-61260000D01*
X87045000Y-61182500D01*
X87045000Y-60705000D01*
X87055000Y-60705000D01*
X87055000Y-61182500D01*
X87132500Y-61260000D01*
X87250000Y-61261500D01*
X87310771Y-61255515D01*
X87325000Y-61251198D01*
X87339229Y-61255515D01*
X87400000Y-61261500D01*
X87467500Y-61260000D01*
X87545000Y-61182500D01*
X87545000Y-61045432D01*
X87555000Y-61012469D01*
X87555000Y-61182500D01*
X87632500Y-61260000D01*
X87700000Y-61261500D01*
X87760771Y-61255515D01*
X87800000Y-61243614D01*
X87839229Y-61255515D01*
X87900000Y-61261500D01*
X87967500Y-61260000D01*
X88045000Y-61182500D01*
X88045000Y-61012469D01*
X88055000Y-61045432D01*
X88055000Y-61182500D01*
X88132500Y-61260000D01*
X88200000Y-61261500D01*
X88260771Y-61255515D01*
X88275000Y-61251198D01*
X88289229Y-61255515D01*
X88350000Y-61261500D01*
X88467500Y-61260000D01*
X88545000Y-61182500D01*
X88545000Y-60705000D01*
X88555000Y-60705000D01*
X88555000Y-61182500D01*
X88632500Y-61260000D01*
X88750000Y-61261500D01*
X88810771Y-61255515D01*
X88869206Y-61237788D01*
X88923060Y-61209003D01*
X88970264Y-61170264D01*
X89009003Y-61123060D01*
X89037788Y-61069206D01*
X89055515Y-61010771D01*
X89061500Y-60950000D01*
X89060000Y-60782500D01*
X88982500Y-60705000D01*
X88555000Y-60705000D01*
X88545000Y-60705000D01*
X88055000Y-60705000D01*
X88055000Y-60767500D01*
X88045000Y-60777500D01*
X88045000Y-60705000D01*
X87555000Y-60705000D01*
X87555000Y-60777500D01*
X87545000Y-60767500D01*
X87545000Y-60705000D01*
X87055000Y-60705000D01*
X87045000Y-60705000D01*
X86617500Y-60705000D01*
X86540000Y-60782500D01*
X86538500Y-60950000D01*
X86511500Y-60950000D01*
X86510000Y-60782500D01*
X86432500Y-60705000D01*
X86005000Y-60705000D01*
X85995000Y-60705000D01*
X85505000Y-60705000D01*
X85505000Y-60767500D01*
X85495000Y-60777500D01*
X85495000Y-60705000D01*
X85005000Y-60705000D01*
X85005000Y-60777500D01*
X84995000Y-60767500D01*
X84995000Y-60705000D01*
X84505000Y-60705000D01*
X84495000Y-60705000D01*
X84067500Y-60705000D01*
X83990000Y-60782500D01*
X83988500Y-60950000D01*
X75700077Y-60950000D01*
X75700077Y-59519724D01*
X75702012Y-59500077D01*
X75696338Y-59442462D01*
X75694289Y-59421663D01*
X75671417Y-59346263D01*
X75634274Y-59276774D01*
X75584288Y-59215866D01*
X75569026Y-59203341D01*
X72446737Y-56081052D01*
X72434211Y-56065789D01*
X72373303Y-56015803D01*
X72303814Y-55978660D01*
X72228414Y-55955788D01*
X72169647Y-55950000D01*
X72169646Y-55950000D01*
X72150000Y-55948065D01*
X72130354Y-55950000D01*
X71173956Y-55950000D01*
X71163158Y-55936842D01*
X71117477Y-55899353D01*
X71065360Y-55871496D01*
X71008810Y-55854341D01*
X70950000Y-55848549D01*
X70450000Y-55848549D01*
X70391190Y-55854341D01*
X70334640Y-55871496D01*
X70282523Y-55899353D01*
X70236842Y-55936842D01*
X70200000Y-55981735D01*
X70163158Y-55936842D01*
X70117477Y-55899353D01*
X70065360Y-55871496D01*
X70008810Y-55854341D01*
X69950000Y-55848549D01*
X69450000Y-55848549D01*
X69391190Y-55854341D01*
X69334640Y-55871496D01*
X69282523Y-55899353D01*
X69236842Y-55936842D01*
X69226044Y-55950000D01*
X69015685Y-55950000D01*
X68700000Y-55634315D01*
X68700000Y-54465685D01*
X70830507Y-52335179D01*
X70913726Y-52369650D01*
X71116584Y-52410000D01*
X71323416Y-52410000D01*
X71526274Y-52369650D01*
X71717362Y-52290498D01*
X71889336Y-52175589D01*
X72035589Y-52029336D01*
X72150498Y-51857362D01*
X72229650Y-51666274D01*
X72270000Y-51463416D01*
X72270000Y-51256584D01*
X72229650Y-51053726D01*
X72150498Y-50862638D01*
X72035589Y-50690664D01*
X71889336Y-50544411D01*
X71717362Y-50429502D01*
X71526274Y-50350350D01*
X71323416Y-50310000D01*
X71116584Y-50310000D01*
X70913726Y-50350350D01*
X70722638Y-50429502D01*
X70550664Y-50544411D01*
X70404411Y-50690664D01*
X70289502Y-50862638D01*
X70210350Y-51053726D01*
X70170000Y-51256584D01*
X70170000Y-51463416D01*
X70210350Y-51666274D01*
X70256537Y-51777778D01*
X68300000Y-53734315D01*
X68300000Y-52365685D01*
X68318790Y-52346895D01*
X68373726Y-52369650D01*
X68576584Y-52410000D01*
X68783416Y-52410000D01*
X68986274Y-52369650D01*
X69177362Y-52290498D01*
X69349336Y-52175589D01*
X69495589Y-52029336D01*
X69610498Y-51857362D01*
X69689650Y-51666274D01*
X69730000Y-51463416D01*
X69730000Y-51256584D01*
X69689650Y-51053726D01*
X69610498Y-50862638D01*
X69495589Y-50690664D01*
X69349336Y-50544411D01*
X69177362Y-50429502D01*
X68986274Y-50350350D01*
X68783416Y-50310000D01*
X68705685Y-50310000D01*
X69072953Y-49942732D01*
X69213158Y-50000807D01*
X69435336Y-50045001D01*
X69661866Y-50045001D01*
X69884044Y-50000807D01*
X70093330Y-49914117D01*
X70281683Y-49788264D01*
X70441864Y-49628083D01*
X70567717Y-49439730D01*
X70654407Y-49230444D01*
X70698601Y-49008266D01*
X70698601Y-48781736D01*
X70654407Y-48559558D01*
X70567717Y-48350272D01*
X70441864Y-48161919D01*
X70281683Y-48001738D01*
X70204253Y-47950001D01*
X71432949Y-47950001D01*
X71355519Y-48001738D01*
X71355519Y-48001738D01*
G37*
X71355519Y-48001738D02*
X71195338Y-48161919D01*
X71069485Y-48350272D01*
X70982795Y-48559558D01*
X70938601Y-48781736D01*
X70938601Y-49008266D01*
X70982795Y-49230444D01*
X71069485Y-49439730D01*
X71195338Y-49628083D01*
X71355519Y-49788264D01*
X71543872Y-49914117D01*
X71753158Y-50000807D01*
X71975336Y-50045001D01*
X72201866Y-50045001D01*
X72424044Y-50000807D01*
X72548299Y-49949339D01*
X76875000Y-54276040D01*
X76875000Y-54290581D01*
X76705916Y-54380958D01*
X76538419Y-54518419D01*
X76400958Y-54685916D01*
X76298816Y-54877012D01*
X76235916Y-55084362D01*
X76214678Y-55300000D01*
X76235916Y-55515638D01*
X76298816Y-55722988D01*
X76400958Y-55914084D01*
X76538419Y-56081581D01*
X76705916Y-56219042D01*
X76897012Y-56321184D01*
X77104362Y-56384084D01*
X77265964Y-56400000D01*
X77374036Y-56400000D01*
X77535638Y-56384084D01*
X77742988Y-56321184D01*
X77764175Y-56309860D01*
X78823263Y-57368948D01*
X78835789Y-57384211D01*
X78896697Y-57434197D01*
X78966186Y-57471340D01*
X79041586Y-57494212D01*
X79100353Y-57500000D01*
X79100363Y-57500000D01*
X79119999Y-57501934D01*
X79139635Y-57500000D01*
X82134315Y-57500000D01*
X84009267Y-59374953D01*
X84004341Y-59391190D01*
X83998549Y-59450000D01*
X83998549Y-59950000D01*
X84004341Y-60008810D01*
X84021496Y-60065360D01*
X84049353Y-60117477D01*
X84086842Y-60163158D01*
X84123852Y-60193531D01*
X84079736Y-60229736D01*
X84040997Y-60276940D01*
X84012212Y-60330794D01*
X83994485Y-60389229D01*
X83988500Y-60450000D01*
X83990000Y-60617500D01*
X84067500Y-60695000D01*
X84495000Y-60695000D01*
X84495000Y-60675000D01*
X84505000Y-60675000D01*
X84505000Y-60695000D01*
X84995000Y-60695000D01*
X84995000Y-60675000D01*
X85005000Y-60675000D01*
X85005000Y-60695000D01*
X85495000Y-60695000D01*
X85495000Y-60675000D01*
X85505000Y-60675000D01*
X85505000Y-60695000D01*
X85995000Y-60695000D01*
X85995000Y-60675000D01*
X86005000Y-60675000D01*
X86005000Y-60695000D01*
X86432500Y-60695000D01*
X86510000Y-60617500D01*
X86511500Y-60450000D01*
X86505515Y-60389229D01*
X86487788Y-60330794D01*
X86459003Y-60276940D01*
X86420264Y-60229736D01*
X86376148Y-60193531D01*
X86413158Y-60163158D01*
X86450647Y-60117477D01*
X86478504Y-60065360D01*
X86495659Y-60008810D01*
X86501451Y-59950000D01*
X86501451Y-59450000D01*
X86495659Y-59391190D01*
X86478504Y-59334640D01*
X86450647Y-59282523D01*
X86413158Y-59236842D01*
X86400000Y-59226044D01*
X86400000Y-56419646D01*
X86401935Y-56400000D01*
X86397011Y-56350000D01*
X86394212Y-56321586D01*
X86388727Y-56303504D01*
X86371340Y-56246185D01*
X86334197Y-56176697D01*
X86296735Y-56131049D01*
X86296733Y-56131047D01*
X86284211Y-56115789D01*
X86268953Y-56103267D01*
X85935927Y-55770241D01*
X85961184Y-55722988D01*
X86024084Y-55515638D01*
X86045322Y-55300000D01*
X86024084Y-55084362D01*
X85961184Y-54877012D01*
X85859042Y-54685916D01*
X85721581Y-54518419D01*
X85554084Y-54380958D01*
X85365000Y-54279891D01*
X85365000Y-54160866D01*
X85367055Y-54139999D01*
X85365000Y-54119132D01*
X85365000Y-54119126D01*
X85358850Y-54056686D01*
X85334548Y-53976573D01*
X85295084Y-53902740D01*
X85241974Y-53838026D01*
X85225763Y-53824722D01*
X80760830Y-49359790D01*
X80814407Y-49230444D01*
X80858601Y-49008266D01*
X80858601Y-48781736D01*
X80814407Y-48559558D01*
X80727717Y-48350272D01*
X80601864Y-48161919D01*
X80441683Y-48001738D01*
X80364253Y-47950001D01*
X81592949Y-47950001D01*
X81515519Y-48001738D01*
X81355338Y-48161919D01*
X81229485Y-48350272D01*
X81142795Y-48559558D01*
X81098601Y-48781736D01*
X81098601Y-49008266D01*
X81142795Y-49230444D01*
X81229485Y-49439730D01*
X81355338Y-49628083D01*
X81515519Y-49788264D01*
X81703872Y-49914117D01*
X81913158Y-50000807D01*
X82135336Y-50045001D01*
X82361866Y-50045001D01*
X82584044Y-50000807D01*
X82793330Y-49914117D01*
X82865113Y-49866153D01*
X87055000Y-54056041D01*
X87055000Y-54279891D01*
X86865916Y-54380958D01*
X86698419Y-54518419D01*
X86560958Y-54685916D01*
X86458816Y-54877012D01*
X86395916Y-55084362D01*
X86374678Y-55300000D01*
X86395916Y-55515638D01*
X86458816Y-55722988D01*
X86560958Y-55914084D01*
X86698419Y-56081581D01*
X86865916Y-56219042D01*
X87057012Y-56321184D01*
X87100000Y-56334225D01*
X87100000Y-56634314D01*
X86781047Y-56953268D01*
X86765790Y-56965789D01*
X86753268Y-56981047D01*
X86753265Y-56981050D01*
X86715803Y-57026698D01*
X86678661Y-57096186D01*
X86655788Y-57171587D01*
X86648065Y-57250000D01*
X86650001Y-57269656D01*
X86650000Y-59226043D01*
X86636842Y-59236842D01*
X86599353Y-59282523D01*
X86571496Y-59334640D01*
X86554341Y-59391190D01*
X86548549Y-59450000D01*
X86548549Y-59950000D01*
X86554341Y-60008810D01*
X86571496Y-60065360D01*
X86599353Y-60117477D01*
X86636842Y-60163158D01*
X86673852Y-60193531D01*
X86629736Y-60229736D01*
X86590997Y-60276940D01*
X86562212Y-60330794D01*
X86544485Y-60389229D01*
X86538500Y-60450000D01*
X86540000Y-60617500D01*
X86617500Y-60695000D01*
X87045000Y-60695000D01*
X87045000Y-60675000D01*
X87055000Y-60675000D01*
X87055000Y-60695000D01*
X87545000Y-60695000D01*
X87545000Y-60675000D01*
X87555000Y-60675000D01*
X87555000Y-60695000D01*
X88045000Y-60695000D01*
X88045000Y-60675000D01*
X88055000Y-60675000D01*
X88055000Y-60695000D01*
X88545000Y-60695000D01*
X88545000Y-60675000D01*
X88555000Y-60675000D01*
X88555000Y-60695000D01*
X88982500Y-60695000D01*
X89060000Y-60617500D01*
X89061500Y-60450000D01*
X89055515Y-60389229D01*
X89037788Y-60330794D01*
X89009003Y-60276940D01*
X88970264Y-60229736D01*
X88926148Y-60193531D01*
X88963158Y-60163158D01*
X89000647Y-60117477D01*
X89028504Y-60065360D01*
X89045659Y-60008810D01*
X89051451Y-59950000D01*
X89051451Y-59450000D01*
X89045659Y-59391190D01*
X89028504Y-59334640D01*
X89000647Y-59282523D01*
X89000000Y-59281735D01*
X89000000Y-59265685D01*
X90865685Y-57400000D01*
X93380354Y-57400000D01*
X93400000Y-57401935D01*
X93419646Y-57400000D01*
X93419647Y-57400000D01*
X93478414Y-57394212D01*
X93553814Y-57371340D01*
X93623303Y-57334197D01*
X93684211Y-57284211D01*
X93696737Y-57268948D01*
X94564234Y-56401451D01*
X95900000Y-56401451D01*
X95958810Y-56395659D01*
X96015360Y-56378504D01*
X96067477Y-56350647D01*
X96113158Y-56313158D01*
X96150647Y-56267477D01*
X96178504Y-56215360D01*
X96195659Y-56158810D01*
X96201451Y-56100000D01*
X96201451Y-54500000D01*
X96195659Y-54441190D01*
X96178504Y-54384640D01*
X96150647Y-54332523D01*
X96113158Y-54286842D01*
X96067477Y-54249353D01*
X96015360Y-54221496D01*
X95958810Y-54204341D01*
X95900000Y-54198549D01*
X94599590Y-54198549D01*
X90915285Y-50514245D01*
X90915280Y-50514239D01*
X90361377Y-49960336D01*
X91600601Y-49960336D01*
X91600601Y-50369666D01*
X91680457Y-50771131D01*
X91837101Y-51149303D01*
X92064513Y-51489649D01*
X92353953Y-51779089D01*
X92694299Y-52006501D01*
X93072471Y-52163145D01*
X93473936Y-52243001D01*
X93883266Y-52243001D01*
X94284731Y-52163145D01*
X94662903Y-52006501D01*
X95003249Y-51779089D01*
X95292689Y-51489649D01*
X95520101Y-51149303D01*
X95676745Y-50771131D01*
X95756601Y-50369666D01*
X95756601Y-49960336D01*
X95676745Y-49558871D01*
X95520101Y-49180699D01*
X95292689Y-48840353D01*
X95003249Y-48550913D01*
X94662903Y-48323501D01*
X94284731Y-48166857D01*
X93883266Y-48087001D01*
X93473936Y-48087001D01*
X93072471Y-48166857D01*
X92694299Y-48323501D01*
X92353953Y-48550913D01*
X92064513Y-48840353D01*
X91837101Y-49180699D01*
X91680457Y-49558871D01*
X91600601Y-49960336D01*
X90361377Y-49960336D01*
X90343912Y-49942871D01*
X90413330Y-49914117D01*
X90601683Y-49788264D01*
X90761864Y-49628083D01*
X90887717Y-49439730D01*
X90974407Y-49230444D01*
X91018601Y-49008266D01*
X91018601Y-48781736D01*
X90974407Y-48559558D01*
X90887717Y-48350272D01*
X90761864Y-48161919D01*
X90601683Y-48001738D01*
X90524253Y-47950001D01*
X95256304Y-47950001D01*
X95702127Y-47993714D01*
X96115679Y-48118573D01*
X96497101Y-48321379D01*
X96831868Y-48594407D01*
X97107225Y-48927257D01*
X97312692Y-49307261D01*
X97440433Y-49719924D01*
X97487199Y-50164872D01*
X97487202Y-50165726D01*
X97486734Y-67974728D01*
X97434835Y-68416529D01*
X97302059Y-68827611D01*
X97091969Y-69205068D01*
X96812562Y-69534532D01*
X96474485Y-69803451D01*
X96090610Y-70001583D01*
X95674608Y-70121656D01*
X95257297Y-70160001D01*
X90550135Y-70160001D01*
X90634470Y-69987941D01*
X89868601Y-69222072D01*
X89102732Y-69987941D01*
X89187067Y-70160001D01*
X87984253Y-70160001D01*
X88061683Y-70108264D01*
X88221864Y-69948083D01*
X88347717Y-69759730D01*
X88434407Y-69550444D01*
X88478601Y-69328266D01*
X88478601Y-69174236D01*
X88703702Y-69174236D01*
X88718133Y-69402280D01*
X88776775Y-69623127D01*
X88877375Y-69828290D01*
X88922670Y-69896079D01*
X89095661Y-69980870D01*
X89861530Y-69215001D01*
X89875672Y-69215001D01*
X90641541Y-69980870D01*
X90814532Y-69896079D01*
X90929228Y-69698451D01*
X91003164Y-69482243D01*
X91033500Y-69255766D01*
X91019069Y-69027722D01*
X90960427Y-68806875D01*
X90859827Y-68601712D01*
X90814532Y-68533923D01*
X90641541Y-68449132D01*
X89875672Y-69215001D01*
X89861530Y-69215001D01*
X89095661Y-68449132D01*
X88922670Y-68533923D01*
X88807974Y-68731551D01*
X88734038Y-68947759D01*
X88703702Y-69174236D01*
X88478601Y-69174236D01*
X88478601Y-69101736D01*
X88434407Y-68879558D01*
X88347717Y-68670272D01*
X88221864Y-68481919D01*
X88182006Y-68442061D01*
X89102732Y-68442061D01*
X89868601Y-69207930D01*
X90634470Y-68442061D01*
X90549679Y-68269070D01*
X90352051Y-68154374D01*
X90135843Y-68080438D01*
X89909366Y-68050102D01*
X89681322Y-68064533D01*
X89460475Y-68123175D01*
X89255312Y-68223775D01*
X89187523Y-68269070D01*
X89102732Y-68442061D01*
X88182006Y-68442061D01*
X88061683Y-68321738D01*
X87873330Y-68195885D01*
X87664044Y-68109195D01*
X87441866Y-68065001D01*
X87215336Y-68065001D01*
X86993158Y-68109195D01*
X86838813Y-68173127D01*
X86406022Y-67740336D01*
X91600601Y-67740336D01*
X91600601Y-68149666D01*
X91680457Y-68551131D01*
X91837101Y-68929303D01*
X92064513Y-69269649D01*
X92353953Y-69559089D01*
X92694299Y-69786501D01*
X93072471Y-69943145D01*
X93473936Y-70023001D01*
X93883266Y-70023001D01*
X94284731Y-69943145D01*
X94662903Y-69786501D01*
X95003249Y-69559089D01*
X95292689Y-69269649D01*
X95520101Y-68929303D01*
X95676745Y-68551131D01*
X95756601Y-68149666D01*
X95756601Y-67740336D01*
X95676745Y-67338871D01*
X95520101Y-66960699D01*
X95292689Y-66620353D01*
X95003249Y-66330913D01*
X94662903Y-66103501D01*
X94284731Y-65946857D01*
X93883266Y-65867001D01*
X93473936Y-65867001D01*
X93072471Y-65946857D01*
X92694299Y-66103501D01*
X92353953Y-66330913D01*
X92064513Y-66620353D01*
X91837101Y-66960699D01*
X91680457Y-67338871D01*
X91600601Y-67740336D01*
X86406022Y-67740336D01*
X82896737Y-64231052D01*
X82884211Y-64215789D01*
X82823303Y-64165803D01*
X82753814Y-64128660D01*
X82678414Y-64105788D01*
X82619647Y-64100000D01*
X82619646Y-64100000D01*
X82600000Y-64098065D01*
X82580354Y-64100000D01*
X76391286Y-64100000D01*
X75700077Y-63408792D01*
X75700077Y-62920000D01*
X76214678Y-62920000D01*
X76235916Y-63135638D01*
X76298816Y-63342988D01*
X76400958Y-63534084D01*
X76538419Y-63701581D01*
X76705916Y-63839042D01*
X76897012Y-63941184D01*
X77104362Y-64004084D01*
X77265964Y-64020000D01*
X77374036Y-64020000D01*
X77535638Y-64004084D01*
X77742988Y-63941184D01*
X77934084Y-63839042D01*
X78101581Y-63701581D01*
X78239042Y-63534084D01*
X78337436Y-63350000D01*
X78842564Y-63350000D01*
X78940958Y-63534084D01*
X79078419Y-63701581D01*
X79245916Y-63839042D01*
X79437012Y-63941184D01*
X79644362Y-64004084D01*
X79805964Y-64020000D01*
X79914036Y-64020000D01*
X80075638Y-64004084D01*
X80282988Y-63941184D01*
X80474084Y-63839042D01*
X80641581Y-63701581D01*
X80779042Y-63534084D01*
X80877436Y-63350000D01*
X81382564Y-63350000D01*
X81480958Y-63534084D01*
X81618419Y-63701581D01*
X81785916Y-63839042D01*
X81977012Y-63941184D01*
X82184362Y-64004084D01*
X82345964Y-64020000D01*
X82454036Y-64020000D01*
X82615638Y-64004084D01*
X82822988Y-63941184D01*
X83014084Y-63839042D01*
X83181581Y-63701581D01*
X83319042Y-63534084D01*
X83417436Y-63350000D01*
X83922564Y-63350000D01*
X84020958Y-63534084D01*
X84158419Y-63701581D01*
X84325916Y-63839042D01*
X84517012Y-63941184D01*
X84724362Y-64004084D01*
X84885964Y-64020000D01*
X84994036Y-64020000D01*
X85155638Y-64004084D01*
X85362988Y-63941184D01*
X85554084Y-63839042D01*
X85721581Y-63701581D01*
X85859042Y-63534084D01*
X85957436Y-63350000D01*
X86462564Y-63350000D01*
X86560958Y-63534084D01*
X86698419Y-63701581D01*
X86865916Y-63839042D01*
X87057012Y-63941184D01*
X87264362Y-64004084D01*
X87425964Y-64020000D01*
X87534036Y-64020000D01*
X87695638Y-64004084D01*
X87902988Y-63941184D01*
X88094084Y-63839042D01*
X88261581Y-63701581D01*
X88399042Y-63534084D01*
X88497436Y-63350000D01*
X89002564Y-63350000D01*
X89100958Y-63534084D01*
X89238419Y-63701581D01*
X89405916Y-63839042D01*
X89597012Y-63941184D01*
X89804362Y-64004084D01*
X89965964Y-64020000D01*
X90074036Y-64020000D01*
X90235638Y-64004084D01*
X90442988Y-63941184D01*
X90634084Y-63839042D01*
X90801581Y-63701581D01*
X90939042Y-63534084D01*
X91037436Y-63350000D01*
X91542564Y-63350000D01*
X91640958Y-63534084D01*
X91778419Y-63701581D01*
X91945916Y-63839042D01*
X92137012Y-63941184D01*
X92344362Y-64004084D01*
X92505964Y-64020000D01*
X92614036Y-64020000D01*
X92775638Y-64004084D01*
X92982988Y-63941184D01*
X93174084Y-63839042D01*
X93341581Y-63701581D01*
X93479042Y-63534084D01*
X93566746Y-63370000D01*
X94093254Y-63370000D01*
X94180958Y-63534084D01*
X94318419Y-63701581D01*
X94485916Y-63839042D01*
X94677012Y-63941184D01*
X94884362Y-64004084D01*
X95045964Y-64020000D01*
X95154036Y-64020000D01*
X95315638Y-64004084D01*
X95522988Y-63941184D01*
X95714084Y-63839042D01*
X95881581Y-63701581D01*
X96019042Y-63534084D01*
X96121184Y-63342988D01*
X96184084Y-63135638D01*
X96205322Y-62920000D01*
X96184084Y-62704362D01*
X96121184Y-62497012D01*
X96019042Y-62305916D01*
X95881581Y-62138419D01*
X95714084Y-62000958D01*
X95522988Y-61898816D01*
X95315638Y-61835916D01*
X95154036Y-61820000D01*
X95045964Y-61820000D01*
X94884362Y-61835916D01*
X94677012Y-61898816D01*
X94485916Y-62000958D01*
X94318419Y-62138419D01*
X94180958Y-62305916D01*
X94093254Y-62470000D01*
X93566746Y-62470000D01*
X93479042Y-62305916D01*
X93341581Y-62138419D01*
X93174084Y-62000958D01*
X92982988Y-61898816D01*
X92775638Y-61835916D01*
X92614036Y-61820000D01*
X92505964Y-61820000D01*
X92344362Y-61835916D01*
X92137012Y-61898816D01*
X91945916Y-62000958D01*
X91778419Y-62138419D01*
X91640958Y-62305916D01*
X91563944Y-62450000D01*
X91016056Y-62450000D01*
X90939042Y-62305916D01*
X90801581Y-62138419D01*
X90634084Y-62000958D01*
X90442988Y-61898816D01*
X90235638Y-61835916D01*
X90074036Y-61820000D01*
X89965964Y-61820000D01*
X89804362Y-61835916D01*
X89597012Y-61898816D01*
X89405916Y-62000958D01*
X89238419Y-62138419D01*
X89100958Y-62305916D01*
X89023944Y-62450000D01*
X88476056Y-62450000D01*
X88399042Y-62305916D01*
X88261581Y-62138419D01*
X88094084Y-62000958D01*
X87902988Y-61898816D01*
X87695638Y-61835916D01*
X87534036Y-61820000D01*
X87425964Y-61820000D01*
X87264362Y-61835916D01*
X87057012Y-61898816D01*
X86865916Y-62000958D01*
X86698419Y-62138419D01*
X86560958Y-62305916D01*
X86483944Y-62450000D01*
X85936056Y-62450000D01*
X85859042Y-62305916D01*
X85721581Y-62138419D01*
X85554084Y-62000958D01*
X85362988Y-61898816D01*
X85155638Y-61835916D01*
X84994036Y-61820000D01*
X84885964Y-61820000D01*
X84724362Y-61835916D01*
X84517012Y-61898816D01*
X84325916Y-62000958D01*
X84158419Y-62138419D01*
X84020958Y-62305916D01*
X83943944Y-62450000D01*
X83396056Y-62450000D01*
X83319042Y-62305916D01*
X83181581Y-62138419D01*
X83014084Y-62000958D01*
X82822988Y-61898816D01*
X82615638Y-61835916D01*
X82454036Y-61820000D01*
X82345964Y-61820000D01*
X82184362Y-61835916D01*
X81977012Y-61898816D01*
X81785916Y-62000958D01*
X81618419Y-62138419D01*
X81480958Y-62305916D01*
X81403944Y-62450000D01*
X80856056Y-62450000D01*
X80779042Y-62305916D01*
X80641581Y-62138419D01*
X80474084Y-62000958D01*
X80282988Y-61898816D01*
X80075638Y-61835916D01*
X79914036Y-61820000D01*
X79805964Y-61820000D01*
X79644362Y-61835916D01*
X79437012Y-61898816D01*
X79245916Y-62000958D01*
X79078419Y-62138419D01*
X78940958Y-62305916D01*
X78863944Y-62450000D01*
X78316056Y-62450000D01*
X78239042Y-62305916D01*
X78101581Y-62138419D01*
X77934084Y-62000958D01*
X77742988Y-61898816D01*
X77535638Y-61835916D01*
X77374036Y-61820000D01*
X77265964Y-61820000D01*
X77104362Y-61835916D01*
X76897012Y-61898816D01*
X76705916Y-62000958D01*
X76538419Y-62138419D01*
X76400958Y-62305916D01*
X76298816Y-62497012D01*
X76235916Y-62704362D01*
X76214678Y-62920000D01*
X75700077Y-62920000D01*
X75700077Y-60950000D01*
X83988500Y-60950000D01*
X83994485Y-61010771D01*
X84012212Y-61069206D01*
X84040997Y-61123060D01*
X84079736Y-61170264D01*
X84126940Y-61209003D01*
X84180794Y-61237788D01*
X84239229Y-61255515D01*
X84300000Y-61261500D01*
X84417500Y-61260000D01*
X84495000Y-61182500D01*
X84495000Y-60705000D01*
X84505000Y-60705000D01*
X84505000Y-61182500D01*
X84582500Y-61260000D01*
X84700000Y-61261500D01*
X84760771Y-61255515D01*
X84775000Y-61251198D01*
X84789229Y-61255515D01*
X84850000Y-61261500D01*
X84917500Y-61260000D01*
X84995000Y-61182500D01*
X84995000Y-61045432D01*
X85005000Y-61012469D01*
X85005000Y-61182500D01*
X85082500Y-61260000D01*
X85150000Y-61261500D01*
X85210771Y-61255515D01*
X85250000Y-61243614D01*
X85289229Y-61255515D01*
X85350000Y-61261500D01*
X85417500Y-61260000D01*
X85495000Y-61182500D01*
X85495000Y-61012469D01*
X85505000Y-61045432D01*
X85505000Y-61182500D01*
X85582500Y-61260000D01*
X85650000Y-61261500D01*
X85710771Y-61255515D01*
X85725000Y-61251198D01*
X85739229Y-61255515D01*
X85800000Y-61261500D01*
X85917500Y-61260000D01*
X85995000Y-61182500D01*
X85995000Y-60705000D01*
X86005000Y-60705000D01*
X86005000Y-61182500D01*
X86082500Y-61260000D01*
X86200000Y-61261500D01*
X86260771Y-61255515D01*
X86319206Y-61237788D01*
X86373060Y-61209003D01*
X86420264Y-61170264D01*
X86459003Y-61123060D01*
X86487788Y-61069206D01*
X86505515Y-61010771D01*
X86511500Y-60950000D01*
X86538500Y-60950000D01*
X86544485Y-61010771D01*
X86562212Y-61069206D01*
X86590997Y-61123060D01*
X86629736Y-61170264D01*
X86676940Y-61209003D01*
X86730794Y-61237788D01*
X86789229Y-61255515D01*
X86850000Y-61261500D01*
X86967500Y-61260000D01*
X87045000Y-61182500D01*
X87045000Y-60705000D01*
X87055000Y-60705000D01*
X87055000Y-61182500D01*
X87132500Y-61260000D01*
X87250000Y-61261500D01*
X87310771Y-61255515D01*
X87325000Y-61251198D01*
X87339229Y-61255515D01*
X87400000Y-61261500D01*
X87467500Y-61260000D01*
X87545000Y-61182500D01*
X87545000Y-61045432D01*
X87555000Y-61012469D01*
X87555000Y-61182500D01*
X87632500Y-61260000D01*
X87700000Y-61261500D01*
X87760771Y-61255515D01*
X87800000Y-61243614D01*
X87839229Y-61255515D01*
X87900000Y-61261500D01*
X87967500Y-61260000D01*
X88045000Y-61182500D01*
X88045000Y-61012469D01*
X88055000Y-61045432D01*
X88055000Y-61182500D01*
X88132500Y-61260000D01*
X88200000Y-61261500D01*
X88260771Y-61255515D01*
X88275000Y-61251198D01*
X88289229Y-61255515D01*
X88350000Y-61261500D01*
X88467500Y-61260000D01*
X88545000Y-61182500D01*
X88545000Y-60705000D01*
X88555000Y-60705000D01*
X88555000Y-61182500D01*
X88632500Y-61260000D01*
X88750000Y-61261500D01*
X88810771Y-61255515D01*
X88869206Y-61237788D01*
X88923060Y-61209003D01*
X88970264Y-61170264D01*
X89009003Y-61123060D01*
X89037788Y-61069206D01*
X89055515Y-61010771D01*
X89061500Y-60950000D01*
X89060000Y-60782500D01*
X88982500Y-60705000D01*
X88555000Y-60705000D01*
X88545000Y-60705000D01*
X88055000Y-60705000D01*
X88055000Y-60767500D01*
X88045000Y-60777500D01*
X88045000Y-60705000D01*
X87555000Y-60705000D01*
X87555000Y-60777500D01*
X87545000Y-60767500D01*
X87545000Y-60705000D01*
X87055000Y-60705000D01*
X87045000Y-60705000D01*
X86617500Y-60705000D01*
X86540000Y-60782500D01*
X86538500Y-60950000D01*
X86511500Y-60950000D01*
X86510000Y-60782500D01*
X86432500Y-60705000D01*
X86005000Y-60705000D01*
X85995000Y-60705000D01*
X85505000Y-60705000D01*
X85505000Y-60767500D01*
X85495000Y-60777500D01*
X85495000Y-60705000D01*
X85005000Y-60705000D01*
X85005000Y-60777500D01*
X84995000Y-60767500D01*
X84995000Y-60705000D01*
X84505000Y-60705000D01*
X84495000Y-60705000D01*
X84067500Y-60705000D01*
X83990000Y-60782500D01*
X83988500Y-60950000D01*
X75700077Y-60950000D01*
X75700077Y-59519724D01*
X75702012Y-59500077D01*
X75696338Y-59442462D01*
X75694289Y-59421663D01*
X75671417Y-59346263D01*
X75634274Y-59276774D01*
X75584288Y-59215866D01*
X75569026Y-59203341D01*
X72446737Y-56081052D01*
X72434211Y-56065789D01*
X72373303Y-56015803D01*
X72303814Y-55978660D01*
X72228414Y-55955788D01*
X72169647Y-55950000D01*
X72169646Y-55950000D01*
X72150000Y-55948065D01*
X72130354Y-55950000D01*
X71173956Y-55950000D01*
X71163158Y-55936842D01*
X71117477Y-55899353D01*
X71065360Y-55871496D01*
X71008810Y-55854341D01*
X70950000Y-55848549D01*
X70450000Y-55848549D01*
X70391190Y-55854341D01*
X70334640Y-55871496D01*
X70282523Y-55899353D01*
X70236842Y-55936842D01*
X70200000Y-55981735D01*
X70163158Y-55936842D01*
X70117477Y-55899353D01*
X70065360Y-55871496D01*
X70008810Y-55854341D01*
X69950000Y-55848549D01*
X69450000Y-55848549D01*
X69391190Y-55854341D01*
X69334640Y-55871496D01*
X69282523Y-55899353D01*
X69236842Y-55936842D01*
X69226044Y-55950000D01*
X69015685Y-55950000D01*
X68700000Y-55634315D01*
X68700000Y-54465685D01*
X70830507Y-52335179D01*
X70913726Y-52369650D01*
X71116584Y-52410000D01*
X71323416Y-52410000D01*
X71526274Y-52369650D01*
X71717362Y-52290498D01*
X71889336Y-52175589D01*
X72035589Y-52029336D01*
X72150498Y-51857362D01*
X72229650Y-51666274D01*
X72270000Y-51463416D01*
X72270000Y-51256584D01*
X72229650Y-51053726D01*
X72150498Y-50862638D01*
X72035589Y-50690664D01*
X71889336Y-50544411D01*
X71717362Y-50429502D01*
X71526274Y-50350350D01*
X71323416Y-50310000D01*
X71116584Y-50310000D01*
X70913726Y-50350350D01*
X70722638Y-50429502D01*
X70550664Y-50544411D01*
X70404411Y-50690664D01*
X70289502Y-50862638D01*
X70210350Y-51053726D01*
X70170000Y-51256584D01*
X70170000Y-51463416D01*
X70210350Y-51666274D01*
X70256537Y-51777778D01*
X68300000Y-53734315D01*
X68300000Y-52365685D01*
X68318790Y-52346895D01*
X68373726Y-52369650D01*
X68576584Y-52410000D01*
X68783416Y-52410000D01*
X68986274Y-52369650D01*
X69177362Y-52290498D01*
X69349336Y-52175589D01*
X69495589Y-52029336D01*
X69610498Y-51857362D01*
X69689650Y-51666274D01*
X69730000Y-51463416D01*
X69730000Y-51256584D01*
X69689650Y-51053726D01*
X69610498Y-50862638D01*
X69495589Y-50690664D01*
X69349336Y-50544411D01*
X69177362Y-50429502D01*
X68986274Y-50350350D01*
X68783416Y-50310000D01*
X68705685Y-50310000D01*
X69072953Y-49942732D01*
X69213158Y-50000807D01*
X69435336Y-50045001D01*
X69661866Y-50045001D01*
X69884044Y-50000807D01*
X70093330Y-49914117D01*
X70281683Y-49788264D01*
X70441864Y-49628083D01*
X70567717Y-49439730D01*
X70654407Y-49230444D01*
X70698601Y-49008266D01*
X70698601Y-48781736D01*
X70654407Y-48559558D01*
X70567717Y-48350272D01*
X70441864Y-48161919D01*
X70281683Y-48001738D01*
X70204253Y-47950001D01*
X71432949Y-47950001D01*
X71355519Y-48001738D01*
G36*
X61771136Y-65339571D02*
G01*
X61750000Y-65445830D01*
X61750000Y-65554170D01*
X61771136Y-65660429D01*
X61812597Y-65760523D01*
X61872787Y-65850604D01*
X61949396Y-65927213D01*
X62039477Y-65987403D01*
X62139571Y-66028864D01*
X62245830Y-66050000D01*
X62354170Y-66050000D01*
X62460429Y-66028864D01*
X62560523Y-65987403D01*
X62650604Y-65927213D01*
X62652817Y-65925000D01*
X62790075Y-65925000D01*
X62784411Y-65930664D01*
X62669502Y-66102638D01*
X62590350Y-66293726D01*
X62550000Y-66496584D01*
X62550000Y-66703416D01*
X62590350Y-66906274D01*
X62669502Y-67097362D01*
X62784411Y-67269336D01*
X62930664Y-67415589D01*
X63102638Y-67530498D01*
X63293726Y-67609650D01*
X63496584Y-67650000D01*
X63703416Y-67650000D01*
X63906274Y-67609650D01*
X64097362Y-67530498D01*
X64269336Y-67415589D01*
X64415589Y-67269336D01*
X64530498Y-67097362D01*
X64609650Y-66906274D01*
X64650000Y-66703416D01*
X64650000Y-66496584D01*
X64609650Y-66293726D01*
X64530498Y-66102638D01*
X64415589Y-65930664D01*
X64409925Y-65925000D01*
X65330075Y-65925000D01*
X65324411Y-65930664D01*
X65209502Y-66102638D01*
X65130350Y-66293726D01*
X65090000Y-66496584D01*
X65090000Y-66703416D01*
X65130350Y-66906274D01*
X65209502Y-67097362D01*
X65324411Y-67269336D01*
X65470664Y-67415589D01*
X65642638Y-67530498D01*
X65833726Y-67609650D01*
X66036584Y-67650000D01*
X66243416Y-67650000D01*
X66446274Y-67609650D01*
X66637362Y-67530498D01*
X66809336Y-67415589D01*
X66955589Y-67269336D01*
X67070498Y-67097362D01*
X67149650Y-66906274D01*
X67190000Y-66703416D01*
X67190000Y-66496584D01*
X67149650Y-66293726D01*
X67070498Y-66102638D01*
X66955589Y-65930664D01*
X66949925Y-65925000D01*
X67423960Y-65925000D01*
X67706182Y-66207222D01*
X67670350Y-66293726D01*
X67630000Y-66496584D01*
X67630000Y-66703416D01*
X67670350Y-66906274D01*
X67749502Y-67097362D01*
X67864411Y-67269336D01*
X68010664Y-67415589D01*
X68182638Y-67530498D01*
X68373726Y-67609650D01*
X68576584Y-67650000D01*
X68783416Y-67650000D01*
X68986274Y-67609650D01*
X69083636Y-67569321D01*
X69433264Y-67918949D01*
X69445790Y-67934212D01*
X69491029Y-67971339D01*
X69506698Y-67984198D01*
X69576187Y-68021341D01*
X69651587Y-68044213D01*
X69730001Y-68051936D01*
X69749648Y-68050001D01*
X70084314Y-68050001D01*
X69983799Y-68150516D01*
X69884044Y-68109195D01*
X69661866Y-68065001D01*
X69435336Y-68065001D01*
X69213158Y-68109195D01*
X69003872Y-68195885D01*
X68815519Y-68321738D01*
X68655338Y-68481919D01*
X68529485Y-68670272D01*
X68442795Y-68879558D01*
X68398601Y-69101736D01*
X68398601Y-69328266D01*
X68442795Y-69550444D01*
X68529485Y-69759730D01*
X68655338Y-69948083D01*
X68815519Y-70108264D01*
X68892949Y-70160001D01*
X67664253Y-70160001D01*
X67741683Y-70108264D01*
X67901864Y-69948083D01*
X68027717Y-69759730D01*
X68114407Y-69550444D01*
X68158601Y-69328266D01*
X68158601Y-69101736D01*
X68114407Y-68879558D01*
X68027717Y-68670272D01*
X67901864Y-68481919D01*
X67741683Y-68321738D01*
X67553330Y-68195885D01*
X67344044Y-68109195D01*
X67121866Y-68065001D01*
X66895336Y-68065001D01*
X66673158Y-68109195D01*
X66463872Y-68195885D01*
X66275519Y-68321738D01*
X66115338Y-68481919D01*
X65989485Y-68670272D01*
X65902795Y-68879558D01*
X65858601Y-69101736D01*
X65858601Y-69328266D01*
X65902795Y-69550444D01*
X65989485Y-69759730D01*
X66115338Y-69948083D01*
X66275519Y-70108264D01*
X66352949Y-70160001D01*
X65124253Y-70160001D01*
X65201683Y-70108264D01*
X65361864Y-69948083D01*
X65487717Y-69759730D01*
X65574407Y-69550444D01*
X65618601Y-69328266D01*
X65618601Y-69101736D01*
X65574407Y-68879558D01*
X65487717Y-68670272D01*
X65361864Y-68481919D01*
X65201683Y-68321738D01*
X65013330Y-68195885D01*
X64804044Y-68109195D01*
X64581866Y-68065001D01*
X64355336Y-68065001D01*
X64133158Y-68109195D01*
X63923872Y-68195885D01*
X63735519Y-68321738D01*
X63575338Y-68481919D01*
X63449485Y-68670272D01*
X63362795Y-68879558D01*
X63318601Y-69101736D01*
X63318601Y-69328266D01*
X63362795Y-69550444D01*
X63449485Y-69759730D01*
X63575338Y-69948083D01*
X63735519Y-70108264D01*
X63812949Y-70160001D01*
X62584253Y-70160001D01*
X62661683Y-70108264D01*
X62821864Y-69948083D01*
X62947717Y-69759730D01*
X63034407Y-69550444D01*
X63078601Y-69328266D01*
X63078601Y-69101736D01*
X63034407Y-68879558D01*
X62947717Y-68670272D01*
X62821864Y-68481919D01*
X62661683Y-68321738D01*
X62473330Y-68195885D01*
X62264044Y-68109195D01*
X62041866Y-68065001D01*
X61815336Y-68065001D01*
X61593158Y-68109195D01*
X61383872Y-68195885D01*
X61195519Y-68321738D01*
X61035338Y-68481919D01*
X60909485Y-68670272D01*
X60822795Y-68879558D01*
X60778601Y-69101736D01*
X60778601Y-69328266D01*
X60822795Y-69550444D01*
X60909485Y-69759730D01*
X61035338Y-69948083D01*
X61195519Y-70108264D01*
X61272949Y-70160001D01*
X60070135Y-70160001D01*
X60154470Y-69987941D01*
X59388601Y-69222072D01*
X58622732Y-69987941D01*
X58707067Y-70160001D01*
X57504253Y-70160001D01*
X57581683Y-70108264D01*
X57741864Y-69948083D01*
X57867717Y-69759730D01*
X57954407Y-69550444D01*
X57998601Y-69328266D01*
X57998601Y-69174236D01*
X58223702Y-69174236D01*
X58238133Y-69402280D01*
X58296775Y-69623127D01*
X58397375Y-69828290D01*
X58442670Y-69896079D01*
X58615661Y-69980870D01*
X59381530Y-69215001D01*
X59395672Y-69215001D01*
X60161541Y-69980870D01*
X60334532Y-69896079D01*
X60449228Y-69698451D01*
X60523164Y-69482243D01*
X60553500Y-69255766D01*
X60539069Y-69027722D01*
X60480427Y-68806875D01*
X60379827Y-68601712D01*
X60334532Y-68533923D01*
X60161541Y-68449132D01*
X59395672Y-69215001D01*
X59381530Y-69215001D01*
X58615661Y-68449132D01*
X58442670Y-68533923D01*
X58327974Y-68731551D01*
X58254038Y-68947759D01*
X58223702Y-69174236D01*
X57998601Y-69174236D01*
X57998601Y-69101736D01*
X57954407Y-68879558D01*
X57867717Y-68670272D01*
X57741864Y-68481919D01*
X57702006Y-68442061D01*
X58622732Y-68442061D01*
X59388601Y-69207930D01*
X60154470Y-68442061D01*
X60069679Y-68269070D01*
X59872051Y-68154374D01*
X59655843Y-68080438D01*
X59429366Y-68050102D01*
X59201322Y-68064533D01*
X58980475Y-68123175D01*
X58775312Y-68223775D01*
X58707523Y-68269070D01*
X58622732Y-68442061D01*
X57702006Y-68442061D01*
X57581683Y-68321738D01*
X57393330Y-68195885D01*
X57184044Y-68109195D01*
X56961866Y-68065001D01*
X56735336Y-68065001D01*
X56513158Y-68109195D01*
X56303872Y-68195885D01*
X56115519Y-68321738D01*
X55955338Y-68481919D01*
X55829485Y-68670272D01*
X55742795Y-68879558D01*
X55698601Y-69101736D01*
X55698601Y-69328266D01*
X55742795Y-69550444D01*
X55829485Y-69759730D01*
X55955338Y-69948083D01*
X56115519Y-70108264D01*
X56192949Y-70160001D01*
X54964253Y-70160001D01*
X55041683Y-70108264D01*
X55201864Y-69948083D01*
X55327717Y-69759730D01*
X55414407Y-69550444D01*
X55458601Y-69328266D01*
X55458601Y-69101736D01*
X55414407Y-68879558D01*
X55327717Y-68670272D01*
X55201864Y-68481919D01*
X55041683Y-68321738D01*
X54853330Y-68195885D01*
X54644044Y-68109195D01*
X54421866Y-68065001D01*
X54195336Y-68065001D01*
X53973158Y-68109195D01*
X53763872Y-68195885D01*
X53575519Y-68321738D01*
X53415338Y-68481919D01*
X53289485Y-68670272D01*
X53202795Y-68879558D01*
X53158601Y-69101736D01*
X53158601Y-69328266D01*
X53202795Y-69550444D01*
X53289485Y-69759730D01*
X53415338Y-69948083D01*
X53575519Y-70108264D01*
X53652949Y-70160001D01*
X52424253Y-70160001D01*
X52501683Y-70108264D01*
X52661864Y-69948083D01*
X52787717Y-69759730D01*
X52874407Y-69550444D01*
X52918601Y-69328266D01*
X52918601Y-69101736D01*
X52874407Y-68879558D01*
X52787717Y-68670272D01*
X52661864Y-68481919D01*
X52501683Y-68321738D01*
X52313330Y-68195885D01*
X52104044Y-68109195D01*
X51881866Y-68065001D01*
X51655336Y-68065001D01*
X51433158Y-68109195D01*
X51223872Y-68195885D01*
X51035519Y-68321738D01*
X50875338Y-68481919D01*
X50749485Y-68670272D01*
X50662795Y-68879558D01*
X50618601Y-69101736D01*
X50618601Y-69328266D01*
X50662795Y-69550444D01*
X50749485Y-69759730D01*
X50875338Y-69948083D01*
X51035519Y-70108264D01*
X51112949Y-70160001D01*
X48380898Y-70160001D01*
X47935076Y-70116288D01*
X47521523Y-69991429D01*
X47477478Y-69968010D01*
X47753936Y-70023001D01*
X48163266Y-70023001D01*
X48564731Y-69943145D01*
X48942903Y-69786501D01*
X49283249Y-69559089D01*
X49572689Y-69269649D01*
X49800101Y-68929303D01*
X49956745Y-68551131D01*
X50036601Y-68149666D01*
X50036601Y-67740336D01*
X50011943Y-67616372D01*
X50034640Y-67628504D01*
X50091190Y-67645659D01*
X50150000Y-67651451D01*
X51650000Y-67651451D01*
X51708810Y-67645659D01*
X51765360Y-67628504D01*
X51817477Y-67600647D01*
X51863158Y-67563158D01*
X51900647Y-67517477D01*
X51928504Y-67465360D01*
X51945659Y-67408810D01*
X51951451Y-67350000D01*
X51951451Y-66049589D01*
X52376040Y-65625000D01*
X53050074Y-65625000D01*
X52942638Y-65669502D01*
X52770664Y-65784411D01*
X52624411Y-65930664D01*
X52509502Y-66102638D01*
X52430350Y-66293726D01*
X52390000Y-66496584D01*
X52390000Y-66703416D01*
X52430350Y-66906274D01*
X52509502Y-67097362D01*
X52624411Y-67269336D01*
X52770664Y-67415589D01*
X52942638Y-67530498D01*
X53133726Y-67609650D01*
X53336584Y-67650000D01*
X53543416Y-67650000D01*
X53746274Y-67609650D01*
X53937362Y-67530498D01*
X54109336Y-67415589D01*
X54255589Y-67269336D01*
X54370498Y-67097362D01*
X54449650Y-66906274D01*
X54490000Y-66703416D01*
X54490000Y-66496584D01*
X54449650Y-66293726D01*
X54370498Y-66102638D01*
X54255589Y-65930664D01*
X54109336Y-65784411D01*
X53937362Y-65669502D01*
X53829926Y-65625000D01*
X55590074Y-65625000D01*
X55482638Y-65669502D01*
X55310664Y-65784411D01*
X55164411Y-65930664D01*
X55049502Y-66102638D01*
X54970350Y-66293726D01*
X54930000Y-66496584D01*
X54930000Y-66703416D01*
X54970350Y-66906274D01*
X55049502Y-67097362D01*
X55164411Y-67269336D01*
X55310664Y-67415589D01*
X55482638Y-67530498D01*
X55673726Y-67609650D01*
X55876584Y-67650000D01*
X56083416Y-67650000D01*
X56286274Y-67609650D01*
X56477362Y-67530498D01*
X56649336Y-67415589D01*
X56795589Y-67269336D01*
X56910498Y-67097362D01*
X56989650Y-66906274D01*
X57030000Y-66703416D01*
X57030000Y-66496584D01*
X56989650Y-66293726D01*
X56910498Y-66102638D01*
X56795589Y-65930664D01*
X56649336Y-65784411D01*
X56477362Y-65669502D01*
X56369926Y-65625000D01*
X58130074Y-65625000D01*
X58022638Y-65669502D01*
X57850664Y-65784411D01*
X57704411Y-65930664D01*
X57589502Y-66102638D01*
X57510350Y-66293726D01*
X57470000Y-66496584D01*
X57470000Y-66703416D01*
X57510350Y-66906274D01*
X57589502Y-67097362D01*
X57704411Y-67269336D01*
X57850664Y-67415589D01*
X58022638Y-67530498D01*
X58213726Y-67609650D01*
X58416584Y-67650000D01*
X58623416Y-67650000D01*
X58826274Y-67609650D01*
X59017362Y-67530498D01*
X59189336Y-67415589D01*
X59335589Y-67269336D01*
X59450498Y-67097362D01*
X59529650Y-66906274D01*
X59570000Y-66703416D01*
X59570000Y-66496584D01*
X59529650Y-66293726D01*
X59450498Y-66102638D01*
X59335589Y-65930664D01*
X59189336Y-65784411D01*
X59017362Y-65669502D01*
X58909926Y-65625000D01*
X59483960Y-65625000D01*
X60080324Y-66221364D01*
X60050350Y-66293726D01*
X60010000Y-66496584D01*
X60010000Y-66703416D01*
X60050350Y-66906274D01*
X60129502Y-67097362D01*
X60244411Y-67269336D01*
X60390664Y-67415589D01*
X60562638Y-67530498D01*
X60753726Y-67609650D01*
X60956584Y-67650000D01*
X61163416Y-67650000D01*
X61366274Y-67609650D01*
X61557362Y-67530498D01*
X61729336Y-67415589D01*
X61875589Y-67269336D01*
X61990498Y-67097362D01*
X62069650Y-66906274D01*
X62110000Y-66703416D01*
X62110000Y-66496584D01*
X62069650Y-66293726D01*
X61990498Y-66102638D01*
X61875589Y-65930664D01*
X61729336Y-65784411D01*
X61557362Y-65669502D01*
X61366274Y-65590350D01*
X61163416Y-65550000D01*
X60956584Y-65550000D01*
X60753726Y-65590350D01*
X60681364Y-65620324D01*
X60441271Y-65380231D01*
X60520523Y-65347403D01*
X60610604Y-65287213D01*
X60612817Y-65285000D01*
X61793740Y-65285000D01*
X61771136Y-65339571D01*
X61771136Y-65339571D01*
G37*
X61771136Y-65339571D02*
X61750000Y-65445830D01*
X61750000Y-65554170D01*
X61771136Y-65660429D01*
X61812597Y-65760523D01*
X61872787Y-65850604D01*
X61949396Y-65927213D01*
X62039477Y-65987403D01*
X62139571Y-66028864D01*
X62245830Y-66050000D01*
X62354170Y-66050000D01*
X62460429Y-66028864D01*
X62560523Y-65987403D01*
X62650604Y-65927213D01*
X62652817Y-65925000D01*
X62790075Y-65925000D01*
X62784411Y-65930664D01*
X62669502Y-66102638D01*
X62590350Y-66293726D01*
X62550000Y-66496584D01*
X62550000Y-66703416D01*
X62590350Y-66906274D01*
X62669502Y-67097362D01*
X62784411Y-67269336D01*
X62930664Y-67415589D01*
X63102638Y-67530498D01*
X63293726Y-67609650D01*
X63496584Y-67650000D01*
X63703416Y-67650000D01*
X63906274Y-67609650D01*
X64097362Y-67530498D01*
X64269336Y-67415589D01*
X64415589Y-67269336D01*
X64530498Y-67097362D01*
X64609650Y-66906274D01*
X64650000Y-66703416D01*
X64650000Y-66496584D01*
X64609650Y-66293726D01*
X64530498Y-66102638D01*
X64415589Y-65930664D01*
X64409925Y-65925000D01*
X65330075Y-65925000D01*
X65324411Y-65930664D01*
X65209502Y-66102638D01*
X65130350Y-66293726D01*
X65090000Y-66496584D01*
X65090000Y-66703416D01*
X65130350Y-66906274D01*
X65209502Y-67097362D01*
X65324411Y-67269336D01*
X65470664Y-67415589D01*
X65642638Y-67530498D01*
X65833726Y-67609650D01*
X66036584Y-67650000D01*
X66243416Y-67650000D01*
X66446274Y-67609650D01*
X66637362Y-67530498D01*
X66809336Y-67415589D01*
X66955589Y-67269336D01*
X67070498Y-67097362D01*
X67149650Y-66906274D01*
X67190000Y-66703416D01*
X67190000Y-66496584D01*
X67149650Y-66293726D01*
X67070498Y-66102638D01*
X66955589Y-65930664D01*
X66949925Y-65925000D01*
X67423960Y-65925000D01*
X67706182Y-66207222D01*
X67670350Y-66293726D01*
X67630000Y-66496584D01*
X67630000Y-66703416D01*
X67670350Y-66906274D01*
X67749502Y-67097362D01*
X67864411Y-67269336D01*
X68010664Y-67415589D01*
X68182638Y-67530498D01*
X68373726Y-67609650D01*
X68576584Y-67650000D01*
X68783416Y-67650000D01*
X68986274Y-67609650D01*
X69083636Y-67569321D01*
X69433264Y-67918949D01*
X69445790Y-67934212D01*
X69491029Y-67971339D01*
X69506698Y-67984198D01*
X69576187Y-68021341D01*
X69651587Y-68044213D01*
X69730001Y-68051936D01*
X69749648Y-68050001D01*
X70084314Y-68050001D01*
X69983799Y-68150516D01*
X69884044Y-68109195D01*
X69661866Y-68065001D01*
X69435336Y-68065001D01*
X69213158Y-68109195D01*
X69003872Y-68195885D01*
X68815519Y-68321738D01*
X68655338Y-68481919D01*
X68529485Y-68670272D01*
X68442795Y-68879558D01*
X68398601Y-69101736D01*
X68398601Y-69328266D01*
X68442795Y-69550444D01*
X68529485Y-69759730D01*
X68655338Y-69948083D01*
X68815519Y-70108264D01*
X68892949Y-70160001D01*
X67664253Y-70160001D01*
X67741683Y-70108264D01*
X67901864Y-69948083D01*
X68027717Y-69759730D01*
X68114407Y-69550444D01*
X68158601Y-69328266D01*
X68158601Y-69101736D01*
X68114407Y-68879558D01*
X68027717Y-68670272D01*
X67901864Y-68481919D01*
X67741683Y-68321738D01*
X67553330Y-68195885D01*
X67344044Y-68109195D01*
X67121866Y-68065001D01*
X66895336Y-68065001D01*
X66673158Y-68109195D01*
X66463872Y-68195885D01*
X66275519Y-68321738D01*
X66115338Y-68481919D01*
X65989485Y-68670272D01*
X65902795Y-68879558D01*
X65858601Y-69101736D01*
X65858601Y-69328266D01*
X65902795Y-69550444D01*
X65989485Y-69759730D01*
X66115338Y-69948083D01*
X66275519Y-70108264D01*
X66352949Y-70160001D01*
X65124253Y-70160001D01*
X65201683Y-70108264D01*
X65361864Y-69948083D01*
X65487717Y-69759730D01*
X65574407Y-69550444D01*
X65618601Y-69328266D01*
X65618601Y-69101736D01*
X65574407Y-68879558D01*
X65487717Y-68670272D01*
X65361864Y-68481919D01*
X65201683Y-68321738D01*
X65013330Y-68195885D01*
X64804044Y-68109195D01*
X64581866Y-68065001D01*
X64355336Y-68065001D01*
X64133158Y-68109195D01*
X63923872Y-68195885D01*
X63735519Y-68321738D01*
X63575338Y-68481919D01*
X63449485Y-68670272D01*
X63362795Y-68879558D01*
X63318601Y-69101736D01*
X63318601Y-69328266D01*
X63362795Y-69550444D01*
X63449485Y-69759730D01*
X63575338Y-69948083D01*
X63735519Y-70108264D01*
X63812949Y-70160001D01*
X62584253Y-70160001D01*
X62661683Y-70108264D01*
X62821864Y-69948083D01*
X62947717Y-69759730D01*
X63034407Y-69550444D01*
X63078601Y-69328266D01*
X63078601Y-69101736D01*
X63034407Y-68879558D01*
X62947717Y-68670272D01*
X62821864Y-68481919D01*
X62661683Y-68321738D01*
X62473330Y-68195885D01*
X62264044Y-68109195D01*
X62041866Y-68065001D01*
X61815336Y-68065001D01*
X61593158Y-68109195D01*
X61383872Y-68195885D01*
X61195519Y-68321738D01*
X61035338Y-68481919D01*
X60909485Y-68670272D01*
X60822795Y-68879558D01*
X60778601Y-69101736D01*
X60778601Y-69328266D01*
X60822795Y-69550444D01*
X60909485Y-69759730D01*
X61035338Y-69948083D01*
X61195519Y-70108264D01*
X61272949Y-70160001D01*
X60070135Y-70160001D01*
X60154470Y-69987941D01*
X59388601Y-69222072D01*
X58622732Y-69987941D01*
X58707067Y-70160001D01*
X57504253Y-70160001D01*
X57581683Y-70108264D01*
X57741864Y-69948083D01*
X57867717Y-69759730D01*
X57954407Y-69550444D01*
X57998601Y-69328266D01*
X57998601Y-69174236D01*
X58223702Y-69174236D01*
X58238133Y-69402280D01*
X58296775Y-69623127D01*
X58397375Y-69828290D01*
X58442670Y-69896079D01*
X58615661Y-69980870D01*
X59381530Y-69215001D01*
X59395672Y-69215001D01*
X60161541Y-69980870D01*
X60334532Y-69896079D01*
X60449228Y-69698451D01*
X60523164Y-69482243D01*
X60553500Y-69255766D01*
X60539069Y-69027722D01*
X60480427Y-68806875D01*
X60379827Y-68601712D01*
X60334532Y-68533923D01*
X60161541Y-68449132D01*
X59395672Y-69215001D01*
X59381530Y-69215001D01*
X58615661Y-68449132D01*
X58442670Y-68533923D01*
X58327974Y-68731551D01*
X58254038Y-68947759D01*
X58223702Y-69174236D01*
X57998601Y-69174236D01*
X57998601Y-69101736D01*
X57954407Y-68879558D01*
X57867717Y-68670272D01*
X57741864Y-68481919D01*
X57702006Y-68442061D01*
X58622732Y-68442061D01*
X59388601Y-69207930D01*
X60154470Y-68442061D01*
X60069679Y-68269070D01*
X59872051Y-68154374D01*
X59655843Y-68080438D01*
X59429366Y-68050102D01*
X59201322Y-68064533D01*
X58980475Y-68123175D01*
X58775312Y-68223775D01*
X58707523Y-68269070D01*
X58622732Y-68442061D01*
X57702006Y-68442061D01*
X57581683Y-68321738D01*
X57393330Y-68195885D01*
X57184044Y-68109195D01*
X56961866Y-68065001D01*
X56735336Y-68065001D01*
X56513158Y-68109195D01*
X56303872Y-68195885D01*
X56115519Y-68321738D01*
X55955338Y-68481919D01*
X55829485Y-68670272D01*
X55742795Y-68879558D01*
X55698601Y-69101736D01*
X55698601Y-69328266D01*
X55742795Y-69550444D01*
X55829485Y-69759730D01*
X55955338Y-69948083D01*
X56115519Y-70108264D01*
X56192949Y-70160001D01*
X54964253Y-70160001D01*
X55041683Y-70108264D01*
X55201864Y-69948083D01*
X55327717Y-69759730D01*
X55414407Y-69550444D01*
X55458601Y-69328266D01*
X55458601Y-69101736D01*
X55414407Y-68879558D01*
X55327717Y-68670272D01*
X55201864Y-68481919D01*
X55041683Y-68321738D01*
X54853330Y-68195885D01*
X54644044Y-68109195D01*
X54421866Y-68065001D01*
X54195336Y-68065001D01*
X53973158Y-68109195D01*
X53763872Y-68195885D01*
X53575519Y-68321738D01*
X53415338Y-68481919D01*
X53289485Y-68670272D01*
X53202795Y-68879558D01*
X53158601Y-69101736D01*
X53158601Y-69328266D01*
X53202795Y-69550444D01*
X53289485Y-69759730D01*
X53415338Y-69948083D01*
X53575519Y-70108264D01*
X53652949Y-70160001D01*
X52424253Y-70160001D01*
X52501683Y-70108264D01*
X52661864Y-69948083D01*
X52787717Y-69759730D01*
X52874407Y-69550444D01*
X52918601Y-69328266D01*
X52918601Y-69101736D01*
X52874407Y-68879558D01*
X52787717Y-68670272D01*
X52661864Y-68481919D01*
X52501683Y-68321738D01*
X52313330Y-68195885D01*
X52104044Y-68109195D01*
X51881866Y-68065001D01*
X51655336Y-68065001D01*
X51433158Y-68109195D01*
X51223872Y-68195885D01*
X51035519Y-68321738D01*
X50875338Y-68481919D01*
X50749485Y-68670272D01*
X50662795Y-68879558D01*
X50618601Y-69101736D01*
X50618601Y-69328266D01*
X50662795Y-69550444D01*
X50749485Y-69759730D01*
X50875338Y-69948083D01*
X51035519Y-70108264D01*
X51112949Y-70160001D01*
X48380898Y-70160001D01*
X47935076Y-70116288D01*
X47521523Y-69991429D01*
X47477478Y-69968010D01*
X47753936Y-70023001D01*
X48163266Y-70023001D01*
X48564731Y-69943145D01*
X48942903Y-69786501D01*
X49283249Y-69559089D01*
X49572689Y-69269649D01*
X49800101Y-68929303D01*
X49956745Y-68551131D01*
X50036601Y-68149666D01*
X50036601Y-67740336D01*
X50011943Y-67616372D01*
X50034640Y-67628504D01*
X50091190Y-67645659D01*
X50150000Y-67651451D01*
X51650000Y-67651451D01*
X51708810Y-67645659D01*
X51765360Y-67628504D01*
X51817477Y-67600647D01*
X51863158Y-67563158D01*
X51900647Y-67517477D01*
X51928504Y-67465360D01*
X51945659Y-67408810D01*
X51951451Y-67350000D01*
X51951451Y-66049589D01*
X52376040Y-65625000D01*
X53050074Y-65625000D01*
X52942638Y-65669502D01*
X52770664Y-65784411D01*
X52624411Y-65930664D01*
X52509502Y-66102638D01*
X52430350Y-66293726D01*
X52390000Y-66496584D01*
X52390000Y-66703416D01*
X52430350Y-66906274D01*
X52509502Y-67097362D01*
X52624411Y-67269336D01*
X52770664Y-67415589D01*
X52942638Y-67530498D01*
X53133726Y-67609650D01*
X53336584Y-67650000D01*
X53543416Y-67650000D01*
X53746274Y-67609650D01*
X53937362Y-67530498D01*
X54109336Y-67415589D01*
X54255589Y-67269336D01*
X54370498Y-67097362D01*
X54449650Y-66906274D01*
X54490000Y-66703416D01*
X54490000Y-66496584D01*
X54449650Y-66293726D01*
X54370498Y-66102638D01*
X54255589Y-65930664D01*
X54109336Y-65784411D01*
X53937362Y-65669502D01*
X53829926Y-65625000D01*
X55590074Y-65625000D01*
X55482638Y-65669502D01*
X55310664Y-65784411D01*
X55164411Y-65930664D01*
X55049502Y-66102638D01*
X54970350Y-66293726D01*
X54930000Y-66496584D01*
X54930000Y-66703416D01*
X54970350Y-66906274D01*
X55049502Y-67097362D01*
X55164411Y-67269336D01*
X55310664Y-67415589D01*
X55482638Y-67530498D01*
X55673726Y-67609650D01*
X55876584Y-67650000D01*
X56083416Y-67650000D01*
X56286274Y-67609650D01*
X56477362Y-67530498D01*
X56649336Y-67415589D01*
X56795589Y-67269336D01*
X56910498Y-67097362D01*
X56989650Y-66906274D01*
X57030000Y-66703416D01*
X57030000Y-66496584D01*
X56989650Y-66293726D01*
X56910498Y-66102638D01*
X56795589Y-65930664D01*
X56649336Y-65784411D01*
X56477362Y-65669502D01*
X56369926Y-65625000D01*
X58130074Y-65625000D01*
X58022638Y-65669502D01*
X57850664Y-65784411D01*
X57704411Y-65930664D01*
X57589502Y-66102638D01*
X57510350Y-66293726D01*
X57470000Y-66496584D01*
X57470000Y-66703416D01*
X57510350Y-66906274D01*
X57589502Y-67097362D01*
X57704411Y-67269336D01*
X57850664Y-67415589D01*
X58022638Y-67530498D01*
X58213726Y-67609650D01*
X58416584Y-67650000D01*
X58623416Y-67650000D01*
X58826274Y-67609650D01*
X59017362Y-67530498D01*
X59189336Y-67415589D01*
X59335589Y-67269336D01*
X59450498Y-67097362D01*
X59529650Y-66906274D01*
X59570000Y-66703416D01*
X59570000Y-66496584D01*
X59529650Y-66293726D01*
X59450498Y-66102638D01*
X59335589Y-65930664D01*
X59189336Y-65784411D01*
X59017362Y-65669502D01*
X58909926Y-65625000D01*
X59483960Y-65625000D01*
X60080324Y-66221364D01*
X60050350Y-66293726D01*
X60010000Y-66496584D01*
X60010000Y-66703416D01*
X60050350Y-66906274D01*
X60129502Y-67097362D01*
X60244411Y-67269336D01*
X60390664Y-67415589D01*
X60562638Y-67530498D01*
X60753726Y-67609650D01*
X60956584Y-67650000D01*
X61163416Y-67650000D01*
X61366274Y-67609650D01*
X61557362Y-67530498D01*
X61729336Y-67415589D01*
X61875589Y-67269336D01*
X61990498Y-67097362D01*
X62069650Y-66906274D01*
X62110000Y-66703416D01*
X62110000Y-66496584D01*
X62069650Y-66293726D01*
X61990498Y-66102638D01*
X61875589Y-65930664D01*
X61729336Y-65784411D01*
X61557362Y-65669502D01*
X61366274Y-65590350D01*
X61163416Y-65550000D01*
X60956584Y-65550000D01*
X60753726Y-65590350D01*
X60681364Y-65620324D01*
X60441271Y-65380231D01*
X60520523Y-65347403D01*
X60610604Y-65287213D01*
X60612817Y-65285000D01*
X61793740Y-65285000D01*
X61771136Y-65339571D01*
G36*
X61195519Y-48001738D02*
G01*
X61035338Y-48161919D01*
X60909485Y-48350272D01*
X60822795Y-48559558D01*
X60778601Y-48781736D01*
X60778601Y-49008266D01*
X60822795Y-49230444D01*
X60909485Y-49439730D01*
X61035338Y-49628083D01*
X61195519Y-49788264D01*
X61213083Y-49800000D01*
X60915685Y-49800000D01*
X60646737Y-49531052D01*
X60634211Y-49515789D01*
X60573303Y-49465803D01*
X60503814Y-49428660D01*
X60428414Y-49405788D01*
X60369647Y-49400000D01*
X60369646Y-49400000D01*
X60350000Y-49398065D01*
X60330354Y-49400000D01*
X52769635Y-49400000D01*
X52749999Y-49398066D01*
X52730363Y-49400000D01*
X52730353Y-49400000D01*
X52671586Y-49405788D01*
X52596186Y-49428660D01*
X52526697Y-49465803D01*
X52465789Y-49515789D01*
X52453263Y-49531052D01*
X51931048Y-50053267D01*
X51915790Y-50065789D01*
X51903268Y-50081047D01*
X51903265Y-50081050D01*
X51865803Y-50126698D01*
X51828661Y-50196186D01*
X51805788Y-50271587D01*
X51798065Y-50350000D01*
X51800001Y-50369656D01*
X51800001Y-50816996D01*
X51715589Y-50690664D01*
X51569336Y-50544411D01*
X51397362Y-50429502D01*
X51206274Y-50350350D01*
X51003416Y-50310000D01*
X50796584Y-50310000D01*
X50593726Y-50350350D01*
X50402638Y-50429502D01*
X50230664Y-50544411D01*
X50084411Y-50690664D01*
X49969502Y-50862638D01*
X49890350Y-51053726D01*
X49850000Y-51256584D01*
X49850000Y-51463416D01*
X49890350Y-51666274D01*
X49969502Y-51857362D01*
X50084411Y-52029336D01*
X50230664Y-52175589D01*
X50402638Y-52290498D01*
X50593726Y-52369650D01*
X50796584Y-52410000D01*
X51003416Y-52410000D01*
X51206274Y-52369650D01*
X51397362Y-52290498D01*
X51569336Y-52175589D01*
X51715589Y-52029336D01*
X51800001Y-51903004D01*
X51800000Y-56634315D01*
X50584315Y-57850000D01*
X50376527Y-57850000D01*
X50375659Y-57841190D01*
X50358504Y-57784640D01*
X50330647Y-57732523D01*
X50293158Y-57686842D01*
X50247477Y-57649353D01*
X50195360Y-57621496D01*
X50138810Y-57604341D01*
X50080000Y-57598549D01*
X48580000Y-57598549D01*
X48521190Y-57604341D01*
X48464640Y-57621496D01*
X48412523Y-57649353D01*
X48366842Y-57686842D01*
X48329353Y-57732523D01*
X48301496Y-57784640D01*
X48284341Y-57841190D01*
X48278549Y-57900000D01*
X48278549Y-58600000D01*
X48284341Y-58658810D01*
X48301496Y-58715360D01*
X48329353Y-58767477D01*
X48366842Y-58813158D01*
X48412523Y-58850647D01*
X48464640Y-58878504D01*
X48521190Y-58895659D01*
X48580000Y-58901451D01*
X50080000Y-58901451D01*
X50138810Y-58895659D01*
X50195360Y-58878504D01*
X50247477Y-58850647D01*
X50293158Y-58813158D01*
X50330647Y-58767477D01*
X50358504Y-58715360D01*
X50375659Y-58658810D01*
X50376527Y-58650000D01*
X50730354Y-58650000D01*
X50750000Y-58651935D01*
X50769646Y-58650000D01*
X50769647Y-58650000D01*
X50828414Y-58644212D01*
X50903814Y-58621340D01*
X50973303Y-58584197D01*
X51034211Y-58534211D01*
X51046737Y-58518948D01*
X52468949Y-57096736D01*
X52484211Y-57084211D01*
X52534197Y-57023303D01*
X52571340Y-56953814D01*
X52594212Y-56878414D01*
X52600000Y-56819647D01*
X52600000Y-56819646D01*
X52601935Y-56800000D01*
X52600000Y-56780353D01*
X52600000Y-51992802D01*
X52624411Y-52029336D01*
X52770664Y-52175589D01*
X52942638Y-52290498D01*
X52975000Y-52303903D01*
X52975001Y-54479127D01*
X52972945Y-54500004D01*
X52981150Y-54583318D01*
X52996585Y-54634197D01*
X53005453Y-54663431D01*
X53044917Y-54737264D01*
X53098027Y-54801978D01*
X53114239Y-54815283D01*
X60949996Y-62651041D01*
X60949996Y-62654170D01*
X60971132Y-62760429D01*
X61008235Y-62850001D01*
X60769646Y-62850001D01*
X60749999Y-62848066D01*
X60730352Y-62850001D01*
X60671585Y-62855789D01*
X60596185Y-62878661D01*
X60526696Y-62915804D01*
X60465788Y-62965790D01*
X60453264Y-62981051D01*
X58931052Y-64503263D01*
X58915789Y-64515789D01*
X58865803Y-64576698D01*
X58828660Y-64646187D01*
X58810460Y-64706186D01*
X58805788Y-64721587D01*
X58800527Y-64775000D01*
X52220867Y-64775000D01*
X52200000Y-64772945D01*
X52179133Y-64775000D01*
X52179126Y-64775000D01*
X52116686Y-64781150D01*
X52036573Y-64805452D01*
X51962740Y-64844916D01*
X51898026Y-64898026D01*
X51884716Y-64914244D01*
X51250411Y-65548549D01*
X50150000Y-65548549D01*
X50091190Y-65554341D01*
X50034640Y-65571496D01*
X49982523Y-65599353D01*
X49936842Y-65636842D01*
X49899353Y-65682523D01*
X49871496Y-65734640D01*
X49854341Y-65791190D01*
X49848549Y-65850000D01*
X49848549Y-67077663D01*
X49800101Y-66960699D01*
X49572689Y-66620353D01*
X49283249Y-66330913D01*
X48942903Y-66103501D01*
X48564731Y-65946857D01*
X48163266Y-65867001D01*
X47753936Y-65867001D01*
X47352471Y-65946857D01*
X46974299Y-66103501D01*
X46633953Y-66330913D01*
X46344513Y-66620353D01*
X46150001Y-66911461D01*
X46150001Y-63451451D01*
X46870000Y-63451451D01*
X46928810Y-63445659D01*
X46985360Y-63428504D01*
X47037477Y-63400647D01*
X47083158Y-63363158D01*
X47120647Y-63317477D01*
X47148504Y-63265360D01*
X47165659Y-63208810D01*
X47171451Y-63150000D01*
X47171451Y-62150000D01*
X47978549Y-62150000D01*
X47978549Y-63150000D01*
X47984341Y-63208810D01*
X48001496Y-63265360D01*
X48029353Y-63317477D01*
X48066842Y-63363158D01*
X48112523Y-63400647D01*
X48164640Y-63428504D01*
X48221190Y-63445659D01*
X48280000Y-63451451D01*
X49080000Y-63451451D01*
X49138810Y-63445659D01*
X49195360Y-63428504D01*
X49247477Y-63400647D01*
X49293158Y-63363158D01*
X49330647Y-63317477D01*
X49358504Y-63265360D01*
X49375659Y-63208810D01*
X49381451Y-63150000D01*
X49381451Y-62150000D01*
X49375659Y-62091190D01*
X49358504Y-62034640D01*
X49330647Y-61982523D01*
X49293158Y-61936842D01*
X49250033Y-61901451D01*
X50080000Y-61901451D01*
X50138810Y-61895659D01*
X50195360Y-61878504D01*
X50247477Y-61850647D01*
X50293158Y-61813158D01*
X50330647Y-61767477D01*
X50358504Y-61715360D01*
X50375659Y-61658810D01*
X50376527Y-61650000D01*
X51684315Y-61650000D01*
X53974499Y-63940185D01*
X53974499Y-63978669D01*
X53995635Y-64084928D01*
X54037096Y-64185022D01*
X54097286Y-64275103D01*
X54173895Y-64351712D01*
X54263976Y-64411902D01*
X54364070Y-64453363D01*
X54470329Y-64474499D01*
X54578669Y-64474499D01*
X54684928Y-64453363D01*
X54785022Y-64411902D01*
X54875103Y-64351712D01*
X54951712Y-64275103D01*
X55011902Y-64185022D01*
X55053363Y-64084928D01*
X55074499Y-63978669D01*
X55074499Y-63870329D01*
X55053363Y-63764070D01*
X55011902Y-63663976D01*
X54951712Y-63573895D01*
X54875103Y-63497286D01*
X54785022Y-63437096D01*
X54684928Y-63395635D01*
X54578669Y-63374499D01*
X54540185Y-63374499D01*
X52146737Y-60981052D01*
X52134211Y-60965789D01*
X52073303Y-60915803D01*
X52003814Y-60878660D01*
X51928414Y-60855788D01*
X51869647Y-60850000D01*
X51869646Y-60850000D01*
X51850000Y-60848065D01*
X51830354Y-60850000D01*
X50376527Y-60850000D01*
X50375659Y-60841190D01*
X50358504Y-60784640D01*
X50330647Y-60732523D01*
X50293158Y-60686842D01*
X50247477Y-60649353D01*
X50195360Y-60621496D01*
X50138810Y-60604341D01*
X50080000Y-60598549D01*
X48580000Y-60598549D01*
X48521190Y-60604341D01*
X48464640Y-60621496D01*
X48412523Y-60649353D01*
X48366842Y-60686842D01*
X48329353Y-60732523D01*
X48301496Y-60784640D01*
X48284341Y-60841190D01*
X48278549Y-60900000D01*
X48278549Y-61600000D01*
X48284341Y-61658810D01*
X48301496Y-61715360D01*
X48329353Y-61767477D01*
X48366842Y-61813158D01*
X48409967Y-61848549D01*
X48280000Y-61848549D01*
X48221190Y-61854341D01*
X48164640Y-61871496D01*
X48112523Y-61899353D01*
X48066842Y-61936842D01*
X48029353Y-61982523D01*
X48001496Y-62034640D01*
X47984341Y-62091190D01*
X47978549Y-62150000D01*
X47171451Y-62150000D01*
X47165659Y-62091190D01*
X47148504Y-62034640D01*
X47120647Y-61982523D01*
X47083158Y-61936842D01*
X47037477Y-61899353D01*
X46985360Y-61871496D01*
X46928810Y-61854341D01*
X46870000Y-61848549D01*
X46150001Y-61848549D01*
X46150001Y-60426131D01*
X46820000Y-60426131D01*
X46820000Y-60573869D01*
X46848822Y-60718767D01*
X46905359Y-60855258D01*
X46987437Y-60978097D01*
X47091903Y-61082563D01*
X47214742Y-61164641D01*
X47351233Y-61221178D01*
X47496131Y-61250000D01*
X47643869Y-61250000D01*
X47788767Y-61221178D01*
X47925258Y-61164641D01*
X48048097Y-61082563D01*
X48152563Y-60978097D01*
X48234641Y-60855258D01*
X48291178Y-60718767D01*
X48320000Y-60573869D01*
X48320000Y-60426131D01*
X48291178Y-60281233D01*
X48234641Y-60144742D01*
X48152563Y-60021903D01*
X48048097Y-59917437D01*
X47925258Y-59835359D01*
X47788767Y-59778822D01*
X47643869Y-59750000D01*
X47496131Y-59750000D01*
X47351233Y-59778822D01*
X47214742Y-59835359D01*
X47091903Y-59917437D01*
X46987437Y-60021903D01*
X46905359Y-60144742D01*
X46848822Y-60281233D01*
X46820000Y-60426131D01*
X46150001Y-60426131D01*
X46150001Y-57426131D01*
X46820000Y-57426131D01*
X46820000Y-57573869D01*
X46848822Y-57718767D01*
X46905359Y-57855258D01*
X46987437Y-57978097D01*
X47091903Y-58082563D01*
X47214742Y-58164641D01*
X47351233Y-58221178D01*
X47496131Y-58250000D01*
X47643869Y-58250000D01*
X47788767Y-58221178D01*
X47925258Y-58164641D01*
X48048097Y-58082563D01*
X48152563Y-57978097D01*
X48234641Y-57855258D01*
X48291178Y-57718767D01*
X48320000Y-57573869D01*
X48320000Y-57426131D01*
X48291178Y-57281233D01*
X48234641Y-57144742D01*
X48204746Y-57100000D01*
X48268500Y-57100000D01*
X48274485Y-57160771D01*
X48292212Y-57219206D01*
X48320997Y-57273060D01*
X48359736Y-57320264D01*
X48406940Y-57359003D01*
X48460794Y-57387788D01*
X48519229Y-57405515D01*
X48580000Y-57411500D01*
X49247500Y-57410000D01*
X49325000Y-57332500D01*
X49325000Y-56755000D01*
X49335000Y-56755000D01*
X49335000Y-57332500D01*
X49412500Y-57410000D01*
X50080000Y-57411500D01*
X50140771Y-57405515D01*
X50199206Y-57387788D01*
X50253060Y-57359003D01*
X50300264Y-57320264D01*
X50339003Y-57273060D01*
X50367788Y-57219206D01*
X50385515Y-57160771D01*
X50391500Y-57100000D01*
X50390000Y-56832500D01*
X50312500Y-56755000D01*
X49335000Y-56755000D01*
X49325000Y-56755000D01*
X48347500Y-56755000D01*
X48270000Y-56832500D01*
X48268500Y-57100000D01*
X48204746Y-57100000D01*
X48152563Y-57021903D01*
X48048097Y-56917437D01*
X47925258Y-56835359D01*
X47788767Y-56778822D01*
X47643869Y-56750000D01*
X47496131Y-56750000D01*
X47351233Y-56778822D01*
X47214742Y-56835359D01*
X47091903Y-56917437D01*
X46987437Y-57021903D01*
X46905359Y-57144742D01*
X46848822Y-57281233D01*
X46820000Y-57426131D01*
X46150001Y-57426131D01*
X46150001Y-56151451D01*
X46870000Y-56151451D01*
X46928810Y-56145659D01*
X46985360Y-56128504D01*
X47037477Y-56100647D01*
X47083158Y-56063158D01*
X47120647Y-56017477D01*
X47148504Y-55965360D01*
X47165659Y-55908810D01*
X47171451Y-55850000D01*
X47171451Y-54850000D01*
X47978549Y-54850000D01*
X47978549Y-55850000D01*
X47984341Y-55908810D01*
X48001496Y-55965360D01*
X48029353Y-56017477D01*
X48066842Y-56063158D01*
X48112523Y-56100647D01*
X48164640Y-56128504D01*
X48221190Y-56145659D01*
X48280000Y-56151451D01*
X48394202Y-56151451D01*
X48359736Y-56179736D01*
X48320997Y-56226940D01*
X48292212Y-56280794D01*
X48274485Y-56339229D01*
X48268500Y-56400000D01*
X48270000Y-56667500D01*
X48347500Y-56745000D01*
X49325000Y-56745000D01*
X49325000Y-56167500D01*
X49335000Y-56167500D01*
X49335000Y-56745000D01*
X50312500Y-56745000D01*
X50390000Y-56667500D01*
X50391500Y-56400000D01*
X50385515Y-56339229D01*
X50367788Y-56280794D01*
X50339003Y-56226940D01*
X50300264Y-56179736D01*
X50253060Y-56140997D01*
X50199206Y-56112212D01*
X50140771Y-56094485D01*
X50080000Y-56088500D01*
X49412500Y-56090000D01*
X49335000Y-56167500D01*
X49325000Y-56167500D01*
X49253337Y-56095837D01*
X49293158Y-56063158D01*
X49330647Y-56017477D01*
X49358504Y-55965360D01*
X49375659Y-55908810D01*
X49381451Y-55850000D01*
X49381451Y-54850000D01*
X49375659Y-54791190D01*
X49358504Y-54734640D01*
X49330647Y-54682523D01*
X49293158Y-54636842D01*
X49247477Y-54599353D01*
X49195360Y-54571496D01*
X49138810Y-54554341D01*
X49080000Y-54548549D01*
X48280000Y-54548549D01*
X48221190Y-54554341D01*
X48164640Y-54571496D01*
X48112523Y-54599353D01*
X48066842Y-54636842D01*
X48029353Y-54682523D01*
X48001496Y-54734640D01*
X47984341Y-54791190D01*
X47978549Y-54850000D01*
X47171451Y-54850000D01*
X47165659Y-54791190D01*
X47148504Y-54734640D01*
X47120647Y-54682523D01*
X47083158Y-54636842D01*
X47037477Y-54599353D01*
X46985360Y-54571496D01*
X46928810Y-54554341D01*
X46870000Y-54548549D01*
X46150001Y-54548549D01*
X46150001Y-51198541D01*
X46344513Y-51489649D01*
X46633953Y-51779089D01*
X46974299Y-52006501D01*
X47352471Y-52163145D01*
X47753936Y-52243001D01*
X48163266Y-52243001D01*
X48564731Y-52163145D01*
X48942903Y-52006501D01*
X49283249Y-51779089D01*
X49572689Y-51489649D01*
X49800101Y-51149303D01*
X49956745Y-50771131D01*
X50036601Y-50369666D01*
X50036601Y-49960336D01*
X49956745Y-49558871D01*
X49800101Y-49180699D01*
X49572689Y-48840353D01*
X49283249Y-48550913D01*
X48942903Y-48323501D01*
X48564731Y-48166857D01*
X48163266Y-48087001D01*
X47753936Y-48087001D01*
X47473445Y-48142794D01*
X47507261Y-48124510D01*
X47919924Y-47996769D01*
X48364872Y-47950003D01*
X48365565Y-47950001D01*
X61272949Y-47950001D01*
X61195519Y-48001738D01*
X61195519Y-48001738D01*
G37*
X61195519Y-48001738D02*
X61035338Y-48161919D01*
X60909485Y-48350272D01*
X60822795Y-48559558D01*
X60778601Y-48781736D01*
X60778601Y-49008266D01*
X60822795Y-49230444D01*
X60909485Y-49439730D01*
X61035338Y-49628083D01*
X61195519Y-49788264D01*
X61213083Y-49800000D01*
X60915685Y-49800000D01*
X60646737Y-49531052D01*
X60634211Y-49515789D01*
X60573303Y-49465803D01*
X60503814Y-49428660D01*
X60428414Y-49405788D01*
X60369647Y-49400000D01*
X60369646Y-49400000D01*
X60350000Y-49398065D01*
X60330354Y-49400000D01*
X52769635Y-49400000D01*
X52749999Y-49398066D01*
X52730363Y-49400000D01*
X52730353Y-49400000D01*
X52671586Y-49405788D01*
X52596186Y-49428660D01*
X52526697Y-49465803D01*
X52465789Y-49515789D01*
X52453263Y-49531052D01*
X51931048Y-50053267D01*
X51915790Y-50065789D01*
X51903268Y-50081047D01*
X51903265Y-50081050D01*
X51865803Y-50126698D01*
X51828661Y-50196186D01*
X51805788Y-50271587D01*
X51798065Y-50350000D01*
X51800001Y-50369656D01*
X51800001Y-50816996D01*
X51715589Y-50690664D01*
X51569336Y-50544411D01*
X51397362Y-50429502D01*
X51206274Y-50350350D01*
X51003416Y-50310000D01*
X50796584Y-50310000D01*
X50593726Y-50350350D01*
X50402638Y-50429502D01*
X50230664Y-50544411D01*
X50084411Y-50690664D01*
X49969502Y-50862638D01*
X49890350Y-51053726D01*
X49850000Y-51256584D01*
X49850000Y-51463416D01*
X49890350Y-51666274D01*
X49969502Y-51857362D01*
X50084411Y-52029336D01*
X50230664Y-52175589D01*
X50402638Y-52290498D01*
X50593726Y-52369650D01*
X50796584Y-52410000D01*
X51003416Y-52410000D01*
X51206274Y-52369650D01*
X51397362Y-52290498D01*
X51569336Y-52175589D01*
X51715589Y-52029336D01*
X51800001Y-51903004D01*
X51800000Y-56634315D01*
X50584315Y-57850000D01*
X50376527Y-57850000D01*
X50375659Y-57841190D01*
X50358504Y-57784640D01*
X50330647Y-57732523D01*
X50293158Y-57686842D01*
X50247477Y-57649353D01*
X50195360Y-57621496D01*
X50138810Y-57604341D01*
X50080000Y-57598549D01*
X48580000Y-57598549D01*
X48521190Y-57604341D01*
X48464640Y-57621496D01*
X48412523Y-57649353D01*
X48366842Y-57686842D01*
X48329353Y-57732523D01*
X48301496Y-57784640D01*
X48284341Y-57841190D01*
X48278549Y-57900000D01*
X48278549Y-58600000D01*
X48284341Y-58658810D01*
X48301496Y-58715360D01*
X48329353Y-58767477D01*
X48366842Y-58813158D01*
X48412523Y-58850647D01*
X48464640Y-58878504D01*
X48521190Y-58895659D01*
X48580000Y-58901451D01*
X50080000Y-58901451D01*
X50138810Y-58895659D01*
X50195360Y-58878504D01*
X50247477Y-58850647D01*
X50293158Y-58813158D01*
X50330647Y-58767477D01*
X50358504Y-58715360D01*
X50375659Y-58658810D01*
X50376527Y-58650000D01*
X50730354Y-58650000D01*
X50750000Y-58651935D01*
X50769646Y-58650000D01*
X50769647Y-58650000D01*
X50828414Y-58644212D01*
X50903814Y-58621340D01*
X50973303Y-58584197D01*
X51034211Y-58534211D01*
X51046737Y-58518948D01*
X52468949Y-57096736D01*
X52484211Y-57084211D01*
X52534197Y-57023303D01*
X52571340Y-56953814D01*
X52594212Y-56878414D01*
X52600000Y-56819647D01*
X52600000Y-56819646D01*
X52601935Y-56800000D01*
X52600000Y-56780353D01*
X52600000Y-51992802D01*
X52624411Y-52029336D01*
X52770664Y-52175589D01*
X52942638Y-52290498D01*
X52975000Y-52303903D01*
X52975001Y-54479127D01*
X52972945Y-54500004D01*
X52981150Y-54583318D01*
X52996585Y-54634197D01*
X53005453Y-54663431D01*
X53044917Y-54737264D01*
X53098027Y-54801978D01*
X53114239Y-54815283D01*
X60949996Y-62651041D01*
X60949996Y-62654170D01*
X60971132Y-62760429D01*
X61008235Y-62850001D01*
X60769646Y-62850001D01*
X60749999Y-62848066D01*
X60730352Y-62850001D01*
X60671585Y-62855789D01*
X60596185Y-62878661D01*
X60526696Y-62915804D01*
X60465788Y-62965790D01*
X60453264Y-62981051D01*
X58931052Y-64503263D01*
X58915789Y-64515789D01*
X58865803Y-64576698D01*
X58828660Y-64646187D01*
X58810460Y-64706186D01*
X58805788Y-64721587D01*
X58800527Y-64775000D01*
X52220867Y-64775000D01*
X52200000Y-64772945D01*
X52179133Y-64775000D01*
X52179126Y-64775000D01*
X52116686Y-64781150D01*
X52036573Y-64805452D01*
X51962740Y-64844916D01*
X51898026Y-64898026D01*
X51884716Y-64914244D01*
X51250411Y-65548549D01*
X50150000Y-65548549D01*
X50091190Y-65554341D01*
X50034640Y-65571496D01*
X49982523Y-65599353D01*
X49936842Y-65636842D01*
X49899353Y-65682523D01*
X49871496Y-65734640D01*
X49854341Y-65791190D01*
X49848549Y-65850000D01*
X49848549Y-67077663D01*
X49800101Y-66960699D01*
X49572689Y-66620353D01*
X49283249Y-66330913D01*
X48942903Y-66103501D01*
X48564731Y-65946857D01*
X48163266Y-65867001D01*
X47753936Y-65867001D01*
X47352471Y-65946857D01*
X46974299Y-66103501D01*
X46633953Y-66330913D01*
X46344513Y-66620353D01*
X46150001Y-66911461D01*
X46150001Y-63451451D01*
X46870000Y-63451451D01*
X46928810Y-63445659D01*
X46985360Y-63428504D01*
X47037477Y-63400647D01*
X47083158Y-63363158D01*
X47120647Y-63317477D01*
X47148504Y-63265360D01*
X47165659Y-63208810D01*
X47171451Y-63150000D01*
X47171451Y-62150000D01*
X47978549Y-62150000D01*
X47978549Y-63150000D01*
X47984341Y-63208810D01*
X48001496Y-63265360D01*
X48029353Y-63317477D01*
X48066842Y-63363158D01*
X48112523Y-63400647D01*
X48164640Y-63428504D01*
X48221190Y-63445659D01*
X48280000Y-63451451D01*
X49080000Y-63451451D01*
X49138810Y-63445659D01*
X49195360Y-63428504D01*
X49247477Y-63400647D01*
X49293158Y-63363158D01*
X49330647Y-63317477D01*
X49358504Y-63265360D01*
X49375659Y-63208810D01*
X49381451Y-63150000D01*
X49381451Y-62150000D01*
X49375659Y-62091190D01*
X49358504Y-62034640D01*
X49330647Y-61982523D01*
X49293158Y-61936842D01*
X49250033Y-61901451D01*
X50080000Y-61901451D01*
X50138810Y-61895659D01*
X50195360Y-61878504D01*
X50247477Y-61850647D01*
X50293158Y-61813158D01*
X50330647Y-61767477D01*
X50358504Y-61715360D01*
X50375659Y-61658810D01*
X50376527Y-61650000D01*
X51684315Y-61650000D01*
X53974499Y-63940185D01*
X53974499Y-63978669D01*
X53995635Y-64084928D01*
X54037096Y-64185022D01*
X54097286Y-64275103D01*
X54173895Y-64351712D01*
X54263976Y-64411902D01*
X54364070Y-64453363D01*
X54470329Y-64474499D01*
X54578669Y-64474499D01*
X54684928Y-64453363D01*
X54785022Y-64411902D01*
X54875103Y-64351712D01*
X54951712Y-64275103D01*
X55011902Y-64185022D01*
X55053363Y-64084928D01*
X55074499Y-63978669D01*
X55074499Y-63870329D01*
X55053363Y-63764070D01*
X55011902Y-63663976D01*
X54951712Y-63573895D01*
X54875103Y-63497286D01*
X54785022Y-63437096D01*
X54684928Y-63395635D01*
X54578669Y-63374499D01*
X54540185Y-63374499D01*
X52146737Y-60981052D01*
X52134211Y-60965789D01*
X52073303Y-60915803D01*
X52003814Y-60878660D01*
X51928414Y-60855788D01*
X51869647Y-60850000D01*
X51869646Y-60850000D01*
X51850000Y-60848065D01*
X51830354Y-60850000D01*
X50376527Y-60850000D01*
X50375659Y-60841190D01*
X50358504Y-60784640D01*
X50330647Y-60732523D01*
X50293158Y-60686842D01*
X50247477Y-60649353D01*
X50195360Y-60621496D01*
X50138810Y-60604341D01*
X50080000Y-60598549D01*
X48580000Y-60598549D01*
X48521190Y-60604341D01*
X48464640Y-60621496D01*
X48412523Y-60649353D01*
X48366842Y-60686842D01*
X48329353Y-60732523D01*
X48301496Y-60784640D01*
X48284341Y-60841190D01*
X48278549Y-60900000D01*
X48278549Y-61600000D01*
X48284341Y-61658810D01*
X48301496Y-61715360D01*
X48329353Y-61767477D01*
X48366842Y-61813158D01*
X48409967Y-61848549D01*
X48280000Y-61848549D01*
X48221190Y-61854341D01*
X48164640Y-61871496D01*
X48112523Y-61899353D01*
X48066842Y-61936842D01*
X48029353Y-61982523D01*
X48001496Y-62034640D01*
X47984341Y-62091190D01*
X47978549Y-62150000D01*
X47171451Y-62150000D01*
X47165659Y-62091190D01*
X47148504Y-62034640D01*
X47120647Y-61982523D01*
X47083158Y-61936842D01*
X47037477Y-61899353D01*
X46985360Y-61871496D01*
X46928810Y-61854341D01*
X46870000Y-61848549D01*
X46150001Y-61848549D01*
X46150001Y-60426131D01*
X46820000Y-60426131D01*
X46820000Y-60573869D01*
X46848822Y-60718767D01*
X46905359Y-60855258D01*
X46987437Y-60978097D01*
X47091903Y-61082563D01*
X47214742Y-61164641D01*
X47351233Y-61221178D01*
X47496131Y-61250000D01*
X47643869Y-61250000D01*
X47788767Y-61221178D01*
X47925258Y-61164641D01*
X48048097Y-61082563D01*
X48152563Y-60978097D01*
X48234641Y-60855258D01*
X48291178Y-60718767D01*
X48320000Y-60573869D01*
X48320000Y-60426131D01*
X48291178Y-60281233D01*
X48234641Y-60144742D01*
X48152563Y-60021903D01*
X48048097Y-59917437D01*
X47925258Y-59835359D01*
X47788767Y-59778822D01*
X47643869Y-59750000D01*
X47496131Y-59750000D01*
X47351233Y-59778822D01*
X47214742Y-59835359D01*
X47091903Y-59917437D01*
X46987437Y-60021903D01*
X46905359Y-60144742D01*
X46848822Y-60281233D01*
X46820000Y-60426131D01*
X46150001Y-60426131D01*
X46150001Y-57426131D01*
X46820000Y-57426131D01*
X46820000Y-57573869D01*
X46848822Y-57718767D01*
X46905359Y-57855258D01*
X46987437Y-57978097D01*
X47091903Y-58082563D01*
X47214742Y-58164641D01*
X47351233Y-58221178D01*
X47496131Y-58250000D01*
X47643869Y-58250000D01*
X47788767Y-58221178D01*
X47925258Y-58164641D01*
X48048097Y-58082563D01*
X48152563Y-57978097D01*
X48234641Y-57855258D01*
X48291178Y-57718767D01*
X48320000Y-57573869D01*
X48320000Y-57426131D01*
X48291178Y-57281233D01*
X48234641Y-57144742D01*
X48204746Y-57100000D01*
X48268500Y-57100000D01*
X48274485Y-57160771D01*
X48292212Y-57219206D01*
X48320997Y-57273060D01*
X48359736Y-57320264D01*
X48406940Y-57359003D01*
X48460794Y-57387788D01*
X48519229Y-57405515D01*
X48580000Y-57411500D01*
X49247500Y-57410000D01*
X49325000Y-57332500D01*
X49325000Y-56755000D01*
X49335000Y-56755000D01*
X49335000Y-57332500D01*
X49412500Y-57410000D01*
X50080000Y-57411500D01*
X50140771Y-57405515D01*
X50199206Y-57387788D01*
X50253060Y-57359003D01*
X50300264Y-57320264D01*
X50339003Y-57273060D01*
X50367788Y-57219206D01*
X50385515Y-57160771D01*
X50391500Y-57100000D01*
X50390000Y-56832500D01*
X50312500Y-56755000D01*
X49335000Y-56755000D01*
X49325000Y-56755000D01*
X48347500Y-56755000D01*
X48270000Y-56832500D01*
X48268500Y-57100000D01*
X48204746Y-57100000D01*
X48152563Y-57021903D01*
X48048097Y-56917437D01*
X47925258Y-56835359D01*
X47788767Y-56778822D01*
X47643869Y-56750000D01*
X47496131Y-56750000D01*
X47351233Y-56778822D01*
X47214742Y-56835359D01*
X47091903Y-56917437D01*
X46987437Y-57021903D01*
X46905359Y-57144742D01*
X46848822Y-57281233D01*
X46820000Y-57426131D01*
X46150001Y-57426131D01*
X46150001Y-56151451D01*
X46870000Y-56151451D01*
X46928810Y-56145659D01*
X46985360Y-56128504D01*
X47037477Y-56100647D01*
X47083158Y-56063158D01*
X47120647Y-56017477D01*
X47148504Y-55965360D01*
X47165659Y-55908810D01*
X47171451Y-55850000D01*
X47171451Y-54850000D01*
X47978549Y-54850000D01*
X47978549Y-55850000D01*
X47984341Y-55908810D01*
X48001496Y-55965360D01*
X48029353Y-56017477D01*
X48066842Y-56063158D01*
X48112523Y-56100647D01*
X48164640Y-56128504D01*
X48221190Y-56145659D01*
X48280000Y-56151451D01*
X48394202Y-56151451D01*
X48359736Y-56179736D01*
X48320997Y-56226940D01*
X48292212Y-56280794D01*
X48274485Y-56339229D01*
X48268500Y-56400000D01*
X48270000Y-56667500D01*
X48347500Y-56745000D01*
X49325000Y-56745000D01*
X49325000Y-56167500D01*
X49335000Y-56167500D01*
X49335000Y-56745000D01*
X50312500Y-56745000D01*
X50390000Y-56667500D01*
X50391500Y-56400000D01*
X50385515Y-56339229D01*
X50367788Y-56280794D01*
X50339003Y-56226940D01*
X50300264Y-56179736D01*
X50253060Y-56140997D01*
X50199206Y-56112212D01*
X50140771Y-56094485D01*
X50080000Y-56088500D01*
X49412500Y-56090000D01*
X49335000Y-56167500D01*
X49325000Y-56167500D01*
X49253337Y-56095837D01*
X49293158Y-56063158D01*
X49330647Y-56017477D01*
X49358504Y-55965360D01*
X49375659Y-55908810D01*
X49381451Y-55850000D01*
X49381451Y-54850000D01*
X49375659Y-54791190D01*
X49358504Y-54734640D01*
X49330647Y-54682523D01*
X49293158Y-54636842D01*
X49247477Y-54599353D01*
X49195360Y-54571496D01*
X49138810Y-54554341D01*
X49080000Y-54548549D01*
X48280000Y-54548549D01*
X48221190Y-54554341D01*
X48164640Y-54571496D01*
X48112523Y-54599353D01*
X48066842Y-54636842D01*
X48029353Y-54682523D01*
X48001496Y-54734640D01*
X47984341Y-54791190D01*
X47978549Y-54850000D01*
X47171451Y-54850000D01*
X47165659Y-54791190D01*
X47148504Y-54734640D01*
X47120647Y-54682523D01*
X47083158Y-54636842D01*
X47037477Y-54599353D01*
X46985360Y-54571496D01*
X46928810Y-54554341D01*
X46870000Y-54548549D01*
X46150001Y-54548549D01*
X46150001Y-51198541D01*
X46344513Y-51489649D01*
X46633953Y-51779089D01*
X46974299Y-52006501D01*
X47352471Y-52163145D01*
X47753936Y-52243001D01*
X48163266Y-52243001D01*
X48564731Y-52163145D01*
X48942903Y-52006501D01*
X49283249Y-51779089D01*
X49572689Y-51489649D01*
X49800101Y-51149303D01*
X49956745Y-50771131D01*
X50036601Y-50369666D01*
X50036601Y-49960336D01*
X49956745Y-49558871D01*
X49800101Y-49180699D01*
X49572689Y-48840353D01*
X49283249Y-48550913D01*
X48942903Y-48323501D01*
X48564731Y-48166857D01*
X48163266Y-48087001D01*
X47753936Y-48087001D01*
X47473445Y-48142794D01*
X47507261Y-48124510D01*
X47919924Y-47996769D01*
X48364872Y-47950003D01*
X48365565Y-47950001D01*
X61272949Y-47950001D01*
X61195519Y-48001738D01*
G36*
X60453263Y-50468948D02*
G01*
X60465789Y-50484211D01*
X60472508Y-50489725D01*
X60390664Y-50544411D01*
X60244411Y-50690664D01*
X60129502Y-50862638D01*
X60050350Y-51053726D01*
X60010000Y-51256584D01*
X60010000Y-51463416D01*
X60050350Y-51666274D01*
X60129502Y-51857362D01*
X60244411Y-52029336D01*
X60390664Y-52175589D01*
X60562638Y-52290498D01*
X60600000Y-52305974D01*
X60600000Y-52880353D01*
X60598065Y-52900000D01*
X60600000Y-52919646D01*
X60605788Y-52978413D01*
X60628660Y-53053813D01*
X60665803Y-53123302D01*
X60715789Y-53184211D01*
X60731052Y-53196737D01*
X61250001Y-53715687D01*
X61250000Y-55151043D01*
X61236842Y-55161842D01*
X61199353Y-55207523D01*
X61171496Y-55259640D01*
X61154341Y-55316190D01*
X61148549Y-55375000D01*
X61148549Y-56025000D01*
X61154341Y-56083810D01*
X61171496Y-56140360D01*
X61199353Y-56192477D01*
X61236842Y-56238158D01*
X61282523Y-56275647D01*
X61334640Y-56303504D01*
X61391190Y-56320659D01*
X61450000Y-56326451D01*
X61850000Y-56326451D01*
X61908810Y-56320659D01*
X61965360Y-56303504D01*
X61975000Y-56298351D01*
X61984640Y-56303504D01*
X62041190Y-56320659D01*
X62100000Y-56326451D01*
X62500000Y-56326451D01*
X62558810Y-56320659D01*
X62615360Y-56303504D01*
X62625000Y-56298351D01*
X62634640Y-56303504D01*
X62691190Y-56320659D01*
X62750000Y-56326451D01*
X63150000Y-56326451D01*
X63208810Y-56320659D01*
X63265360Y-56303504D01*
X63317477Y-56275647D01*
X63363158Y-56238158D01*
X63400647Y-56192477D01*
X63428504Y-56140360D01*
X63445659Y-56083810D01*
X63451451Y-56025000D01*
X63451451Y-55375000D01*
X63445659Y-55316190D01*
X63428504Y-55259640D01*
X63400647Y-55207523D01*
X63363158Y-55161842D01*
X63350000Y-55151044D01*
X63350000Y-53715685D01*
X63868954Y-53196732D01*
X63884211Y-53184211D01*
X63896736Y-53168950D01*
X63934197Y-53123303D01*
X63971340Y-53053814D01*
X63994212Y-52978414D01*
X64001935Y-52900000D01*
X64000000Y-52880353D01*
X64000000Y-52330827D01*
X64097362Y-52290498D01*
X64269336Y-52175589D01*
X64415589Y-52029336D01*
X64530498Y-51857362D01*
X64609650Y-51666274D01*
X64650000Y-51463416D01*
X64650000Y-51256584D01*
X64609650Y-51053726D01*
X64530498Y-50862638D01*
X64415589Y-50690664D01*
X64324925Y-50600000D01*
X65415075Y-50600000D01*
X65324411Y-50690664D01*
X65209502Y-50862638D01*
X65130350Y-51053726D01*
X65090000Y-51256584D01*
X65090000Y-51463416D01*
X65130350Y-51666274D01*
X65209502Y-51857362D01*
X65324411Y-52029336D01*
X65470664Y-52175589D01*
X65642638Y-52290498D01*
X65833726Y-52369650D01*
X66036584Y-52410000D01*
X66243416Y-52410000D01*
X66446274Y-52369650D01*
X66557778Y-52323463D01*
X67100001Y-52865687D01*
X67100000Y-56280353D01*
X67098065Y-56300000D01*
X67100000Y-56319646D01*
X67105788Y-56378413D01*
X67128660Y-56453813D01*
X67165803Y-56523302D01*
X67215789Y-56584211D01*
X67231052Y-56596737D01*
X68253267Y-57618953D01*
X68265789Y-57634211D01*
X68281047Y-57646733D01*
X68281049Y-57646735D01*
X68301389Y-57663427D01*
X68326697Y-57684197D01*
X68341960Y-57692355D01*
X64989581Y-61044734D01*
X64987403Y-61039477D01*
X64927213Y-60949396D01*
X64850604Y-60872787D01*
X64760523Y-60812597D01*
X64660429Y-60771136D01*
X64554170Y-60750000D01*
X64445830Y-60750000D01*
X64339571Y-60771136D01*
X64239477Y-60812597D01*
X64149396Y-60872787D01*
X64072787Y-60949396D01*
X64012597Y-61039477D01*
X63971136Y-61139571D01*
X63950000Y-61245830D01*
X63950000Y-61354170D01*
X63953084Y-61369675D01*
X63854170Y-61350000D01*
X63851040Y-61350000D01*
X63375000Y-60873960D01*
X63375000Y-58123728D01*
X63400647Y-58092477D01*
X63428504Y-58040360D01*
X63445659Y-57983810D01*
X63451451Y-57925000D01*
X63451451Y-57275000D01*
X63445659Y-57216190D01*
X63428504Y-57159640D01*
X63400647Y-57107523D01*
X63363158Y-57061842D01*
X63317477Y-57024353D01*
X63265360Y-56996496D01*
X63208810Y-56979341D01*
X63150000Y-56973549D01*
X62750000Y-56973549D01*
X62691190Y-56979341D01*
X62635875Y-56996121D01*
X62619206Y-56987212D01*
X62560771Y-56969485D01*
X62500000Y-56963500D01*
X62382500Y-56965000D01*
X62305000Y-57042500D01*
X62305000Y-57595000D01*
X62325000Y-57595000D01*
X62325000Y-57605000D01*
X62305000Y-57605000D01*
X62305000Y-58157500D01*
X62382500Y-58235000D01*
X62500000Y-58236500D01*
X62525000Y-58234038D01*
X62525001Y-61029123D01*
X62522945Y-61050000D01*
X62531150Y-61133314D01*
X62546071Y-61182500D01*
X62555453Y-61213427D01*
X62594917Y-61287260D01*
X62609545Y-61305084D01*
X62625200Y-61324159D01*
X62075000Y-60773960D01*
X62075000Y-58234038D01*
X62100000Y-58236500D01*
X62217500Y-58235000D01*
X62295000Y-58157500D01*
X62295000Y-57605000D01*
X62275000Y-57605000D01*
X62275000Y-57595000D01*
X62295000Y-57595000D01*
X62295000Y-57042500D01*
X62217500Y-56965000D01*
X62100000Y-56963500D01*
X62039229Y-56969485D01*
X61980794Y-56987212D01*
X61964125Y-56996121D01*
X61908810Y-56979341D01*
X61850000Y-56973549D01*
X61450000Y-56973549D01*
X61391190Y-56979341D01*
X61334640Y-56996496D01*
X61282523Y-57024353D01*
X61236842Y-57061842D01*
X61199353Y-57107523D01*
X61171496Y-57159640D01*
X61154341Y-57216190D01*
X61148549Y-57275000D01*
X61148549Y-57925000D01*
X61154341Y-57983810D01*
X61171496Y-58040360D01*
X61199353Y-58092477D01*
X61225000Y-58123729D01*
X61225001Y-60929123D01*
X61222945Y-60950000D01*
X61231150Y-61033314D01*
X61251967Y-61101935D01*
X61255453Y-61113427D01*
X61294917Y-61187260D01*
X61348027Y-61251974D01*
X61364239Y-61265279D01*
X62650000Y-62551041D01*
X62650000Y-62554170D01*
X62671136Y-62660429D01*
X62712597Y-62760523D01*
X62772384Y-62850001D01*
X61991757Y-62850001D01*
X62028860Y-62760429D01*
X62049996Y-62654170D01*
X62049996Y-62545830D01*
X62028860Y-62439571D01*
X61987399Y-62339477D01*
X61927209Y-62249396D01*
X61850600Y-62172787D01*
X61760519Y-62112597D01*
X61660425Y-62071136D01*
X61554166Y-62050000D01*
X61551037Y-62050000D01*
X53825000Y-54323964D01*
X53825000Y-52337040D01*
X53937362Y-52290498D01*
X54109336Y-52175589D01*
X54255589Y-52029336D01*
X54370498Y-51857362D01*
X54449650Y-51666274D01*
X54490000Y-51463416D01*
X54490000Y-51256584D01*
X54930000Y-51256584D01*
X54930000Y-51463416D01*
X54970350Y-51666274D01*
X55049502Y-51857362D01*
X55164411Y-52029336D01*
X55310664Y-52175589D01*
X55482638Y-52290498D01*
X55673726Y-52369650D01*
X55876584Y-52410000D01*
X56083416Y-52410000D01*
X56286274Y-52369650D01*
X56477362Y-52290498D01*
X56649336Y-52175589D01*
X56795589Y-52029336D01*
X56910498Y-51857362D01*
X56989650Y-51666274D01*
X57030000Y-51463416D01*
X57030000Y-51256584D01*
X57470000Y-51256584D01*
X57470000Y-51463416D01*
X57510350Y-51666274D01*
X57589502Y-51857362D01*
X57704411Y-52029336D01*
X57850664Y-52175589D01*
X58022638Y-52290498D01*
X58095000Y-52320472D01*
X58095001Y-53499123D01*
X58092945Y-53520000D01*
X58101150Y-53603314D01*
X58122273Y-53672944D01*
X58125453Y-53683427D01*
X58164917Y-53757260D01*
X58184523Y-53781150D01*
X58204468Y-53805452D01*
X58218027Y-53821974D01*
X58234239Y-53835279D01*
X58350000Y-53951040D01*
X58350000Y-53954170D01*
X58371136Y-54060429D01*
X58412597Y-54160523D01*
X58472787Y-54250604D01*
X58549396Y-54327213D01*
X58639477Y-54387403D01*
X58739571Y-54428864D01*
X58845830Y-54450000D01*
X58954170Y-54450000D01*
X59060429Y-54428864D01*
X59160523Y-54387403D01*
X59250604Y-54327213D01*
X59327213Y-54250604D01*
X59387403Y-54160523D01*
X59428864Y-54060429D01*
X59450000Y-53954170D01*
X59450000Y-53845830D01*
X59428864Y-53739571D01*
X59387403Y-53639477D01*
X59327213Y-53549396D01*
X59250604Y-53472787D01*
X59160523Y-53412597D01*
X59060429Y-53371136D01*
X58954170Y-53350000D01*
X58951040Y-53350000D01*
X58945000Y-53343960D01*
X58945000Y-52320472D01*
X59017362Y-52290498D01*
X59189336Y-52175589D01*
X59335589Y-52029336D01*
X59450498Y-51857362D01*
X59529650Y-51666274D01*
X59570000Y-51463416D01*
X59570000Y-51256584D01*
X59529650Y-51053726D01*
X59450498Y-50862638D01*
X59335589Y-50690664D01*
X59189336Y-50544411D01*
X59017362Y-50429502D01*
X58826274Y-50350350D01*
X58623416Y-50310000D01*
X58416584Y-50310000D01*
X58213726Y-50350350D01*
X58022638Y-50429502D01*
X57850664Y-50544411D01*
X57704411Y-50690664D01*
X57589502Y-50862638D01*
X57510350Y-51053726D01*
X57470000Y-51256584D01*
X57030000Y-51256584D01*
X56989650Y-51053726D01*
X56910498Y-50862638D01*
X56795589Y-50690664D01*
X56649336Y-50544411D01*
X56477362Y-50429502D01*
X56286274Y-50350350D01*
X56083416Y-50310000D01*
X55876584Y-50310000D01*
X55673726Y-50350350D01*
X55482638Y-50429502D01*
X55310664Y-50544411D01*
X55164411Y-50690664D01*
X55049502Y-50862638D01*
X54970350Y-51053726D01*
X54930000Y-51256584D01*
X54490000Y-51256584D01*
X54449650Y-51053726D01*
X54370498Y-50862638D01*
X54255589Y-50690664D01*
X54109336Y-50544411D01*
X53937362Y-50429502D01*
X53746274Y-50350350D01*
X53543416Y-50310000D01*
X53336584Y-50310000D01*
X53133726Y-50350350D01*
X52942638Y-50429502D01*
X52770664Y-50544411D01*
X52624411Y-50690664D01*
X52600000Y-50727198D01*
X52600000Y-50515685D01*
X52915685Y-50200000D01*
X60184315Y-50200000D01*
X60453263Y-50468948D01*
X60453263Y-50468948D01*
G37*
X60453263Y-50468948D02*
X60465789Y-50484211D01*
X60472508Y-50489725D01*
X60390664Y-50544411D01*
X60244411Y-50690664D01*
X60129502Y-50862638D01*
X60050350Y-51053726D01*
X60010000Y-51256584D01*
X60010000Y-51463416D01*
X60050350Y-51666274D01*
X60129502Y-51857362D01*
X60244411Y-52029336D01*
X60390664Y-52175589D01*
X60562638Y-52290498D01*
X60600000Y-52305974D01*
X60600000Y-52880353D01*
X60598065Y-52900000D01*
X60600000Y-52919646D01*
X60605788Y-52978413D01*
X60628660Y-53053813D01*
X60665803Y-53123302D01*
X60715789Y-53184211D01*
X60731052Y-53196737D01*
X61250001Y-53715687D01*
X61250000Y-55151043D01*
X61236842Y-55161842D01*
X61199353Y-55207523D01*
X61171496Y-55259640D01*
X61154341Y-55316190D01*
X61148549Y-55375000D01*
X61148549Y-56025000D01*
X61154341Y-56083810D01*
X61171496Y-56140360D01*
X61199353Y-56192477D01*
X61236842Y-56238158D01*
X61282523Y-56275647D01*
X61334640Y-56303504D01*
X61391190Y-56320659D01*
X61450000Y-56326451D01*
X61850000Y-56326451D01*
X61908810Y-56320659D01*
X61965360Y-56303504D01*
X61975000Y-56298351D01*
X61984640Y-56303504D01*
X62041190Y-56320659D01*
X62100000Y-56326451D01*
X62500000Y-56326451D01*
X62558810Y-56320659D01*
X62615360Y-56303504D01*
X62625000Y-56298351D01*
X62634640Y-56303504D01*
X62691190Y-56320659D01*
X62750000Y-56326451D01*
X63150000Y-56326451D01*
X63208810Y-56320659D01*
X63265360Y-56303504D01*
X63317477Y-56275647D01*
X63363158Y-56238158D01*
X63400647Y-56192477D01*
X63428504Y-56140360D01*
X63445659Y-56083810D01*
X63451451Y-56025000D01*
X63451451Y-55375000D01*
X63445659Y-55316190D01*
X63428504Y-55259640D01*
X63400647Y-55207523D01*
X63363158Y-55161842D01*
X63350000Y-55151044D01*
X63350000Y-53715685D01*
X63868954Y-53196732D01*
X63884211Y-53184211D01*
X63896736Y-53168950D01*
X63934197Y-53123303D01*
X63971340Y-53053814D01*
X63994212Y-52978414D01*
X64001935Y-52900000D01*
X64000000Y-52880353D01*
X64000000Y-52330827D01*
X64097362Y-52290498D01*
X64269336Y-52175589D01*
X64415589Y-52029336D01*
X64530498Y-51857362D01*
X64609650Y-51666274D01*
X64650000Y-51463416D01*
X64650000Y-51256584D01*
X64609650Y-51053726D01*
X64530498Y-50862638D01*
X64415589Y-50690664D01*
X64324925Y-50600000D01*
X65415075Y-50600000D01*
X65324411Y-50690664D01*
X65209502Y-50862638D01*
X65130350Y-51053726D01*
X65090000Y-51256584D01*
X65090000Y-51463416D01*
X65130350Y-51666274D01*
X65209502Y-51857362D01*
X65324411Y-52029336D01*
X65470664Y-52175589D01*
X65642638Y-52290498D01*
X65833726Y-52369650D01*
X66036584Y-52410000D01*
X66243416Y-52410000D01*
X66446274Y-52369650D01*
X66557778Y-52323463D01*
X67100001Y-52865687D01*
X67100000Y-56280353D01*
X67098065Y-56300000D01*
X67100000Y-56319646D01*
X67105788Y-56378413D01*
X67128660Y-56453813D01*
X67165803Y-56523302D01*
X67215789Y-56584211D01*
X67231052Y-56596737D01*
X68253267Y-57618953D01*
X68265789Y-57634211D01*
X68281047Y-57646733D01*
X68281049Y-57646735D01*
X68301389Y-57663427D01*
X68326697Y-57684197D01*
X68341960Y-57692355D01*
X64989581Y-61044734D01*
X64987403Y-61039477D01*
X64927213Y-60949396D01*
X64850604Y-60872787D01*
X64760523Y-60812597D01*
X64660429Y-60771136D01*
X64554170Y-60750000D01*
X64445830Y-60750000D01*
X64339571Y-60771136D01*
X64239477Y-60812597D01*
X64149396Y-60872787D01*
X64072787Y-60949396D01*
X64012597Y-61039477D01*
X63971136Y-61139571D01*
X63950000Y-61245830D01*
X63950000Y-61354170D01*
X63953084Y-61369675D01*
X63854170Y-61350000D01*
X63851040Y-61350000D01*
X63375000Y-60873960D01*
X63375000Y-58123728D01*
X63400647Y-58092477D01*
X63428504Y-58040360D01*
X63445659Y-57983810D01*
X63451451Y-57925000D01*
X63451451Y-57275000D01*
X63445659Y-57216190D01*
X63428504Y-57159640D01*
X63400647Y-57107523D01*
X63363158Y-57061842D01*
X63317477Y-57024353D01*
X63265360Y-56996496D01*
X63208810Y-56979341D01*
X63150000Y-56973549D01*
X62750000Y-56973549D01*
X62691190Y-56979341D01*
X62635875Y-56996121D01*
X62619206Y-56987212D01*
X62560771Y-56969485D01*
X62500000Y-56963500D01*
X62382500Y-56965000D01*
X62305000Y-57042500D01*
X62305000Y-57595000D01*
X62325000Y-57595000D01*
X62325000Y-57605000D01*
X62305000Y-57605000D01*
X62305000Y-58157500D01*
X62382500Y-58235000D01*
X62500000Y-58236500D01*
X62525000Y-58234038D01*
X62525001Y-61029123D01*
X62522945Y-61050000D01*
X62531150Y-61133314D01*
X62546071Y-61182500D01*
X62555453Y-61213427D01*
X62594917Y-61287260D01*
X62609545Y-61305084D01*
X62625200Y-61324159D01*
X62075000Y-60773960D01*
X62075000Y-58234038D01*
X62100000Y-58236500D01*
X62217500Y-58235000D01*
X62295000Y-58157500D01*
X62295000Y-57605000D01*
X62275000Y-57605000D01*
X62275000Y-57595000D01*
X62295000Y-57595000D01*
X62295000Y-57042500D01*
X62217500Y-56965000D01*
X62100000Y-56963500D01*
X62039229Y-56969485D01*
X61980794Y-56987212D01*
X61964125Y-56996121D01*
X61908810Y-56979341D01*
X61850000Y-56973549D01*
X61450000Y-56973549D01*
X61391190Y-56979341D01*
X61334640Y-56996496D01*
X61282523Y-57024353D01*
X61236842Y-57061842D01*
X61199353Y-57107523D01*
X61171496Y-57159640D01*
X61154341Y-57216190D01*
X61148549Y-57275000D01*
X61148549Y-57925000D01*
X61154341Y-57983810D01*
X61171496Y-58040360D01*
X61199353Y-58092477D01*
X61225000Y-58123729D01*
X61225001Y-60929123D01*
X61222945Y-60950000D01*
X61231150Y-61033314D01*
X61251967Y-61101935D01*
X61255453Y-61113427D01*
X61294917Y-61187260D01*
X61348027Y-61251974D01*
X61364239Y-61265279D01*
X62650000Y-62551041D01*
X62650000Y-62554170D01*
X62671136Y-62660429D01*
X62712597Y-62760523D01*
X62772384Y-62850001D01*
X61991757Y-62850001D01*
X62028860Y-62760429D01*
X62049996Y-62654170D01*
X62049996Y-62545830D01*
X62028860Y-62439571D01*
X61987399Y-62339477D01*
X61927209Y-62249396D01*
X61850600Y-62172787D01*
X61760519Y-62112597D01*
X61660425Y-62071136D01*
X61554166Y-62050000D01*
X61551037Y-62050000D01*
X53825000Y-54323964D01*
X53825000Y-52337040D01*
X53937362Y-52290498D01*
X54109336Y-52175589D01*
X54255589Y-52029336D01*
X54370498Y-51857362D01*
X54449650Y-51666274D01*
X54490000Y-51463416D01*
X54490000Y-51256584D01*
X54930000Y-51256584D01*
X54930000Y-51463416D01*
X54970350Y-51666274D01*
X55049502Y-51857362D01*
X55164411Y-52029336D01*
X55310664Y-52175589D01*
X55482638Y-52290498D01*
X55673726Y-52369650D01*
X55876584Y-52410000D01*
X56083416Y-52410000D01*
X56286274Y-52369650D01*
X56477362Y-52290498D01*
X56649336Y-52175589D01*
X56795589Y-52029336D01*
X56910498Y-51857362D01*
X56989650Y-51666274D01*
X57030000Y-51463416D01*
X57030000Y-51256584D01*
X57470000Y-51256584D01*
X57470000Y-51463416D01*
X57510350Y-51666274D01*
X57589502Y-51857362D01*
X57704411Y-52029336D01*
X57850664Y-52175589D01*
X58022638Y-52290498D01*
X58095000Y-52320472D01*
X58095001Y-53499123D01*
X58092945Y-53520000D01*
X58101150Y-53603314D01*
X58122273Y-53672944D01*
X58125453Y-53683427D01*
X58164917Y-53757260D01*
X58184523Y-53781150D01*
X58204468Y-53805452D01*
X58218027Y-53821974D01*
X58234239Y-53835279D01*
X58350000Y-53951040D01*
X58350000Y-53954170D01*
X58371136Y-54060429D01*
X58412597Y-54160523D01*
X58472787Y-54250604D01*
X58549396Y-54327213D01*
X58639477Y-54387403D01*
X58739571Y-54428864D01*
X58845830Y-54450000D01*
X58954170Y-54450000D01*
X59060429Y-54428864D01*
X59160523Y-54387403D01*
X59250604Y-54327213D01*
X59327213Y-54250604D01*
X59387403Y-54160523D01*
X59428864Y-54060429D01*
X59450000Y-53954170D01*
X59450000Y-53845830D01*
X59428864Y-53739571D01*
X59387403Y-53639477D01*
X59327213Y-53549396D01*
X59250604Y-53472787D01*
X59160523Y-53412597D01*
X59060429Y-53371136D01*
X58954170Y-53350000D01*
X58951040Y-53350000D01*
X58945000Y-53343960D01*
X58945000Y-52320472D01*
X59017362Y-52290498D01*
X59189336Y-52175589D01*
X59335589Y-52029336D01*
X59450498Y-51857362D01*
X59529650Y-51666274D01*
X59570000Y-51463416D01*
X59570000Y-51256584D01*
X59529650Y-51053726D01*
X59450498Y-50862638D01*
X59335589Y-50690664D01*
X59189336Y-50544411D01*
X59017362Y-50429502D01*
X58826274Y-50350350D01*
X58623416Y-50310000D01*
X58416584Y-50310000D01*
X58213726Y-50350350D01*
X58022638Y-50429502D01*
X57850664Y-50544411D01*
X57704411Y-50690664D01*
X57589502Y-50862638D01*
X57510350Y-51053726D01*
X57470000Y-51256584D01*
X57030000Y-51256584D01*
X56989650Y-51053726D01*
X56910498Y-50862638D01*
X56795589Y-50690664D01*
X56649336Y-50544411D01*
X56477362Y-50429502D01*
X56286274Y-50350350D01*
X56083416Y-50310000D01*
X55876584Y-50310000D01*
X55673726Y-50350350D01*
X55482638Y-50429502D01*
X55310664Y-50544411D01*
X55164411Y-50690664D01*
X55049502Y-50862638D01*
X54970350Y-51053726D01*
X54930000Y-51256584D01*
X54490000Y-51256584D01*
X54449650Y-51053726D01*
X54370498Y-50862638D01*
X54255589Y-50690664D01*
X54109336Y-50544411D01*
X53937362Y-50429502D01*
X53746274Y-50350350D01*
X53543416Y-50310000D01*
X53336584Y-50310000D01*
X53133726Y-50350350D01*
X52942638Y-50429502D01*
X52770664Y-50544411D01*
X52624411Y-50690664D01*
X52600000Y-50727198D01*
X52600000Y-50515685D01*
X52915685Y-50200000D01*
X60184315Y-50200000D01*
X60453263Y-50468948D01*
M02*
