G04 #@! TF.GenerationSoftware,KiCad,Pcbnew,(5.1.2)-1*
G04 #@! TF.CreationDate,2019-07-17T11:07:15+10:00*
G04 #@! TF.ProjectId,7seg-dip-wing,37736567-2d64-4697-902d-77696e672e6b,rev?*
G04 #@! TF.SameCoordinates,Original*
G04 #@! TF.FileFunction,Legend,Bot*
G04 #@! TF.FilePolarity,Positive*
%FSLAX46Y46*%
G04 Gerber Fmt 4.6, Leading zero omitted, Abs format (unit mm)*
G04 Created by KiCad (PCBNEW (5.1.2)-1) date 2019-07-17 11:07:15*
%MOMM*%
%LPD*%
G04 APERTURE LIST*
%ADD10C,0.120000*%
%ADD11C,0.150000*%
G04 APERTURE END LIST*
D10*
X69950000Y-60880000D02*
X70450000Y-60880000D01*
X69950000Y-58520000D02*
X70450000Y-58520000D01*
X69950000Y-58280000D02*
X70450000Y-58280000D01*
X69950000Y-55920000D02*
X70450000Y-55920000D01*
X61140000Y-57350000D02*
X61140000Y-55950000D01*
X63460000Y-55950000D02*
X63460000Y-57850000D01*
X86620000Y-59950000D02*
X86620000Y-60450000D01*
X88980000Y-59950000D02*
X88980000Y-60450000D01*
X86430000Y-59950000D02*
X86430000Y-60450000D01*
X84070000Y-59950000D02*
X84070000Y-60450000D01*
D11*
X90457352Y-53217714D02*
X90457352Y-54027238D01*
X90504971Y-54122476D01*
X90552590Y-54170095D01*
X90647828Y-54217714D01*
X90790685Y-54217714D01*
X90885923Y-54170095D01*
X90457352Y-53836761D02*
X90552590Y-53884380D01*
X90743066Y-53884380D01*
X90838304Y-53836761D01*
X90885923Y-53789142D01*
X90933542Y-53693904D01*
X90933542Y-53408190D01*
X90885923Y-53312952D01*
X90838304Y-53265333D01*
X90743066Y-53217714D01*
X90552590Y-53217714D01*
X90457352Y-53265333D01*
X89981161Y-53884380D02*
X89981161Y-53217714D01*
X89981161Y-52884380D02*
X90028780Y-52932000D01*
X89981161Y-52979619D01*
X89933542Y-52932000D01*
X89981161Y-52884380D01*
X89981161Y-52979619D01*
X89647828Y-53217714D02*
X89266876Y-53217714D01*
X89504971Y-52884380D02*
X89504971Y-53741523D01*
X89457352Y-53836761D01*
X89362114Y-53884380D01*
X89266876Y-53884380D01*
X88933542Y-53884380D02*
X88933542Y-52884380D01*
X88504971Y-53884380D02*
X88504971Y-53360571D01*
X88552590Y-53265333D01*
X88647828Y-53217714D01*
X88790685Y-53217714D01*
X88885923Y-53265333D01*
X88933542Y-53312952D01*
X87600209Y-53217714D02*
X87600209Y-53884380D01*
X88028780Y-53217714D02*
X88028780Y-53741523D01*
X87981161Y-53836761D01*
X87885923Y-53884380D01*
X87743066Y-53884380D01*
X87647828Y-53836761D01*
X87600209Y-53789142D01*
X87124019Y-53884380D02*
X87124019Y-52884380D01*
X87124019Y-53265333D02*
X87028780Y-53217714D01*
X86838304Y-53217714D01*
X86743066Y-53265333D01*
X86695447Y-53312952D01*
X86647828Y-53408190D01*
X86647828Y-53693904D01*
X86695447Y-53789142D01*
X86743066Y-53836761D01*
X86838304Y-53884380D01*
X87028780Y-53884380D01*
X87124019Y-53836761D01*
X86219257Y-53789142D02*
X86171638Y-53836761D01*
X86219257Y-53884380D01*
X86266876Y-53836761D01*
X86219257Y-53789142D01*
X86219257Y-53884380D01*
X85314495Y-53836761D02*
X85409733Y-53884380D01*
X85600209Y-53884380D01*
X85695447Y-53836761D01*
X85743066Y-53789142D01*
X85790685Y-53693904D01*
X85790685Y-53408190D01*
X85743066Y-53312952D01*
X85695447Y-53265333D01*
X85600209Y-53217714D01*
X85409733Y-53217714D01*
X85314495Y-53265333D01*
X84743066Y-53884380D02*
X84838304Y-53836761D01*
X84885923Y-53789142D01*
X84933542Y-53693904D01*
X84933542Y-53408190D01*
X84885923Y-53312952D01*
X84838304Y-53265333D01*
X84743066Y-53217714D01*
X84600209Y-53217714D01*
X84504971Y-53265333D01*
X84457352Y-53312952D01*
X84409733Y-53408190D01*
X84409733Y-53693904D01*
X84457352Y-53789142D01*
X84504971Y-53836761D01*
X84600209Y-53884380D01*
X84743066Y-53884380D01*
X83981161Y-53884380D02*
X83981161Y-53217714D01*
X83981161Y-53312952D02*
X83933542Y-53265333D01*
X83838304Y-53217714D01*
X83695447Y-53217714D01*
X83600209Y-53265333D01*
X83552590Y-53360571D01*
X83552590Y-53884380D01*
X83552590Y-53360571D02*
X83504971Y-53265333D01*
X83409733Y-53217714D01*
X83266876Y-53217714D01*
X83171638Y-53265333D01*
X83124019Y-53360571D01*
X83124019Y-53884380D01*
X81933542Y-52836761D02*
X82790685Y-54122476D01*
X81600209Y-53217714D02*
X81600209Y-54074857D01*
X81647828Y-54170095D01*
X81743066Y-54217714D01*
X81790685Y-54217714D01*
X81600209Y-52884380D02*
X81647828Y-52932000D01*
X81600209Y-52979619D01*
X81552590Y-52932000D01*
X81600209Y-52884380D01*
X81600209Y-52979619D01*
X80981161Y-53884380D02*
X81076400Y-53836761D01*
X81124019Y-53789142D01*
X81171638Y-53693904D01*
X81171638Y-53408190D01*
X81124019Y-53312952D01*
X81076400Y-53265333D01*
X80981161Y-53217714D01*
X80838304Y-53217714D01*
X80743066Y-53265333D01*
X80695447Y-53312952D01*
X80647828Y-53408190D01*
X80647828Y-53693904D01*
X80695447Y-53789142D01*
X80743066Y-53836761D01*
X80838304Y-53884380D01*
X80981161Y-53884380D01*
X80266876Y-53836761D02*
X80171638Y-53884380D01*
X79981161Y-53884380D01*
X79885923Y-53836761D01*
X79838304Y-53741523D01*
X79838304Y-53693904D01*
X79885923Y-53598666D01*
X79981161Y-53551047D01*
X80124019Y-53551047D01*
X80219257Y-53503428D01*
X80266876Y-53408190D01*
X80266876Y-53360571D01*
X80219257Y-53265333D01*
X80124019Y-53217714D01*
X79981161Y-53217714D01*
X79885923Y-53265333D01*
X79409733Y-53884380D02*
X79409733Y-52884380D01*
X78981161Y-53884380D02*
X78981161Y-53360571D01*
X79028780Y-53265333D01*
X79124019Y-53217714D01*
X79266876Y-53217714D01*
X79362114Y-53265333D01*
X79409733Y-53312952D01*
X78076400Y-53884380D02*
X78076400Y-53360571D01*
X78124019Y-53265333D01*
X78219257Y-53217714D01*
X78409733Y-53217714D01*
X78504971Y-53265333D01*
X78076400Y-53836761D02*
X78171638Y-53884380D01*
X78409733Y-53884380D01*
X78504971Y-53836761D01*
X78552590Y-53741523D01*
X78552590Y-53646285D01*
X78504971Y-53551047D01*
X78409733Y-53503428D01*
X78171638Y-53503428D01*
X78076400Y-53455809D01*
X77600209Y-53217714D02*
X77600209Y-54074857D01*
X77647828Y-54170095D01*
X77743066Y-54217714D01*
X77790685Y-54217714D01*
X77600209Y-52884380D02*
X77647828Y-52932000D01*
X77600209Y-52979619D01*
X77552590Y-52932000D01*
X77600209Y-52884380D01*
X77600209Y-52979619D01*
X76981161Y-53884380D02*
X77076400Y-53836761D01*
X77124019Y-53789142D01*
X77171638Y-53693904D01*
X77171638Y-53408190D01*
X77124019Y-53312952D01*
X77076400Y-53265333D01*
X76981161Y-53217714D01*
X76838304Y-53217714D01*
X76743066Y-53265333D01*
X76695447Y-53312952D01*
X76647828Y-53408190D01*
X76647828Y-53693904D01*
X76695447Y-53789142D01*
X76743066Y-53836761D01*
X76838304Y-53884380D01*
X76981161Y-53884380D01*
X76219257Y-53884380D02*
X76219257Y-52884380D01*
X75790685Y-53884380D02*
X75790685Y-53360571D01*
X75838304Y-53265333D01*
X75933542Y-53217714D01*
X76076400Y-53217714D01*
X76171638Y-53265333D01*
X76219257Y-53312952D01*
X75314495Y-53217714D02*
X75314495Y-53884380D01*
X75314495Y-53312952D02*
X75266876Y-53265333D01*
X75171638Y-53217714D01*
X75028780Y-53217714D01*
X74933542Y-53265333D01*
X74885923Y-53360571D01*
X74885923Y-53884380D01*
X74457352Y-53836761D02*
X74362114Y-53884380D01*
X74171638Y-53884380D01*
X74076400Y-53836761D01*
X74028780Y-53741523D01*
X74028780Y-53693904D01*
X74076400Y-53598666D01*
X74171638Y-53551047D01*
X74314495Y-53551047D01*
X74409733Y-53503428D01*
X74457352Y-53408190D01*
X74457352Y-53360571D01*
X74409733Y-53265333D01*
X74314495Y-53217714D01*
X74171638Y-53217714D01*
X74076400Y-53265333D01*
X73457352Y-53884380D02*
X73552590Y-53836761D01*
X73600209Y-53789142D01*
X73647828Y-53693904D01*
X73647828Y-53408190D01*
X73600209Y-53312952D01*
X73552590Y-53265333D01*
X73457352Y-53217714D01*
X73314495Y-53217714D01*
X73219257Y-53265333D01*
X73171638Y-53312952D01*
X73124019Y-53408190D01*
X73124019Y-53693904D01*
X73171638Y-53789142D01*
X73219257Y-53836761D01*
X73314495Y-53884380D01*
X73457352Y-53884380D01*
X72695447Y-53217714D02*
X72695447Y-53884380D01*
X72695447Y-53312952D02*
X72647828Y-53265333D01*
X72552590Y-53217714D01*
X72409733Y-53217714D01*
X72314495Y-53265333D01*
X72266876Y-53360571D01*
X72266876Y-53884380D01*
X90702380Y-51685714D02*
X90702380Y-52542857D01*
X90750000Y-52638095D01*
X90845238Y-52685714D01*
X90892857Y-52685714D01*
X90702380Y-51352380D02*
X90750000Y-51400000D01*
X90702380Y-51447619D01*
X90654761Y-51400000D01*
X90702380Y-51352380D01*
X90702380Y-51447619D01*
X90083333Y-52352380D02*
X90178571Y-52304761D01*
X90226190Y-52257142D01*
X90273809Y-52161904D01*
X90273809Y-51876190D01*
X90226190Y-51780952D01*
X90178571Y-51733333D01*
X90083333Y-51685714D01*
X89940476Y-51685714D01*
X89845238Y-51733333D01*
X89797619Y-51780952D01*
X89750000Y-51876190D01*
X89750000Y-52161904D01*
X89797619Y-52257142D01*
X89845238Y-52304761D01*
X89940476Y-52352380D01*
X90083333Y-52352380D01*
X89369047Y-52304761D02*
X89273809Y-52352380D01*
X89083333Y-52352380D01*
X88988095Y-52304761D01*
X88940476Y-52209523D01*
X88940476Y-52161904D01*
X88988095Y-52066666D01*
X89083333Y-52019047D01*
X89226190Y-52019047D01*
X89321428Y-51971428D01*
X89369047Y-51876190D01*
X89369047Y-51828571D01*
X89321428Y-51733333D01*
X89226190Y-51685714D01*
X89083333Y-51685714D01*
X88988095Y-51733333D01*
X88511904Y-52352380D02*
X88511904Y-51352380D01*
X88083333Y-52352380D02*
X88083333Y-51828571D01*
X88130952Y-51733333D01*
X88226190Y-51685714D01*
X88369047Y-51685714D01*
X88464285Y-51733333D01*
X88511904Y-51780952D01*
X87178571Y-52352380D02*
X87178571Y-51828571D01*
X87226190Y-51733333D01*
X87321428Y-51685714D01*
X87511904Y-51685714D01*
X87607142Y-51733333D01*
X87178571Y-52304761D02*
X87273809Y-52352380D01*
X87511904Y-52352380D01*
X87607142Y-52304761D01*
X87654761Y-52209523D01*
X87654761Y-52114285D01*
X87607142Y-52019047D01*
X87511904Y-51971428D01*
X87273809Y-51971428D01*
X87178571Y-51923809D01*
X86702380Y-51685714D02*
X86702380Y-52542857D01*
X86750000Y-52638095D01*
X86845238Y-52685714D01*
X86892857Y-52685714D01*
X86702380Y-51352380D02*
X86750000Y-51400000D01*
X86702380Y-51447619D01*
X86654761Y-51400000D01*
X86702380Y-51352380D01*
X86702380Y-51447619D01*
X86083333Y-52352380D02*
X86178571Y-52304761D01*
X86226190Y-52257142D01*
X86273809Y-52161904D01*
X86273809Y-51876190D01*
X86226190Y-51780952D01*
X86178571Y-51733333D01*
X86083333Y-51685714D01*
X85940476Y-51685714D01*
X85845238Y-51733333D01*
X85797619Y-51780952D01*
X85750000Y-51876190D01*
X85750000Y-52161904D01*
X85797619Y-52257142D01*
X85845238Y-52304761D01*
X85940476Y-52352380D01*
X86083333Y-52352380D01*
X85321428Y-52352380D02*
X85321428Y-51352380D01*
X84892857Y-52352380D02*
X84892857Y-51828571D01*
X84940476Y-51733333D01*
X85035714Y-51685714D01*
X85178571Y-51685714D01*
X85273809Y-51733333D01*
X85321428Y-51780952D01*
X84416666Y-51685714D02*
X84416666Y-52352380D01*
X84416666Y-51780952D02*
X84369047Y-51733333D01*
X84273809Y-51685714D01*
X84130952Y-51685714D01*
X84035714Y-51733333D01*
X83988095Y-51828571D01*
X83988095Y-52352380D01*
X83559523Y-52304761D02*
X83464285Y-52352380D01*
X83273809Y-52352380D01*
X83178571Y-52304761D01*
X83130952Y-52209523D01*
X83130952Y-52161904D01*
X83178571Y-52066666D01*
X83273809Y-52019047D01*
X83416666Y-52019047D01*
X83511904Y-51971428D01*
X83559523Y-51876190D01*
X83559523Y-51828571D01*
X83511904Y-51733333D01*
X83416666Y-51685714D01*
X83273809Y-51685714D01*
X83178571Y-51733333D01*
X82559523Y-52352380D02*
X82654761Y-52304761D01*
X82702380Y-52257142D01*
X82750000Y-52161904D01*
X82750000Y-51876190D01*
X82702380Y-51780952D01*
X82654761Y-51733333D01*
X82559523Y-51685714D01*
X82416666Y-51685714D01*
X82321428Y-51733333D01*
X82273809Y-51780952D01*
X82226190Y-51876190D01*
X82226190Y-52161904D01*
X82273809Y-52257142D01*
X82321428Y-52304761D01*
X82416666Y-52352380D01*
X82559523Y-52352380D01*
X81797619Y-51685714D02*
X81797619Y-52352380D01*
X81797619Y-51780952D02*
X81750000Y-51733333D01*
X81654761Y-51685714D01*
X81511904Y-51685714D01*
X81416666Y-51733333D01*
X81369047Y-51828571D01*
X81369047Y-52352380D01*
X80892857Y-52257142D02*
X80845238Y-52304761D01*
X80892857Y-52352380D01*
X80940476Y-52304761D01*
X80892857Y-52257142D01*
X80892857Y-52352380D01*
X79988095Y-52304761D02*
X80083333Y-52352380D01*
X80273809Y-52352380D01*
X80369047Y-52304761D01*
X80416666Y-52257142D01*
X80464285Y-52161904D01*
X80464285Y-51876190D01*
X80416666Y-51780952D01*
X80369047Y-51733333D01*
X80273809Y-51685714D01*
X80083333Y-51685714D01*
X79988095Y-51733333D01*
X79416666Y-52352380D02*
X79511904Y-52304761D01*
X79559523Y-52257142D01*
X79607142Y-52161904D01*
X79607142Y-51876190D01*
X79559523Y-51780952D01*
X79511904Y-51733333D01*
X79416666Y-51685714D01*
X79273809Y-51685714D01*
X79178571Y-51733333D01*
X79130952Y-51780952D01*
X79083333Y-51876190D01*
X79083333Y-52161904D01*
X79130952Y-52257142D01*
X79178571Y-52304761D01*
X79273809Y-52352380D01*
X79416666Y-52352380D01*
X78654761Y-52352380D02*
X78654761Y-51685714D01*
X78654761Y-51780952D02*
X78607142Y-51733333D01*
X78511904Y-51685714D01*
X78369047Y-51685714D01*
X78273809Y-51733333D01*
X78226190Y-51828571D01*
X78226190Y-52352380D01*
X78226190Y-51828571D02*
X78178571Y-51733333D01*
X78083333Y-51685714D01*
X77940476Y-51685714D01*
X77845238Y-51733333D01*
X77797619Y-51828571D01*
X77797619Y-52352380D01*
X90645238Y-49852380D02*
X90645238Y-50566666D01*
X90692857Y-50709523D01*
X90788095Y-50804761D01*
X90930952Y-50852380D01*
X91026190Y-50852380D01*
X90026190Y-50852380D02*
X90121428Y-50804761D01*
X90169047Y-50757142D01*
X90216666Y-50661904D01*
X90216666Y-50376190D01*
X90169047Y-50280952D01*
X90121428Y-50233333D01*
X90026190Y-50185714D01*
X89883333Y-50185714D01*
X89788095Y-50233333D01*
X89740476Y-50280952D01*
X89692857Y-50376190D01*
X89692857Y-50661904D01*
X89740476Y-50757142D01*
X89788095Y-50804761D01*
X89883333Y-50852380D01*
X90026190Y-50852380D01*
X89311904Y-50804761D02*
X89216666Y-50852380D01*
X89026190Y-50852380D01*
X88930952Y-50804761D01*
X88883333Y-50709523D01*
X88883333Y-50661904D01*
X88930952Y-50566666D01*
X89026190Y-50519047D01*
X89169047Y-50519047D01*
X89264285Y-50471428D01*
X89311904Y-50376190D01*
X89311904Y-50328571D01*
X89264285Y-50233333D01*
X89169047Y-50185714D01*
X89026190Y-50185714D01*
X88930952Y-50233333D01*
X88454761Y-50852380D02*
X88454761Y-49852380D01*
X88026190Y-50852380D02*
X88026190Y-50328571D01*
X88073809Y-50233333D01*
X88169047Y-50185714D01*
X88311904Y-50185714D01*
X88407142Y-50233333D01*
X88454761Y-50280952D01*
X86502380Y-49852380D02*
X86502380Y-50566666D01*
X86550000Y-50709523D01*
X86645238Y-50804761D01*
X86788095Y-50852380D01*
X86883333Y-50852380D01*
X85883333Y-50852380D02*
X85978571Y-50804761D01*
X86026190Y-50757142D01*
X86073809Y-50661904D01*
X86073809Y-50376190D01*
X86026190Y-50280952D01*
X85978571Y-50233333D01*
X85883333Y-50185714D01*
X85740476Y-50185714D01*
X85645238Y-50233333D01*
X85597619Y-50280952D01*
X85550000Y-50376190D01*
X85550000Y-50661904D01*
X85597619Y-50757142D01*
X85645238Y-50804761D01*
X85740476Y-50852380D01*
X85883333Y-50852380D01*
X85121428Y-50852380D02*
X85121428Y-49852380D01*
X84692857Y-50852380D02*
X84692857Y-50328571D01*
X84740476Y-50233333D01*
X84835714Y-50185714D01*
X84978571Y-50185714D01*
X85073809Y-50233333D01*
X85121428Y-50280952D01*
X84216666Y-50185714D02*
X84216666Y-50852380D01*
X84216666Y-50280952D02*
X84169047Y-50233333D01*
X84073809Y-50185714D01*
X83930952Y-50185714D01*
X83835714Y-50233333D01*
X83788095Y-50328571D01*
X83788095Y-50852380D01*
X83359523Y-50804761D02*
X83264285Y-50852380D01*
X83073809Y-50852380D01*
X82978571Y-50804761D01*
X82930952Y-50709523D01*
X82930952Y-50661904D01*
X82978571Y-50566666D01*
X83073809Y-50519047D01*
X83216666Y-50519047D01*
X83311904Y-50471428D01*
X83359523Y-50376190D01*
X83359523Y-50328571D01*
X83311904Y-50233333D01*
X83216666Y-50185714D01*
X83073809Y-50185714D01*
X82978571Y-50233333D01*
X82359523Y-50852380D02*
X82454761Y-50804761D01*
X82502380Y-50757142D01*
X82550000Y-50661904D01*
X82550000Y-50376190D01*
X82502380Y-50280952D01*
X82454761Y-50233333D01*
X82359523Y-50185714D01*
X82216666Y-50185714D01*
X82121428Y-50233333D01*
X82073809Y-50280952D01*
X82026190Y-50376190D01*
X82026190Y-50661904D01*
X82073809Y-50757142D01*
X82121428Y-50804761D01*
X82216666Y-50852380D01*
X82359523Y-50852380D01*
X81597619Y-50185714D02*
X81597619Y-50852380D01*
X81597619Y-50280952D02*
X81550000Y-50233333D01*
X81454761Y-50185714D01*
X81311904Y-50185714D01*
X81216666Y-50233333D01*
X81169047Y-50328571D01*
X81169047Y-50852380D01*
M02*
