G04 #@! TF.GenerationSoftware,KiCad,Pcbnew,(5.1.2)-1*
G04 #@! TF.CreationDate,2019-07-17T11:07:15+10:00*
G04 #@! TF.ProjectId,7seg-dip-wing,37736567-2d64-4697-902d-77696e672e6b,rev?*
G04 #@! TF.SameCoordinates,Original*
G04 #@! TF.FileFunction,Paste,Bot*
G04 #@! TF.FilePolarity,Positive*
%FSLAX46Y46*%
G04 Gerber Fmt 4.6, Leading zero omitted, Abs format (unit mm)*
G04 Created by KiCad (PCBNEW (5.1.2)-1) date 2019-07-17 11:07:15*
%MOMM*%
%LPD*%
G04 APERTURE LIST*
%ADD10R,0.500000X0.400000*%
%ADD11R,0.500000X0.300000*%
%ADD12R,0.400000X0.650000*%
%ADD13R,0.800000X1.000000*%
%ADD14R,1.500000X0.700000*%
%ADD15R,0.400000X0.500000*%
%ADD16R,0.300000X0.500000*%
G04 APERTURE END LIST*
D10*
X69700000Y-60450000D03*
D11*
X69700000Y-59950000D03*
D10*
X69700000Y-58950000D03*
D11*
X69700000Y-59450000D03*
D10*
X70700000Y-60450000D03*
D11*
X70700000Y-59450000D03*
X70700000Y-59950000D03*
D10*
X70700000Y-58950000D03*
X69700000Y-57850000D03*
D11*
X69700000Y-57350000D03*
D10*
X69700000Y-56350000D03*
D11*
X69700000Y-56850000D03*
D10*
X70700000Y-57850000D03*
D11*
X70700000Y-56850000D03*
X70700000Y-57350000D03*
D10*
X70700000Y-56350000D03*
D12*
X62950000Y-55700000D03*
X61650000Y-55700000D03*
X62300000Y-57600000D03*
X62300000Y-55700000D03*
X61650000Y-57600000D03*
X62950000Y-57600000D03*
D13*
X48680000Y-62650000D03*
X48680000Y-55350000D03*
X46470000Y-55350000D03*
X46470000Y-62650000D03*
D14*
X49330000Y-56750000D03*
X49330000Y-58250000D03*
X49330000Y-61250000D03*
D15*
X87050000Y-59700000D03*
D16*
X87550000Y-59700000D03*
D15*
X88550000Y-59700000D03*
D16*
X88050000Y-59700000D03*
D15*
X87050000Y-60700000D03*
D16*
X88050000Y-60700000D03*
X87550000Y-60700000D03*
D15*
X88550000Y-60700000D03*
X86000000Y-60700000D03*
D16*
X85000000Y-60700000D03*
X85500000Y-60700000D03*
D15*
X84500000Y-60700000D03*
D16*
X85500000Y-59700000D03*
D15*
X86000000Y-59700000D03*
D16*
X85000000Y-59700000D03*
D15*
X84500000Y-59700000D03*
M02*
