M48
; DRILL file {KiCad (5.1.2)-1} date 17/07/2019 11:07:17
; FORMAT={-:-/ absolute / metric / decimal}
; #@! TF.CreationDate,2019-07-17T11:07:17+10:00
; #@! TF.GenerationSoftware,Kicad,Pcbnew,(5.1.2)-1
FMAT,2
METRIC
T1C0.250
T2C0.800
T3C1.000
T4C0.900
T5C2.540
%
G90
G05
T1
X47.5Y-55.0
X47.5Y-65.0
X53.0Y-60.65
X53.1Y-55.6
X54.524Y-63.924
X54.6Y-67.5
X56.9Y-64.4
X57.2Y-67.6
X57.5Y-55.9
X57.55Y-60.65
X58.9Y-53.9
X60.26Y-64.86
X61.5Y-62.6
X62.0Y-64.1
X62.2Y-67.6
X62.3Y-54.7
X62.3Y-56.7
X62.3Y-65.5
X63.2Y-62.5
X63.75Y-64.25
X63.8Y-61.9
X64.5Y-61.3
X65.0Y-67.6
X72.5Y-55.0
X78.3Y-60.0
X82.8Y-50.6
X83.3Y-60.0
X86.2Y-53.8
X90.0Y-65.0
X90.8Y-60.0
X95.8Y-60.0
T2
X77.32Y-55.3
X77.32Y-62.92
X79.86Y-55.3
X79.86Y-62.92
X82.4Y-55.3
X82.4Y-62.92
X84.94Y-55.3
X84.94Y-62.92
X87.48Y-55.3
X87.48Y-62.92
X90.02Y-55.3
X90.02Y-62.92
X92.56Y-55.3
X92.56Y-62.92
X95.1Y-55.3
X95.1Y-62.92
T3
X50.9Y-51.36
X50.9Y-66.6
X53.44Y-51.36
X53.44Y-66.6
X55.98Y-51.36
X55.98Y-66.6
X58.52Y-51.36
X58.52Y-66.6
X61.06Y-51.36
X61.06Y-66.6
X63.6Y-51.36
X63.6Y-66.6
X66.14Y-51.36
X66.14Y-66.6
X68.68Y-51.36
X68.68Y-66.6
X71.22Y-51.36
X71.22Y-66.6
X51.769Y-69.215
X54.309Y-69.215
X56.849Y-69.215
X59.389Y-69.215
X61.929Y-48.895
X61.929Y-69.215
X64.469Y-48.895
X64.469Y-69.215
X67.009Y-48.895
X67.009Y-69.215
X69.549Y-48.895
X69.549Y-69.215
X72.089Y-48.895
X72.089Y-69.215
X74.629Y-48.895
X74.629Y-69.215
X77.169Y-48.895
X77.169Y-69.215
X79.709Y-48.895
X79.709Y-69.215
X82.249Y-48.895
X82.249Y-69.215
X84.789Y-48.895
X84.789Y-69.215
X87.329Y-48.895
X87.329Y-69.215
X89.869Y-48.895
X89.869Y-69.215
T4
X47.57Y-57.5
X47.57Y-60.5
T5
X47.959Y-50.165
X47.959Y-67.945
X93.679Y-50.165
X93.679Y-67.945
T0
M30
