G04 #@! TF.GenerationSoftware,KiCad,Pcbnew,(5.1.2)-1*
G04 #@! TF.CreationDate,2019-07-17T11:07:14+10:00*
G04 #@! TF.ProjectId,7seg-dip-wing,37736567-2d64-4697-902d-77696e672e6b,rev?*
G04 #@! TF.SameCoordinates,Original*
G04 #@! TF.FileFunction,Copper,L1,Top*
G04 #@! TF.FilePolarity,Positive*
%FSLAX46Y46*%
G04 Gerber Fmt 4.6, Leading zero omitted, Abs format (unit mm)*
G04 Created by KiCad (PCBNEW (5.1.2)-1) date 2019-07-17 11:07:14*
%MOMM*%
%LPD*%
G04 APERTURE LIST*
%ADD10C,1.500000*%
%ADD11R,1.500000X1.500000*%
%ADD12C,1.700000*%
%ADD13C,3.556000*%
%ADD14R,1.600000X1.600000*%
%ADD15O,1.600000X1.600000*%
%ADD16C,0.500000*%
%ADD17C,0.300000*%
%ADD18C,0.250000*%
%ADD19C,0.200000*%
G04 APERTURE END LIST*
D10*
X50900000Y-51360000D03*
X53440000Y-51360000D03*
X55980000Y-51360000D03*
X58520000Y-51360000D03*
X61060000Y-51360000D03*
X63600000Y-51360000D03*
X66140000Y-51360000D03*
X68680000Y-51360000D03*
X71220000Y-51360000D03*
X71220000Y-66600000D03*
X68680000Y-66600000D03*
X66140000Y-66600000D03*
X63600000Y-66600000D03*
X61060000Y-66600000D03*
X58520000Y-66600000D03*
X55980000Y-66600000D03*
X53440000Y-66600000D03*
D11*
X50900000Y-66600000D03*
D12*
X54308601Y-69215001D03*
X56848601Y-69215001D03*
X59388601Y-69215001D03*
X61928601Y-69215001D03*
X64468601Y-69215001D03*
X67008601Y-69215001D03*
X69548601Y-69215001D03*
X72088601Y-69215001D03*
X74628601Y-69215001D03*
X77168601Y-69215001D03*
X79708601Y-69215001D03*
X82248601Y-69215001D03*
X84788601Y-69215001D03*
X87328601Y-69215001D03*
X51768601Y-69215001D03*
X89868601Y-69215001D03*
X61928601Y-48895001D03*
X64468601Y-48895001D03*
X67008601Y-48895001D03*
X69548601Y-48895001D03*
X72088601Y-48895001D03*
X74628601Y-48895001D03*
X77168601Y-48895001D03*
X79708601Y-48895001D03*
X82248601Y-48895001D03*
X84788601Y-48895001D03*
X87328601Y-48895001D03*
X89868601Y-48895001D03*
D13*
X47958601Y-50165001D03*
X93678601Y-50165001D03*
X47958601Y-67945001D03*
X93678601Y-67945001D03*
D14*
X95100000Y-55300000D03*
D15*
X77320000Y-62920000D03*
X92560000Y-55300000D03*
X79860000Y-62920000D03*
X90020000Y-55300000D03*
X82400000Y-62920000D03*
X87480000Y-55300000D03*
X84940000Y-62920000D03*
X84940000Y-55300000D03*
X87480000Y-62920000D03*
X82400000Y-55300000D03*
X90020000Y-62920000D03*
X79860000Y-55300000D03*
X92560000Y-62920000D03*
X77320000Y-55300000D03*
X95100000Y-62920000D03*
D16*
X62300000Y-56700000D03*
X62200000Y-67600000D03*
X57200000Y-67600000D03*
X54600000Y-67500000D03*
X56900000Y-64400000D03*
X65000000Y-67600000D03*
X47500000Y-55000000D03*
X53000000Y-60650000D03*
X47500000Y-65000000D03*
X57500000Y-55900000D03*
X78300000Y-60000000D03*
X83300000Y-60000000D03*
X90800000Y-60000000D03*
X95800000Y-60000000D03*
X90000000Y-65000000D03*
X72500000Y-55000000D03*
X86200000Y-53800000D03*
X82800000Y-50600000D03*
X57550000Y-60650000D03*
X53100000Y-55600000D03*
X64500000Y-61300000D03*
X62300000Y-54700000D03*
X54524499Y-63924499D03*
X63800000Y-61900000D03*
X63200000Y-62500000D03*
X58900000Y-53900000D03*
X62300000Y-65500000D03*
X60260000Y-64860000D03*
X62000000Y-64100000D03*
X63750000Y-64250000D03*
X61499996Y-62600000D03*
D17*
X79880000Y-62920000D02*
X79900000Y-62900000D01*
D18*
X54308601Y-69215001D02*
X52793600Y-67700000D01*
X52793600Y-67700000D02*
X52200000Y-67106400D01*
X52200000Y-67106400D02*
X52200000Y-66248998D01*
X55448998Y-63000000D02*
X60000000Y-63000000D01*
X60000000Y-63000000D02*
X61700000Y-61300000D01*
X61700000Y-61300000D02*
X64500000Y-61300000D01*
X64500000Y-61300000D02*
X64500000Y-56600000D01*
X62300000Y-54700000D02*
X63200000Y-54700000D01*
X64500000Y-56000000D02*
X64500000Y-56600000D01*
X63200000Y-54700000D02*
X64500000Y-56000000D01*
X66600000Y-62900000D02*
X77300000Y-62900000D01*
X64500000Y-61300000D02*
X65000000Y-61300000D01*
X65000000Y-61300000D02*
X66600000Y-62900000D01*
X52200000Y-66248998D02*
X54524499Y-63924499D01*
X54524499Y-63924499D02*
X55448998Y-63000000D01*
X63800000Y-61900000D02*
X64153553Y-61900000D01*
X64153553Y-61900000D02*
X64400000Y-61900000D01*
X64400000Y-61900000D02*
X67700000Y-65200000D01*
X67700000Y-65200000D02*
X69300000Y-65200000D01*
X69300000Y-65200000D02*
X69900000Y-65800000D01*
X69900000Y-65800000D02*
X69900000Y-67400000D01*
X69900000Y-67400000D02*
X69400000Y-67900000D01*
X69400000Y-67900000D02*
X68300000Y-67900000D01*
X68300000Y-67900000D02*
X67000000Y-69200000D01*
X63449999Y-62749999D02*
X64549999Y-62749999D01*
X63200000Y-62500000D02*
X63449999Y-62749999D01*
X64549999Y-62749999D02*
X67400000Y-65600000D01*
X67400000Y-65600000D02*
X67400000Y-67200000D01*
X67400000Y-67200000D02*
X66700000Y-67900000D01*
X65800000Y-67900000D02*
X64500000Y-69200000D01*
X66700000Y-67900000D02*
X65800000Y-67900000D01*
X66140000Y-51360000D02*
X65390001Y-52109999D01*
X65390001Y-52109999D02*
X64700000Y-52800000D01*
X64700000Y-52800000D02*
X58200000Y-52800000D01*
X58200000Y-52800000D02*
X57200000Y-51800000D01*
X57200000Y-51800000D02*
X57200000Y-50900000D01*
X57200000Y-50900000D02*
X56300000Y-50000000D01*
X56300000Y-50000000D02*
X52300000Y-50000000D01*
X52300000Y-50000000D02*
X51026338Y-51273662D01*
X51026338Y-51273662D02*
X51031988Y-51345467D01*
X58900000Y-53900000D02*
X65827413Y-53900000D01*
X65827413Y-53900000D02*
X68700000Y-53900000D01*
X68700000Y-53900000D02*
X71200000Y-51400000D01*
X55980000Y-51360000D02*
X57870011Y-53250011D01*
X66849989Y-53250011D02*
X68700000Y-51400000D01*
X57870011Y-53250011D02*
X66849989Y-53250011D01*
X61000000Y-64200000D02*
X62300000Y-65500000D01*
X58400000Y-64200000D02*
X61000000Y-64200000D01*
X55980000Y-66600000D02*
X56000000Y-66600000D01*
X56000000Y-66600000D02*
X58400000Y-64200000D01*
X58520000Y-66600000D02*
X60260000Y-64860000D01*
X63600000Y-66600000D02*
X63600000Y-65700000D01*
X63600000Y-65700000D02*
X62000000Y-64100000D01*
X56224998Y-63775002D02*
X53400000Y-66600000D01*
X56300000Y-63700000D02*
X56224998Y-63775002D01*
X62000000Y-64100000D02*
X61600000Y-63700000D01*
X61600000Y-63700000D02*
X56300000Y-63700000D01*
X66140000Y-66600000D02*
X66100000Y-66600000D01*
X66100000Y-66600000D02*
X63750000Y-64250000D01*
X62100000Y-62600000D02*
X61853549Y-62600000D01*
X61853549Y-62600000D02*
X61499996Y-62600000D01*
X63750000Y-64250000D02*
X62100000Y-62600000D01*
D19*
G36*
X60949996Y-62654170D02*
G01*
X60971132Y-62760429D01*
X61012593Y-62860523D01*
X61072783Y-62950604D01*
X61149392Y-63027213D01*
X61239473Y-63087403D01*
X61339567Y-63128864D01*
X61445826Y-63150000D01*
X61554166Y-63150000D01*
X61660425Y-63128864D01*
X61760519Y-63087403D01*
X61850600Y-63027213D01*
X61852813Y-63025000D01*
X61923960Y-63025000D01*
X63200000Y-64301041D01*
X63200000Y-64304170D01*
X63221136Y-64410429D01*
X63262597Y-64510523D01*
X63322787Y-64600604D01*
X63399396Y-64677213D01*
X63489477Y-64737403D01*
X63589571Y-64778864D01*
X63695830Y-64800000D01*
X63698960Y-64800000D01*
X65148608Y-66249648D01*
X65130350Y-66293726D01*
X65090000Y-66496584D01*
X65090000Y-66703416D01*
X65130350Y-66906274D01*
X65209502Y-67097362D01*
X65324411Y-67269336D01*
X65470664Y-67415589D01*
X65619117Y-67514782D01*
X65562740Y-67544916D01*
X65498026Y-67598026D01*
X65484716Y-67614244D01*
X64935368Y-68163592D01*
X64804044Y-68109195D01*
X64581866Y-68065001D01*
X64355336Y-68065001D01*
X64133158Y-68109195D01*
X63923872Y-68195885D01*
X63735519Y-68321738D01*
X63575338Y-68481919D01*
X63449485Y-68670272D01*
X63362795Y-68879558D01*
X63318601Y-69101736D01*
X63318601Y-69328266D01*
X63362795Y-69550444D01*
X63449485Y-69759730D01*
X63575338Y-69948083D01*
X63735519Y-70108264D01*
X63812949Y-70160001D01*
X62584253Y-70160001D01*
X62661683Y-70108264D01*
X62821864Y-69948083D01*
X62947717Y-69759730D01*
X63034407Y-69550444D01*
X63078601Y-69328266D01*
X63078601Y-69101736D01*
X63034407Y-68879558D01*
X62947717Y-68670272D01*
X62821864Y-68481919D01*
X62661683Y-68321738D01*
X62473330Y-68195885D01*
X62264044Y-68109195D01*
X62041866Y-68065001D01*
X61815336Y-68065001D01*
X61593158Y-68109195D01*
X61383872Y-68195885D01*
X61195519Y-68321738D01*
X61035338Y-68481919D01*
X60909485Y-68670272D01*
X60822795Y-68879558D01*
X60816305Y-68912185D01*
X60803512Y-68834983D01*
X60702188Y-68566249D01*
X60657808Y-68483222D01*
X60419558Y-68401833D01*
X59606390Y-69215001D01*
X59620532Y-69229143D01*
X59402743Y-69446932D01*
X59388601Y-69432790D01*
X59374459Y-69446932D01*
X59156670Y-69229143D01*
X59170812Y-69215001D01*
X58357644Y-68401833D01*
X58119394Y-68483222D01*
X58001018Y-68744892D01*
X57961459Y-68915008D01*
X57954407Y-68879558D01*
X57867717Y-68670272D01*
X57741864Y-68481919D01*
X57581683Y-68321738D01*
X57393330Y-68195885D01*
X57364744Y-68184044D01*
X58575433Y-68184044D01*
X59388601Y-68997212D01*
X60201769Y-68184044D01*
X60120380Y-67945794D01*
X59858710Y-67827418D01*
X59578973Y-67762367D01*
X59291920Y-67753139D01*
X59008583Y-67800090D01*
X58739849Y-67901414D01*
X58656822Y-67945794D01*
X58575433Y-68184044D01*
X57364744Y-68184044D01*
X57184044Y-68109195D01*
X56961866Y-68065001D01*
X56735336Y-68065001D01*
X56513158Y-68109195D01*
X56303872Y-68195885D01*
X56115519Y-68321738D01*
X55955338Y-68481919D01*
X55829485Y-68670272D01*
X55742795Y-68879558D01*
X55698601Y-69101736D01*
X55698601Y-69328266D01*
X55742795Y-69550444D01*
X55829485Y-69759730D01*
X55955338Y-69948083D01*
X56115519Y-70108264D01*
X56192949Y-70160001D01*
X54964253Y-70160001D01*
X55041683Y-70108264D01*
X55201864Y-69948083D01*
X55327717Y-69759730D01*
X55414407Y-69550444D01*
X55458601Y-69328266D01*
X55458601Y-69101736D01*
X55414407Y-68879558D01*
X55327717Y-68670272D01*
X55201864Y-68481919D01*
X55041683Y-68321738D01*
X54853330Y-68195885D01*
X54644044Y-68109195D01*
X54421866Y-68065001D01*
X54195336Y-68065001D01*
X53973158Y-68109195D01*
X53853429Y-68158789D01*
X53344640Y-67650000D01*
X53543416Y-67650000D01*
X53746274Y-67609650D01*
X53937362Y-67530498D01*
X54109336Y-67415589D01*
X54255589Y-67269336D01*
X54370498Y-67097362D01*
X54449650Y-66906274D01*
X54490000Y-66703416D01*
X54490000Y-66496584D01*
X54449650Y-66293726D01*
X54407961Y-66193080D01*
X56476041Y-64125000D01*
X57873960Y-64125000D01*
X56372778Y-65626182D01*
X56286274Y-65590350D01*
X56083416Y-65550000D01*
X55876584Y-65550000D01*
X55673726Y-65590350D01*
X55482638Y-65669502D01*
X55310664Y-65784411D01*
X55164411Y-65930664D01*
X55049502Y-66102638D01*
X54970350Y-66293726D01*
X54930000Y-66496584D01*
X54930000Y-66703416D01*
X54970350Y-66906274D01*
X55049502Y-67097362D01*
X55164411Y-67269336D01*
X55310664Y-67415589D01*
X55482638Y-67530498D01*
X55673726Y-67609650D01*
X55876584Y-67650000D01*
X56083416Y-67650000D01*
X56286274Y-67609650D01*
X56477362Y-67530498D01*
X56649336Y-67415589D01*
X56795589Y-67269336D01*
X56910498Y-67097362D01*
X56989650Y-66906274D01*
X57030000Y-66703416D01*
X57030000Y-66496584D01*
X56989650Y-66293726D01*
X56965534Y-66235506D01*
X58576040Y-64625000D01*
X59762025Y-64625000D01*
X59731136Y-64699571D01*
X59710000Y-64805830D01*
X59710000Y-64808960D01*
X58898636Y-65620324D01*
X58826274Y-65590350D01*
X58623416Y-65550000D01*
X58416584Y-65550000D01*
X58213726Y-65590350D01*
X58022638Y-65669502D01*
X57850664Y-65784411D01*
X57704411Y-65930664D01*
X57589502Y-66102638D01*
X57510350Y-66293726D01*
X57470000Y-66496584D01*
X57470000Y-66703416D01*
X57510350Y-66906274D01*
X57589502Y-67097362D01*
X57704411Y-67269336D01*
X57850664Y-67415589D01*
X58022638Y-67530498D01*
X58213726Y-67609650D01*
X58416584Y-67650000D01*
X58623416Y-67650000D01*
X58826274Y-67609650D01*
X59017362Y-67530498D01*
X59189336Y-67415589D01*
X59335589Y-67269336D01*
X59450498Y-67097362D01*
X59529650Y-66906274D01*
X59570000Y-66703416D01*
X59570000Y-66496584D01*
X60010000Y-66496584D01*
X60010000Y-66703416D01*
X60050350Y-66906274D01*
X60129502Y-67097362D01*
X60244411Y-67269336D01*
X60390664Y-67415589D01*
X60562638Y-67530498D01*
X60753726Y-67609650D01*
X60956584Y-67650000D01*
X61163416Y-67650000D01*
X61366274Y-67609650D01*
X61557362Y-67530498D01*
X61729336Y-67415589D01*
X61875589Y-67269336D01*
X61990498Y-67097362D01*
X62069650Y-66906274D01*
X62110000Y-66703416D01*
X62110000Y-66496584D01*
X62069650Y-66293726D01*
X61990498Y-66102638D01*
X61875589Y-65930664D01*
X61729336Y-65784411D01*
X61557362Y-65669502D01*
X61366274Y-65590350D01*
X61163416Y-65550000D01*
X60956584Y-65550000D01*
X60753726Y-65590350D01*
X60562638Y-65669502D01*
X60390664Y-65784411D01*
X60244411Y-65930664D01*
X60129502Y-66102638D01*
X60050350Y-66293726D01*
X60010000Y-66496584D01*
X59570000Y-66496584D01*
X59529650Y-66293726D01*
X59499676Y-66221364D01*
X60311040Y-65410000D01*
X60314170Y-65410000D01*
X60420429Y-65388864D01*
X60520523Y-65347403D01*
X60610604Y-65287213D01*
X60687213Y-65210604D01*
X60747403Y-65120523D01*
X60788864Y-65020429D01*
X60810000Y-64914170D01*
X60810000Y-64805830D01*
X60788864Y-64699571D01*
X60757975Y-64625000D01*
X60823960Y-64625000D01*
X61750000Y-65551040D01*
X61750000Y-65554170D01*
X61771136Y-65660429D01*
X61812597Y-65760523D01*
X61872787Y-65850604D01*
X61949396Y-65927213D01*
X62039477Y-65987403D01*
X62139571Y-66028864D01*
X62245830Y-66050000D01*
X62354170Y-66050000D01*
X62460429Y-66028864D01*
X62560523Y-65987403D01*
X62650604Y-65927213D01*
X62727213Y-65850604D01*
X62787403Y-65760523D01*
X62828864Y-65660429D01*
X62850000Y-65554170D01*
X62850000Y-65551041D01*
X63022205Y-65723246D01*
X62930664Y-65784411D01*
X62784411Y-65930664D01*
X62669502Y-66102638D01*
X62590350Y-66293726D01*
X62550000Y-66496584D01*
X62550000Y-66703416D01*
X62590350Y-66906274D01*
X62669502Y-67097362D01*
X62784411Y-67269336D01*
X62930664Y-67415589D01*
X63102638Y-67530498D01*
X63293726Y-67609650D01*
X63496584Y-67650000D01*
X63703416Y-67650000D01*
X63906274Y-67609650D01*
X64097362Y-67530498D01*
X64269336Y-67415589D01*
X64415589Y-67269336D01*
X64530498Y-67097362D01*
X64609650Y-66906274D01*
X64650000Y-66703416D01*
X64650000Y-66496584D01*
X64609650Y-66293726D01*
X64530498Y-66102638D01*
X64415589Y-65930664D01*
X64269336Y-65784411D01*
X64097362Y-65669502D01*
X64020934Y-65637844D01*
X64018850Y-65616686D01*
X63994548Y-65536573D01*
X63994548Y-65536572D01*
X63976055Y-65501974D01*
X63955084Y-65462740D01*
X63901974Y-65398026D01*
X63885762Y-65384721D01*
X62550000Y-64048960D01*
X62550000Y-64045830D01*
X62528864Y-63939571D01*
X62487403Y-63839477D01*
X62427213Y-63749396D01*
X62350604Y-63672787D01*
X62260523Y-63612597D01*
X62160429Y-63571136D01*
X62054170Y-63550000D01*
X62051040Y-63550000D01*
X61915283Y-63414243D01*
X61901974Y-63398026D01*
X61837260Y-63344916D01*
X61763427Y-63305452D01*
X61683314Y-63281150D01*
X61620874Y-63275000D01*
X61620867Y-63275000D01*
X61600000Y-63272945D01*
X61579133Y-63275000D01*
X60326040Y-63275000D01*
X60949996Y-62651044D01*
X60949996Y-62654170D01*
X60949996Y-62654170D01*
G37*
X60949996Y-62654170D02*
X60971132Y-62760429D01*
X61012593Y-62860523D01*
X61072783Y-62950604D01*
X61149392Y-63027213D01*
X61239473Y-63087403D01*
X61339567Y-63128864D01*
X61445826Y-63150000D01*
X61554166Y-63150000D01*
X61660425Y-63128864D01*
X61760519Y-63087403D01*
X61850600Y-63027213D01*
X61852813Y-63025000D01*
X61923960Y-63025000D01*
X63200000Y-64301041D01*
X63200000Y-64304170D01*
X63221136Y-64410429D01*
X63262597Y-64510523D01*
X63322787Y-64600604D01*
X63399396Y-64677213D01*
X63489477Y-64737403D01*
X63589571Y-64778864D01*
X63695830Y-64800000D01*
X63698960Y-64800000D01*
X65148608Y-66249648D01*
X65130350Y-66293726D01*
X65090000Y-66496584D01*
X65090000Y-66703416D01*
X65130350Y-66906274D01*
X65209502Y-67097362D01*
X65324411Y-67269336D01*
X65470664Y-67415589D01*
X65619117Y-67514782D01*
X65562740Y-67544916D01*
X65498026Y-67598026D01*
X65484716Y-67614244D01*
X64935368Y-68163592D01*
X64804044Y-68109195D01*
X64581866Y-68065001D01*
X64355336Y-68065001D01*
X64133158Y-68109195D01*
X63923872Y-68195885D01*
X63735519Y-68321738D01*
X63575338Y-68481919D01*
X63449485Y-68670272D01*
X63362795Y-68879558D01*
X63318601Y-69101736D01*
X63318601Y-69328266D01*
X63362795Y-69550444D01*
X63449485Y-69759730D01*
X63575338Y-69948083D01*
X63735519Y-70108264D01*
X63812949Y-70160001D01*
X62584253Y-70160001D01*
X62661683Y-70108264D01*
X62821864Y-69948083D01*
X62947717Y-69759730D01*
X63034407Y-69550444D01*
X63078601Y-69328266D01*
X63078601Y-69101736D01*
X63034407Y-68879558D01*
X62947717Y-68670272D01*
X62821864Y-68481919D01*
X62661683Y-68321738D01*
X62473330Y-68195885D01*
X62264044Y-68109195D01*
X62041866Y-68065001D01*
X61815336Y-68065001D01*
X61593158Y-68109195D01*
X61383872Y-68195885D01*
X61195519Y-68321738D01*
X61035338Y-68481919D01*
X60909485Y-68670272D01*
X60822795Y-68879558D01*
X60816305Y-68912185D01*
X60803512Y-68834983D01*
X60702188Y-68566249D01*
X60657808Y-68483222D01*
X60419558Y-68401833D01*
X59606390Y-69215001D01*
X59620532Y-69229143D01*
X59402743Y-69446932D01*
X59388601Y-69432790D01*
X59374459Y-69446932D01*
X59156670Y-69229143D01*
X59170812Y-69215001D01*
X58357644Y-68401833D01*
X58119394Y-68483222D01*
X58001018Y-68744892D01*
X57961459Y-68915008D01*
X57954407Y-68879558D01*
X57867717Y-68670272D01*
X57741864Y-68481919D01*
X57581683Y-68321738D01*
X57393330Y-68195885D01*
X57364744Y-68184044D01*
X58575433Y-68184044D01*
X59388601Y-68997212D01*
X60201769Y-68184044D01*
X60120380Y-67945794D01*
X59858710Y-67827418D01*
X59578973Y-67762367D01*
X59291920Y-67753139D01*
X59008583Y-67800090D01*
X58739849Y-67901414D01*
X58656822Y-67945794D01*
X58575433Y-68184044D01*
X57364744Y-68184044D01*
X57184044Y-68109195D01*
X56961866Y-68065001D01*
X56735336Y-68065001D01*
X56513158Y-68109195D01*
X56303872Y-68195885D01*
X56115519Y-68321738D01*
X55955338Y-68481919D01*
X55829485Y-68670272D01*
X55742795Y-68879558D01*
X55698601Y-69101736D01*
X55698601Y-69328266D01*
X55742795Y-69550444D01*
X55829485Y-69759730D01*
X55955338Y-69948083D01*
X56115519Y-70108264D01*
X56192949Y-70160001D01*
X54964253Y-70160001D01*
X55041683Y-70108264D01*
X55201864Y-69948083D01*
X55327717Y-69759730D01*
X55414407Y-69550444D01*
X55458601Y-69328266D01*
X55458601Y-69101736D01*
X55414407Y-68879558D01*
X55327717Y-68670272D01*
X55201864Y-68481919D01*
X55041683Y-68321738D01*
X54853330Y-68195885D01*
X54644044Y-68109195D01*
X54421866Y-68065001D01*
X54195336Y-68065001D01*
X53973158Y-68109195D01*
X53853429Y-68158789D01*
X53344640Y-67650000D01*
X53543416Y-67650000D01*
X53746274Y-67609650D01*
X53937362Y-67530498D01*
X54109336Y-67415589D01*
X54255589Y-67269336D01*
X54370498Y-67097362D01*
X54449650Y-66906274D01*
X54490000Y-66703416D01*
X54490000Y-66496584D01*
X54449650Y-66293726D01*
X54407961Y-66193080D01*
X56476041Y-64125000D01*
X57873960Y-64125000D01*
X56372778Y-65626182D01*
X56286274Y-65590350D01*
X56083416Y-65550000D01*
X55876584Y-65550000D01*
X55673726Y-65590350D01*
X55482638Y-65669502D01*
X55310664Y-65784411D01*
X55164411Y-65930664D01*
X55049502Y-66102638D01*
X54970350Y-66293726D01*
X54930000Y-66496584D01*
X54930000Y-66703416D01*
X54970350Y-66906274D01*
X55049502Y-67097362D01*
X55164411Y-67269336D01*
X55310664Y-67415589D01*
X55482638Y-67530498D01*
X55673726Y-67609650D01*
X55876584Y-67650000D01*
X56083416Y-67650000D01*
X56286274Y-67609650D01*
X56477362Y-67530498D01*
X56649336Y-67415589D01*
X56795589Y-67269336D01*
X56910498Y-67097362D01*
X56989650Y-66906274D01*
X57030000Y-66703416D01*
X57030000Y-66496584D01*
X56989650Y-66293726D01*
X56965534Y-66235506D01*
X58576040Y-64625000D01*
X59762025Y-64625000D01*
X59731136Y-64699571D01*
X59710000Y-64805830D01*
X59710000Y-64808960D01*
X58898636Y-65620324D01*
X58826274Y-65590350D01*
X58623416Y-65550000D01*
X58416584Y-65550000D01*
X58213726Y-65590350D01*
X58022638Y-65669502D01*
X57850664Y-65784411D01*
X57704411Y-65930664D01*
X57589502Y-66102638D01*
X57510350Y-66293726D01*
X57470000Y-66496584D01*
X57470000Y-66703416D01*
X57510350Y-66906274D01*
X57589502Y-67097362D01*
X57704411Y-67269336D01*
X57850664Y-67415589D01*
X58022638Y-67530498D01*
X58213726Y-67609650D01*
X58416584Y-67650000D01*
X58623416Y-67650000D01*
X58826274Y-67609650D01*
X59017362Y-67530498D01*
X59189336Y-67415589D01*
X59335589Y-67269336D01*
X59450498Y-67097362D01*
X59529650Y-66906274D01*
X59570000Y-66703416D01*
X59570000Y-66496584D01*
X60010000Y-66496584D01*
X60010000Y-66703416D01*
X60050350Y-66906274D01*
X60129502Y-67097362D01*
X60244411Y-67269336D01*
X60390664Y-67415589D01*
X60562638Y-67530498D01*
X60753726Y-67609650D01*
X60956584Y-67650000D01*
X61163416Y-67650000D01*
X61366274Y-67609650D01*
X61557362Y-67530498D01*
X61729336Y-67415589D01*
X61875589Y-67269336D01*
X61990498Y-67097362D01*
X62069650Y-66906274D01*
X62110000Y-66703416D01*
X62110000Y-66496584D01*
X62069650Y-66293726D01*
X61990498Y-66102638D01*
X61875589Y-65930664D01*
X61729336Y-65784411D01*
X61557362Y-65669502D01*
X61366274Y-65590350D01*
X61163416Y-65550000D01*
X60956584Y-65550000D01*
X60753726Y-65590350D01*
X60562638Y-65669502D01*
X60390664Y-65784411D01*
X60244411Y-65930664D01*
X60129502Y-66102638D01*
X60050350Y-66293726D01*
X60010000Y-66496584D01*
X59570000Y-66496584D01*
X59529650Y-66293726D01*
X59499676Y-66221364D01*
X60311040Y-65410000D01*
X60314170Y-65410000D01*
X60420429Y-65388864D01*
X60520523Y-65347403D01*
X60610604Y-65287213D01*
X60687213Y-65210604D01*
X60747403Y-65120523D01*
X60788864Y-65020429D01*
X60810000Y-64914170D01*
X60810000Y-64805830D01*
X60788864Y-64699571D01*
X60757975Y-64625000D01*
X60823960Y-64625000D01*
X61750000Y-65551040D01*
X61750000Y-65554170D01*
X61771136Y-65660429D01*
X61812597Y-65760523D01*
X61872787Y-65850604D01*
X61949396Y-65927213D01*
X62039477Y-65987403D01*
X62139571Y-66028864D01*
X62245830Y-66050000D01*
X62354170Y-66050000D01*
X62460429Y-66028864D01*
X62560523Y-65987403D01*
X62650604Y-65927213D01*
X62727213Y-65850604D01*
X62787403Y-65760523D01*
X62828864Y-65660429D01*
X62850000Y-65554170D01*
X62850000Y-65551041D01*
X63022205Y-65723246D01*
X62930664Y-65784411D01*
X62784411Y-65930664D01*
X62669502Y-66102638D01*
X62590350Y-66293726D01*
X62550000Y-66496584D01*
X62550000Y-66703416D01*
X62590350Y-66906274D01*
X62669502Y-67097362D01*
X62784411Y-67269336D01*
X62930664Y-67415589D01*
X63102638Y-67530498D01*
X63293726Y-67609650D01*
X63496584Y-67650000D01*
X63703416Y-67650000D01*
X63906274Y-67609650D01*
X64097362Y-67530498D01*
X64269336Y-67415589D01*
X64415589Y-67269336D01*
X64530498Y-67097362D01*
X64609650Y-66906274D01*
X64650000Y-66703416D01*
X64650000Y-66496584D01*
X64609650Y-66293726D01*
X64530498Y-66102638D01*
X64415589Y-65930664D01*
X64269336Y-65784411D01*
X64097362Y-65669502D01*
X64020934Y-65637844D01*
X64018850Y-65616686D01*
X63994548Y-65536573D01*
X63994548Y-65536572D01*
X63976055Y-65501974D01*
X63955084Y-65462740D01*
X63901974Y-65398026D01*
X63885762Y-65384721D01*
X62550000Y-64048960D01*
X62550000Y-64045830D01*
X62528864Y-63939571D01*
X62487403Y-63839477D01*
X62427213Y-63749396D01*
X62350604Y-63672787D01*
X62260523Y-63612597D01*
X62160429Y-63571136D01*
X62054170Y-63550000D01*
X62051040Y-63550000D01*
X61915283Y-63414243D01*
X61901974Y-63398026D01*
X61837260Y-63344916D01*
X61763427Y-63305452D01*
X61683314Y-63281150D01*
X61620874Y-63275000D01*
X61620867Y-63275000D01*
X61600000Y-63272945D01*
X61579133Y-63275000D01*
X60326040Y-63275000D01*
X60949996Y-62651044D01*
X60949996Y-62654170D01*
G36*
X61195519Y-48001738D02*
G01*
X61035338Y-48161919D01*
X60909485Y-48350272D01*
X60822795Y-48559558D01*
X60778601Y-48781736D01*
X60778601Y-49008266D01*
X60822795Y-49230444D01*
X60909485Y-49439730D01*
X61035338Y-49628083D01*
X61195519Y-49788264D01*
X61383872Y-49914117D01*
X61593158Y-50000807D01*
X61815336Y-50045001D01*
X62041866Y-50045001D01*
X62264044Y-50000807D01*
X62473330Y-49914117D01*
X62661683Y-49788264D01*
X62821864Y-49628083D01*
X62947717Y-49439730D01*
X63034407Y-49230444D01*
X63078601Y-49008266D01*
X63078601Y-48781736D01*
X63034407Y-48559558D01*
X62947717Y-48350272D01*
X62821864Y-48161919D01*
X62661683Y-48001738D01*
X62584253Y-47950001D01*
X63812949Y-47950001D01*
X63735519Y-48001738D01*
X63575338Y-48161919D01*
X63449485Y-48350272D01*
X63362795Y-48559558D01*
X63318601Y-48781736D01*
X63318601Y-49008266D01*
X63362795Y-49230444D01*
X63449485Y-49439730D01*
X63575338Y-49628083D01*
X63735519Y-49788264D01*
X63923872Y-49914117D01*
X64133158Y-50000807D01*
X64355336Y-50045001D01*
X64581866Y-50045001D01*
X64804044Y-50000807D01*
X65013330Y-49914117D01*
X65201683Y-49788264D01*
X65361864Y-49628083D01*
X65487717Y-49439730D01*
X65574407Y-49230444D01*
X65618601Y-49008266D01*
X65618601Y-48781736D01*
X65574407Y-48559558D01*
X65487717Y-48350272D01*
X65361864Y-48161919D01*
X65201683Y-48001738D01*
X65124253Y-47950001D01*
X66352949Y-47950001D01*
X66275519Y-48001738D01*
X66115338Y-48161919D01*
X65989485Y-48350272D01*
X65902795Y-48559558D01*
X65858601Y-48781736D01*
X65858601Y-49008266D01*
X65902795Y-49230444D01*
X65989485Y-49439730D01*
X66115338Y-49628083D01*
X66275519Y-49788264D01*
X66463872Y-49914117D01*
X66673158Y-50000807D01*
X66895336Y-50045001D01*
X67121866Y-50045001D01*
X67344044Y-50000807D01*
X67553330Y-49914117D01*
X67741683Y-49788264D01*
X67901864Y-49628083D01*
X68027717Y-49439730D01*
X68114407Y-49230444D01*
X68158601Y-49008266D01*
X68158601Y-48781736D01*
X68114407Y-48559558D01*
X68027717Y-48350272D01*
X67901864Y-48161919D01*
X67741683Y-48001738D01*
X67664253Y-47950001D01*
X68892949Y-47950001D01*
X68815519Y-48001738D01*
X68655338Y-48161919D01*
X68529485Y-48350272D01*
X68442795Y-48559558D01*
X68398601Y-48781736D01*
X68398601Y-49008266D01*
X68442795Y-49230444D01*
X68529485Y-49439730D01*
X68655338Y-49628083D01*
X68815519Y-49788264D01*
X69003872Y-49914117D01*
X69213158Y-50000807D01*
X69435336Y-50045001D01*
X69661866Y-50045001D01*
X69884044Y-50000807D01*
X70093330Y-49914117D01*
X70281683Y-49788264D01*
X70441864Y-49628083D01*
X70567717Y-49439730D01*
X70654407Y-49230444D01*
X70698601Y-49008266D01*
X70698601Y-48781736D01*
X70654407Y-48559558D01*
X70567717Y-48350272D01*
X70441864Y-48161919D01*
X70281683Y-48001738D01*
X70204253Y-47950001D01*
X71432949Y-47950001D01*
X71355519Y-48001738D01*
X71195338Y-48161919D01*
X71069485Y-48350272D01*
X70982795Y-48559558D01*
X70938601Y-48781736D01*
X70938601Y-49008266D01*
X70982795Y-49230444D01*
X71069485Y-49439730D01*
X71195338Y-49628083D01*
X71355519Y-49788264D01*
X71543872Y-49914117D01*
X71753158Y-50000807D01*
X71975336Y-50045001D01*
X72201866Y-50045001D01*
X72424044Y-50000807D01*
X72633330Y-49914117D01*
X72821683Y-49788264D01*
X72981864Y-49628083D01*
X73107717Y-49439730D01*
X73194407Y-49230444D01*
X73238601Y-49008266D01*
X73238601Y-48781736D01*
X73194407Y-48559558D01*
X73107717Y-48350272D01*
X72981864Y-48161919D01*
X72821683Y-48001738D01*
X72744253Y-47950001D01*
X73972949Y-47950001D01*
X73895519Y-48001738D01*
X73735338Y-48161919D01*
X73609485Y-48350272D01*
X73522795Y-48559558D01*
X73478601Y-48781736D01*
X73478601Y-49008266D01*
X73522795Y-49230444D01*
X73609485Y-49439730D01*
X73735338Y-49628083D01*
X73895519Y-49788264D01*
X74083872Y-49914117D01*
X74293158Y-50000807D01*
X74515336Y-50045001D01*
X74741866Y-50045001D01*
X74964044Y-50000807D01*
X75173330Y-49914117D01*
X75361683Y-49788264D01*
X75521864Y-49628083D01*
X75647717Y-49439730D01*
X75734407Y-49230444D01*
X75778601Y-49008266D01*
X75778601Y-48781736D01*
X75734407Y-48559558D01*
X75647717Y-48350272D01*
X75521864Y-48161919D01*
X75361683Y-48001738D01*
X75284253Y-47950001D01*
X76512949Y-47950001D01*
X76435519Y-48001738D01*
X76275338Y-48161919D01*
X76149485Y-48350272D01*
X76062795Y-48559558D01*
X76018601Y-48781736D01*
X76018601Y-49008266D01*
X76062795Y-49230444D01*
X76149485Y-49439730D01*
X76275338Y-49628083D01*
X76435519Y-49788264D01*
X76623872Y-49914117D01*
X76833158Y-50000807D01*
X77055336Y-50045001D01*
X77281866Y-50045001D01*
X77504044Y-50000807D01*
X77713330Y-49914117D01*
X77901683Y-49788264D01*
X78061864Y-49628083D01*
X78187717Y-49439730D01*
X78274407Y-49230444D01*
X78318601Y-49008266D01*
X78318601Y-48781736D01*
X78274407Y-48559558D01*
X78187717Y-48350272D01*
X78061864Y-48161919D01*
X77901683Y-48001738D01*
X77824253Y-47950001D01*
X79052949Y-47950001D01*
X78975519Y-48001738D01*
X78815338Y-48161919D01*
X78689485Y-48350272D01*
X78602795Y-48559558D01*
X78558601Y-48781736D01*
X78558601Y-49008266D01*
X78602795Y-49230444D01*
X78689485Y-49439730D01*
X78815338Y-49628083D01*
X78975519Y-49788264D01*
X79163872Y-49914117D01*
X79373158Y-50000807D01*
X79595336Y-50045001D01*
X79821866Y-50045001D01*
X80044044Y-50000807D01*
X80253330Y-49914117D01*
X80441683Y-49788264D01*
X80601864Y-49628083D01*
X80727717Y-49439730D01*
X80814407Y-49230444D01*
X80858601Y-49008266D01*
X80858601Y-48781736D01*
X80814407Y-48559558D01*
X80727717Y-48350272D01*
X80601864Y-48161919D01*
X80441683Y-48001738D01*
X80364253Y-47950001D01*
X81592949Y-47950001D01*
X81515519Y-48001738D01*
X81355338Y-48161919D01*
X81229485Y-48350272D01*
X81142795Y-48559558D01*
X81098601Y-48781736D01*
X81098601Y-49008266D01*
X81142795Y-49230444D01*
X81229485Y-49439730D01*
X81355338Y-49628083D01*
X81515519Y-49788264D01*
X81703872Y-49914117D01*
X81913158Y-50000807D01*
X82135336Y-50045001D01*
X82361866Y-50045001D01*
X82584044Y-50000807D01*
X82793330Y-49914117D01*
X82981683Y-49788264D01*
X83141864Y-49628083D01*
X83267717Y-49439730D01*
X83354407Y-49230444D01*
X83398601Y-49008266D01*
X83398601Y-48781736D01*
X83354407Y-48559558D01*
X83267717Y-48350272D01*
X83141864Y-48161919D01*
X82981683Y-48001738D01*
X82904253Y-47950001D01*
X84132949Y-47950001D01*
X84055519Y-48001738D01*
X83895338Y-48161919D01*
X83769485Y-48350272D01*
X83682795Y-48559558D01*
X83638601Y-48781736D01*
X83638601Y-49008266D01*
X83682795Y-49230444D01*
X83769485Y-49439730D01*
X83895338Y-49628083D01*
X84055519Y-49788264D01*
X84243872Y-49914117D01*
X84453158Y-50000807D01*
X84675336Y-50045001D01*
X84901866Y-50045001D01*
X85124044Y-50000807D01*
X85333330Y-49914117D01*
X85521683Y-49788264D01*
X85681864Y-49628083D01*
X85807717Y-49439730D01*
X85894407Y-49230444D01*
X85938601Y-49008266D01*
X85938601Y-48781736D01*
X85894407Y-48559558D01*
X85807717Y-48350272D01*
X85681864Y-48161919D01*
X85521683Y-48001738D01*
X85444253Y-47950001D01*
X86672949Y-47950001D01*
X86595519Y-48001738D01*
X86435338Y-48161919D01*
X86309485Y-48350272D01*
X86222795Y-48559558D01*
X86178601Y-48781736D01*
X86178601Y-49008266D01*
X86222795Y-49230444D01*
X86309485Y-49439730D01*
X86435338Y-49628083D01*
X86595519Y-49788264D01*
X86783872Y-49914117D01*
X86993158Y-50000807D01*
X87215336Y-50045001D01*
X87441866Y-50045001D01*
X87664044Y-50000807D01*
X87873330Y-49914117D01*
X88061683Y-49788264D01*
X88221864Y-49628083D01*
X88347717Y-49439730D01*
X88434407Y-49230444D01*
X88478601Y-49008266D01*
X88478601Y-48781736D01*
X88434407Y-48559558D01*
X88347717Y-48350272D01*
X88221864Y-48161919D01*
X88061683Y-48001738D01*
X87984253Y-47950001D01*
X89212949Y-47950001D01*
X89135519Y-48001738D01*
X88975338Y-48161919D01*
X88849485Y-48350272D01*
X88762795Y-48559558D01*
X88718601Y-48781736D01*
X88718601Y-49008266D01*
X88762795Y-49230444D01*
X88849485Y-49439730D01*
X88975338Y-49628083D01*
X89135519Y-49788264D01*
X89323872Y-49914117D01*
X89533158Y-50000807D01*
X89755336Y-50045001D01*
X89981866Y-50045001D01*
X90204044Y-50000807D01*
X90301748Y-49960336D01*
X91600601Y-49960336D01*
X91600601Y-50369666D01*
X91680457Y-50771131D01*
X91837101Y-51149303D01*
X92064513Y-51489649D01*
X92353953Y-51779089D01*
X92694299Y-52006501D01*
X93072471Y-52163145D01*
X93473936Y-52243001D01*
X93883266Y-52243001D01*
X94284731Y-52163145D01*
X94662903Y-52006501D01*
X95003249Y-51779089D01*
X95292689Y-51489649D01*
X95520101Y-51149303D01*
X95676745Y-50771131D01*
X95756601Y-50369666D01*
X95756601Y-49960336D01*
X95676745Y-49558871D01*
X95520101Y-49180699D01*
X95292689Y-48840353D01*
X95003249Y-48550913D01*
X94662903Y-48323501D01*
X94284731Y-48166857D01*
X93883266Y-48087001D01*
X93473936Y-48087001D01*
X93072471Y-48166857D01*
X92694299Y-48323501D01*
X92353953Y-48550913D01*
X92064513Y-48840353D01*
X91837101Y-49180699D01*
X91680457Y-49558871D01*
X91600601Y-49960336D01*
X90301748Y-49960336D01*
X90413330Y-49914117D01*
X90601683Y-49788264D01*
X90761864Y-49628083D01*
X90887717Y-49439730D01*
X90974407Y-49230444D01*
X91018601Y-49008266D01*
X91018601Y-48781736D01*
X90974407Y-48559558D01*
X90887717Y-48350272D01*
X90761864Y-48161919D01*
X90601683Y-48001738D01*
X90524253Y-47950001D01*
X95256304Y-47950001D01*
X95702127Y-47993714D01*
X96115679Y-48118573D01*
X96497101Y-48321379D01*
X96831868Y-48594407D01*
X97107225Y-48927257D01*
X97312692Y-49307261D01*
X97440433Y-49719924D01*
X97487199Y-50164872D01*
X97487202Y-50165726D01*
X97486734Y-67974728D01*
X97434835Y-68416529D01*
X97302059Y-68827611D01*
X97091969Y-69205068D01*
X96812562Y-69534532D01*
X96474485Y-69803451D01*
X96090610Y-70001583D01*
X95674608Y-70121656D01*
X95257297Y-70160001D01*
X90994817Y-70160001D01*
X91013105Y-70141713D01*
X90899560Y-70028168D01*
X91137808Y-69946780D01*
X91256184Y-69685110D01*
X91321235Y-69405373D01*
X91330463Y-69118320D01*
X91283512Y-68834983D01*
X91182188Y-68566249D01*
X91137808Y-68483222D01*
X90899558Y-68401833D01*
X90086390Y-69215001D01*
X90100532Y-69229143D01*
X89882743Y-69446932D01*
X89868601Y-69432790D01*
X89854459Y-69446932D01*
X89636670Y-69229143D01*
X89650812Y-69215001D01*
X88837644Y-68401833D01*
X88599394Y-68483222D01*
X88481018Y-68744892D01*
X88441459Y-68915008D01*
X88434407Y-68879558D01*
X88347717Y-68670272D01*
X88221864Y-68481919D01*
X88061683Y-68321738D01*
X87873330Y-68195885D01*
X87844744Y-68184044D01*
X89055433Y-68184044D01*
X89868601Y-68997212D01*
X90681769Y-68184044D01*
X90600380Y-67945794D01*
X90338710Y-67827418D01*
X90058973Y-67762367D01*
X89771920Y-67753139D01*
X89488583Y-67800090D01*
X89219849Y-67901414D01*
X89136822Y-67945794D01*
X89055433Y-68184044D01*
X87844744Y-68184044D01*
X87664044Y-68109195D01*
X87441866Y-68065001D01*
X87215336Y-68065001D01*
X86993158Y-68109195D01*
X86783872Y-68195885D01*
X86595519Y-68321738D01*
X86435338Y-68481919D01*
X86309485Y-68670272D01*
X86222795Y-68879558D01*
X86178601Y-69101736D01*
X86178601Y-69328266D01*
X86222795Y-69550444D01*
X86309485Y-69759730D01*
X86435338Y-69948083D01*
X86595519Y-70108264D01*
X86672949Y-70160001D01*
X85444253Y-70160001D01*
X85521683Y-70108264D01*
X85681864Y-69948083D01*
X85807717Y-69759730D01*
X85894407Y-69550444D01*
X85938601Y-69328266D01*
X85938601Y-69101736D01*
X85894407Y-68879558D01*
X85807717Y-68670272D01*
X85681864Y-68481919D01*
X85521683Y-68321738D01*
X85333330Y-68195885D01*
X85124044Y-68109195D01*
X84901866Y-68065001D01*
X84675336Y-68065001D01*
X84453158Y-68109195D01*
X84243872Y-68195885D01*
X84055519Y-68321738D01*
X83895338Y-68481919D01*
X83769485Y-68670272D01*
X83682795Y-68879558D01*
X83638601Y-69101736D01*
X83638601Y-69328266D01*
X83682795Y-69550444D01*
X83769485Y-69759730D01*
X83895338Y-69948083D01*
X84055519Y-70108264D01*
X84132949Y-70160001D01*
X82904253Y-70160001D01*
X82981683Y-70108264D01*
X83141864Y-69948083D01*
X83267717Y-69759730D01*
X83354407Y-69550444D01*
X83398601Y-69328266D01*
X83398601Y-69101736D01*
X83354407Y-68879558D01*
X83267717Y-68670272D01*
X83141864Y-68481919D01*
X82981683Y-68321738D01*
X82793330Y-68195885D01*
X82584044Y-68109195D01*
X82361866Y-68065001D01*
X82135336Y-68065001D01*
X81913158Y-68109195D01*
X81703872Y-68195885D01*
X81515519Y-68321738D01*
X81355338Y-68481919D01*
X81229485Y-68670272D01*
X81142795Y-68879558D01*
X81098601Y-69101736D01*
X81098601Y-69328266D01*
X81142795Y-69550444D01*
X81229485Y-69759730D01*
X81355338Y-69948083D01*
X81515519Y-70108264D01*
X81592949Y-70160001D01*
X80364253Y-70160001D01*
X80441683Y-70108264D01*
X80601864Y-69948083D01*
X80727717Y-69759730D01*
X80814407Y-69550444D01*
X80858601Y-69328266D01*
X80858601Y-69101736D01*
X80814407Y-68879558D01*
X80727717Y-68670272D01*
X80601864Y-68481919D01*
X80441683Y-68321738D01*
X80253330Y-68195885D01*
X80044044Y-68109195D01*
X79821866Y-68065001D01*
X79595336Y-68065001D01*
X79373158Y-68109195D01*
X79163872Y-68195885D01*
X78975519Y-68321738D01*
X78815338Y-68481919D01*
X78689485Y-68670272D01*
X78602795Y-68879558D01*
X78558601Y-69101736D01*
X78558601Y-69328266D01*
X78602795Y-69550444D01*
X78689485Y-69759730D01*
X78815338Y-69948083D01*
X78975519Y-70108264D01*
X79052949Y-70160001D01*
X77824253Y-70160001D01*
X77901683Y-70108264D01*
X78061864Y-69948083D01*
X78187717Y-69759730D01*
X78274407Y-69550444D01*
X78318601Y-69328266D01*
X78318601Y-69101736D01*
X78274407Y-68879558D01*
X78187717Y-68670272D01*
X78061864Y-68481919D01*
X77901683Y-68321738D01*
X77713330Y-68195885D01*
X77504044Y-68109195D01*
X77281866Y-68065001D01*
X77055336Y-68065001D01*
X76833158Y-68109195D01*
X76623872Y-68195885D01*
X76435519Y-68321738D01*
X76275338Y-68481919D01*
X76149485Y-68670272D01*
X76062795Y-68879558D01*
X76018601Y-69101736D01*
X76018601Y-69328266D01*
X76062795Y-69550444D01*
X76149485Y-69759730D01*
X76275338Y-69948083D01*
X76435519Y-70108264D01*
X76512949Y-70160001D01*
X75284253Y-70160001D01*
X75361683Y-70108264D01*
X75521864Y-69948083D01*
X75647717Y-69759730D01*
X75734407Y-69550444D01*
X75778601Y-69328266D01*
X75778601Y-69101736D01*
X75734407Y-68879558D01*
X75647717Y-68670272D01*
X75521864Y-68481919D01*
X75361683Y-68321738D01*
X75173330Y-68195885D01*
X74964044Y-68109195D01*
X74741866Y-68065001D01*
X74515336Y-68065001D01*
X74293158Y-68109195D01*
X74083872Y-68195885D01*
X73895519Y-68321738D01*
X73735338Y-68481919D01*
X73609485Y-68670272D01*
X73522795Y-68879558D01*
X73478601Y-69101736D01*
X73478601Y-69328266D01*
X73522795Y-69550444D01*
X73609485Y-69759730D01*
X73735338Y-69948083D01*
X73895519Y-70108264D01*
X73972949Y-70160001D01*
X72744253Y-70160001D01*
X72821683Y-70108264D01*
X72981864Y-69948083D01*
X73107717Y-69759730D01*
X73194407Y-69550444D01*
X73238601Y-69328266D01*
X73238601Y-69101736D01*
X73194407Y-68879558D01*
X73107717Y-68670272D01*
X72981864Y-68481919D01*
X72821683Y-68321738D01*
X72633330Y-68195885D01*
X72424044Y-68109195D01*
X72201866Y-68065001D01*
X71975336Y-68065001D01*
X71753158Y-68109195D01*
X71543872Y-68195885D01*
X71355519Y-68321738D01*
X71195338Y-68481919D01*
X71069485Y-68670272D01*
X70982795Y-68879558D01*
X70938601Y-69101736D01*
X70938601Y-69328266D01*
X70982795Y-69550444D01*
X71069485Y-69759730D01*
X71195338Y-69948083D01*
X71355519Y-70108264D01*
X71432949Y-70160001D01*
X70204253Y-70160001D01*
X70281683Y-70108264D01*
X70441864Y-69948083D01*
X70567717Y-69759730D01*
X70654407Y-69550444D01*
X70698601Y-69328266D01*
X70698601Y-69101736D01*
X70654407Y-68879558D01*
X70567717Y-68670272D01*
X70441864Y-68481919D01*
X70281683Y-68321738D01*
X70093330Y-68195885D01*
X69884044Y-68109195D01*
X69807142Y-68093898D01*
X70160704Y-67740336D01*
X91600601Y-67740336D01*
X91600601Y-68149666D01*
X91680457Y-68551131D01*
X91837101Y-68929303D01*
X92064513Y-69269649D01*
X92353953Y-69559089D01*
X92694299Y-69786501D01*
X93072471Y-69943145D01*
X93473936Y-70023001D01*
X93883266Y-70023001D01*
X94284731Y-69943145D01*
X94662903Y-69786501D01*
X95003249Y-69559089D01*
X95292689Y-69269649D01*
X95520101Y-68929303D01*
X95676745Y-68551131D01*
X95756601Y-68149666D01*
X95756601Y-67740336D01*
X95676745Y-67338871D01*
X95520101Y-66960699D01*
X95292689Y-66620353D01*
X95003249Y-66330913D01*
X94662903Y-66103501D01*
X94284731Y-65946857D01*
X93883266Y-65867001D01*
X93473936Y-65867001D01*
X93072471Y-65946857D01*
X92694299Y-66103501D01*
X92353953Y-66330913D01*
X92064513Y-66620353D01*
X91837101Y-66960699D01*
X91680457Y-67338871D01*
X91600601Y-67740336D01*
X70160704Y-67740336D01*
X70185762Y-67715279D01*
X70201974Y-67701974D01*
X70255084Y-67637260D01*
X70283167Y-67584720D01*
X70294548Y-67563428D01*
X70318850Y-67483314D01*
X70321000Y-67461484D01*
X70325000Y-67420874D01*
X70325000Y-67420867D01*
X70327055Y-67400000D01*
X70325000Y-67379133D01*
X70325000Y-67150489D01*
X70404411Y-67269336D01*
X70550664Y-67415589D01*
X70722638Y-67530498D01*
X70913726Y-67609650D01*
X71116584Y-67650000D01*
X71323416Y-67650000D01*
X71526274Y-67609650D01*
X71717362Y-67530498D01*
X71889336Y-67415589D01*
X72035589Y-67269336D01*
X72150498Y-67097362D01*
X72229650Y-66906274D01*
X72270000Y-66703416D01*
X72270000Y-66496584D01*
X72229650Y-66293726D01*
X72150498Y-66102638D01*
X72035589Y-65930664D01*
X71889336Y-65784411D01*
X71717362Y-65669502D01*
X71526274Y-65590350D01*
X71323416Y-65550000D01*
X71116584Y-65550000D01*
X70913726Y-65590350D01*
X70722638Y-65669502D01*
X70550664Y-65784411D01*
X70404411Y-65930664D01*
X70325000Y-66049511D01*
X70325000Y-65820866D01*
X70327055Y-65799999D01*
X70325000Y-65779132D01*
X70325000Y-65779126D01*
X70318850Y-65716686D01*
X70294548Y-65636573D01*
X70255084Y-65562740D01*
X70201974Y-65498026D01*
X70185763Y-65484722D01*
X69615283Y-64914243D01*
X69601974Y-64898026D01*
X69537260Y-64844916D01*
X69463427Y-64805452D01*
X69383314Y-64781150D01*
X69320874Y-64775000D01*
X69320867Y-64775000D01*
X69300000Y-64772945D01*
X69279133Y-64775000D01*
X67876041Y-64775000D01*
X66325846Y-63224806D01*
X66362740Y-63255084D01*
X66400001Y-63275000D01*
X66436572Y-63294548D01*
X66504917Y-63315280D01*
X66516686Y-63318850D01*
X66579126Y-63325000D01*
X66579133Y-63325000D01*
X66600000Y-63327055D01*
X66620867Y-63325000D01*
X76293359Y-63325000D01*
X76298816Y-63342988D01*
X76400958Y-63534084D01*
X76538419Y-63701581D01*
X76705916Y-63839042D01*
X76897012Y-63941184D01*
X77104362Y-64004084D01*
X77265964Y-64020000D01*
X77374036Y-64020000D01*
X77535638Y-64004084D01*
X77742988Y-63941184D01*
X77934084Y-63839042D01*
X78101581Y-63701581D01*
X78239042Y-63534084D01*
X78341184Y-63342988D01*
X78404084Y-63135638D01*
X78425322Y-62920000D01*
X78754678Y-62920000D01*
X78775916Y-63135638D01*
X78838816Y-63342988D01*
X78940958Y-63534084D01*
X79078419Y-63701581D01*
X79245916Y-63839042D01*
X79437012Y-63941184D01*
X79644362Y-64004084D01*
X79805964Y-64020000D01*
X79914036Y-64020000D01*
X80075638Y-64004084D01*
X80282988Y-63941184D01*
X80474084Y-63839042D01*
X80641581Y-63701581D01*
X80779042Y-63534084D01*
X80881184Y-63342988D01*
X80944084Y-63135638D01*
X80965322Y-62920000D01*
X81294678Y-62920000D01*
X81315916Y-63135638D01*
X81378816Y-63342988D01*
X81480958Y-63534084D01*
X81618419Y-63701581D01*
X81785916Y-63839042D01*
X81977012Y-63941184D01*
X82184362Y-64004084D01*
X82345964Y-64020000D01*
X82454036Y-64020000D01*
X82615638Y-64004084D01*
X82822988Y-63941184D01*
X83014084Y-63839042D01*
X83181581Y-63701581D01*
X83319042Y-63534084D01*
X83421184Y-63342988D01*
X83484084Y-63135638D01*
X83505322Y-62920000D01*
X83834678Y-62920000D01*
X83855916Y-63135638D01*
X83918816Y-63342988D01*
X84020958Y-63534084D01*
X84158419Y-63701581D01*
X84325916Y-63839042D01*
X84517012Y-63941184D01*
X84724362Y-64004084D01*
X84885964Y-64020000D01*
X84994036Y-64020000D01*
X85155638Y-64004084D01*
X85362988Y-63941184D01*
X85554084Y-63839042D01*
X85721581Y-63701581D01*
X85859042Y-63534084D01*
X85961184Y-63342988D01*
X86024084Y-63135638D01*
X86045322Y-62920000D01*
X86374678Y-62920000D01*
X86395916Y-63135638D01*
X86458816Y-63342988D01*
X86560958Y-63534084D01*
X86698419Y-63701581D01*
X86865916Y-63839042D01*
X87057012Y-63941184D01*
X87264362Y-64004084D01*
X87425964Y-64020000D01*
X87534036Y-64020000D01*
X87695638Y-64004084D01*
X87902988Y-63941184D01*
X88094084Y-63839042D01*
X88261581Y-63701581D01*
X88399042Y-63534084D01*
X88501184Y-63342988D01*
X88564084Y-63135638D01*
X88585322Y-62920000D01*
X88914678Y-62920000D01*
X88935916Y-63135638D01*
X88998816Y-63342988D01*
X89100958Y-63534084D01*
X89238419Y-63701581D01*
X89405916Y-63839042D01*
X89597012Y-63941184D01*
X89804362Y-64004084D01*
X89965964Y-64020000D01*
X90074036Y-64020000D01*
X90235638Y-64004084D01*
X90442988Y-63941184D01*
X90634084Y-63839042D01*
X90801581Y-63701581D01*
X90939042Y-63534084D01*
X91041184Y-63342988D01*
X91104084Y-63135638D01*
X91125322Y-62920000D01*
X91454678Y-62920000D01*
X91475916Y-63135638D01*
X91538816Y-63342988D01*
X91640958Y-63534084D01*
X91778419Y-63701581D01*
X91945916Y-63839042D01*
X92137012Y-63941184D01*
X92344362Y-64004084D01*
X92505964Y-64020000D01*
X92614036Y-64020000D01*
X92775638Y-64004084D01*
X92982988Y-63941184D01*
X93174084Y-63839042D01*
X93341581Y-63701581D01*
X93479042Y-63534084D01*
X93581184Y-63342988D01*
X93644084Y-63135638D01*
X93665322Y-62920000D01*
X93994678Y-62920000D01*
X94015916Y-63135638D01*
X94078816Y-63342988D01*
X94180958Y-63534084D01*
X94318419Y-63701581D01*
X94485916Y-63839042D01*
X94677012Y-63941184D01*
X94884362Y-64004084D01*
X95045964Y-64020000D01*
X95154036Y-64020000D01*
X95315638Y-64004084D01*
X95522988Y-63941184D01*
X95714084Y-63839042D01*
X95881581Y-63701581D01*
X96019042Y-63534084D01*
X96121184Y-63342988D01*
X96184084Y-63135638D01*
X96205322Y-62920000D01*
X96184084Y-62704362D01*
X96121184Y-62497012D01*
X96019042Y-62305916D01*
X95881581Y-62138419D01*
X95714084Y-62000958D01*
X95522988Y-61898816D01*
X95315638Y-61835916D01*
X95154036Y-61820000D01*
X95045964Y-61820000D01*
X94884362Y-61835916D01*
X94677012Y-61898816D01*
X94485916Y-62000958D01*
X94318419Y-62138419D01*
X94180958Y-62305916D01*
X94078816Y-62497012D01*
X94015916Y-62704362D01*
X93994678Y-62920000D01*
X93665322Y-62920000D01*
X93644084Y-62704362D01*
X93581184Y-62497012D01*
X93479042Y-62305916D01*
X93341581Y-62138419D01*
X93174084Y-62000958D01*
X92982988Y-61898816D01*
X92775638Y-61835916D01*
X92614036Y-61820000D01*
X92505964Y-61820000D01*
X92344362Y-61835916D01*
X92137012Y-61898816D01*
X91945916Y-62000958D01*
X91778419Y-62138419D01*
X91640958Y-62305916D01*
X91538816Y-62497012D01*
X91475916Y-62704362D01*
X91454678Y-62920000D01*
X91125322Y-62920000D01*
X91104084Y-62704362D01*
X91041184Y-62497012D01*
X90939042Y-62305916D01*
X90801581Y-62138419D01*
X90634084Y-62000958D01*
X90442988Y-61898816D01*
X90235638Y-61835916D01*
X90074036Y-61820000D01*
X89965964Y-61820000D01*
X89804362Y-61835916D01*
X89597012Y-61898816D01*
X89405916Y-62000958D01*
X89238419Y-62138419D01*
X89100958Y-62305916D01*
X88998816Y-62497012D01*
X88935916Y-62704362D01*
X88914678Y-62920000D01*
X88585322Y-62920000D01*
X88564084Y-62704362D01*
X88501184Y-62497012D01*
X88399042Y-62305916D01*
X88261581Y-62138419D01*
X88094084Y-62000958D01*
X87902988Y-61898816D01*
X87695638Y-61835916D01*
X87534036Y-61820000D01*
X87425964Y-61820000D01*
X87264362Y-61835916D01*
X87057012Y-61898816D01*
X86865916Y-62000958D01*
X86698419Y-62138419D01*
X86560958Y-62305916D01*
X86458816Y-62497012D01*
X86395916Y-62704362D01*
X86374678Y-62920000D01*
X86045322Y-62920000D01*
X86024084Y-62704362D01*
X85961184Y-62497012D01*
X85859042Y-62305916D01*
X85721581Y-62138419D01*
X85554084Y-62000958D01*
X85362988Y-61898816D01*
X85155638Y-61835916D01*
X84994036Y-61820000D01*
X84885964Y-61820000D01*
X84724362Y-61835916D01*
X84517012Y-61898816D01*
X84325916Y-62000958D01*
X84158419Y-62138419D01*
X84020958Y-62305916D01*
X83918816Y-62497012D01*
X83855916Y-62704362D01*
X83834678Y-62920000D01*
X83505322Y-62920000D01*
X83484084Y-62704362D01*
X83421184Y-62497012D01*
X83319042Y-62305916D01*
X83181581Y-62138419D01*
X83014084Y-62000958D01*
X82822988Y-61898816D01*
X82615638Y-61835916D01*
X82454036Y-61820000D01*
X82345964Y-61820000D01*
X82184362Y-61835916D01*
X81977012Y-61898816D01*
X81785916Y-62000958D01*
X81618419Y-62138419D01*
X81480958Y-62305916D01*
X81378816Y-62497012D01*
X81315916Y-62704362D01*
X81294678Y-62920000D01*
X80965322Y-62920000D01*
X80944084Y-62704362D01*
X80881184Y-62497012D01*
X80779042Y-62305916D01*
X80641581Y-62138419D01*
X80474084Y-62000958D01*
X80282988Y-61898816D01*
X80075638Y-61835916D01*
X79914036Y-61820000D01*
X79805964Y-61820000D01*
X79644362Y-61835916D01*
X79437012Y-61898816D01*
X79245916Y-62000958D01*
X79078419Y-62138419D01*
X78940958Y-62305916D01*
X78838816Y-62497012D01*
X78775916Y-62704362D01*
X78754678Y-62920000D01*
X78425322Y-62920000D01*
X78404084Y-62704362D01*
X78341184Y-62497012D01*
X78239042Y-62305916D01*
X78101581Y-62138419D01*
X77934084Y-62000958D01*
X77742988Y-61898816D01*
X77535638Y-61835916D01*
X77374036Y-61820000D01*
X77265964Y-61820000D01*
X77104362Y-61835916D01*
X76897012Y-61898816D01*
X76705916Y-62000958D01*
X76538419Y-62138419D01*
X76400958Y-62305916D01*
X76310582Y-62475000D01*
X66776041Y-62475000D01*
X65315283Y-61014243D01*
X65301974Y-60998026D01*
X65237260Y-60944916D01*
X65163427Y-60905452D01*
X65083314Y-60881150D01*
X65020874Y-60875000D01*
X65020867Y-60875000D01*
X65000000Y-60872945D01*
X64979133Y-60875000D01*
X64925000Y-60875000D01*
X64925000Y-56020867D01*
X64927055Y-56000000D01*
X64925000Y-55979133D01*
X64925000Y-55979126D01*
X64918850Y-55916686D01*
X64894548Y-55836573D01*
X64855084Y-55762740D01*
X64801974Y-55698026D01*
X64785758Y-55684718D01*
X64401040Y-55300000D01*
X76214678Y-55300000D01*
X76235916Y-55515638D01*
X76298816Y-55722988D01*
X76400958Y-55914084D01*
X76538419Y-56081581D01*
X76705916Y-56219042D01*
X76897012Y-56321184D01*
X77104362Y-56384084D01*
X77265964Y-56400000D01*
X77374036Y-56400000D01*
X77535638Y-56384084D01*
X77742988Y-56321184D01*
X77934084Y-56219042D01*
X78101581Y-56081581D01*
X78239042Y-55914084D01*
X78341184Y-55722988D01*
X78404084Y-55515638D01*
X78425322Y-55300000D01*
X78754678Y-55300000D01*
X78775916Y-55515638D01*
X78838816Y-55722988D01*
X78940958Y-55914084D01*
X79078419Y-56081581D01*
X79245916Y-56219042D01*
X79437012Y-56321184D01*
X79644362Y-56384084D01*
X79805964Y-56400000D01*
X79914036Y-56400000D01*
X80075638Y-56384084D01*
X80282988Y-56321184D01*
X80474084Y-56219042D01*
X80641581Y-56081581D01*
X80779042Y-55914084D01*
X80881184Y-55722988D01*
X80944084Y-55515638D01*
X80965322Y-55300000D01*
X81294678Y-55300000D01*
X81315916Y-55515638D01*
X81378816Y-55722988D01*
X81480958Y-55914084D01*
X81618419Y-56081581D01*
X81785916Y-56219042D01*
X81977012Y-56321184D01*
X82184362Y-56384084D01*
X82345964Y-56400000D01*
X82454036Y-56400000D01*
X82615638Y-56384084D01*
X82822988Y-56321184D01*
X83014084Y-56219042D01*
X83181581Y-56081581D01*
X83319042Y-55914084D01*
X83421184Y-55722988D01*
X83484084Y-55515638D01*
X83505322Y-55300000D01*
X83834678Y-55300000D01*
X83855916Y-55515638D01*
X83918816Y-55722988D01*
X84020958Y-55914084D01*
X84158419Y-56081581D01*
X84325916Y-56219042D01*
X84517012Y-56321184D01*
X84724362Y-56384084D01*
X84885964Y-56400000D01*
X84994036Y-56400000D01*
X85155638Y-56384084D01*
X85362988Y-56321184D01*
X85554084Y-56219042D01*
X85721581Y-56081581D01*
X85859042Y-55914084D01*
X85961184Y-55722988D01*
X86024084Y-55515638D01*
X86045322Y-55300000D01*
X86374678Y-55300000D01*
X86395916Y-55515638D01*
X86458816Y-55722988D01*
X86560958Y-55914084D01*
X86698419Y-56081581D01*
X86865916Y-56219042D01*
X87057012Y-56321184D01*
X87264362Y-56384084D01*
X87425964Y-56400000D01*
X87534036Y-56400000D01*
X87695638Y-56384084D01*
X87902988Y-56321184D01*
X88094084Y-56219042D01*
X88261581Y-56081581D01*
X88399042Y-55914084D01*
X88501184Y-55722988D01*
X88564084Y-55515638D01*
X88585322Y-55300000D01*
X88914678Y-55300000D01*
X88935916Y-55515638D01*
X88998816Y-55722988D01*
X89100958Y-55914084D01*
X89238419Y-56081581D01*
X89405916Y-56219042D01*
X89597012Y-56321184D01*
X89804362Y-56384084D01*
X89965964Y-56400000D01*
X90074036Y-56400000D01*
X90235638Y-56384084D01*
X90442988Y-56321184D01*
X90634084Y-56219042D01*
X90801581Y-56081581D01*
X90939042Y-55914084D01*
X91041184Y-55722988D01*
X91104084Y-55515638D01*
X91125322Y-55300000D01*
X91454678Y-55300000D01*
X91475916Y-55515638D01*
X91538816Y-55722988D01*
X91640958Y-55914084D01*
X91778419Y-56081581D01*
X91945916Y-56219042D01*
X92137012Y-56321184D01*
X92344362Y-56384084D01*
X92505964Y-56400000D01*
X92614036Y-56400000D01*
X92775638Y-56384084D01*
X92982988Y-56321184D01*
X93174084Y-56219042D01*
X93341581Y-56081581D01*
X93479042Y-55914084D01*
X93581184Y-55722988D01*
X93644084Y-55515638D01*
X93665322Y-55300000D01*
X93644084Y-55084362D01*
X93581184Y-54877012D01*
X93479042Y-54685916D01*
X93341581Y-54518419D01*
X93319138Y-54500000D01*
X93998549Y-54500000D01*
X93998549Y-56100000D01*
X94004341Y-56158810D01*
X94021496Y-56215360D01*
X94049353Y-56267477D01*
X94086842Y-56313158D01*
X94132523Y-56350647D01*
X94184640Y-56378504D01*
X94241190Y-56395659D01*
X94300000Y-56401451D01*
X95900000Y-56401451D01*
X95958810Y-56395659D01*
X96015360Y-56378504D01*
X96067477Y-56350647D01*
X96113158Y-56313158D01*
X96150647Y-56267477D01*
X96178504Y-56215360D01*
X96195659Y-56158810D01*
X96201451Y-56100000D01*
X96201451Y-54500000D01*
X96195659Y-54441190D01*
X96178504Y-54384640D01*
X96150647Y-54332523D01*
X96113158Y-54286842D01*
X96067477Y-54249353D01*
X96015360Y-54221496D01*
X95958810Y-54204341D01*
X95900000Y-54198549D01*
X94300000Y-54198549D01*
X94241190Y-54204341D01*
X94184640Y-54221496D01*
X94132523Y-54249353D01*
X94086842Y-54286842D01*
X94049353Y-54332523D01*
X94021496Y-54384640D01*
X94004341Y-54441190D01*
X93998549Y-54500000D01*
X93319138Y-54500000D01*
X93174084Y-54380958D01*
X92982988Y-54278816D01*
X92775638Y-54215916D01*
X92614036Y-54200000D01*
X92505964Y-54200000D01*
X92344362Y-54215916D01*
X92137012Y-54278816D01*
X91945916Y-54380958D01*
X91778419Y-54518419D01*
X91640958Y-54685916D01*
X91538816Y-54877012D01*
X91475916Y-55084362D01*
X91454678Y-55300000D01*
X91125322Y-55300000D01*
X91104084Y-55084362D01*
X91041184Y-54877012D01*
X90939042Y-54685916D01*
X90801581Y-54518419D01*
X90634084Y-54380958D01*
X90442988Y-54278816D01*
X90235638Y-54215916D01*
X90074036Y-54200000D01*
X89965964Y-54200000D01*
X89804362Y-54215916D01*
X89597012Y-54278816D01*
X89405916Y-54380958D01*
X89238419Y-54518419D01*
X89100958Y-54685916D01*
X88998816Y-54877012D01*
X88935916Y-55084362D01*
X88914678Y-55300000D01*
X88585322Y-55300000D01*
X88564084Y-55084362D01*
X88501184Y-54877012D01*
X88399042Y-54685916D01*
X88261581Y-54518419D01*
X88094084Y-54380958D01*
X87902988Y-54278816D01*
X87695638Y-54215916D01*
X87534036Y-54200000D01*
X87425964Y-54200000D01*
X87264362Y-54215916D01*
X87057012Y-54278816D01*
X86865916Y-54380958D01*
X86698419Y-54518419D01*
X86560958Y-54685916D01*
X86458816Y-54877012D01*
X86395916Y-55084362D01*
X86374678Y-55300000D01*
X86045322Y-55300000D01*
X86024084Y-55084362D01*
X85961184Y-54877012D01*
X85859042Y-54685916D01*
X85721581Y-54518419D01*
X85554084Y-54380958D01*
X85362988Y-54278816D01*
X85155638Y-54215916D01*
X84994036Y-54200000D01*
X84885964Y-54200000D01*
X84724362Y-54215916D01*
X84517012Y-54278816D01*
X84325916Y-54380958D01*
X84158419Y-54518419D01*
X84020958Y-54685916D01*
X83918816Y-54877012D01*
X83855916Y-55084362D01*
X83834678Y-55300000D01*
X83505322Y-55300000D01*
X83484084Y-55084362D01*
X83421184Y-54877012D01*
X83319042Y-54685916D01*
X83181581Y-54518419D01*
X83014084Y-54380958D01*
X82822988Y-54278816D01*
X82615638Y-54215916D01*
X82454036Y-54200000D01*
X82345964Y-54200000D01*
X82184362Y-54215916D01*
X81977012Y-54278816D01*
X81785916Y-54380958D01*
X81618419Y-54518419D01*
X81480958Y-54685916D01*
X81378816Y-54877012D01*
X81315916Y-55084362D01*
X81294678Y-55300000D01*
X80965322Y-55300000D01*
X80944084Y-55084362D01*
X80881184Y-54877012D01*
X80779042Y-54685916D01*
X80641581Y-54518419D01*
X80474084Y-54380958D01*
X80282988Y-54278816D01*
X80075638Y-54215916D01*
X79914036Y-54200000D01*
X79805964Y-54200000D01*
X79644362Y-54215916D01*
X79437012Y-54278816D01*
X79245916Y-54380958D01*
X79078419Y-54518419D01*
X78940958Y-54685916D01*
X78838816Y-54877012D01*
X78775916Y-55084362D01*
X78754678Y-55300000D01*
X78425322Y-55300000D01*
X78404084Y-55084362D01*
X78341184Y-54877012D01*
X78239042Y-54685916D01*
X78101581Y-54518419D01*
X77934084Y-54380958D01*
X77742988Y-54278816D01*
X77535638Y-54215916D01*
X77374036Y-54200000D01*
X77265964Y-54200000D01*
X77104362Y-54215916D01*
X76897012Y-54278816D01*
X76705916Y-54380958D01*
X76538419Y-54518419D01*
X76400958Y-54685916D01*
X76298816Y-54877012D01*
X76235916Y-55084362D01*
X76214678Y-55300000D01*
X64401040Y-55300000D01*
X63515284Y-54414244D01*
X63501974Y-54398026D01*
X63437260Y-54344916D01*
X63399999Y-54325000D01*
X68679133Y-54325000D01*
X68700000Y-54327055D01*
X68720867Y-54325000D01*
X68720874Y-54325000D01*
X68783314Y-54318850D01*
X68863427Y-54294548D01*
X68937260Y-54255084D01*
X69001974Y-54201974D01*
X69015283Y-54185757D01*
X70855506Y-52345534D01*
X70913726Y-52369650D01*
X71116584Y-52410000D01*
X71323416Y-52410000D01*
X71526274Y-52369650D01*
X71717362Y-52290498D01*
X71889336Y-52175589D01*
X72035589Y-52029336D01*
X72150498Y-51857362D01*
X72229650Y-51666274D01*
X72270000Y-51463416D01*
X72270000Y-51256584D01*
X72229650Y-51053726D01*
X72150498Y-50862638D01*
X72035589Y-50690664D01*
X71889336Y-50544411D01*
X71717362Y-50429502D01*
X71526274Y-50350350D01*
X71323416Y-50310000D01*
X71116584Y-50310000D01*
X70913726Y-50350350D01*
X70722638Y-50429502D01*
X70550664Y-50544411D01*
X70404411Y-50690664D01*
X70289502Y-50862638D01*
X70210350Y-51053726D01*
X70170000Y-51256584D01*
X70170000Y-51463416D01*
X70210350Y-51666274D01*
X70246181Y-51752778D01*
X68523960Y-53475000D01*
X67226040Y-53475000D01*
X68343790Y-52357250D01*
X68373726Y-52369650D01*
X68576584Y-52410000D01*
X68783416Y-52410000D01*
X68986274Y-52369650D01*
X69177362Y-52290498D01*
X69349336Y-52175589D01*
X69495589Y-52029336D01*
X69610498Y-51857362D01*
X69689650Y-51666274D01*
X69730000Y-51463416D01*
X69730000Y-51256584D01*
X69689650Y-51053726D01*
X69610498Y-50862638D01*
X69495589Y-50690664D01*
X69349336Y-50544411D01*
X69177362Y-50429502D01*
X68986274Y-50350350D01*
X68783416Y-50310000D01*
X68576584Y-50310000D01*
X68373726Y-50350350D01*
X68182638Y-50429502D01*
X68010664Y-50544411D01*
X67864411Y-50690664D01*
X67749502Y-50862638D01*
X67670350Y-51053726D01*
X67630000Y-51256584D01*
X67630000Y-51463416D01*
X67670350Y-51666274D01*
X67717897Y-51781063D01*
X66673949Y-52825011D01*
X65276029Y-52825011D01*
X65705281Y-52395760D01*
X65705285Y-52395755D01*
X65761364Y-52339676D01*
X65833726Y-52369650D01*
X66036584Y-52410000D01*
X66243416Y-52410000D01*
X66446274Y-52369650D01*
X66637362Y-52290498D01*
X66809336Y-52175589D01*
X66955589Y-52029336D01*
X67070498Y-51857362D01*
X67149650Y-51666274D01*
X67190000Y-51463416D01*
X67190000Y-51256584D01*
X67149650Y-51053726D01*
X67070498Y-50862638D01*
X66955589Y-50690664D01*
X66809336Y-50544411D01*
X66637362Y-50429502D01*
X66446274Y-50350350D01*
X66243416Y-50310000D01*
X66036584Y-50310000D01*
X65833726Y-50350350D01*
X65642638Y-50429502D01*
X65470664Y-50544411D01*
X65324411Y-50690664D01*
X65209502Y-50862638D01*
X65130350Y-51053726D01*
X65090000Y-51256584D01*
X65090000Y-51463416D01*
X65130350Y-51666274D01*
X65160324Y-51738636D01*
X65104245Y-51794715D01*
X65104240Y-51794719D01*
X64523960Y-52375000D01*
X63879377Y-52375000D01*
X63906274Y-52369650D01*
X64097362Y-52290498D01*
X64269336Y-52175589D01*
X64415589Y-52029336D01*
X64530498Y-51857362D01*
X64609650Y-51666274D01*
X64650000Y-51463416D01*
X64650000Y-51256584D01*
X64609650Y-51053726D01*
X64530498Y-50862638D01*
X64415589Y-50690664D01*
X64269336Y-50544411D01*
X64097362Y-50429502D01*
X63906274Y-50350350D01*
X63703416Y-50310000D01*
X63496584Y-50310000D01*
X63293726Y-50350350D01*
X63102638Y-50429502D01*
X62930664Y-50544411D01*
X62784411Y-50690664D01*
X62669502Y-50862638D01*
X62590350Y-51053726D01*
X62550000Y-51256584D01*
X62550000Y-51463416D01*
X62590350Y-51666274D01*
X62669502Y-51857362D01*
X62784411Y-52029336D01*
X62930664Y-52175589D01*
X63102638Y-52290498D01*
X63293726Y-52369650D01*
X63320623Y-52375000D01*
X61339377Y-52375000D01*
X61366274Y-52369650D01*
X61557362Y-52290498D01*
X61729336Y-52175589D01*
X61875589Y-52029336D01*
X61990498Y-51857362D01*
X62069650Y-51666274D01*
X62110000Y-51463416D01*
X62110000Y-51256584D01*
X62069650Y-51053726D01*
X61990498Y-50862638D01*
X61875589Y-50690664D01*
X61729336Y-50544411D01*
X61557362Y-50429502D01*
X61366274Y-50350350D01*
X61163416Y-50310000D01*
X60956584Y-50310000D01*
X60753726Y-50350350D01*
X60562638Y-50429502D01*
X60390664Y-50544411D01*
X60244411Y-50690664D01*
X60129502Y-50862638D01*
X60050350Y-51053726D01*
X60010000Y-51256584D01*
X60010000Y-51463416D01*
X60050350Y-51666274D01*
X60129502Y-51857362D01*
X60244411Y-52029336D01*
X60390664Y-52175589D01*
X60562638Y-52290498D01*
X60753726Y-52369650D01*
X60780623Y-52375000D01*
X58799377Y-52375000D01*
X58826274Y-52369650D01*
X59017362Y-52290498D01*
X59189336Y-52175589D01*
X59335589Y-52029336D01*
X59450498Y-51857362D01*
X59529650Y-51666274D01*
X59570000Y-51463416D01*
X59570000Y-51256584D01*
X59529650Y-51053726D01*
X59450498Y-50862638D01*
X59335589Y-50690664D01*
X59189336Y-50544411D01*
X59017362Y-50429502D01*
X58826274Y-50350350D01*
X58623416Y-50310000D01*
X58416584Y-50310000D01*
X58213726Y-50350350D01*
X58022638Y-50429502D01*
X57850664Y-50544411D01*
X57704411Y-50690664D01*
X57619024Y-50818455D01*
X57618850Y-50816686D01*
X57594548Y-50736573D01*
X57555084Y-50662740D01*
X57501974Y-50598026D01*
X57485762Y-50584721D01*
X56615283Y-49714243D01*
X56601974Y-49698026D01*
X56537260Y-49644916D01*
X56463427Y-49605452D01*
X56383314Y-49581150D01*
X56320874Y-49575000D01*
X56320867Y-49575000D01*
X56300000Y-49572945D01*
X56279133Y-49575000D01*
X52320866Y-49575000D01*
X52299999Y-49572945D01*
X52279132Y-49575000D01*
X52279126Y-49575000D01*
X52225098Y-49580321D01*
X52216685Y-49581150D01*
X52192383Y-49588522D01*
X52136573Y-49605452D01*
X52062740Y-49644916D01*
X51998026Y-49698026D01*
X51984721Y-49714238D01*
X51306920Y-50392039D01*
X51206274Y-50350350D01*
X51003416Y-50310000D01*
X50796584Y-50310000D01*
X50593726Y-50350350D01*
X50402638Y-50429502D01*
X50230664Y-50544411D01*
X50084411Y-50690664D01*
X49969502Y-50862638D01*
X49890350Y-51053726D01*
X49850000Y-51256584D01*
X49850000Y-51463416D01*
X49890350Y-51666274D01*
X49969502Y-51857362D01*
X50084411Y-52029336D01*
X50230664Y-52175589D01*
X50402638Y-52290498D01*
X50593726Y-52369650D01*
X50796584Y-52410000D01*
X51003416Y-52410000D01*
X51206274Y-52369650D01*
X51397362Y-52290498D01*
X51569336Y-52175589D01*
X51715589Y-52029336D01*
X51830498Y-51857362D01*
X51909650Y-51666274D01*
X51950000Y-51463416D01*
X51950000Y-51256584D01*
X51909650Y-51053726D01*
X51891392Y-51009648D01*
X52476041Y-50425000D01*
X52953507Y-50425000D01*
X52942638Y-50429502D01*
X52770664Y-50544411D01*
X52624411Y-50690664D01*
X52509502Y-50862638D01*
X52430350Y-51053726D01*
X52390000Y-51256584D01*
X52390000Y-51463416D01*
X52430350Y-51666274D01*
X52509502Y-51857362D01*
X52624411Y-52029336D01*
X52770664Y-52175589D01*
X52942638Y-52290498D01*
X53133726Y-52369650D01*
X53336584Y-52410000D01*
X53543416Y-52410000D01*
X53746274Y-52369650D01*
X53937362Y-52290498D01*
X54109336Y-52175589D01*
X54255589Y-52029336D01*
X54370498Y-51857362D01*
X54449650Y-51666274D01*
X54490000Y-51463416D01*
X54490000Y-51256584D01*
X54449650Y-51053726D01*
X54370498Y-50862638D01*
X54255589Y-50690664D01*
X54109336Y-50544411D01*
X53937362Y-50429502D01*
X53926493Y-50425000D01*
X55493507Y-50425000D01*
X55482638Y-50429502D01*
X55310664Y-50544411D01*
X55164411Y-50690664D01*
X55049502Y-50862638D01*
X54970350Y-51053726D01*
X54930000Y-51256584D01*
X54930000Y-51463416D01*
X54970350Y-51666274D01*
X55049502Y-51857362D01*
X55164411Y-52029336D01*
X55310664Y-52175589D01*
X55482638Y-52290498D01*
X55673726Y-52369650D01*
X55876584Y-52410000D01*
X56083416Y-52410000D01*
X56286274Y-52369650D01*
X56358636Y-52339676D01*
X57554732Y-53535773D01*
X57568037Y-53551985D01*
X57632751Y-53605095D01*
X57706584Y-53644559D01*
X57762394Y-53661489D01*
X57786696Y-53668861D01*
X57795109Y-53669690D01*
X57849137Y-53675011D01*
X57849143Y-53675011D01*
X57870010Y-53677066D01*
X57890877Y-53675011D01*
X58397878Y-53675011D01*
X58371136Y-53739571D01*
X58350000Y-53845830D01*
X58350000Y-53954170D01*
X58371136Y-54060429D01*
X58412597Y-54160523D01*
X58472787Y-54250604D01*
X58549396Y-54327213D01*
X58639477Y-54387403D01*
X58739571Y-54428864D01*
X58845830Y-54450000D01*
X58954170Y-54450000D01*
X59060429Y-54428864D01*
X59160523Y-54387403D01*
X59250604Y-54327213D01*
X59252817Y-54325000D01*
X61897183Y-54325000D01*
X61872787Y-54349396D01*
X61812597Y-54439477D01*
X61771136Y-54539571D01*
X61750000Y-54645830D01*
X61750000Y-54754170D01*
X61771136Y-54860429D01*
X61812597Y-54960523D01*
X61872787Y-55050604D01*
X61949396Y-55127213D01*
X62039477Y-55187403D01*
X62139571Y-55228864D01*
X62245830Y-55250000D01*
X62354170Y-55250000D01*
X62460429Y-55228864D01*
X62560523Y-55187403D01*
X62650604Y-55127213D01*
X62652817Y-55125000D01*
X63023960Y-55125000D01*
X64075000Y-56176040D01*
X64075001Y-56579126D01*
X64075000Y-60875000D01*
X61720866Y-60875000D01*
X61699999Y-60872945D01*
X61679132Y-60875000D01*
X61679126Y-60875000D01*
X61625098Y-60880321D01*
X61616685Y-60881150D01*
X61592383Y-60888522D01*
X61536573Y-60905452D01*
X61462740Y-60944916D01*
X61398026Y-60998026D01*
X61384721Y-61014238D01*
X59823960Y-62575000D01*
X55469864Y-62575000D01*
X55448997Y-62572945D01*
X55428130Y-62575000D01*
X55428124Y-62575000D01*
X55374690Y-62580263D01*
X55365683Y-62581150D01*
X55358550Y-62583314D01*
X55285571Y-62605452D01*
X55211738Y-62644916D01*
X55147024Y-62698026D01*
X55133719Y-62714238D01*
X54473459Y-63374499D01*
X54470329Y-63374499D01*
X54364070Y-63395635D01*
X54263976Y-63437096D01*
X54173895Y-63497286D01*
X54097286Y-63573895D01*
X54037096Y-63663976D01*
X53995635Y-63764070D01*
X53974499Y-63870329D01*
X53974499Y-63873458D01*
X51951451Y-65896507D01*
X51951451Y-65850000D01*
X51945659Y-65791190D01*
X51928504Y-65734640D01*
X51900647Y-65682523D01*
X51863158Y-65636842D01*
X51817477Y-65599353D01*
X51765360Y-65571496D01*
X51708810Y-65554341D01*
X51650000Y-65548549D01*
X50150000Y-65548549D01*
X50091190Y-65554341D01*
X50034640Y-65571496D01*
X49982523Y-65599353D01*
X49936842Y-65636842D01*
X49899353Y-65682523D01*
X49871496Y-65734640D01*
X49854341Y-65791190D01*
X49848549Y-65850000D01*
X49848549Y-67077663D01*
X49800101Y-66960699D01*
X49572689Y-66620353D01*
X49283249Y-66330913D01*
X48942903Y-66103501D01*
X48564731Y-65946857D01*
X48163266Y-65867001D01*
X47753936Y-65867001D01*
X47352471Y-65946857D01*
X46974299Y-66103501D01*
X46633953Y-66330913D01*
X46344513Y-66620353D01*
X46150001Y-66911461D01*
X46150001Y-60426131D01*
X46820000Y-60426131D01*
X46820000Y-60573869D01*
X46848822Y-60718767D01*
X46905359Y-60855258D01*
X46987437Y-60978097D01*
X47091903Y-61082563D01*
X47214742Y-61164641D01*
X47351233Y-61221178D01*
X47496131Y-61250000D01*
X47643869Y-61250000D01*
X47788767Y-61221178D01*
X47925258Y-61164641D01*
X48048097Y-61082563D01*
X48152563Y-60978097D01*
X48234641Y-60855258D01*
X48291178Y-60718767D01*
X48320000Y-60573869D01*
X48320000Y-60426131D01*
X48291178Y-60281233D01*
X48234641Y-60144742D01*
X48152563Y-60021903D01*
X48048097Y-59917437D01*
X47925258Y-59835359D01*
X47788767Y-59778822D01*
X47643869Y-59750000D01*
X47496131Y-59750000D01*
X47351233Y-59778822D01*
X47214742Y-59835359D01*
X47091903Y-59917437D01*
X46987437Y-60021903D01*
X46905359Y-60144742D01*
X46848822Y-60281233D01*
X46820000Y-60426131D01*
X46150001Y-60426131D01*
X46150001Y-57426131D01*
X46820000Y-57426131D01*
X46820000Y-57573869D01*
X46848822Y-57718767D01*
X46905359Y-57855258D01*
X46987437Y-57978097D01*
X47091903Y-58082563D01*
X47214742Y-58164641D01*
X47351233Y-58221178D01*
X47496131Y-58250000D01*
X47643869Y-58250000D01*
X47788767Y-58221178D01*
X47925258Y-58164641D01*
X48048097Y-58082563D01*
X48152563Y-57978097D01*
X48234641Y-57855258D01*
X48291178Y-57718767D01*
X48320000Y-57573869D01*
X48320000Y-57426131D01*
X48291178Y-57281233D01*
X48234641Y-57144742D01*
X48152563Y-57021903D01*
X48048097Y-56917437D01*
X47925258Y-56835359D01*
X47788767Y-56778822D01*
X47643869Y-56750000D01*
X47496131Y-56750000D01*
X47351233Y-56778822D01*
X47214742Y-56835359D01*
X47091903Y-56917437D01*
X46987437Y-57021903D01*
X46905359Y-57144742D01*
X46848822Y-57281233D01*
X46820000Y-57426131D01*
X46150001Y-57426131D01*
X46150001Y-51198541D01*
X46344513Y-51489649D01*
X46633953Y-51779089D01*
X46974299Y-52006501D01*
X47352471Y-52163145D01*
X47753936Y-52243001D01*
X48163266Y-52243001D01*
X48564731Y-52163145D01*
X48942903Y-52006501D01*
X49283249Y-51779089D01*
X49572689Y-51489649D01*
X49800101Y-51149303D01*
X49956745Y-50771131D01*
X50036601Y-50369666D01*
X50036601Y-49960336D01*
X49956745Y-49558871D01*
X49800101Y-49180699D01*
X49572689Y-48840353D01*
X49283249Y-48550913D01*
X48942903Y-48323501D01*
X48564731Y-48166857D01*
X48163266Y-48087001D01*
X47753936Y-48087001D01*
X47473445Y-48142794D01*
X47507261Y-48124510D01*
X47919924Y-47996769D01*
X48364872Y-47950003D01*
X48365565Y-47950001D01*
X61272949Y-47950001D01*
X61195519Y-48001738D01*
X61195519Y-48001738D01*
G37*
X61195519Y-48001738D02*
X61035338Y-48161919D01*
X60909485Y-48350272D01*
X60822795Y-48559558D01*
X60778601Y-48781736D01*
X60778601Y-49008266D01*
X60822795Y-49230444D01*
X60909485Y-49439730D01*
X61035338Y-49628083D01*
X61195519Y-49788264D01*
X61383872Y-49914117D01*
X61593158Y-50000807D01*
X61815336Y-50045001D01*
X62041866Y-50045001D01*
X62264044Y-50000807D01*
X62473330Y-49914117D01*
X62661683Y-49788264D01*
X62821864Y-49628083D01*
X62947717Y-49439730D01*
X63034407Y-49230444D01*
X63078601Y-49008266D01*
X63078601Y-48781736D01*
X63034407Y-48559558D01*
X62947717Y-48350272D01*
X62821864Y-48161919D01*
X62661683Y-48001738D01*
X62584253Y-47950001D01*
X63812949Y-47950001D01*
X63735519Y-48001738D01*
X63575338Y-48161919D01*
X63449485Y-48350272D01*
X63362795Y-48559558D01*
X63318601Y-48781736D01*
X63318601Y-49008266D01*
X63362795Y-49230444D01*
X63449485Y-49439730D01*
X63575338Y-49628083D01*
X63735519Y-49788264D01*
X63923872Y-49914117D01*
X64133158Y-50000807D01*
X64355336Y-50045001D01*
X64581866Y-50045001D01*
X64804044Y-50000807D01*
X65013330Y-49914117D01*
X65201683Y-49788264D01*
X65361864Y-49628083D01*
X65487717Y-49439730D01*
X65574407Y-49230444D01*
X65618601Y-49008266D01*
X65618601Y-48781736D01*
X65574407Y-48559558D01*
X65487717Y-48350272D01*
X65361864Y-48161919D01*
X65201683Y-48001738D01*
X65124253Y-47950001D01*
X66352949Y-47950001D01*
X66275519Y-48001738D01*
X66115338Y-48161919D01*
X65989485Y-48350272D01*
X65902795Y-48559558D01*
X65858601Y-48781736D01*
X65858601Y-49008266D01*
X65902795Y-49230444D01*
X65989485Y-49439730D01*
X66115338Y-49628083D01*
X66275519Y-49788264D01*
X66463872Y-49914117D01*
X66673158Y-50000807D01*
X66895336Y-50045001D01*
X67121866Y-50045001D01*
X67344044Y-50000807D01*
X67553330Y-49914117D01*
X67741683Y-49788264D01*
X67901864Y-49628083D01*
X68027717Y-49439730D01*
X68114407Y-49230444D01*
X68158601Y-49008266D01*
X68158601Y-48781736D01*
X68114407Y-48559558D01*
X68027717Y-48350272D01*
X67901864Y-48161919D01*
X67741683Y-48001738D01*
X67664253Y-47950001D01*
X68892949Y-47950001D01*
X68815519Y-48001738D01*
X68655338Y-48161919D01*
X68529485Y-48350272D01*
X68442795Y-48559558D01*
X68398601Y-48781736D01*
X68398601Y-49008266D01*
X68442795Y-49230444D01*
X68529485Y-49439730D01*
X68655338Y-49628083D01*
X68815519Y-49788264D01*
X69003872Y-49914117D01*
X69213158Y-50000807D01*
X69435336Y-50045001D01*
X69661866Y-50045001D01*
X69884044Y-50000807D01*
X70093330Y-49914117D01*
X70281683Y-49788264D01*
X70441864Y-49628083D01*
X70567717Y-49439730D01*
X70654407Y-49230444D01*
X70698601Y-49008266D01*
X70698601Y-48781736D01*
X70654407Y-48559558D01*
X70567717Y-48350272D01*
X70441864Y-48161919D01*
X70281683Y-48001738D01*
X70204253Y-47950001D01*
X71432949Y-47950001D01*
X71355519Y-48001738D01*
X71195338Y-48161919D01*
X71069485Y-48350272D01*
X70982795Y-48559558D01*
X70938601Y-48781736D01*
X70938601Y-49008266D01*
X70982795Y-49230444D01*
X71069485Y-49439730D01*
X71195338Y-49628083D01*
X71355519Y-49788264D01*
X71543872Y-49914117D01*
X71753158Y-50000807D01*
X71975336Y-50045001D01*
X72201866Y-50045001D01*
X72424044Y-50000807D01*
X72633330Y-49914117D01*
X72821683Y-49788264D01*
X72981864Y-49628083D01*
X73107717Y-49439730D01*
X73194407Y-49230444D01*
X73238601Y-49008266D01*
X73238601Y-48781736D01*
X73194407Y-48559558D01*
X73107717Y-48350272D01*
X72981864Y-48161919D01*
X72821683Y-48001738D01*
X72744253Y-47950001D01*
X73972949Y-47950001D01*
X73895519Y-48001738D01*
X73735338Y-48161919D01*
X73609485Y-48350272D01*
X73522795Y-48559558D01*
X73478601Y-48781736D01*
X73478601Y-49008266D01*
X73522795Y-49230444D01*
X73609485Y-49439730D01*
X73735338Y-49628083D01*
X73895519Y-49788264D01*
X74083872Y-49914117D01*
X74293158Y-50000807D01*
X74515336Y-50045001D01*
X74741866Y-50045001D01*
X74964044Y-50000807D01*
X75173330Y-49914117D01*
X75361683Y-49788264D01*
X75521864Y-49628083D01*
X75647717Y-49439730D01*
X75734407Y-49230444D01*
X75778601Y-49008266D01*
X75778601Y-48781736D01*
X75734407Y-48559558D01*
X75647717Y-48350272D01*
X75521864Y-48161919D01*
X75361683Y-48001738D01*
X75284253Y-47950001D01*
X76512949Y-47950001D01*
X76435519Y-48001738D01*
X76275338Y-48161919D01*
X76149485Y-48350272D01*
X76062795Y-48559558D01*
X76018601Y-48781736D01*
X76018601Y-49008266D01*
X76062795Y-49230444D01*
X76149485Y-49439730D01*
X76275338Y-49628083D01*
X76435519Y-49788264D01*
X76623872Y-49914117D01*
X76833158Y-50000807D01*
X77055336Y-50045001D01*
X77281866Y-50045001D01*
X77504044Y-50000807D01*
X77713330Y-49914117D01*
X77901683Y-49788264D01*
X78061864Y-49628083D01*
X78187717Y-49439730D01*
X78274407Y-49230444D01*
X78318601Y-49008266D01*
X78318601Y-48781736D01*
X78274407Y-48559558D01*
X78187717Y-48350272D01*
X78061864Y-48161919D01*
X77901683Y-48001738D01*
X77824253Y-47950001D01*
X79052949Y-47950001D01*
X78975519Y-48001738D01*
X78815338Y-48161919D01*
X78689485Y-48350272D01*
X78602795Y-48559558D01*
X78558601Y-48781736D01*
X78558601Y-49008266D01*
X78602795Y-49230444D01*
X78689485Y-49439730D01*
X78815338Y-49628083D01*
X78975519Y-49788264D01*
X79163872Y-49914117D01*
X79373158Y-50000807D01*
X79595336Y-50045001D01*
X79821866Y-50045001D01*
X80044044Y-50000807D01*
X80253330Y-49914117D01*
X80441683Y-49788264D01*
X80601864Y-49628083D01*
X80727717Y-49439730D01*
X80814407Y-49230444D01*
X80858601Y-49008266D01*
X80858601Y-48781736D01*
X80814407Y-48559558D01*
X80727717Y-48350272D01*
X80601864Y-48161919D01*
X80441683Y-48001738D01*
X80364253Y-47950001D01*
X81592949Y-47950001D01*
X81515519Y-48001738D01*
X81355338Y-48161919D01*
X81229485Y-48350272D01*
X81142795Y-48559558D01*
X81098601Y-48781736D01*
X81098601Y-49008266D01*
X81142795Y-49230444D01*
X81229485Y-49439730D01*
X81355338Y-49628083D01*
X81515519Y-49788264D01*
X81703872Y-49914117D01*
X81913158Y-50000807D01*
X82135336Y-50045001D01*
X82361866Y-50045001D01*
X82584044Y-50000807D01*
X82793330Y-49914117D01*
X82981683Y-49788264D01*
X83141864Y-49628083D01*
X83267717Y-49439730D01*
X83354407Y-49230444D01*
X83398601Y-49008266D01*
X83398601Y-48781736D01*
X83354407Y-48559558D01*
X83267717Y-48350272D01*
X83141864Y-48161919D01*
X82981683Y-48001738D01*
X82904253Y-47950001D01*
X84132949Y-47950001D01*
X84055519Y-48001738D01*
X83895338Y-48161919D01*
X83769485Y-48350272D01*
X83682795Y-48559558D01*
X83638601Y-48781736D01*
X83638601Y-49008266D01*
X83682795Y-49230444D01*
X83769485Y-49439730D01*
X83895338Y-49628083D01*
X84055519Y-49788264D01*
X84243872Y-49914117D01*
X84453158Y-50000807D01*
X84675336Y-50045001D01*
X84901866Y-50045001D01*
X85124044Y-50000807D01*
X85333330Y-49914117D01*
X85521683Y-49788264D01*
X85681864Y-49628083D01*
X85807717Y-49439730D01*
X85894407Y-49230444D01*
X85938601Y-49008266D01*
X85938601Y-48781736D01*
X85894407Y-48559558D01*
X85807717Y-48350272D01*
X85681864Y-48161919D01*
X85521683Y-48001738D01*
X85444253Y-47950001D01*
X86672949Y-47950001D01*
X86595519Y-48001738D01*
X86435338Y-48161919D01*
X86309485Y-48350272D01*
X86222795Y-48559558D01*
X86178601Y-48781736D01*
X86178601Y-49008266D01*
X86222795Y-49230444D01*
X86309485Y-49439730D01*
X86435338Y-49628083D01*
X86595519Y-49788264D01*
X86783872Y-49914117D01*
X86993158Y-50000807D01*
X87215336Y-50045001D01*
X87441866Y-50045001D01*
X87664044Y-50000807D01*
X87873330Y-49914117D01*
X88061683Y-49788264D01*
X88221864Y-49628083D01*
X88347717Y-49439730D01*
X88434407Y-49230444D01*
X88478601Y-49008266D01*
X88478601Y-48781736D01*
X88434407Y-48559558D01*
X88347717Y-48350272D01*
X88221864Y-48161919D01*
X88061683Y-48001738D01*
X87984253Y-47950001D01*
X89212949Y-47950001D01*
X89135519Y-48001738D01*
X88975338Y-48161919D01*
X88849485Y-48350272D01*
X88762795Y-48559558D01*
X88718601Y-48781736D01*
X88718601Y-49008266D01*
X88762795Y-49230444D01*
X88849485Y-49439730D01*
X88975338Y-49628083D01*
X89135519Y-49788264D01*
X89323872Y-49914117D01*
X89533158Y-50000807D01*
X89755336Y-50045001D01*
X89981866Y-50045001D01*
X90204044Y-50000807D01*
X90301748Y-49960336D01*
X91600601Y-49960336D01*
X91600601Y-50369666D01*
X91680457Y-50771131D01*
X91837101Y-51149303D01*
X92064513Y-51489649D01*
X92353953Y-51779089D01*
X92694299Y-52006501D01*
X93072471Y-52163145D01*
X93473936Y-52243001D01*
X93883266Y-52243001D01*
X94284731Y-52163145D01*
X94662903Y-52006501D01*
X95003249Y-51779089D01*
X95292689Y-51489649D01*
X95520101Y-51149303D01*
X95676745Y-50771131D01*
X95756601Y-50369666D01*
X95756601Y-49960336D01*
X95676745Y-49558871D01*
X95520101Y-49180699D01*
X95292689Y-48840353D01*
X95003249Y-48550913D01*
X94662903Y-48323501D01*
X94284731Y-48166857D01*
X93883266Y-48087001D01*
X93473936Y-48087001D01*
X93072471Y-48166857D01*
X92694299Y-48323501D01*
X92353953Y-48550913D01*
X92064513Y-48840353D01*
X91837101Y-49180699D01*
X91680457Y-49558871D01*
X91600601Y-49960336D01*
X90301748Y-49960336D01*
X90413330Y-49914117D01*
X90601683Y-49788264D01*
X90761864Y-49628083D01*
X90887717Y-49439730D01*
X90974407Y-49230444D01*
X91018601Y-49008266D01*
X91018601Y-48781736D01*
X90974407Y-48559558D01*
X90887717Y-48350272D01*
X90761864Y-48161919D01*
X90601683Y-48001738D01*
X90524253Y-47950001D01*
X95256304Y-47950001D01*
X95702127Y-47993714D01*
X96115679Y-48118573D01*
X96497101Y-48321379D01*
X96831868Y-48594407D01*
X97107225Y-48927257D01*
X97312692Y-49307261D01*
X97440433Y-49719924D01*
X97487199Y-50164872D01*
X97487202Y-50165726D01*
X97486734Y-67974728D01*
X97434835Y-68416529D01*
X97302059Y-68827611D01*
X97091969Y-69205068D01*
X96812562Y-69534532D01*
X96474485Y-69803451D01*
X96090610Y-70001583D01*
X95674608Y-70121656D01*
X95257297Y-70160001D01*
X90994817Y-70160001D01*
X91013105Y-70141713D01*
X90899560Y-70028168D01*
X91137808Y-69946780D01*
X91256184Y-69685110D01*
X91321235Y-69405373D01*
X91330463Y-69118320D01*
X91283512Y-68834983D01*
X91182188Y-68566249D01*
X91137808Y-68483222D01*
X90899558Y-68401833D01*
X90086390Y-69215001D01*
X90100532Y-69229143D01*
X89882743Y-69446932D01*
X89868601Y-69432790D01*
X89854459Y-69446932D01*
X89636670Y-69229143D01*
X89650812Y-69215001D01*
X88837644Y-68401833D01*
X88599394Y-68483222D01*
X88481018Y-68744892D01*
X88441459Y-68915008D01*
X88434407Y-68879558D01*
X88347717Y-68670272D01*
X88221864Y-68481919D01*
X88061683Y-68321738D01*
X87873330Y-68195885D01*
X87844744Y-68184044D01*
X89055433Y-68184044D01*
X89868601Y-68997212D01*
X90681769Y-68184044D01*
X90600380Y-67945794D01*
X90338710Y-67827418D01*
X90058973Y-67762367D01*
X89771920Y-67753139D01*
X89488583Y-67800090D01*
X89219849Y-67901414D01*
X89136822Y-67945794D01*
X89055433Y-68184044D01*
X87844744Y-68184044D01*
X87664044Y-68109195D01*
X87441866Y-68065001D01*
X87215336Y-68065001D01*
X86993158Y-68109195D01*
X86783872Y-68195885D01*
X86595519Y-68321738D01*
X86435338Y-68481919D01*
X86309485Y-68670272D01*
X86222795Y-68879558D01*
X86178601Y-69101736D01*
X86178601Y-69328266D01*
X86222795Y-69550444D01*
X86309485Y-69759730D01*
X86435338Y-69948083D01*
X86595519Y-70108264D01*
X86672949Y-70160001D01*
X85444253Y-70160001D01*
X85521683Y-70108264D01*
X85681864Y-69948083D01*
X85807717Y-69759730D01*
X85894407Y-69550444D01*
X85938601Y-69328266D01*
X85938601Y-69101736D01*
X85894407Y-68879558D01*
X85807717Y-68670272D01*
X85681864Y-68481919D01*
X85521683Y-68321738D01*
X85333330Y-68195885D01*
X85124044Y-68109195D01*
X84901866Y-68065001D01*
X84675336Y-68065001D01*
X84453158Y-68109195D01*
X84243872Y-68195885D01*
X84055519Y-68321738D01*
X83895338Y-68481919D01*
X83769485Y-68670272D01*
X83682795Y-68879558D01*
X83638601Y-69101736D01*
X83638601Y-69328266D01*
X83682795Y-69550444D01*
X83769485Y-69759730D01*
X83895338Y-69948083D01*
X84055519Y-70108264D01*
X84132949Y-70160001D01*
X82904253Y-70160001D01*
X82981683Y-70108264D01*
X83141864Y-69948083D01*
X83267717Y-69759730D01*
X83354407Y-69550444D01*
X83398601Y-69328266D01*
X83398601Y-69101736D01*
X83354407Y-68879558D01*
X83267717Y-68670272D01*
X83141864Y-68481919D01*
X82981683Y-68321738D01*
X82793330Y-68195885D01*
X82584044Y-68109195D01*
X82361866Y-68065001D01*
X82135336Y-68065001D01*
X81913158Y-68109195D01*
X81703872Y-68195885D01*
X81515519Y-68321738D01*
X81355338Y-68481919D01*
X81229485Y-68670272D01*
X81142795Y-68879558D01*
X81098601Y-69101736D01*
X81098601Y-69328266D01*
X81142795Y-69550444D01*
X81229485Y-69759730D01*
X81355338Y-69948083D01*
X81515519Y-70108264D01*
X81592949Y-70160001D01*
X80364253Y-70160001D01*
X80441683Y-70108264D01*
X80601864Y-69948083D01*
X80727717Y-69759730D01*
X80814407Y-69550444D01*
X80858601Y-69328266D01*
X80858601Y-69101736D01*
X80814407Y-68879558D01*
X80727717Y-68670272D01*
X80601864Y-68481919D01*
X80441683Y-68321738D01*
X80253330Y-68195885D01*
X80044044Y-68109195D01*
X79821866Y-68065001D01*
X79595336Y-68065001D01*
X79373158Y-68109195D01*
X79163872Y-68195885D01*
X78975519Y-68321738D01*
X78815338Y-68481919D01*
X78689485Y-68670272D01*
X78602795Y-68879558D01*
X78558601Y-69101736D01*
X78558601Y-69328266D01*
X78602795Y-69550444D01*
X78689485Y-69759730D01*
X78815338Y-69948083D01*
X78975519Y-70108264D01*
X79052949Y-70160001D01*
X77824253Y-70160001D01*
X77901683Y-70108264D01*
X78061864Y-69948083D01*
X78187717Y-69759730D01*
X78274407Y-69550444D01*
X78318601Y-69328266D01*
X78318601Y-69101736D01*
X78274407Y-68879558D01*
X78187717Y-68670272D01*
X78061864Y-68481919D01*
X77901683Y-68321738D01*
X77713330Y-68195885D01*
X77504044Y-68109195D01*
X77281866Y-68065001D01*
X77055336Y-68065001D01*
X76833158Y-68109195D01*
X76623872Y-68195885D01*
X76435519Y-68321738D01*
X76275338Y-68481919D01*
X76149485Y-68670272D01*
X76062795Y-68879558D01*
X76018601Y-69101736D01*
X76018601Y-69328266D01*
X76062795Y-69550444D01*
X76149485Y-69759730D01*
X76275338Y-69948083D01*
X76435519Y-70108264D01*
X76512949Y-70160001D01*
X75284253Y-70160001D01*
X75361683Y-70108264D01*
X75521864Y-69948083D01*
X75647717Y-69759730D01*
X75734407Y-69550444D01*
X75778601Y-69328266D01*
X75778601Y-69101736D01*
X75734407Y-68879558D01*
X75647717Y-68670272D01*
X75521864Y-68481919D01*
X75361683Y-68321738D01*
X75173330Y-68195885D01*
X74964044Y-68109195D01*
X74741866Y-68065001D01*
X74515336Y-68065001D01*
X74293158Y-68109195D01*
X74083872Y-68195885D01*
X73895519Y-68321738D01*
X73735338Y-68481919D01*
X73609485Y-68670272D01*
X73522795Y-68879558D01*
X73478601Y-69101736D01*
X73478601Y-69328266D01*
X73522795Y-69550444D01*
X73609485Y-69759730D01*
X73735338Y-69948083D01*
X73895519Y-70108264D01*
X73972949Y-70160001D01*
X72744253Y-70160001D01*
X72821683Y-70108264D01*
X72981864Y-69948083D01*
X73107717Y-69759730D01*
X73194407Y-69550444D01*
X73238601Y-69328266D01*
X73238601Y-69101736D01*
X73194407Y-68879558D01*
X73107717Y-68670272D01*
X72981864Y-68481919D01*
X72821683Y-68321738D01*
X72633330Y-68195885D01*
X72424044Y-68109195D01*
X72201866Y-68065001D01*
X71975336Y-68065001D01*
X71753158Y-68109195D01*
X71543872Y-68195885D01*
X71355519Y-68321738D01*
X71195338Y-68481919D01*
X71069485Y-68670272D01*
X70982795Y-68879558D01*
X70938601Y-69101736D01*
X70938601Y-69328266D01*
X70982795Y-69550444D01*
X71069485Y-69759730D01*
X71195338Y-69948083D01*
X71355519Y-70108264D01*
X71432949Y-70160001D01*
X70204253Y-70160001D01*
X70281683Y-70108264D01*
X70441864Y-69948083D01*
X70567717Y-69759730D01*
X70654407Y-69550444D01*
X70698601Y-69328266D01*
X70698601Y-69101736D01*
X70654407Y-68879558D01*
X70567717Y-68670272D01*
X70441864Y-68481919D01*
X70281683Y-68321738D01*
X70093330Y-68195885D01*
X69884044Y-68109195D01*
X69807142Y-68093898D01*
X70160704Y-67740336D01*
X91600601Y-67740336D01*
X91600601Y-68149666D01*
X91680457Y-68551131D01*
X91837101Y-68929303D01*
X92064513Y-69269649D01*
X92353953Y-69559089D01*
X92694299Y-69786501D01*
X93072471Y-69943145D01*
X93473936Y-70023001D01*
X93883266Y-70023001D01*
X94284731Y-69943145D01*
X94662903Y-69786501D01*
X95003249Y-69559089D01*
X95292689Y-69269649D01*
X95520101Y-68929303D01*
X95676745Y-68551131D01*
X95756601Y-68149666D01*
X95756601Y-67740336D01*
X95676745Y-67338871D01*
X95520101Y-66960699D01*
X95292689Y-66620353D01*
X95003249Y-66330913D01*
X94662903Y-66103501D01*
X94284731Y-65946857D01*
X93883266Y-65867001D01*
X93473936Y-65867001D01*
X93072471Y-65946857D01*
X92694299Y-66103501D01*
X92353953Y-66330913D01*
X92064513Y-66620353D01*
X91837101Y-66960699D01*
X91680457Y-67338871D01*
X91600601Y-67740336D01*
X70160704Y-67740336D01*
X70185762Y-67715279D01*
X70201974Y-67701974D01*
X70255084Y-67637260D01*
X70283167Y-67584720D01*
X70294548Y-67563428D01*
X70318850Y-67483314D01*
X70321000Y-67461484D01*
X70325000Y-67420874D01*
X70325000Y-67420867D01*
X70327055Y-67400000D01*
X70325000Y-67379133D01*
X70325000Y-67150489D01*
X70404411Y-67269336D01*
X70550664Y-67415589D01*
X70722638Y-67530498D01*
X70913726Y-67609650D01*
X71116584Y-67650000D01*
X71323416Y-67650000D01*
X71526274Y-67609650D01*
X71717362Y-67530498D01*
X71889336Y-67415589D01*
X72035589Y-67269336D01*
X72150498Y-67097362D01*
X72229650Y-66906274D01*
X72270000Y-66703416D01*
X72270000Y-66496584D01*
X72229650Y-66293726D01*
X72150498Y-66102638D01*
X72035589Y-65930664D01*
X71889336Y-65784411D01*
X71717362Y-65669502D01*
X71526274Y-65590350D01*
X71323416Y-65550000D01*
X71116584Y-65550000D01*
X70913726Y-65590350D01*
X70722638Y-65669502D01*
X70550664Y-65784411D01*
X70404411Y-65930664D01*
X70325000Y-66049511D01*
X70325000Y-65820866D01*
X70327055Y-65799999D01*
X70325000Y-65779132D01*
X70325000Y-65779126D01*
X70318850Y-65716686D01*
X70294548Y-65636573D01*
X70255084Y-65562740D01*
X70201974Y-65498026D01*
X70185763Y-65484722D01*
X69615283Y-64914243D01*
X69601974Y-64898026D01*
X69537260Y-64844916D01*
X69463427Y-64805452D01*
X69383314Y-64781150D01*
X69320874Y-64775000D01*
X69320867Y-64775000D01*
X69300000Y-64772945D01*
X69279133Y-64775000D01*
X67876041Y-64775000D01*
X66325846Y-63224806D01*
X66362740Y-63255084D01*
X66400001Y-63275000D01*
X66436572Y-63294548D01*
X66504917Y-63315280D01*
X66516686Y-63318850D01*
X66579126Y-63325000D01*
X66579133Y-63325000D01*
X66600000Y-63327055D01*
X66620867Y-63325000D01*
X76293359Y-63325000D01*
X76298816Y-63342988D01*
X76400958Y-63534084D01*
X76538419Y-63701581D01*
X76705916Y-63839042D01*
X76897012Y-63941184D01*
X77104362Y-64004084D01*
X77265964Y-64020000D01*
X77374036Y-64020000D01*
X77535638Y-64004084D01*
X77742988Y-63941184D01*
X77934084Y-63839042D01*
X78101581Y-63701581D01*
X78239042Y-63534084D01*
X78341184Y-63342988D01*
X78404084Y-63135638D01*
X78425322Y-62920000D01*
X78754678Y-62920000D01*
X78775916Y-63135638D01*
X78838816Y-63342988D01*
X78940958Y-63534084D01*
X79078419Y-63701581D01*
X79245916Y-63839042D01*
X79437012Y-63941184D01*
X79644362Y-64004084D01*
X79805964Y-64020000D01*
X79914036Y-64020000D01*
X80075638Y-64004084D01*
X80282988Y-63941184D01*
X80474084Y-63839042D01*
X80641581Y-63701581D01*
X80779042Y-63534084D01*
X80881184Y-63342988D01*
X80944084Y-63135638D01*
X80965322Y-62920000D01*
X81294678Y-62920000D01*
X81315916Y-63135638D01*
X81378816Y-63342988D01*
X81480958Y-63534084D01*
X81618419Y-63701581D01*
X81785916Y-63839042D01*
X81977012Y-63941184D01*
X82184362Y-64004084D01*
X82345964Y-64020000D01*
X82454036Y-64020000D01*
X82615638Y-64004084D01*
X82822988Y-63941184D01*
X83014084Y-63839042D01*
X83181581Y-63701581D01*
X83319042Y-63534084D01*
X83421184Y-63342988D01*
X83484084Y-63135638D01*
X83505322Y-62920000D01*
X83834678Y-62920000D01*
X83855916Y-63135638D01*
X83918816Y-63342988D01*
X84020958Y-63534084D01*
X84158419Y-63701581D01*
X84325916Y-63839042D01*
X84517012Y-63941184D01*
X84724362Y-64004084D01*
X84885964Y-64020000D01*
X84994036Y-64020000D01*
X85155638Y-64004084D01*
X85362988Y-63941184D01*
X85554084Y-63839042D01*
X85721581Y-63701581D01*
X85859042Y-63534084D01*
X85961184Y-63342988D01*
X86024084Y-63135638D01*
X86045322Y-62920000D01*
X86374678Y-62920000D01*
X86395916Y-63135638D01*
X86458816Y-63342988D01*
X86560958Y-63534084D01*
X86698419Y-63701581D01*
X86865916Y-63839042D01*
X87057012Y-63941184D01*
X87264362Y-64004084D01*
X87425964Y-64020000D01*
X87534036Y-64020000D01*
X87695638Y-64004084D01*
X87902988Y-63941184D01*
X88094084Y-63839042D01*
X88261581Y-63701581D01*
X88399042Y-63534084D01*
X88501184Y-63342988D01*
X88564084Y-63135638D01*
X88585322Y-62920000D01*
X88914678Y-62920000D01*
X88935916Y-63135638D01*
X88998816Y-63342988D01*
X89100958Y-63534084D01*
X89238419Y-63701581D01*
X89405916Y-63839042D01*
X89597012Y-63941184D01*
X89804362Y-64004084D01*
X89965964Y-64020000D01*
X90074036Y-64020000D01*
X90235638Y-64004084D01*
X90442988Y-63941184D01*
X90634084Y-63839042D01*
X90801581Y-63701581D01*
X90939042Y-63534084D01*
X91041184Y-63342988D01*
X91104084Y-63135638D01*
X91125322Y-62920000D01*
X91454678Y-62920000D01*
X91475916Y-63135638D01*
X91538816Y-63342988D01*
X91640958Y-63534084D01*
X91778419Y-63701581D01*
X91945916Y-63839042D01*
X92137012Y-63941184D01*
X92344362Y-64004084D01*
X92505964Y-64020000D01*
X92614036Y-64020000D01*
X92775638Y-64004084D01*
X92982988Y-63941184D01*
X93174084Y-63839042D01*
X93341581Y-63701581D01*
X93479042Y-63534084D01*
X93581184Y-63342988D01*
X93644084Y-63135638D01*
X93665322Y-62920000D01*
X93994678Y-62920000D01*
X94015916Y-63135638D01*
X94078816Y-63342988D01*
X94180958Y-63534084D01*
X94318419Y-63701581D01*
X94485916Y-63839042D01*
X94677012Y-63941184D01*
X94884362Y-64004084D01*
X95045964Y-64020000D01*
X95154036Y-64020000D01*
X95315638Y-64004084D01*
X95522988Y-63941184D01*
X95714084Y-63839042D01*
X95881581Y-63701581D01*
X96019042Y-63534084D01*
X96121184Y-63342988D01*
X96184084Y-63135638D01*
X96205322Y-62920000D01*
X96184084Y-62704362D01*
X96121184Y-62497012D01*
X96019042Y-62305916D01*
X95881581Y-62138419D01*
X95714084Y-62000958D01*
X95522988Y-61898816D01*
X95315638Y-61835916D01*
X95154036Y-61820000D01*
X95045964Y-61820000D01*
X94884362Y-61835916D01*
X94677012Y-61898816D01*
X94485916Y-62000958D01*
X94318419Y-62138419D01*
X94180958Y-62305916D01*
X94078816Y-62497012D01*
X94015916Y-62704362D01*
X93994678Y-62920000D01*
X93665322Y-62920000D01*
X93644084Y-62704362D01*
X93581184Y-62497012D01*
X93479042Y-62305916D01*
X93341581Y-62138419D01*
X93174084Y-62000958D01*
X92982988Y-61898816D01*
X92775638Y-61835916D01*
X92614036Y-61820000D01*
X92505964Y-61820000D01*
X92344362Y-61835916D01*
X92137012Y-61898816D01*
X91945916Y-62000958D01*
X91778419Y-62138419D01*
X91640958Y-62305916D01*
X91538816Y-62497012D01*
X91475916Y-62704362D01*
X91454678Y-62920000D01*
X91125322Y-62920000D01*
X91104084Y-62704362D01*
X91041184Y-62497012D01*
X90939042Y-62305916D01*
X90801581Y-62138419D01*
X90634084Y-62000958D01*
X90442988Y-61898816D01*
X90235638Y-61835916D01*
X90074036Y-61820000D01*
X89965964Y-61820000D01*
X89804362Y-61835916D01*
X89597012Y-61898816D01*
X89405916Y-62000958D01*
X89238419Y-62138419D01*
X89100958Y-62305916D01*
X88998816Y-62497012D01*
X88935916Y-62704362D01*
X88914678Y-62920000D01*
X88585322Y-62920000D01*
X88564084Y-62704362D01*
X88501184Y-62497012D01*
X88399042Y-62305916D01*
X88261581Y-62138419D01*
X88094084Y-62000958D01*
X87902988Y-61898816D01*
X87695638Y-61835916D01*
X87534036Y-61820000D01*
X87425964Y-61820000D01*
X87264362Y-61835916D01*
X87057012Y-61898816D01*
X86865916Y-62000958D01*
X86698419Y-62138419D01*
X86560958Y-62305916D01*
X86458816Y-62497012D01*
X86395916Y-62704362D01*
X86374678Y-62920000D01*
X86045322Y-62920000D01*
X86024084Y-62704362D01*
X85961184Y-62497012D01*
X85859042Y-62305916D01*
X85721581Y-62138419D01*
X85554084Y-62000958D01*
X85362988Y-61898816D01*
X85155638Y-61835916D01*
X84994036Y-61820000D01*
X84885964Y-61820000D01*
X84724362Y-61835916D01*
X84517012Y-61898816D01*
X84325916Y-62000958D01*
X84158419Y-62138419D01*
X84020958Y-62305916D01*
X83918816Y-62497012D01*
X83855916Y-62704362D01*
X83834678Y-62920000D01*
X83505322Y-62920000D01*
X83484084Y-62704362D01*
X83421184Y-62497012D01*
X83319042Y-62305916D01*
X83181581Y-62138419D01*
X83014084Y-62000958D01*
X82822988Y-61898816D01*
X82615638Y-61835916D01*
X82454036Y-61820000D01*
X82345964Y-61820000D01*
X82184362Y-61835916D01*
X81977012Y-61898816D01*
X81785916Y-62000958D01*
X81618419Y-62138419D01*
X81480958Y-62305916D01*
X81378816Y-62497012D01*
X81315916Y-62704362D01*
X81294678Y-62920000D01*
X80965322Y-62920000D01*
X80944084Y-62704362D01*
X80881184Y-62497012D01*
X80779042Y-62305916D01*
X80641581Y-62138419D01*
X80474084Y-62000958D01*
X80282988Y-61898816D01*
X80075638Y-61835916D01*
X79914036Y-61820000D01*
X79805964Y-61820000D01*
X79644362Y-61835916D01*
X79437012Y-61898816D01*
X79245916Y-62000958D01*
X79078419Y-62138419D01*
X78940958Y-62305916D01*
X78838816Y-62497012D01*
X78775916Y-62704362D01*
X78754678Y-62920000D01*
X78425322Y-62920000D01*
X78404084Y-62704362D01*
X78341184Y-62497012D01*
X78239042Y-62305916D01*
X78101581Y-62138419D01*
X77934084Y-62000958D01*
X77742988Y-61898816D01*
X77535638Y-61835916D01*
X77374036Y-61820000D01*
X77265964Y-61820000D01*
X77104362Y-61835916D01*
X76897012Y-61898816D01*
X76705916Y-62000958D01*
X76538419Y-62138419D01*
X76400958Y-62305916D01*
X76310582Y-62475000D01*
X66776041Y-62475000D01*
X65315283Y-61014243D01*
X65301974Y-60998026D01*
X65237260Y-60944916D01*
X65163427Y-60905452D01*
X65083314Y-60881150D01*
X65020874Y-60875000D01*
X65020867Y-60875000D01*
X65000000Y-60872945D01*
X64979133Y-60875000D01*
X64925000Y-60875000D01*
X64925000Y-56020867D01*
X64927055Y-56000000D01*
X64925000Y-55979133D01*
X64925000Y-55979126D01*
X64918850Y-55916686D01*
X64894548Y-55836573D01*
X64855084Y-55762740D01*
X64801974Y-55698026D01*
X64785758Y-55684718D01*
X64401040Y-55300000D01*
X76214678Y-55300000D01*
X76235916Y-55515638D01*
X76298816Y-55722988D01*
X76400958Y-55914084D01*
X76538419Y-56081581D01*
X76705916Y-56219042D01*
X76897012Y-56321184D01*
X77104362Y-56384084D01*
X77265964Y-56400000D01*
X77374036Y-56400000D01*
X77535638Y-56384084D01*
X77742988Y-56321184D01*
X77934084Y-56219042D01*
X78101581Y-56081581D01*
X78239042Y-55914084D01*
X78341184Y-55722988D01*
X78404084Y-55515638D01*
X78425322Y-55300000D01*
X78754678Y-55300000D01*
X78775916Y-55515638D01*
X78838816Y-55722988D01*
X78940958Y-55914084D01*
X79078419Y-56081581D01*
X79245916Y-56219042D01*
X79437012Y-56321184D01*
X79644362Y-56384084D01*
X79805964Y-56400000D01*
X79914036Y-56400000D01*
X80075638Y-56384084D01*
X80282988Y-56321184D01*
X80474084Y-56219042D01*
X80641581Y-56081581D01*
X80779042Y-55914084D01*
X80881184Y-55722988D01*
X80944084Y-55515638D01*
X80965322Y-55300000D01*
X81294678Y-55300000D01*
X81315916Y-55515638D01*
X81378816Y-55722988D01*
X81480958Y-55914084D01*
X81618419Y-56081581D01*
X81785916Y-56219042D01*
X81977012Y-56321184D01*
X82184362Y-56384084D01*
X82345964Y-56400000D01*
X82454036Y-56400000D01*
X82615638Y-56384084D01*
X82822988Y-56321184D01*
X83014084Y-56219042D01*
X83181581Y-56081581D01*
X83319042Y-55914084D01*
X83421184Y-55722988D01*
X83484084Y-55515638D01*
X83505322Y-55300000D01*
X83834678Y-55300000D01*
X83855916Y-55515638D01*
X83918816Y-55722988D01*
X84020958Y-55914084D01*
X84158419Y-56081581D01*
X84325916Y-56219042D01*
X84517012Y-56321184D01*
X84724362Y-56384084D01*
X84885964Y-56400000D01*
X84994036Y-56400000D01*
X85155638Y-56384084D01*
X85362988Y-56321184D01*
X85554084Y-56219042D01*
X85721581Y-56081581D01*
X85859042Y-55914084D01*
X85961184Y-55722988D01*
X86024084Y-55515638D01*
X86045322Y-55300000D01*
X86374678Y-55300000D01*
X86395916Y-55515638D01*
X86458816Y-55722988D01*
X86560958Y-55914084D01*
X86698419Y-56081581D01*
X86865916Y-56219042D01*
X87057012Y-56321184D01*
X87264362Y-56384084D01*
X87425964Y-56400000D01*
X87534036Y-56400000D01*
X87695638Y-56384084D01*
X87902988Y-56321184D01*
X88094084Y-56219042D01*
X88261581Y-56081581D01*
X88399042Y-55914084D01*
X88501184Y-55722988D01*
X88564084Y-55515638D01*
X88585322Y-55300000D01*
X88914678Y-55300000D01*
X88935916Y-55515638D01*
X88998816Y-55722988D01*
X89100958Y-55914084D01*
X89238419Y-56081581D01*
X89405916Y-56219042D01*
X89597012Y-56321184D01*
X89804362Y-56384084D01*
X89965964Y-56400000D01*
X90074036Y-56400000D01*
X90235638Y-56384084D01*
X90442988Y-56321184D01*
X90634084Y-56219042D01*
X90801581Y-56081581D01*
X90939042Y-55914084D01*
X91041184Y-55722988D01*
X91104084Y-55515638D01*
X91125322Y-55300000D01*
X91454678Y-55300000D01*
X91475916Y-55515638D01*
X91538816Y-55722988D01*
X91640958Y-55914084D01*
X91778419Y-56081581D01*
X91945916Y-56219042D01*
X92137012Y-56321184D01*
X92344362Y-56384084D01*
X92505964Y-56400000D01*
X92614036Y-56400000D01*
X92775638Y-56384084D01*
X92982988Y-56321184D01*
X93174084Y-56219042D01*
X93341581Y-56081581D01*
X93479042Y-55914084D01*
X93581184Y-55722988D01*
X93644084Y-55515638D01*
X93665322Y-55300000D01*
X93644084Y-55084362D01*
X93581184Y-54877012D01*
X93479042Y-54685916D01*
X93341581Y-54518419D01*
X93319138Y-54500000D01*
X93998549Y-54500000D01*
X93998549Y-56100000D01*
X94004341Y-56158810D01*
X94021496Y-56215360D01*
X94049353Y-56267477D01*
X94086842Y-56313158D01*
X94132523Y-56350647D01*
X94184640Y-56378504D01*
X94241190Y-56395659D01*
X94300000Y-56401451D01*
X95900000Y-56401451D01*
X95958810Y-56395659D01*
X96015360Y-56378504D01*
X96067477Y-56350647D01*
X96113158Y-56313158D01*
X96150647Y-56267477D01*
X96178504Y-56215360D01*
X96195659Y-56158810D01*
X96201451Y-56100000D01*
X96201451Y-54500000D01*
X96195659Y-54441190D01*
X96178504Y-54384640D01*
X96150647Y-54332523D01*
X96113158Y-54286842D01*
X96067477Y-54249353D01*
X96015360Y-54221496D01*
X95958810Y-54204341D01*
X95900000Y-54198549D01*
X94300000Y-54198549D01*
X94241190Y-54204341D01*
X94184640Y-54221496D01*
X94132523Y-54249353D01*
X94086842Y-54286842D01*
X94049353Y-54332523D01*
X94021496Y-54384640D01*
X94004341Y-54441190D01*
X93998549Y-54500000D01*
X93319138Y-54500000D01*
X93174084Y-54380958D01*
X92982988Y-54278816D01*
X92775638Y-54215916D01*
X92614036Y-54200000D01*
X92505964Y-54200000D01*
X92344362Y-54215916D01*
X92137012Y-54278816D01*
X91945916Y-54380958D01*
X91778419Y-54518419D01*
X91640958Y-54685916D01*
X91538816Y-54877012D01*
X91475916Y-55084362D01*
X91454678Y-55300000D01*
X91125322Y-55300000D01*
X91104084Y-55084362D01*
X91041184Y-54877012D01*
X90939042Y-54685916D01*
X90801581Y-54518419D01*
X90634084Y-54380958D01*
X90442988Y-54278816D01*
X90235638Y-54215916D01*
X90074036Y-54200000D01*
X89965964Y-54200000D01*
X89804362Y-54215916D01*
X89597012Y-54278816D01*
X89405916Y-54380958D01*
X89238419Y-54518419D01*
X89100958Y-54685916D01*
X88998816Y-54877012D01*
X88935916Y-55084362D01*
X88914678Y-55300000D01*
X88585322Y-55300000D01*
X88564084Y-55084362D01*
X88501184Y-54877012D01*
X88399042Y-54685916D01*
X88261581Y-54518419D01*
X88094084Y-54380958D01*
X87902988Y-54278816D01*
X87695638Y-54215916D01*
X87534036Y-54200000D01*
X87425964Y-54200000D01*
X87264362Y-54215916D01*
X87057012Y-54278816D01*
X86865916Y-54380958D01*
X86698419Y-54518419D01*
X86560958Y-54685916D01*
X86458816Y-54877012D01*
X86395916Y-55084362D01*
X86374678Y-55300000D01*
X86045322Y-55300000D01*
X86024084Y-55084362D01*
X85961184Y-54877012D01*
X85859042Y-54685916D01*
X85721581Y-54518419D01*
X85554084Y-54380958D01*
X85362988Y-54278816D01*
X85155638Y-54215916D01*
X84994036Y-54200000D01*
X84885964Y-54200000D01*
X84724362Y-54215916D01*
X84517012Y-54278816D01*
X84325916Y-54380958D01*
X84158419Y-54518419D01*
X84020958Y-54685916D01*
X83918816Y-54877012D01*
X83855916Y-55084362D01*
X83834678Y-55300000D01*
X83505322Y-55300000D01*
X83484084Y-55084362D01*
X83421184Y-54877012D01*
X83319042Y-54685916D01*
X83181581Y-54518419D01*
X83014084Y-54380958D01*
X82822988Y-54278816D01*
X82615638Y-54215916D01*
X82454036Y-54200000D01*
X82345964Y-54200000D01*
X82184362Y-54215916D01*
X81977012Y-54278816D01*
X81785916Y-54380958D01*
X81618419Y-54518419D01*
X81480958Y-54685916D01*
X81378816Y-54877012D01*
X81315916Y-55084362D01*
X81294678Y-55300000D01*
X80965322Y-55300000D01*
X80944084Y-55084362D01*
X80881184Y-54877012D01*
X80779042Y-54685916D01*
X80641581Y-54518419D01*
X80474084Y-54380958D01*
X80282988Y-54278816D01*
X80075638Y-54215916D01*
X79914036Y-54200000D01*
X79805964Y-54200000D01*
X79644362Y-54215916D01*
X79437012Y-54278816D01*
X79245916Y-54380958D01*
X79078419Y-54518419D01*
X78940958Y-54685916D01*
X78838816Y-54877012D01*
X78775916Y-55084362D01*
X78754678Y-55300000D01*
X78425322Y-55300000D01*
X78404084Y-55084362D01*
X78341184Y-54877012D01*
X78239042Y-54685916D01*
X78101581Y-54518419D01*
X77934084Y-54380958D01*
X77742988Y-54278816D01*
X77535638Y-54215916D01*
X77374036Y-54200000D01*
X77265964Y-54200000D01*
X77104362Y-54215916D01*
X76897012Y-54278816D01*
X76705916Y-54380958D01*
X76538419Y-54518419D01*
X76400958Y-54685916D01*
X76298816Y-54877012D01*
X76235916Y-55084362D01*
X76214678Y-55300000D01*
X64401040Y-55300000D01*
X63515284Y-54414244D01*
X63501974Y-54398026D01*
X63437260Y-54344916D01*
X63399999Y-54325000D01*
X68679133Y-54325000D01*
X68700000Y-54327055D01*
X68720867Y-54325000D01*
X68720874Y-54325000D01*
X68783314Y-54318850D01*
X68863427Y-54294548D01*
X68937260Y-54255084D01*
X69001974Y-54201974D01*
X69015283Y-54185757D01*
X70855506Y-52345534D01*
X70913726Y-52369650D01*
X71116584Y-52410000D01*
X71323416Y-52410000D01*
X71526274Y-52369650D01*
X71717362Y-52290498D01*
X71889336Y-52175589D01*
X72035589Y-52029336D01*
X72150498Y-51857362D01*
X72229650Y-51666274D01*
X72270000Y-51463416D01*
X72270000Y-51256584D01*
X72229650Y-51053726D01*
X72150498Y-50862638D01*
X72035589Y-50690664D01*
X71889336Y-50544411D01*
X71717362Y-50429502D01*
X71526274Y-50350350D01*
X71323416Y-50310000D01*
X71116584Y-50310000D01*
X70913726Y-50350350D01*
X70722638Y-50429502D01*
X70550664Y-50544411D01*
X70404411Y-50690664D01*
X70289502Y-50862638D01*
X70210350Y-51053726D01*
X70170000Y-51256584D01*
X70170000Y-51463416D01*
X70210350Y-51666274D01*
X70246181Y-51752778D01*
X68523960Y-53475000D01*
X67226040Y-53475000D01*
X68343790Y-52357250D01*
X68373726Y-52369650D01*
X68576584Y-52410000D01*
X68783416Y-52410000D01*
X68986274Y-52369650D01*
X69177362Y-52290498D01*
X69349336Y-52175589D01*
X69495589Y-52029336D01*
X69610498Y-51857362D01*
X69689650Y-51666274D01*
X69730000Y-51463416D01*
X69730000Y-51256584D01*
X69689650Y-51053726D01*
X69610498Y-50862638D01*
X69495589Y-50690664D01*
X69349336Y-50544411D01*
X69177362Y-50429502D01*
X68986274Y-50350350D01*
X68783416Y-50310000D01*
X68576584Y-50310000D01*
X68373726Y-50350350D01*
X68182638Y-50429502D01*
X68010664Y-50544411D01*
X67864411Y-50690664D01*
X67749502Y-50862638D01*
X67670350Y-51053726D01*
X67630000Y-51256584D01*
X67630000Y-51463416D01*
X67670350Y-51666274D01*
X67717897Y-51781063D01*
X66673949Y-52825011D01*
X65276029Y-52825011D01*
X65705281Y-52395760D01*
X65705285Y-52395755D01*
X65761364Y-52339676D01*
X65833726Y-52369650D01*
X66036584Y-52410000D01*
X66243416Y-52410000D01*
X66446274Y-52369650D01*
X66637362Y-52290498D01*
X66809336Y-52175589D01*
X66955589Y-52029336D01*
X67070498Y-51857362D01*
X67149650Y-51666274D01*
X67190000Y-51463416D01*
X67190000Y-51256584D01*
X67149650Y-51053726D01*
X67070498Y-50862638D01*
X66955589Y-50690664D01*
X66809336Y-50544411D01*
X66637362Y-50429502D01*
X66446274Y-50350350D01*
X66243416Y-50310000D01*
X66036584Y-50310000D01*
X65833726Y-50350350D01*
X65642638Y-50429502D01*
X65470664Y-50544411D01*
X65324411Y-50690664D01*
X65209502Y-50862638D01*
X65130350Y-51053726D01*
X65090000Y-51256584D01*
X65090000Y-51463416D01*
X65130350Y-51666274D01*
X65160324Y-51738636D01*
X65104245Y-51794715D01*
X65104240Y-51794719D01*
X64523960Y-52375000D01*
X63879377Y-52375000D01*
X63906274Y-52369650D01*
X64097362Y-52290498D01*
X64269336Y-52175589D01*
X64415589Y-52029336D01*
X64530498Y-51857362D01*
X64609650Y-51666274D01*
X64650000Y-51463416D01*
X64650000Y-51256584D01*
X64609650Y-51053726D01*
X64530498Y-50862638D01*
X64415589Y-50690664D01*
X64269336Y-50544411D01*
X64097362Y-50429502D01*
X63906274Y-50350350D01*
X63703416Y-50310000D01*
X63496584Y-50310000D01*
X63293726Y-50350350D01*
X63102638Y-50429502D01*
X62930664Y-50544411D01*
X62784411Y-50690664D01*
X62669502Y-50862638D01*
X62590350Y-51053726D01*
X62550000Y-51256584D01*
X62550000Y-51463416D01*
X62590350Y-51666274D01*
X62669502Y-51857362D01*
X62784411Y-52029336D01*
X62930664Y-52175589D01*
X63102638Y-52290498D01*
X63293726Y-52369650D01*
X63320623Y-52375000D01*
X61339377Y-52375000D01*
X61366274Y-52369650D01*
X61557362Y-52290498D01*
X61729336Y-52175589D01*
X61875589Y-52029336D01*
X61990498Y-51857362D01*
X62069650Y-51666274D01*
X62110000Y-51463416D01*
X62110000Y-51256584D01*
X62069650Y-51053726D01*
X61990498Y-50862638D01*
X61875589Y-50690664D01*
X61729336Y-50544411D01*
X61557362Y-50429502D01*
X61366274Y-50350350D01*
X61163416Y-50310000D01*
X60956584Y-50310000D01*
X60753726Y-50350350D01*
X60562638Y-50429502D01*
X60390664Y-50544411D01*
X60244411Y-50690664D01*
X60129502Y-50862638D01*
X60050350Y-51053726D01*
X60010000Y-51256584D01*
X60010000Y-51463416D01*
X60050350Y-51666274D01*
X60129502Y-51857362D01*
X60244411Y-52029336D01*
X60390664Y-52175589D01*
X60562638Y-52290498D01*
X60753726Y-52369650D01*
X60780623Y-52375000D01*
X58799377Y-52375000D01*
X58826274Y-52369650D01*
X59017362Y-52290498D01*
X59189336Y-52175589D01*
X59335589Y-52029336D01*
X59450498Y-51857362D01*
X59529650Y-51666274D01*
X59570000Y-51463416D01*
X59570000Y-51256584D01*
X59529650Y-51053726D01*
X59450498Y-50862638D01*
X59335589Y-50690664D01*
X59189336Y-50544411D01*
X59017362Y-50429502D01*
X58826274Y-50350350D01*
X58623416Y-50310000D01*
X58416584Y-50310000D01*
X58213726Y-50350350D01*
X58022638Y-50429502D01*
X57850664Y-50544411D01*
X57704411Y-50690664D01*
X57619024Y-50818455D01*
X57618850Y-50816686D01*
X57594548Y-50736573D01*
X57555084Y-50662740D01*
X57501974Y-50598026D01*
X57485762Y-50584721D01*
X56615283Y-49714243D01*
X56601974Y-49698026D01*
X56537260Y-49644916D01*
X56463427Y-49605452D01*
X56383314Y-49581150D01*
X56320874Y-49575000D01*
X56320867Y-49575000D01*
X56300000Y-49572945D01*
X56279133Y-49575000D01*
X52320866Y-49575000D01*
X52299999Y-49572945D01*
X52279132Y-49575000D01*
X52279126Y-49575000D01*
X52225098Y-49580321D01*
X52216685Y-49581150D01*
X52192383Y-49588522D01*
X52136573Y-49605452D01*
X52062740Y-49644916D01*
X51998026Y-49698026D01*
X51984721Y-49714238D01*
X51306920Y-50392039D01*
X51206274Y-50350350D01*
X51003416Y-50310000D01*
X50796584Y-50310000D01*
X50593726Y-50350350D01*
X50402638Y-50429502D01*
X50230664Y-50544411D01*
X50084411Y-50690664D01*
X49969502Y-50862638D01*
X49890350Y-51053726D01*
X49850000Y-51256584D01*
X49850000Y-51463416D01*
X49890350Y-51666274D01*
X49969502Y-51857362D01*
X50084411Y-52029336D01*
X50230664Y-52175589D01*
X50402638Y-52290498D01*
X50593726Y-52369650D01*
X50796584Y-52410000D01*
X51003416Y-52410000D01*
X51206274Y-52369650D01*
X51397362Y-52290498D01*
X51569336Y-52175589D01*
X51715589Y-52029336D01*
X51830498Y-51857362D01*
X51909650Y-51666274D01*
X51950000Y-51463416D01*
X51950000Y-51256584D01*
X51909650Y-51053726D01*
X51891392Y-51009648D01*
X52476041Y-50425000D01*
X52953507Y-50425000D01*
X52942638Y-50429502D01*
X52770664Y-50544411D01*
X52624411Y-50690664D01*
X52509502Y-50862638D01*
X52430350Y-51053726D01*
X52390000Y-51256584D01*
X52390000Y-51463416D01*
X52430350Y-51666274D01*
X52509502Y-51857362D01*
X52624411Y-52029336D01*
X52770664Y-52175589D01*
X52942638Y-52290498D01*
X53133726Y-52369650D01*
X53336584Y-52410000D01*
X53543416Y-52410000D01*
X53746274Y-52369650D01*
X53937362Y-52290498D01*
X54109336Y-52175589D01*
X54255589Y-52029336D01*
X54370498Y-51857362D01*
X54449650Y-51666274D01*
X54490000Y-51463416D01*
X54490000Y-51256584D01*
X54449650Y-51053726D01*
X54370498Y-50862638D01*
X54255589Y-50690664D01*
X54109336Y-50544411D01*
X53937362Y-50429502D01*
X53926493Y-50425000D01*
X55493507Y-50425000D01*
X55482638Y-50429502D01*
X55310664Y-50544411D01*
X55164411Y-50690664D01*
X55049502Y-50862638D01*
X54970350Y-51053726D01*
X54930000Y-51256584D01*
X54930000Y-51463416D01*
X54970350Y-51666274D01*
X55049502Y-51857362D01*
X55164411Y-52029336D01*
X55310664Y-52175589D01*
X55482638Y-52290498D01*
X55673726Y-52369650D01*
X55876584Y-52410000D01*
X56083416Y-52410000D01*
X56286274Y-52369650D01*
X56358636Y-52339676D01*
X57554732Y-53535773D01*
X57568037Y-53551985D01*
X57632751Y-53605095D01*
X57706584Y-53644559D01*
X57762394Y-53661489D01*
X57786696Y-53668861D01*
X57795109Y-53669690D01*
X57849137Y-53675011D01*
X57849143Y-53675011D01*
X57870010Y-53677066D01*
X57890877Y-53675011D01*
X58397878Y-53675011D01*
X58371136Y-53739571D01*
X58350000Y-53845830D01*
X58350000Y-53954170D01*
X58371136Y-54060429D01*
X58412597Y-54160523D01*
X58472787Y-54250604D01*
X58549396Y-54327213D01*
X58639477Y-54387403D01*
X58739571Y-54428864D01*
X58845830Y-54450000D01*
X58954170Y-54450000D01*
X59060429Y-54428864D01*
X59160523Y-54387403D01*
X59250604Y-54327213D01*
X59252817Y-54325000D01*
X61897183Y-54325000D01*
X61872787Y-54349396D01*
X61812597Y-54439477D01*
X61771136Y-54539571D01*
X61750000Y-54645830D01*
X61750000Y-54754170D01*
X61771136Y-54860429D01*
X61812597Y-54960523D01*
X61872787Y-55050604D01*
X61949396Y-55127213D01*
X62039477Y-55187403D01*
X62139571Y-55228864D01*
X62245830Y-55250000D01*
X62354170Y-55250000D01*
X62460429Y-55228864D01*
X62560523Y-55187403D01*
X62650604Y-55127213D01*
X62652817Y-55125000D01*
X63023960Y-55125000D01*
X64075000Y-56176040D01*
X64075001Y-56579126D01*
X64075000Y-60875000D01*
X61720866Y-60875000D01*
X61699999Y-60872945D01*
X61679132Y-60875000D01*
X61679126Y-60875000D01*
X61625098Y-60880321D01*
X61616685Y-60881150D01*
X61592383Y-60888522D01*
X61536573Y-60905452D01*
X61462740Y-60944916D01*
X61398026Y-60998026D01*
X61384721Y-61014238D01*
X59823960Y-62575000D01*
X55469864Y-62575000D01*
X55448997Y-62572945D01*
X55428130Y-62575000D01*
X55428124Y-62575000D01*
X55374690Y-62580263D01*
X55365683Y-62581150D01*
X55358550Y-62583314D01*
X55285571Y-62605452D01*
X55211738Y-62644916D01*
X55147024Y-62698026D01*
X55133719Y-62714238D01*
X54473459Y-63374499D01*
X54470329Y-63374499D01*
X54364070Y-63395635D01*
X54263976Y-63437096D01*
X54173895Y-63497286D01*
X54097286Y-63573895D01*
X54037096Y-63663976D01*
X53995635Y-63764070D01*
X53974499Y-63870329D01*
X53974499Y-63873458D01*
X51951451Y-65896507D01*
X51951451Y-65850000D01*
X51945659Y-65791190D01*
X51928504Y-65734640D01*
X51900647Y-65682523D01*
X51863158Y-65636842D01*
X51817477Y-65599353D01*
X51765360Y-65571496D01*
X51708810Y-65554341D01*
X51650000Y-65548549D01*
X50150000Y-65548549D01*
X50091190Y-65554341D01*
X50034640Y-65571496D01*
X49982523Y-65599353D01*
X49936842Y-65636842D01*
X49899353Y-65682523D01*
X49871496Y-65734640D01*
X49854341Y-65791190D01*
X49848549Y-65850000D01*
X49848549Y-67077663D01*
X49800101Y-66960699D01*
X49572689Y-66620353D01*
X49283249Y-66330913D01*
X48942903Y-66103501D01*
X48564731Y-65946857D01*
X48163266Y-65867001D01*
X47753936Y-65867001D01*
X47352471Y-65946857D01*
X46974299Y-66103501D01*
X46633953Y-66330913D01*
X46344513Y-66620353D01*
X46150001Y-66911461D01*
X46150001Y-60426131D01*
X46820000Y-60426131D01*
X46820000Y-60573869D01*
X46848822Y-60718767D01*
X46905359Y-60855258D01*
X46987437Y-60978097D01*
X47091903Y-61082563D01*
X47214742Y-61164641D01*
X47351233Y-61221178D01*
X47496131Y-61250000D01*
X47643869Y-61250000D01*
X47788767Y-61221178D01*
X47925258Y-61164641D01*
X48048097Y-61082563D01*
X48152563Y-60978097D01*
X48234641Y-60855258D01*
X48291178Y-60718767D01*
X48320000Y-60573869D01*
X48320000Y-60426131D01*
X48291178Y-60281233D01*
X48234641Y-60144742D01*
X48152563Y-60021903D01*
X48048097Y-59917437D01*
X47925258Y-59835359D01*
X47788767Y-59778822D01*
X47643869Y-59750000D01*
X47496131Y-59750000D01*
X47351233Y-59778822D01*
X47214742Y-59835359D01*
X47091903Y-59917437D01*
X46987437Y-60021903D01*
X46905359Y-60144742D01*
X46848822Y-60281233D01*
X46820000Y-60426131D01*
X46150001Y-60426131D01*
X46150001Y-57426131D01*
X46820000Y-57426131D01*
X46820000Y-57573869D01*
X46848822Y-57718767D01*
X46905359Y-57855258D01*
X46987437Y-57978097D01*
X47091903Y-58082563D01*
X47214742Y-58164641D01*
X47351233Y-58221178D01*
X47496131Y-58250000D01*
X47643869Y-58250000D01*
X47788767Y-58221178D01*
X47925258Y-58164641D01*
X48048097Y-58082563D01*
X48152563Y-57978097D01*
X48234641Y-57855258D01*
X48291178Y-57718767D01*
X48320000Y-57573869D01*
X48320000Y-57426131D01*
X48291178Y-57281233D01*
X48234641Y-57144742D01*
X48152563Y-57021903D01*
X48048097Y-56917437D01*
X47925258Y-56835359D01*
X47788767Y-56778822D01*
X47643869Y-56750000D01*
X47496131Y-56750000D01*
X47351233Y-56778822D01*
X47214742Y-56835359D01*
X47091903Y-56917437D01*
X46987437Y-57021903D01*
X46905359Y-57144742D01*
X46848822Y-57281233D01*
X46820000Y-57426131D01*
X46150001Y-57426131D01*
X46150001Y-51198541D01*
X46344513Y-51489649D01*
X46633953Y-51779089D01*
X46974299Y-52006501D01*
X47352471Y-52163145D01*
X47753936Y-52243001D01*
X48163266Y-52243001D01*
X48564731Y-52163145D01*
X48942903Y-52006501D01*
X49283249Y-51779089D01*
X49572689Y-51489649D01*
X49800101Y-51149303D01*
X49956745Y-50771131D01*
X50036601Y-50369666D01*
X50036601Y-49960336D01*
X49956745Y-49558871D01*
X49800101Y-49180699D01*
X49572689Y-48840353D01*
X49283249Y-48550913D01*
X48942903Y-48323501D01*
X48564731Y-48166857D01*
X48163266Y-48087001D01*
X47753936Y-48087001D01*
X47473445Y-48142794D01*
X47507261Y-48124510D01*
X47919924Y-47996769D01*
X48364872Y-47950003D01*
X48365565Y-47950001D01*
X61272949Y-47950001D01*
X61195519Y-48001738D01*
M02*
