G04 #@! TF.GenerationSoftware,KiCad,Pcbnew,(5.1.2)-1*
G04 #@! TF.CreationDate,2019-07-17T11:07:15+10:00*
G04 #@! TF.ProjectId,7seg-dip-wing,37736567-2d64-4697-902d-77696e672e6b,rev?*
G04 #@! TF.SameCoordinates,Original*
G04 #@! TF.FileFunction,Soldermask,Bot*
G04 #@! TF.FilePolarity,Negative*
%FSLAX46Y46*%
G04 Gerber Fmt 4.6, Leading zero omitted, Abs format (unit mm)*
G04 Created by KiCad (PCBNEW (5.1.2)-1) date 2019-07-17 11:07:15*
%MOMM*%
%LPD*%
G04 APERTURE LIST*
%ADD10C,0.100000*%
G04 APERTURE END LIST*
D10*
G36*
X89982113Y-68318928D02*
G01*
X90131413Y-68348625D01*
X90295385Y-68416545D01*
X90442955Y-68515148D01*
X90568454Y-68640647D01*
X90667057Y-68788217D01*
X90734977Y-68952189D01*
X90769601Y-69126260D01*
X90769601Y-69303742D01*
X90734977Y-69477813D01*
X90667057Y-69641785D01*
X90568454Y-69789355D01*
X90442955Y-69914854D01*
X90295385Y-70013457D01*
X90131413Y-70081377D01*
X89982113Y-70111074D01*
X89957343Y-70116001D01*
X89779859Y-70116001D01*
X89755089Y-70111074D01*
X89605789Y-70081377D01*
X89441817Y-70013457D01*
X89294247Y-69914854D01*
X89168748Y-69789355D01*
X89070145Y-69641785D01*
X89002225Y-69477813D01*
X88967601Y-69303742D01*
X88967601Y-69126260D01*
X89002225Y-68952189D01*
X89070145Y-68788217D01*
X89168748Y-68640647D01*
X89294247Y-68515148D01*
X89441817Y-68416545D01*
X89605789Y-68348625D01*
X89755089Y-68318928D01*
X89779859Y-68314001D01*
X89957343Y-68314001D01*
X89982113Y-68318928D01*
X89982113Y-68318928D01*
G37*
G36*
X72202113Y-68318928D02*
G01*
X72351413Y-68348625D01*
X72515385Y-68416545D01*
X72662955Y-68515148D01*
X72788454Y-68640647D01*
X72887057Y-68788217D01*
X72954977Y-68952189D01*
X72989601Y-69126260D01*
X72989601Y-69303742D01*
X72954977Y-69477813D01*
X72887057Y-69641785D01*
X72788454Y-69789355D01*
X72662955Y-69914854D01*
X72515385Y-70013457D01*
X72351413Y-70081377D01*
X72202113Y-70111074D01*
X72177343Y-70116001D01*
X71999859Y-70116001D01*
X71975089Y-70111074D01*
X71825789Y-70081377D01*
X71661817Y-70013457D01*
X71514247Y-69914854D01*
X71388748Y-69789355D01*
X71290145Y-69641785D01*
X71222225Y-69477813D01*
X71187601Y-69303742D01*
X71187601Y-69126260D01*
X71222225Y-68952189D01*
X71290145Y-68788217D01*
X71388748Y-68640647D01*
X71514247Y-68515148D01*
X71661817Y-68416545D01*
X71825789Y-68348625D01*
X71975089Y-68318928D01*
X71999859Y-68314001D01*
X72177343Y-68314001D01*
X72202113Y-68318928D01*
X72202113Y-68318928D01*
G37*
G36*
X54422113Y-68318928D02*
G01*
X54571413Y-68348625D01*
X54735385Y-68416545D01*
X54882955Y-68515148D01*
X55008454Y-68640647D01*
X55107057Y-68788217D01*
X55174977Y-68952189D01*
X55209601Y-69126260D01*
X55209601Y-69303742D01*
X55174977Y-69477813D01*
X55107057Y-69641785D01*
X55008454Y-69789355D01*
X54882955Y-69914854D01*
X54735385Y-70013457D01*
X54571413Y-70081377D01*
X54422113Y-70111074D01*
X54397343Y-70116001D01*
X54219859Y-70116001D01*
X54195089Y-70111074D01*
X54045789Y-70081377D01*
X53881817Y-70013457D01*
X53734247Y-69914854D01*
X53608748Y-69789355D01*
X53510145Y-69641785D01*
X53442225Y-69477813D01*
X53407601Y-69303742D01*
X53407601Y-69126260D01*
X53442225Y-68952189D01*
X53510145Y-68788217D01*
X53608748Y-68640647D01*
X53734247Y-68515148D01*
X53881817Y-68416545D01*
X54045789Y-68348625D01*
X54195089Y-68318928D01*
X54219859Y-68314001D01*
X54397343Y-68314001D01*
X54422113Y-68318928D01*
X54422113Y-68318928D01*
G37*
G36*
X56962113Y-68318928D02*
G01*
X57111413Y-68348625D01*
X57275385Y-68416545D01*
X57422955Y-68515148D01*
X57548454Y-68640647D01*
X57647057Y-68788217D01*
X57714977Y-68952189D01*
X57749601Y-69126260D01*
X57749601Y-69303742D01*
X57714977Y-69477813D01*
X57647057Y-69641785D01*
X57548454Y-69789355D01*
X57422955Y-69914854D01*
X57275385Y-70013457D01*
X57111413Y-70081377D01*
X56962113Y-70111074D01*
X56937343Y-70116001D01*
X56759859Y-70116001D01*
X56735089Y-70111074D01*
X56585789Y-70081377D01*
X56421817Y-70013457D01*
X56274247Y-69914854D01*
X56148748Y-69789355D01*
X56050145Y-69641785D01*
X55982225Y-69477813D01*
X55947601Y-69303742D01*
X55947601Y-69126260D01*
X55982225Y-68952189D01*
X56050145Y-68788217D01*
X56148748Y-68640647D01*
X56274247Y-68515148D01*
X56421817Y-68416545D01*
X56585789Y-68348625D01*
X56735089Y-68318928D01*
X56759859Y-68314001D01*
X56937343Y-68314001D01*
X56962113Y-68318928D01*
X56962113Y-68318928D01*
G37*
G36*
X59502113Y-68318928D02*
G01*
X59651413Y-68348625D01*
X59815385Y-68416545D01*
X59962955Y-68515148D01*
X60088454Y-68640647D01*
X60187057Y-68788217D01*
X60254977Y-68952189D01*
X60289601Y-69126260D01*
X60289601Y-69303742D01*
X60254977Y-69477813D01*
X60187057Y-69641785D01*
X60088454Y-69789355D01*
X59962955Y-69914854D01*
X59815385Y-70013457D01*
X59651413Y-70081377D01*
X59502113Y-70111074D01*
X59477343Y-70116001D01*
X59299859Y-70116001D01*
X59275089Y-70111074D01*
X59125789Y-70081377D01*
X58961817Y-70013457D01*
X58814247Y-69914854D01*
X58688748Y-69789355D01*
X58590145Y-69641785D01*
X58522225Y-69477813D01*
X58487601Y-69303742D01*
X58487601Y-69126260D01*
X58522225Y-68952189D01*
X58590145Y-68788217D01*
X58688748Y-68640647D01*
X58814247Y-68515148D01*
X58961817Y-68416545D01*
X59125789Y-68348625D01*
X59275089Y-68318928D01*
X59299859Y-68314001D01*
X59477343Y-68314001D01*
X59502113Y-68318928D01*
X59502113Y-68318928D01*
G37*
G36*
X62042113Y-68318928D02*
G01*
X62191413Y-68348625D01*
X62355385Y-68416545D01*
X62502955Y-68515148D01*
X62628454Y-68640647D01*
X62727057Y-68788217D01*
X62794977Y-68952189D01*
X62829601Y-69126260D01*
X62829601Y-69303742D01*
X62794977Y-69477813D01*
X62727057Y-69641785D01*
X62628454Y-69789355D01*
X62502955Y-69914854D01*
X62355385Y-70013457D01*
X62191413Y-70081377D01*
X62042113Y-70111074D01*
X62017343Y-70116001D01*
X61839859Y-70116001D01*
X61815089Y-70111074D01*
X61665789Y-70081377D01*
X61501817Y-70013457D01*
X61354247Y-69914854D01*
X61228748Y-69789355D01*
X61130145Y-69641785D01*
X61062225Y-69477813D01*
X61027601Y-69303742D01*
X61027601Y-69126260D01*
X61062225Y-68952189D01*
X61130145Y-68788217D01*
X61228748Y-68640647D01*
X61354247Y-68515148D01*
X61501817Y-68416545D01*
X61665789Y-68348625D01*
X61815089Y-68318928D01*
X61839859Y-68314001D01*
X62017343Y-68314001D01*
X62042113Y-68318928D01*
X62042113Y-68318928D01*
G37*
G36*
X64582113Y-68318928D02*
G01*
X64731413Y-68348625D01*
X64895385Y-68416545D01*
X65042955Y-68515148D01*
X65168454Y-68640647D01*
X65267057Y-68788217D01*
X65334977Y-68952189D01*
X65369601Y-69126260D01*
X65369601Y-69303742D01*
X65334977Y-69477813D01*
X65267057Y-69641785D01*
X65168454Y-69789355D01*
X65042955Y-69914854D01*
X64895385Y-70013457D01*
X64731413Y-70081377D01*
X64582113Y-70111074D01*
X64557343Y-70116001D01*
X64379859Y-70116001D01*
X64355089Y-70111074D01*
X64205789Y-70081377D01*
X64041817Y-70013457D01*
X63894247Y-69914854D01*
X63768748Y-69789355D01*
X63670145Y-69641785D01*
X63602225Y-69477813D01*
X63567601Y-69303742D01*
X63567601Y-69126260D01*
X63602225Y-68952189D01*
X63670145Y-68788217D01*
X63768748Y-68640647D01*
X63894247Y-68515148D01*
X64041817Y-68416545D01*
X64205789Y-68348625D01*
X64355089Y-68318928D01*
X64379859Y-68314001D01*
X64557343Y-68314001D01*
X64582113Y-68318928D01*
X64582113Y-68318928D01*
G37*
G36*
X67122113Y-68318928D02*
G01*
X67271413Y-68348625D01*
X67435385Y-68416545D01*
X67582955Y-68515148D01*
X67708454Y-68640647D01*
X67807057Y-68788217D01*
X67874977Y-68952189D01*
X67909601Y-69126260D01*
X67909601Y-69303742D01*
X67874977Y-69477813D01*
X67807057Y-69641785D01*
X67708454Y-69789355D01*
X67582955Y-69914854D01*
X67435385Y-70013457D01*
X67271413Y-70081377D01*
X67122113Y-70111074D01*
X67097343Y-70116001D01*
X66919859Y-70116001D01*
X66895089Y-70111074D01*
X66745789Y-70081377D01*
X66581817Y-70013457D01*
X66434247Y-69914854D01*
X66308748Y-69789355D01*
X66210145Y-69641785D01*
X66142225Y-69477813D01*
X66107601Y-69303742D01*
X66107601Y-69126260D01*
X66142225Y-68952189D01*
X66210145Y-68788217D01*
X66308748Y-68640647D01*
X66434247Y-68515148D01*
X66581817Y-68416545D01*
X66745789Y-68348625D01*
X66895089Y-68318928D01*
X66919859Y-68314001D01*
X67097343Y-68314001D01*
X67122113Y-68318928D01*
X67122113Y-68318928D01*
G37*
G36*
X69662113Y-68318928D02*
G01*
X69811413Y-68348625D01*
X69975385Y-68416545D01*
X70122955Y-68515148D01*
X70248454Y-68640647D01*
X70347057Y-68788217D01*
X70414977Y-68952189D01*
X70449601Y-69126260D01*
X70449601Y-69303742D01*
X70414977Y-69477813D01*
X70347057Y-69641785D01*
X70248454Y-69789355D01*
X70122955Y-69914854D01*
X69975385Y-70013457D01*
X69811413Y-70081377D01*
X69662113Y-70111074D01*
X69637343Y-70116001D01*
X69459859Y-70116001D01*
X69435089Y-70111074D01*
X69285789Y-70081377D01*
X69121817Y-70013457D01*
X68974247Y-69914854D01*
X68848748Y-69789355D01*
X68750145Y-69641785D01*
X68682225Y-69477813D01*
X68647601Y-69303742D01*
X68647601Y-69126260D01*
X68682225Y-68952189D01*
X68750145Y-68788217D01*
X68848748Y-68640647D01*
X68974247Y-68515148D01*
X69121817Y-68416545D01*
X69285789Y-68348625D01*
X69435089Y-68318928D01*
X69459859Y-68314001D01*
X69637343Y-68314001D01*
X69662113Y-68318928D01*
X69662113Y-68318928D01*
G37*
G36*
X77282113Y-68318928D02*
G01*
X77431413Y-68348625D01*
X77595385Y-68416545D01*
X77742955Y-68515148D01*
X77868454Y-68640647D01*
X77967057Y-68788217D01*
X78034977Y-68952189D01*
X78069601Y-69126260D01*
X78069601Y-69303742D01*
X78034977Y-69477813D01*
X77967057Y-69641785D01*
X77868454Y-69789355D01*
X77742955Y-69914854D01*
X77595385Y-70013457D01*
X77431413Y-70081377D01*
X77282113Y-70111074D01*
X77257343Y-70116001D01*
X77079859Y-70116001D01*
X77055089Y-70111074D01*
X76905789Y-70081377D01*
X76741817Y-70013457D01*
X76594247Y-69914854D01*
X76468748Y-69789355D01*
X76370145Y-69641785D01*
X76302225Y-69477813D01*
X76267601Y-69303742D01*
X76267601Y-69126260D01*
X76302225Y-68952189D01*
X76370145Y-68788217D01*
X76468748Y-68640647D01*
X76594247Y-68515148D01*
X76741817Y-68416545D01*
X76905789Y-68348625D01*
X77055089Y-68318928D01*
X77079859Y-68314001D01*
X77257343Y-68314001D01*
X77282113Y-68318928D01*
X77282113Y-68318928D01*
G37*
G36*
X79822113Y-68318928D02*
G01*
X79971413Y-68348625D01*
X80135385Y-68416545D01*
X80282955Y-68515148D01*
X80408454Y-68640647D01*
X80507057Y-68788217D01*
X80574977Y-68952189D01*
X80609601Y-69126260D01*
X80609601Y-69303742D01*
X80574977Y-69477813D01*
X80507057Y-69641785D01*
X80408454Y-69789355D01*
X80282955Y-69914854D01*
X80135385Y-70013457D01*
X79971413Y-70081377D01*
X79822113Y-70111074D01*
X79797343Y-70116001D01*
X79619859Y-70116001D01*
X79595089Y-70111074D01*
X79445789Y-70081377D01*
X79281817Y-70013457D01*
X79134247Y-69914854D01*
X79008748Y-69789355D01*
X78910145Y-69641785D01*
X78842225Y-69477813D01*
X78807601Y-69303742D01*
X78807601Y-69126260D01*
X78842225Y-68952189D01*
X78910145Y-68788217D01*
X79008748Y-68640647D01*
X79134247Y-68515148D01*
X79281817Y-68416545D01*
X79445789Y-68348625D01*
X79595089Y-68318928D01*
X79619859Y-68314001D01*
X79797343Y-68314001D01*
X79822113Y-68318928D01*
X79822113Y-68318928D01*
G37*
G36*
X82362113Y-68318928D02*
G01*
X82511413Y-68348625D01*
X82675385Y-68416545D01*
X82822955Y-68515148D01*
X82948454Y-68640647D01*
X83047057Y-68788217D01*
X83114977Y-68952189D01*
X83149601Y-69126260D01*
X83149601Y-69303742D01*
X83114977Y-69477813D01*
X83047057Y-69641785D01*
X82948454Y-69789355D01*
X82822955Y-69914854D01*
X82675385Y-70013457D01*
X82511413Y-70081377D01*
X82362113Y-70111074D01*
X82337343Y-70116001D01*
X82159859Y-70116001D01*
X82135089Y-70111074D01*
X81985789Y-70081377D01*
X81821817Y-70013457D01*
X81674247Y-69914854D01*
X81548748Y-69789355D01*
X81450145Y-69641785D01*
X81382225Y-69477813D01*
X81347601Y-69303742D01*
X81347601Y-69126260D01*
X81382225Y-68952189D01*
X81450145Y-68788217D01*
X81548748Y-68640647D01*
X81674247Y-68515148D01*
X81821817Y-68416545D01*
X81985789Y-68348625D01*
X82135089Y-68318928D01*
X82159859Y-68314001D01*
X82337343Y-68314001D01*
X82362113Y-68318928D01*
X82362113Y-68318928D01*
G37*
G36*
X84902113Y-68318928D02*
G01*
X85051413Y-68348625D01*
X85215385Y-68416545D01*
X85362955Y-68515148D01*
X85488454Y-68640647D01*
X85587057Y-68788217D01*
X85654977Y-68952189D01*
X85689601Y-69126260D01*
X85689601Y-69303742D01*
X85654977Y-69477813D01*
X85587057Y-69641785D01*
X85488454Y-69789355D01*
X85362955Y-69914854D01*
X85215385Y-70013457D01*
X85051413Y-70081377D01*
X84902113Y-70111074D01*
X84877343Y-70116001D01*
X84699859Y-70116001D01*
X84675089Y-70111074D01*
X84525789Y-70081377D01*
X84361817Y-70013457D01*
X84214247Y-69914854D01*
X84088748Y-69789355D01*
X83990145Y-69641785D01*
X83922225Y-69477813D01*
X83887601Y-69303742D01*
X83887601Y-69126260D01*
X83922225Y-68952189D01*
X83990145Y-68788217D01*
X84088748Y-68640647D01*
X84214247Y-68515148D01*
X84361817Y-68416545D01*
X84525789Y-68348625D01*
X84675089Y-68318928D01*
X84699859Y-68314001D01*
X84877343Y-68314001D01*
X84902113Y-68318928D01*
X84902113Y-68318928D01*
G37*
G36*
X87442113Y-68318928D02*
G01*
X87591413Y-68348625D01*
X87755385Y-68416545D01*
X87902955Y-68515148D01*
X88028454Y-68640647D01*
X88127057Y-68788217D01*
X88194977Y-68952189D01*
X88229601Y-69126260D01*
X88229601Y-69303742D01*
X88194977Y-69477813D01*
X88127057Y-69641785D01*
X88028454Y-69789355D01*
X87902955Y-69914854D01*
X87755385Y-70013457D01*
X87591413Y-70081377D01*
X87442113Y-70111074D01*
X87417343Y-70116001D01*
X87239859Y-70116001D01*
X87215089Y-70111074D01*
X87065789Y-70081377D01*
X86901817Y-70013457D01*
X86754247Y-69914854D01*
X86628748Y-69789355D01*
X86530145Y-69641785D01*
X86462225Y-69477813D01*
X86427601Y-69303742D01*
X86427601Y-69126260D01*
X86462225Y-68952189D01*
X86530145Y-68788217D01*
X86628748Y-68640647D01*
X86754247Y-68515148D01*
X86901817Y-68416545D01*
X87065789Y-68348625D01*
X87215089Y-68318928D01*
X87239859Y-68314001D01*
X87417343Y-68314001D01*
X87442113Y-68318928D01*
X87442113Y-68318928D01*
G37*
G36*
X51882113Y-68318928D02*
G01*
X52031413Y-68348625D01*
X52195385Y-68416545D01*
X52342955Y-68515148D01*
X52468454Y-68640647D01*
X52567057Y-68788217D01*
X52634977Y-68952189D01*
X52669601Y-69126260D01*
X52669601Y-69303742D01*
X52634977Y-69477813D01*
X52567057Y-69641785D01*
X52468454Y-69789355D01*
X52342955Y-69914854D01*
X52195385Y-70013457D01*
X52031413Y-70081377D01*
X51882113Y-70111074D01*
X51857343Y-70116001D01*
X51679859Y-70116001D01*
X51655089Y-70111074D01*
X51505789Y-70081377D01*
X51341817Y-70013457D01*
X51194247Y-69914854D01*
X51068748Y-69789355D01*
X50970145Y-69641785D01*
X50902225Y-69477813D01*
X50867601Y-69303742D01*
X50867601Y-69126260D01*
X50902225Y-68952189D01*
X50970145Y-68788217D01*
X51068748Y-68640647D01*
X51194247Y-68515148D01*
X51341817Y-68416545D01*
X51505789Y-68348625D01*
X51655089Y-68318928D01*
X51679859Y-68314001D01*
X51857343Y-68314001D01*
X51882113Y-68318928D01*
X51882113Y-68318928D01*
G37*
G36*
X74742113Y-68318928D02*
G01*
X74891413Y-68348625D01*
X75055385Y-68416545D01*
X75202955Y-68515148D01*
X75328454Y-68640647D01*
X75427057Y-68788217D01*
X75494977Y-68952189D01*
X75529601Y-69126260D01*
X75529601Y-69303742D01*
X75494977Y-69477813D01*
X75427057Y-69641785D01*
X75328454Y-69789355D01*
X75202955Y-69914854D01*
X75055385Y-70013457D01*
X74891413Y-70081377D01*
X74742113Y-70111074D01*
X74717343Y-70116001D01*
X74539859Y-70116001D01*
X74515089Y-70111074D01*
X74365789Y-70081377D01*
X74201817Y-70013457D01*
X74054247Y-69914854D01*
X73928748Y-69789355D01*
X73830145Y-69641785D01*
X73762225Y-69477813D01*
X73727601Y-69303742D01*
X73727601Y-69126260D01*
X73762225Y-68952189D01*
X73830145Y-68788217D01*
X73928748Y-68640647D01*
X74054247Y-68515148D01*
X74201817Y-68416545D01*
X74365789Y-68348625D01*
X74515089Y-68318928D01*
X74539859Y-68314001D01*
X74717343Y-68314001D01*
X74742113Y-68318928D01*
X74742113Y-68318928D01*
G37*
G36*
X48315421Y-66151144D02*
G01*
X48492101Y-66186288D01*
X48574903Y-66220586D01*
X48824956Y-66324161D01*
X48888108Y-66366358D01*
X49124521Y-66524324D01*
X49379278Y-66779081D01*
X49379279Y-66779083D01*
X49579441Y-67078646D01*
X49717314Y-67411502D01*
X49787601Y-67764859D01*
X49787601Y-68125143D01*
X49717314Y-68478500D01*
X49579441Y-68811356D01*
X49579440Y-68811357D01*
X49379278Y-69110921D01*
X49124521Y-69365678D01*
X48973721Y-69466439D01*
X48824956Y-69565841D01*
X48641615Y-69641783D01*
X48492101Y-69703714D01*
X48315422Y-69738857D01*
X48138743Y-69774001D01*
X47778459Y-69774001D01*
X47601780Y-69738857D01*
X47425101Y-69703714D01*
X47275587Y-69641783D01*
X47092246Y-69565841D01*
X46943481Y-69466439D01*
X46792681Y-69365678D01*
X46537924Y-69110921D01*
X46337762Y-68811357D01*
X46337761Y-68811356D01*
X46199888Y-68478500D01*
X46129601Y-68125143D01*
X46129601Y-67764859D01*
X46199888Y-67411502D01*
X46337761Y-67078646D01*
X46537923Y-66779083D01*
X46537924Y-66779081D01*
X46792681Y-66524324D01*
X47029094Y-66366358D01*
X47092246Y-66324161D01*
X47342299Y-66220586D01*
X47425101Y-66186288D01*
X47601781Y-66151144D01*
X47778459Y-66116001D01*
X48138743Y-66116001D01*
X48315421Y-66151144D01*
X48315421Y-66151144D01*
G37*
G36*
X94035421Y-66151144D02*
G01*
X94212101Y-66186288D01*
X94294903Y-66220586D01*
X94544956Y-66324161D01*
X94608108Y-66366358D01*
X94844521Y-66524324D01*
X95099278Y-66779081D01*
X95099279Y-66779083D01*
X95299441Y-67078646D01*
X95437314Y-67411502D01*
X95507601Y-67764859D01*
X95507601Y-68125143D01*
X95437314Y-68478500D01*
X95299441Y-68811356D01*
X95299440Y-68811357D01*
X95099278Y-69110921D01*
X94844521Y-69365678D01*
X94693721Y-69466439D01*
X94544956Y-69565841D01*
X94361615Y-69641783D01*
X94212101Y-69703714D01*
X94035422Y-69738857D01*
X93858743Y-69774001D01*
X93498459Y-69774001D01*
X93321780Y-69738857D01*
X93145101Y-69703714D01*
X92995587Y-69641783D01*
X92812246Y-69565841D01*
X92663481Y-69466439D01*
X92512681Y-69365678D01*
X92257924Y-69110921D01*
X92057762Y-68811357D01*
X92057761Y-68811356D01*
X91919888Y-68478500D01*
X91849601Y-68125143D01*
X91849601Y-67764859D01*
X91919888Y-67411502D01*
X92057761Y-67078646D01*
X92257923Y-66779083D01*
X92257924Y-66779081D01*
X92512681Y-66524324D01*
X92749094Y-66366358D01*
X92812246Y-66324161D01*
X93062299Y-66220586D01*
X93145101Y-66186288D01*
X93321781Y-66151144D01*
X93498459Y-66116001D01*
X93858743Y-66116001D01*
X94035421Y-66151144D01*
X94035421Y-66151144D01*
G37*
G36*
X68913642Y-65829781D02*
G01*
X69059414Y-65890162D01*
X69059416Y-65890163D01*
X69190608Y-65977822D01*
X69302178Y-66089392D01*
X69319957Y-66116001D01*
X69389838Y-66220586D01*
X69450219Y-66366358D01*
X69481000Y-66521107D01*
X69481000Y-66678893D01*
X69450219Y-66833642D01*
X69389838Y-66979414D01*
X69389837Y-66979416D01*
X69302178Y-67110608D01*
X69190608Y-67222178D01*
X69059416Y-67309837D01*
X69059415Y-67309838D01*
X69059414Y-67309838D01*
X68913642Y-67370219D01*
X68758893Y-67401000D01*
X68601107Y-67401000D01*
X68446358Y-67370219D01*
X68300586Y-67309838D01*
X68300585Y-67309838D01*
X68300584Y-67309837D01*
X68169392Y-67222178D01*
X68057822Y-67110608D01*
X67970163Y-66979416D01*
X67970162Y-66979414D01*
X67909781Y-66833642D01*
X67879000Y-66678893D01*
X67879000Y-66521107D01*
X67909781Y-66366358D01*
X67970162Y-66220586D01*
X68040043Y-66116001D01*
X68057822Y-66089392D01*
X68169392Y-65977822D01*
X68300584Y-65890163D01*
X68300586Y-65890162D01*
X68446358Y-65829781D01*
X68601107Y-65799000D01*
X68758893Y-65799000D01*
X68913642Y-65829781D01*
X68913642Y-65829781D01*
G37*
G36*
X71453642Y-65829781D02*
G01*
X71599414Y-65890162D01*
X71599416Y-65890163D01*
X71730608Y-65977822D01*
X71842178Y-66089392D01*
X71859957Y-66116001D01*
X71929838Y-66220586D01*
X71990219Y-66366358D01*
X72021000Y-66521107D01*
X72021000Y-66678893D01*
X71990219Y-66833642D01*
X71929838Y-66979414D01*
X71929837Y-66979416D01*
X71842178Y-67110608D01*
X71730608Y-67222178D01*
X71599416Y-67309837D01*
X71599415Y-67309838D01*
X71599414Y-67309838D01*
X71453642Y-67370219D01*
X71298893Y-67401000D01*
X71141107Y-67401000D01*
X70986358Y-67370219D01*
X70840586Y-67309838D01*
X70840585Y-67309838D01*
X70840584Y-67309837D01*
X70709392Y-67222178D01*
X70597822Y-67110608D01*
X70510163Y-66979416D01*
X70510162Y-66979414D01*
X70449781Y-66833642D01*
X70419000Y-66678893D01*
X70419000Y-66521107D01*
X70449781Y-66366358D01*
X70510162Y-66220586D01*
X70580043Y-66116001D01*
X70597822Y-66089392D01*
X70709392Y-65977822D01*
X70840584Y-65890163D01*
X70840586Y-65890162D01*
X70986358Y-65829781D01*
X71141107Y-65799000D01*
X71298893Y-65799000D01*
X71453642Y-65829781D01*
X71453642Y-65829781D01*
G37*
G36*
X66373642Y-65829781D02*
G01*
X66519414Y-65890162D01*
X66519416Y-65890163D01*
X66650608Y-65977822D01*
X66762178Y-66089392D01*
X66779957Y-66116001D01*
X66849838Y-66220586D01*
X66910219Y-66366358D01*
X66941000Y-66521107D01*
X66941000Y-66678893D01*
X66910219Y-66833642D01*
X66849838Y-66979414D01*
X66849837Y-66979416D01*
X66762178Y-67110608D01*
X66650608Y-67222178D01*
X66519416Y-67309837D01*
X66519415Y-67309838D01*
X66519414Y-67309838D01*
X66373642Y-67370219D01*
X66218893Y-67401000D01*
X66061107Y-67401000D01*
X65906358Y-67370219D01*
X65760586Y-67309838D01*
X65760585Y-67309838D01*
X65760584Y-67309837D01*
X65629392Y-67222178D01*
X65517822Y-67110608D01*
X65430163Y-66979416D01*
X65430162Y-66979414D01*
X65369781Y-66833642D01*
X65339000Y-66678893D01*
X65339000Y-66521107D01*
X65369781Y-66366358D01*
X65430162Y-66220586D01*
X65500043Y-66116001D01*
X65517822Y-66089392D01*
X65629392Y-65977822D01*
X65760584Y-65890163D01*
X65760586Y-65890162D01*
X65906358Y-65829781D01*
X66061107Y-65799000D01*
X66218893Y-65799000D01*
X66373642Y-65829781D01*
X66373642Y-65829781D01*
G37*
G36*
X63833642Y-65829781D02*
G01*
X63979414Y-65890162D01*
X63979416Y-65890163D01*
X64110608Y-65977822D01*
X64222178Y-66089392D01*
X64239957Y-66116001D01*
X64309838Y-66220586D01*
X64370219Y-66366358D01*
X64401000Y-66521107D01*
X64401000Y-66678893D01*
X64370219Y-66833642D01*
X64309838Y-66979414D01*
X64309837Y-66979416D01*
X64222178Y-67110608D01*
X64110608Y-67222178D01*
X63979416Y-67309837D01*
X63979415Y-67309838D01*
X63979414Y-67309838D01*
X63833642Y-67370219D01*
X63678893Y-67401000D01*
X63521107Y-67401000D01*
X63366358Y-67370219D01*
X63220586Y-67309838D01*
X63220585Y-67309838D01*
X63220584Y-67309837D01*
X63089392Y-67222178D01*
X62977822Y-67110608D01*
X62890163Y-66979416D01*
X62890162Y-66979414D01*
X62829781Y-66833642D01*
X62799000Y-66678893D01*
X62799000Y-66521107D01*
X62829781Y-66366358D01*
X62890162Y-66220586D01*
X62960043Y-66116001D01*
X62977822Y-66089392D01*
X63089392Y-65977822D01*
X63220584Y-65890163D01*
X63220586Y-65890162D01*
X63366358Y-65829781D01*
X63521107Y-65799000D01*
X63678893Y-65799000D01*
X63833642Y-65829781D01*
X63833642Y-65829781D01*
G37*
G36*
X58753642Y-65829781D02*
G01*
X58899414Y-65890162D01*
X58899416Y-65890163D01*
X59030608Y-65977822D01*
X59142178Y-66089392D01*
X59159957Y-66116001D01*
X59229838Y-66220586D01*
X59290219Y-66366358D01*
X59321000Y-66521107D01*
X59321000Y-66678893D01*
X59290219Y-66833642D01*
X59229838Y-66979414D01*
X59229837Y-66979416D01*
X59142178Y-67110608D01*
X59030608Y-67222178D01*
X58899416Y-67309837D01*
X58899415Y-67309838D01*
X58899414Y-67309838D01*
X58753642Y-67370219D01*
X58598893Y-67401000D01*
X58441107Y-67401000D01*
X58286358Y-67370219D01*
X58140586Y-67309838D01*
X58140585Y-67309838D01*
X58140584Y-67309837D01*
X58009392Y-67222178D01*
X57897822Y-67110608D01*
X57810163Y-66979416D01*
X57810162Y-66979414D01*
X57749781Y-66833642D01*
X57719000Y-66678893D01*
X57719000Y-66521107D01*
X57749781Y-66366358D01*
X57810162Y-66220586D01*
X57880043Y-66116001D01*
X57897822Y-66089392D01*
X58009392Y-65977822D01*
X58140584Y-65890163D01*
X58140586Y-65890162D01*
X58286358Y-65829781D01*
X58441107Y-65799000D01*
X58598893Y-65799000D01*
X58753642Y-65829781D01*
X58753642Y-65829781D01*
G37*
G36*
X56213642Y-65829781D02*
G01*
X56359414Y-65890162D01*
X56359416Y-65890163D01*
X56490608Y-65977822D01*
X56602178Y-66089392D01*
X56619957Y-66116001D01*
X56689838Y-66220586D01*
X56750219Y-66366358D01*
X56781000Y-66521107D01*
X56781000Y-66678893D01*
X56750219Y-66833642D01*
X56689838Y-66979414D01*
X56689837Y-66979416D01*
X56602178Y-67110608D01*
X56490608Y-67222178D01*
X56359416Y-67309837D01*
X56359415Y-67309838D01*
X56359414Y-67309838D01*
X56213642Y-67370219D01*
X56058893Y-67401000D01*
X55901107Y-67401000D01*
X55746358Y-67370219D01*
X55600586Y-67309838D01*
X55600585Y-67309838D01*
X55600584Y-67309837D01*
X55469392Y-67222178D01*
X55357822Y-67110608D01*
X55270163Y-66979416D01*
X55270162Y-66979414D01*
X55209781Y-66833642D01*
X55179000Y-66678893D01*
X55179000Y-66521107D01*
X55209781Y-66366358D01*
X55270162Y-66220586D01*
X55340043Y-66116001D01*
X55357822Y-66089392D01*
X55469392Y-65977822D01*
X55600584Y-65890163D01*
X55600586Y-65890162D01*
X55746358Y-65829781D01*
X55901107Y-65799000D01*
X56058893Y-65799000D01*
X56213642Y-65829781D01*
X56213642Y-65829781D01*
G37*
G36*
X53673642Y-65829781D02*
G01*
X53819414Y-65890162D01*
X53819416Y-65890163D01*
X53950608Y-65977822D01*
X54062178Y-66089392D01*
X54079957Y-66116001D01*
X54149838Y-66220586D01*
X54210219Y-66366358D01*
X54241000Y-66521107D01*
X54241000Y-66678893D01*
X54210219Y-66833642D01*
X54149838Y-66979414D01*
X54149837Y-66979416D01*
X54062178Y-67110608D01*
X53950608Y-67222178D01*
X53819416Y-67309837D01*
X53819415Y-67309838D01*
X53819414Y-67309838D01*
X53673642Y-67370219D01*
X53518893Y-67401000D01*
X53361107Y-67401000D01*
X53206358Y-67370219D01*
X53060586Y-67309838D01*
X53060585Y-67309838D01*
X53060584Y-67309837D01*
X52929392Y-67222178D01*
X52817822Y-67110608D01*
X52730163Y-66979416D01*
X52730162Y-66979414D01*
X52669781Y-66833642D01*
X52639000Y-66678893D01*
X52639000Y-66521107D01*
X52669781Y-66366358D01*
X52730162Y-66220586D01*
X52800043Y-66116001D01*
X52817822Y-66089392D01*
X52929392Y-65977822D01*
X53060584Y-65890163D01*
X53060586Y-65890162D01*
X53206358Y-65829781D01*
X53361107Y-65799000D01*
X53518893Y-65799000D01*
X53673642Y-65829781D01*
X53673642Y-65829781D01*
G37*
G36*
X51701000Y-67401000D02*
G01*
X50099000Y-67401000D01*
X50099000Y-65799000D01*
X51701000Y-65799000D01*
X51701000Y-67401000D01*
X51701000Y-67401000D01*
G37*
G36*
X61293642Y-65829781D02*
G01*
X61439414Y-65890162D01*
X61439416Y-65890163D01*
X61570608Y-65977822D01*
X61682178Y-66089392D01*
X61699957Y-66116001D01*
X61769838Y-66220586D01*
X61830219Y-66366358D01*
X61861000Y-66521107D01*
X61861000Y-66678893D01*
X61830219Y-66833642D01*
X61769838Y-66979414D01*
X61769837Y-66979416D01*
X61682178Y-67110608D01*
X61570608Y-67222178D01*
X61439416Y-67309837D01*
X61439415Y-67309838D01*
X61439414Y-67309838D01*
X61293642Y-67370219D01*
X61138893Y-67401000D01*
X60981107Y-67401000D01*
X60826358Y-67370219D01*
X60680586Y-67309838D01*
X60680585Y-67309838D01*
X60680584Y-67309837D01*
X60549392Y-67222178D01*
X60437822Y-67110608D01*
X60350163Y-66979416D01*
X60350162Y-66979414D01*
X60289781Y-66833642D01*
X60259000Y-66678893D01*
X60259000Y-66521107D01*
X60289781Y-66366358D01*
X60350162Y-66220586D01*
X60420043Y-66116001D01*
X60437822Y-66089392D01*
X60549392Y-65977822D01*
X60680584Y-65890163D01*
X60680586Y-65890162D01*
X60826358Y-65829781D01*
X60981107Y-65799000D01*
X61138893Y-65799000D01*
X61293642Y-65829781D01*
X61293642Y-65829781D01*
G37*
G36*
X87646823Y-62081313D02*
G01*
X87807242Y-62129976D01*
X87939906Y-62200886D01*
X87955078Y-62208996D01*
X88084659Y-62315341D01*
X88191004Y-62444922D01*
X88191005Y-62444924D01*
X88270024Y-62592758D01*
X88318687Y-62753177D01*
X88335117Y-62920000D01*
X88318687Y-63086823D01*
X88270024Y-63247242D01*
X88199114Y-63379906D01*
X88191004Y-63395078D01*
X88084659Y-63524659D01*
X87955078Y-63631004D01*
X87955076Y-63631005D01*
X87807242Y-63710024D01*
X87646823Y-63758687D01*
X87521804Y-63771000D01*
X87438196Y-63771000D01*
X87313177Y-63758687D01*
X87152758Y-63710024D01*
X87004924Y-63631005D01*
X87004922Y-63631004D01*
X86875341Y-63524659D01*
X86768996Y-63395078D01*
X86760886Y-63379906D01*
X86689976Y-63247242D01*
X86641313Y-63086823D01*
X86624883Y-62920000D01*
X86641313Y-62753177D01*
X86689976Y-62592758D01*
X86768995Y-62444924D01*
X86768996Y-62444922D01*
X86875341Y-62315341D01*
X87004922Y-62208996D01*
X87020094Y-62200886D01*
X87152758Y-62129976D01*
X87313177Y-62081313D01*
X87438196Y-62069000D01*
X87521804Y-62069000D01*
X87646823Y-62081313D01*
X87646823Y-62081313D01*
G37*
G36*
X92726823Y-62081313D02*
G01*
X92887242Y-62129976D01*
X93019906Y-62200886D01*
X93035078Y-62208996D01*
X93164659Y-62315341D01*
X93271004Y-62444922D01*
X93271005Y-62444924D01*
X93350024Y-62592758D01*
X93398687Y-62753177D01*
X93415117Y-62920000D01*
X93398687Y-63086823D01*
X93350024Y-63247242D01*
X93279114Y-63379906D01*
X93271004Y-63395078D01*
X93164659Y-63524659D01*
X93035078Y-63631004D01*
X93035076Y-63631005D01*
X92887242Y-63710024D01*
X92726823Y-63758687D01*
X92601804Y-63771000D01*
X92518196Y-63771000D01*
X92393177Y-63758687D01*
X92232758Y-63710024D01*
X92084924Y-63631005D01*
X92084922Y-63631004D01*
X91955341Y-63524659D01*
X91848996Y-63395078D01*
X91840886Y-63379906D01*
X91769976Y-63247242D01*
X91721313Y-63086823D01*
X91704883Y-62920000D01*
X91721313Y-62753177D01*
X91769976Y-62592758D01*
X91848995Y-62444924D01*
X91848996Y-62444922D01*
X91955341Y-62315341D01*
X92084922Y-62208996D01*
X92100094Y-62200886D01*
X92232758Y-62129976D01*
X92393177Y-62081313D01*
X92518196Y-62069000D01*
X92601804Y-62069000D01*
X92726823Y-62081313D01*
X92726823Y-62081313D01*
G37*
G36*
X90186823Y-62081313D02*
G01*
X90347242Y-62129976D01*
X90479906Y-62200886D01*
X90495078Y-62208996D01*
X90624659Y-62315341D01*
X90731004Y-62444922D01*
X90731005Y-62444924D01*
X90810024Y-62592758D01*
X90858687Y-62753177D01*
X90875117Y-62920000D01*
X90858687Y-63086823D01*
X90810024Y-63247242D01*
X90739114Y-63379906D01*
X90731004Y-63395078D01*
X90624659Y-63524659D01*
X90495078Y-63631004D01*
X90495076Y-63631005D01*
X90347242Y-63710024D01*
X90186823Y-63758687D01*
X90061804Y-63771000D01*
X89978196Y-63771000D01*
X89853177Y-63758687D01*
X89692758Y-63710024D01*
X89544924Y-63631005D01*
X89544922Y-63631004D01*
X89415341Y-63524659D01*
X89308996Y-63395078D01*
X89300886Y-63379906D01*
X89229976Y-63247242D01*
X89181313Y-63086823D01*
X89164883Y-62920000D01*
X89181313Y-62753177D01*
X89229976Y-62592758D01*
X89308995Y-62444924D01*
X89308996Y-62444922D01*
X89415341Y-62315341D01*
X89544922Y-62208996D01*
X89560094Y-62200886D01*
X89692758Y-62129976D01*
X89853177Y-62081313D01*
X89978196Y-62069000D01*
X90061804Y-62069000D01*
X90186823Y-62081313D01*
X90186823Y-62081313D01*
G37*
G36*
X85106823Y-62081313D02*
G01*
X85267242Y-62129976D01*
X85399906Y-62200886D01*
X85415078Y-62208996D01*
X85544659Y-62315341D01*
X85651004Y-62444922D01*
X85651005Y-62444924D01*
X85730024Y-62592758D01*
X85778687Y-62753177D01*
X85795117Y-62920000D01*
X85778687Y-63086823D01*
X85730024Y-63247242D01*
X85659114Y-63379906D01*
X85651004Y-63395078D01*
X85544659Y-63524659D01*
X85415078Y-63631004D01*
X85415076Y-63631005D01*
X85267242Y-63710024D01*
X85106823Y-63758687D01*
X84981804Y-63771000D01*
X84898196Y-63771000D01*
X84773177Y-63758687D01*
X84612758Y-63710024D01*
X84464924Y-63631005D01*
X84464922Y-63631004D01*
X84335341Y-63524659D01*
X84228996Y-63395078D01*
X84220886Y-63379906D01*
X84149976Y-63247242D01*
X84101313Y-63086823D01*
X84084883Y-62920000D01*
X84101313Y-62753177D01*
X84149976Y-62592758D01*
X84228995Y-62444924D01*
X84228996Y-62444922D01*
X84335341Y-62315341D01*
X84464922Y-62208996D01*
X84480094Y-62200886D01*
X84612758Y-62129976D01*
X84773177Y-62081313D01*
X84898196Y-62069000D01*
X84981804Y-62069000D01*
X85106823Y-62081313D01*
X85106823Y-62081313D01*
G37*
G36*
X82566823Y-62081313D02*
G01*
X82727242Y-62129976D01*
X82859906Y-62200886D01*
X82875078Y-62208996D01*
X83004659Y-62315341D01*
X83111004Y-62444922D01*
X83111005Y-62444924D01*
X83190024Y-62592758D01*
X83238687Y-62753177D01*
X83255117Y-62920000D01*
X83238687Y-63086823D01*
X83190024Y-63247242D01*
X83119114Y-63379906D01*
X83111004Y-63395078D01*
X83004659Y-63524659D01*
X82875078Y-63631004D01*
X82875076Y-63631005D01*
X82727242Y-63710024D01*
X82566823Y-63758687D01*
X82441804Y-63771000D01*
X82358196Y-63771000D01*
X82233177Y-63758687D01*
X82072758Y-63710024D01*
X81924924Y-63631005D01*
X81924922Y-63631004D01*
X81795341Y-63524659D01*
X81688996Y-63395078D01*
X81680886Y-63379906D01*
X81609976Y-63247242D01*
X81561313Y-63086823D01*
X81544883Y-62920000D01*
X81561313Y-62753177D01*
X81609976Y-62592758D01*
X81688995Y-62444924D01*
X81688996Y-62444922D01*
X81795341Y-62315341D01*
X81924922Y-62208996D01*
X81940094Y-62200886D01*
X82072758Y-62129976D01*
X82233177Y-62081313D01*
X82358196Y-62069000D01*
X82441804Y-62069000D01*
X82566823Y-62081313D01*
X82566823Y-62081313D01*
G37*
G36*
X80026823Y-62081313D02*
G01*
X80187242Y-62129976D01*
X80319906Y-62200886D01*
X80335078Y-62208996D01*
X80464659Y-62315341D01*
X80571004Y-62444922D01*
X80571005Y-62444924D01*
X80650024Y-62592758D01*
X80698687Y-62753177D01*
X80715117Y-62920000D01*
X80698687Y-63086823D01*
X80650024Y-63247242D01*
X80579114Y-63379906D01*
X80571004Y-63395078D01*
X80464659Y-63524659D01*
X80335078Y-63631004D01*
X80335076Y-63631005D01*
X80187242Y-63710024D01*
X80026823Y-63758687D01*
X79901804Y-63771000D01*
X79818196Y-63771000D01*
X79693177Y-63758687D01*
X79532758Y-63710024D01*
X79384924Y-63631005D01*
X79384922Y-63631004D01*
X79255341Y-63524659D01*
X79148996Y-63395078D01*
X79140886Y-63379906D01*
X79069976Y-63247242D01*
X79021313Y-63086823D01*
X79004883Y-62920000D01*
X79021313Y-62753177D01*
X79069976Y-62592758D01*
X79148995Y-62444924D01*
X79148996Y-62444922D01*
X79255341Y-62315341D01*
X79384922Y-62208996D01*
X79400094Y-62200886D01*
X79532758Y-62129976D01*
X79693177Y-62081313D01*
X79818196Y-62069000D01*
X79901804Y-62069000D01*
X80026823Y-62081313D01*
X80026823Y-62081313D01*
G37*
G36*
X77486823Y-62081313D02*
G01*
X77647242Y-62129976D01*
X77779906Y-62200886D01*
X77795078Y-62208996D01*
X77924659Y-62315341D01*
X78031004Y-62444922D01*
X78031005Y-62444924D01*
X78110024Y-62592758D01*
X78158687Y-62753177D01*
X78175117Y-62920000D01*
X78158687Y-63086823D01*
X78110024Y-63247242D01*
X78039114Y-63379906D01*
X78031004Y-63395078D01*
X77924659Y-63524659D01*
X77795078Y-63631004D01*
X77795076Y-63631005D01*
X77647242Y-63710024D01*
X77486823Y-63758687D01*
X77361804Y-63771000D01*
X77278196Y-63771000D01*
X77153177Y-63758687D01*
X76992758Y-63710024D01*
X76844924Y-63631005D01*
X76844922Y-63631004D01*
X76715341Y-63524659D01*
X76608996Y-63395078D01*
X76600886Y-63379906D01*
X76529976Y-63247242D01*
X76481313Y-63086823D01*
X76464883Y-62920000D01*
X76481313Y-62753177D01*
X76529976Y-62592758D01*
X76608995Y-62444924D01*
X76608996Y-62444922D01*
X76715341Y-62315341D01*
X76844922Y-62208996D01*
X76860094Y-62200886D01*
X76992758Y-62129976D01*
X77153177Y-62081313D01*
X77278196Y-62069000D01*
X77361804Y-62069000D01*
X77486823Y-62081313D01*
X77486823Y-62081313D01*
G37*
G36*
X95266823Y-62081313D02*
G01*
X95427242Y-62129976D01*
X95559906Y-62200886D01*
X95575078Y-62208996D01*
X95704659Y-62315341D01*
X95811004Y-62444922D01*
X95811005Y-62444924D01*
X95890024Y-62592758D01*
X95938687Y-62753177D01*
X95955117Y-62920000D01*
X95938687Y-63086823D01*
X95890024Y-63247242D01*
X95819114Y-63379906D01*
X95811004Y-63395078D01*
X95704659Y-63524659D01*
X95575078Y-63631004D01*
X95575076Y-63631005D01*
X95427242Y-63710024D01*
X95266823Y-63758687D01*
X95141804Y-63771000D01*
X95058196Y-63771000D01*
X94933177Y-63758687D01*
X94772758Y-63710024D01*
X94624924Y-63631005D01*
X94624922Y-63631004D01*
X94495341Y-63524659D01*
X94388996Y-63395078D01*
X94380886Y-63379906D01*
X94309976Y-63247242D01*
X94261313Y-63086823D01*
X94244883Y-62920000D01*
X94261313Y-62753177D01*
X94309976Y-62592758D01*
X94388995Y-62444924D01*
X94388996Y-62444922D01*
X94495341Y-62315341D01*
X94624922Y-62208996D01*
X94640094Y-62200886D01*
X94772758Y-62129976D01*
X94933177Y-62081313D01*
X95058196Y-62069000D01*
X95141804Y-62069000D01*
X95266823Y-62081313D01*
X95266823Y-62081313D01*
G37*
G36*
X49131000Y-63201000D02*
G01*
X48229000Y-63201000D01*
X48229000Y-62099000D01*
X49131000Y-62099000D01*
X49131000Y-63201000D01*
X49131000Y-63201000D01*
G37*
G36*
X46921000Y-63201000D02*
G01*
X46019000Y-63201000D01*
X46019000Y-62099000D01*
X46921000Y-62099000D01*
X46921000Y-63201000D01*
X46921000Y-63201000D01*
G37*
G36*
X50131000Y-61651000D02*
G01*
X48529000Y-61651000D01*
X48529000Y-60849000D01*
X50131000Y-60849000D01*
X50131000Y-61651000D01*
X50131000Y-61651000D01*
G37*
G36*
X47667740Y-60008626D02*
G01*
X47716136Y-60018253D01*
X47753902Y-60033896D01*
X47807311Y-60056019D01*
X47807312Y-60056020D01*
X47889369Y-60110848D01*
X47959152Y-60180631D01*
X47986752Y-60221938D01*
X48013981Y-60262689D01*
X48051747Y-60353865D01*
X48071000Y-60450655D01*
X48071000Y-60549345D01*
X48051747Y-60646135D01*
X48013981Y-60737311D01*
X48013980Y-60737312D01*
X47959152Y-60819369D01*
X47889369Y-60889152D01*
X47848062Y-60916752D01*
X47807311Y-60943981D01*
X47753902Y-60966104D01*
X47716136Y-60981747D01*
X47667740Y-60991373D01*
X47619345Y-61001000D01*
X47520655Y-61001000D01*
X47472260Y-60991373D01*
X47423864Y-60981747D01*
X47386098Y-60966104D01*
X47332689Y-60943981D01*
X47291938Y-60916752D01*
X47250631Y-60889152D01*
X47180848Y-60819369D01*
X47126020Y-60737312D01*
X47126019Y-60737311D01*
X47088253Y-60646135D01*
X47069000Y-60549345D01*
X47069000Y-60450655D01*
X47088253Y-60353865D01*
X47126019Y-60262689D01*
X47153248Y-60221938D01*
X47180848Y-60180631D01*
X47250631Y-60110848D01*
X47332688Y-60056020D01*
X47332689Y-60056019D01*
X47386098Y-60033896D01*
X47423864Y-60018253D01*
X47472260Y-60008626D01*
X47520655Y-59999000D01*
X47619345Y-59999000D01*
X47667740Y-60008626D01*
X47667740Y-60008626D01*
G37*
G36*
X88801000Y-61001000D02*
G01*
X86799000Y-61001000D01*
X86799000Y-60399000D01*
X88801000Y-60399000D01*
X88801000Y-61001000D01*
X88801000Y-61001000D01*
G37*
G36*
X86251000Y-61001000D02*
G01*
X84249000Y-61001000D01*
X84249000Y-60399000D01*
X86251000Y-60399000D01*
X86251000Y-61001000D01*
X86251000Y-61001000D01*
G37*
G36*
X71001000Y-60701000D02*
G01*
X70399000Y-60701000D01*
X70399000Y-58699000D01*
X71001000Y-58699000D01*
X71001000Y-60701000D01*
X71001000Y-60701000D01*
G37*
G36*
X70001000Y-60701000D02*
G01*
X69399000Y-60701000D01*
X69399000Y-58699000D01*
X70001000Y-58699000D01*
X70001000Y-60701000D01*
X70001000Y-60701000D01*
G37*
G36*
X86251000Y-60001000D02*
G01*
X84249000Y-60001000D01*
X84249000Y-59399000D01*
X86251000Y-59399000D01*
X86251000Y-60001000D01*
X86251000Y-60001000D01*
G37*
G36*
X88801000Y-60001000D02*
G01*
X86799000Y-60001000D01*
X86799000Y-59399000D01*
X88801000Y-59399000D01*
X88801000Y-60001000D01*
X88801000Y-60001000D01*
G37*
G36*
X50131000Y-58651000D02*
G01*
X48529000Y-58651000D01*
X48529000Y-57849000D01*
X50131000Y-57849000D01*
X50131000Y-58651000D01*
X50131000Y-58651000D01*
G37*
G36*
X71001000Y-58101000D02*
G01*
X70399000Y-58101000D01*
X70399000Y-56099000D01*
X71001000Y-56099000D01*
X71001000Y-58101000D01*
X71001000Y-58101000D01*
G37*
G36*
X70001000Y-58101000D02*
G01*
X69399000Y-58101000D01*
X69399000Y-56099000D01*
X70001000Y-56099000D01*
X70001000Y-58101000D01*
X70001000Y-58101000D01*
G37*
G36*
X47667740Y-57008627D02*
G01*
X47716136Y-57018253D01*
X47753902Y-57033896D01*
X47807311Y-57056019D01*
X47807312Y-57056020D01*
X47889369Y-57110848D01*
X47959152Y-57180631D01*
X47959153Y-57180633D01*
X48013981Y-57262689D01*
X48051747Y-57353865D01*
X48071000Y-57450655D01*
X48071000Y-57549345D01*
X48051747Y-57646135D01*
X48013981Y-57737311D01*
X48013980Y-57737312D01*
X47959152Y-57819369D01*
X47889369Y-57889152D01*
X47848062Y-57916752D01*
X47807311Y-57943981D01*
X47753902Y-57966104D01*
X47716136Y-57981747D01*
X47667740Y-57991373D01*
X47619345Y-58001000D01*
X47520655Y-58001000D01*
X47472260Y-57991373D01*
X47423864Y-57981747D01*
X47386098Y-57966104D01*
X47332689Y-57943981D01*
X47291938Y-57916752D01*
X47250631Y-57889152D01*
X47180848Y-57819369D01*
X47126020Y-57737312D01*
X47126019Y-57737311D01*
X47088253Y-57646135D01*
X47069000Y-57549345D01*
X47069000Y-57450655D01*
X47088253Y-57353865D01*
X47126019Y-57262689D01*
X47180847Y-57180633D01*
X47180848Y-57180631D01*
X47250631Y-57110848D01*
X47332688Y-57056020D01*
X47332689Y-57056019D01*
X47386098Y-57033896D01*
X47423864Y-57018253D01*
X47472260Y-57008627D01*
X47520655Y-56999000D01*
X47619345Y-56999000D01*
X47667740Y-57008627D01*
X47667740Y-57008627D01*
G37*
G36*
X63201000Y-57976000D02*
G01*
X61399000Y-57976000D01*
X61399000Y-57224000D01*
X63201000Y-57224000D01*
X63201000Y-57976000D01*
X63201000Y-57976000D01*
G37*
G36*
X50131000Y-57151000D02*
G01*
X48529000Y-57151000D01*
X48529000Y-56349000D01*
X50131000Y-56349000D01*
X50131000Y-57151000D01*
X50131000Y-57151000D01*
G37*
G36*
X90186823Y-54461313D02*
G01*
X90347242Y-54509976D01*
X90479906Y-54580886D01*
X90495078Y-54588996D01*
X90624659Y-54695341D01*
X90731004Y-54824922D01*
X90731005Y-54824924D01*
X90810024Y-54972758D01*
X90858687Y-55133177D01*
X90875117Y-55300000D01*
X90858687Y-55466823D01*
X90810024Y-55627242D01*
X90739114Y-55759906D01*
X90731004Y-55775078D01*
X90624659Y-55904659D01*
X90495078Y-56011004D01*
X90495076Y-56011005D01*
X90347242Y-56090024D01*
X90186823Y-56138687D01*
X90061804Y-56151000D01*
X89978196Y-56151000D01*
X89853177Y-56138687D01*
X89692758Y-56090024D01*
X89544924Y-56011005D01*
X89544922Y-56011004D01*
X89415341Y-55904659D01*
X89308996Y-55775078D01*
X89300886Y-55759906D01*
X89229976Y-55627242D01*
X89181313Y-55466823D01*
X89164883Y-55300000D01*
X89181313Y-55133177D01*
X89229976Y-54972758D01*
X89308995Y-54824924D01*
X89308996Y-54824922D01*
X89415341Y-54695341D01*
X89544922Y-54588996D01*
X89560094Y-54580886D01*
X89692758Y-54509976D01*
X89853177Y-54461313D01*
X89978196Y-54449000D01*
X90061804Y-54449000D01*
X90186823Y-54461313D01*
X90186823Y-54461313D01*
G37*
G36*
X80026823Y-54461313D02*
G01*
X80187242Y-54509976D01*
X80319906Y-54580886D01*
X80335078Y-54588996D01*
X80464659Y-54695341D01*
X80571004Y-54824922D01*
X80571005Y-54824924D01*
X80650024Y-54972758D01*
X80698687Y-55133177D01*
X80715117Y-55300000D01*
X80698687Y-55466823D01*
X80650024Y-55627242D01*
X80579114Y-55759906D01*
X80571004Y-55775078D01*
X80464659Y-55904659D01*
X80335078Y-56011004D01*
X80335076Y-56011005D01*
X80187242Y-56090024D01*
X80026823Y-56138687D01*
X79901804Y-56151000D01*
X79818196Y-56151000D01*
X79693177Y-56138687D01*
X79532758Y-56090024D01*
X79384924Y-56011005D01*
X79384922Y-56011004D01*
X79255341Y-55904659D01*
X79148996Y-55775078D01*
X79140886Y-55759906D01*
X79069976Y-55627242D01*
X79021313Y-55466823D01*
X79004883Y-55300000D01*
X79021313Y-55133177D01*
X79069976Y-54972758D01*
X79148995Y-54824924D01*
X79148996Y-54824922D01*
X79255341Y-54695341D01*
X79384922Y-54588996D01*
X79400094Y-54580886D01*
X79532758Y-54509976D01*
X79693177Y-54461313D01*
X79818196Y-54449000D01*
X79901804Y-54449000D01*
X80026823Y-54461313D01*
X80026823Y-54461313D01*
G37*
G36*
X82566823Y-54461313D02*
G01*
X82727242Y-54509976D01*
X82859906Y-54580886D01*
X82875078Y-54588996D01*
X83004659Y-54695341D01*
X83111004Y-54824922D01*
X83111005Y-54824924D01*
X83190024Y-54972758D01*
X83238687Y-55133177D01*
X83255117Y-55300000D01*
X83238687Y-55466823D01*
X83190024Y-55627242D01*
X83119114Y-55759906D01*
X83111004Y-55775078D01*
X83004659Y-55904659D01*
X82875078Y-56011004D01*
X82875076Y-56011005D01*
X82727242Y-56090024D01*
X82566823Y-56138687D01*
X82441804Y-56151000D01*
X82358196Y-56151000D01*
X82233177Y-56138687D01*
X82072758Y-56090024D01*
X81924924Y-56011005D01*
X81924922Y-56011004D01*
X81795341Y-55904659D01*
X81688996Y-55775078D01*
X81680886Y-55759906D01*
X81609976Y-55627242D01*
X81561313Y-55466823D01*
X81544883Y-55300000D01*
X81561313Y-55133177D01*
X81609976Y-54972758D01*
X81688995Y-54824924D01*
X81688996Y-54824922D01*
X81795341Y-54695341D01*
X81924922Y-54588996D01*
X81940094Y-54580886D01*
X82072758Y-54509976D01*
X82233177Y-54461313D01*
X82358196Y-54449000D01*
X82441804Y-54449000D01*
X82566823Y-54461313D01*
X82566823Y-54461313D01*
G37*
G36*
X85106823Y-54461313D02*
G01*
X85267242Y-54509976D01*
X85399906Y-54580886D01*
X85415078Y-54588996D01*
X85544659Y-54695341D01*
X85651004Y-54824922D01*
X85651005Y-54824924D01*
X85730024Y-54972758D01*
X85778687Y-55133177D01*
X85795117Y-55300000D01*
X85778687Y-55466823D01*
X85730024Y-55627242D01*
X85659114Y-55759906D01*
X85651004Y-55775078D01*
X85544659Y-55904659D01*
X85415078Y-56011004D01*
X85415076Y-56011005D01*
X85267242Y-56090024D01*
X85106823Y-56138687D01*
X84981804Y-56151000D01*
X84898196Y-56151000D01*
X84773177Y-56138687D01*
X84612758Y-56090024D01*
X84464924Y-56011005D01*
X84464922Y-56011004D01*
X84335341Y-55904659D01*
X84228996Y-55775078D01*
X84220886Y-55759906D01*
X84149976Y-55627242D01*
X84101313Y-55466823D01*
X84084883Y-55300000D01*
X84101313Y-55133177D01*
X84149976Y-54972758D01*
X84228995Y-54824924D01*
X84228996Y-54824922D01*
X84335341Y-54695341D01*
X84464922Y-54588996D01*
X84480094Y-54580886D01*
X84612758Y-54509976D01*
X84773177Y-54461313D01*
X84898196Y-54449000D01*
X84981804Y-54449000D01*
X85106823Y-54461313D01*
X85106823Y-54461313D01*
G37*
G36*
X87646823Y-54461313D02*
G01*
X87807242Y-54509976D01*
X87939906Y-54580886D01*
X87955078Y-54588996D01*
X88084659Y-54695341D01*
X88191004Y-54824922D01*
X88191005Y-54824924D01*
X88270024Y-54972758D01*
X88318687Y-55133177D01*
X88335117Y-55300000D01*
X88318687Y-55466823D01*
X88270024Y-55627242D01*
X88199114Y-55759906D01*
X88191004Y-55775078D01*
X88084659Y-55904659D01*
X87955078Y-56011004D01*
X87955076Y-56011005D01*
X87807242Y-56090024D01*
X87646823Y-56138687D01*
X87521804Y-56151000D01*
X87438196Y-56151000D01*
X87313177Y-56138687D01*
X87152758Y-56090024D01*
X87004924Y-56011005D01*
X87004922Y-56011004D01*
X86875341Y-55904659D01*
X86768996Y-55775078D01*
X86760886Y-55759906D01*
X86689976Y-55627242D01*
X86641313Y-55466823D01*
X86624883Y-55300000D01*
X86641313Y-55133177D01*
X86689976Y-54972758D01*
X86768995Y-54824924D01*
X86768996Y-54824922D01*
X86875341Y-54695341D01*
X87004922Y-54588996D01*
X87020094Y-54580886D01*
X87152758Y-54509976D01*
X87313177Y-54461313D01*
X87438196Y-54449000D01*
X87521804Y-54449000D01*
X87646823Y-54461313D01*
X87646823Y-54461313D01*
G37*
G36*
X92726823Y-54461313D02*
G01*
X92887242Y-54509976D01*
X93019906Y-54580886D01*
X93035078Y-54588996D01*
X93164659Y-54695341D01*
X93271004Y-54824922D01*
X93271005Y-54824924D01*
X93350024Y-54972758D01*
X93398687Y-55133177D01*
X93415117Y-55300000D01*
X93398687Y-55466823D01*
X93350024Y-55627242D01*
X93279114Y-55759906D01*
X93271004Y-55775078D01*
X93164659Y-55904659D01*
X93035078Y-56011004D01*
X93035076Y-56011005D01*
X92887242Y-56090024D01*
X92726823Y-56138687D01*
X92601804Y-56151000D01*
X92518196Y-56151000D01*
X92393177Y-56138687D01*
X92232758Y-56090024D01*
X92084924Y-56011005D01*
X92084922Y-56011004D01*
X91955341Y-55904659D01*
X91848996Y-55775078D01*
X91840886Y-55759906D01*
X91769976Y-55627242D01*
X91721313Y-55466823D01*
X91704883Y-55300000D01*
X91721313Y-55133177D01*
X91769976Y-54972758D01*
X91848995Y-54824924D01*
X91848996Y-54824922D01*
X91955341Y-54695341D01*
X92084922Y-54588996D01*
X92100094Y-54580886D01*
X92232758Y-54509976D01*
X92393177Y-54461313D01*
X92518196Y-54449000D01*
X92601804Y-54449000D01*
X92726823Y-54461313D01*
X92726823Y-54461313D01*
G37*
G36*
X95951000Y-56151000D02*
G01*
X94249000Y-56151000D01*
X94249000Y-54449000D01*
X95951000Y-54449000D01*
X95951000Y-56151000D01*
X95951000Y-56151000D01*
G37*
G36*
X77486823Y-54461313D02*
G01*
X77647242Y-54509976D01*
X77779906Y-54580886D01*
X77795078Y-54588996D01*
X77924659Y-54695341D01*
X78031004Y-54824922D01*
X78031005Y-54824924D01*
X78110024Y-54972758D01*
X78158687Y-55133177D01*
X78175117Y-55300000D01*
X78158687Y-55466823D01*
X78110024Y-55627242D01*
X78039114Y-55759906D01*
X78031004Y-55775078D01*
X77924659Y-55904659D01*
X77795078Y-56011004D01*
X77795076Y-56011005D01*
X77647242Y-56090024D01*
X77486823Y-56138687D01*
X77361804Y-56151000D01*
X77278196Y-56151000D01*
X77153177Y-56138687D01*
X76992758Y-56090024D01*
X76844924Y-56011005D01*
X76844922Y-56011004D01*
X76715341Y-55904659D01*
X76608996Y-55775078D01*
X76600886Y-55759906D01*
X76529976Y-55627242D01*
X76481313Y-55466823D01*
X76464883Y-55300000D01*
X76481313Y-55133177D01*
X76529976Y-54972758D01*
X76608995Y-54824924D01*
X76608996Y-54824922D01*
X76715341Y-54695341D01*
X76844922Y-54588996D01*
X76860094Y-54580886D01*
X76992758Y-54509976D01*
X77153177Y-54461313D01*
X77278196Y-54449000D01*
X77361804Y-54449000D01*
X77486823Y-54461313D01*
X77486823Y-54461313D01*
G37*
G36*
X63201000Y-56076000D02*
G01*
X61399000Y-56076000D01*
X61399000Y-55324000D01*
X63201000Y-55324000D01*
X63201000Y-56076000D01*
X63201000Y-56076000D01*
G37*
G36*
X46921000Y-55901000D02*
G01*
X46019000Y-55901000D01*
X46019000Y-54799000D01*
X46921000Y-54799000D01*
X46921000Y-55901000D01*
X46921000Y-55901000D01*
G37*
G36*
X49131000Y-55901000D02*
G01*
X48229000Y-55901000D01*
X48229000Y-54799000D01*
X49131000Y-54799000D01*
X49131000Y-55901000D01*
X49131000Y-55901000D01*
G37*
G36*
X58753642Y-50589781D02*
G01*
X58899414Y-50650162D01*
X58899416Y-50650163D01*
X59030608Y-50737822D01*
X59142178Y-50849392D01*
X59229837Y-50980584D01*
X59229838Y-50980586D01*
X59290219Y-51126358D01*
X59321000Y-51281107D01*
X59321000Y-51438893D01*
X59290219Y-51593642D01*
X59229838Y-51739414D01*
X59229837Y-51739416D01*
X59142178Y-51870608D01*
X59030608Y-51982178D01*
X58899416Y-52069837D01*
X58899415Y-52069838D01*
X58899414Y-52069838D01*
X58753642Y-52130219D01*
X58598893Y-52161000D01*
X58441107Y-52161000D01*
X58286358Y-52130219D01*
X58140586Y-52069838D01*
X58140585Y-52069838D01*
X58140584Y-52069837D01*
X58009392Y-51982178D01*
X57897822Y-51870608D01*
X57810163Y-51739416D01*
X57810162Y-51739414D01*
X57749781Y-51593642D01*
X57719000Y-51438893D01*
X57719000Y-51281107D01*
X57749781Y-51126358D01*
X57810162Y-50980586D01*
X57810163Y-50980584D01*
X57897822Y-50849392D01*
X58009392Y-50737822D01*
X58140584Y-50650163D01*
X58140586Y-50650162D01*
X58286358Y-50589781D01*
X58441107Y-50559000D01*
X58598893Y-50559000D01*
X58753642Y-50589781D01*
X58753642Y-50589781D01*
G37*
G36*
X68913642Y-50589781D02*
G01*
X69059414Y-50650162D01*
X69059416Y-50650163D01*
X69190608Y-50737822D01*
X69302178Y-50849392D01*
X69389837Y-50980584D01*
X69389838Y-50980586D01*
X69450219Y-51126358D01*
X69481000Y-51281107D01*
X69481000Y-51438893D01*
X69450219Y-51593642D01*
X69389838Y-51739414D01*
X69389837Y-51739416D01*
X69302178Y-51870608D01*
X69190608Y-51982178D01*
X69059416Y-52069837D01*
X69059415Y-52069838D01*
X69059414Y-52069838D01*
X68913642Y-52130219D01*
X68758893Y-52161000D01*
X68601107Y-52161000D01*
X68446358Y-52130219D01*
X68300586Y-52069838D01*
X68300585Y-52069838D01*
X68300584Y-52069837D01*
X68169392Y-51982178D01*
X68057822Y-51870608D01*
X67970163Y-51739416D01*
X67970162Y-51739414D01*
X67909781Y-51593642D01*
X67879000Y-51438893D01*
X67879000Y-51281107D01*
X67909781Y-51126358D01*
X67970162Y-50980586D01*
X67970163Y-50980584D01*
X68057822Y-50849392D01*
X68169392Y-50737822D01*
X68300584Y-50650163D01*
X68300586Y-50650162D01*
X68446358Y-50589781D01*
X68601107Y-50559000D01*
X68758893Y-50559000D01*
X68913642Y-50589781D01*
X68913642Y-50589781D01*
G37*
G36*
X66373642Y-50589781D02*
G01*
X66519414Y-50650162D01*
X66519416Y-50650163D01*
X66650608Y-50737822D01*
X66762178Y-50849392D01*
X66849837Y-50980584D01*
X66849838Y-50980586D01*
X66910219Y-51126358D01*
X66941000Y-51281107D01*
X66941000Y-51438893D01*
X66910219Y-51593642D01*
X66849838Y-51739414D01*
X66849837Y-51739416D01*
X66762178Y-51870608D01*
X66650608Y-51982178D01*
X66519416Y-52069837D01*
X66519415Y-52069838D01*
X66519414Y-52069838D01*
X66373642Y-52130219D01*
X66218893Y-52161000D01*
X66061107Y-52161000D01*
X65906358Y-52130219D01*
X65760586Y-52069838D01*
X65760585Y-52069838D01*
X65760584Y-52069837D01*
X65629392Y-51982178D01*
X65517822Y-51870608D01*
X65430163Y-51739416D01*
X65430162Y-51739414D01*
X65369781Y-51593642D01*
X65339000Y-51438893D01*
X65339000Y-51281107D01*
X65369781Y-51126358D01*
X65430162Y-50980586D01*
X65430163Y-50980584D01*
X65517822Y-50849392D01*
X65629392Y-50737822D01*
X65760584Y-50650163D01*
X65760586Y-50650162D01*
X65906358Y-50589781D01*
X66061107Y-50559000D01*
X66218893Y-50559000D01*
X66373642Y-50589781D01*
X66373642Y-50589781D01*
G37*
G36*
X63833642Y-50589781D02*
G01*
X63979414Y-50650162D01*
X63979416Y-50650163D01*
X64110608Y-50737822D01*
X64222178Y-50849392D01*
X64309837Y-50980584D01*
X64309838Y-50980586D01*
X64370219Y-51126358D01*
X64401000Y-51281107D01*
X64401000Y-51438893D01*
X64370219Y-51593642D01*
X64309838Y-51739414D01*
X64309837Y-51739416D01*
X64222178Y-51870608D01*
X64110608Y-51982178D01*
X63979416Y-52069837D01*
X63979415Y-52069838D01*
X63979414Y-52069838D01*
X63833642Y-52130219D01*
X63678893Y-52161000D01*
X63521107Y-52161000D01*
X63366358Y-52130219D01*
X63220586Y-52069838D01*
X63220585Y-52069838D01*
X63220584Y-52069837D01*
X63089392Y-51982178D01*
X62977822Y-51870608D01*
X62890163Y-51739416D01*
X62890162Y-51739414D01*
X62829781Y-51593642D01*
X62799000Y-51438893D01*
X62799000Y-51281107D01*
X62829781Y-51126358D01*
X62890162Y-50980586D01*
X62890163Y-50980584D01*
X62977822Y-50849392D01*
X63089392Y-50737822D01*
X63220584Y-50650163D01*
X63220586Y-50650162D01*
X63366358Y-50589781D01*
X63521107Y-50559000D01*
X63678893Y-50559000D01*
X63833642Y-50589781D01*
X63833642Y-50589781D01*
G37*
G36*
X61293642Y-50589781D02*
G01*
X61439414Y-50650162D01*
X61439416Y-50650163D01*
X61570608Y-50737822D01*
X61682178Y-50849392D01*
X61769837Y-50980584D01*
X61769838Y-50980586D01*
X61830219Y-51126358D01*
X61861000Y-51281107D01*
X61861000Y-51438893D01*
X61830219Y-51593642D01*
X61769838Y-51739414D01*
X61769837Y-51739416D01*
X61682178Y-51870608D01*
X61570608Y-51982178D01*
X61439416Y-52069837D01*
X61439415Y-52069838D01*
X61439414Y-52069838D01*
X61293642Y-52130219D01*
X61138893Y-52161000D01*
X60981107Y-52161000D01*
X60826358Y-52130219D01*
X60680586Y-52069838D01*
X60680585Y-52069838D01*
X60680584Y-52069837D01*
X60549392Y-51982178D01*
X60437822Y-51870608D01*
X60350163Y-51739416D01*
X60350162Y-51739414D01*
X60289781Y-51593642D01*
X60259000Y-51438893D01*
X60259000Y-51281107D01*
X60289781Y-51126358D01*
X60350162Y-50980586D01*
X60350163Y-50980584D01*
X60437822Y-50849392D01*
X60549392Y-50737822D01*
X60680584Y-50650163D01*
X60680586Y-50650162D01*
X60826358Y-50589781D01*
X60981107Y-50559000D01*
X61138893Y-50559000D01*
X61293642Y-50589781D01*
X61293642Y-50589781D01*
G37*
G36*
X53673642Y-50589781D02*
G01*
X53819414Y-50650162D01*
X53819416Y-50650163D01*
X53950608Y-50737822D01*
X54062178Y-50849392D01*
X54149837Y-50980584D01*
X54149838Y-50980586D01*
X54210219Y-51126358D01*
X54241000Y-51281107D01*
X54241000Y-51438893D01*
X54210219Y-51593642D01*
X54149838Y-51739414D01*
X54149837Y-51739416D01*
X54062178Y-51870608D01*
X53950608Y-51982178D01*
X53819416Y-52069837D01*
X53819415Y-52069838D01*
X53819414Y-52069838D01*
X53673642Y-52130219D01*
X53518893Y-52161000D01*
X53361107Y-52161000D01*
X53206358Y-52130219D01*
X53060586Y-52069838D01*
X53060585Y-52069838D01*
X53060584Y-52069837D01*
X52929392Y-51982178D01*
X52817822Y-51870608D01*
X52730163Y-51739416D01*
X52730162Y-51739414D01*
X52669781Y-51593642D01*
X52639000Y-51438893D01*
X52639000Y-51281107D01*
X52669781Y-51126358D01*
X52730162Y-50980586D01*
X52730163Y-50980584D01*
X52817822Y-50849392D01*
X52929392Y-50737822D01*
X53060584Y-50650163D01*
X53060586Y-50650162D01*
X53206358Y-50589781D01*
X53361107Y-50559000D01*
X53518893Y-50559000D01*
X53673642Y-50589781D01*
X53673642Y-50589781D01*
G37*
G36*
X56213642Y-50589781D02*
G01*
X56359414Y-50650162D01*
X56359416Y-50650163D01*
X56490608Y-50737822D01*
X56602178Y-50849392D01*
X56689837Y-50980584D01*
X56689838Y-50980586D01*
X56750219Y-51126358D01*
X56781000Y-51281107D01*
X56781000Y-51438893D01*
X56750219Y-51593642D01*
X56689838Y-51739414D01*
X56689837Y-51739416D01*
X56602178Y-51870608D01*
X56490608Y-51982178D01*
X56359416Y-52069837D01*
X56359415Y-52069838D01*
X56359414Y-52069838D01*
X56213642Y-52130219D01*
X56058893Y-52161000D01*
X55901107Y-52161000D01*
X55746358Y-52130219D01*
X55600586Y-52069838D01*
X55600585Y-52069838D01*
X55600584Y-52069837D01*
X55469392Y-51982178D01*
X55357822Y-51870608D01*
X55270163Y-51739416D01*
X55270162Y-51739414D01*
X55209781Y-51593642D01*
X55179000Y-51438893D01*
X55179000Y-51281107D01*
X55209781Y-51126358D01*
X55270162Y-50980586D01*
X55270163Y-50980584D01*
X55357822Y-50849392D01*
X55469392Y-50737822D01*
X55600584Y-50650163D01*
X55600586Y-50650162D01*
X55746358Y-50589781D01*
X55901107Y-50559000D01*
X56058893Y-50559000D01*
X56213642Y-50589781D01*
X56213642Y-50589781D01*
G37*
G36*
X71453642Y-50589781D02*
G01*
X71599414Y-50650162D01*
X71599416Y-50650163D01*
X71730608Y-50737822D01*
X71842178Y-50849392D01*
X71929837Y-50980584D01*
X71929838Y-50980586D01*
X71990219Y-51126358D01*
X72021000Y-51281107D01*
X72021000Y-51438893D01*
X71990219Y-51593642D01*
X71929838Y-51739414D01*
X71929837Y-51739416D01*
X71842178Y-51870608D01*
X71730608Y-51982178D01*
X71599416Y-52069837D01*
X71599415Y-52069838D01*
X71599414Y-52069838D01*
X71453642Y-52130219D01*
X71298893Y-52161000D01*
X71141107Y-52161000D01*
X70986358Y-52130219D01*
X70840586Y-52069838D01*
X70840585Y-52069838D01*
X70840584Y-52069837D01*
X70709392Y-51982178D01*
X70597822Y-51870608D01*
X70510163Y-51739416D01*
X70510162Y-51739414D01*
X70449781Y-51593642D01*
X70419000Y-51438893D01*
X70419000Y-51281107D01*
X70449781Y-51126358D01*
X70510162Y-50980586D01*
X70510163Y-50980584D01*
X70597822Y-50849392D01*
X70709392Y-50737822D01*
X70840584Y-50650163D01*
X70840586Y-50650162D01*
X70986358Y-50589781D01*
X71141107Y-50559000D01*
X71298893Y-50559000D01*
X71453642Y-50589781D01*
X71453642Y-50589781D01*
G37*
G36*
X51133642Y-50589781D02*
G01*
X51279414Y-50650162D01*
X51279416Y-50650163D01*
X51410608Y-50737822D01*
X51522178Y-50849392D01*
X51609837Y-50980584D01*
X51609838Y-50980586D01*
X51670219Y-51126358D01*
X51701000Y-51281107D01*
X51701000Y-51438893D01*
X51670219Y-51593642D01*
X51609838Y-51739414D01*
X51609837Y-51739416D01*
X51522178Y-51870608D01*
X51410608Y-51982178D01*
X51279416Y-52069837D01*
X51279415Y-52069838D01*
X51279414Y-52069838D01*
X51133642Y-52130219D01*
X50978893Y-52161000D01*
X50821107Y-52161000D01*
X50666358Y-52130219D01*
X50520586Y-52069838D01*
X50520585Y-52069838D01*
X50520584Y-52069837D01*
X50389392Y-51982178D01*
X50277822Y-51870608D01*
X50190163Y-51739416D01*
X50190162Y-51739414D01*
X50129781Y-51593642D01*
X50099000Y-51438893D01*
X50099000Y-51281107D01*
X50129781Y-51126358D01*
X50190162Y-50980586D01*
X50190163Y-50980584D01*
X50277822Y-50849392D01*
X50389392Y-50737822D01*
X50520584Y-50650163D01*
X50520586Y-50650162D01*
X50666358Y-50589781D01*
X50821107Y-50559000D01*
X50978893Y-50559000D01*
X51133642Y-50589781D01*
X51133642Y-50589781D01*
G37*
G36*
X94035422Y-48371145D02*
G01*
X94212101Y-48406288D01*
X94349974Y-48463397D01*
X94544956Y-48544161D01*
X94544957Y-48544162D01*
X94844521Y-48744324D01*
X95099278Y-48999081D01*
X95099279Y-48999083D01*
X95299441Y-49298646D01*
X95309025Y-49321785D01*
X95437314Y-49631501D01*
X95507601Y-49984860D01*
X95507601Y-50345142D01*
X95437314Y-50698501D01*
X95380205Y-50836374D01*
X95299441Y-51031356D01*
X95200039Y-51180121D01*
X95099278Y-51330921D01*
X94844521Y-51585678D01*
X94693721Y-51686439D01*
X94544956Y-51785841D01*
X94349974Y-51866605D01*
X94212101Y-51923714D01*
X94035421Y-51958858D01*
X93858743Y-51994001D01*
X93498459Y-51994001D01*
X93321780Y-51958857D01*
X93145101Y-51923714D01*
X93007228Y-51866605D01*
X92812246Y-51785841D01*
X92663481Y-51686439D01*
X92512681Y-51585678D01*
X92257924Y-51330921D01*
X92157163Y-51180121D01*
X92057761Y-51031356D01*
X91976997Y-50836374D01*
X91919888Y-50698501D01*
X91849601Y-50345142D01*
X91849601Y-49984860D01*
X91919888Y-49631501D01*
X92048177Y-49321785D01*
X92057761Y-49298646D01*
X92257923Y-48999083D01*
X92257924Y-48999081D01*
X92512681Y-48744324D01*
X92812245Y-48544162D01*
X92812246Y-48544161D01*
X93007228Y-48463397D01*
X93145101Y-48406288D01*
X93321780Y-48371145D01*
X93498459Y-48336001D01*
X93858743Y-48336001D01*
X94035422Y-48371145D01*
X94035422Y-48371145D01*
G37*
G36*
X48315422Y-48371145D02*
G01*
X48492101Y-48406288D01*
X48629974Y-48463397D01*
X48824956Y-48544161D01*
X48824957Y-48544162D01*
X49124521Y-48744324D01*
X49379278Y-48999081D01*
X49379279Y-48999083D01*
X49579441Y-49298646D01*
X49589025Y-49321785D01*
X49717314Y-49631501D01*
X49787601Y-49984860D01*
X49787601Y-50345142D01*
X49717314Y-50698501D01*
X49660205Y-50836374D01*
X49579441Y-51031356D01*
X49480039Y-51180121D01*
X49379278Y-51330921D01*
X49124521Y-51585678D01*
X48973721Y-51686439D01*
X48824956Y-51785841D01*
X48629974Y-51866605D01*
X48492101Y-51923714D01*
X48315421Y-51958858D01*
X48138743Y-51994001D01*
X47778459Y-51994001D01*
X47601780Y-51958857D01*
X47425101Y-51923714D01*
X47287228Y-51866605D01*
X47092246Y-51785841D01*
X46943481Y-51686439D01*
X46792681Y-51585678D01*
X46537924Y-51330921D01*
X46437163Y-51180121D01*
X46337761Y-51031356D01*
X46256997Y-50836374D01*
X46199888Y-50698501D01*
X46129601Y-50345142D01*
X46129601Y-49984860D01*
X46199888Y-49631501D01*
X46328177Y-49321785D01*
X46337761Y-49298646D01*
X46537923Y-48999083D01*
X46537924Y-48999081D01*
X46792681Y-48744324D01*
X47092245Y-48544162D01*
X47092246Y-48544161D01*
X47287228Y-48463397D01*
X47425101Y-48406288D01*
X47601780Y-48371145D01*
X47778459Y-48336001D01*
X48138743Y-48336001D01*
X48315422Y-48371145D01*
X48315422Y-48371145D01*
G37*
G36*
X62042113Y-47998928D02*
G01*
X62191413Y-48028625D01*
X62355385Y-48096545D01*
X62502955Y-48195148D01*
X62628454Y-48320647D01*
X62727057Y-48468217D01*
X62794977Y-48632189D01*
X62829601Y-48806260D01*
X62829601Y-48983742D01*
X62794977Y-49157813D01*
X62727057Y-49321785D01*
X62628454Y-49469355D01*
X62502955Y-49594854D01*
X62355385Y-49693457D01*
X62191413Y-49761377D01*
X62042113Y-49791074D01*
X62017343Y-49796001D01*
X61839859Y-49796001D01*
X61815089Y-49791074D01*
X61665789Y-49761377D01*
X61501817Y-49693457D01*
X61354247Y-49594854D01*
X61228748Y-49469355D01*
X61130145Y-49321785D01*
X61062225Y-49157813D01*
X61027601Y-48983742D01*
X61027601Y-48806260D01*
X61062225Y-48632189D01*
X61130145Y-48468217D01*
X61228748Y-48320647D01*
X61354247Y-48195148D01*
X61501817Y-48096545D01*
X61665789Y-48028625D01*
X61815089Y-47998928D01*
X61839859Y-47994001D01*
X62017343Y-47994001D01*
X62042113Y-47998928D01*
X62042113Y-47998928D01*
G37*
G36*
X64582113Y-47998928D02*
G01*
X64731413Y-48028625D01*
X64895385Y-48096545D01*
X65042955Y-48195148D01*
X65168454Y-48320647D01*
X65267057Y-48468217D01*
X65334977Y-48632189D01*
X65369601Y-48806260D01*
X65369601Y-48983742D01*
X65334977Y-49157813D01*
X65267057Y-49321785D01*
X65168454Y-49469355D01*
X65042955Y-49594854D01*
X64895385Y-49693457D01*
X64731413Y-49761377D01*
X64582113Y-49791074D01*
X64557343Y-49796001D01*
X64379859Y-49796001D01*
X64355089Y-49791074D01*
X64205789Y-49761377D01*
X64041817Y-49693457D01*
X63894247Y-49594854D01*
X63768748Y-49469355D01*
X63670145Y-49321785D01*
X63602225Y-49157813D01*
X63567601Y-48983742D01*
X63567601Y-48806260D01*
X63602225Y-48632189D01*
X63670145Y-48468217D01*
X63768748Y-48320647D01*
X63894247Y-48195148D01*
X64041817Y-48096545D01*
X64205789Y-48028625D01*
X64355089Y-47998928D01*
X64379859Y-47994001D01*
X64557343Y-47994001D01*
X64582113Y-47998928D01*
X64582113Y-47998928D01*
G37*
G36*
X67122113Y-47998928D02*
G01*
X67271413Y-48028625D01*
X67435385Y-48096545D01*
X67582955Y-48195148D01*
X67708454Y-48320647D01*
X67807057Y-48468217D01*
X67874977Y-48632189D01*
X67909601Y-48806260D01*
X67909601Y-48983742D01*
X67874977Y-49157813D01*
X67807057Y-49321785D01*
X67708454Y-49469355D01*
X67582955Y-49594854D01*
X67435385Y-49693457D01*
X67271413Y-49761377D01*
X67122113Y-49791074D01*
X67097343Y-49796001D01*
X66919859Y-49796001D01*
X66895089Y-49791074D01*
X66745789Y-49761377D01*
X66581817Y-49693457D01*
X66434247Y-49594854D01*
X66308748Y-49469355D01*
X66210145Y-49321785D01*
X66142225Y-49157813D01*
X66107601Y-48983742D01*
X66107601Y-48806260D01*
X66142225Y-48632189D01*
X66210145Y-48468217D01*
X66308748Y-48320647D01*
X66434247Y-48195148D01*
X66581817Y-48096545D01*
X66745789Y-48028625D01*
X66895089Y-47998928D01*
X66919859Y-47994001D01*
X67097343Y-47994001D01*
X67122113Y-47998928D01*
X67122113Y-47998928D01*
G37*
G36*
X69662113Y-47998928D02*
G01*
X69811413Y-48028625D01*
X69975385Y-48096545D01*
X70122955Y-48195148D01*
X70248454Y-48320647D01*
X70347057Y-48468217D01*
X70414977Y-48632189D01*
X70449601Y-48806260D01*
X70449601Y-48983742D01*
X70414977Y-49157813D01*
X70347057Y-49321785D01*
X70248454Y-49469355D01*
X70122955Y-49594854D01*
X69975385Y-49693457D01*
X69811413Y-49761377D01*
X69662113Y-49791074D01*
X69637343Y-49796001D01*
X69459859Y-49796001D01*
X69435089Y-49791074D01*
X69285789Y-49761377D01*
X69121817Y-49693457D01*
X68974247Y-49594854D01*
X68848748Y-49469355D01*
X68750145Y-49321785D01*
X68682225Y-49157813D01*
X68647601Y-48983742D01*
X68647601Y-48806260D01*
X68682225Y-48632189D01*
X68750145Y-48468217D01*
X68848748Y-48320647D01*
X68974247Y-48195148D01*
X69121817Y-48096545D01*
X69285789Y-48028625D01*
X69435089Y-47998928D01*
X69459859Y-47994001D01*
X69637343Y-47994001D01*
X69662113Y-47998928D01*
X69662113Y-47998928D01*
G37*
G36*
X72202113Y-47998928D02*
G01*
X72351413Y-48028625D01*
X72515385Y-48096545D01*
X72662955Y-48195148D01*
X72788454Y-48320647D01*
X72887057Y-48468217D01*
X72954977Y-48632189D01*
X72989601Y-48806260D01*
X72989601Y-48983742D01*
X72954977Y-49157813D01*
X72887057Y-49321785D01*
X72788454Y-49469355D01*
X72662955Y-49594854D01*
X72515385Y-49693457D01*
X72351413Y-49761377D01*
X72202113Y-49791074D01*
X72177343Y-49796001D01*
X71999859Y-49796001D01*
X71975089Y-49791074D01*
X71825789Y-49761377D01*
X71661817Y-49693457D01*
X71514247Y-49594854D01*
X71388748Y-49469355D01*
X71290145Y-49321785D01*
X71222225Y-49157813D01*
X71187601Y-48983742D01*
X71187601Y-48806260D01*
X71222225Y-48632189D01*
X71290145Y-48468217D01*
X71388748Y-48320647D01*
X71514247Y-48195148D01*
X71661817Y-48096545D01*
X71825789Y-48028625D01*
X71975089Y-47998928D01*
X71999859Y-47994001D01*
X72177343Y-47994001D01*
X72202113Y-47998928D01*
X72202113Y-47998928D01*
G37*
G36*
X89982113Y-47998928D02*
G01*
X90131413Y-48028625D01*
X90295385Y-48096545D01*
X90442955Y-48195148D01*
X90568454Y-48320647D01*
X90667057Y-48468217D01*
X90734977Y-48632189D01*
X90769601Y-48806260D01*
X90769601Y-48983742D01*
X90734977Y-49157813D01*
X90667057Y-49321785D01*
X90568454Y-49469355D01*
X90442955Y-49594854D01*
X90295385Y-49693457D01*
X90131413Y-49761377D01*
X89982113Y-49791074D01*
X89957343Y-49796001D01*
X89779859Y-49796001D01*
X89755089Y-49791074D01*
X89605789Y-49761377D01*
X89441817Y-49693457D01*
X89294247Y-49594854D01*
X89168748Y-49469355D01*
X89070145Y-49321785D01*
X89002225Y-49157813D01*
X88967601Y-48983742D01*
X88967601Y-48806260D01*
X89002225Y-48632189D01*
X89070145Y-48468217D01*
X89168748Y-48320647D01*
X89294247Y-48195148D01*
X89441817Y-48096545D01*
X89605789Y-48028625D01*
X89755089Y-47998928D01*
X89779859Y-47994001D01*
X89957343Y-47994001D01*
X89982113Y-47998928D01*
X89982113Y-47998928D01*
G37*
G36*
X87442113Y-47998928D02*
G01*
X87591413Y-48028625D01*
X87755385Y-48096545D01*
X87902955Y-48195148D01*
X88028454Y-48320647D01*
X88127057Y-48468217D01*
X88194977Y-48632189D01*
X88229601Y-48806260D01*
X88229601Y-48983742D01*
X88194977Y-49157813D01*
X88127057Y-49321785D01*
X88028454Y-49469355D01*
X87902955Y-49594854D01*
X87755385Y-49693457D01*
X87591413Y-49761377D01*
X87442113Y-49791074D01*
X87417343Y-49796001D01*
X87239859Y-49796001D01*
X87215089Y-49791074D01*
X87065789Y-49761377D01*
X86901817Y-49693457D01*
X86754247Y-49594854D01*
X86628748Y-49469355D01*
X86530145Y-49321785D01*
X86462225Y-49157813D01*
X86427601Y-48983742D01*
X86427601Y-48806260D01*
X86462225Y-48632189D01*
X86530145Y-48468217D01*
X86628748Y-48320647D01*
X86754247Y-48195148D01*
X86901817Y-48096545D01*
X87065789Y-48028625D01*
X87215089Y-47998928D01*
X87239859Y-47994001D01*
X87417343Y-47994001D01*
X87442113Y-47998928D01*
X87442113Y-47998928D01*
G37*
G36*
X84902113Y-47998928D02*
G01*
X85051413Y-48028625D01*
X85215385Y-48096545D01*
X85362955Y-48195148D01*
X85488454Y-48320647D01*
X85587057Y-48468217D01*
X85654977Y-48632189D01*
X85689601Y-48806260D01*
X85689601Y-48983742D01*
X85654977Y-49157813D01*
X85587057Y-49321785D01*
X85488454Y-49469355D01*
X85362955Y-49594854D01*
X85215385Y-49693457D01*
X85051413Y-49761377D01*
X84902113Y-49791074D01*
X84877343Y-49796001D01*
X84699859Y-49796001D01*
X84675089Y-49791074D01*
X84525789Y-49761377D01*
X84361817Y-49693457D01*
X84214247Y-49594854D01*
X84088748Y-49469355D01*
X83990145Y-49321785D01*
X83922225Y-49157813D01*
X83887601Y-48983742D01*
X83887601Y-48806260D01*
X83922225Y-48632189D01*
X83990145Y-48468217D01*
X84088748Y-48320647D01*
X84214247Y-48195148D01*
X84361817Y-48096545D01*
X84525789Y-48028625D01*
X84675089Y-47998928D01*
X84699859Y-47994001D01*
X84877343Y-47994001D01*
X84902113Y-47998928D01*
X84902113Y-47998928D01*
G37*
G36*
X82362113Y-47998928D02*
G01*
X82511413Y-48028625D01*
X82675385Y-48096545D01*
X82822955Y-48195148D01*
X82948454Y-48320647D01*
X83047057Y-48468217D01*
X83114977Y-48632189D01*
X83149601Y-48806260D01*
X83149601Y-48983742D01*
X83114977Y-49157813D01*
X83047057Y-49321785D01*
X82948454Y-49469355D01*
X82822955Y-49594854D01*
X82675385Y-49693457D01*
X82511413Y-49761377D01*
X82362113Y-49791074D01*
X82337343Y-49796001D01*
X82159859Y-49796001D01*
X82135089Y-49791074D01*
X81985789Y-49761377D01*
X81821817Y-49693457D01*
X81674247Y-49594854D01*
X81548748Y-49469355D01*
X81450145Y-49321785D01*
X81382225Y-49157813D01*
X81347601Y-48983742D01*
X81347601Y-48806260D01*
X81382225Y-48632189D01*
X81450145Y-48468217D01*
X81548748Y-48320647D01*
X81674247Y-48195148D01*
X81821817Y-48096545D01*
X81985789Y-48028625D01*
X82135089Y-47998928D01*
X82159859Y-47994001D01*
X82337343Y-47994001D01*
X82362113Y-47998928D01*
X82362113Y-47998928D01*
G37*
G36*
X79822113Y-47998928D02*
G01*
X79971413Y-48028625D01*
X80135385Y-48096545D01*
X80282955Y-48195148D01*
X80408454Y-48320647D01*
X80507057Y-48468217D01*
X80574977Y-48632189D01*
X80609601Y-48806260D01*
X80609601Y-48983742D01*
X80574977Y-49157813D01*
X80507057Y-49321785D01*
X80408454Y-49469355D01*
X80282955Y-49594854D01*
X80135385Y-49693457D01*
X79971413Y-49761377D01*
X79822113Y-49791074D01*
X79797343Y-49796001D01*
X79619859Y-49796001D01*
X79595089Y-49791074D01*
X79445789Y-49761377D01*
X79281817Y-49693457D01*
X79134247Y-49594854D01*
X79008748Y-49469355D01*
X78910145Y-49321785D01*
X78842225Y-49157813D01*
X78807601Y-48983742D01*
X78807601Y-48806260D01*
X78842225Y-48632189D01*
X78910145Y-48468217D01*
X79008748Y-48320647D01*
X79134247Y-48195148D01*
X79281817Y-48096545D01*
X79445789Y-48028625D01*
X79595089Y-47998928D01*
X79619859Y-47994001D01*
X79797343Y-47994001D01*
X79822113Y-47998928D01*
X79822113Y-47998928D01*
G37*
G36*
X77282113Y-47998928D02*
G01*
X77431413Y-48028625D01*
X77595385Y-48096545D01*
X77742955Y-48195148D01*
X77868454Y-48320647D01*
X77967057Y-48468217D01*
X78034977Y-48632189D01*
X78069601Y-48806260D01*
X78069601Y-48983742D01*
X78034977Y-49157813D01*
X77967057Y-49321785D01*
X77868454Y-49469355D01*
X77742955Y-49594854D01*
X77595385Y-49693457D01*
X77431413Y-49761377D01*
X77282113Y-49791074D01*
X77257343Y-49796001D01*
X77079859Y-49796001D01*
X77055089Y-49791074D01*
X76905789Y-49761377D01*
X76741817Y-49693457D01*
X76594247Y-49594854D01*
X76468748Y-49469355D01*
X76370145Y-49321785D01*
X76302225Y-49157813D01*
X76267601Y-48983742D01*
X76267601Y-48806260D01*
X76302225Y-48632189D01*
X76370145Y-48468217D01*
X76468748Y-48320647D01*
X76594247Y-48195148D01*
X76741817Y-48096545D01*
X76905789Y-48028625D01*
X77055089Y-47998928D01*
X77079859Y-47994001D01*
X77257343Y-47994001D01*
X77282113Y-47998928D01*
X77282113Y-47998928D01*
G37*
G36*
X74742113Y-47998928D02*
G01*
X74891413Y-48028625D01*
X75055385Y-48096545D01*
X75202955Y-48195148D01*
X75328454Y-48320647D01*
X75427057Y-48468217D01*
X75494977Y-48632189D01*
X75529601Y-48806260D01*
X75529601Y-48983742D01*
X75494977Y-49157813D01*
X75427057Y-49321785D01*
X75328454Y-49469355D01*
X75202955Y-49594854D01*
X75055385Y-49693457D01*
X74891413Y-49761377D01*
X74742113Y-49791074D01*
X74717343Y-49796001D01*
X74539859Y-49796001D01*
X74515089Y-49791074D01*
X74365789Y-49761377D01*
X74201817Y-49693457D01*
X74054247Y-49594854D01*
X73928748Y-49469355D01*
X73830145Y-49321785D01*
X73762225Y-49157813D01*
X73727601Y-48983742D01*
X73727601Y-48806260D01*
X73762225Y-48632189D01*
X73830145Y-48468217D01*
X73928748Y-48320647D01*
X74054247Y-48195148D01*
X74201817Y-48096545D01*
X74365789Y-48028625D01*
X74515089Y-47998928D01*
X74539859Y-47994001D01*
X74717343Y-47994001D01*
X74742113Y-47998928D01*
X74742113Y-47998928D01*
G37*
M02*
