G04 #@! TF.GenerationSoftware,KiCad,Pcbnew,(5.1.2)-1*
G04 #@! TF.CreationDate,2019-07-17T11:01:52+10:00*
G04 #@! TF.ProjectId,led-wing,6c65642d-7769-46e6-972e-6b696361645f,0*
G04 #@! TF.SameCoordinates,Original*
G04 #@! TF.FileFunction,Soldermask,Bot*
G04 #@! TF.FilePolarity,Negative*
%FSLAX46Y46*%
G04 Gerber Fmt 4.6, Leading zero omitted, Abs format (unit mm)*
G04 Created by KiCad (PCBNEW (5.1.2)-1) date 2019-07-17 11:01:52*
%MOMM*%
%LPD*%
G04 APERTURE LIST*
%ADD10C,0.010000*%
%ADD11C,1.700000*%
%ADD12C,3.556000*%
G04 APERTURE END LIST*
D10*
G36*
X103613358Y-118946025D02*
G01*
X103613668Y-118987086D01*
X103614144Y-119023939D01*
X103614763Y-119055448D01*
X103615502Y-119080478D01*
X103616337Y-119097893D01*
X103617244Y-119106557D01*
X103617471Y-119107210D01*
X103623471Y-119109787D01*
X103638787Y-119113922D01*
X103662721Y-119119466D01*
X103694573Y-119126268D01*
X103733644Y-119134179D01*
X103779237Y-119143047D01*
X103820850Y-119150901D01*
X103864601Y-119159151D01*
X103905265Y-119167001D01*
X103941748Y-119174225D01*
X103972957Y-119180599D01*
X103997798Y-119185898D01*
X104015177Y-119189897D01*
X104024000Y-119192372D01*
X104024834Y-119192802D01*
X104028371Y-119199048D01*
X104034916Y-119213151D01*
X104043889Y-119233676D01*
X104054710Y-119259190D01*
X104066800Y-119288258D01*
X104079578Y-119319446D01*
X104092466Y-119351320D01*
X104104882Y-119382447D01*
X104116248Y-119411392D01*
X104125983Y-119436721D01*
X104133508Y-119456999D01*
X104138242Y-119470794D01*
X104139607Y-119476671D01*
X104139605Y-119476678D01*
X104136333Y-119481988D01*
X104127928Y-119494724D01*
X104115025Y-119513948D01*
X104098257Y-119538724D01*
X104078260Y-119568114D01*
X104055669Y-119601180D01*
X104031119Y-119636986D01*
X104025162Y-119645656D01*
X104000277Y-119682085D01*
X103977306Y-119716148D01*
X103956874Y-119746886D01*
X103939606Y-119773339D01*
X103926126Y-119794549D01*
X103917059Y-119809556D01*
X103913028Y-119817401D01*
X103912879Y-119818086D01*
X103916391Y-119823807D01*
X103926292Y-119835602D01*
X103941632Y-119852520D01*
X103961458Y-119873609D01*
X103984820Y-119897919D01*
X104010767Y-119924500D01*
X104038347Y-119952400D01*
X104066609Y-119980669D01*
X104094603Y-120008355D01*
X104121376Y-120034508D01*
X104145978Y-120058178D01*
X104167458Y-120078412D01*
X104184864Y-120094261D01*
X104197246Y-120104774D01*
X104203651Y-120108999D01*
X104203938Y-120109040D01*
X104210058Y-120106243D01*
X104223530Y-120098279D01*
X104243372Y-120085789D01*
X104268598Y-120069410D01*
X104298226Y-120049783D01*
X104331269Y-120027547D01*
X104366745Y-120003341D01*
X104369005Y-120001788D01*
X104404726Y-119977294D01*
X104438139Y-119954499D01*
X104468244Y-119934080D01*
X104494038Y-119916708D01*
X104514521Y-119903060D01*
X104528692Y-119893807D01*
X104535550Y-119889626D01*
X104535670Y-119889568D01*
X104540391Y-119888784D01*
X104548231Y-119889912D01*
X104560143Y-119893299D01*
X104577084Y-119899292D01*
X104600007Y-119908241D01*
X104629867Y-119920491D01*
X104667619Y-119936390D01*
X104687252Y-119944749D01*
X104724852Y-119961018D01*
X104758510Y-119976011D01*
X104787168Y-119989231D01*
X104809772Y-120000175D01*
X104825265Y-120008346D01*
X104832592Y-120013243D01*
X104832948Y-120013710D01*
X104834928Y-120020560D01*
X104838502Y-120036248D01*
X104843434Y-120059616D01*
X104849491Y-120089508D01*
X104856439Y-120124767D01*
X104864044Y-120164236D01*
X104872071Y-120206757D01*
X104872940Y-120211409D01*
X104882180Y-120260146D01*
X104890621Y-120303053D01*
X104898102Y-120339390D01*
X104904463Y-120368418D01*
X104909544Y-120389397D01*
X104913184Y-120401585D01*
X104914714Y-120404451D01*
X104921096Y-120405372D01*
X104936503Y-120406225D01*
X104959798Y-120406989D01*
X104989847Y-120407638D01*
X105025514Y-120408151D01*
X105065663Y-120408503D01*
X105109159Y-120408671D01*
X105120027Y-120408682D01*
X105171548Y-120408649D01*
X105213801Y-120408486D01*
X105247680Y-120408162D01*
X105274077Y-120407647D01*
X105293884Y-120406908D01*
X105307996Y-120405916D01*
X105317303Y-120404639D01*
X105322699Y-120403046D01*
X105324741Y-120401595D01*
X105326999Y-120395095D01*
X105330799Y-120379763D01*
X105335898Y-120356765D01*
X105342050Y-120327271D01*
X105349013Y-120292450D01*
X105356543Y-120253470D01*
X105364236Y-120212365D01*
X105372897Y-120166210D01*
X105380981Y-120124798D01*
X105388286Y-120089062D01*
X105394611Y-120059937D01*
X105399758Y-120038354D01*
X105403525Y-120025249D01*
X105405133Y-120021726D01*
X105411585Y-120017704D01*
X105425987Y-120010714D01*
X105446948Y-120001314D01*
X105473082Y-119990063D01*
X105503000Y-119977519D01*
X105535313Y-119964240D01*
X105568634Y-119950785D01*
X105601575Y-119937712D01*
X105632747Y-119925580D01*
X105660763Y-119914946D01*
X105684233Y-119906369D01*
X105701771Y-119900408D01*
X105711987Y-119897620D01*
X105713842Y-119897556D01*
X105719358Y-119900901D01*
X105732262Y-119909348D01*
X105751573Y-119922236D01*
X105776312Y-119938906D01*
X105805498Y-119958697D01*
X105838151Y-119980948D01*
X105872582Y-120004512D01*
X105907797Y-120028487D01*
X105940662Y-120050526D01*
X105970174Y-120069982D01*
X105995331Y-120086209D01*
X106015130Y-120098558D01*
X106028568Y-120106383D01*
X106034588Y-120109040D01*
X106040258Y-120105537D01*
X106052017Y-120095662D01*
X106068914Y-120080363D01*
X106089997Y-120060590D01*
X106114314Y-120037290D01*
X106140912Y-120011414D01*
X106168838Y-119983908D01*
X106197142Y-119955723D01*
X106224870Y-119927807D01*
X106251071Y-119901109D01*
X106274792Y-119876578D01*
X106295081Y-119855162D01*
X106310985Y-119837810D01*
X106321554Y-119825471D01*
X106325834Y-119819094D01*
X106325880Y-119818792D01*
X106323089Y-119812917D01*
X106315148Y-119799690D01*
X106302705Y-119780102D01*
X106286406Y-119755147D01*
X106266900Y-119725814D01*
X106244834Y-119693098D01*
X106221740Y-119659274D01*
X106197807Y-119624192D01*
X106175813Y-119591493D01*
X106156405Y-119562179D01*
X106140232Y-119537247D01*
X106127942Y-119517696D01*
X106120183Y-119504527D01*
X106117600Y-119498812D01*
X106119920Y-119491386D01*
X106126305Y-119476894D01*
X106135890Y-119457157D01*
X106147810Y-119433991D01*
X106153481Y-119423350D01*
X106166747Y-119397800D01*
X106177375Y-119375514D01*
X106184622Y-119358172D01*
X106187744Y-119347456D01*
X106187771Y-119345823D01*
X106186377Y-119343235D01*
X106182452Y-119339874D01*
X106175381Y-119335467D01*
X106164547Y-119329738D01*
X106149334Y-119322414D01*
X106129125Y-119313220D01*
X106103305Y-119301884D01*
X106071257Y-119288129D01*
X106032365Y-119271684D01*
X105986012Y-119252272D01*
X105931582Y-119229620D01*
X105868459Y-119203454D01*
X105857359Y-119198860D01*
X105802528Y-119176257D01*
X105750342Y-119154911D01*
X105701575Y-119135128D01*
X105656998Y-119117213D01*
X105617386Y-119101473D01*
X105583510Y-119088212D01*
X105556143Y-119077736D01*
X105536060Y-119070352D01*
X105524031Y-119066364D01*
X105520809Y-119065760D01*
X105514897Y-119070949D01*
X105504827Y-119082723D01*
X105492102Y-119099234D01*
X105480629Y-119115173D01*
X105449570Y-119157327D01*
X105420231Y-119191753D01*
X105390682Y-119220203D01*
X105358997Y-119244432D01*
X105323247Y-119266194D01*
X105302918Y-119276863D01*
X105244488Y-119300756D01*
X105184158Y-119315076D01*
X105122953Y-119319979D01*
X105061898Y-119315623D01*
X105002019Y-119302163D01*
X104944342Y-119279756D01*
X104889891Y-119248559D01*
X104839692Y-119208727D01*
X104836411Y-119205664D01*
X104792833Y-119158017D01*
X104757422Y-119104808D01*
X104729755Y-119045354D01*
X104719807Y-119016660D01*
X104714974Y-118999933D01*
X104711632Y-118984165D01*
X104709519Y-118966854D01*
X104708373Y-118945497D01*
X104707935Y-118917593D01*
X104707900Y-118902540D01*
X104708110Y-118870915D01*
X104708916Y-118846936D01*
X104710578Y-118828093D01*
X104713357Y-118811877D01*
X104717516Y-118795778D01*
X104719802Y-118788240D01*
X104744205Y-118726246D01*
X104776690Y-118669961D01*
X104816763Y-118619969D01*
X104863933Y-118576854D01*
X104917707Y-118541201D01*
X104936500Y-118531329D01*
X104983357Y-118510756D01*
X105027726Y-118497234D01*
X105073443Y-118489860D01*
X105121920Y-118487727D01*
X105186989Y-118492586D01*
X105249065Y-118506992D01*
X105307510Y-118530688D01*
X105361687Y-118563416D01*
X105409975Y-118603955D01*
X105426971Y-118622140D01*
X105446791Y-118645762D01*
X105467052Y-118671748D01*
X105485368Y-118697023D01*
X105499354Y-118718514D01*
X105500883Y-118721139D01*
X105509785Y-118732832D01*
X105519264Y-118739872D01*
X105520648Y-118740325D01*
X105527322Y-118738872D01*
X105542833Y-118733641D01*
X105566671Y-118724832D01*
X105598326Y-118712647D01*
X105637287Y-118697287D01*
X105683043Y-118678953D01*
X105735085Y-118657846D01*
X105792901Y-118634166D01*
X105849679Y-118610728D01*
X105903781Y-118588300D01*
X105955286Y-118566914D01*
X106003399Y-118546903D01*
X106047325Y-118528599D01*
X106086268Y-118512334D01*
X106119433Y-118498442D01*
X106146026Y-118487253D01*
X106165249Y-118479102D01*
X106176309Y-118474319D01*
X106178609Y-118473253D01*
X106186716Y-118465020D01*
X106188720Y-118458211D01*
X106186394Y-118450498D01*
X106179995Y-118435745D01*
X106170387Y-118415790D01*
X106158437Y-118392470D01*
X106152672Y-118381642D01*
X106137192Y-118351834D01*
X106126189Y-118328316D01*
X106120007Y-118311875D01*
X106118837Y-118303822D01*
X106122269Y-118296680D01*
X106130700Y-118282538D01*
X106143286Y-118262709D01*
X106159184Y-118238506D01*
X106177551Y-118211241D01*
X106189461Y-118193880D01*
X106221822Y-118146962D01*
X106248815Y-118107682D01*
X106270892Y-118075352D01*
X106288506Y-118049281D01*
X106302109Y-118028781D01*
X106312155Y-118013163D01*
X106319097Y-118001739D01*
X106323388Y-117993819D01*
X106325480Y-117988714D01*
X106325880Y-117986387D01*
X106322399Y-117981121D01*
X106312478Y-117969535D01*
X106296897Y-117952460D01*
X106276437Y-117930721D01*
X106251880Y-117905148D01*
X106224006Y-117876568D01*
X106193597Y-117845809D01*
X106187541Y-117839731D01*
X106156470Y-117808736D01*
X106127382Y-117780010D01*
X106101112Y-117754357D01*
X106078494Y-117732577D01*
X106060363Y-117715473D01*
X106047552Y-117703847D01*
X106040896Y-117698501D01*
X106040413Y-117698266D01*
X106037436Y-117697367D01*
X106034393Y-117697052D01*
X106030460Y-117697835D01*
X106024812Y-117700226D01*
X106016624Y-117704737D01*
X106005072Y-117711879D01*
X105989330Y-117722165D01*
X105968575Y-117736105D01*
X105941980Y-117754212D01*
X105908721Y-117776996D01*
X105867973Y-117804969D01*
X105864266Y-117807515D01*
X105829625Y-117831161D01*
X105797438Y-117852865D01*
X105768706Y-117871973D01*
X105744428Y-117887831D01*
X105725605Y-117899785D01*
X105713237Y-117907181D01*
X105708469Y-117909400D01*
X105702070Y-117907571D01*
X105687455Y-117902390D01*
X105665826Y-117894314D01*
X105638385Y-117883802D01*
X105606333Y-117871312D01*
X105570874Y-117857300D01*
X105553307Y-117850294D01*
X105509314Y-117832557D01*
X105474051Y-117818005D01*
X105446727Y-117806276D01*
X105426551Y-117797006D01*
X105412734Y-117789833D01*
X105404485Y-117784394D01*
X105401059Y-117780444D01*
X105399121Y-117773085D01*
X105395609Y-117756936D01*
X105390762Y-117733202D01*
X105384819Y-117703091D01*
X105378018Y-117667809D01*
X105370597Y-117628562D01*
X105363414Y-117589921D01*
X105355616Y-117548281D01*
X105348154Y-117509669D01*
X105341273Y-117475261D01*
X105335217Y-117446230D01*
X105330232Y-117423751D01*
X105326560Y-117408998D01*
X105324531Y-117403231D01*
X105321360Y-117401433D01*
X105314541Y-117399961D01*
X105303211Y-117398785D01*
X105286509Y-117397877D01*
X105263571Y-117397207D01*
X105233536Y-117396746D01*
X105195541Y-117396465D01*
X105148724Y-117396336D01*
X105118875Y-117396320D01*
X104918954Y-117396320D01*
X104911902Y-117407750D01*
X104909400Y-117415237D01*
X104905372Y-117431536D01*
X104900066Y-117455455D01*
X104893732Y-117485802D01*
X104886617Y-117521384D01*
X104878971Y-117561009D01*
X104871042Y-117603486D01*
X104870838Y-117604600D01*
X104862950Y-117646876D01*
X104855374Y-117686108D01*
X104848352Y-117721145D01*
X104842126Y-117750836D01*
X104836937Y-117774030D01*
X104833026Y-117789576D01*
X104830637Y-117796323D01*
X104830566Y-117796405D01*
X104824301Y-117800090D01*
X104810106Y-117807022D01*
X104789428Y-117816577D01*
X104763713Y-117828134D01*
X104734406Y-117841070D01*
X104702954Y-117854763D01*
X104670802Y-117868591D01*
X104639397Y-117881931D01*
X104610185Y-117894161D01*
X104584611Y-117904659D01*
X104564123Y-117912803D01*
X104550165Y-117917969D01*
X104544394Y-117919560D01*
X104538575Y-117916767D01*
X104525372Y-117908811D01*
X104505749Y-117896319D01*
X104480667Y-117879924D01*
X104451089Y-117860254D01*
X104417976Y-117837939D01*
X104382293Y-117813611D01*
X104376655Y-117809742D01*
X104340538Y-117785048D01*
X104306750Y-117762155D01*
X104276274Y-117741713D01*
X104250088Y-117724371D01*
X104229175Y-117710778D01*
X104214516Y-117701583D01*
X104207090Y-117697434D01*
X104206684Y-117697293D01*
X104202579Y-117698054D01*
X104195668Y-117702214D01*
X104185355Y-117710317D01*
X104171048Y-117722905D01*
X104152154Y-117740521D01*
X104128078Y-117763708D01*
X104098226Y-117793008D01*
X104062005Y-117828964D01*
X104054749Y-117836199D01*
X104018889Y-117872218D01*
X103987378Y-117904356D01*
X103960731Y-117932068D01*
X103939461Y-117954806D01*
X103924081Y-117972023D01*
X103915105Y-117983174D01*
X103912880Y-117987325D01*
X103915672Y-117993560D01*
X103923627Y-118007156D01*
X103936110Y-118027133D01*
X103952487Y-118052508D01*
X103972122Y-118082300D01*
X103994382Y-118115526D01*
X104018631Y-118151205D01*
X104021289Y-118155086D01*
X104045928Y-118191100D01*
X104068914Y-118224822D01*
X104089573Y-118255253D01*
X104107230Y-118281395D01*
X104121211Y-118302248D01*
X104130841Y-118316815D01*
X104135446Y-118324096D01*
X104135587Y-118324352D01*
X104136941Y-118328805D01*
X104136744Y-118335339D01*
X104134631Y-118345059D01*
X104130234Y-118359068D01*
X104123187Y-118378471D01*
X104113124Y-118404373D01*
X104099677Y-118437877D01*
X104090068Y-118461512D01*
X104072981Y-118503366D01*
X104059243Y-118536788D01*
X104048382Y-118562760D01*
X104039926Y-118582264D01*
X104033403Y-118596281D01*
X104028340Y-118605795D01*
X104024266Y-118611786D01*
X104020708Y-118615236D01*
X104017193Y-118617128D01*
X104014840Y-118617945D01*
X104007736Y-118619560D01*
X103991805Y-118622793D01*
X103968215Y-118627420D01*
X103938129Y-118633216D01*
X103902714Y-118639958D01*
X103863135Y-118647420D01*
X103820558Y-118655378D01*
X103816168Y-118656195D01*
X103773481Y-118664252D01*
X103733799Y-118671968D01*
X103698266Y-118679104D01*
X103668028Y-118685420D01*
X103644228Y-118690676D01*
X103628012Y-118694633D01*
X103620524Y-118697050D01*
X103620283Y-118697212D01*
X103618437Y-118700242D01*
X103616928Y-118706563D01*
X103615727Y-118717063D01*
X103614801Y-118732633D01*
X103614121Y-118754159D01*
X103613657Y-118782532D01*
X103613376Y-118818639D01*
X103613250Y-118863370D01*
X103613237Y-118901892D01*
X103613358Y-118946025D01*
X103613358Y-118946025D01*
G37*
X103613358Y-118946025D02*
X103613668Y-118987086D01*
X103614144Y-119023939D01*
X103614763Y-119055448D01*
X103615502Y-119080478D01*
X103616337Y-119097893D01*
X103617244Y-119106557D01*
X103617471Y-119107210D01*
X103623471Y-119109787D01*
X103638787Y-119113922D01*
X103662721Y-119119466D01*
X103694573Y-119126268D01*
X103733644Y-119134179D01*
X103779237Y-119143047D01*
X103820850Y-119150901D01*
X103864601Y-119159151D01*
X103905265Y-119167001D01*
X103941748Y-119174225D01*
X103972957Y-119180599D01*
X103997798Y-119185898D01*
X104015177Y-119189897D01*
X104024000Y-119192372D01*
X104024834Y-119192802D01*
X104028371Y-119199048D01*
X104034916Y-119213151D01*
X104043889Y-119233676D01*
X104054710Y-119259190D01*
X104066800Y-119288258D01*
X104079578Y-119319446D01*
X104092466Y-119351320D01*
X104104882Y-119382447D01*
X104116248Y-119411392D01*
X104125983Y-119436721D01*
X104133508Y-119456999D01*
X104138242Y-119470794D01*
X104139607Y-119476671D01*
X104139605Y-119476678D01*
X104136333Y-119481988D01*
X104127928Y-119494724D01*
X104115025Y-119513948D01*
X104098257Y-119538724D01*
X104078260Y-119568114D01*
X104055669Y-119601180D01*
X104031119Y-119636986D01*
X104025162Y-119645656D01*
X104000277Y-119682085D01*
X103977306Y-119716148D01*
X103956874Y-119746886D01*
X103939606Y-119773339D01*
X103926126Y-119794549D01*
X103917059Y-119809556D01*
X103913028Y-119817401D01*
X103912879Y-119818086D01*
X103916391Y-119823807D01*
X103926292Y-119835602D01*
X103941632Y-119852520D01*
X103961458Y-119873609D01*
X103984820Y-119897919D01*
X104010767Y-119924500D01*
X104038347Y-119952400D01*
X104066609Y-119980669D01*
X104094603Y-120008355D01*
X104121376Y-120034508D01*
X104145978Y-120058178D01*
X104167458Y-120078412D01*
X104184864Y-120094261D01*
X104197246Y-120104774D01*
X104203651Y-120108999D01*
X104203938Y-120109040D01*
X104210058Y-120106243D01*
X104223530Y-120098279D01*
X104243372Y-120085789D01*
X104268598Y-120069410D01*
X104298226Y-120049783D01*
X104331269Y-120027547D01*
X104366745Y-120003341D01*
X104369005Y-120001788D01*
X104404726Y-119977294D01*
X104438139Y-119954499D01*
X104468244Y-119934080D01*
X104494038Y-119916708D01*
X104514521Y-119903060D01*
X104528692Y-119893807D01*
X104535550Y-119889626D01*
X104535670Y-119889568D01*
X104540391Y-119888784D01*
X104548231Y-119889912D01*
X104560143Y-119893299D01*
X104577084Y-119899292D01*
X104600007Y-119908241D01*
X104629867Y-119920491D01*
X104667619Y-119936390D01*
X104687252Y-119944749D01*
X104724852Y-119961018D01*
X104758510Y-119976011D01*
X104787168Y-119989231D01*
X104809772Y-120000175D01*
X104825265Y-120008346D01*
X104832592Y-120013243D01*
X104832948Y-120013710D01*
X104834928Y-120020560D01*
X104838502Y-120036248D01*
X104843434Y-120059616D01*
X104849491Y-120089508D01*
X104856439Y-120124767D01*
X104864044Y-120164236D01*
X104872071Y-120206757D01*
X104872940Y-120211409D01*
X104882180Y-120260146D01*
X104890621Y-120303053D01*
X104898102Y-120339390D01*
X104904463Y-120368418D01*
X104909544Y-120389397D01*
X104913184Y-120401585D01*
X104914714Y-120404451D01*
X104921096Y-120405372D01*
X104936503Y-120406225D01*
X104959798Y-120406989D01*
X104989847Y-120407638D01*
X105025514Y-120408151D01*
X105065663Y-120408503D01*
X105109159Y-120408671D01*
X105120027Y-120408682D01*
X105171548Y-120408649D01*
X105213801Y-120408486D01*
X105247680Y-120408162D01*
X105274077Y-120407647D01*
X105293884Y-120406908D01*
X105307996Y-120405916D01*
X105317303Y-120404639D01*
X105322699Y-120403046D01*
X105324741Y-120401595D01*
X105326999Y-120395095D01*
X105330799Y-120379763D01*
X105335898Y-120356765D01*
X105342050Y-120327271D01*
X105349013Y-120292450D01*
X105356543Y-120253470D01*
X105364236Y-120212365D01*
X105372897Y-120166210D01*
X105380981Y-120124798D01*
X105388286Y-120089062D01*
X105394611Y-120059937D01*
X105399758Y-120038354D01*
X105403525Y-120025249D01*
X105405133Y-120021726D01*
X105411585Y-120017704D01*
X105425987Y-120010714D01*
X105446948Y-120001314D01*
X105473082Y-119990063D01*
X105503000Y-119977519D01*
X105535313Y-119964240D01*
X105568634Y-119950785D01*
X105601575Y-119937712D01*
X105632747Y-119925580D01*
X105660763Y-119914946D01*
X105684233Y-119906369D01*
X105701771Y-119900408D01*
X105711987Y-119897620D01*
X105713842Y-119897556D01*
X105719358Y-119900901D01*
X105732262Y-119909348D01*
X105751573Y-119922236D01*
X105776312Y-119938906D01*
X105805498Y-119958697D01*
X105838151Y-119980948D01*
X105872582Y-120004512D01*
X105907797Y-120028487D01*
X105940662Y-120050526D01*
X105970174Y-120069982D01*
X105995331Y-120086209D01*
X106015130Y-120098558D01*
X106028568Y-120106383D01*
X106034588Y-120109040D01*
X106040258Y-120105537D01*
X106052017Y-120095662D01*
X106068914Y-120080363D01*
X106089997Y-120060590D01*
X106114314Y-120037290D01*
X106140912Y-120011414D01*
X106168838Y-119983908D01*
X106197142Y-119955723D01*
X106224870Y-119927807D01*
X106251071Y-119901109D01*
X106274792Y-119876578D01*
X106295081Y-119855162D01*
X106310985Y-119837810D01*
X106321554Y-119825471D01*
X106325834Y-119819094D01*
X106325880Y-119818792D01*
X106323089Y-119812917D01*
X106315148Y-119799690D01*
X106302705Y-119780102D01*
X106286406Y-119755147D01*
X106266900Y-119725814D01*
X106244834Y-119693098D01*
X106221740Y-119659274D01*
X106197807Y-119624192D01*
X106175813Y-119591493D01*
X106156405Y-119562179D01*
X106140232Y-119537247D01*
X106127942Y-119517696D01*
X106120183Y-119504527D01*
X106117600Y-119498812D01*
X106119920Y-119491386D01*
X106126305Y-119476894D01*
X106135890Y-119457157D01*
X106147810Y-119433991D01*
X106153481Y-119423350D01*
X106166747Y-119397800D01*
X106177375Y-119375514D01*
X106184622Y-119358172D01*
X106187744Y-119347456D01*
X106187771Y-119345823D01*
X106186377Y-119343235D01*
X106182452Y-119339874D01*
X106175381Y-119335467D01*
X106164547Y-119329738D01*
X106149334Y-119322414D01*
X106129125Y-119313220D01*
X106103305Y-119301884D01*
X106071257Y-119288129D01*
X106032365Y-119271684D01*
X105986012Y-119252272D01*
X105931582Y-119229620D01*
X105868459Y-119203454D01*
X105857359Y-119198860D01*
X105802528Y-119176257D01*
X105750342Y-119154911D01*
X105701575Y-119135128D01*
X105656998Y-119117213D01*
X105617386Y-119101473D01*
X105583510Y-119088212D01*
X105556143Y-119077736D01*
X105536060Y-119070352D01*
X105524031Y-119066364D01*
X105520809Y-119065760D01*
X105514897Y-119070949D01*
X105504827Y-119082723D01*
X105492102Y-119099234D01*
X105480629Y-119115173D01*
X105449570Y-119157327D01*
X105420231Y-119191753D01*
X105390682Y-119220203D01*
X105358997Y-119244432D01*
X105323247Y-119266194D01*
X105302918Y-119276863D01*
X105244488Y-119300756D01*
X105184158Y-119315076D01*
X105122953Y-119319979D01*
X105061898Y-119315623D01*
X105002019Y-119302163D01*
X104944342Y-119279756D01*
X104889891Y-119248559D01*
X104839692Y-119208727D01*
X104836411Y-119205664D01*
X104792833Y-119158017D01*
X104757422Y-119104808D01*
X104729755Y-119045354D01*
X104719807Y-119016660D01*
X104714974Y-118999933D01*
X104711632Y-118984165D01*
X104709519Y-118966854D01*
X104708373Y-118945497D01*
X104707935Y-118917593D01*
X104707900Y-118902540D01*
X104708110Y-118870915D01*
X104708916Y-118846936D01*
X104710578Y-118828093D01*
X104713357Y-118811877D01*
X104717516Y-118795778D01*
X104719802Y-118788240D01*
X104744205Y-118726246D01*
X104776690Y-118669961D01*
X104816763Y-118619969D01*
X104863933Y-118576854D01*
X104917707Y-118541201D01*
X104936500Y-118531329D01*
X104983357Y-118510756D01*
X105027726Y-118497234D01*
X105073443Y-118489860D01*
X105121920Y-118487727D01*
X105186989Y-118492586D01*
X105249065Y-118506992D01*
X105307510Y-118530688D01*
X105361687Y-118563416D01*
X105409975Y-118603955D01*
X105426971Y-118622140D01*
X105446791Y-118645762D01*
X105467052Y-118671748D01*
X105485368Y-118697023D01*
X105499354Y-118718514D01*
X105500883Y-118721139D01*
X105509785Y-118732832D01*
X105519264Y-118739872D01*
X105520648Y-118740325D01*
X105527322Y-118738872D01*
X105542833Y-118733641D01*
X105566671Y-118724832D01*
X105598326Y-118712647D01*
X105637287Y-118697287D01*
X105683043Y-118678953D01*
X105735085Y-118657846D01*
X105792901Y-118634166D01*
X105849679Y-118610728D01*
X105903781Y-118588300D01*
X105955286Y-118566914D01*
X106003399Y-118546903D01*
X106047325Y-118528599D01*
X106086268Y-118512334D01*
X106119433Y-118498442D01*
X106146026Y-118487253D01*
X106165249Y-118479102D01*
X106176309Y-118474319D01*
X106178609Y-118473253D01*
X106186716Y-118465020D01*
X106188720Y-118458211D01*
X106186394Y-118450498D01*
X106179995Y-118435745D01*
X106170387Y-118415790D01*
X106158437Y-118392470D01*
X106152672Y-118381642D01*
X106137192Y-118351834D01*
X106126189Y-118328316D01*
X106120007Y-118311875D01*
X106118837Y-118303822D01*
X106122269Y-118296680D01*
X106130700Y-118282538D01*
X106143286Y-118262709D01*
X106159184Y-118238506D01*
X106177551Y-118211241D01*
X106189461Y-118193880D01*
X106221822Y-118146962D01*
X106248815Y-118107682D01*
X106270892Y-118075352D01*
X106288506Y-118049281D01*
X106302109Y-118028781D01*
X106312155Y-118013163D01*
X106319097Y-118001739D01*
X106323388Y-117993819D01*
X106325480Y-117988714D01*
X106325880Y-117986387D01*
X106322399Y-117981121D01*
X106312478Y-117969535D01*
X106296897Y-117952460D01*
X106276437Y-117930721D01*
X106251880Y-117905148D01*
X106224006Y-117876568D01*
X106193597Y-117845809D01*
X106187541Y-117839731D01*
X106156470Y-117808736D01*
X106127382Y-117780010D01*
X106101112Y-117754357D01*
X106078494Y-117732577D01*
X106060363Y-117715473D01*
X106047552Y-117703847D01*
X106040896Y-117698501D01*
X106040413Y-117698266D01*
X106037436Y-117697367D01*
X106034393Y-117697052D01*
X106030460Y-117697835D01*
X106024812Y-117700226D01*
X106016624Y-117704737D01*
X106005072Y-117711879D01*
X105989330Y-117722165D01*
X105968575Y-117736105D01*
X105941980Y-117754212D01*
X105908721Y-117776996D01*
X105867973Y-117804969D01*
X105864266Y-117807515D01*
X105829625Y-117831161D01*
X105797438Y-117852865D01*
X105768706Y-117871973D01*
X105744428Y-117887831D01*
X105725605Y-117899785D01*
X105713237Y-117907181D01*
X105708469Y-117909400D01*
X105702070Y-117907571D01*
X105687455Y-117902390D01*
X105665826Y-117894314D01*
X105638385Y-117883802D01*
X105606333Y-117871312D01*
X105570874Y-117857300D01*
X105553307Y-117850294D01*
X105509314Y-117832557D01*
X105474051Y-117818005D01*
X105446727Y-117806276D01*
X105426551Y-117797006D01*
X105412734Y-117789833D01*
X105404485Y-117784394D01*
X105401059Y-117780444D01*
X105399121Y-117773085D01*
X105395609Y-117756936D01*
X105390762Y-117733202D01*
X105384819Y-117703091D01*
X105378018Y-117667809D01*
X105370597Y-117628562D01*
X105363414Y-117589921D01*
X105355616Y-117548281D01*
X105348154Y-117509669D01*
X105341273Y-117475261D01*
X105335217Y-117446230D01*
X105330232Y-117423751D01*
X105326560Y-117408998D01*
X105324531Y-117403231D01*
X105321360Y-117401433D01*
X105314541Y-117399961D01*
X105303211Y-117398785D01*
X105286509Y-117397877D01*
X105263571Y-117397207D01*
X105233536Y-117396746D01*
X105195541Y-117396465D01*
X105148724Y-117396336D01*
X105118875Y-117396320D01*
X104918954Y-117396320D01*
X104911902Y-117407750D01*
X104909400Y-117415237D01*
X104905372Y-117431536D01*
X104900066Y-117455455D01*
X104893732Y-117485802D01*
X104886617Y-117521384D01*
X104878971Y-117561009D01*
X104871042Y-117603486D01*
X104870838Y-117604600D01*
X104862950Y-117646876D01*
X104855374Y-117686108D01*
X104848352Y-117721145D01*
X104842126Y-117750836D01*
X104836937Y-117774030D01*
X104833026Y-117789576D01*
X104830637Y-117796323D01*
X104830566Y-117796405D01*
X104824301Y-117800090D01*
X104810106Y-117807022D01*
X104789428Y-117816577D01*
X104763713Y-117828134D01*
X104734406Y-117841070D01*
X104702954Y-117854763D01*
X104670802Y-117868591D01*
X104639397Y-117881931D01*
X104610185Y-117894161D01*
X104584611Y-117904659D01*
X104564123Y-117912803D01*
X104550165Y-117917969D01*
X104544394Y-117919560D01*
X104538575Y-117916767D01*
X104525372Y-117908811D01*
X104505749Y-117896319D01*
X104480667Y-117879924D01*
X104451089Y-117860254D01*
X104417976Y-117837939D01*
X104382293Y-117813611D01*
X104376655Y-117809742D01*
X104340538Y-117785048D01*
X104306750Y-117762155D01*
X104276274Y-117741713D01*
X104250088Y-117724371D01*
X104229175Y-117710778D01*
X104214516Y-117701583D01*
X104207090Y-117697434D01*
X104206684Y-117697293D01*
X104202579Y-117698054D01*
X104195668Y-117702214D01*
X104185355Y-117710317D01*
X104171048Y-117722905D01*
X104152154Y-117740521D01*
X104128078Y-117763708D01*
X104098226Y-117793008D01*
X104062005Y-117828964D01*
X104054749Y-117836199D01*
X104018889Y-117872218D01*
X103987378Y-117904356D01*
X103960731Y-117932068D01*
X103939461Y-117954806D01*
X103924081Y-117972023D01*
X103915105Y-117983174D01*
X103912880Y-117987325D01*
X103915672Y-117993560D01*
X103923627Y-118007156D01*
X103936110Y-118027133D01*
X103952487Y-118052508D01*
X103972122Y-118082300D01*
X103994382Y-118115526D01*
X104018631Y-118151205D01*
X104021289Y-118155086D01*
X104045928Y-118191100D01*
X104068914Y-118224822D01*
X104089573Y-118255253D01*
X104107230Y-118281395D01*
X104121211Y-118302248D01*
X104130841Y-118316815D01*
X104135446Y-118324096D01*
X104135587Y-118324352D01*
X104136941Y-118328805D01*
X104136744Y-118335339D01*
X104134631Y-118345059D01*
X104130234Y-118359068D01*
X104123187Y-118378471D01*
X104113124Y-118404373D01*
X104099677Y-118437877D01*
X104090068Y-118461512D01*
X104072981Y-118503366D01*
X104059243Y-118536788D01*
X104048382Y-118562760D01*
X104039926Y-118582264D01*
X104033403Y-118596281D01*
X104028340Y-118605795D01*
X104024266Y-118611786D01*
X104020708Y-118615236D01*
X104017193Y-118617128D01*
X104014840Y-118617945D01*
X104007736Y-118619560D01*
X103991805Y-118622793D01*
X103968215Y-118627420D01*
X103938129Y-118633216D01*
X103902714Y-118639958D01*
X103863135Y-118647420D01*
X103820558Y-118655378D01*
X103816168Y-118656195D01*
X103773481Y-118664252D01*
X103733799Y-118671968D01*
X103698266Y-118679104D01*
X103668028Y-118685420D01*
X103644228Y-118690676D01*
X103628012Y-118694633D01*
X103620524Y-118697050D01*
X103620283Y-118697212D01*
X103618437Y-118700242D01*
X103616928Y-118706563D01*
X103615727Y-118717063D01*
X103614801Y-118732633D01*
X103614121Y-118754159D01*
X103613657Y-118782532D01*
X103613376Y-118818639D01*
X103613250Y-118863370D01*
X103613237Y-118901892D01*
X103613358Y-118946025D01*
G36*
X102325960Y-107755941D02*
G01*
X102392395Y-107873545D01*
X102495045Y-107967023D01*
X102581124Y-108010812D01*
X102719614Y-108041422D01*
X102857591Y-108032321D01*
X102979084Y-107984973D01*
X102997850Y-107972588D01*
X103085408Y-107882149D01*
X103145553Y-107763271D01*
X103175418Y-107630333D01*
X103172134Y-107497713D01*
X103132832Y-107379790D01*
X103120244Y-107359006D01*
X103041394Y-107276737D01*
X102932770Y-107208914D01*
X102815295Y-107166747D01*
X102745799Y-107158400D01*
X102636575Y-107177674D01*
X102522110Y-107228190D01*
X102423158Y-107298982D01*
X102374295Y-107354642D01*
X102313876Y-107486861D01*
X102298776Y-107623837D01*
X102325960Y-107755941D01*
X102325960Y-107755941D01*
G37*
X102325960Y-107755941D02*
X102392395Y-107873545D01*
X102495045Y-107967023D01*
X102581124Y-108010812D01*
X102719614Y-108041422D01*
X102857591Y-108032321D01*
X102979084Y-107984973D01*
X102997850Y-107972588D01*
X103085408Y-107882149D01*
X103145553Y-107763271D01*
X103175418Y-107630333D01*
X103172134Y-107497713D01*
X103132832Y-107379790D01*
X103120244Y-107359006D01*
X103041394Y-107276737D01*
X102932770Y-107208914D01*
X102815295Y-107166747D01*
X102745799Y-107158400D01*
X102636575Y-107177674D01*
X102522110Y-107228190D01*
X102423158Y-107298982D01*
X102374295Y-107354642D01*
X102313876Y-107486861D01*
X102298776Y-107623837D01*
X102325960Y-107755941D01*
G36*
X105192045Y-107996600D02*
G01*
X105463528Y-107996821D01*
X105688618Y-107997583D01*
X105871721Y-107999026D01*
X106017240Y-108001294D01*
X106129583Y-108004531D01*
X106213155Y-108008878D01*
X106272359Y-108014480D01*
X106311603Y-108021478D01*
X106335292Y-108030016D01*
X106341395Y-108033892D01*
X106378943Y-108060178D01*
X106407085Y-108070891D01*
X106427174Y-108060710D01*
X106440563Y-108024312D01*
X106448605Y-107956376D01*
X106452653Y-107851578D01*
X106454060Y-107704598D01*
X106454200Y-107590200D01*
X106453515Y-107439918D01*
X106451608Y-107308727D01*
X106448702Y-107204427D01*
X106445017Y-107134819D01*
X106440776Y-107107705D01*
X106440488Y-107107600D01*
X106411454Y-107118155D01*
X106354509Y-107144726D01*
X106327200Y-107158400D01*
X106299760Y-107171266D01*
X106269394Y-107181759D01*
X106230920Y-107190120D01*
X106179155Y-107196591D01*
X106108918Y-107201411D01*
X106015027Y-107204822D01*
X105892301Y-107207065D01*
X105735559Y-107208381D01*
X105539617Y-107209010D01*
X105299296Y-107209195D01*
X105234750Y-107209200D01*
X104977269Y-107208947D01*
X104765749Y-107208071D01*
X104595351Y-107206396D01*
X104461238Y-107203748D01*
X104358571Y-107199950D01*
X104282513Y-107194827D01*
X104228226Y-107188203D01*
X104190872Y-107179903D01*
X104166938Y-107170447D01*
X104092000Y-107131695D01*
X104092000Y-107996600D01*
X105192045Y-107996600D01*
X105192045Y-107996600D01*
G37*
X105192045Y-107996600D02*
X105463528Y-107996821D01*
X105688618Y-107997583D01*
X105871721Y-107999026D01*
X106017240Y-108001294D01*
X106129583Y-108004531D01*
X106213155Y-108008878D01*
X106272359Y-108014480D01*
X106311603Y-108021478D01*
X106335292Y-108030016D01*
X106341395Y-108033892D01*
X106378943Y-108060178D01*
X106407085Y-108070891D01*
X106427174Y-108060710D01*
X106440563Y-108024312D01*
X106448605Y-107956376D01*
X106452653Y-107851578D01*
X106454060Y-107704598D01*
X106454200Y-107590200D01*
X106453515Y-107439918D01*
X106451608Y-107308727D01*
X106448702Y-107204427D01*
X106445017Y-107134819D01*
X106440776Y-107107705D01*
X106440488Y-107107600D01*
X106411454Y-107118155D01*
X106354509Y-107144726D01*
X106327200Y-107158400D01*
X106299760Y-107171266D01*
X106269394Y-107181759D01*
X106230920Y-107190120D01*
X106179155Y-107196591D01*
X106108918Y-107201411D01*
X106015027Y-107204822D01*
X105892301Y-107207065D01*
X105735559Y-107208381D01*
X105539617Y-107209010D01*
X105299296Y-107209195D01*
X105234750Y-107209200D01*
X104977269Y-107208947D01*
X104765749Y-107208071D01*
X104595351Y-107206396D01*
X104461238Y-107203748D01*
X104358571Y-107199950D01*
X104282513Y-107194827D01*
X104228226Y-107188203D01*
X104190872Y-107179903D01*
X104166938Y-107170447D01*
X104092000Y-107131695D01*
X104092000Y-107996600D01*
X105192045Y-107996600D01*
G36*
X103228400Y-106413747D02*
G01*
X103228400Y-106959059D01*
X103429787Y-106760279D01*
X103792691Y-106430571D01*
X104066815Y-106216151D01*
X104170400Y-106137703D01*
X104290529Y-106043144D01*
X104414202Y-105943050D01*
X104528419Y-105847998D01*
X104620181Y-105768566D01*
X104647760Y-105743468D01*
X104735212Y-105662036D01*
X104826356Y-105731994D01*
X105015604Y-105867436D01*
X105155050Y-105954978D01*
X105237286Y-106009848D01*
X105316612Y-106071124D01*
X105322607Y-106076273D01*
X105405581Y-106145222D01*
X105508137Y-106225747D01*
X105618288Y-106308942D01*
X105724047Y-106385902D01*
X105813425Y-106447719D01*
X105870547Y-106483376D01*
X105923596Y-106518457D01*
X106002062Y-106576986D01*
X106093252Y-106648820D01*
X106184472Y-106723815D01*
X106263032Y-106791828D01*
X106302020Y-106828200D01*
X106328081Y-106852089D01*
X106375406Y-106894363D01*
X106384570Y-106902477D01*
X106454200Y-106964055D01*
X106454200Y-105837600D01*
X106375923Y-105837600D01*
X106299395Y-105820837D01*
X106194149Y-105773607D01*
X106068239Y-105700493D01*
X105929716Y-105606081D01*
X105815533Y-105518542D01*
X105723313Y-105447268D01*
X105632269Y-105381947D01*
X105559535Y-105334777D01*
X105548833Y-105328671D01*
X105482434Y-105288629D01*
X105434284Y-105253342D01*
X105425500Y-105244699D01*
X105386816Y-105210138D01*
X105330250Y-105169915D01*
X105282093Y-105132226D01*
X105260487Y-105101715D01*
X105260400Y-105100414D01*
X105285091Y-105091538D01*
X105356381Y-105084418D01*
X105470092Y-105079264D01*
X105622044Y-105076283D01*
X105756961Y-105075600D01*
X105936263Y-105076284D01*
X106072270Y-105078695D01*
X106172475Y-105083375D01*
X106244369Y-105090863D01*
X106295443Y-105101698D01*
X106333188Y-105116421D01*
X106334811Y-105117244D01*
X106394491Y-105152717D01*
X106432618Y-105184223D01*
X106434761Y-105187094D01*
X106440323Y-105171597D01*
X106445262Y-105112247D01*
X106449312Y-105015986D01*
X106452207Y-104889759D01*
X106453682Y-104740511D01*
X106453811Y-104688794D01*
X106454200Y-104162289D01*
X106384350Y-104191968D01*
X106325758Y-104220141D01*
X106290370Y-104242224D01*
X106261142Y-104246057D01*
X106185781Y-104249657D01*
X106068951Y-104252959D01*
X105915317Y-104255896D01*
X105729546Y-104258399D01*
X105516302Y-104260404D01*
X105280251Y-104261842D01*
X105026059Y-104262647D01*
X104854290Y-104262799D01*
X104550311Y-104262741D01*
X104292912Y-104262470D01*
X104077874Y-104261846D01*
X103900978Y-104260726D01*
X103758004Y-104258969D01*
X103644733Y-104256433D01*
X103556945Y-104252976D01*
X103490421Y-104248457D01*
X103440941Y-104242733D01*
X103404286Y-104235662D01*
X103376237Y-104227104D01*
X103352574Y-104216916D01*
X103342699Y-104211999D01*
X103280869Y-104181244D01*
X103241660Y-104163190D01*
X103235729Y-104161199D01*
X103233507Y-104185335D01*
X103231556Y-104252688D01*
X103229984Y-104355672D01*
X103228901Y-104486706D01*
X103228415Y-104638205D01*
X103228400Y-104671917D01*
X103228664Y-104845060D01*
X103229831Y-104973629D01*
X103232464Y-105063846D01*
X103237123Y-105121937D01*
X103244372Y-105154124D01*
X103254772Y-105166632D01*
X103268885Y-105165686D01*
X103272850Y-105164164D01*
X103361673Y-105130805D01*
X103450181Y-105106739D01*
X103549141Y-105090580D01*
X103669321Y-105080942D01*
X103821488Y-105076440D01*
X103961088Y-105075600D01*
X104380904Y-105075599D01*
X104307900Y-105151799D01*
X104257557Y-105199413D01*
X104220278Y-105225994D01*
X104213483Y-105228000D01*
X104187550Y-105243137D01*
X104134128Y-105282628D01*
X104064145Y-105337588D01*
X103988529Y-105399132D01*
X103918209Y-105458377D01*
X103864114Y-105506439D01*
X103838000Y-105533239D01*
X103810734Y-105555561D01*
X103754630Y-105593936D01*
X103711000Y-105621802D01*
X103623298Y-105680005D01*
X103536698Y-105742951D01*
X103508362Y-105765299D01*
X103441736Y-105810013D01*
X103380643Y-105835408D01*
X103364390Y-105837600D01*
X103320677Y-105838122D01*
X103287502Y-105843791D01*
X103263412Y-105860762D01*
X103246955Y-105895189D01*
X103236677Y-105953226D01*
X103231127Y-106041028D01*
X103228851Y-106164750D01*
X103228396Y-106330545D01*
X103228400Y-106413747D01*
X103228400Y-106413747D01*
G37*
X103228400Y-106413747D02*
X103228400Y-106959059D01*
X103429787Y-106760279D01*
X103792691Y-106430571D01*
X104066815Y-106216151D01*
X104170400Y-106137703D01*
X104290529Y-106043144D01*
X104414202Y-105943050D01*
X104528419Y-105847998D01*
X104620181Y-105768566D01*
X104647760Y-105743468D01*
X104735212Y-105662036D01*
X104826356Y-105731994D01*
X105015604Y-105867436D01*
X105155050Y-105954978D01*
X105237286Y-106009848D01*
X105316612Y-106071124D01*
X105322607Y-106076273D01*
X105405581Y-106145222D01*
X105508137Y-106225747D01*
X105618288Y-106308942D01*
X105724047Y-106385902D01*
X105813425Y-106447719D01*
X105870547Y-106483376D01*
X105923596Y-106518457D01*
X106002062Y-106576986D01*
X106093252Y-106648820D01*
X106184472Y-106723815D01*
X106263032Y-106791828D01*
X106302020Y-106828200D01*
X106328081Y-106852089D01*
X106375406Y-106894363D01*
X106384570Y-106902477D01*
X106454200Y-106964055D01*
X106454200Y-105837600D01*
X106375923Y-105837600D01*
X106299395Y-105820837D01*
X106194149Y-105773607D01*
X106068239Y-105700493D01*
X105929716Y-105606081D01*
X105815533Y-105518542D01*
X105723313Y-105447268D01*
X105632269Y-105381947D01*
X105559535Y-105334777D01*
X105548833Y-105328671D01*
X105482434Y-105288629D01*
X105434284Y-105253342D01*
X105425500Y-105244699D01*
X105386816Y-105210138D01*
X105330250Y-105169915D01*
X105282093Y-105132226D01*
X105260487Y-105101715D01*
X105260400Y-105100414D01*
X105285091Y-105091538D01*
X105356381Y-105084418D01*
X105470092Y-105079264D01*
X105622044Y-105076283D01*
X105756961Y-105075600D01*
X105936263Y-105076284D01*
X106072270Y-105078695D01*
X106172475Y-105083375D01*
X106244369Y-105090863D01*
X106295443Y-105101698D01*
X106333188Y-105116421D01*
X106334811Y-105117244D01*
X106394491Y-105152717D01*
X106432618Y-105184223D01*
X106434761Y-105187094D01*
X106440323Y-105171597D01*
X106445262Y-105112247D01*
X106449312Y-105015986D01*
X106452207Y-104889759D01*
X106453682Y-104740511D01*
X106453811Y-104688794D01*
X106454200Y-104162289D01*
X106384350Y-104191968D01*
X106325758Y-104220141D01*
X106290370Y-104242224D01*
X106261142Y-104246057D01*
X106185781Y-104249657D01*
X106068951Y-104252959D01*
X105915317Y-104255896D01*
X105729546Y-104258399D01*
X105516302Y-104260404D01*
X105280251Y-104261842D01*
X105026059Y-104262647D01*
X104854290Y-104262799D01*
X104550311Y-104262741D01*
X104292912Y-104262470D01*
X104077874Y-104261846D01*
X103900978Y-104260726D01*
X103758004Y-104258969D01*
X103644733Y-104256433D01*
X103556945Y-104252976D01*
X103490421Y-104248457D01*
X103440941Y-104242733D01*
X103404286Y-104235662D01*
X103376237Y-104227104D01*
X103352574Y-104216916D01*
X103342699Y-104211999D01*
X103280869Y-104181244D01*
X103241660Y-104163190D01*
X103235729Y-104161199D01*
X103233507Y-104185335D01*
X103231556Y-104252688D01*
X103229984Y-104355672D01*
X103228901Y-104486706D01*
X103228415Y-104638205D01*
X103228400Y-104671917D01*
X103228664Y-104845060D01*
X103229831Y-104973629D01*
X103232464Y-105063846D01*
X103237123Y-105121937D01*
X103244372Y-105154124D01*
X103254772Y-105166632D01*
X103268885Y-105165686D01*
X103272850Y-105164164D01*
X103361673Y-105130805D01*
X103450181Y-105106739D01*
X103549141Y-105090580D01*
X103669321Y-105080942D01*
X103821488Y-105076440D01*
X103961088Y-105075600D01*
X104380904Y-105075599D01*
X104307900Y-105151799D01*
X104257557Y-105199413D01*
X104220278Y-105225994D01*
X104213483Y-105228000D01*
X104187550Y-105243137D01*
X104134128Y-105282628D01*
X104064145Y-105337588D01*
X103988529Y-105399132D01*
X103918209Y-105458377D01*
X103864114Y-105506439D01*
X103838000Y-105533239D01*
X103810734Y-105555561D01*
X103754630Y-105593936D01*
X103711000Y-105621802D01*
X103623298Y-105680005D01*
X103536698Y-105742951D01*
X103508362Y-105765299D01*
X103441736Y-105810013D01*
X103380643Y-105835408D01*
X103364390Y-105837600D01*
X103320677Y-105838122D01*
X103287502Y-105843791D01*
X103263412Y-105860762D01*
X103246955Y-105895189D01*
X103236677Y-105953226D01*
X103231127Y-106041028D01*
X103228851Y-106164750D01*
X103228396Y-106330545D01*
X103228400Y-106413747D01*
D11*
X100765000Y-82348600D03*
X100765000Y-84888600D03*
X100765000Y-87428600D03*
X100765000Y-89968600D03*
X100765000Y-92508600D03*
X100765000Y-95048600D03*
X100765000Y-97588600D03*
X100765000Y-100128600D03*
X100765000Y-102668600D03*
X100765000Y-105208600D03*
X100765000Y-107748600D03*
X100765000Y-110288600D03*
X100765000Y-112828600D03*
X100765000Y-115368600D03*
X100765000Y-79808600D03*
X100765000Y-117908600D03*
X121085000Y-89968600D03*
X121085000Y-92508600D03*
X121085000Y-95048600D03*
X121085000Y-97588600D03*
X121085000Y-100128600D03*
X121085000Y-102668600D03*
X121085000Y-105208600D03*
X121085000Y-107748600D03*
X121085000Y-110288600D03*
X121085000Y-112828600D03*
X121085000Y-115368600D03*
X121085000Y-117908600D03*
D12*
X119815000Y-75998600D03*
X119815000Y-121718600D03*
X102035000Y-75998600D03*
X102035000Y-121718600D03*
M02*
