G04 #@! TF.GenerationSoftware,KiCad,Pcbnew,(5.1.2)-1*
G04 #@! TF.CreationDate,2019-07-17T11:01:51+10:00*
G04 #@! TF.ProjectId,led-wing,6c65642d-7769-46e6-972e-6b696361645f,0*
G04 #@! TF.SameCoordinates,Original*
G04 #@! TF.FileFunction,Legend,Top*
G04 #@! TF.FilePolarity,Positive*
%FSLAX46Y46*%
G04 Gerber Fmt 4.6, Leading zero omitted, Abs format (unit mm)*
G04 Created by KiCad (PCBNEW (5.1.2)-1) date 2019-07-17 11:01:51*
%MOMM*%
%LPD*%
G04 APERTURE LIST*
%ADD10C,0.150000*%
%ADD11C,0.120000*%
G04 APERTURE END LIST*
D10*
X114725000Y-103875000D02*
X108750000Y-103875000D01*
X113150000Y-98350000D02*
X108750000Y-98350000D01*
D11*
X119130000Y-100825000D02*
X119130000Y-101325000D01*
X116770000Y-100825000D02*
X116770000Y-101325000D01*
X115770000Y-109925000D02*
X115770000Y-109425000D01*
X118130000Y-109925000D02*
X118130000Y-109425000D01*
X105130000Y-100825000D02*
X105130000Y-101325000D01*
X102770000Y-100825000D02*
X102770000Y-101325000D01*
X103770000Y-109925000D02*
X103770000Y-109425000D01*
X106130000Y-109925000D02*
X106130000Y-109425000D01*
X113262779Y-104240000D02*
X112937221Y-104240000D01*
X113262779Y-105260000D02*
X112937221Y-105260000D01*
D10*
X109616666Y-119692161D02*
X109759523Y-119739780D01*
X109997619Y-119739780D01*
X110092857Y-119692161D01*
X110140476Y-119644542D01*
X110188095Y-119549304D01*
X110188095Y-119454066D01*
X110140476Y-119358828D01*
X110092857Y-119311209D01*
X109997619Y-119263590D01*
X109807142Y-119215971D01*
X109711904Y-119168352D01*
X109664285Y-119120733D01*
X109616666Y-119025495D01*
X109616666Y-118930257D01*
X109664285Y-118835019D01*
X109711904Y-118787400D01*
X109807142Y-118739780D01*
X110045238Y-118739780D01*
X110188095Y-118787400D01*
X110521428Y-118739780D02*
X110759523Y-119739780D01*
X110950000Y-119025495D01*
X111140476Y-119739780D01*
X111378571Y-118739780D01*
X112188095Y-119073114D02*
X112188095Y-119739780D01*
X111950000Y-118692161D02*
X111711904Y-119406447D01*
X112330952Y-119406447D01*
X115616666Y-112604761D02*
X115759523Y-112652380D01*
X115997619Y-112652380D01*
X116092857Y-112604761D01*
X116140476Y-112557142D01*
X116188095Y-112461904D01*
X116188095Y-112366666D01*
X116140476Y-112271428D01*
X116092857Y-112223809D01*
X115997619Y-112176190D01*
X115807142Y-112128571D01*
X115711904Y-112080952D01*
X115664285Y-112033333D01*
X115616666Y-111938095D01*
X115616666Y-111842857D01*
X115664285Y-111747619D01*
X115711904Y-111700000D01*
X115807142Y-111652380D01*
X116045238Y-111652380D01*
X116188095Y-111700000D01*
X116521428Y-111652380D02*
X116759523Y-112652380D01*
X116950000Y-111938095D01*
X117140476Y-112652380D01*
X117378571Y-111652380D01*
X117664285Y-111652380D02*
X118283333Y-111652380D01*
X117950000Y-112033333D01*
X118092857Y-112033333D01*
X118188095Y-112080952D01*
X118235714Y-112128571D01*
X118283333Y-112223809D01*
X118283333Y-112461904D01*
X118235714Y-112557142D01*
X118188095Y-112604761D01*
X118092857Y-112652380D01*
X117807142Y-112652380D01*
X117711904Y-112604761D01*
X117664285Y-112557142D01*
X103616666Y-112579761D02*
X103759523Y-112627380D01*
X103997619Y-112627380D01*
X104092857Y-112579761D01*
X104140476Y-112532142D01*
X104188095Y-112436904D01*
X104188095Y-112341666D01*
X104140476Y-112246428D01*
X104092857Y-112198809D01*
X103997619Y-112151190D01*
X103807142Y-112103571D01*
X103711904Y-112055952D01*
X103664285Y-112008333D01*
X103616666Y-111913095D01*
X103616666Y-111817857D01*
X103664285Y-111722619D01*
X103711904Y-111675000D01*
X103807142Y-111627380D01*
X104045238Y-111627380D01*
X104188095Y-111675000D01*
X104521428Y-111627380D02*
X104759523Y-112627380D01*
X104950000Y-111913095D01*
X105140476Y-112627380D01*
X105378571Y-111627380D01*
X105711904Y-111722619D02*
X105759523Y-111675000D01*
X105854761Y-111627380D01*
X106092857Y-111627380D01*
X106188095Y-111675000D01*
X106235714Y-111722619D01*
X106283333Y-111817857D01*
X106283333Y-111913095D01*
X106235714Y-112055952D01*
X105664285Y-112627380D01*
X106283333Y-112627380D01*
X109616666Y-107704761D02*
X109759523Y-107752380D01*
X109997619Y-107752380D01*
X110092857Y-107704761D01*
X110140476Y-107657142D01*
X110188095Y-107561904D01*
X110188095Y-107466666D01*
X110140476Y-107371428D01*
X110092857Y-107323809D01*
X109997619Y-107276190D01*
X109807142Y-107228571D01*
X109711904Y-107180952D01*
X109664285Y-107133333D01*
X109616666Y-107038095D01*
X109616666Y-106942857D01*
X109664285Y-106847619D01*
X109711904Y-106800000D01*
X109807142Y-106752380D01*
X110045238Y-106752380D01*
X110188095Y-106800000D01*
X110521428Y-106752380D02*
X110759523Y-107752380D01*
X110950000Y-107038095D01*
X111140476Y-107752380D01*
X111378571Y-106752380D01*
X112283333Y-107752380D02*
X111711904Y-107752380D01*
X111997619Y-107752380D02*
X111997619Y-106752380D01*
X111902380Y-106895238D01*
X111807142Y-106990476D01*
X111711904Y-107038095D01*
M02*
