M48
; DRILL file {KiCad (5.1.2)-1} date 17/07/2019 11:01:55
; FORMAT={-:-/ absolute / metric / decimal}
; #@! TF.CreationDate,2019-07-17T11:01:55+10:00
; #@! TF.GenerationSoftware,Kicad,Pcbnew,(5.1.2)-1
FMAT,2
METRIC
T1C0.250
T2C0.300
T3C1.000
T4C2.540
%
G90
G05
T1
X102.7Y-89.6
X103.6Y-99.5
X103.8Y-81.8
X103.8Y-84.6
X103.8Y-87.6
X103.8Y-90.3
X103.8Y-93.4
X104.0Y-78.8
X104.2Y-96.7
X104.2Y-108.6
X104.7Y-97.2
X105.0Y-78.8
X105.0Y-81.5
X105.0Y-84.2
X105.0Y-87.2
X105.0Y-90.2
X105.0Y-93.2
X105.55Y-89.15
X105.7Y-108.6
X106.55Y-102.05
X106.85Y-99.45
X107.9Y-78.8
X107.9Y-81.5
X107.9Y-84.2
X107.9Y-87.2
X107.9Y-90.2
X107.9Y-93.2
X109.2Y-100.7
X109.6Y-101.3
X110.8Y-78.8
X110.8Y-81.5
X110.8Y-84.2
X110.8Y-87.2
X110.8Y-90.2
X110.8Y-93.2
X111.6Y-104.7
X112.8Y-98.8
X113.7Y-78.8
X113.7Y-81.5
X113.7Y-84.2
X113.7Y-87.2
X113.7Y-90.2
X113.7Y-93.2
X113.9Y-112.3
X113.9Y-114.9
X113.9Y-121.5
X116.6Y-78.8
X116.6Y-81.5
X116.6Y-84.2
X116.6Y-87.2
X116.6Y-90.2
X116.6Y-93.2
X117.2Y-99.2
X117.7Y-99.7
X118.2Y-99.2
X118.708Y-99.606
X118.9Y-96.2
X119.3Y-86.8
T2
X113.9Y-105.8
T3
X100.765Y-79.809
X100.765Y-82.349
X100.765Y-84.889
X100.765Y-87.429
X100.765Y-89.969
X100.765Y-92.509
X100.765Y-95.049
X100.765Y-97.589
X100.765Y-100.129
X100.765Y-102.669
X100.765Y-105.209
X100.765Y-107.749
X100.765Y-110.289
X100.765Y-112.829
X100.765Y-115.369
X100.765Y-117.909
X121.085Y-89.969
X121.085Y-92.509
X121.085Y-95.049
X121.085Y-97.589
X121.085Y-100.129
X121.085Y-102.669
X121.085Y-105.209
X121.085Y-107.749
X121.085Y-110.289
X121.085Y-112.829
X121.085Y-115.369
X121.085Y-117.909
T4
X102.035Y-75.999
X102.035Y-121.719
X119.815Y-75.999
X119.815Y-121.719
T0
M30
