G04 #@! TF.GenerationSoftware,KiCad,Pcbnew,(5.1.2)-1*
G04 #@! TF.CreationDate,2019-07-17T11:08:16+10:00*
G04 #@! TF.ProjectId,pmod-breakout,706d6f64-2d62-4726-9561-6b6f75742e6b,rev?*
G04 #@! TF.SameCoordinates,Original*
G04 #@! TF.FileFunction,Legend,Bot*
G04 #@! TF.FilePolarity,Positive*
%FSLAX46Y46*%
G04 Gerber Fmt 4.6, Leading zero omitted, Abs format (unit mm)*
G04 Created by KiCad (PCBNEW (5.1.2)-1) date 2019-07-17 11:08:16*
%MOMM*%
%LPD*%
G04 APERTURE LIST*
%ADD10C,0.150000*%
G04 APERTURE END LIST*
D10*
X130307352Y-67417714D02*
X130307352Y-68227238D01*
X130354971Y-68322476D01*
X130402590Y-68370095D01*
X130497828Y-68417714D01*
X130640685Y-68417714D01*
X130735923Y-68370095D01*
X130307352Y-68036761D02*
X130402590Y-68084380D01*
X130593066Y-68084380D01*
X130688304Y-68036761D01*
X130735923Y-67989142D01*
X130783542Y-67893904D01*
X130783542Y-67608190D01*
X130735923Y-67512952D01*
X130688304Y-67465333D01*
X130593066Y-67417714D01*
X130402590Y-67417714D01*
X130307352Y-67465333D01*
X129831161Y-68084380D02*
X129831161Y-67417714D01*
X129831161Y-67084380D02*
X129878780Y-67132000D01*
X129831161Y-67179619D01*
X129783542Y-67132000D01*
X129831161Y-67084380D01*
X129831161Y-67179619D01*
X129497828Y-67417714D02*
X129116876Y-67417714D01*
X129354971Y-67084380D02*
X129354971Y-67941523D01*
X129307352Y-68036761D01*
X129212114Y-68084380D01*
X129116876Y-68084380D01*
X128783542Y-68084380D02*
X128783542Y-67084380D01*
X128354971Y-68084380D02*
X128354971Y-67560571D01*
X128402590Y-67465333D01*
X128497828Y-67417714D01*
X128640685Y-67417714D01*
X128735923Y-67465333D01*
X128783542Y-67512952D01*
X127450209Y-67417714D02*
X127450209Y-68084380D01*
X127878780Y-67417714D02*
X127878780Y-67941523D01*
X127831161Y-68036761D01*
X127735923Y-68084380D01*
X127593066Y-68084380D01*
X127497828Y-68036761D01*
X127450209Y-67989142D01*
X126974019Y-68084380D02*
X126974019Y-67084380D01*
X126974019Y-67465333D02*
X126878780Y-67417714D01*
X126688304Y-67417714D01*
X126593066Y-67465333D01*
X126545447Y-67512952D01*
X126497828Y-67608190D01*
X126497828Y-67893904D01*
X126545447Y-67989142D01*
X126593066Y-68036761D01*
X126688304Y-68084380D01*
X126878780Y-68084380D01*
X126974019Y-68036761D01*
X126069257Y-67989142D02*
X126021638Y-68036761D01*
X126069257Y-68084380D01*
X126116876Y-68036761D01*
X126069257Y-67989142D01*
X126069257Y-68084380D01*
X125164495Y-68036761D02*
X125259733Y-68084380D01*
X125450209Y-68084380D01*
X125545447Y-68036761D01*
X125593066Y-67989142D01*
X125640685Y-67893904D01*
X125640685Y-67608190D01*
X125593066Y-67512952D01*
X125545447Y-67465333D01*
X125450209Y-67417714D01*
X125259733Y-67417714D01*
X125164495Y-67465333D01*
X124593066Y-68084380D02*
X124688304Y-68036761D01*
X124735923Y-67989142D01*
X124783542Y-67893904D01*
X124783542Y-67608190D01*
X124735923Y-67512952D01*
X124688304Y-67465333D01*
X124593066Y-67417714D01*
X124450209Y-67417714D01*
X124354971Y-67465333D01*
X124307352Y-67512952D01*
X124259733Y-67608190D01*
X124259733Y-67893904D01*
X124307352Y-67989142D01*
X124354971Y-68036761D01*
X124450209Y-68084380D01*
X124593066Y-68084380D01*
X123831161Y-68084380D02*
X123831161Y-67417714D01*
X123831161Y-67512952D02*
X123783542Y-67465333D01*
X123688304Y-67417714D01*
X123545447Y-67417714D01*
X123450209Y-67465333D01*
X123402590Y-67560571D01*
X123402590Y-68084380D01*
X123402590Y-67560571D02*
X123354971Y-67465333D01*
X123259733Y-67417714D01*
X123116876Y-67417714D01*
X123021638Y-67465333D01*
X122974019Y-67560571D01*
X122974019Y-68084380D01*
X121783542Y-67036761D02*
X122640685Y-68322476D01*
X121450209Y-67417714D02*
X121450209Y-68274857D01*
X121497828Y-68370095D01*
X121593066Y-68417714D01*
X121640685Y-68417714D01*
X121450209Y-67084380D02*
X121497828Y-67132000D01*
X121450209Y-67179619D01*
X121402590Y-67132000D01*
X121450209Y-67084380D01*
X121450209Y-67179619D01*
X120831161Y-68084380D02*
X120926400Y-68036761D01*
X120974019Y-67989142D01*
X121021638Y-67893904D01*
X121021638Y-67608190D01*
X120974019Y-67512952D01*
X120926400Y-67465333D01*
X120831161Y-67417714D01*
X120688304Y-67417714D01*
X120593066Y-67465333D01*
X120545447Y-67512952D01*
X120497828Y-67608190D01*
X120497828Y-67893904D01*
X120545447Y-67989142D01*
X120593066Y-68036761D01*
X120688304Y-68084380D01*
X120831161Y-68084380D01*
X120116876Y-68036761D02*
X120021638Y-68084380D01*
X119831161Y-68084380D01*
X119735923Y-68036761D01*
X119688304Y-67941523D01*
X119688304Y-67893904D01*
X119735923Y-67798666D01*
X119831161Y-67751047D01*
X119974019Y-67751047D01*
X120069257Y-67703428D01*
X120116876Y-67608190D01*
X120116876Y-67560571D01*
X120069257Y-67465333D01*
X119974019Y-67417714D01*
X119831161Y-67417714D01*
X119735923Y-67465333D01*
X119259733Y-68084380D02*
X119259733Y-67084380D01*
X118831161Y-68084380D02*
X118831161Y-67560571D01*
X118878780Y-67465333D01*
X118974019Y-67417714D01*
X119116876Y-67417714D01*
X119212114Y-67465333D01*
X119259733Y-67512952D01*
X117926400Y-68084380D02*
X117926400Y-67560571D01*
X117974019Y-67465333D01*
X118069257Y-67417714D01*
X118259733Y-67417714D01*
X118354971Y-67465333D01*
X117926400Y-68036761D02*
X118021638Y-68084380D01*
X118259733Y-68084380D01*
X118354971Y-68036761D01*
X118402590Y-67941523D01*
X118402590Y-67846285D01*
X118354971Y-67751047D01*
X118259733Y-67703428D01*
X118021638Y-67703428D01*
X117926400Y-67655809D01*
X117450209Y-67417714D02*
X117450209Y-68274857D01*
X117497828Y-68370095D01*
X117593066Y-68417714D01*
X117640685Y-68417714D01*
X117450209Y-67084380D02*
X117497828Y-67132000D01*
X117450209Y-67179619D01*
X117402590Y-67132000D01*
X117450209Y-67084380D01*
X117450209Y-67179619D01*
X116831161Y-68084380D02*
X116926400Y-68036761D01*
X116974019Y-67989142D01*
X117021638Y-67893904D01*
X117021638Y-67608190D01*
X116974019Y-67512952D01*
X116926400Y-67465333D01*
X116831161Y-67417714D01*
X116688304Y-67417714D01*
X116593066Y-67465333D01*
X116545447Y-67512952D01*
X116497828Y-67608190D01*
X116497828Y-67893904D01*
X116545447Y-67989142D01*
X116593066Y-68036761D01*
X116688304Y-68084380D01*
X116831161Y-68084380D01*
X116069257Y-68084380D02*
X116069257Y-67084380D01*
X115640685Y-68084380D02*
X115640685Y-67560571D01*
X115688304Y-67465333D01*
X115783542Y-67417714D01*
X115926400Y-67417714D01*
X116021638Y-67465333D01*
X116069257Y-67512952D01*
X115164495Y-67417714D02*
X115164495Y-68084380D01*
X115164495Y-67512952D02*
X115116876Y-67465333D01*
X115021638Y-67417714D01*
X114878780Y-67417714D01*
X114783542Y-67465333D01*
X114735923Y-67560571D01*
X114735923Y-68084380D01*
X114307352Y-68036761D02*
X114212114Y-68084380D01*
X114021638Y-68084380D01*
X113926400Y-68036761D01*
X113878780Y-67941523D01*
X113878780Y-67893904D01*
X113926400Y-67798666D01*
X114021638Y-67751047D01*
X114164495Y-67751047D01*
X114259733Y-67703428D01*
X114307352Y-67608190D01*
X114307352Y-67560571D01*
X114259733Y-67465333D01*
X114164495Y-67417714D01*
X114021638Y-67417714D01*
X113926400Y-67465333D01*
X113307352Y-68084380D02*
X113402590Y-68036761D01*
X113450209Y-67989142D01*
X113497828Y-67893904D01*
X113497828Y-67608190D01*
X113450209Y-67512952D01*
X113402590Y-67465333D01*
X113307352Y-67417714D01*
X113164495Y-67417714D01*
X113069257Y-67465333D01*
X113021638Y-67512952D01*
X112974019Y-67608190D01*
X112974019Y-67893904D01*
X113021638Y-67989142D01*
X113069257Y-68036761D01*
X113164495Y-68084380D01*
X113307352Y-68084380D01*
X112545447Y-67417714D02*
X112545447Y-68084380D01*
X112545447Y-67512952D02*
X112497828Y-67465333D01*
X112402590Y-67417714D01*
X112259733Y-67417714D01*
X112164495Y-67465333D01*
X112116876Y-67560571D01*
X112116876Y-68084380D01*
X130552380Y-65885714D02*
X130552380Y-66742857D01*
X130600000Y-66838095D01*
X130695238Y-66885714D01*
X130742857Y-66885714D01*
X130552380Y-65552380D02*
X130600000Y-65600000D01*
X130552380Y-65647619D01*
X130504761Y-65600000D01*
X130552380Y-65552380D01*
X130552380Y-65647619D01*
X129933333Y-66552380D02*
X130028571Y-66504761D01*
X130076190Y-66457142D01*
X130123809Y-66361904D01*
X130123809Y-66076190D01*
X130076190Y-65980952D01*
X130028571Y-65933333D01*
X129933333Y-65885714D01*
X129790476Y-65885714D01*
X129695238Y-65933333D01*
X129647619Y-65980952D01*
X129600000Y-66076190D01*
X129600000Y-66361904D01*
X129647619Y-66457142D01*
X129695238Y-66504761D01*
X129790476Y-66552380D01*
X129933333Y-66552380D01*
X129219047Y-66504761D02*
X129123809Y-66552380D01*
X128933333Y-66552380D01*
X128838095Y-66504761D01*
X128790476Y-66409523D01*
X128790476Y-66361904D01*
X128838095Y-66266666D01*
X128933333Y-66219047D01*
X129076190Y-66219047D01*
X129171428Y-66171428D01*
X129219047Y-66076190D01*
X129219047Y-66028571D01*
X129171428Y-65933333D01*
X129076190Y-65885714D01*
X128933333Y-65885714D01*
X128838095Y-65933333D01*
X128361904Y-66552380D02*
X128361904Y-65552380D01*
X127933333Y-66552380D02*
X127933333Y-66028571D01*
X127980952Y-65933333D01*
X128076190Y-65885714D01*
X128219047Y-65885714D01*
X128314285Y-65933333D01*
X128361904Y-65980952D01*
X127028571Y-66552380D02*
X127028571Y-66028571D01*
X127076190Y-65933333D01*
X127171428Y-65885714D01*
X127361904Y-65885714D01*
X127457142Y-65933333D01*
X127028571Y-66504761D02*
X127123809Y-66552380D01*
X127361904Y-66552380D01*
X127457142Y-66504761D01*
X127504761Y-66409523D01*
X127504761Y-66314285D01*
X127457142Y-66219047D01*
X127361904Y-66171428D01*
X127123809Y-66171428D01*
X127028571Y-66123809D01*
X126552380Y-65885714D02*
X126552380Y-66742857D01*
X126600000Y-66838095D01*
X126695238Y-66885714D01*
X126742857Y-66885714D01*
X126552380Y-65552380D02*
X126600000Y-65600000D01*
X126552380Y-65647619D01*
X126504761Y-65600000D01*
X126552380Y-65552380D01*
X126552380Y-65647619D01*
X125933333Y-66552380D02*
X126028571Y-66504761D01*
X126076190Y-66457142D01*
X126123809Y-66361904D01*
X126123809Y-66076190D01*
X126076190Y-65980952D01*
X126028571Y-65933333D01*
X125933333Y-65885714D01*
X125790476Y-65885714D01*
X125695238Y-65933333D01*
X125647619Y-65980952D01*
X125600000Y-66076190D01*
X125600000Y-66361904D01*
X125647619Y-66457142D01*
X125695238Y-66504761D01*
X125790476Y-66552380D01*
X125933333Y-66552380D01*
X125171428Y-66552380D02*
X125171428Y-65552380D01*
X124742857Y-66552380D02*
X124742857Y-66028571D01*
X124790476Y-65933333D01*
X124885714Y-65885714D01*
X125028571Y-65885714D01*
X125123809Y-65933333D01*
X125171428Y-65980952D01*
X124266666Y-65885714D02*
X124266666Y-66552380D01*
X124266666Y-65980952D02*
X124219047Y-65933333D01*
X124123809Y-65885714D01*
X123980952Y-65885714D01*
X123885714Y-65933333D01*
X123838095Y-66028571D01*
X123838095Y-66552380D01*
X123409523Y-66504761D02*
X123314285Y-66552380D01*
X123123809Y-66552380D01*
X123028571Y-66504761D01*
X122980952Y-66409523D01*
X122980952Y-66361904D01*
X123028571Y-66266666D01*
X123123809Y-66219047D01*
X123266666Y-66219047D01*
X123361904Y-66171428D01*
X123409523Y-66076190D01*
X123409523Y-66028571D01*
X123361904Y-65933333D01*
X123266666Y-65885714D01*
X123123809Y-65885714D01*
X123028571Y-65933333D01*
X122409523Y-66552380D02*
X122504761Y-66504761D01*
X122552380Y-66457142D01*
X122600000Y-66361904D01*
X122600000Y-66076190D01*
X122552380Y-65980952D01*
X122504761Y-65933333D01*
X122409523Y-65885714D01*
X122266666Y-65885714D01*
X122171428Y-65933333D01*
X122123809Y-65980952D01*
X122076190Y-66076190D01*
X122076190Y-66361904D01*
X122123809Y-66457142D01*
X122171428Y-66504761D01*
X122266666Y-66552380D01*
X122409523Y-66552380D01*
X121647619Y-65885714D02*
X121647619Y-66552380D01*
X121647619Y-65980952D02*
X121600000Y-65933333D01*
X121504761Y-65885714D01*
X121361904Y-65885714D01*
X121266666Y-65933333D01*
X121219047Y-66028571D01*
X121219047Y-66552380D01*
X120742857Y-66457142D02*
X120695238Y-66504761D01*
X120742857Y-66552380D01*
X120790476Y-66504761D01*
X120742857Y-66457142D01*
X120742857Y-66552380D01*
X119838095Y-66504761D02*
X119933333Y-66552380D01*
X120123809Y-66552380D01*
X120219047Y-66504761D01*
X120266666Y-66457142D01*
X120314285Y-66361904D01*
X120314285Y-66076190D01*
X120266666Y-65980952D01*
X120219047Y-65933333D01*
X120123809Y-65885714D01*
X119933333Y-65885714D01*
X119838095Y-65933333D01*
X119266666Y-66552380D02*
X119361904Y-66504761D01*
X119409523Y-66457142D01*
X119457142Y-66361904D01*
X119457142Y-66076190D01*
X119409523Y-65980952D01*
X119361904Y-65933333D01*
X119266666Y-65885714D01*
X119123809Y-65885714D01*
X119028571Y-65933333D01*
X118980952Y-65980952D01*
X118933333Y-66076190D01*
X118933333Y-66361904D01*
X118980952Y-66457142D01*
X119028571Y-66504761D01*
X119123809Y-66552380D01*
X119266666Y-66552380D01*
X118504761Y-66552380D02*
X118504761Y-65885714D01*
X118504761Y-65980952D02*
X118457142Y-65933333D01*
X118361904Y-65885714D01*
X118219047Y-65885714D01*
X118123809Y-65933333D01*
X118076190Y-66028571D01*
X118076190Y-66552380D01*
X118076190Y-66028571D02*
X118028571Y-65933333D01*
X117933333Y-65885714D01*
X117790476Y-65885714D01*
X117695238Y-65933333D01*
X117647619Y-66028571D01*
X117647619Y-66552380D01*
X130495238Y-64052380D02*
X130495238Y-64766666D01*
X130542857Y-64909523D01*
X130638095Y-65004761D01*
X130780952Y-65052380D01*
X130876190Y-65052380D01*
X129876190Y-65052380D02*
X129971428Y-65004761D01*
X130019047Y-64957142D01*
X130066666Y-64861904D01*
X130066666Y-64576190D01*
X130019047Y-64480952D01*
X129971428Y-64433333D01*
X129876190Y-64385714D01*
X129733333Y-64385714D01*
X129638095Y-64433333D01*
X129590476Y-64480952D01*
X129542857Y-64576190D01*
X129542857Y-64861904D01*
X129590476Y-64957142D01*
X129638095Y-65004761D01*
X129733333Y-65052380D01*
X129876190Y-65052380D01*
X129161904Y-65004761D02*
X129066666Y-65052380D01*
X128876190Y-65052380D01*
X128780952Y-65004761D01*
X128733333Y-64909523D01*
X128733333Y-64861904D01*
X128780952Y-64766666D01*
X128876190Y-64719047D01*
X129019047Y-64719047D01*
X129114285Y-64671428D01*
X129161904Y-64576190D01*
X129161904Y-64528571D01*
X129114285Y-64433333D01*
X129019047Y-64385714D01*
X128876190Y-64385714D01*
X128780952Y-64433333D01*
X128304761Y-65052380D02*
X128304761Y-64052380D01*
X127876190Y-65052380D02*
X127876190Y-64528571D01*
X127923809Y-64433333D01*
X128019047Y-64385714D01*
X128161904Y-64385714D01*
X128257142Y-64433333D01*
X128304761Y-64480952D01*
X126352380Y-64052380D02*
X126352380Y-64766666D01*
X126400000Y-64909523D01*
X126495238Y-65004761D01*
X126638095Y-65052380D01*
X126733333Y-65052380D01*
X125733333Y-65052380D02*
X125828571Y-65004761D01*
X125876190Y-64957142D01*
X125923809Y-64861904D01*
X125923809Y-64576190D01*
X125876190Y-64480952D01*
X125828571Y-64433333D01*
X125733333Y-64385714D01*
X125590476Y-64385714D01*
X125495238Y-64433333D01*
X125447619Y-64480952D01*
X125400000Y-64576190D01*
X125400000Y-64861904D01*
X125447619Y-64957142D01*
X125495238Y-65004761D01*
X125590476Y-65052380D01*
X125733333Y-65052380D01*
X124971428Y-65052380D02*
X124971428Y-64052380D01*
X124542857Y-65052380D02*
X124542857Y-64528571D01*
X124590476Y-64433333D01*
X124685714Y-64385714D01*
X124828571Y-64385714D01*
X124923809Y-64433333D01*
X124971428Y-64480952D01*
X124066666Y-64385714D02*
X124066666Y-65052380D01*
X124066666Y-64480952D02*
X124019047Y-64433333D01*
X123923809Y-64385714D01*
X123780952Y-64385714D01*
X123685714Y-64433333D01*
X123638095Y-64528571D01*
X123638095Y-65052380D01*
X123209523Y-65004761D02*
X123114285Y-65052380D01*
X122923809Y-65052380D01*
X122828571Y-65004761D01*
X122780952Y-64909523D01*
X122780952Y-64861904D01*
X122828571Y-64766666D01*
X122923809Y-64719047D01*
X123066666Y-64719047D01*
X123161904Y-64671428D01*
X123209523Y-64576190D01*
X123209523Y-64528571D01*
X123161904Y-64433333D01*
X123066666Y-64385714D01*
X122923809Y-64385714D01*
X122828571Y-64433333D01*
X122209523Y-65052380D02*
X122304761Y-65004761D01*
X122352380Y-64957142D01*
X122400000Y-64861904D01*
X122400000Y-64576190D01*
X122352380Y-64480952D01*
X122304761Y-64433333D01*
X122209523Y-64385714D01*
X122066666Y-64385714D01*
X121971428Y-64433333D01*
X121923809Y-64480952D01*
X121876190Y-64576190D01*
X121876190Y-64861904D01*
X121923809Y-64957142D01*
X121971428Y-65004761D01*
X122066666Y-65052380D01*
X122209523Y-65052380D01*
X121447619Y-64385714D02*
X121447619Y-65052380D01*
X121447619Y-64480952D02*
X121400000Y-64433333D01*
X121304761Y-64385714D01*
X121161904Y-64385714D01*
X121066666Y-64433333D01*
X121019047Y-64528571D01*
X121019047Y-65052380D01*
M02*
