G04 #@! TF.GenerationSoftware,KiCad,Pcbnew,(5.1.2)-1*
G04 #@! TF.CreationDate,2019-07-17T11:08:16+10:00*
G04 #@! TF.ProjectId,pmod-breakout,706d6f64-2d62-4726-9561-6b6f75742e6b,rev?*
G04 #@! TF.SameCoordinates,Original*
G04 #@! TF.FileFunction,Copper,L2,Bot*
G04 #@! TF.FilePolarity,Positive*
%FSLAX46Y46*%
G04 Gerber Fmt 4.6, Leading zero omitted, Abs format (unit mm)*
G04 Created by KiCad (PCBNEW (5.1.2)-1) date 2019-07-17 11:08:16*
%MOMM*%
%LPD*%
G04 APERTURE LIST*
%ADD10C,1.700000*%
%ADD11C,3.556000*%
%ADD12R,1.700000X1.700000*%
%ADD13O,1.700000X1.700000*%
%ADD14C,0.200000*%
G04 APERTURE END LIST*
D10*
X94230000Y-79010000D03*
X96770000Y-79010000D03*
X99310000Y-79010000D03*
X101850000Y-79010000D03*
X104390000Y-79010000D03*
X106930000Y-79010000D03*
X109470000Y-79010000D03*
X112010000Y-79010000D03*
X114550000Y-79010000D03*
X117090000Y-79010000D03*
X119630000Y-79010000D03*
X122170000Y-79010000D03*
X124710000Y-79010000D03*
X127250000Y-79010000D03*
X91690000Y-79010000D03*
X129790000Y-79010000D03*
X101850000Y-58690000D03*
X104390000Y-58690000D03*
X106930000Y-58690000D03*
X109470000Y-58690000D03*
X112010000Y-58690000D03*
X114550000Y-58690000D03*
X117090000Y-58690000D03*
X119630000Y-58690000D03*
X122170000Y-58690000D03*
X124710000Y-58690000D03*
X127250000Y-58690000D03*
X129790000Y-58690000D03*
D11*
X87880000Y-59960000D03*
X133600000Y-59960000D03*
X87880000Y-77740000D03*
X133600000Y-77740000D03*
D12*
X106182440Y-70615200D03*
D13*
X93482440Y-73155200D03*
X96022440Y-70615200D03*
X96022440Y-73155200D03*
X98562440Y-70615200D03*
X98562440Y-73155200D03*
X101102440Y-70615200D03*
X101102440Y-73155200D03*
X103642440Y-70615200D03*
X103642440Y-73155200D03*
X93482440Y-70615200D03*
X106182440Y-73155200D03*
D12*
X129042440Y-70615200D03*
D13*
X116342440Y-73155200D03*
X118882440Y-70615200D03*
X118882440Y-73155200D03*
X121422440Y-70615200D03*
X121422440Y-73155200D03*
X123962440Y-70615200D03*
X123962440Y-73155200D03*
X126502440Y-70615200D03*
X126502440Y-73155200D03*
X116342440Y-70615200D03*
X129042440Y-73155200D03*
D14*
G36*
X101116918Y-57796737D02*
G01*
X100956737Y-57956918D01*
X100830884Y-58145271D01*
X100744194Y-58354557D01*
X100700000Y-58576735D01*
X100700000Y-58803265D01*
X100744194Y-59025443D01*
X100830884Y-59234729D01*
X100956737Y-59423082D01*
X101116918Y-59583263D01*
X101305271Y-59709116D01*
X101514557Y-59795806D01*
X101736735Y-59840000D01*
X101963265Y-59840000D01*
X102185443Y-59795806D01*
X102394729Y-59709116D01*
X102583082Y-59583263D01*
X102743263Y-59423082D01*
X102869116Y-59234729D01*
X102955806Y-59025443D01*
X103000000Y-58803265D01*
X103000000Y-58576735D01*
X102955806Y-58354557D01*
X102869116Y-58145271D01*
X102743263Y-57956918D01*
X102583082Y-57796737D01*
X102505652Y-57745000D01*
X103734348Y-57745000D01*
X103656918Y-57796737D01*
X103496737Y-57956918D01*
X103370884Y-58145271D01*
X103284194Y-58354557D01*
X103240000Y-58576735D01*
X103240000Y-58803265D01*
X103284194Y-59025443D01*
X103370884Y-59234729D01*
X103496737Y-59423082D01*
X103656918Y-59583263D01*
X103845271Y-59709116D01*
X104054557Y-59795806D01*
X104276735Y-59840000D01*
X104503265Y-59840000D01*
X104725443Y-59795806D01*
X104934729Y-59709116D01*
X105123082Y-59583263D01*
X105283263Y-59423082D01*
X105409116Y-59234729D01*
X105495806Y-59025443D01*
X105540000Y-58803265D01*
X105540000Y-58576735D01*
X105495806Y-58354557D01*
X105409116Y-58145271D01*
X105283263Y-57956918D01*
X105123082Y-57796737D01*
X105045652Y-57745000D01*
X106274348Y-57745000D01*
X106196918Y-57796737D01*
X106036737Y-57956918D01*
X105910884Y-58145271D01*
X105824194Y-58354557D01*
X105780000Y-58576735D01*
X105780000Y-58803265D01*
X105824194Y-59025443D01*
X105910884Y-59234729D01*
X106036737Y-59423082D01*
X106196918Y-59583263D01*
X106385271Y-59709116D01*
X106594557Y-59795806D01*
X106816735Y-59840000D01*
X107043265Y-59840000D01*
X107265443Y-59795806D01*
X107474729Y-59709116D01*
X107663082Y-59583263D01*
X107823263Y-59423082D01*
X107949116Y-59234729D01*
X108035806Y-59025443D01*
X108080000Y-58803265D01*
X108080000Y-58576735D01*
X108035806Y-58354557D01*
X107949116Y-58145271D01*
X107823263Y-57956918D01*
X107663082Y-57796737D01*
X107585652Y-57745000D01*
X108814348Y-57745000D01*
X108736918Y-57796737D01*
X108576737Y-57956918D01*
X108450884Y-58145271D01*
X108364194Y-58354557D01*
X108320000Y-58576735D01*
X108320000Y-58803265D01*
X108364194Y-59025443D01*
X108450884Y-59234729D01*
X108576737Y-59423082D01*
X108736918Y-59583263D01*
X108925271Y-59709116D01*
X109134557Y-59795806D01*
X109356735Y-59840000D01*
X109583265Y-59840000D01*
X109805443Y-59795806D01*
X110014729Y-59709116D01*
X110203082Y-59583263D01*
X110363263Y-59423082D01*
X110489116Y-59234729D01*
X110575806Y-59025443D01*
X110620000Y-58803265D01*
X110620000Y-58576735D01*
X110575806Y-58354557D01*
X110489116Y-58145271D01*
X110363263Y-57956918D01*
X110203082Y-57796737D01*
X110125652Y-57745000D01*
X111354348Y-57745000D01*
X111276918Y-57796737D01*
X111116737Y-57956918D01*
X110990884Y-58145271D01*
X110904194Y-58354557D01*
X110860000Y-58576735D01*
X110860000Y-58803265D01*
X110904194Y-59025443D01*
X110990884Y-59234729D01*
X111116737Y-59423082D01*
X111276918Y-59583263D01*
X111465271Y-59709116D01*
X111674557Y-59795806D01*
X111896735Y-59840000D01*
X112123265Y-59840000D01*
X112345443Y-59795806D01*
X112554729Y-59709116D01*
X112743082Y-59583263D01*
X112903263Y-59423082D01*
X113029116Y-59234729D01*
X113115806Y-59025443D01*
X113160000Y-58803265D01*
X113160000Y-58576735D01*
X113115806Y-58354557D01*
X113029116Y-58145271D01*
X112903263Y-57956918D01*
X112743082Y-57796737D01*
X112665652Y-57745000D01*
X113894348Y-57745000D01*
X113816918Y-57796737D01*
X113656737Y-57956918D01*
X113530884Y-58145271D01*
X113444194Y-58354557D01*
X113400000Y-58576735D01*
X113400000Y-58803265D01*
X113444194Y-59025443D01*
X113530884Y-59234729D01*
X113656737Y-59423082D01*
X113816918Y-59583263D01*
X114005271Y-59709116D01*
X114214557Y-59795806D01*
X114436735Y-59840000D01*
X114663265Y-59840000D01*
X114885443Y-59795806D01*
X115094729Y-59709116D01*
X115283082Y-59583263D01*
X115443263Y-59423082D01*
X115569116Y-59234729D01*
X115655806Y-59025443D01*
X115700000Y-58803265D01*
X115700000Y-58576735D01*
X115655806Y-58354557D01*
X115569116Y-58145271D01*
X115443263Y-57956918D01*
X115283082Y-57796737D01*
X115205652Y-57745000D01*
X116434348Y-57745000D01*
X116356918Y-57796737D01*
X116196737Y-57956918D01*
X116070884Y-58145271D01*
X115984194Y-58354557D01*
X115940000Y-58576735D01*
X115940000Y-58803265D01*
X115984194Y-59025443D01*
X116070884Y-59234729D01*
X116196737Y-59423082D01*
X116356918Y-59583263D01*
X116545271Y-59709116D01*
X116754557Y-59795806D01*
X116976735Y-59840000D01*
X117203265Y-59840000D01*
X117425443Y-59795806D01*
X117634729Y-59709116D01*
X117823082Y-59583263D01*
X117983263Y-59423082D01*
X118109116Y-59234729D01*
X118195806Y-59025443D01*
X118240000Y-58803265D01*
X118240000Y-58576735D01*
X118195806Y-58354557D01*
X118109116Y-58145271D01*
X117983263Y-57956918D01*
X117823082Y-57796737D01*
X117745652Y-57745000D01*
X118974348Y-57745000D01*
X118896918Y-57796737D01*
X118736737Y-57956918D01*
X118610884Y-58145271D01*
X118524194Y-58354557D01*
X118480000Y-58576735D01*
X118480000Y-58803265D01*
X118524194Y-59025443D01*
X118610884Y-59234729D01*
X118736737Y-59423082D01*
X118896918Y-59583263D01*
X119085271Y-59709116D01*
X119294557Y-59795806D01*
X119516735Y-59840000D01*
X119743265Y-59840000D01*
X119965443Y-59795806D01*
X120174729Y-59709116D01*
X120363082Y-59583263D01*
X120523263Y-59423082D01*
X120649116Y-59234729D01*
X120735806Y-59025443D01*
X120780000Y-58803265D01*
X120780000Y-58576735D01*
X120735806Y-58354557D01*
X120649116Y-58145271D01*
X120523263Y-57956918D01*
X120363082Y-57796737D01*
X120285652Y-57745000D01*
X121514348Y-57745000D01*
X121436918Y-57796737D01*
X121276737Y-57956918D01*
X121150884Y-58145271D01*
X121064194Y-58354557D01*
X121020000Y-58576735D01*
X121020000Y-58803265D01*
X121064194Y-59025443D01*
X121150884Y-59234729D01*
X121276737Y-59423082D01*
X121436918Y-59583263D01*
X121625271Y-59709116D01*
X121834557Y-59795806D01*
X122056735Y-59840000D01*
X122283265Y-59840000D01*
X122505443Y-59795806D01*
X122714729Y-59709116D01*
X122903082Y-59583263D01*
X123063263Y-59423082D01*
X123189116Y-59234729D01*
X123275806Y-59025443D01*
X123320000Y-58803265D01*
X123320000Y-58576735D01*
X123275806Y-58354557D01*
X123189116Y-58145271D01*
X123063263Y-57956918D01*
X122903082Y-57796737D01*
X122825652Y-57745000D01*
X124054348Y-57745000D01*
X123976918Y-57796737D01*
X123816737Y-57956918D01*
X123690884Y-58145271D01*
X123604194Y-58354557D01*
X123560000Y-58576735D01*
X123560000Y-58803265D01*
X123604194Y-59025443D01*
X123690884Y-59234729D01*
X123816737Y-59423082D01*
X123976918Y-59583263D01*
X124165271Y-59709116D01*
X124374557Y-59795806D01*
X124596735Y-59840000D01*
X124823265Y-59840000D01*
X125045443Y-59795806D01*
X125254729Y-59709116D01*
X125443082Y-59583263D01*
X125603263Y-59423082D01*
X125729116Y-59234729D01*
X125815806Y-59025443D01*
X125860000Y-58803265D01*
X125860000Y-58576735D01*
X125815806Y-58354557D01*
X125729116Y-58145271D01*
X125603263Y-57956918D01*
X125443082Y-57796737D01*
X125365652Y-57745000D01*
X126594348Y-57745000D01*
X126516918Y-57796737D01*
X126356737Y-57956918D01*
X126230884Y-58145271D01*
X126144194Y-58354557D01*
X126100000Y-58576735D01*
X126100000Y-58803265D01*
X126144194Y-59025443D01*
X126230884Y-59234729D01*
X126356737Y-59423082D01*
X126516918Y-59583263D01*
X126705271Y-59709116D01*
X126914557Y-59795806D01*
X127136735Y-59840000D01*
X127363265Y-59840000D01*
X127585443Y-59795806D01*
X127794729Y-59709116D01*
X127983082Y-59583263D01*
X128143263Y-59423082D01*
X128269116Y-59234729D01*
X128355806Y-59025443D01*
X128400000Y-58803265D01*
X128400000Y-58576735D01*
X128355806Y-58354557D01*
X128269116Y-58145271D01*
X128143263Y-57956918D01*
X127983082Y-57796737D01*
X127905652Y-57745000D01*
X129134348Y-57745000D01*
X129056918Y-57796737D01*
X128896737Y-57956918D01*
X128770884Y-58145271D01*
X128684194Y-58354557D01*
X128640000Y-58576735D01*
X128640000Y-58803265D01*
X128684194Y-59025443D01*
X128770884Y-59234729D01*
X128896737Y-59423082D01*
X129056918Y-59583263D01*
X129245271Y-59709116D01*
X129454557Y-59795806D01*
X129676735Y-59840000D01*
X129903265Y-59840000D01*
X130125443Y-59795806D01*
X130334729Y-59709116D01*
X130523082Y-59583263D01*
X130683263Y-59423082D01*
X130809116Y-59234729D01*
X130895806Y-59025443D01*
X130940000Y-58803265D01*
X130940000Y-58576735D01*
X130895806Y-58354557D01*
X130809116Y-58145271D01*
X130683263Y-57956918D01*
X130523082Y-57796737D01*
X130445652Y-57745000D01*
X133177703Y-57745000D01*
X133623526Y-57788713D01*
X134037078Y-57913572D01*
X134081122Y-57936991D01*
X133804665Y-57882000D01*
X133395335Y-57882000D01*
X132993870Y-57961856D01*
X132615698Y-58118500D01*
X132275352Y-58345912D01*
X131985912Y-58635352D01*
X131758500Y-58975698D01*
X131601856Y-59353870D01*
X131522000Y-59755335D01*
X131522000Y-60164665D01*
X131601856Y-60566130D01*
X131758500Y-60944302D01*
X131985912Y-61284648D01*
X132275352Y-61574088D01*
X132615698Y-61801500D01*
X132993870Y-61958144D01*
X133395335Y-62038000D01*
X133804665Y-62038000D01*
X134206130Y-61958144D01*
X134584302Y-61801500D01*
X134924648Y-61574088D01*
X135214088Y-61284648D01*
X135408573Y-60993580D01*
X135408161Y-76705802D01*
X135214088Y-76415352D01*
X134924648Y-76125912D01*
X134584302Y-75898500D01*
X134206130Y-75741856D01*
X133804665Y-75662000D01*
X133395335Y-75662000D01*
X132993870Y-75741856D01*
X132615698Y-75898500D01*
X132275352Y-76125912D01*
X131985912Y-76415352D01*
X131758500Y-76755698D01*
X131601856Y-77133870D01*
X131522000Y-77535335D01*
X131522000Y-77944665D01*
X131601856Y-78346130D01*
X131758500Y-78724302D01*
X131985912Y-79064648D01*
X132275352Y-79354088D01*
X132615698Y-79581500D01*
X132993870Y-79738144D01*
X133395335Y-79818000D01*
X133804665Y-79818000D01*
X134074505Y-79764326D01*
X134012009Y-79796582D01*
X133596007Y-79916655D01*
X133178696Y-79955000D01*
X130471534Y-79955000D01*
X130555869Y-79782940D01*
X129790000Y-79017071D01*
X129024131Y-79782940D01*
X129108466Y-79955000D01*
X127905652Y-79955000D01*
X127983082Y-79903263D01*
X128143263Y-79743082D01*
X128269116Y-79554729D01*
X128355806Y-79345443D01*
X128400000Y-79123265D01*
X128400000Y-78969235D01*
X128625101Y-78969235D01*
X128639532Y-79197279D01*
X128698174Y-79418126D01*
X128798774Y-79623289D01*
X128844069Y-79691078D01*
X129017060Y-79775869D01*
X129782929Y-79010000D01*
X129797071Y-79010000D01*
X130562940Y-79775869D01*
X130735931Y-79691078D01*
X130850627Y-79493450D01*
X130924563Y-79277242D01*
X130954899Y-79050765D01*
X130940468Y-78822721D01*
X130881826Y-78601874D01*
X130781226Y-78396711D01*
X130735931Y-78328922D01*
X130562940Y-78244131D01*
X129797071Y-79010000D01*
X129782929Y-79010000D01*
X129017060Y-78244131D01*
X128844069Y-78328922D01*
X128729373Y-78526550D01*
X128655437Y-78742758D01*
X128625101Y-78969235D01*
X128400000Y-78969235D01*
X128400000Y-78896735D01*
X128355806Y-78674557D01*
X128269116Y-78465271D01*
X128143263Y-78276918D01*
X128103405Y-78237060D01*
X129024131Y-78237060D01*
X129790000Y-79002929D01*
X130555869Y-78237060D01*
X130471078Y-78064069D01*
X130273450Y-77949373D01*
X130057242Y-77875437D01*
X129830765Y-77845101D01*
X129602721Y-77859532D01*
X129381874Y-77918174D01*
X129176711Y-78018774D01*
X129108922Y-78064069D01*
X129024131Y-78237060D01*
X128103405Y-78237060D01*
X127983082Y-78116737D01*
X127794729Y-77990884D01*
X127585443Y-77904194D01*
X127363265Y-77860000D01*
X127136735Y-77860000D01*
X126914557Y-77904194D01*
X126705271Y-77990884D01*
X126516918Y-78116737D01*
X126356737Y-78276918D01*
X126230884Y-78465271D01*
X126144194Y-78674557D01*
X126100000Y-78896735D01*
X126100000Y-79123265D01*
X126144194Y-79345443D01*
X126230884Y-79554729D01*
X126356737Y-79743082D01*
X126516918Y-79903263D01*
X126594348Y-79955000D01*
X125365652Y-79955000D01*
X125443082Y-79903263D01*
X125603263Y-79743082D01*
X125729116Y-79554729D01*
X125815806Y-79345443D01*
X125860000Y-79123265D01*
X125860000Y-78896735D01*
X125815806Y-78674557D01*
X125729116Y-78465271D01*
X125603263Y-78276918D01*
X125443082Y-78116737D01*
X125254729Y-77990884D01*
X125045443Y-77904194D01*
X124823265Y-77860000D01*
X124596735Y-77860000D01*
X124374557Y-77904194D01*
X124165271Y-77990884D01*
X123976918Y-78116737D01*
X123816737Y-78276918D01*
X123690884Y-78465271D01*
X123604194Y-78674557D01*
X123560000Y-78896735D01*
X123560000Y-79123265D01*
X123604194Y-79345443D01*
X123690884Y-79554729D01*
X123816737Y-79743082D01*
X123976918Y-79903263D01*
X124054348Y-79955000D01*
X122825652Y-79955000D01*
X122903082Y-79903263D01*
X123063263Y-79743082D01*
X123189116Y-79554729D01*
X123275806Y-79345443D01*
X123320000Y-79123265D01*
X123320000Y-78896735D01*
X123275806Y-78674557D01*
X123189116Y-78465271D01*
X123063263Y-78276918D01*
X122903082Y-78116737D01*
X122714729Y-77990884D01*
X122505443Y-77904194D01*
X122283265Y-77860000D01*
X122056735Y-77860000D01*
X121834557Y-77904194D01*
X121625271Y-77990884D01*
X121436918Y-78116737D01*
X121276737Y-78276918D01*
X121150884Y-78465271D01*
X121064194Y-78674557D01*
X121020000Y-78896735D01*
X121020000Y-79123265D01*
X121064194Y-79345443D01*
X121150884Y-79554729D01*
X121276737Y-79743082D01*
X121436918Y-79903263D01*
X121514348Y-79955000D01*
X120285652Y-79955000D01*
X120363082Y-79903263D01*
X120523263Y-79743082D01*
X120649116Y-79554729D01*
X120735806Y-79345443D01*
X120780000Y-79123265D01*
X120780000Y-78896735D01*
X120735806Y-78674557D01*
X120649116Y-78465271D01*
X120523263Y-78276918D01*
X120363082Y-78116737D01*
X120174729Y-77990884D01*
X119965443Y-77904194D01*
X119743265Y-77860000D01*
X119516735Y-77860000D01*
X119294557Y-77904194D01*
X119085271Y-77990884D01*
X118896918Y-78116737D01*
X118736737Y-78276918D01*
X118610884Y-78465271D01*
X118524194Y-78674557D01*
X118480000Y-78896735D01*
X118480000Y-79123265D01*
X118524194Y-79345443D01*
X118610884Y-79554729D01*
X118736737Y-79743082D01*
X118896918Y-79903263D01*
X118974348Y-79955000D01*
X117745652Y-79955000D01*
X117823082Y-79903263D01*
X117983263Y-79743082D01*
X118109116Y-79554729D01*
X118195806Y-79345443D01*
X118240000Y-79123265D01*
X118240000Y-78896735D01*
X118195806Y-78674557D01*
X118109116Y-78465271D01*
X117983263Y-78276918D01*
X117823082Y-78116737D01*
X117634729Y-77990884D01*
X117425443Y-77904194D01*
X117203265Y-77860000D01*
X116976735Y-77860000D01*
X116754557Y-77904194D01*
X116545271Y-77990884D01*
X116356918Y-78116737D01*
X116196737Y-78276918D01*
X116070884Y-78465271D01*
X115984194Y-78674557D01*
X115940000Y-78896735D01*
X115940000Y-79123265D01*
X115984194Y-79345443D01*
X116070884Y-79554729D01*
X116196737Y-79743082D01*
X116356918Y-79903263D01*
X116434348Y-79955000D01*
X115205652Y-79955000D01*
X115283082Y-79903263D01*
X115443263Y-79743082D01*
X115569116Y-79554729D01*
X115655806Y-79345443D01*
X115700000Y-79123265D01*
X115700000Y-78896735D01*
X115655806Y-78674557D01*
X115569116Y-78465271D01*
X115443263Y-78276918D01*
X115283082Y-78116737D01*
X115094729Y-77990884D01*
X114885443Y-77904194D01*
X114663265Y-77860000D01*
X114436735Y-77860000D01*
X114214557Y-77904194D01*
X114005271Y-77990884D01*
X113816918Y-78116737D01*
X113656737Y-78276918D01*
X113530884Y-78465271D01*
X113444194Y-78674557D01*
X113400000Y-78896735D01*
X113400000Y-79123265D01*
X113444194Y-79345443D01*
X113530884Y-79554729D01*
X113656737Y-79743082D01*
X113816918Y-79903263D01*
X113894348Y-79955000D01*
X112665652Y-79955000D01*
X112743082Y-79903263D01*
X112903263Y-79743082D01*
X113029116Y-79554729D01*
X113115806Y-79345443D01*
X113160000Y-79123265D01*
X113160000Y-78896735D01*
X113115806Y-78674557D01*
X113029116Y-78465271D01*
X112903263Y-78276918D01*
X112743082Y-78116737D01*
X112554729Y-77990884D01*
X112345443Y-77904194D01*
X112123265Y-77860000D01*
X111896735Y-77860000D01*
X111674557Y-77904194D01*
X111465271Y-77990884D01*
X111276918Y-78116737D01*
X111116737Y-78276918D01*
X110990884Y-78465271D01*
X110904194Y-78674557D01*
X110860000Y-78896735D01*
X110860000Y-79123265D01*
X110904194Y-79345443D01*
X110990884Y-79554729D01*
X111116737Y-79743082D01*
X111276918Y-79903263D01*
X111354348Y-79955000D01*
X110125652Y-79955000D01*
X110203082Y-79903263D01*
X110363263Y-79743082D01*
X110489116Y-79554729D01*
X110575806Y-79345443D01*
X110620000Y-79123265D01*
X110620000Y-78896735D01*
X110575806Y-78674557D01*
X110489116Y-78465271D01*
X110363263Y-78276918D01*
X110203082Y-78116737D01*
X110014729Y-77990884D01*
X109805443Y-77904194D01*
X109583265Y-77860000D01*
X109356735Y-77860000D01*
X109134557Y-77904194D01*
X108925271Y-77990884D01*
X108736918Y-78116737D01*
X108576737Y-78276918D01*
X108450884Y-78465271D01*
X108364194Y-78674557D01*
X108320000Y-78896735D01*
X108320000Y-79123265D01*
X108364194Y-79345443D01*
X108450884Y-79554729D01*
X108576737Y-79743082D01*
X108736918Y-79903263D01*
X108814348Y-79955000D01*
X107585652Y-79955000D01*
X107663082Y-79903263D01*
X107823263Y-79743082D01*
X107949116Y-79554729D01*
X108035806Y-79345443D01*
X108080000Y-79123265D01*
X108080000Y-78896735D01*
X108035806Y-78674557D01*
X107949116Y-78465271D01*
X107823263Y-78276918D01*
X107663082Y-78116737D01*
X107474729Y-77990884D01*
X107265443Y-77904194D01*
X107043265Y-77860000D01*
X106816735Y-77860000D01*
X106594557Y-77904194D01*
X106385271Y-77990884D01*
X106196918Y-78116737D01*
X106036737Y-78276918D01*
X105910884Y-78465271D01*
X105824194Y-78674557D01*
X105780000Y-78896735D01*
X105780000Y-79123265D01*
X105824194Y-79345443D01*
X105910884Y-79554729D01*
X106036737Y-79743082D01*
X106196918Y-79903263D01*
X106274348Y-79955000D01*
X105045652Y-79955000D01*
X105123082Y-79903263D01*
X105283263Y-79743082D01*
X105409116Y-79554729D01*
X105495806Y-79345443D01*
X105540000Y-79123265D01*
X105540000Y-78896735D01*
X105495806Y-78674557D01*
X105409116Y-78465271D01*
X105283263Y-78276918D01*
X105123082Y-78116737D01*
X104934729Y-77990884D01*
X104725443Y-77904194D01*
X104503265Y-77860000D01*
X104276735Y-77860000D01*
X104054557Y-77904194D01*
X103845271Y-77990884D01*
X103656918Y-78116737D01*
X103496737Y-78276918D01*
X103370884Y-78465271D01*
X103284194Y-78674557D01*
X103240000Y-78896735D01*
X103240000Y-79123265D01*
X103284194Y-79345443D01*
X103370884Y-79554729D01*
X103496737Y-79743082D01*
X103656918Y-79903263D01*
X103734348Y-79955000D01*
X102505652Y-79955000D01*
X102583082Y-79903263D01*
X102743263Y-79743082D01*
X102869116Y-79554729D01*
X102955806Y-79345443D01*
X103000000Y-79123265D01*
X103000000Y-78896735D01*
X102955806Y-78674557D01*
X102869116Y-78465271D01*
X102743263Y-78276918D01*
X102583082Y-78116737D01*
X102394729Y-77990884D01*
X102185443Y-77904194D01*
X101963265Y-77860000D01*
X101736735Y-77860000D01*
X101514557Y-77904194D01*
X101305271Y-77990884D01*
X101116918Y-78116737D01*
X100956737Y-78276918D01*
X100830884Y-78465271D01*
X100744194Y-78674557D01*
X100700000Y-78896735D01*
X100700000Y-79123265D01*
X100744194Y-79345443D01*
X100830884Y-79554729D01*
X100956737Y-79743082D01*
X101116918Y-79903263D01*
X101194348Y-79955000D01*
X99991534Y-79955000D01*
X100075869Y-79782940D01*
X99310000Y-79017071D01*
X98544131Y-79782940D01*
X98628466Y-79955000D01*
X97425652Y-79955000D01*
X97503082Y-79903263D01*
X97663263Y-79743082D01*
X97789116Y-79554729D01*
X97875806Y-79345443D01*
X97920000Y-79123265D01*
X97920000Y-78969235D01*
X98145101Y-78969235D01*
X98159532Y-79197279D01*
X98218174Y-79418126D01*
X98318774Y-79623289D01*
X98364069Y-79691078D01*
X98537060Y-79775869D01*
X99302929Y-79010000D01*
X99317071Y-79010000D01*
X100082940Y-79775869D01*
X100255931Y-79691078D01*
X100370627Y-79493450D01*
X100444563Y-79277242D01*
X100474899Y-79050765D01*
X100460468Y-78822721D01*
X100401826Y-78601874D01*
X100301226Y-78396711D01*
X100255931Y-78328922D01*
X100082940Y-78244131D01*
X99317071Y-79010000D01*
X99302929Y-79010000D01*
X98537060Y-78244131D01*
X98364069Y-78328922D01*
X98249373Y-78526550D01*
X98175437Y-78742758D01*
X98145101Y-78969235D01*
X97920000Y-78969235D01*
X97920000Y-78896735D01*
X97875806Y-78674557D01*
X97789116Y-78465271D01*
X97663263Y-78276918D01*
X97623405Y-78237060D01*
X98544131Y-78237060D01*
X99310000Y-79002929D01*
X100075869Y-78237060D01*
X99991078Y-78064069D01*
X99793450Y-77949373D01*
X99577242Y-77875437D01*
X99350765Y-77845101D01*
X99122721Y-77859532D01*
X98901874Y-77918174D01*
X98696711Y-78018774D01*
X98628922Y-78064069D01*
X98544131Y-78237060D01*
X97623405Y-78237060D01*
X97503082Y-78116737D01*
X97314729Y-77990884D01*
X97105443Y-77904194D01*
X96883265Y-77860000D01*
X96656735Y-77860000D01*
X96434557Y-77904194D01*
X96225271Y-77990884D01*
X96036918Y-78116737D01*
X95876737Y-78276918D01*
X95750884Y-78465271D01*
X95664194Y-78674557D01*
X95620000Y-78896735D01*
X95620000Y-79123265D01*
X95664194Y-79345443D01*
X95750884Y-79554729D01*
X95876737Y-79743082D01*
X96036918Y-79903263D01*
X96114348Y-79955000D01*
X94885652Y-79955000D01*
X94963082Y-79903263D01*
X95123263Y-79743082D01*
X95249116Y-79554729D01*
X95335806Y-79345443D01*
X95380000Y-79123265D01*
X95380000Y-78896735D01*
X95335806Y-78674557D01*
X95249116Y-78465271D01*
X95123263Y-78276918D01*
X94963082Y-78116737D01*
X94774729Y-77990884D01*
X94565443Y-77904194D01*
X94343265Y-77860000D01*
X94116735Y-77860000D01*
X93894557Y-77904194D01*
X93685271Y-77990884D01*
X93496918Y-78116737D01*
X93336737Y-78276918D01*
X93210884Y-78465271D01*
X93124194Y-78674557D01*
X93080000Y-78896735D01*
X93080000Y-79123265D01*
X93124194Y-79345443D01*
X93210884Y-79554729D01*
X93336737Y-79743082D01*
X93496918Y-79903263D01*
X93574348Y-79955000D01*
X92345652Y-79955000D01*
X92423082Y-79903263D01*
X92583263Y-79743082D01*
X92709116Y-79554729D01*
X92795806Y-79345443D01*
X92840000Y-79123265D01*
X92840000Y-78896735D01*
X92795806Y-78674557D01*
X92709116Y-78465271D01*
X92583263Y-78276918D01*
X92423082Y-78116737D01*
X92234729Y-77990884D01*
X92025443Y-77904194D01*
X91803265Y-77860000D01*
X91576735Y-77860000D01*
X91354557Y-77904194D01*
X91145271Y-77990884D01*
X90956918Y-78116737D01*
X90796737Y-78276918D01*
X90670884Y-78465271D01*
X90584194Y-78674557D01*
X90540000Y-78896735D01*
X90540000Y-79123265D01*
X90584194Y-79345443D01*
X90670884Y-79554729D01*
X90796737Y-79743082D01*
X90956918Y-79903263D01*
X91034348Y-79955000D01*
X88302297Y-79955000D01*
X87856475Y-79911287D01*
X87442922Y-79786428D01*
X87398877Y-79763009D01*
X87675335Y-79818000D01*
X88084665Y-79818000D01*
X88486130Y-79738144D01*
X88864302Y-79581500D01*
X89204648Y-79354088D01*
X89494088Y-79064648D01*
X89721500Y-78724302D01*
X89878144Y-78346130D01*
X89958000Y-77944665D01*
X89958000Y-77535335D01*
X89878144Y-77133870D01*
X89721500Y-76755698D01*
X89494088Y-76415352D01*
X89204648Y-76125912D01*
X88864302Y-75898500D01*
X88486130Y-75741856D01*
X88084665Y-75662000D01*
X87675335Y-75662000D01*
X87273870Y-75741856D01*
X86895698Y-75898500D01*
X86555352Y-76125912D01*
X86265912Y-76415352D01*
X86071400Y-76706460D01*
X86071400Y-73155200D01*
X92326876Y-73155200D01*
X92349080Y-73380639D01*
X92414838Y-73597415D01*
X92521624Y-73797197D01*
X92665333Y-73972307D01*
X92840443Y-74116016D01*
X93040225Y-74222802D01*
X93257001Y-74288560D01*
X93425948Y-74305200D01*
X93538932Y-74305200D01*
X93707879Y-74288560D01*
X93924655Y-74222802D01*
X94124437Y-74116016D01*
X94299547Y-73972307D01*
X94443256Y-73797197D01*
X94550042Y-73597415D01*
X94615800Y-73380639D01*
X94619644Y-73341601D01*
X94877515Y-73341601D01*
X94935879Y-73561383D01*
X95035999Y-73765556D01*
X95174028Y-73946273D01*
X95344661Y-74096590D01*
X95541340Y-74210730D01*
X95756508Y-74284306D01*
X95836039Y-74300125D01*
X96017440Y-74237688D01*
X96017440Y-73160200D01*
X96027440Y-73160200D01*
X96027440Y-74237688D01*
X96208841Y-74300125D01*
X96288372Y-74284306D01*
X96503540Y-74210730D01*
X96700219Y-74096590D01*
X96870852Y-73946273D01*
X97008881Y-73765556D01*
X97109001Y-73561383D01*
X97167365Y-73341601D01*
X97104929Y-73160200D01*
X96027440Y-73160200D01*
X96017440Y-73160200D01*
X94939951Y-73160200D01*
X94877515Y-73341601D01*
X94619644Y-73341601D01*
X94638004Y-73155200D01*
X97406876Y-73155200D01*
X97429080Y-73380639D01*
X97494838Y-73597415D01*
X97601624Y-73797197D01*
X97745333Y-73972307D01*
X97920443Y-74116016D01*
X98120225Y-74222802D01*
X98337001Y-74288560D01*
X98505948Y-74305200D01*
X98618932Y-74305200D01*
X98787879Y-74288560D01*
X99004655Y-74222802D01*
X99204437Y-74116016D01*
X99379547Y-73972307D01*
X99523256Y-73797197D01*
X99630042Y-73597415D01*
X99695800Y-73380639D01*
X99718004Y-73155200D01*
X99946876Y-73155200D01*
X99969080Y-73380639D01*
X100034838Y-73597415D01*
X100141624Y-73797197D01*
X100285333Y-73972307D01*
X100460443Y-74116016D01*
X100660225Y-74222802D01*
X100877001Y-74288560D01*
X101045948Y-74305200D01*
X101158932Y-74305200D01*
X101327879Y-74288560D01*
X101544655Y-74222802D01*
X101744437Y-74116016D01*
X101919547Y-73972307D01*
X102063256Y-73797197D01*
X102170042Y-73597415D01*
X102235800Y-73380639D01*
X102258004Y-73155200D01*
X102486876Y-73155200D01*
X102509080Y-73380639D01*
X102574838Y-73597415D01*
X102681624Y-73797197D01*
X102825333Y-73972307D01*
X103000443Y-74116016D01*
X103200225Y-74222802D01*
X103417001Y-74288560D01*
X103585948Y-74305200D01*
X103698932Y-74305200D01*
X103867879Y-74288560D01*
X104084655Y-74222802D01*
X104284437Y-74116016D01*
X104459547Y-73972307D01*
X104603256Y-73797197D01*
X104710042Y-73597415D01*
X104775800Y-73380639D01*
X104798004Y-73155200D01*
X105026876Y-73155200D01*
X105049080Y-73380639D01*
X105114838Y-73597415D01*
X105221624Y-73797197D01*
X105365333Y-73972307D01*
X105540443Y-74116016D01*
X105740225Y-74222802D01*
X105957001Y-74288560D01*
X106125948Y-74305200D01*
X106238932Y-74305200D01*
X106407879Y-74288560D01*
X106624655Y-74222802D01*
X106824437Y-74116016D01*
X106999547Y-73972307D01*
X107143256Y-73797197D01*
X107250042Y-73597415D01*
X107315800Y-73380639D01*
X107338004Y-73155200D01*
X115186876Y-73155200D01*
X115209080Y-73380639D01*
X115274838Y-73597415D01*
X115381624Y-73797197D01*
X115525333Y-73972307D01*
X115700443Y-74116016D01*
X115900225Y-74222802D01*
X116117001Y-74288560D01*
X116285948Y-74305200D01*
X116398932Y-74305200D01*
X116567879Y-74288560D01*
X116784655Y-74222802D01*
X116984437Y-74116016D01*
X117159547Y-73972307D01*
X117303256Y-73797197D01*
X117410042Y-73597415D01*
X117475800Y-73380639D01*
X117479644Y-73341601D01*
X117737515Y-73341601D01*
X117795879Y-73561383D01*
X117895999Y-73765556D01*
X118034028Y-73946273D01*
X118204661Y-74096590D01*
X118401340Y-74210730D01*
X118616508Y-74284306D01*
X118696039Y-74300125D01*
X118877440Y-74237688D01*
X118877440Y-73160200D01*
X118887440Y-73160200D01*
X118887440Y-74237688D01*
X119068841Y-74300125D01*
X119148372Y-74284306D01*
X119363540Y-74210730D01*
X119560219Y-74096590D01*
X119730852Y-73946273D01*
X119868881Y-73765556D01*
X119969001Y-73561383D01*
X120027365Y-73341601D01*
X119964929Y-73160200D01*
X118887440Y-73160200D01*
X118877440Y-73160200D01*
X117799951Y-73160200D01*
X117737515Y-73341601D01*
X117479644Y-73341601D01*
X117498004Y-73155200D01*
X120266876Y-73155200D01*
X120289080Y-73380639D01*
X120354838Y-73597415D01*
X120461624Y-73797197D01*
X120605333Y-73972307D01*
X120780443Y-74116016D01*
X120980225Y-74222802D01*
X121197001Y-74288560D01*
X121365948Y-74305200D01*
X121478932Y-74305200D01*
X121647879Y-74288560D01*
X121864655Y-74222802D01*
X122064437Y-74116016D01*
X122239547Y-73972307D01*
X122383256Y-73797197D01*
X122490042Y-73597415D01*
X122555800Y-73380639D01*
X122578004Y-73155200D01*
X122806876Y-73155200D01*
X122829080Y-73380639D01*
X122894838Y-73597415D01*
X123001624Y-73797197D01*
X123145333Y-73972307D01*
X123320443Y-74116016D01*
X123520225Y-74222802D01*
X123737001Y-74288560D01*
X123905948Y-74305200D01*
X124018932Y-74305200D01*
X124187879Y-74288560D01*
X124404655Y-74222802D01*
X124604437Y-74116016D01*
X124779547Y-73972307D01*
X124923256Y-73797197D01*
X125030042Y-73597415D01*
X125095800Y-73380639D01*
X125118004Y-73155200D01*
X125346876Y-73155200D01*
X125369080Y-73380639D01*
X125434838Y-73597415D01*
X125541624Y-73797197D01*
X125685333Y-73972307D01*
X125860443Y-74116016D01*
X126060225Y-74222802D01*
X126277001Y-74288560D01*
X126445948Y-74305200D01*
X126558932Y-74305200D01*
X126727879Y-74288560D01*
X126944655Y-74222802D01*
X127144437Y-74116016D01*
X127319547Y-73972307D01*
X127463256Y-73797197D01*
X127570042Y-73597415D01*
X127635800Y-73380639D01*
X127658004Y-73155200D01*
X127886876Y-73155200D01*
X127909080Y-73380639D01*
X127974838Y-73597415D01*
X128081624Y-73797197D01*
X128225333Y-73972307D01*
X128400443Y-74116016D01*
X128600225Y-74222802D01*
X128817001Y-74288560D01*
X128985948Y-74305200D01*
X129098932Y-74305200D01*
X129267879Y-74288560D01*
X129484655Y-74222802D01*
X129684437Y-74116016D01*
X129859547Y-73972307D01*
X130003256Y-73797197D01*
X130110042Y-73597415D01*
X130175800Y-73380639D01*
X130198004Y-73155200D01*
X130175800Y-72929761D01*
X130110042Y-72712985D01*
X130003256Y-72513203D01*
X129859547Y-72338093D01*
X129684437Y-72194384D01*
X129484655Y-72087598D01*
X129267879Y-72021840D01*
X129098932Y-72005200D01*
X128985948Y-72005200D01*
X128817001Y-72021840D01*
X128600225Y-72087598D01*
X128400443Y-72194384D01*
X128225333Y-72338093D01*
X128081624Y-72513203D01*
X127974838Y-72712985D01*
X127909080Y-72929761D01*
X127886876Y-73155200D01*
X127658004Y-73155200D01*
X127635800Y-72929761D01*
X127570042Y-72712985D01*
X127463256Y-72513203D01*
X127319547Y-72338093D01*
X127144437Y-72194384D01*
X126944655Y-72087598D01*
X126727879Y-72021840D01*
X126558932Y-72005200D01*
X126445948Y-72005200D01*
X126277001Y-72021840D01*
X126060225Y-72087598D01*
X125860443Y-72194384D01*
X125685333Y-72338093D01*
X125541624Y-72513203D01*
X125434838Y-72712985D01*
X125369080Y-72929761D01*
X125346876Y-73155200D01*
X125118004Y-73155200D01*
X125095800Y-72929761D01*
X125030042Y-72712985D01*
X124923256Y-72513203D01*
X124779547Y-72338093D01*
X124604437Y-72194384D01*
X124404655Y-72087598D01*
X124187879Y-72021840D01*
X124018932Y-72005200D01*
X123905948Y-72005200D01*
X123737001Y-72021840D01*
X123520225Y-72087598D01*
X123320443Y-72194384D01*
X123145333Y-72338093D01*
X123001624Y-72513203D01*
X122894838Y-72712985D01*
X122829080Y-72929761D01*
X122806876Y-73155200D01*
X122578004Y-73155200D01*
X122555800Y-72929761D01*
X122490042Y-72712985D01*
X122383256Y-72513203D01*
X122239547Y-72338093D01*
X122064437Y-72194384D01*
X121864655Y-72087598D01*
X121647879Y-72021840D01*
X121478932Y-72005200D01*
X121365948Y-72005200D01*
X121197001Y-72021840D01*
X120980225Y-72087598D01*
X120780443Y-72194384D01*
X120605333Y-72338093D01*
X120461624Y-72513203D01*
X120354838Y-72712985D01*
X120289080Y-72929761D01*
X120266876Y-73155200D01*
X117498004Y-73155200D01*
X117479645Y-72968799D01*
X117737515Y-72968799D01*
X117799951Y-73150200D01*
X118877440Y-73150200D01*
X118877440Y-72072712D01*
X118887440Y-72072712D01*
X118887440Y-73150200D01*
X119964929Y-73150200D01*
X120027365Y-72968799D01*
X119969001Y-72749017D01*
X119868881Y-72544844D01*
X119730852Y-72364127D01*
X119560219Y-72213810D01*
X119363540Y-72099670D01*
X119148372Y-72026094D01*
X119068841Y-72010275D01*
X118887440Y-72072712D01*
X118877440Y-72072712D01*
X118696039Y-72010275D01*
X118616508Y-72026094D01*
X118401340Y-72099670D01*
X118204661Y-72213810D01*
X118034028Y-72364127D01*
X117895999Y-72544844D01*
X117795879Y-72749017D01*
X117737515Y-72968799D01*
X117479645Y-72968799D01*
X117475800Y-72929761D01*
X117410042Y-72712985D01*
X117303256Y-72513203D01*
X117159547Y-72338093D01*
X116984437Y-72194384D01*
X116784655Y-72087598D01*
X116567879Y-72021840D01*
X116398932Y-72005200D01*
X116285948Y-72005200D01*
X116117001Y-72021840D01*
X115900225Y-72087598D01*
X115700443Y-72194384D01*
X115525333Y-72338093D01*
X115381624Y-72513203D01*
X115274838Y-72712985D01*
X115209080Y-72929761D01*
X115186876Y-73155200D01*
X107338004Y-73155200D01*
X107315800Y-72929761D01*
X107250042Y-72712985D01*
X107143256Y-72513203D01*
X106999547Y-72338093D01*
X106824437Y-72194384D01*
X106624655Y-72087598D01*
X106407879Y-72021840D01*
X106238932Y-72005200D01*
X106125948Y-72005200D01*
X105957001Y-72021840D01*
X105740225Y-72087598D01*
X105540443Y-72194384D01*
X105365333Y-72338093D01*
X105221624Y-72513203D01*
X105114838Y-72712985D01*
X105049080Y-72929761D01*
X105026876Y-73155200D01*
X104798004Y-73155200D01*
X104775800Y-72929761D01*
X104710042Y-72712985D01*
X104603256Y-72513203D01*
X104459547Y-72338093D01*
X104284437Y-72194384D01*
X104084655Y-72087598D01*
X103867879Y-72021840D01*
X103698932Y-72005200D01*
X103585948Y-72005200D01*
X103417001Y-72021840D01*
X103200225Y-72087598D01*
X103000443Y-72194384D01*
X102825333Y-72338093D01*
X102681624Y-72513203D01*
X102574838Y-72712985D01*
X102509080Y-72929761D01*
X102486876Y-73155200D01*
X102258004Y-73155200D01*
X102235800Y-72929761D01*
X102170042Y-72712985D01*
X102063256Y-72513203D01*
X101919547Y-72338093D01*
X101744437Y-72194384D01*
X101544655Y-72087598D01*
X101327879Y-72021840D01*
X101158932Y-72005200D01*
X101045948Y-72005200D01*
X100877001Y-72021840D01*
X100660225Y-72087598D01*
X100460443Y-72194384D01*
X100285333Y-72338093D01*
X100141624Y-72513203D01*
X100034838Y-72712985D01*
X99969080Y-72929761D01*
X99946876Y-73155200D01*
X99718004Y-73155200D01*
X99695800Y-72929761D01*
X99630042Y-72712985D01*
X99523256Y-72513203D01*
X99379547Y-72338093D01*
X99204437Y-72194384D01*
X99004655Y-72087598D01*
X98787879Y-72021840D01*
X98618932Y-72005200D01*
X98505948Y-72005200D01*
X98337001Y-72021840D01*
X98120225Y-72087598D01*
X97920443Y-72194384D01*
X97745333Y-72338093D01*
X97601624Y-72513203D01*
X97494838Y-72712985D01*
X97429080Y-72929761D01*
X97406876Y-73155200D01*
X94638004Y-73155200D01*
X94619645Y-72968799D01*
X94877515Y-72968799D01*
X94939951Y-73150200D01*
X96017440Y-73150200D01*
X96017440Y-72072712D01*
X96027440Y-72072712D01*
X96027440Y-73150200D01*
X97104929Y-73150200D01*
X97167365Y-72968799D01*
X97109001Y-72749017D01*
X97008881Y-72544844D01*
X96870852Y-72364127D01*
X96700219Y-72213810D01*
X96503540Y-72099670D01*
X96288372Y-72026094D01*
X96208841Y-72010275D01*
X96027440Y-72072712D01*
X96017440Y-72072712D01*
X95836039Y-72010275D01*
X95756508Y-72026094D01*
X95541340Y-72099670D01*
X95344661Y-72213810D01*
X95174028Y-72364127D01*
X95035999Y-72544844D01*
X94935879Y-72749017D01*
X94877515Y-72968799D01*
X94619645Y-72968799D01*
X94615800Y-72929761D01*
X94550042Y-72712985D01*
X94443256Y-72513203D01*
X94299547Y-72338093D01*
X94124437Y-72194384D01*
X93924655Y-72087598D01*
X93707879Y-72021840D01*
X93538932Y-72005200D01*
X93425948Y-72005200D01*
X93257001Y-72021840D01*
X93040225Y-72087598D01*
X92840443Y-72194384D01*
X92665333Y-72338093D01*
X92521624Y-72513203D01*
X92414838Y-72712985D01*
X92349080Y-72929761D01*
X92326876Y-73155200D01*
X86071400Y-73155200D01*
X86071400Y-70615200D01*
X92326876Y-70615200D01*
X92349080Y-70840639D01*
X92414838Y-71057415D01*
X92521624Y-71257197D01*
X92665333Y-71432307D01*
X92840443Y-71576016D01*
X93040225Y-71682802D01*
X93257001Y-71748560D01*
X93425948Y-71765200D01*
X93538932Y-71765200D01*
X93707879Y-71748560D01*
X93924655Y-71682802D01*
X94124437Y-71576016D01*
X94299547Y-71432307D01*
X94443256Y-71257197D01*
X94550042Y-71057415D01*
X94615800Y-70840639D01*
X94619644Y-70801601D01*
X94877515Y-70801601D01*
X94935879Y-71021383D01*
X95035999Y-71225556D01*
X95174028Y-71406273D01*
X95344661Y-71556590D01*
X95541340Y-71670730D01*
X95756508Y-71744306D01*
X95836039Y-71760125D01*
X96017440Y-71697688D01*
X96017440Y-70620200D01*
X96027440Y-70620200D01*
X96027440Y-71697688D01*
X96208841Y-71760125D01*
X96288372Y-71744306D01*
X96503540Y-71670730D01*
X96700219Y-71556590D01*
X96870852Y-71406273D01*
X97008881Y-71225556D01*
X97109001Y-71021383D01*
X97167365Y-70801601D01*
X97104929Y-70620200D01*
X96027440Y-70620200D01*
X96017440Y-70620200D01*
X94939951Y-70620200D01*
X94877515Y-70801601D01*
X94619644Y-70801601D01*
X94638004Y-70615200D01*
X97406876Y-70615200D01*
X97429080Y-70840639D01*
X97494838Y-71057415D01*
X97601624Y-71257197D01*
X97745333Y-71432307D01*
X97920443Y-71576016D01*
X98120225Y-71682802D01*
X98337001Y-71748560D01*
X98505948Y-71765200D01*
X98618932Y-71765200D01*
X98787879Y-71748560D01*
X99004655Y-71682802D01*
X99204437Y-71576016D01*
X99379547Y-71432307D01*
X99523256Y-71257197D01*
X99630042Y-71057415D01*
X99695800Y-70840639D01*
X99718004Y-70615200D01*
X99946876Y-70615200D01*
X99969080Y-70840639D01*
X100034838Y-71057415D01*
X100141624Y-71257197D01*
X100285333Y-71432307D01*
X100460443Y-71576016D01*
X100660225Y-71682802D01*
X100877001Y-71748560D01*
X101045948Y-71765200D01*
X101158932Y-71765200D01*
X101327879Y-71748560D01*
X101544655Y-71682802D01*
X101744437Y-71576016D01*
X101919547Y-71432307D01*
X102063256Y-71257197D01*
X102170042Y-71057415D01*
X102235800Y-70840639D01*
X102258004Y-70615200D01*
X102486876Y-70615200D01*
X102509080Y-70840639D01*
X102574838Y-71057415D01*
X102681624Y-71257197D01*
X102825333Y-71432307D01*
X103000443Y-71576016D01*
X103200225Y-71682802D01*
X103417001Y-71748560D01*
X103585948Y-71765200D01*
X103698932Y-71765200D01*
X103867879Y-71748560D01*
X104084655Y-71682802D01*
X104284437Y-71576016D01*
X104459547Y-71432307D01*
X104603256Y-71257197D01*
X104710042Y-71057415D01*
X104775800Y-70840639D01*
X104798004Y-70615200D01*
X104775800Y-70389761D01*
X104710042Y-70172985D01*
X104603256Y-69973203D01*
X104459547Y-69798093D01*
X104419467Y-69765200D01*
X105030989Y-69765200D01*
X105030989Y-71465200D01*
X105036781Y-71524010D01*
X105053936Y-71580560D01*
X105081793Y-71632677D01*
X105119282Y-71678358D01*
X105164963Y-71715847D01*
X105217080Y-71743704D01*
X105273630Y-71760859D01*
X105332440Y-71766651D01*
X107032440Y-71766651D01*
X107091250Y-71760859D01*
X107147800Y-71743704D01*
X107199917Y-71715847D01*
X107245598Y-71678358D01*
X107283087Y-71632677D01*
X107310944Y-71580560D01*
X107328099Y-71524010D01*
X107333891Y-71465200D01*
X107333891Y-70615200D01*
X115186876Y-70615200D01*
X115209080Y-70840639D01*
X115274838Y-71057415D01*
X115381624Y-71257197D01*
X115525333Y-71432307D01*
X115700443Y-71576016D01*
X115900225Y-71682802D01*
X116117001Y-71748560D01*
X116285948Y-71765200D01*
X116398932Y-71765200D01*
X116567879Y-71748560D01*
X116784655Y-71682802D01*
X116984437Y-71576016D01*
X117159547Y-71432307D01*
X117303256Y-71257197D01*
X117410042Y-71057415D01*
X117475800Y-70840639D01*
X117479644Y-70801601D01*
X117737515Y-70801601D01*
X117795879Y-71021383D01*
X117895999Y-71225556D01*
X118034028Y-71406273D01*
X118204661Y-71556590D01*
X118401340Y-71670730D01*
X118616508Y-71744306D01*
X118696039Y-71760125D01*
X118877440Y-71697688D01*
X118877440Y-70620200D01*
X118887440Y-70620200D01*
X118887440Y-71697688D01*
X119068841Y-71760125D01*
X119148372Y-71744306D01*
X119363540Y-71670730D01*
X119560219Y-71556590D01*
X119730852Y-71406273D01*
X119868881Y-71225556D01*
X119969001Y-71021383D01*
X120027365Y-70801601D01*
X119964929Y-70620200D01*
X118887440Y-70620200D01*
X118877440Y-70620200D01*
X117799951Y-70620200D01*
X117737515Y-70801601D01*
X117479644Y-70801601D01*
X117498004Y-70615200D01*
X120266876Y-70615200D01*
X120289080Y-70840639D01*
X120354838Y-71057415D01*
X120461624Y-71257197D01*
X120605333Y-71432307D01*
X120780443Y-71576016D01*
X120980225Y-71682802D01*
X121197001Y-71748560D01*
X121365948Y-71765200D01*
X121478932Y-71765200D01*
X121647879Y-71748560D01*
X121864655Y-71682802D01*
X122064437Y-71576016D01*
X122239547Y-71432307D01*
X122383256Y-71257197D01*
X122490042Y-71057415D01*
X122555800Y-70840639D01*
X122578004Y-70615200D01*
X122806876Y-70615200D01*
X122829080Y-70840639D01*
X122894838Y-71057415D01*
X123001624Y-71257197D01*
X123145333Y-71432307D01*
X123320443Y-71576016D01*
X123520225Y-71682802D01*
X123737001Y-71748560D01*
X123905948Y-71765200D01*
X124018932Y-71765200D01*
X124187879Y-71748560D01*
X124404655Y-71682802D01*
X124604437Y-71576016D01*
X124779547Y-71432307D01*
X124923256Y-71257197D01*
X125030042Y-71057415D01*
X125095800Y-70840639D01*
X125118004Y-70615200D01*
X125346876Y-70615200D01*
X125369080Y-70840639D01*
X125434838Y-71057415D01*
X125541624Y-71257197D01*
X125685333Y-71432307D01*
X125860443Y-71576016D01*
X126060225Y-71682802D01*
X126277001Y-71748560D01*
X126445948Y-71765200D01*
X126558932Y-71765200D01*
X126727879Y-71748560D01*
X126944655Y-71682802D01*
X127144437Y-71576016D01*
X127319547Y-71432307D01*
X127463256Y-71257197D01*
X127570042Y-71057415D01*
X127635800Y-70840639D01*
X127658004Y-70615200D01*
X127635800Y-70389761D01*
X127570042Y-70172985D01*
X127463256Y-69973203D01*
X127319547Y-69798093D01*
X127279467Y-69765200D01*
X127890989Y-69765200D01*
X127890989Y-71465200D01*
X127896781Y-71524010D01*
X127913936Y-71580560D01*
X127941793Y-71632677D01*
X127979282Y-71678358D01*
X128024963Y-71715847D01*
X128077080Y-71743704D01*
X128133630Y-71760859D01*
X128192440Y-71766651D01*
X129892440Y-71766651D01*
X129951250Y-71760859D01*
X130007800Y-71743704D01*
X130059917Y-71715847D01*
X130105598Y-71678358D01*
X130143087Y-71632677D01*
X130170944Y-71580560D01*
X130188099Y-71524010D01*
X130193891Y-71465200D01*
X130193891Y-69765200D01*
X130188099Y-69706390D01*
X130170944Y-69649840D01*
X130143087Y-69597723D01*
X130105598Y-69552042D01*
X130059917Y-69514553D01*
X130007800Y-69486696D01*
X129951250Y-69469541D01*
X129892440Y-69463749D01*
X128192440Y-69463749D01*
X128133630Y-69469541D01*
X128077080Y-69486696D01*
X128024963Y-69514553D01*
X127979282Y-69552042D01*
X127941793Y-69597723D01*
X127913936Y-69649840D01*
X127896781Y-69706390D01*
X127890989Y-69765200D01*
X127279467Y-69765200D01*
X127144437Y-69654384D01*
X126944655Y-69547598D01*
X126727879Y-69481840D01*
X126558932Y-69465200D01*
X126445948Y-69465200D01*
X126277001Y-69481840D01*
X126060225Y-69547598D01*
X125860443Y-69654384D01*
X125685333Y-69798093D01*
X125541624Y-69973203D01*
X125434838Y-70172985D01*
X125369080Y-70389761D01*
X125346876Y-70615200D01*
X125118004Y-70615200D01*
X125095800Y-70389761D01*
X125030042Y-70172985D01*
X124923256Y-69973203D01*
X124779547Y-69798093D01*
X124604437Y-69654384D01*
X124404655Y-69547598D01*
X124187879Y-69481840D01*
X124018932Y-69465200D01*
X123905948Y-69465200D01*
X123737001Y-69481840D01*
X123520225Y-69547598D01*
X123320443Y-69654384D01*
X123145333Y-69798093D01*
X123001624Y-69973203D01*
X122894838Y-70172985D01*
X122829080Y-70389761D01*
X122806876Y-70615200D01*
X122578004Y-70615200D01*
X122555800Y-70389761D01*
X122490042Y-70172985D01*
X122383256Y-69973203D01*
X122239547Y-69798093D01*
X122064437Y-69654384D01*
X121864655Y-69547598D01*
X121647879Y-69481840D01*
X121478932Y-69465200D01*
X121365948Y-69465200D01*
X121197001Y-69481840D01*
X120980225Y-69547598D01*
X120780443Y-69654384D01*
X120605333Y-69798093D01*
X120461624Y-69973203D01*
X120354838Y-70172985D01*
X120289080Y-70389761D01*
X120266876Y-70615200D01*
X117498004Y-70615200D01*
X117479645Y-70428799D01*
X117737515Y-70428799D01*
X117799951Y-70610200D01*
X118877440Y-70610200D01*
X118877440Y-69532712D01*
X118887440Y-69532712D01*
X118887440Y-70610200D01*
X119964929Y-70610200D01*
X120027365Y-70428799D01*
X119969001Y-70209017D01*
X119868881Y-70004844D01*
X119730852Y-69824127D01*
X119560219Y-69673810D01*
X119363540Y-69559670D01*
X119148372Y-69486094D01*
X119068841Y-69470275D01*
X118887440Y-69532712D01*
X118877440Y-69532712D01*
X118696039Y-69470275D01*
X118616508Y-69486094D01*
X118401340Y-69559670D01*
X118204661Y-69673810D01*
X118034028Y-69824127D01*
X117895999Y-70004844D01*
X117795879Y-70209017D01*
X117737515Y-70428799D01*
X117479645Y-70428799D01*
X117475800Y-70389761D01*
X117410042Y-70172985D01*
X117303256Y-69973203D01*
X117159547Y-69798093D01*
X116984437Y-69654384D01*
X116784655Y-69547598D01*
X116567879Y-69481840D01*
X116398932Y-69465200D01*
X116285948Y-69465200D01*
X116117001Y-69481840D01*
X115900225Y-69547598D01*
X115700443Y-69654384D01*
X115525333Y-69798093D01*
X115381624Y-69973203D01*
X115274838Y-70172985D01*
X115209080Y-70389761D01*
X115186876Y-70615200D01*
X107333891Y-70615200D01*
X107333891Y-69765200D01*
X107328099Y-69706390D01*
X107310944Y-69649840D01*
X107283087Y-69597723D01*
X107245598Y-69552042D01*
X107199917Y-69514553D01*
X107147800Y-69486696D01*
X107091250Y-69469541D01*
X107032440Y-69463749D01*
X105332440Y-69463749D01*
X105273630Y-69469541D01*
X105217080Y-69486696D01*
X105164963Y-69514553D01*
X105119282Y-69552042D01*
X105081793Y-69597723D01*
X105053936Y-69649840D01*
X105036781Y-69706390D01*
X105030989Y-69765200D01*
X104419467Y-69765200D01*
X104284437Y-69654384D01*
X104084655Y-69547598D01*
X103867879Y-69481840D01*
X103698932Y-69465200D01*
X103585948Y-69465200D01*
X103417001Y-69481840D01*
X103200225Y-69547598D01*
X103000443Y-69654384D01*
X102825333Y-69798093D01*
X102681624Y-69973203D01*
X102574838Y-70172985D01*
X102509080Y-70389761D01*
X102486876Y-70615200D01*
X102258004Y-70615200D01*
X102235800Y-70389761D01*
X102170042Y-70172985D01*
X102063256Y-69973203D01*
X101919547Y-69798093D01*
X101744437Y-69654384D01*
X101544655Y-69547598D01*
X101327879Y-69481840D01*
X101158932Y-69465200D01*
X101045948Y-69465200D01*
X100877001Y-69481840D01*
X100660225Y-69547598D01*
X100460443Y-69654384D01*
X100285333Y-69798093D01*
X100141624Y-69973203D01*
X100034838Y-70172985D01*
X99969080Y-70389761D01*
X99946876Y-70615200D01*
X99718004Y-70615200D01*
X99695800Y-70389761D01*
X99630042Y-70172985D01*
X99523256Y-69973203D01*
X99379547Y-69798093D01*
X99204437Y-69654384D01*
X99004655Y-69547598D01*
X98787879Y-69481840D01*
X98618932Y-69465200D01*
X98505948Y-69465200D01*
X98337001Y-69481840D01*
X98120225Y-69547598D01*
X97920443Y-69654384D01*
X97745333Y-69798093D01*
X97601624Y-69973203D01*
X97494838Y-70172985D01*
X97429080Y-70389761D01*
X97406876Y-70615200D01*
X94638004Y-70615200D01*
X94619645Y-70428799D01*
X94877515Y-70428799D01*
X94939951Y-70610200D01*
X96017440Y-70610200D01*
X96017440Y-69532712D01*
X96027440Y-69532712D01*
X96027440Y-70610200D01*
X97104929Y-70610200D01*
X97167365Y-70428799D01*
X97109001Y-70209017D01*
X97008881Y-70004844D01*
X96870852Y-69824127D01*
X96700219Y-69673810D01*
X96503540Y-69559670D01*
X96288372Y-69486094D01*
X96208841Y-69470275D01*
X96027440Y-69532712D01*
X96017440Y-69532712D01*
X95836039Y-69470275D01*
X95756508Y-69486094D01*
X95541340Y-69559670D01*
X95344661Y-69673810D01*
X95174028Y-69824127D01*
X95035999Y-70004844D01*
X94935879Y-70209017D01*
X94877515Y-70428799D01*
X94619645Y-70428799D01*
X94615800Y-70389761D01*
X94550042Y-70172985D01*
X94443256Y-69973203D01*
X94299547Y-69798093D01*
X94124437Y-69654384D01*
X93924655Y-69547598D01*
X93707879Y-69481840D01*
X93538932Y-69465200D01*
X93425948Y-69465200D01*
X93257001Y-69481840D01*
X93040225Y-69547598D01*
X92840443Y-69654384D01*
X92665333Y-69798093D01*
X92521624Y-69973203D01*
X92414838Y-70172985D01*
X92349080Y-70389761D01*
X92326876Y-70615200D01*
X86071400Y-70615200D01*
X86071400Y-60993540D01*
X86265912Y-61284648D01*
X86555352Y-61574088D01*
X86895698Y-61801500D01*
X87273870Y-61958144D01*
X87675335Y-62038000D01*
X88084665Y-62038000D01*
X88486130Y-61958144D01*
X88864302Y-61801500D01*
X89204648Y-61574088D01*
X89494088Y-61284648D01*
X89721500Y-60944302D01*
X89878144Y-60566130D01*
X89958000Y-60164665D01*
X89958000Y-59755335D01*
X89878144Y-59353870D01*
X89721500Y-58975698D01*
X89494088Y-58635352D01*
X89204648Y-58345912D01*
X88864302Y-58118500D01*
X88486130Y-57961856D01*
X88084665Y-57882000D01*
X87675335Y-57882000D01*
X87394844Y-57937793D01*
X87428660Y-57919509D01*
X87841323Y-57791768D01*
X88286271Y-57745002D01*
X88286964Y-57745000D01*
X101194348Y-57745000D01*
X101116918Y-57796737D01*
X101116918Y-57796737D01*
G37*
X101116918Y-57796737D02*
X100956737Y-57956918D01*
X100830884Y-58145271D01*
X100744194Y-58354557D01*
X100700000Y-58576735D01*
X100700000Y-58803265D01*
X100744194Y-59025443D01*
X100830884Y-59234729D01*
X100956737Y-59423082D01*
X101116918Y-59583263D01*
X101305271Y-59709116D01*
X101514557Y-59795806D01*
X101736735Y-59840000D01*
X101963265Y-59840000D01*
X102185443Y-59795806D01*
X102394729Y-59709116D01*
X102583082Y-59583263D01*
X102743263Y-59423082D01*
X102869116Y-59234729D01*
X102955806Y-59025443D01*
X103000000Y-58803265D01*
X103000000Y-58576735D01*
X102955806Y-58354557D01*
X102869116Y-58145271D01*
X102743263Y-57956918D01*
X102583082Y-57796737D01*
X102505652Y-57745000D01*
X103734348Y-57745000D01*
X103656918Y-57796737D01*
X103496737Y-57956918D01*
X103370884Y-58145271D01*
X103284194Y-58354557D01*
X103240000Y-58576735D01*
X103240000Y-58803265D01*
X103284194Y-59025443D01*
X103370884Y-59234729D01*
X103496737Y-59423082D01*
X103656918Y-59583263D01*
X103845271Y-59709116D01*
X104054557Y-59795806D01*
X104276735Y-59840000D01*
X104503265Y-59840000D01*
X104725443Y-59795806D01*
X104934729Y-59709116D01*
X105123082Y-59583263D01*
X105283263Y-59423082D01*
X105409116Y-59234729D01*
X105495806Y-59025443D01*
X105540000Y-58803265D01*
X105540000Y-58576735D01*
X105495806Y-58354557D01*
X105409116Y-58145271D01*
X105283263Y-57956918D01*
X105123082Y-57796737D01*
X105045652Y-57745000D01*
X106274348Y-57745000D01*
X106196918Y-57796737D01*
X106036737Y-57956918D01*
X105910884Y-58145271D01*
X105824194Y-58354557D01*
X105780000Y-58576735D01*
X105780000Y-58803265D01*
X105824194Y-59025443D01*
X105910884Y-59234729D01*
X106036737Y-59423082D01*
X106196918Y-59583263D01*
X106385271Y-59709116D01*
X106594557Y-59795806D01*
X106816735Y-59840000D01*
X107043265Y-59840000D01*
X107265443Y-59795806D01*
X107474729Y-59709116D01*
X107663082Y-59583263D01*
X107823263Y-59423082D01*
X107949116Y-59234729D01*
X108035806Y-59025443D01*
X108080000Y-58803265D01*
X108080000Y-58576735D01*
X108035806Y-58354557D01*
X107949116Y-58145271D01*
X107823263Y-57956918D01*
X107663082Y-57796737D01*
X107585652Y-57745000D01*
X108814348Y-57745000D01*
X108736918Y-57796737D01*
X108576737Y-57956918D01*
X108450884Y-58145271D01*
X108364194Y-58354557D01*
X108320000Y-58576735D01*
X108320000Y-58803265D01*
X108364194Y-59025443D01*
X108450884Y-59234729D01*
X108576737Y-59423082D01*
X108736918Y-59583263D01*
X108925271Y-59709116D01*
X109134557Y-59795806D01*
X109356735Y-59840000D01*
X109583265Y-59840000D01*
X109805443Y-59795806D01*
X110014729Y-59709116D01*
X110203082Y-59583263D01*
X110363263Y-59423082D01*
X110489116Y-59234729D01*
X110575806Y-59025443D01*
X110620000Y-58803265D01*
X110620000Y-58576735D01*
X110575806Y-58354557D01*
X110489116Y-58145271D01*
X110363263Y-57956918D01*
X110203082Y-57796737D01*
X110125652Y-57745000D01*
X111354348Y-57745000D01*
X111276918Y-57796737D01*
X111116737Y-57956918D01*
X110990884Y-58145271D01*
X110904194Y-58354557D01*
X110860000Y-58576735D01*
X110860000Y-58803265D01*
X110904194Y-59025443D01*
X110990884Y-59234729D01*
X111116737Y-59423082D01*
X111276918Y-59583263D01*
X111465271Y-59709116D01*
X111674557Y-59795806D01*
X111896735Y-59840000D01*
X112123265Y-59840000D01*
X112345443Y-59795806D01*
X112554729Y-59709116D01*
X112743082Y-59583263D01*
X112903263Y-59423082D01*
X113029116Y-59234729D01*
X113115806Y-59025443D01*
X113160000Y-58803265D01*
X113160000Y-58576735D01*
X113115806Y-58354557D01*
X113029116Y-58145271D01*
X112903263Y-57956918D01*
X112743082Y-57796737D01*
X112665652Y-57745000D01*
X113894348Y-57745000D01*
X113816918Y-57796737D01*
X113656737Y-57956918D01*
X113530884Y-58145271D01*
X113444194Y-58354557D01*
X113400000Y-58576735D01*
X113400000Y-58803265D01*
X113444194Y-59025443D01*
X113530884Y-59234729D01*
X113656737Y-59423082D01*
X113816918Y-59583263D01*
X114005271Y-59709116D01*
X114214557Y-59795806D01*
X114436735Y-59840000D01*
X114663265Y-59840000D01*
X114885443Y-59795806D01*
X115094729Y-59709116D01*
X115283082Y-59583263D01*
X115443263Y-59423082D01*
X115569116Y-59234729D01*
X115655806Y-59025443D01*
X115700000Y-58803265D01*
X115700000Y-58576735D01*
X115655806Y-58354557D01*
X115569116Y-58145271D01*
X115443263Y-57956918D01*
X115283082Y-57796737D01*
X115205652Y-57745000D01*
X116434348Y-57745000D01*
X116356918Y-57796737D01*
X116196737Y-57956918D01*
X116070884Y-58145271D01*
X115984194Y-58354557D01*
X115940000Y-58576735D01*
X115940000Y-58803265D01*
X115984194Y-59025443D01*
X116070884Y-59234729D01*
X116196737Y-59423082D01*
X116356918Y-59583263D01*
X116545271Y-59709116D01*
X116754557Y-59795806D01*
X116976735Y-59840000D01*
X117203265Y-59840000D01*
X117425443Y-59795806D01*
X117634729Y-59709116D01*
X117823082Y-59583263D01*
X117983263Y-59423082D01*
X118109116Y-59234729D01*
X118195806Y-59025443D01*
X118240000Y-58803265D01*
X118240000Y-58576735D01*
X118195806Y-58354557D01*
X118109116Y-58145271D01*
X117983263Y-57956918D01*
X117823082Y-57796737D01*
X117745652Y-57745000D01*
X118974348Y-57745000D01*
X118896918Y-57796737D01*
X118736737Y-57956918D01*
X118610884Y-58145271D01*
X118524194Y-58354557D01*
X118480000Y-58576735D01*
X118480000Y-58803265D01*
X118524194Y-59025443D01*
X118610884Y-59234729D01*
X118736737Y-59423082D01*
X118896918Y-59583263D01*
X119085271Y-59709116D01*
X119294557Y-59795806D01*
X119516735Y-59840000D01*
X119743265Y-59840000D01*
X119965443Y-59795806D01*
X120174729Y-59709116D01*
X120363082Y-59583263D01*
X120523263Y-59423082D01*
X120649116Y-59234729D01*
X120735806Y-59025443D01*
X120780000Y-58803265D01*
X120780000Y-58576735D01*
X120735806Y-58354557D01*
X120649116Y-58145271D01*
X120523263Y-57956918D01*
X120363082Y-57796737D01*
X120285652Y-57745000D01*
X121514348Y-57745000D01*
X121436918Y-57796737D01*
X121276737Y-57956918D01*
X121150884Y-58145271D01*
X121064194Y-58354557D01*
X121020000Y-58576735D01*
X121020000Y-58803265D01*
X121064194Y-59025443D01*
X121150884Y-59234729D01*
X121276737Y-59423082D01*
X121436918Y-59583263D01*
X121625271Y-59709116D01*
X121834557Y-59795806D01*
X122056735Y-59840000D01*
X122283265Y-59840000D01*
X122505443Y-59795806D01*
X122714729Y-59709116D01*
X122903082Y-59583263D01*
X123063263Y-59423082D01*
X123189116Y-59234729D01*
X123275806Y-59025443D01*
X123320000Y-58803265D01*
X123320000Y-58576735D01*
X123275806Y-58354557D01*
X123189116Y-58145271D01*
X123063263Y-57956918D01*
X122903082Y-57796737D01*
X122825652Y-57745000D01*
X124054348Y-57745000D01*
X123976918Y-57796737D01*
X123816737Y-57956918D01*
X123690884Y-58145271D01*
X123604194Y-58354557D01*
X123560000Y-58576735D01*
X123560000Y-58803265D01*
X123604194Y-59025443D01*
X123690884Y-59234729D01*
X123816737Y-59423082D01*
X123976918Y-59583263D01*
X124165271Y-59709116D01*
X124374557Y-59795806D01*
X124596735Y-59840000D01*
X124823265Y-59840000D01*
X125045443Y-59795806D01*
X125254729Y-59709116D01*
X125443082Y-59583263D01*
X125603263Y-59423082D01*
X125729116Y-59234729D01*
X125815806Y-59025443D01*
X125860000Y-58803265D01*
X125860000Y-58576735D01*
X125815806Y-58354557D01*
X125729116Y-58145271D01*
X125603263Y-57956918D01*
X125443082Y-57796737D01*
X125365652Y-57745000D01*
X126594348Y-57745000D01*
X126516918Y-57796737D01*
X126356737Y-57956918D01*
X126230884Y-58145271D01*
X126144194Y-58354557D01*
X126100000Y-58576735D01*
X126100000Y-58803265D01*
X126144194Y-59025443D01*
X126230884Y-59234729D01*
X126356737Y-59423082D01*
X126516918Y-59583263D01*
X126705271Y-59709116D01*
X126914557Y-59795806D01*
X127136735Y-59840000D01*
X127363265Y-59840000D01*
X127585443Y-59795806D01*
X127794729Y-59709116D01*
X127983082Y-59583263D01*
X128143263Y-59423082D01*
X128269116Y-59234729D01*
X128355806Y-59025443D01*
X128400000Y-58803265D01*
X128400000Y-58576735D01*
X128355806Y-58354557D01*
X128269116Y-58145271D01*
X128143263Y-57956918D01*
X127983082Y-57796737D01*
X127905652Y-57745000D01*
X129134348Y-57745000D01*
X129056918Y-57796737D01*
X128896737Y-57956918D01*
X128770884Y-58145271D01*
X128684194Y-58354557D01*
X128640000Y-58576735D01*
X128640000Y-58803265D01*
X128684194Y-59025443D01*
X128770884Y-59234729D01*
X128896737Y-59423082D01*
X129056918Y-59583263D01*
X129245271Y-59709116D01*
X129454557Y-59795806D01*
X129676735Y-59840000D01*
X129903265Y-59840000D01*
X130125443Y-59795806D01*
X130334729Y-59709116D01*
X130523082Y-59583263D01*
X130683263Y-59423082D01*
X130809116Y-59234729D01*
X130895806Y-59025443D01*
X130940000Y-58803265D01*
X130940000Y-58576735D01*
X130895806Y-58354557D01*
X130809116Y-58145271D01*
X130683263Y-57956918D01*
X130523082Y-57796737D01*
X130445652Y-57745000D01*
X133177703Y-57745000D01*
X133623526Y-57788713D01*
X134037078Y-57913572D01*
X134081122Y-57936991D01*
X133804665Y-57882000D01*
X133395335Y-57882000D01*
X132993870Y-57961856D01*
X132615698Y-58118500D01*
X132275352Y-58345912D01*
X131985912Y-58635352D01*
X131758500Y-58975698D01*
X131601856Y-59353870D01*
X131522000Y-59755335D01*
X131522000Y-60164665D01*
X131601856Y-60566130D01*
X131758500Y-60944302D01*
X131985912Y-61284648D01*
X132275352Y-61574088D01*
X132615698Y-61801500D01*
X132993870Y-61958144D01*
X133395335Y-62038000D01*
X133804665Y-62038000D01*
X134206130Y-61958144D01*
X134584302Y-61801500D01*
X134924648Y-61574088D01*
X135214088Y-61284648D01*
X135408573Y-60993580D01*
X135408161Y-76705802D01*
X135214088Y-76415352D01*
X134924648Y-76125912D01*
X134584302Y-75898500D01*
X134206130Y-75741856D01*
X133804665Y-75662000D01*
X133395335Y-75662000D01*
X132993870Y-75741856D01*
X132615698Y-75898500D01*
X132275352Y-76125912D01*
X131985912Y-76415352D01*
X131758500Y-76755698D01*
X131601856Y-77133870D01*
X131522000Y-77535335D01*
X131522000Y-77944665D01*
X131601856Y-78346130D01*
X131758500Y-78724302D01*
X131985912Y-79064648D01*
X132275352Y-79354088D01*
X132615698Y-79581500D01*
X132993870Y-79738144D01*
X133395335Y-79818000D01*
X133804665Y-79818000D01*
X134074505Y-79764326D01*
X134012009Y-79796582D01*
X133596007Y-79916655D01*
X133178696Y-79955000D01*
X130471534Y-79955000D01*
X130555869Y-79782940D01*
X129790000Y-79017071D01*
X129024131Y-79782940D01*
X129108466Y-79955000D01*
X127905652Y-79955000D01*
X127983082Y-79903263D01*
X128143263Y-79743082D01*
X128269116Y-79554729D01*
X128355806Y-79345443D01*
X128400000Y-79123265D01*
X128400000Y-78969235D01*
X128625101Y-78969235D01*
X128639532Y-79197279D01*
X128698174Y-79418126D01*
X128798774Y-79623289D01*
X128844069Y-79691078D01*
X129017060Y-79775869D01*
X129782929Y-79010000D01*
X129797071Y-79010000D01*
X130562940Y-79775869D01*
X130735931Y-79691078D01*
X130850627Y-79493450D01*
X130924563Y-79277242D01*
X130954899Y-79050765D01*
X130940468Y-78822721D01*
X130881826Y-78601874D01*
X130781226Y-78396711D01*
X130735931Y-78328922D01*
X130562940Y-78244131D01*
X129797071Y-79010000D01*
X129782929Y-79010000D01*
X129017060Y-78244131D01*
X128844069Y-78328922D01*
X128729373Y-78526550D01*
X128655437Y-78742758D01*
X128625101Y-78969235D01*
X128400000Y-78969235D01*
X128400000Y-78896735D01*
X128355806Y-78674557D01*
X128269116Y-78465271D01*
X128143263Y-78276918D01*
X128103405Y-78237060D01*
X129024131Y-78237060D01*
X129790000Y-79002929D01*
X130555869Y-78237060D01*
X130471078Y-78064069D01*
X130273450Y-77949373D01*
X130057242Y-77875437D01*
X129830765Y-77845101D01*
X129602721Y-77859532D01*
X129381874Y-77918174D01*
X129176711Y-78018774D01*
X129108922Y-78064069D01*
X129024131Y-78237060D01*
X128103405Y-78237060D01*
X127983082Y-78116737D01*
X127794729Y-77990884D01*
X127585443Y-77904194D01*
X127363265Y-77860000D01*
X127136735Y-77860000D01*
X126914557Y-77904194D01*
X126705271Y-77990884D01*
X126516918Y-78116737D01*
X126356737Y-78276918D01*
X126230884Y-78465271D01*
X126144194Y-78674557D01*
X126100000Y-78896735D01*
X126100000Y-79123265D01*
X126144194Y-79345443D01*
X126230884Y-79554729D01*
X126356737Y-79743082D01*
X126516918Y-79903263D01*
X126594348Y-79955000D01*
X125365652Y-79955000D01*
X125443082Y-79903263D01*
X125603263Y-79743082D01*
X125729116Y-79554729D01*
X125815806Y-79345443D01*
X125860000Y-79123265D01*
X125860000Y-78896735D01*
X125815806Y-78674557D01*
X125729116Y-78465271D01*
X125603263Y-78276918D01*
X125443082Y-78116737D01*
X125254729Y-77990884D01*
X125045443Y-77904194D01*
X124823265Y-77860000D01*
X124596735Y-77860000D01*
X124374557Y-77904194D01*
X124165271Y-77990884D01*
X123976918Y-78116737D01*
X123816737Y-78276918D01*
X123690884Y-78465271D01*
X123604194Y-78674557D01*
X123560000Y-78896735D01*
X123560000Y-79123265D01*
X123604194Y-79345443D01*
X123690884Y-79554729D01*
X123816737Y-79743082D01*
X123976918Y-79903263D01*
X124054348Y-79955000D01*
X122825652Y-79955000D01*
X122903082Y-79903263D01*
X123063263Y-79743082D01*
X123189116Y-79554729D01*
X123275806Y-79345443D01*
X123320000Y-79123265D01*
X123320000Y-78896735D01*
X123275806Y-78674557D01*
X123189116Y-78465271D01*
X123063263Y-78276918D01*
X122903082Y-78116737D01*
X122714729Y-77990884D01*
X122505443Y-77904194D01*
X122283265Y-77860000D01*
X122056735Y-77860000D01*
X121834557Y-77904194D01*
X121625271Y-77990884D01*
X121436918Y-78116737D01*
X121276737Y-78276918D01*
X121150884Y-78465271D01*
X121064194Y-78674557D01*
X121020000Y-78896735D01*
X121020000Y-79123265D01*
X121064194Y-79345443D01*
X121150884Y-79554729D01*
X121276737Y-79743082D01*
X121436918Y-79903263D01*
X121514348Y-79955000D01*
X120285652Y-79955000D01*
X120363082Y-79903263D01*
X120523263Y-79743082D01*
X120649116Y-79554729D01*
X120735806Y-79345443D01*
X120780000Y-79123265D01*
X120780000Y-78896735D01*
X120735806Y-78674557D01*
X120649116Y-78465271D01*
X120523263Y-78276918D01*
X120363082Y-78116737D01*
X120174729Y-77990884D01*
X119965443Y-77904194D01*
X119743265Y-77860000D01*
X119516735Y-77860000D01*
X119294557Y-77904194D01*
X119085271Y-77990884D01*
X118896918Y-78116737D01*
X118736737Y-78276918D01*
X118610884Y-78465271D01*
X118524194Y-78674557D01*
X118480000Y-78896735D01*
X118480000Y-79123265D01*
X118524194Y-79345443D01*
X118610884Y-79554729D01*
X118736737Y-79743082D01*
X118896918Y-79903263D01*
X118974348Y-79955000D01*
X117745652Y-79955000D01*
X117823082Y-79903263D01*
X117983263Y-79743082D01*
X118109116Y-79554729D01*
X118195806Y-79345443D01*
X118240000Y-79123265D01*
X118240000Y-78896735D01*
X118195806Y-78674557D01*
X118109116Y-78465271D01*
X117983263Y-78276918D01*
X117823082Y-78116737D01*
X117634729Y-77990884D01*
X117425443Y-77904194D01*
X117203265Y-77860000D01*
X116976735Y-77860000D01*
X116754557Y-77904194D01*
X116545271Y-77990884D01*
X116356918Y-78116737D01*
X116196737Y-78276918D01*
X116070884Y-78465271D01*
X115984194Y-78674557D01*
X115940000Y-78896735D01*
X115940000Y-79123265D01*
X115984194Y-79345443D01*
X116070884Y-79554729D01*
X116196737Y-79743082D01*
X116356918Y-79903263D01*
X116434348Y-79955000D01*
X115205652Y-79955000D01*
X115283082Y-79903263D01*
X115443263Y-79743082D01*
X115569116Y-79554729D01*
X115655806Y-79345443D01*
X115700000Y-79123265D01*
X115700000Y-78896735D01*
X115655806Y-78674557D01*
X115569116Y-78465271D01*
X115443263Y-78276918D01*
X115283082Y-78116737D01*
X115094729Y-77990884D01*
X114885443Y-77904194D01*
X114663265Y-77860000D01*
X114436735Y-77860000D01*
X114214557Y-77904194D01*
X114005271Y-77990884D01*
X113816918Y-78116737D01*
X113656737Y-78276918D01*
X113530884Y-78465271D01*
X113444194Y-78674557D01*
X113400000Y-78896735D01*
X113400000Y-79123265D01*
X113444194Y-79345443D01*
X113530884Y-79554729D01*
X113656737Y-79743082D01*
X113816918Y-79903263D01*
X113894348Y-79955000D01*
X112665652Y-79955000D01*
X112743082Y-79903263D01*
X112903263Y-79743082D01*
X113029116Y-79554729D01*
X113115806Y-79345443D01*
X113160000Y-79123265D01*
X113160000Y-78896735D01*
X113115806Y-78674557D01*
X113029116Y-78465271D01*
X112903263Y-78276918D01*
X112743082Y-78116737D01*
X112554729Y-77990884D01*
X112345443Y-77904194D01*
X112123265Y-77860000D01*
X111896735Y-77860000D01*
X111674557Y-77904194D01*
X111465271Y-77990884D01*
X111276918Y-78116737D01*
X111116737Y-78276918D01*
X110990884Y-78465271D01*
X110904194Y-78674557D01*
X110860000Y-78896735D01*
X110860000Y-79123265D01*
X110904194Y-79345443D01*
X110990884Y-79554729D01*
X111116737Y-79743082D01*
X111276918Y-79903263D01*
X111354348Y-79955000D01*
X110125652Y-79955000D01*
X110203082Y-79903263D01*
X110363263Y-79743082D01*
X110489116Y-79554729D01*
X110575806Y-79345443D01*
X110620000Y-79123265D01*
X110620000Y-78896735D01*
X110575806Y-78674557D01*
X110489116Y-78465271D01*
X110363263Y-78276918D01*
X110203082Y-78116737D01*
X110014729Y-77990884D01*
X109805443Y-77904194D01*
X109583265Y-77860000D01*
X109356735Y-77860000D01*
X109134557Y-77904194D01*
X108925271Y-77990884D01*
X108736918Y-78116737D01*
X108576737Y-78276918D01*
X108450884Y-78465271D01*
X108364194Y-78674557D01*
X108320000Y-78896735D01*
X108320000Y-79123265D01*
X108364194Y-79345443D01*
X108450884Y-79554729D01*
X108576737Y-79743082D01*
X108736918Y-79903263D01*
X108814348Y-79955000D01*
X107585652Y-79955000D01*
X107663082Y-79903263D01*
X107823263Y-79743082D01*
X107949116Y-79554729D01*
X108035806Y-79345443D01*
X108080000Y-79123265D01*
X108080000Y-78896735D01*
X108035806Y-78674557D01*
X107949116Y-78465271D01*
X107823263Y-78276918D01*
X107663082Y-78116737D01*
X107474729Y-77990884D01*
X107265443Y-77904194D01*
X107043265Y-77860000D01*
X106816735Y-77860000D01*
X106594557Y-77904194D01*
X106385271Y-77990884D01*
X106196918Y-78116737D01*
X106036737Y-78276918D01*
X105910884Y-78465271D01*
X105824194Y-78674557D01*
X105780000Y-78896735D01*
X105780000Y-79123265D01*
X105824194Y-79345443D01*
X105910884Y-79554729D01*
X106036737Y-79743082D01*
X106196918Y-79903263D01*
X106274348Y-79955000D01*
X105045652Y-79955000D01*
X105123082Y-79903263D01*
X105283263Y-79743082D01*
X105409116Y-79554729D01*
X105495806Y-79345443D01*
X105540000Y-79123265D01*
X105540000Y-78896735D01*
X105495806Y-78674557D01*
X105409116Y-78465271D01*
X105283263Y-78276918D01*
X105123082Y-78116737D01*
X104934729Y-77990884D01*
X104725443Y-77904194D01*
X104503265Y-77860000D01*
X104276735Y-77860000D01*
X104054557Y-77904194D01*
X103845271Y-77990884D01*
X103656918Y-78116737D01*
X103496737Y-78276918D01*
X103370884Y-78465271D01*
X103284194Y-78674557D01*
X103240000Y-78896735D01*
X103240000Y-79123265D01*
X103284194Y-79345443D01*
X103370884Y-79554729D01*
X103496737Y-79743082D01*
X103656918Y-79903263D01*
X103734348Y-79955000D01*
X102505652Y-79955000D01*
X102583082Y-79903263D01*
X102743263Y-79743082D01*
X102869116Y-79554729D01*
X102955806Y-79345443D01*
X103000000Y-79123265D01*
X103000000Y-78896735D01*
X102955806Y-78674557D01*
X102869116Y-78465271D01*
X102743263Y-78276918D01*
X102583082Y-78116737D01*
X102394729Y-77990884D01*
X102185443Y-77904194D01*
X101963265Y-77860000D01*
X101736735Y-77860000D01*
X101514557Y-77904194D01*
X101305271Y-77990884D01*
X101116918Y-78116737D01*
X100956737Y-78276918D01*
X100830884Y-78465271D01*
X100744194Y-78674557D01*
X100700000Y-78896735D01*
X100700000Y-79123265D01*
X100744194Y-79345443D01*
X100830884Y-79554729D01*
X100956737Y-79743082D01*
X101116918Y-79903263D01*
X101194348Y-79955000D01*
X99991534Y-79955000D01*
X100075869Y-79782940D01*
X99310000Y-79017071D01*
X98544131Y-79782940D01*
X98628466Y-79955000D01*
X97425652Y-79955000D01*
X97503082Y-79903263D01*
X97663263Y-79743082D01*
X97789116Y-79554729D01*
X97875806Y-79345443D01*
X97920000Y-79123265D01*
X97920000Y-78969235D01*
X98145101Y-78969235D01*
X98159532Y-79197279D01*
X98218174Y-79418126D01*
X98318774Y-79623289D01*
X98364069Y-79691078D01*
X98537060Y-79775869D01*
X99302929Y-79010000D01*
X99317071Y-79010000D01*
X100082940Y-79775869D01*
X100255931Y-79691078D01*
X100370627Y-79493450D01*
X100444563Y-79277242D01*
X100474899Y-79050765D01*
X100460468Y-78822721D01*
X100401826Y-78601874D01*
X100301226Y-78396711D01*
X100255931Y-78328922D01*
X100082940Y-78244131D01*
X99317071Y-79010000D01*
X99302929Y-79010000D01*
X98537060Y-78244131D01*
X98364069Y-78328922D01*
X98249373Y-78526550D01*
X98175437Y-78742758D01*
X98145101Y-78969235D01*
X97920000Y-78969235D01*
X97920000Y-78896735D01*
X97875806Y-78674557D01*
X97789116Y-78465271D01*
X97663263Y-78276918D01*
X97623405Y-78237060D01*
X98544131Y-78237060D01*
X99310000Y-79002929D01*
X100075869Y-78237060D01*
X99991078Y-78064069D01*
X99793450Y-77949373D01*
X99577242Y-77875437D01*
X99350765Y-77845101D01*
X99122721Y-77859532D01*
X98901874Y-77918174D01*
X98696711Y-78018774D01*
X98628922Y-78064069D01*
X98544131Y-78237060D01*
X97623405Y-78237060D01*
X97503082Y-78116737D01*
X97314729Y-77990884D01*
X97105443Y-77904194D01*
X96883265Y-77860000D01*
X96656735Y-77860000D01*
X96434557Y-77904194D01*
X96225271Y-77990884D01*
X96036918Y-78116737D01*
X95876737Y-78276918D01*
X95750884Y-78465271D01*
X95664194Y-78674557D01*
X95620000Y-78896735D01*
X95620000Y-79123265D01*
X95664194Y-79345443D01*
X95750884Y-79554729D01*
X95876737Y-79743082D01*
X96036918Y-79903263D01*
X96114348Y-79955000D01*
X94885652Y-79955000D01*
X94963082Y-79903263D01*
X95123263Y-79743082D01*
X95249116Y-79554729D01*
X95335806Y-79345443D01*
X95380000Y-79123265D01*
X95380000Y-78896735D01*
X95335806Y-78674557D01*
X95249116Y-78465271D01*
X95123263Y-78276918D01*
X94963082Y-78116737D01*
X94774729Y-77990884D01*
X94565443Y-77904194D01*
X94343265Y-77860000D01*
X94116735Y-77860000D01*
X93894557Y-77904194D01*
X93685271Y-77990884D01*
X93496918Y-78116737D01*
X93336737Y-78276918D01*
X93210884Y-78465271D01*
X93124194Y-78674557D01*
X93080000Y-78896735D01*
X93080000Y-79123265D01*
X93124194Y-79345443D01*
X93210884Y-79554729D01*
X93336737Y-79743082D01*
X93496918Y-79903263D01*
X93574348Y-79955000D01*
X92345652Y-79955000D01*
X92423082Y-79903263D01*
X92583263Y-79743082D01*
X92709116Y-79554729D01*
X92795806Y-79345443D01*
X92840000Y-79123265D01*
X92840000Y-78896735D01*
X92795806Y-78674557D01*
X92709116Y-78465271D01*
X92583263Y-78276918D01*
X92423082Y-78116737D01*
X92234729Y-77990884D01*
X92025443Y-77904194D01*
X91803265Y-77860000D01*
X91576735Y-77860000D01*
X91354557Y-77904194D01*
X91145271Y-77990884D01*
X90956918Y-78116737D01*
X90796737Y-78276918D01*
X90670884Y-78465271D01*
X90584194Y-78674557D01*
X90540000Y-78896735D01*
X90540000Y-79123265D01*
X90584194Y-79345443D01*
X90670884Y-79554729D01*
X90796737Y-79743082D01*
X90956918Y-79903263D01*
X91034348Y-79955000D01*
X88302297Y-79955000D01*
X87856475Y-79911287D01*
X87442922Y-79786428D01*
X87398877Y-79763009D01*
X87675335Y-79818000D01*
X88084665Y-79818000D01*
X88486130Y-79738144D01*
X88864302Y-79581500D01*
X89204648Y-79354088D01*
X89494088Y-79064648D01*
X89721500Y-78724302D01*
X89878144Y-78346130D01*
X89958000Y-77944665D01*
X89958000Y-77535335D01*
X89878144Y-77133870D01*
X89721500Y-76755698D01*
X89494088Y-76415352D01*
X89204648Y-76125912D01*
X88864302Y-75898500D01*
X88486130Y-75741856D01*
X88084665Y-75662000D01*
X87675335Y-75662000D01*
X87273870Y-75741856D01*
X86895698Y-75898500D01*
X86555352Y-76125912D01*
X86265912Y-76415352D01*
X86071400Y-76706460D01*
X86071400Y-73155200D01*
X92326876Y-73155200D01*
X92349080Y-73380639D01*
X92414838Y-73597415D01*
X92521624Y-73797197D01*
X92665333Y-73972307D01*
X92840443Y-74116016D01*
X93040225Y-74222802D01*
X93257001Y-74288560D01*
X93425948Y-74305200D01*
X93538932Y-74305200D01*
X93707879Y-74288560D01*
X93924655Y-74222802D01*
X94124437Y-74116016D01*
X94299547Y-73972307D01*
X94443256Y-73797197D01*
X94550042Y-73597415D01*
X94615800Y-73380639D01*
X94619644Y-73341601D01*
X94877515Y-73341601D01*
X94935879Y-73561383D01*
X95035999Y-73765556D01*
X95174028Y-73946273D01*
X95344661Y-74096590D01*
X95541340Y-74210730D01*
X95756508Y-74284306D01*
X95836039Y-74300125D01*
X96017440Y-74237688D01*
X96017440Y-73160200D01*
X96027440Y-73160200D01*
X96027440Y-74237688D01*
X96208841Y-74300125D01*
X96288372Y-74284306D01*
X96503540Y-74210730D01*
X96700219Y-74096590D01*
X96870852Y-73946273D01*
X97008881Y-73765556D01*
X97109001Y-73561383D01*
X97167365Y-73341601D01*
X97104929Y-73160200D01*
X96027440Y-73160200D01*
X96017440Y-73160200D01*
X94939951Y-73160200D01*
X94877515Y-73341601D01*
X94619644Y-73341601D01*
X94638004Y-73155200D01*
X97406876Y-73155200D01*
X97429080Y-73380639D01*
X97494838Y-73597415D01*
X97601624Y-73797197D01*
X97745333Y-73972307D01*
X97920443Y-74116016D01*
X98120225Y-74222802D01*
X98337001Y-74288560D01*
X98505948Y-74305200D01*
X98618932Y-74305200D01*
X98787879Y-74288560D01*
X99004655Y-74222802D01*
X99204437Y-74116016D01*
X99379547Y-73972307D01*
X99523256Y-73797197D01*
X99630042Y-73597415D01*
X99695800Y-73380639D01*
X99718004Y-73155200D01*
X99946876Y-73155200D01*
X99969080Y-73380639D01*
X100034838Y-73597415D01*
X100141624Y-73797197D01*
X100285333Y-73972307D01*
X100460443Y-74116016D01*
X100660225Y-74222802D01*
X100877001Y-74288560D01*
X101045948Y-74305200D01*
X101158932Y-74305200D01*
X101327879Y-74288560D01*
X101544655Y-74222802D01*
X101744437Y-74116016D01*
X101919547Y-73972307D01*
X102063256Y-73797197D01*
X102170042Y-73597415D01*
X102235800Y-73380639D01*
X102258004Y-73155200D01*
X102486876Y-73155200D01*
X102509080Y-73380639D01*
X102574838Y-73597415D01*
X102681624Y-73797197D01*
X102825333Y-73972307D01*
X103000443Y-74116016D01*
X103200225Y-74222802D01*
X103417001Y-74288560D01*
X103585948Y-74305200D01*
X103698932Y-74305200D01*
X103867879Y-74288560D01*
X104084655Y-74222802D01*
X104284437Y-74116016D01*
X104459547Y-73972307D01*
X104603256Y-73797197D01*
X104710042Y-73597415D01*
X104775800Y-73380639D01*
X104798004Y-73155200D01*
X105026876Y-73155200D01*
X105049080Y-73380639D01*
X105114838Y-73597415D01*
X105221624Y-73797197D01*
X105365333Y-73972307D01*
X105540443Y-74116016D01*
X105740225Y-74222802D01*
X105957001Y-74288560D01*
X106125948Y-74305200D01*
X106238932Y-74305200D01*
X106407879Y-74288560D01*
X106624655Y-74222802D01*
X106824437Y-74116016D01*
X106999547Y-73972307D01*
X107143256Y-73797197D01*
X107250042Y-73597415D01*
X107315800Y-73380639D01*
X107338004Y-73155200D01*
X115186876Y-73155200D01*
X115209080Y-73380639D01*
X115274838Y-73597415D01*
X115381624Y-73797197D01*
X115525333Y-73972307D01*
X115700443Y-74116016D01*
X115900225Y-74222802D01*
X116117001Y-74288560D01*
X116285948Y-74305200D01*
X116398932Y-74305200D01*
X116567879Y-74288560D01*
X116784655Y-74222802D01*
X116984437Y-74116016D01*
X117159547Y-73972307D01*
X117303256Y-73797197D01*
X117410042Y-73597415D01*
X117475800Y-73380639D01*
X117479644Y-73341601D01*
X117737515Y-73341601D01*
X117795879Y-73561383D01*
X117895999Y-73765556D01*
X118034028Y-73946273D01*
X118204661Y-74096590D01*
X118401340Y-74210730D01*
X118616508Y-74284306D01*
X118696039Y-74300125D01*
X118877440Y-74237688D01*
X118877440Y-73160200D01*
X118887440Y-73160200D01*
X118887440Y-74237688D01*
X119068841Y-74300125D01*
X119148372Y-74284306D01*
X119363540Y-74210730D01*
X119560219Y-74096590D01*
X119730852Y-73946273D01*
X119868881Y-73765556D01*
X119969001Y-73561383D01*
X120027365Y-73341601D01*
X119964929Y-73160200D01*
X118887440Y-73160200D01*
X118877440Y-73160200D01*
X117799951Y-73160200D01*
X117737515Y-73341601D01*
X117479644Y-73341601D01*
X117498004Y-73155200D01*
X120266876Y-73155200D01*
X120289080Y-73380639D01*
X120354838Y-73597415D01*
X120461624Y-73797197D01*
X120605333Y-73972307D01*
X120780443Y-74116016D01*
X120980225Y-74222802D01*
X121197001Y-74288560D01*
X121365948Y-74305200D01*
X121478932Y-74305200D01*
X121647879Y-74288560D01*
X121864655Y-74222802D01*
X122064437Y-74116016D01*
X122239547Y-73972307D01*
X122383256Y-73797197D01*
X122490042Y-73597415D01*
X122555800Y-73380639D01*
X122578004Y-73155200D01*
X122806876Y-73155200D01*
X122829080Y-73380639D01*
X122894838Y-73597415D01*
X123001624Y-73797197D01*
X123145333Y-73972307D01*
X123320443Y-74116016D01*
X123520225Y-74222802D01*
X123737001Y-74288560D01*
X123905948Y-74305200D01*
X124018932Y-74305200D01*
X124187879Y-74288560D01*
X124404655Y-74222802D01*
X124604437Y-74116016D01*
X124779547Y-73972307D01*
X124923256Y-73797197D01*
X125030042Y-73597415D01*
X125095800Y-73380639D01*
X125118004Y-73155200D01*
X125346876Y-73155200D01*
X125369080Y-73380639D01*
X125434838Y-73597415D01*
X125541624Y-73797197D01*
X125685333Y-73972307D01*
X125860443Y-74116016D01*
X126060225Y-74222802D01*
X126277001Y-74288560D01*
X126445948Y-74305200D01*
X126558932Y-74305200D01*
X126727879Y-74288560D01*
X126944655Y-74222802D01*
X127144437Y-74116016D01*
X127319547Y-73972307D01*
X127463256Y-73797197D01*
X127570042Y-73597415D01*
X127635800Y-73380639D01*
X127658004Y-73155200D01*
X127886876Y-73155200D01*
X127909080Y-73380639D01*
X127974838Y-73597415D01*
X128081624Y-73797197D01*
X128225333Y-73972307D01*
X128400443Y-74116016D01*
X128600225Y-74222802D01*
X128817001Y-74288560D01*
X128985948Y-74305200D01*
X129098932Y-74305200D01*
X129267879Y-74288560D01*
X129484655Y-74222802D01*
X129684437Y-74116016D01*
X129859547Y-73972307D01*
X130003256Y-73797197D01*
X130110042Y-73597415D01*
X130175800Y-73380639D01*
X130198004Y-73155200D01*
X130175800Y-72929761D01*
X130110042Y-72712985D01*
X130003256Y-72513203D01*
X129859547Y-72338093D01*
X129684437Y-72194384D01*
X129484655Y-72087598D01*
X129267879Y-72021840D01*
X129098932Y-72005200D01*
X128985948Y-72005200D01*
X128817001Y-72021840D01*
X128600225Y-72087598D01*
X128400443Y-72194384D01*
X128225333Y-72338093D01*
X128081624Y-72513203D01*
X127974838Y-72712985D01*
X127909080Y-72929761D01*
X127886876Y-73155200D01*
X127658004Y-73155200D01*
X127635800Y-72929761D01*
X127570042Y-72712985D01*
X127463256Y-72513203D01*
X127319547Y-72338093D01*
X127144437Y-72194384D01*
X126944655Y-72087598D01*
X126727879Y-72021840D01*
X126558932Y-72005200D01*
X126445948Y-72005200D01*
X126277001Y-72021840D01*
X126060225Y-72087598D01*
X125860443Y-72194384D01*
X125685333Y-72338093D01*
X125541624Y-72513203D01*
X125434838Y-72712985D01*
X125369080Y-72929761D01*
X125346876Y-73155200D01*
X125118004Y-73155200D01*
X125095800Y-72929761D01*
X125030042Y-72712985D01*
X124923256Y-72513203D01*
X124779547Y-72338093D01*
X124604437Y-72194384D01*
X124404655Y-72087598D01*
X124187879Y-72021840D01*
X124018932Y-72005200D01*
X123905948Y-72005200D01*
X123737001Y-72021840D01*
X123520225Y-72087598D01*
X123320443Y-72194384D01*
X123145333Y-72338093D01*
X123001624Y-72513203D01*
X122894838Y-72712985D01*
X122829080Y-72929761D01*
X122806876Y-73155200D01*
X122578004Y-73155200D01*
X122555800Y-72929761D01*
X122490042Y-72712985D01*
X122383256Y-72513203D01*
X122239547Y-72338093D01*
X122064437Y-72194384D01*
X121864655Y-72087598D01*
X121647879Y-72021840D01*
X121478932Y-72005200D01*
X121365948Y-72005200D01*
X121197001Y-72021840D01*
X120980225Y-72087598D01*
X120780443Y-72194384D01*
X120605333Y-72338093D01*
X120461624Y-72513203D01*
X120354838Y-72712985D01*
X120289080Y-72929761D01*
X120266876Y-73155200D01*
X117498004Y-73155200D01*
X117479645Y-72968799D01*
X117737515Y-72968799D01*
X117799951Y-73150200D01*
X118877440Y-73150200D01*
X118877440Y-72072712D01*
X118887440Y-72072712D01*
X118887440Y-73150200D01*
X119964929Y-73150200D01*
X120027365Y-72968799D01*
X119969001Y-72749017D01*
X119868881Y-72544844D01*
X119730852Y-72364127D01*
X119560219Y-72213810D01*
X119363540Y-72099670D01*
X119148372Y-72026094D01*
X119068841Y-72010275D01*
X118887440Y-72072712D01*
X118877440Y-72072712D01*
X118696039Y-72010275D01*
X118616508Y-72026094D01*
X118401340Y-72099670D01*
X118204661Y-72213810D01*
X118034028Y-72364127D01*
X117895999Y-72544844D01*
X117795879Y-72749017D01*
X117737515Y-72968799D01*
X117479645Y-72968799D01*
X117475800Y-72929761D01*
X117410042Y-72712985D01*
X117303256Y-72513203D01*
X117159547Y-72338093D01*
X116984437Y-72194384D01*
X116784655Y-72087598D01*
X116567879Y-72021840D01*
X116398932Y-72005200D01*
X116285948Y-72005200D01*
X116117001Y-72021840D01*
X115900225Y-72087598D01*
X115700443Y-72194384D01*
X115525333Y-72338093D01*
X115381624Y-72513203D01*
X115274838Y-72712985D01*
X115209080Y-72929761D01*
X115186876Y-73155200D01*
X107338004Y-73155200D01*
X107315800Y-72929761D01*
X107250042Y-72712985D01*
X107143256Y-72513203D01*
X106999547Y-72338093D01*
X106824437Y-72194384D01*
X106624655Y-72087598D01*
X106407879Y-72021840D01*
X106238932Y-72005200D01*
X106125948Y-72005200D01*
X105957001Y-72021840D01*
X105740225Y-72087598D01*
X105540443Y-72194384D01*
X105365333Y-72338093D01*
X105221624Y-72513203D01*
X105114838Y-72712985D01*
X105049080Y-72929761D01*
X105026876Y-73155200D01*
X104798004Y-73155200D01*
X104775800Y-72929761D01*
X104710042Y-72712985D01*
X104603256Y-72513203D01*
X104459547Y-72338093D01*
X104284437Y-72194384D01*
X104084655Y-72087598D01*
X103867879Y-72021840D01*
X103698932Y-72005200D01*
X103585948Y-72005200D01*
X103417001Y-72021840D01*
X103200225Y-72087598D01*
X103000443Y-72194384D01*
X102825333Y-72338093D01*
X102681624Y-72513203D01*
X102574838Y-72712985D01*
X102509080Y-72929761D01*
X102486876Y-73155200D01*
X102258004Y-73155200D01*
X102235800Y-72929761D01*
X102170042Y-72712985D01*
X102063256Y-72513203D01*
X101919547Y-72338093D01*
X101744437Y-72194384D01*
X101544655Y-72087598D01*
X101327879Y-72021840D01*
X101158932Y-72005200D01*
X101045948Y-72005200D01*
X100877001Y-72021840D01*
X100660225Y-72087598D01*
X100460443Y-72194384D01*
X100285333Y-72338093D01*
X100141624Y-72513203D01*
X100034838Y-72712985D01*
X99969080Y-72929761D01*
X99946876Y-73155200D01*
X99718004Y-73155200D01*
X99695800Y-72929761D01*
X99630042Y-72712985D01*
X99523256Y-72513203D01*
X99379547Y-72338093D01*
X99204437Y-72194384D01*
X99004655Y-72087598D01*
X98787879Y-72021840D01*
X98618932Y-72005200D01*
X98505948Y-72005200D01*
X98337001Y-72021840D01*
X98120225Y-72087598D01*
X97920443Y-72194384D01*
X97745333Y-72338093D01*
X97601624Y-72513203D01*
X97494838Y-72712985D01*
X97429080Y-72929761D01*
X97406876Y-73155200D01*
X94638004Y-73155200D01*
X94619645Y-72968799D01*
X94877515Y-72968799D01*
X94939951Y-73150200D01*
X96017440Y-73150200D01*
X96017440Y-72072712D01*
X96027440Y-72072712D01*
X96027440Y-73150200D01*
X97104929Y-73150200D01*
X97167365Y-72968799D01*
X97109001Y-72749017D01*
X97008881Y-72544844D01*
X96870852Y-72364127D01*
X96700219Y-72213810D01*
X96503540Y-72099670D01*
X96288372Y-72026094D01*
X96208841Y-72010275D01*
X96027440Y-72072712D01*
X96017440Y-72072712D01*
X95836039Y-72010275D01*
X95756508Y-72026094D01*
X95541340Y-72099670D01*
X95344661Y-72213810D01*
X95174028Y-72364127D01*
X95035999Y-72544844D01*
X94935879Y-72749017D01*
X94877515Y-72968799D01*
X94619645Y-72968799D01*
X94615800Y-72929761D01*
X94550042Y-72712985D01*
X94443256Y-72513203D01*
X94299547Y-72338093D01*
X94124437Y-72194384D01*
X93924655Y-72087598D01*
X93707879Y-72021840D01*
X93538932Y-72005200D01*
X93425948Y-72005200D01*
X93257001Y-72021840D01*
X93040225Y-72087598D01*
X92840443Y-72194384D01*
X92665333Y-72338093D01*
X92521624Y-72513203D01*
X92414838Y-72712985D01*
X92349080Y-72929761D01*
X92326876Y-73155200D01*
X86071400Y-73155200D01*
X86071400Y-70615200D01*
X92326876Y-70615200D01*
X92349080Y-70840639D01*
X92414838Y-71057415D01*
X92521624Y-71257197D01*
X92665333Y-71432307D01*
X92840443Y-71576016D01*
X93040225Y-71682802D01*
X93257001Y-71748560D01*
X93425948Y-71765200D01*
X93538932Y-71765200D01*
X93707879Y-71748560D01*
X93924655Y-71682802D01*
X94124437Y-71576016D01*
X94299547Y-71432307D01*
X94443256Y-71257197D01*
X94550042Y-71057415D01*
X94615800Y-70840639D01*
X94619644Y-70801601D01*
X94877515Y-70801601D01*
X94935879Y-71021383D01*
X95035999Y-71225556D01*
X95174028Y-71406273D01*
X95344661Y-71556590D01*
X95541340Y-71670730D01*
X95756508Y-71744306D01*
X95836039Y-71760125D01*
X96017440Y-71697688D01*
X96017440Y-70620200D01*
X96027440Y-70620200D01*
X96027440Y-71697688D01*
X96208841Y-71760125D01*
X96288372Y-71744306D01*
X96503540Y-71670730D01*
X96700219Y-71556590D01*
X96870852Y-71406273D01*
X97008881Y-71225556D01*
X97109001Y-71021383D01*
X97167365Y-70801601D01*
X97104929Y-70620200D01*
X96027440Y-70620200D01*
X96017440Y-70620200D01*
X94939951Y-70620200D01*
X94877515Y-70801601D01*
X94619644Y-70801601D01*
X94638004Y-70615200D01*
X97406876Y-70615200D01*
X97429080Y-70840639D01*
X97494838Y-71057415D01*
X97601624Y-71257197D01*
X97745333Y-71432307D01*
X97920443Y-71576016D01*
X98120225Y-71682802D01*
X98337001Y-71748560D01*
X98505948Y-71765200D01*
X98618932Y-71765200D01*
X98787879Y-71748560D01*
X99004655Y-71682802D01*
X99204437Y-71576016D01*
X99379547Y-71432307D01*
X99523256Y-71257197D01*
X99630042Y-71057415D01*
X99695800Y-70840639D01*
X99718004Y-70615200D01*
X99946876Y-70615200D01*
X99969080Y-70840639D01*
X100034838Y-71057415D01*
X100141624Y-71257197D01*
X100285333Y-71432307D01*
X100460443Y-71576016D01*
X100660225Y-71682802D01*
X100877001Y-71748560D01*
X101045948Y-71765200D01*
X101158932Y-71765200D01*
X101327879Y-71748560D01*
X101544655Y-71682802D01*
X101744437Y-71576016D01*
X101919547Y-71432307D01*
X102063256Y-71257197D01*
X102170042Y-71057415D01*
X102235800Y-70840639D01*
X102258004Y-70615200D01*
X102486876Y-70615200D01*
X102509080Y-70840639D01*
X102574838Y-71057415D01*
X102681624Y-71257197D01*
X102825333Y-71432307D01*
X103000443Y-71576016D01*
X103200225Y-71682802D01*
X103417001Y-71748560D01*
X103585948Y-71765200D01*
X103698932Y-71765200D01*
X103867879Y-71748560D01*
X104084655Y-71682802D01*
X104284437Y-71576016D01*
X104459547Y-71432307D01*
X104603256Y-71257197D01*
X104710042Y-71057415D01*
X104775800Y-70840639D01*
X104798004Y-70615200D01*
X104775800Y-70389761D01*
X104710042Y-70172985D01*
X104603256Y-69973203D01*
X104459547Y-69798093D01*
X104419467Y-69765200D01*
X105030989Y-69765200D01*
X105030989Y-71465200D01*
X105036781Y-71524010D01*
X105053936Y-71580560D01*
X105081793Y-71632677D01*
X105119282Y-71678358D01*
X105164963Y-71715847D01*
X105217080Y-71743704D01*
X105273630Y-71760859D01*
X105332440Y-71766651D01*
X107032440Y-71766651D01*
X107091250Y-71760859D01*
X107147800Y-71743704D01*
X107199917Y-71715847D01*
X107245598Y-71678358D01*
X107283087Y-71632677D01*
X107310944Y-71580560D01*
X107328099Y-71524010D01*
X107333891Y-71465200D01*
X107333891Y-70615200D01*
X115186876Y-70615200D01*
X115209080Y-70840639D01*
X115274838Y-71057415D01*
X115381624Y-71257197D01*
X115525333Y-71432307D01*
X115700443Y-71576016D01*
X115900225Y-71682802D01*
X116117001Y-71748560D01*
X116285948Y-71765200D01*
X116398932Y-71765200D01*
X116567879Y-71748560D01*
X116784655Y-71682802D01*
X116984437Y-71576016D01*
X117159547Y-71432307D01*
X117303256Y-71257197D01*
X117410042Y-71057415D01*
X117475800Y-70840639D01*
X117479644Y-70801601D01*
X117737515Y-70801601D01*
X117795879Y-71021383D01*
X117895999Y-71225556D01*
X118034028Y-71406273D01*
X118204661Y-71556590D01*
X118401340Y-71670730D01*
X118616508Y-71744306D01*
X118696039Y-71760125D01*
X118877440Y-71697688D01*
X118877440Y-70620200D01*
X118887440Y-70620200D01*
X118887440Y-71697688D01*
X119068841Y-71760125D01*
X119148372Y-71744306D01*
X119363540Y-71670730D01*
X119560219Y-71556590D01*
X119730852Y-71406273D01*
X119868881Y-71225556D01*
X119969001Y-71021383D01*
X120027365Y-70801601D01*
X119964929Y-70620200D01*
X118887440Y-70620200D01*
X118877440Y-70620200D01*
X117799951Y-70620200D01*
X117737515Y-70801601D01*
X117479644Y-70801601D01*
X117498004Y-70615200D01*
X120266876Y-70615200D01*
X120289080Y-70840639D01*
X120354838Y-71057415D01*
X120461624Y-71257197D01*
X120605333Y-71432307D01*
X120780443Y-71576016D01*
X120980225Y-71682802D01*
X121197001Y-71748560D01*
X121365948Y-71765200D01*
X121478932Y-71765200D01*
X121647879Y-71748560D01*
X121864655Y-71682802D01*
X122064437Y-71576016D01*
X122239547Y-71432307D01*
X122383256Y-71257197D01*
X122490042Y-71057415D01*
X122555800Y-70840639D01*
X122578004Y-70615200D01*
X122806876Y-70615200D01*
X122829080Y-70840639D01*
X122894838Y-71057415D01*
X123001624Y-71257197D01*
X123145333Y-71432307D01*
X123320443Y-71576016D01*
X123520225Y-71682802D01*
X123737001Y-71748560D01*
X123905948Y-71765200D01*
X124018932Y-71765200D01*
X124187879Y-71748560D01*
X124404655Y-71682802D01*
X124604437Y-71576016D01*
X124779547Y-71432307D01*
X124923256Y-71257197D01*
X125030042Y-71057415D01*
X125095800Y-70840639D01*
X125118004Y-70615200D01*
X125346876Y-70615200D01*
X125369080Y-70840639D01*
X125434838Y-71057415D01*
X125541624Y-71257197D01*
X125685333Y-71432307D01*
X125860443Y-71576016D01*
X126060225Y-71682802D01*
X126277001Y-71748560D01*
X126445948Y-71765200D01*
X126558932Y-71765200D01*
X126727879Y-71748560D01*
X126944655Y-71682802D01*
X127144437Y-71576016D01*
X127319547Y-71432307D01*
X127463256Y-71257197D01*
X127570042Y-71057415D01*
X127635800Y-70840639D01*
X127658004Y-70615200D01*
X127635800Y-70389761D01*
X127570042Y-70172985D01*
X127463256Y-69973203D01*
X127319547Y-69798093D01*
X127279467Y-69765200D01*
X127890989Y-69765200D01*
X127890989Y-71465200D01*
X127896781Y-71524010D01*
X127913936Y-71580560D01*
X127941793Y-71632677D01*
X127979282Y-71678358D01*
X128024963Y-71715847D01*
X128077080Y-71743704D01*
X128133630Y-71760859D01*
X128192440Y-71766651D01*
X129892440Y-71766651D01*
X129951250Y-71760859D01*
X130007800Y-71743704D01*
X130059917Y-71715847D01*
X130105598Y-71678358D01*
X130143087Y-71632677D01*
X130170944Y-71580560D01*
X130188099Y-71524010D01*
X130193891Y-71465200D01*
X130193891Y-69765200D01*
X130188099Y-69706390D01*
X130170944Y-69649840D01*
X130143087Y-69597723D01*
X130105598Y-69552042D01*
X130059917Y-69514553D01*
X130007800Y-69486696D01*
X129951250Y-69469541D01*
X129892440Y-69463749D01*
X128192440Y-69463749D01*
X128133630Y-69469541D01*
X128077080Y-69486696D01*
X128024963Y-69514553D01*
X127979282Y-69552042D01*
X127941793Y-69597723D01*
X127913936Y-69649840D01*
X127896781Y-69706390D01*
X127890989Y-69765200D01*
X127279467Y-69765200D01*
X127144437Y-69654384D01*
X126944655Y-69547598D01*
X126727879Y-69481840D01*
X126558932Y-69465200D01*
X126445948Y-69465200D01*
X126277001Y-69481840D01*
X126060225Y-69547598D01*
X125860443Y-69654384D01*
X125685333Y-69798093D01*
X125541624Y-69973203D01*
X125434838Y-70172985D01*
X125369080Y-70389761D01*
X125346876Y-70615200D01*
X125118004Y-70615200D01*
X125095800Y-70389761D01*
X125030042Y-70172985D01*
X124923256Y-69973203D01*
X124779547Y-69798093D01*
X124604437Y-69654384D01*
X124404655Y-69547598D01*
X124187879Y-69481840D01*
X124018932Y-69465200D01*
X123905948Y-69465200D01*
X123737001Y-69481840D01*
X123520225Y-69547598D01*
X123320443Y-69654384D01*
X123145333Y-69798093D01*
X123001624Y-69973203D01*
X122894838Y-70172985D01*
X122829080Y-70389761D01*
X122806876Y-70615200D01*
X122578004Y-70615200D01*
X122555800Y-70389761D01*
X122490042Y-70172985D01*
X122383256Y-69973203D01*
X122239547Y-69798093D01*
X122064437Y-69654384D01*
X121864655Y-69547598D01*
X121647879Y-69481840D01*
X121478932Y-69465200D01*
X121365948Y-69465200D01*
X121197001Y-69481840D01*
X120980225Y-69547598D01*
X120780443Y-69654384D01*
X120605333Y-69798093D01*
X120461624Y-69973203D01*
X120354838Y-70172985D01*
X120289080Y-70389761D01*
X120266876Y-70615200D01*
X117498004Y-70615200D01*
X117479645Y-70428799D01*
X117737515Y-70428799D01*
X117799951Y-70610200D01*
X118877440Y-70610200D01*
X118877440Y-69532712D01*
X118887440Y-69532712D01*
X118887440Y-70610200D01*
X119964929Y-70610200D01*
X120027365Y-70428799D01*
X119969001Y-70209017D01*
X119868881Y-70004844D01*
X119730852Y-69824127D01*
X119560219Y-69673810D01*
X119363540Y-69559670D01*
X119148372Y-69486094D01*
X119068841Y-69470275D01*
X118887440Y-69532712D01*
X118877440Y-69532712D01*
X118696039Y-69470275D01*
X118616508Y-69486094D01*
X118401340Y-69559670D01*
X118204661Y-69673810D01*
X118034028Y-69824127D01*
X117895999Y-70004844D01*
X117795879Y-70209017D01*
X117737515Y-70428799D01*
X117479645Y-70428799D01*
X117475800Y-70389761D01*
X117410042Y-70172985D01*
X117303256Y-69973203D01*
X117159547Y-69798093D01*
X116984437Y-69654384D01*
X116784655Y-69547598D01*
X116567879Y-69481840D01*
X116398932Y-69465200D01*
X116285948Y-69465200D01*
X116117001Y-69481840D01*
X115900225Y-69547598D01*
X115700443Y-69654384D01*
X115525333Y-69798093D01*
X115381624Y-69973203D01*
X115274838Y-70172985D01*
X115209080Y-70389761D01*
X115186876Y-70615200D01*
X107333891Y-70615200D01*
X107333891Y-69765200D01*
X107328099Y-69706390D01*
X107310944Y-69649840D01*
X107283087Y-69597723D01*
X107245598Y-69552042D01*
X107199917Y-69514553D01*
X107147800Y-69486696D01*
X107091250Y-69469541D01*
X107032440Y-69463749D01*
X105332440Y-69463749D01*
X105273630Y-69469541D01*
X105217080Y-69486696D01*
X105164963Y-69514553D01*
X105119282Y-69552042D01*
X105081793Y-69597723D01*
X105053936Y-69649840D01*
X105036781Y-69706390D01*
X105030989Y-69765200D01*
X104419467Y-69765200D01*
X104284437Y-69654384D01*
X104084655Y-69547598D01*
X103867879Y-69481840D01*
X103698932Y-69465200D01*
X103585948Y-69465200D01*
X103417001Y-69481840D01*
X103200225Y-69547598D01*
X103000443Y-69654384D01*
X102825333Y-69798093D01*
X102681624Y-69973203D01*
X102574838Y-70172985D01*
X102509080Y-70389761D01*
X102486876Y-70615200D01*
X102258004Y-70615200D01*
X102235800Y-70389761D01*
X102170042Y-70172985D01*
X102063256Y-69973203D01*
X101919547Y-69798093D01*
X101744437Y-69654384D01*
X101544655Y-69547598D01*
X101327879Y-69481840D01*
X101158932Y-69465200D01*
X101045948Y-69465200D01*
X100877001Y-69481840D01*
X100660225Y-69547598D01*
X100460443Y-69654384D01*
X100285333Y-69798093D01*
X100141624Y-69973203D01*
X100034838Y-70172985D01*
X99969080Y-70389761D01*
X99946876Y-70615200D01*
X99718004Y-70615200D01*
X99695800Y-70389761D01*
X99630042Y-70172985D01*
X99523256Y-69973203D01*
X99379547Y-69798093D01*
X99204437Y-69654384D01*
X99004655Y-69547598D01*
X98787879Y-69481840D01*
X98618932Y-69465200D01*
X98505948Y-69465200D01*
X98337001Y-69481840D01*
X98120225Y-69547598D01*
X97920443Y-69654384D01*
X97745333Y-69798093D01*
X97601624Y-69973203D01*
X97494838Y-70172985D01*
X97429080Y-70389761D01*
X97406876Y-70615200D01*
X94638004Y-70615200D01*
X94619645Y-70428799D01*
X94877515Y-70428799D01*
X94939951Y-70610200D01*
X96017440Y-70610200D01*
X96017440Y-69532712D01*
X96027440Y-69532712D01*
X96027440Y-70610200D01*
X97104929Y-70610200D01*
X97167365Y-70428799D01*
X97109001Y-70209017D01*
X97008881Y-70004844D01*
X96870852Y-69824127D01*
X96700219Y-69673810D01*
X96503540Y-69559670D01*
X96288372Y-69486094D01*
X96208841Y-69470275D01*
X96027440Y-69532712D01*
X96017440Y-69532712D01*
X95836039Y-69470275D01*
X95756508Y-69486094D01*
X95541340Y-69559670D01*
X95344661Y-69673810D01*
X95174028Y-69824127D01*
X95035999Y-70004844D01*
X94935879Y-70209017D01*
X94877515Y-70428799D01*
X94619645Y-70428799D01*
X94615800Y-70389761D01*
X94550042Y-70172985D01*
X94443256Y-69973203D01*
X94299547Y-69798093D01*
X94124437Y-69654384D01*
X93924655Y-69547598D01*
X93707879Y-69481840D01*
X93538932Y-69465200D01*
X93425948Y-69465200D01*
X93257001Y-69481840D01*
X93040225Y-69547598D01*
X92840443Y-69654384D01*
X92665333Y-69798093D01*
X92521624Y-69973203D01*
X92414838Y-70172985D01*
X92349080Y-70389761D01*
X92326876Y-70615200D01*
X86071400Y-70615200D01*
X86071400Y-60993540D01*
X86265912Y-61284648D01*
X86555352Y-61574088D01*
X86895698Y-61801500D01*
X87273870Y-61958144D01*
X87675335Y-62038000D01*
X88084665Y-62038000D01*
X88486130Y-61958144D01*
X88864302Y-61801500D01*
X89204648Y-61574088D01*
X89494088Y-61284648D01*
X89721500Y-60944302D01*
X89878144Y-60566130D01*
X89958000Y-60164665D01*
X89958000Y-59755335D01*
X89878144Y-59353870D01*
X89721500Y-58975698D01*
X89494088Y-58635352D01*
X89204648Y-58345912D01*
X88864302Y-58118500D01*
X88486130Y-57961856D01*
X88084665Y-57882000D01*
X87675335Y-57882000D01*
X87394844Y-57937793D01*
X87428660Y-57919509D01*
X87841323Y-57791768D01*
X88286271Y-57745002D01*
X88286964Y-57745000D01*
X101194348Y-57745000D01*
X101116918Y-57796737D01*
M02*
