G04 #@! TF.GenerationSoftware,KiCad,Pcbnew,(5.1.2)-1*
G04 #@! TF.CreationDate,2019-07-17T11:08:16+10:00*
G04 #@! TF.ProjectId,pmod-breakout,706d6f64-2d62-4726-9561-6b6f75742e6b,rev?*
G04 #@! TF.SameCoordinates,Original*
G04 #@! TF.FileFunction,Soldermask,Bot*
G04 #@! TF.FilePolarity,Negative*
%FSLAX46Y46*%
G04 Gerber Fmt 4.6, Leading zero omitted, Abs format (unit mm)*
G04 Created by KiCad (PCBNEW (5.1.2)-1) date 2019-07-17 11:08:16*
%MOMM*%
%LPD*%
G04 APERTURE LIST*
%ADD10C,0.100000*%
G04 APERTURE END LIST*
D10*
G36*
X94343512Y-78113927D02*
G01*
X94492812Y-78143624D01*
X94656784Y-78211544D01*
X94804354Y-78310147D01*
X94929853Y-78435646D01*
X95028456Y-78583216D01*
X95096376Y-78747188D01*
X95131000Y-78921259D01*
X95131000Y-79098741D01*
X95096376Y-79272812D01*
X95028456Y-79436784D01*
X94929853Y-79584354D01*
X94804354Y-79709853D01*
X94656784Y-79808456D01*
X94492812Y-79876376D01*
X94343512Y-79906073D01*
X94318742Y-79911000D01*
X94141258Y-79911000D01*
X94116488Y-79906073D01*
X93967188Y-79876376D01*
X93803216Y-79808456D01*
X93655646Y-79709853D01*
X93530147Y-79584354D01*
X93431544Y-79436784D01*
X93363624Y-79272812D01*
X93329000Y-79098741D01*
X93329000Y-78921259D01*
X93363624Y-78747188D01*
X93431544Y-78583216D01*
X93530147Y-78435646D01*
X93655646Y-78310147D01*
X93803216Y-78211544D01*
X93967188Y-78143624D01*
X94116488Y-78113927D01*
X94141258Y-78109000D01*
X94318742Y-78109000D01*
X94343512Y-78113927D01*
X94343512Y-78113927D01*
G37*
G36*
X114663512Y-78113927D02*
G01*
X114812812Y-78143624D01*
X114976784Y-78211544D01*
X115124354Y-78310147D01*
X115249853Y-78435646D01*
X115348456Y-78583216D01*
X115416376Y-78747188D01*
X115451000Y-78921259D01*
X115451000Y-79098741D01*
X115416376Y-79272812D01*
X115348456Y-79436784D01*
X115249853Y-79584354D01*
X115124354Y-79709853D01*
X114976784Y-79808456D01*
X114812812Y-79876376D01*
X114663512Y-79906073D01*
X114638742Y-79911000D01*
X114461258Y-79911000D01*
X114436488Y-79906073D01*
X114287188Y-79876376D01*
X114123216Y-79808456D01*
X113975646Y-79709853D01*
X113850147Y-79584354D01*
X113751544Y-79436784D01*
X113683624Y-79272812D01*
X113649000Y-79098741D01*
X113649000Y-78921259D01*
X113683624Y-78747188D01*
X113751544Y-78583216D01*
X113850147Y-78435646D01*
X113975646Y-78310147D01*
X114123216Y-78211544D01*
X114287188Y-78143624D01*
X114436488Y-78113927D01*
X114461258Y-78109000D01*
X114638742Y-78109000D01*
X114663512Y-78113927D01*
X114663512Y-78113927D01*
G37*
G36*
X129903512Y-78113927D02*
G01*
X130052812Y-78143624D01*
X130216784Y-78211544D01*
X130364354Y-78310147D01*
X130489853Y-78435646D01*
X130588456Y-78583216D01*
X130656376Y-78747188D01*
X130691000Y-78921259D01*
X130691000Y-79098741D01*
X130656376Y-79272812D01*
X130588456Y-79436784D01*
X130489853Y-79584354D01*
X130364354Y-79709853D01*
X130216784Y-79808456D01*
X130052812Y-79876376D01*
X129903512Y-79906073D01*
X129878742Y-79911000D01*
X129701258Y-79911000D01*
X129676488Y-79906073D01*
X129527188Y-79876376D01*
X129363216Y-79808456D01*
X129215646Y-79709853D01*
X129090147Y-79584354D01*
X128991544Y-79436784D01*
X128923624Y-79272812D01*
X128889000Y-79098741D01*
X128889000Y-78921259D01*
X128923624Y-78747188D01*
X128991544Y-78583216D01*
X129090147Y-78435646D01*
X129215646Y-78310147D01*
X129363216Y-78211544D01*
X129527188Y-78143624D01*
X129676488Y-78113927D01*
X129701258Y-78109000D01*
X129878742Y-78109000D01*
X129903512Y-78113927D01*
X129903512Y-78113927D01*
G37*
G36*
X91803512Y-78113927D02*
G01*
X91952812Y-78143624D01*
X92116784Y-78211544D01*
X92264354Y-78310147D01*
X92389853Y-78435646D01*
X92488456Y-78583216D01*
X92556376Y-78747188D01*
X92591000Y-78921259D01*
X92591000Y-79098741D01*
X92556376Y-79272812D01*
X92488456Y-79436784D01*
X92389853Y-79584354D01*
X92264354Y-79709853D01*
X92116784Y-79808456D01*
X91952812Y-79876376D01*
X91803512Y-79906073D01*
X91778742Y-79911000D01*
X91601258Y-79911000D01*
X91576488Y-79906073D01*
X91427188Y-79876376D01*
X91263216Y-79808456D01*
X91115646Y-79709853D01*
X90990147Y-79584354D01*
X90891544Y-79436784D01*
X90823624Y-79272812D01*
X90789000Y-79098741D01*
X90789000Y-78921259D01*
X90823624Y-78747188D01*
X90891544Y-78583216D01*
X90990147Y-78435646D01*
X91115646Y-78310147D01*
X91263216Y-78211544D01*
X91427188Y-78143624D01*
X91576488Y-78113927D01*
X91601258Y-78109000D01*
X91778742Y-78109000D01*
X91803512Y-78113927D01*
X91803512Y-78113927D01*
G37*
G36*
X124823512Y-78113927D02*
G01*
X124972812Y-78143624D01*
X125136784Y-78211544D01*
X125284354Y-78310147D01*
X125409853Y-78435646D01*
X125508456Y-78583216D01*
X125576376Y-78747188D01*
X125611000Y-78921259D01*
X125611000Y-79098741D01*
X125576376Y-79272812D01*
X125508456Y-79436784D01*
X125409853Y-79584354D01*
X125284354Y-79709853D01*
X125136784Y-79808456D01*
X124972812Y-79876376D01*
X124823512Y-79906073D01*
X124798742Y-79911000D01*
X124621258Y-79911000D01*
X124596488Y-79906073D01*
X124447188Y-79876376D01*
X124283216Y-79808456D01*
X124135646Y-79709853D01*
X124010147Y-79584354D01*
X123911544Y-79436784D01*
X123843624Y-79272812D01*
X123809000Y-79098741D01*
X123809000Y-78921259D01*
X123843624Y-78747188D01*
X123911544Y-78583216D01*
X124010147Y-78435646D01*
X124135646Y-78310147D01*
X124283216Y-78211544D01*
X124447188Y-78143624D01*
X124596488Y-78113927D01*
X124621258Y-78109000D01*
X124798742Y-78109000D01*
X124823512Y-78113927D01*
X124823512Y-78113927D01*
G37*
G36*
X122283512Y-78113927D02*
G01*
X122432812Y-78143624D01*
X122596784Y-78211544D01*
X122744354Y-78310147D01*
X122869853Y-78435646D01*
X122968456Y-78583216D01*
X123036376Y-78747188D01*
X123071000Y-78921259D01*
X123071000Y-79098741D01*
X123036376Y-79272812D01*
X122968456Y-79436784D01*
X122869853Y-79584354D01*
X122744354Y-79709853D01*
X122596784Y-79808456D01*
X122432812Y-79876376D01*
X122283512Y-79906073D01*
X122258742Y-79911000D01*
X122081258Y-79911000D01*
X122056488Y-79906073D01*
X121907188Y-79876376D01*
X121743216Y-79808456D01*
X121595646Y-79709853D01*
X121470147Y-79584354D01*
X121371544Y-79436784D01*
X121303624Y-79272812D01*
X121269000Y-79098741D01*
X121269000Y-78921259D01*
X121303624Y-78747188D01*
X121371544Y-78583216D01*
X121470147Y-78435646D01*
X121595646Y-78310147D01*
X121743216Y-78211544D01*
X121907188Y-78143624D01*
X122056488Y-78113927D01*
X122081258Y-78109000D01*
X122258742Y-78109000D01*
X122283512Y-78113927D01*
X122283512Y-78113927D01*
G37*
G36*
X119743512Y-78113927D02*
G01*
X119892812Y-78143624D01*
X120056784Y-78211544D01*
X120204354Y-78310147D01*
X120329853Y-78435646D01*
X120428456Y-78583216D01*
X120496376Y-78747188D01*
X120531000Y-78921259D01*
X120531000Y-79098741D01*
X120496376Y-79272812D01*
X120428456Y-79436784D01*
X120329853Y-79584354D01*
X120204354Y-79709853D01*
X120056784Y-79808456D01*
X119892812Y-79876376D01*
X119743512Y-79906073D01*
X119718742Y-79911000D01*
X119541258Y-79911000D01*
X119516488Y-79906073D01*
X119367188Y-79876376D01*
X119203216Y-79808456D01*
X119055646Y-79709853D01*
X118930147Y-79584354D01*
X118831544Y-79436784D01*
X118763624Y-79272812D01*
X118729000Y-79098741D01*
X118729000Y-78921259D01*
X118763624Y-78747188D01*
X118831544Y-78583216D01*
X118930147Y-78435646D01*
X119055646Y-78310147D01*
X119203216Y-78211544D01*
X119367188Y-78143624D01*
X119516488Y-78113927D01*
X119541258Y-78109000D01*
X119718742Y-78109000D01*
X119743512Y-78113927D01*
X119743512Y-78113927D01*
G37*
G36*
X117203512Y-78113927D02*
G01*
X117352812Y-78143624D01*
X117516784Y-78211544D01*
X117664354Y-78310147D01*
X117789853Y-78435646D01*
X117888456Y-78583216D01*
X117956376Y-78747188D01*
X117991000Y-78921259D01*
X117991000Y-79098741D01*
X117956376Y-79272812D01*
X117888456Y-79436784D01*
X117789853Y-79584354D01*
X117664354Y-79709853D01*
X117516784Y-79808456D01*
X117352812Y-79876376D01*
X117203512Y-79906073D01*
X117178742Y-79911000D01*
X117001258Y-79911000D01*
X116976488Y-79906073D01*
X116827188Y-79876376D01*
X116663216Y-79808456D01*
X116515646Y-79709853D01*
X116390147Y-79584354D01*
X116291544Y-79436784D01*
X116223624Y-79272812D01*
X116189000Y-79098741D01*
X116189000Y-78921259D01*
X116223624Y-78747188D01*
X116291544Y-78583216D01*
X116390147Y-78435646D01*
X116515646Y-78310147D01*
X116663216Y-78211544D01*
X116827188Y-78143624D01*
X116976488Y-78113927D01*
X117001258Y-78109000D01*
X117178742Y-78109000D01*
X117203512Y-78113927D01*
X117203512Y-78113927D01*
G37*
G36*
X127363512Y-78113927D02*
G01*
X127512812Y-78143624D01*
X127676784Y-78211544D01*
X127824354Y-78310147D01*
X127949853Y-78435646D01*
X128048456Y-78583216D01*
X128116376Y-78747188D01*
X128151000Y-78921259D01*
X128151000Y-79098741D01*
X128116376Y-79272812D01*
X128048456Y-79436784D01*
X127949853Y-79584354D01*
X127824354Y-79709853D01*
X127676784Y-79808456D01*
X127512812Y-79876376D01*
X127363512Y-79906073D01*
X127338742Y-79911000D01*
X127161258Y-79911000D01*
X127136488Y-79906073D01*
X126987188Y-79876376D01*
X126823216Y-79808456D01*
X126675646Y-79709853D01*
X126550147Y-79584354D01*
X126451544Y-79436784D01*
X126383624Y-79272812D01*
X126349000Y-79098741D01*
X126349000Y-78921259D01*
X126383624Y-78747188D01*
X126451544Y-78583216D01*
X126550147Y-78435646D01*
X126675646Y-78310147D01*
X126823216Y-78211544D01*
X126987188Y-78143624D01*
X127136488Y-78113927D01*
X127161258Y-78109000D01*
X127338742Y-78109000D01*
X127363512Y-78113927D01*
X127363512Y-78113927D01*
G37*
G36*
X112123512Y-78113927D02*
G01*
X112272812Y-78143624D01*
X112436784Y-78211544D01*
X112584354Y-78310147D01*
X112709853Y-78435646D01*
X112808456Y-78583216D01*
X112876376Y-78747188D01*
X112911000Y-78921259D01*
X112911000Y-79098741D01*
X112876376Y-79272812D01*
X112808456Y-79436784D01*
X112709853Y-79584354D01*
X112584354Y-79709853D01*
X112436784Y-79808456D01*
X112272812Y-79876376D01*
X112123512Y-79906073D01*
X112098742Y-79911000D01*
X111921258Y-79911000D01*
X111896488Y-79906073D01*
X111747188Y-79876376D01*
X111583216Y-79808456D01*
X111435646Y-79709853D01*
X111310147Y-79584354D01*
X111211544Y-79436784D01*
X111143624Y-79272812D01*
X111109000Y-79098741D01*
X111109000Y-78921259D01*
X111143624Y-78747188D01*
X111211544Y-78583216D01*
X111310147Y-78435646D01*
X111435646Y-78310147D01*
X111583216Y-78211544D01*
X111747188Y-78143624D01*
X111896488Y-78113927D01*
X111921258Y-78109000D01*
X112098742Y-78109000D01*
X112123512Y-78113927D01*
X112123512Y-78113927D01*
G37*
G36*
X109583512Y-78113927D02*
G01*
X109732812Y-78143624D01*
X109896784Y-78211544D01*
X110044354Y-78310147D01*
X110169853Y-78435646D01*
X110268456Y-78583216D01*
X110336376Y-78747188D01*
X110371000Y-78921259D01*
X110371000Y-79098741D01*
X110336376Y-79272812D01*
X110268456Y-79436784D01*
X110169853Y-79584354D01*
X110044354Y-79709853D01*
X109896784Y-79808456D01*
X109732812Y-79876376D01*
X109583512Y-79906073D01*
X109558742Y-79911000D01*
X109381258Y-79911000D01*
X109356488Y-79906073D01*
X109207188Y-79876376D01*
X109043216Y-79808456D01*
X108895646Y-79709853D01*
X108770147Y-79584354D01*
X108671544Y-79436784D01*
X108603624Y-79272812D01*
X108569000Y-79098741D01*
X108569000Y-78921259D01*
X108603624Y-78747188D01*
X108671544Y-78583216D01*
X108770147Y-78435646D01*
X108895646Y-78310147D01*
X109043216Y-78211544D01*
X109207188Y-78143624D01*
X109356488Y-78113927D01*
X109381258Y-78109000D01*
X109558742Y-78109000D01*
X109583512Y-78113927D01*
X109583512Y-78113927D01*
G37*
G36*
X107043512Y-78113927D02*
G01*
X107192812Y-78143624D01*
X107356784Y-78211544D01*
X107504354Y-78310147D01*
X107629853Y-78435646D01*
X107728456Y-78583216D01*
X107796376Y-78747188D01*
X107831000Y-78921259D01*
X107831000Y-79098741D01*
X107796376Y-79272812D01*
X107728456Y-79436784D01*
X107629853Y-79584354D01*
X107504354Y-79709853D01*
X107356784Y-79808456D01*
X107192812Y-79876376D01*
X107043512Y-79906073D01*
X107018742Y-79911000D01*
X106841258Y-79911000D01*
X106816488Y-79906073D01*
X106667188Y-79876376D01*
X106503216Y-79808456D01*
X106355646Y-79709853D01*
X106230147Y-79584354D01*
X106131544Y-79436784D01*
X106063624Y-79272812D01*
X106029000Y-79098741D01*
X106029000Y-78921259D01*
X106063624Y-78747188D01*
X106131544Y-78583216D01*
X106230147Y-78435646D01*
X106355646Y-78310147D01*
X106503216Y-78211544D01*
X106667188Y-78143624D01*
X106816488Y-78113927D01*
X106841258Y-78109000D01*
X107018742Y-78109000D01*
X107043512Y-78113927D01*
X107043512Y-78113927D01*
G37*
G36*
X104503512Y-78113927D02*
G01*
X104652812Y-78143624D01*
X104816784Y-78211544D01*
X104964354Y-78310147D01*
X105089853Y-78435646D01*
X105188456Y-78583216D01*
X105256376Y-78747188D01*
X105291000Y-78921259D01*
X105291000Y-79098741D01*
X105256376Y-79272812D01*
X105188456Y-79436784D01*
X105089853Y-79584354D01*
X104964354Y-79709853D01*
X104816784Y-79808456D01*
X104652812Y-79876376D01*
X104503512Y-79906073D01*
X104478742Y-79911000D01*
X104301258Y-79911000D01*
X104276488Y-79906073D01*
X104127188Y-79876376D01*
X103963216Y-79808456D01*
X103815646Y-79709853D01*
X103690147Y-79584354D01*
X103591544Y-79436784D01*
X103523624Y-79272812D01*
X103489000Y-79098741D01*
X103489000Y-78921259D01*
X103523624Y-78747188D01*
X103591544Y-78583216D01*
X103690147Y-78435646D01*
X103815646Y-78310147D01*
X103963216Y-78211544D01*
X104127188Y-78143624D01*
X104276488Y-78113927D01*
X104301258Y-78109000D01*
X104478742Y-78109000D01*
X104503512Y-78113927D01*
X104503512Y-78113927D01*
G37*
G36*
X101963512Y-78113927D02*
G01*
X102112812Y-78143624D01*
X102276784Y-78211544D01*
X102424354Y-78310147D01*
X102549853Y-78435646D01*
X102648456Y-78583216D01*
X102716376Y-78747188D01*
X102751000Y-78921259D01*
X102751000Y-79098741D01*
X102716376Y-79272812D01*
X102648456Y-79436784D01*
X102549853Y-79584354D01*
X102424354Y-79709853D01*
X102276784Y-79808456D01*
X102112812Y-79876376D01*
X101963512Y-79906073D01*
X101938742Y-79911000D01*
X101761258Y-79911000D01*
X101736488Y-79906073D01*
X101587188Y-79876376D01*
X101423216Y-79808456D01*
X101275646Y-79709853D01*
X101150147Y-79584354D01*
X101051544Y-79436784D01*
X100983624Y-79272812D01*
X100949000Y-79098741D01*
X100949000Y-78921259D01*
X100983624Y-78747188D01*
X101051544Y-78583216D01*
X101150147Y-78435646D01*
X101275646Y-78310147D01*
X101423216Y-78211544D01*
X101587188Y-78143624D01*
X101736488Y-78113927D01*
X101761258Y-78109000D01*
X101938742Y-78109000D01*
X101963512Y-78113927D01*
X101963512Y-78113927D01*
G37*
G36*
X99423512Y-78113927D02*
G01*
X99572812Y-78143624D01*
X99736784Y-78211544D01*
X99884354Y-78310147D01*
X100009853Y-78435646D01*
X100108456Y-78583216D01*
X100176376Y-78747188D01*
X100211000Y-78921259D01*
X100211000Y-79098741D01*
X100176376Y-79272812D01*
X100108456Y-79436784D01*
X100009853Y-79584354D01*
X99884354Y-79709853D01*
X99736784Y-79808456D01*
X99572812Y-79876376D01*
X99423512Y-79906073D01*
X99398742Y-79911000D01*
X99221258Y-79911000D01*
X99196488Y-79906073D01*
X99047188Y-79876376D01*
X98883216Y-79808456D01*
X98735646Y-79709853D01*
X98610147Y-79584354D01*
X98511544Y-79436784D01*
X98443624Y-79272812D01*
X98409000Y-79098741D01*
X98409000Y-78921259D01*
X98443624Y-78747188D01*
X98511544Y-78583216D01*
X98610147Y-78435646D01*
X98735646Y-78310147D01*
X98883216Y-78211544D01*
X99047188Y-78143624D01*
X99196488Y-78113927D01*
X99221258Y-78109000D01*
X99398742Y-78109000D01*
X99423512Y-78113927D01*
X99423512Y-78113927D01*
G37*
G36*
X96883512Y-78113927D02*
G01*
X97032812Y-78143624D01*
X97196784Y-78211544D01*
X97344354Y-78310147D01*
X97469853Y-78435646D01*
X97568456Y-78583216D01*
X97636376Y-78747188D01*
X97671000Y-78921259D01*
X97671000Y-79098741D01*
X97636376Y-79272812D01*
X97568456Y-79436784D01*
X97469853Y-79584354D01*
X97344354Y-79709853D01*
X97196784Y-79808456D01*
X97032812Y-79876376D01*
X96883512Y-79906073D01*
X96858742Y-79911000D01*
X96681258Y-79911000D01*
X96656488Y-79906073D01*
X96507188Y-79876376D01*
X96343216Y-79808456D01*
X96195646Y-79709853D01*
X96070147Y-79584354D01*
X95971544Y-79436784D01*
X95903624Y-79272812D01*
X95869000Y-79098741D01*
X95869000Y-78921259D01*
X95903624Y-78747188D01*
X95971544Y-78583216D01*
X96070147Y-78435646D01*
X96195646Y-78310147D01*
X96343216Y-78211544D01*
X96507188Y-78143624D01*
X96656488Y-78113927D01*
X96681258Y-78109000D01*
X96858742Y-78109000D01*
X96883512Y-78113927D01*
X96883512Y-78113927D01*
G37*
G36*
X133956820Y-75946143D02*
G01*
X134133500Y-75981287D01*
X134271373Y-76038396D01*
X134466355Y-76119160D01*
X134466356Y-76119161D01*
X134765920Y-76319323D01*
X135020677Y-76574080D01*
X135020678Y-76574082D01*
X135220840Y-76873645D01*
X135358713Y-77206501D01*
X135429000Y-77559858D01*
X135429000Y-77920142D01*
X135358713Y-78273499D01*
X135220840Y-78606355D01*
X135220839Y-78606356D01*
X135020677Y-78905920D01*
X134765920Y-79160677D01*
X134615120Y-79261438D01*
X134466355Y-79360840D01*
X134283014Y-79436782D01*
X134133500Y-79498713D01*
X133956820Y-79533857D01*
X133780142Y-79569000D01*
X133419858Y-79569000D01*
X133243180Y-79533857D01*
X133066500Y-79498713D01*
X132916986Y-79436782D01*
X132733645Y-79360840D01*
X132584880Y-79261438D01*
X132434080Y-79160677D01*
X132179323Y-78905920D01*
X131979161Y-78606356D01*
X131979160Y-78606355D01*
X131841287Y-78273499D01*
X131771000Y-77920142D01*
X131771000Y-77559858D01*
X131841287Y-77206501D01*
X131979160Y-76873645D01*
X132179322Y-76574082D01*
X132179323Y-76574080D01*
X132434080Y-76319323D01*
X132733644Y-76119161D01*
X132733645Y-76119160D01*
X132928627Y-76038396D01*
X133066500Y-75981287D01*
X133243180Y-75946143D01*
X133419858Y-75911000D01*
X133780142Y-75911000D01*
X133956820Y-75946143D01*
X133956820Y-75946143D01*
G37*
G36*
X88236820Y-75946143D02*
G01*
X88413500Y-75981287D01*
X88551373Y-76038396D01*
X88746355Y-76119160D01*
X88746356Y-76119161D01*
X89045920Y-76319323D01*
X89300677Y-76574080D01*
X89300678Y-76574082D01*
X89500840Y-76873645D01*
X89638713Y-77206501D01*
X89709000Y-77559858D01*
X89709000Y-77920142D01*
X89638713Y-78273499D01*
X89500840Y-78606355D01*
X89500839Y-78606356D01*
X89300677Y-78905920D01*
X89045920Y-79160677D01*
X88895120Y-79261438D01*
X88746355Y-79360840D01*
X88563014Y-79436782D01*
X88413500Y-79498713D01*
X88236820Y-79533857D01*
X88060142Y-79569000D01*
X87699858Y-79569000D01*
X87523180Y-79533857D01*
X87346500Y-79498713D01*
X87196986Y-79436782D01*
X87013645Y-79360840D01*
X86864880Y-79261438D01*
X86714080Y-79160677D01*
X86459323Y-78905920D01*
X86259161Y-78606356D01*
X86259160Y-78606355D01*
X86121287Y-78273499D01*
X86051000Y-77920142D01*
X86051000Y-77559858D01*
X86121287Y-77206501D01*
X86259160Y-76873645D01*
X86459322Y-76574082D01*
X86459323Y-76574080D01*
X86714080Y-76319323D01*
X87013644Y-76119161D01*
X87013645Y-76119160D01*
X87208627Y-76038396D01*
X87346500Y-75981287D01*
X87523180Y-75946143D01*
X87699858Y-75911000D01*
X88060142Y-75911000D01*
X88236820Y-75946143D01*
X88236820Y-75946143D01*
G37*
G36*
X129152882Y-72260718D02*
G01*
X129219067Y-72267237D01*
X129388906Y-72318757D01*
X129545431Y-72402422D01*
X129581169Y-72431752D01*
X129682626Y-72515014D01*
X129765888Y-72616471D01*
X129795218Y-72652209D01*
X129878883Y-72808734D01*
X129930403Y-72978573D01*
X129947799Y-73155200D01*
X129930403Y-73331827D01*
X129878883Y-73501666D01*
X129795218Y-73658191D01*
X129765888Y-73693929D01*
X129682626Y-73795386D01*
X129581169Y-73878648D01*
X129545431Y-73907978D01*
X129388906Y-73991643D01*
X129219067Y-74043163D01*
X129152883Y-74049681D01*
X129086700Y-74056200D01*
X128998180Y-74056200D01*
X128931997Y-74049681D01*
X128865813Y-74043163D01*
X128695974Y-73991643D01*
X128539449Y-73907978D01*
X128503711Y-73878648D01*
X128402254Y-73795386D01*
X128318992Y-73693929D01*
X128289662Y-73658191D01*
X128205997Y-73501666D01*
X128154477Y-73331827D01*
X128137081Y-73155200D01*
X128154477Y-72978573D01*
X128205997Y-72808734D01*
X128289662Y-72652209D01*
X128318992Y-72616471D01*
X128402254Y-72515014D01*
X128503711Y-72431752D01*
X128539449Y-72402422D01*
X128695974Y-72318757D01*
X128865813Y-72267237D01*
X128931998Y-72260718D01*
X128998180Y-72254200D01*
X129086700Y-72254200D01*
X129152882Y-72260718D01*
X129152882Y-72260718D01*
G37*
G36*
X126612882Y-72260718D02*
G01*
X126679067Y-72267237D01*
X126848906Y-72318757D01*
X127005431Y-72402422D01*
X127041169Y-72431752D01*
X127142626Y-72515014D01*
X127225888Y-72616471D01*
X127255218Y-72652209D01*
X127338883Y-72808734D01*
X127390403Y-72978573D01*
X127407799Y-73155200D01*
X127390403Y-73331827D01*
X127338883Y-73501666D01*
X127255218Y-73658191D01*
X127225888Y-73693929D01*
X127142626Y-73795386D01*
X127041169Y-73878648D01*
X127005431Y-73907978D01*
X126848906Y-73991643D01*
X126679067Y-74043163D01*
X126612883Y-74049681D01*
X126546700Y-74056200D01*
X126458180Y-74056200D01*
X126391997Y-74049681D01*
X126325813Y-74043163D01*
X126155974Y-73991643D01*
X125999449Y-73907978D01*
X125963711Y-73878648D01*
X125862254Y-73795386D01*
X125778992Y-73693929D01*
X125749662Y-73658191D01*
X125665997Y-73501666D01*
X125614477Y-73331827D01*
X125597081Y-73155200D01*
X125614477Y-72978573D01*
X125665997Y-72808734D01*
X125749662Y-72652209D01*
X125778992Y-72616471D01*
X125862254Y-72515014D01*
X125963711Y-72431752D01*
X125999449Y-72402422D01*
X126155974Y-72318757D01*
X126325813Y-72267237D01*
X126391998Y-72260718D01*
X126458180Y-72254200D01*
X126546700Y-72254200D01*
X126612882Y-72260718D01*
X126612882Y-72260718D01*
G37*
G36*
X124072882Y-72260718D02*
G01*
X124139067Y-72267237D01*
X124308906Y-72318757D01*
X124465431Y-72402422D01*
X124501169Y-72431752D01*
X124602626Y-72515014D01*
X124685888Y-72616471D01*
X124715218Y-72652209D01*
X124798883Y-72808734D01*
X124850403Y-72978573D01*
X124867799Y-73155200D01*
X124850403Y-73331827D01*
X124798883Y-73501666D01*
X124715218Y-73658191D01*
X124685888Y-73693929D01*
X124602626Y-73795386D01*
X124501169Y-73878648D01*
X124465431Y-73907978D01*
X124308906Y-73991643D01*
X124139067Y-74043163D01*
X124072883Y-74049681D01*
X124006700Y-74056200D01*
X123918180Y-74056200D01*
X123851997Y-74049681D01*
X123785813Y-74043163D01*
X123615974Y-73991643D01*
X123459449Y-73907978D01*
X123423711Y-73878648D01*
X123322254Y-73795386D01*
X123238992Y-73693929D01*
X123209662Y-73658191D01*
X123125997Y-73501666D01*
X123074477Y-73331827D01*
X123057081Y-73155200D01*
X123074477Y-72978573D01*
X123125997Y-72808734D01*
X123209662Y-72652209D01*
X123238992Y-72616471D01*
X123322254Y-72515014D01*
X123423711Y-72431752D01*
X123459449Y-72402422D01*
X123615974Y-72318757D01*
X123785813Y-72267237D01*
X123851998Y-72260718D01*
X123918180Y-72254200D01*
X124006700Y-72254200D01*
X124072882Y-72260718D01*
X124072882Y-72260718D01*
G37*
G36*
X121532882Y-72260718D02*
G01*
X121599067Y-72267237D01*
X121768906Y-72318757D01*
X121925431Y-72402422D01*
X121961169Y-72431752D01*
X122062626Y-72515014D01*
X122145888Y-72616471D01*
X122175218Y-72652209D01*
X122258883Y-72808734D01*
X122310403Y-72978573D01*
X122327799Y-73155200D01*
X122310403Y-73331827D01*
X122258883Y-73501666D01*
X122175218Y-73658191D01*
X122145888Y-73693929D01*
X122062626Y-73795386D01*
X121961169Y-73878648D01*
X121925431Y-73907978D01*
X121768906Y-73991643D01*
X121599067Y-74043163D01*
X121532883Y-74049681D01*
X121466700Y-74056200D01*
X121378180Y-74056200D01*
X121311997Y-74049681D01*
X121245813Y-74043163D01*
X121075974Y-73991643D01*
X120919449Y-73907978D01*
X120883711Y-73878648D01*
X120782254Y-73795386D01*
X120698992Y-73693929D01*
X120669662Y-73658191D01*
X120585997Y-73501666D01*
X120534477Y-73331827D01*
X120517081Y-73155200D01*
X120534477Y-72978573D01*
X120585997Y-72808734D01*
X120669662Y-72652209D01*
X120698992Y-72616471D01*
X120782254Y-72515014D01*
X120883711Y-72431752D01*
X120919449Y-72402422D01*
X121075974Y-72318757D01*
X121245813Y-72267237D01*
X121311998Y-72260718D01*
X121378180Y-72254200D01*
X121466700Y-72254200D01*
X121532882Y-72260718D01*
X121532882Y-72260718D01*
G37*
G36*
X118992882Y-72260718D02*
G01*
X119059067Y-72267237D01*
X119228906Y-72318757D01*
X119385431Y-72402422D01*
X119421169Y-72431752D01*
X119522626Y-72515014D01*
X119605888Y-72616471D01*
X119635218Y-72652209D01*
X119718883Y-72808734D01*
X119770403Y-72978573D01*
X119787799Y-73155200D01*
X119770403Y-73331827D01*
X119718883Y-73501666D01*
X119635218Y-73658191D01*
X119605888Y-73693929D01*
X119522626Y-73795386D01*
X119421169Y-73878648D01*
X119385431Y-73907978D01*
X119228906Y-73991643D01*
X119059067Y-74043163D01*
X118992883Y-74049681D01*
X118926700Y-74056200D01*
X118838180Y-74056200D01*
X118771997Y-74049681D01*
X118705813Y-74043163D01*
X118535974Y-73991643D01*
X118379449Y-73907978D01*
X118343711Y-73878648D01*
X118242254Y-73795386D01*
X118158992Y-73693929D01*
X118129662Y-73658191D01*
X118045997Y-73501666D01*
X117994477Y-73331827D01*
X117977081Y-73155200D01*
X117994477Y-72978573D01*
X118045997Y-72808734D01*
X118129662Y-72652209D01*
X118158992Y-72616471D01*
X118242254Y-72515014D01*
X118343711Y-72431752D01*
X118379449Y-72402422D01*
X118535974Y-72318757D01*
X118705813Y-72267237D01*
X118771998Y-72260718D01*
X118838180Y-72254200D01*
X118926700Y-72254200D01*
X118992882Y-72260718D01*
X118992882Y-72260718D01*
G37*
G36*
X116452882Y-72260718D02*
G01*
X116519067Y-72267237D01*
X116688906Y-72318757D01*
X116845431Y-72402422D01*
X116881169Y-72431752D01*
X116982626Y-72515014D01*
X117065888Y-72616471D01*
X117095218Y-72652209D01*
X117178883Y-72808734D01*
X117230403Y-72978573D01*
X117247799Y-73155200D01*
X117230403Y-73331827D01*
X117178883Y-73501666D01*
X117095218Y-73658191D01*
X117065888Y-73693929D01*
X116982626Y-73795386D01*
X116881169Y-73878648D01*
X116845431Y-73907978D01*
X116688906Y-73991643D01*
X116519067Y-74043163D01*
X116452883Y-74049681D01*
X116386700Y-74056200D01*
X116298180Y-74056200D01*
X116231997Y-74049681D01*
X116165813Y-74043163D01*
X115995974Y-73991643D01*
X115839449Y-73907978D01*
X115803711Y-73878648D01*
X115702254Y-73795386D01*
X115618992Y-73693929D01*
X115589662Y-73658191D01*
X115505997Y-73501666D01*
X115454477Y-73331827D01*
X115437081Y-73155200D01*
X115454477Y-72978573D01*
X115505997Y-72808734D01*
X115589662Y-72652209D01*
X115618992Y-72616471D01*
X115702254Y-72515014D01*
X115803711Y-72431752D01*
X115839449Y-72402422D01*
X115995974Y-72318757D01*
X116165813Y-72267237D01*
X116231998Y-72260718D01*
X116298180Y-72254200D01*
X116386700Y-72254200D01*
X116452882Y-72260718D01*
X116452882Y-72260718D01*
G37*
G36*
X103752882Y-72260718D02*
G01*
X103819067Y-72267237D01*
X103988906Y-72318757D01*
X104145431Y-72402422D01*
X104181169Y-72431752D01*
X104282626Y-72515014D01*
X104365888Y-72616471D01*
X104395218Y-72652209D01*
X104478883Y-72808734D01*
X104530403Y-72978573D01*
X104547799Y-73155200D01*
X104530403Y-73331827D01*
X104478883Y-73501666D01*
X104395218Y-73658191D01*
X104365888Y-73693929D01*
X104282626Y-73795386D01*
X104181169Y-73878648D01*
X104145431Y-73907978D01*
X103988906Y-73991643D01*
X103819067Y-74043163D01*
X103752883Y-74049681D01*
X103686700Y-74056200D01*
X103598180Y-74056200D01*
X103531997Y-74049681D01*
X103465813Y-74043163D01*
X103295974Y-73991643D01*
X103139449Y-73907978D01*
X103103711Y-73878648D01*
X103002254Y-73795386D01*
X102918992Y-73693929D01*
X102889662Y-73658191D01*
X102805997Y-73501666D01*
X102754477Y-73331827D01*
X102737081Y-73155200D01*
X102754477Y-72978573D01*
X102805997Y-72808734D01*
X102889662Y-72652209D01*
X102918992Y-72616471D01*
X103002254Y-72515014D01*
X103103711Y-72431752D01*
X103139449Y-72402422D01*
X103295974Y-72318757D01*
X103465813Y-72267237D01*
X103531998Y-72260718D01*
X103598180Y-72254200D01*
X103686700Y-72254200D01*
X103752882Y-72260718D01*
X103752882Y-72260718D01*
G37*
G36*
X101212882Y-72260718D02*
G01*
X101279067Y-72267237D01*
X101448906Y-72318757D01*
X101605431Y-72402422D01*
X101641169Y-72431752D01*
X101742626Y-72515014D01*
X101825888Y-72616471D01*
X101855218Y-72652209D01*
X101938883Y-72808734D01*
X101990403Y-72978573D01*
X102007799Y-73155200D01*
X101990403Y-73331827D01*
X101938883Y-73501666D01*
X101855218Y-73658191D01*
X101825888Y-73693929D01*
X101742626Y-73795386D01*
X101641169Y-73878648D01*
X101605431Y-73907978D01*
X101448906Y-73991643D01*
X101279067Y-74043163D01*
X101212883Y-74049681D01*
X101146700Y-74056200D01*
X101058180Y-74056200D01*
X100991997Y-74049681D01*
X100925813Y-74043163D01*
X100755974Y-73991643D01*
X100599449Y-73907978D01*
X100563711Y-73878648D01*
X100462254Y-73795386D01*
X100378992Y-73693929D01*
X100349662Y-73658191D01*
X100265997Y-73501666D01*
X100214477Y-73331827D01*
X100197081Y-73155200D01*
X100214477Y-72978573D01*
X100265997Y-72808734D01*
X100349662Y-72652209D01*
X100378992Y-72616471D01*
X100462254Y-72515014D01*
X100563711Y-72431752D01*
X100599449Y-72402422D01*
X100755974Y-72318757D01*
X100925813Y-72267237D01*
X100991998Y-72260718D01*
X101058180Y-72254200D01*
X101146700Y-72254200D01*
X101212882Y-72260718D01*
X101212882Y-72260718D01*
G37*
G36*
X98672882Y-72260718D02*
G01*
X98739067Y-72267237D01*
X98908906Y-72318757D01*
X99065431Y-72402422D01*
X99101169Y-72431752D01*
X99202626Y-72515014D01*
X99285888Y-72616471D01*
X99315218Y-72652209D01*
X99398883Y-72808734D01*
X99450403Y-72978573D01*
X99467799Y-73155200D01*
X99450403Y-73331827D01*
X99398883Y-73501666D01*
X99315218Y-73658191D01*
X99285888Y-73693929D01*
X99202626Y-73795386D01*
X99101169Y-73878648D01*
X99065431Y-73907978D01*
X98908906Y-73991643D01*
X98739067Y-74043163D01*
X98672883Y-74049681D01*
X98606700Y-74056200D01*
X98518180Y-74056200D01*
X98451997Y-74049681D01*
X98385813Y-74043163D01*
X98215974Y-73991643D01*
X98059449Y-73907978D01*
X98023711Y-73878648D01*
X97922254Y-73795386D01*
X97838992Y-73693929D01*
X97809662Y-73658191D01*
X97725997Y-73501666D01*
X97674477Y-73331827D01*
X97657081Y-73155200D01*
X97674477Y-72978573D01*
X97725997Y-72808734D01*
X97809662Y-72652209D01*
X97838992Y-72616471D01*
X97922254Y-72515014D01*
X98023711Y-72431752D01*
X98059449Y-72402422D01*
X98215974Y-72318757D01*
X98385813Y-72267237D01*
X98451998Y-72260718D01*
X98518180Y-72254200D01*
X98606700Y-72254200D01*
X98672882Y-72260718D01*
X98672882Y-72260718D01*
G37*
G36*
X96132882Y-72260718D02*
G01*
X96199067Y-72267237D01*
X96368906Y-72318757D01*
X96525431Y-72402422D01*
X96561169Y-72431752D01*
X96662626Y-72515014D01*
X96745888Y-72616471D01*
X96775218Y-72652209D01*
X96858883Y-72808734D01*
X96910403Y-72978573D01*
X96927799Y-73155200D01*
X96910403Y-73331827D01*
X96858883Y-73501666D01*
X96775218Y-73658191D01*
X96745888Y-73693929D01*
X96662626Y-73795386D01*
X96561169Y-73878648D01*
X96525431Y-73907978D01*
X96368906Y-73991643D01*
X96199067Y-74043163D01*
X96132883Y-74049681D01*
X96066700Y-74056200D01*
X95978180Y-74056200D01*
X95911997Y-74049681D01*
X95845813Y-74043163D01*
X95675974Y-73991643D01*
X95519449Y-73907978D01*
X95483711Y-73878648D01*
X95382254Y-73795386D01*
X95298992Y-73693929D01*
X95269662Y-73658191D01*
X95185997Y-73501666D01*
X95134477Y-73331827D01*
X95117081Y-73155200D01*
X95134477Y-72978573D01*
X95185997Y-72808734D01*
X95269662Y-72652209D01*
X95298992Y-72616471D01*
X95382254Y-72515014D01*
X95483711Y-72431752D01*
X95519449Y-72402422D01*
X95675974Y-72318757D01*
X95845813Y-72267237D01*
X95911998Y-72260718D01*
X95978180Y-72254200D01*
X96066700Y-72254200D01*
X96132882Y-72260718D01*
X96132882Y-72260718D01*
G37*
G36*
X93592882Y-72260718D02*
G01*
X93659067Y-72267237D01*
X93828906Y-72318757D01*
X93985431Y-72402422D01*
X94021169Y-72431752D01*
X94122626Y-72515014D01*
X94205888Y-72616471D01*
X94235218Y-72652209D01*
X94318883Y-72808734D01*
X94370403Y-72978573D01*
X94387799Y-73155200D01*
X94370403Y-73331827D01*
X94318883Y-73501666D01*
X94235218Y-73658191D01*
X94205888Y-73693929D01*
X94122626Y-73795386D01*
X94021169Y-73878648D01*
X93985431Y-73907978D01*
X93828906Y-73991643D01*
X93659067Y-74043163D01*
X93592883Y-74049681D01*
X93526700Y-74056200D01*
X93438180Y-74056200D01*
X93371997Y-74049681D01*
X93305813Y-74043163D01*
X93135974Y-73991643D01*
X92979449Y-73907978D01*
X92943711Y-73878648D01*
X92842254Y-73795386D01*
X92758992Y-73693929D01*
X92729662Y-73658191D01*
X92645997Y-73501666D01*
X92594477Y-73331827D01*
X92577081Y-73155200D01*
X92594477Y-72978573D01*
X92645997Y-72808734D01*
X92729662Y-72652209D01*
X92758992Y-72616471D01*
X92842254Y-72515014D01*
X92943711Y-72431752D01*
X92979449Y-72402422D01*
X93135974Y-72318757D01*
X93305813Y-72267237D01*
X93371998Y-72260718D01*
X93438180Y-72254200D01*
X93526700Y-72254200D01*
X93592882Y-72260718D01*
X93592882Y-72260718D01*
G37*
G36*
X106292882Y-72260718D02*
G01*
X106359067Y-72267237D01*
X106528906Y-72318757D01*
X106685431Y-72402422D01*
X106721169Y-72431752D01*
X106822626Y-72515014D01*
X106905888Y-72616471D01*
X106935218Y-72652209D01*
X107018883Y-72808734D01*
X107070403Y-72978573D01*
X107087799Y-73155200D01*
X107070403Y-73331827D01*
X107018883Y-73501666D01*
X106935218Y-73658191D01*
X106905888Y-73693929D01*
X106822626Y-73795386D01*
X106721169Y-73878648D01*
X106685431Y-73907978D01*
X106528906Y-73991643D01*
X106359067Y-74043163D01*
X106292883Y-74049681D01*
X106226700Y-74056200D01*
X106138180Y-74056200D01*
X106071997Y-74049681D01*
X106005813Y-74043163D01*
X105835974Y-73991643D01*
X105679449Y-73907978D01*
X105643711Y-73878648D01*
X105542254Y-73795386D01*
X105458992Y-73693929D01*
X105429662Y-73658191D01*
X105345997Y-73501666D01*
X105294477Y-73331827D01*
X105277081Y-73155200D01*
X105294477Y-72978573D01*
X105345997Y-72808734D01*
X105429662Y-72652209D01*
X105458992Y-72616471D01*
X105542254Y-72515014D01*
X105643711Y-72431752D01*
X105679449Y-72402422D01*
X105835974Y-72318757D01*
X106005813Y-72267237D01*
X106071998Y-72260718D01*
X106138180Y-72254200D01*
X106226700Y-72254200D01*
X106292882Y-72260718D01*
X106292882Y-72260718D01*
G37*
G36*
X116452882Y-69720718D02*
G01*
X116519067Y-69727237D01*
X116688906Y-69778757D01*
X116845431Y-69862422D01*
X116881169Y-69891752D01*
X116982626Y-69975014D01*
X117065888Y-70076471D01*
X117095218Y-70112209D01*
X117178883Y-70268734D01*
X117230403Y-70438573D01*
X117247799Y-70615200D01*
X117230403Y-70791827D01*
X117178883Y-70961666D01*
X117095218Y-71118191D01*
X117065888Y-71153929D01*
X116982626Y-71255386D01*
X116881169Y-71338648D01*
X116845431Y-71367978D01*
X116688906Y-71451643D01*
X116519067Y-71503163D01*
X116452882Y-71509682D01*
X116386700Y-71516200D01*
X116298180Y-71516200D01*
X116231998Y-71509682D01*
X116165813Y-71503163D01*
X115995974Y-71451643D01*
X115839449Y-71367978D01*
X115803711Y-71338648D01*
X115702254Y-71255386D01*
X115618992Y-71153929D01*
X115589662Y-71118191D01*
X115505997Y-70961666D01*
X115454477Y-70791827D01*
X115437081Y-70615200D01*
X115454477Y-70438573D01*
X115505997Y-70268734D01*
X115589662Y-70112209D01*
X115618992Y-70076471D01*
X115702254Y-69975014D01*
X115803711Y-69891752D01*
X115839449Y-69862422D01*
X115995974Y-69778757D01*
X116165813Y-69727237D01*
X116231998Y-69720718D01*
X116298180Y-69714200D01*
X116386700Y-69714200D01*
X116452882Y-69720718D01*
X116452882Y-69720718D01*
G37*
G36*
X121532882Y-69720718D02*
G01*
X121599067Y-69727237D01*
X121768906Y-69778757D01*
X121925431Y-69862422D01*
X121961169Y-69891752D01*
X122062626Y-69975014D01*
X122145888Y-70076471D01*
X122175218Y-70112209D01*
X122258883Y-70268734D01*
X122310403Y-70438573D01*
X122327799Y-70615200D01*
X122310403Y-70791827D01*
X122258883Y-70961666D01*
X122175218Y-71118191D01*
X122145888Y-71153929D01*
X122062626Y-71255386D01*
X121961169Y-71338648D01*
X121925431Y-71367978D01*
X121768906Y-71451643D01*
X121599067Y-71503163D01*
X121532882Y-71509682D01*
X121466700Y-71516200D01*
X121378180Y-71516200D01*
X121311998Y-71509682D01*
X121245813Y-71503163D01*
X121075974Y-71451643D01*
X120919449Y-71367978D01*
X120883711Y-71338648D01*
X120782254Y-71255386D01*
X120698992Y-71153929D01*
X120669662Y-71118191D01*
X120585997Y-70961666D01*
X120534477Y-70791827D01*
X120517081Y-70615200D01*
X120534477Y-70438573D01*
X120585997Y-70268734D01*
X120669662Y-70112209D01*
X120698992Y-70076471D01*
X120782254Y-69975014D01*
X120883711Y-69891752D01*
X120919449Y-69862422D01*
X121075974Y-69778757D01*
X121245813Y-69727237D01*
X121311998Y-69720718D01*
X121378180Y-69714200D01*
X121466700Y-69714200D01*
X121532882Y-69720718D01*
X121532882Y-69720718D01*
G37*
G36*
X118992882Y-69720718D02*
G01*
X119059067Y-69727237D01*
X119228906Y-69778757D01*
X119385431Y-69862422D01*
X119421169Y-69891752D01*
X119522626Y-69975014D01*
X119605888Y-70076471D01*
X119635218Y-70112209D01*
X119718883Y-70268734D01*
X119770403Y-70438573D01*
X119787799Y-70615200D01*
X119770403Y-70791827D01*
X119718883Y-70961666D01*
X119635218Y-71118191D01*
X119605888Y-71153929D01*
X119522626Y-71255386D01*
X119421169Y-71338648D01*
X119385431Y-71367978D01*
X119228906Y-71451643D01*
X119059067Y-71503163D01*
X118992882Y-71509682D01*
X118926700Y-71516200D01*
X118838180Y-71516200D01*
X118771998Y-71509682D01*
X118705813Y-71503163D01*
X118535974Y-71451643D01*
X118379449Y-71367978D01*
X118343711Y-71338648D01*
X118242254Y-71255386D01*
X118158992Y-71153929D01*
X118129662Y-71118191D01*
X118045997Y-70961666D01*
X117994477Y-70791827D01*
X117977081Y-70615200D01*
X117994477Y-70438573D01*
X118045997Y-70268734D01*
X118129662Y-70112209D01*
X118158992Y-70076471D01*
X118242254Y-69975014D01*
X118343711Y-69891752D01*
X118379449Y-69862422D01*
X118535974Y-69778757D01*
X118705813Y-69727237D01*
X118771998Y-69720718D01*
X118838180Y-69714200D01*
X118926700Y-69714200D01*
X118992882Y-69720718D01*
X118992882Y-69720718D01*
G37*
G36*
X124072882Y-69720718D02*
G01*
X124139067Y-69727237D01*
X124308906Y-69778757D01*
X124465431Y-69862422D01*
X124501169Y-69891752D01*
X124602626Y-69975014D01*
X124685888Y-70076471D01*
X124715218Y-70112209D01*
X124798883Y-70268734D01*
X124850403Y-70438573D01*
X124867799Y-70615200D01*
X124850403Y-70791827D01*
X124798883Y-70961666D01*
X124715218Y-71118191D01*
X124685888Y-71153929D01*
X124602626Y-71255386D01*
X124501169Y-71338648D01*
X124465431Y-71367978D01*
X124308906Y-71451643D01*
X124139067Y-71503163D01*
X124072882Y-71509682D01*
X124006700Y-71516200D01*
X123918180Y-71516200D01*
X123851998Y-71509682D01*
X123785813Y-71503163D01*
X123615974Y-71451643D01*
X123459449Y-71367978D01*
X123423711Y-71338648D01*
X123322254Y-71255386D01*
X123238992Y-71153929D01*
X123209662Y-71118191D01*
X123125997Y-70961666D01*
X123074477Y-70791827D01*
X123057081Y-70615200D01*
X123074477Y-70438573D01*
X123125997Y-70268734D01*
X123209662Y-70112209D01*
X123238992Y-70076471D01*
X123322254Y-69975014D01*
X123423711Y-69891752D01*
X123459449Y-69862422D01*
X123615974Y-69778757D01*
X123785813Y-69727237D01*
X123851998Y-69720718D01*
X123918180Y-69714200D01*
X124006700Y-69714200D01*
X124072882Y-69720718D01*
X124072882Y-69720718D01*
G37*
G36*
X107083440Y-71516200D02*
G01*
X105281440Y-71516200D01*
X105281440Y-69714200D01*
X107083440Y-69714200D01*
X107083440Y-71516200D01*
X107083440Y-71516200D01*
G37*
G36*
X93592882Y-69720718D02*
G01*
X93659067Y-69727237D01*
X93828906Y-69778757D01*
X93985431Y-69862422D01*
X94021169Y-69891752D01*
X94122626Y-69975014D01*
X94205888Y-70076471D01*
X94235218Y-70112209D01*
X94318883Y-70268734D01*
X94370403Y-70438573D01*
X94387799Y-70615200D01*
X94370403Y-70791827D01*
X94318883Y-70961666D01*
X94235218Y-71118191D01*
X94205888Y-71153929D01*
X94122626Y-71255386D01*
X94021169Y-71338648D01*
X93985431Y-71367978D01*
X93828906Y-71451643D01*
X93659067Y-71503163D01*
X93592882Y-71509682D01*
X93526700Y-71516200D01*
X93438180Y-71516200D01*
X93371998Y-71509682D01*
X93305813Y-71503163D01*
X93135974Y-71451643D01*
X92979449Y-71367978D01*
X92943711Y-71338648D01*
X92842254Y-71255386D01*
X92758992Y-71153929D01*
X92729662Y-71118191D01*
X92645997Y-70961666D01*
X92594477Y-70791827D01*
X92577081Y-70615200D01*
X92594477Y-70438573D01*
X92645997Y-70268734D01*
X92729662Y-70112209D01*
X92758992Y-70076471D01*
X92842254Y-69975014D01*
X92943711Y-69891752D01*
X92979449Y-69862422D01*
X93135974Y-69778757D01*
X93305813Y-69727237D01*
X93371998Y-69720718D01*
X93438180Y-69714200D01*
X93526700Y-69714200D01*
X93592882Y-69720718D01*
X93592882Y-69720718D01*
G37*
G36*
X103752882Y-69720718D02*
G01*
X103819067Y-69727237D01*
X103988906Y-69778757D01*
X104145431Y-69862422D01*
X104181169Y-69891752D01*
X104282626Y-69975014D01*
X104365888Y-70076471D01*
X104395218Y-70112209D01*
X104478883Y-70268734D01*
X104530403Y-70438573D01*
X104547799Y-70615200D01*
X104530403Y-70791827D01*
X104478883Y-70961666D01*
X104395218Y-71118191D01*
X104365888Y-71153929D01*
X104282626Y-71255386D01*
X104181169Y-71338648D01*
X104145431Y-71367978D01*
X103988906Y-71451643D01*
X103819067Y-71503163D01*
X103752882Y-71509682D01*
X103686700Y-71516200D01*
X103598180Y-71516200D01*
X103531998Y-71509682D01*
X103465813Y-71503163D01*
X103295974Y-71451643D01*
X103139449Y-71367978D01*
X103103711Y-71338648D01*
X103002254Y-71255386D01*
X102918992Y-71153929D01*
X102889662Y-71118191D01*
X102805997Y-70961666D01*
X102754477Y-70791827D01*
X102737081Y-70615200D01*
X102754477Y-70438573D01*
X102805997Y-70268734D01*
X102889662Y-70112209D01*
X102918992Y-70076471D01*
X103002254Y-69975014D01*
X103103711Y-69891752D01*
X103139449Y-69862422D01*
X103295974Y-69778757D01*
X103465813Y-69727237D01*
X103531998Y-69720718D01*
X103598180Y-69714200D01*
X103686700Y-69714200D01*
X103752882Y-69720718D01*
X103752882Y-69720718D01*
G37*
G36*
X101212882Y-69720718D02*
G01*
X101279067Y-69727237D01*
X101448906Y-69778757D01*
X101605431Y-69862422D01*
X101641169Y-69891752D01*
X101742626Y-69975014D01*
X101825888Y-70076471D01*
X101855218Y-70112209D01*
X101938883Y-70268734D01*
X101990403Y-70438573D01*
X102007799Y-70615200D01*
X101990403Y-70791827D01*
X101938883Y-70961666D01*
X101855218Y-71118191D01*
X101825888Y-71153929D01*
X101742626Y-71255386D01*
X101641169Y-71338648D01*
X101605431Y-71367978D01*
X101448906Y-71451643D01*
X101279067Y-71503163D01*
X101212882Y-71509682D01*
X101146700Y-71516200D01*
X101058180Y-71516200D01*
X100991998Y-71509682D01*
X100925813Y-71503163D01*
X100755974Y-71451643D01*
X100599449Y-71367978D01*
X100563711Y-71338648D01*
X100462254Y-71255386D01*
X100378992Y-71153929D01*
X100349662Y-71118191D01*
X100265997Y-70961666D01*
X100214477Y-70791827D01*
X100197081Y-70615200D01*
X100214477Y-70438573D01*
X100265997Y-70268734D01*
X100349662Y-70112209D01*
X100378992Y-70076471D01*
X100462254Y-69975014D01*
X100563711Y-69891752D01*
X100599449Y-69862422D01*
X100755974Y-69778757D01*
X100925813Y-69727237D01*
X100991998Y-69720718D01*
X101058180Y-69714200D01*
X101146700Y-69714200D01*
X101212882Y-69720718D01*
X101212882Y-69720718D01*
G37*
G36*
X126612882Y-69720718D02*
G01*
X126679067Y-69727237D01*
X126848906Y-69778757D01*
X127005431Y-69862422D01*
X127041169Y-69891752D01*
X127142626Y-69975014D01*
X127225888Y-70076471D01*
X127255218Y-70112209D01*
X127338883Y-70268734D01*
X127390403Y-70438573D01*
X127407799Y-70615200D01*
X127390403Y-70791827D01*
X127338883Y-70961666D01*
X127255218Y-71118191D01*
X127225888Y-71153929D01*
X127142626Y-71255386D01*
X127041169Y-71338648D01*
X127005431Y-71367978D01*
X126848906Y-71451643D01*
X126679067Y-71503163D01*
X126612882Y-71509682D01*
X126546700Y-71516200D01*
X126458180Y-71516200D01*
X126391998Y-71509682D01*
X126325813Y-71503163D01*
X126155974Y-71451643D01*
X125999449Y-71367978D01*
X125963711Y-71338648D01*
X125862254Y-71255386D01*
X125778992Y-71153929D01*
X125749662Y-71118191D01*
X125665997Y-70961666D01*
X125614477Y-70791827D01*
X125597081Y-70615200D01*
X125614477Y-70438573D01*
X125665997Y-70268734D01*
X125749662Y-70112209D01*
X125778992Y-70076471D01*
X125862254Y-69975014D01*
X125963711Y-69891752D01*
X125999449Y-69862422D01*
X126155974Y-69778757D01*
X126325813Y-69727237D01*
X126391998Y-69720718D01*
X126458180Y-69714200D01*
X126546700Y-69714200D01*
X126612882Y-69720718D01*
X126612882Y-69720718D01*
G37*
G36*
X98672882Y-69720718D02*
G01*
X98739067Y-69727237D01*
X98908906Y-69778757D01*
X99065431Y-69862422D01*
X99101169Y-69891752D01*
X99202626Y-69975014D01*
X99285888Y-70076471D01*
X99315218Y-70112209D01*
X99398883Y-70268734D01*
X99450403Y-70438573D01*
X99467799Y-70615200D01*
X99450403Y-70791827D01*
X99398883Y-70961666D01*
X99315218Y-71118191D01*
X99285888Y-71153929D01*
X99202626Y-71255386D01*
X99101169Y-71338648D01*
X99065431Y-71367978D01*
X98908906Y-71451643D01*
X98739067Y-71503163D01*
X98672882Y-71509682D01*
X98606700Y-71516200D01*
X98518180Y-71516200D01*
X98451998Y-71509682D01*
X98385813Y-71503163D01*
X98215974Y-71451643D01*
X98059449Y-71367978D01*
X98023711Y-71338648D01*
X97922254Y-71255386D01*
X97838992Y-71153929D01*
X97809662Y-71118191D01*
X97725997Y-70961666D01*
X97674477Y-70791827D01*
X97657081Y-70615200D01*
X97674477Y-70438573D01*
X97725997Y-70268734D01*
X97809662Y-70112209D01*
X97838992Y-70076471D01*
X97922254Y-69975014D01*
X98023711Y-69891752D01*
X98059449Y-69862422D01*
X98215974Y-69778757D01*
X98385813Y-69727237D01*
X98451998Y-69720718D01*
X98518180Y-69714200D01*
X98606700Y-69714200D01*
X98672882Y-69720718D01*
X98672882Y-69720718D01*
G37*
G36*
X96132882Y-69720718D02*
G01*
X96199067Y-69727237D01*
X96368906Y-69778757D01*
X96525431Y-69862422D01*
X96561169Y-69891752D01*
X96662626Y-69975014D01*
X96745888Y-70076471D01*
X96775218Y-70112209D01*
X96858883Y-70268734D01*
X96910403Y-70438573D01*
X96927799Y-70615200D01*
X96910403Y-70791827D01*
X96858883Y-70961666D01*
X96775218Y-71118191D01*
X96745888Y-71153929D01*
X96662626Y-71255386D01*
X96561169Y-71338648D01*
X96525431Y-71367978D01*
X96368906Y-71451643D01*
X96199067Y-71503163D01*
X96132882Y-71509682D01*
X96066700Y-71516200D01*
X95978180Y-71516200D01*
X95911998Y-71509682D01*
X95845813Y-71503163D01*
X95675974Y-71451643D01*
X95519449Y-71367978D01*
X95483711Y-71338648D01*
X95382254Y-71255386D01*
X95298992Y-71153929D01*
X95269662Y-71118191D01*
X95185997Y-70961666D01*
X95134477Y-70791827D01*
X95117081Y-70615200D01*
X95134477Y-70438573D01*
X95185997Y-70268734D01*
X95269662Y-70112209D01*
X95298992Y-70076471D01*
X95382254Y-69975014D01*
X95483711Y-69891752D01*
X95519449Y-69862422D01*
X95675974Y-69778757D01*
X95845813Y-69727237D01*
X95911998Y-69720718D01*
X95978180Y-69714200D01*
X96066700Y-69714200D01*
X96132882Y-69720718D01*
X96132882Y-69720718D01*
G37*
G36*
X129943440Y-71516200D02*
G01*
X128141440Y-71516200D01*
X128141440Y-69714200D01*
X129943440Y-69714200D01*
X129943440Y-71516200D01*
X129943440Y-71516200D01*
G37*
G36*
X133956821Y-58166144D02*
G01*
X134133500Y-58201287D01*
X134271373Y-58258396D01*
X134466355Y-58339160D01*
X134466356Y-58339161D01*
X134765920Y-58539323D01*
X135020677Y-58794080D01*
X135020678Y-58794082D01*
X135220840Y-59093645D01*
X135358713Y-59426501D01*
X135429000Y-59779858D01*
X135429000Y-60140142D01*
X135358713Y-60493499D01*
X135220840Y-60826355D01*
X135220839Y-60826356D01*
X135020677Y-61125920D01*
X134765920Y-61380677D01*
X134615120Y-61481438D01*
X134466355Y-61580840D01*
X134271373Y-61661604D01*
X134133500Y-61718713D01*
X133956820Y-61753857D01*
X133780142Y-61789000D01*
X133419858Y-61789000D01*
X133243180Y-61753857D01*
X133066500Y-61718713D01*
X132928627Y-61661604D01*
X132733645Y-61580840D01*
X132584880Y-61481438D01*
X132434080Y-61380677D01*
X132179323Y-61125920D01*
X131979161Y-60826356D01*
X131979160Y-60826355D01*
X131841287Y-60493499D01*
X131771000Y-60140142D01*
X131771000Y-59779858D01*
X131841287Y-59426501D01*
X131979160Y-59093645D01*
X132179322Y-58794082D01*
X132179323Y-58794080D01*
X132434080Y-58539323D01*
X132733644Y-58339161D01*
X132733645Y-58339160D01*
X132928627Y-58258396D01*
X133066500Y-58201287D01*
X133243179Y-58166144D01*
X133419858Y-58131000D01*
X133780142Y-58131000D01*
X133956821Y-58166144D01*
X133956821Y-58166144D01*
G37*
G36*
X88236821Y-58166144D02*
G01*
X88413500Y-58201287D01*
X88551373Y-58258396D01*
X88746355Y-58339160D01*
X88746356Y-58339161D01*
X89045920Y-58539323D01*
X89300677Y-58794080D01*
X89300678Y-58794082D01*
X89500840Y-59093645D01*
X89638713Y-59426501D01*
X89709000Y-59779858D01*
X89709000Y-60140142D01*
X89638713Y-60493499D01*
X89500840Y-60826355D01*
X89500839Y-60826356D01*
X89300677Y-61125920D01*
X89045920Y-61380677D01*
X88895120Y-61481438D01*
X88746355Y-61580840D01*
X88551373Y-61661604D01*
X88413500Y-61718713D01*
X88236820Y-61753857D01*
X88060142Y-61789000D01*
X87699858Y-61789000D01*
X87523180Y-61753857D01*
X87346500Y-61718713D01*
X87208627Y-61661604D01*
X87013645Y-61580840D01*
X86864880Y-61481438D01*
X86714080Y-61380677D01*
X86459323Y-61125920D01*
X86259161Y-60826356D01*
X86259160Y-60826355D01*
X86121287Y-60493499D01*
X86051000Y-60140142D01*
X86051000Y-59779858D01*
X86121287Y-59426501D01*
X86259160Y-59093645D01*
X86459322Y-58794082D01*
X86459323Y-58794080D01*
X86714080Y-58539323D01*
X87013644Y-58339161D01*
X87013645Y-58339160D01*
X87208627Y-58258396D01*
X87346500Y-58201287D01*
X87523179Y-58166144D01*
X87699858Y-58131000D01*
X88060142Y-58131000D01*
X88236821Y-58166144D01*
X88236821Y-58166144D01*
G37*
G36*
X119743512Y-57793927D02*
G01*
X119892812Y-57823624D01*
X120056784Y-57891544D01*
X120204354Y-57990147D01*
X120329853Y-58115646D01*
X120428456Y-58263216D01*
X120496376Y-58427188D01*
X120531000Y-58601259D01*
X120531000Y-58778741D01*
X120496376Y-58952812D01*
X120428456Y-59116784D01*
X120329853Y-59264354D01*
X120204354Y-59389853D01*
X120056784Y-59488456D01*
X119892812Y-59556376D01*
X119743512Y-59586073D01*
X119718742Y-59591000D01*
X119541258Y-59591000D01*
X119516488Y-59586073D01*
X119367188Y-59556376D01*
X119203216Y-59488456D01*
X119055646Y-59389853D01*
X118930147Y-59264354D01*
X118831544Y-59116784D01*
X118763624Y-58952812D01*
X118729000Y-58778741D01*
X118729000Y-58601259D01*
X118763624Y-58427188D01*
X118831544Y-58263216D01*
X118930147Y-58115646D01*
X119055646Y-57990147D01*
X119203216Y-57891544D01*
X119367188Y-57823624D01*
X119516488Y-57793927D01*
X119541258Y-57789000D01*
X119718742Y-57789000D01*
X119743512Y-57793927D01*
X119743512Y-57793927D01*
G37*
G36*
X129903512Y-57793927D02*
G01*
X130052812Y-57823624D01*
X130216784Y-57891544D01*
X130364354Y-57990147D01*
X130489853Y-58115646D01*
X130588456Y-58263216D01*
X130656376Y-58427188D01*
X130691000Y-58601259D01*
X130691000Y-58778741D01*
X130656376Y-58952812D01*
X130588456Y-59116784D01*
X130489853Y-59264354D01*
X130364354Y-59389853D01*
X130216784Y-59488456D01*
X130052812Y-59556376D01*
X129903512Y-59586073D01*
X129878742Y-59591000D01*
X129701258Y-59591000D01*
X129676488Y-59586073D01*
X129527188Y-59556376D01*
X129363216Y-59488456D01*
X129215646Y-59389853D01*
X129090147Y-59264354D01*
X128991544Y-59116784D01*
X128923624Y-58952812D01*
X128889000Y-58778741D01*
X128889000Y-58601259D01*
X128923624Y-58427188D01*
X128991544Y-58263216D01*
X129090147Y-58115646D01*
X129215646Y-57990147D01*
X129363216Y-57891544D01*
X129527188Y-57823624D01*
X129676488Y-57793927D01*
X129701258Y-57789000D01*
X129878742Y-57789000D01*
X129903512Y-57793927D01*
X129903512Y-57793927D01*
G37*
G36*
X127363512Y-57793927D02*
G01*
X127512812Y-57823624D01*
X127676784Y-57891544D01*
X127824354Y-57990147D01*
X127949853Y-58115646D01*
X128048456Y-58263216D01*
X128116376Y-58427188D01*
X128151000Y-58601259D01*
X128151000Y-58778741D01*
X128116376Y-58952812D01*
X128048456Y-59116784D01*
X127949853Y-59264354D01*
X127824354Y-59389853D01*
X127676784Y-59488456D01*
X127512812Y-59556376D01*
X127363512Y-59586073D01*
X127338742Y-59591000D01*
X127161258Y-59591000D01*
X127136488Y-59586073D01*
X126987188Y-59556376D01*
X126823216Y-59488456D01*
X126675646Y-59389853D01*
X126550147Y-59264354D01*
X126451544Y-59116784D01*
X126383624Y-58952812D01*
X126349000Y-58778741D01*
X126349000Y-58601259D01*
X126383624Y-58427188D01*
X126451544Y-58263216D01*
X126550147Y-58115646D01*
X126675646Y-57990147D01*
X126823216Y-57891544D01*
X126987188Y-57823624D01*
X127136488Y-57793927D01*
X127161258Y-57789000D01*
X127338742Y-57789000D01*
X127363512Y-57793927D01*
X127363512Y-57793927D01*
G37*
G36*
X124823512Y-57793927D02*
G01*
X124972812Y-57823624D01*
X125136784Y-57891544D01*
X125284354Y-57990147D01*
X125409853Y-58115646D01*
X125508456Y-58263216D01*
X125576376Y-58427188D01*
X125611000Y-58601259D01*
X125611000Y-58778741D01*
X125576376Y-58952812D01*
X125508456Y-59116784D01*
X125409853Y-59264354D01*
X125284354Y-59389853D01*
X125136784Y-59488456D01*
X124972812Y-59556376D01*
X124823512Y-59586073D01*
X124798742Y-59591000D01*
X124621258Y-59591000D01*
X124596488Y-59586073D01*
X124447188Y-59556376D01*
X124283216Y-59488456D01*
X124135646Y-59389853D01*
X124010147Y-59264354D01*
X123911544Y-59116784D01*
X123843624Y-58952812D01*
X123809000Y-58778741D01*
X123809000Y-58601259D01*
X123843624Y-58427188D01*
X123911544Y-58263216D01*
X124010147Y-58115646D01*
X124135646Y-57990147D01*
X124283216Y-57891544D01*
X124447188Y-57823624D01*
X124596488Y-57793927D01*
X124621258Y-57789000D01*
X124798742Y-57789000D01*
X124823512Y-57793927D01*
X124823512Y-57793927D01*
G37*
G36*
X104503512Y-57793927D02*
G01*
X104652812Y-57823624D01*
X104816784Y-57891544D01*
X104964354Y-57990147D01*
X105089853Y-58115646D01*
X105188456Y-58263216D01*
X105256376Y-58427188D01*
X105291000Y-58601259D01*
X105291000Y-58778741D01*
X105256376Y-58952812D01*
X105188456Y-59116784D01*
X105089853Y-59264354D01*
X104964354Y-59389853D01*
X104816784Y-59488456D01*
X104652812Y-59556376D01*
X104503512Y-59586073D01*
X104478742Y-59591000D01*
X104301258Y-59591000D01*
X104276488Y-59586073D01*
X104127188Y-59556376D01*
X103963216Y-59488456D01*
X103815646Y-59389853D01*
X103690147Y-59264354D01*
X103591544Y-59116784D01*
X103523624Y-58952812D01*
X103489000Y-58778741D01*
X103489000Y-58601259D01*
X103523624Y-58427188D01*
X103591544Y-58263216D01*
X103690147Y-58115646D01*
X103815646Y-57990147D01*
X103963216Y-57891544D01*
X104127188Y-57823624D01*
X104276488Y-57793927D01*
X104301258Y-57789000D01*
X104478742Y-57789000D01*
X104503512Y-57793927D01*
X104503512Y-57793927D01*
G37*
G36*
X107043512Y-57793927D02*
G01*
X107192812Y-57823624D01*
X107356784Y-57891544D01*
X107504354Y-57990147D01*
X107629853Y-58115646D01*
X107728456Y-58263216D01*
X107796376Y-58427188D01*
X107831000Y-58601259D01*
X107831000Y-58778741D01*
X107796376Y-58952812D01*
X107728456Y-59116784D01*
X107629853Y-59264354D01*
X107504354Y-59389853D01*
X107356784Y-59488456D01*
X107192812Y-59556376D01*
X107043512Y-59586073D01*
X107018742Y-59591000D01*
X106841258Y-59591000D01*
X106816488Y-59586073D01*
X106667188Y-59556376D01*
X106503216Y-59488456D01*
X106355646Y-59389853D01*
X106230147Y-59264354D01*
X106131544Y-59116784D01*
X106063624Y-58952812D01*
X106029000Y-58778741D01*
X106029000Y-58601259D01*
X106063624Y-58427188D01*
X106131544Y-58263216D01*
X106230147Y-58115646D01*
X106355646Y-57990147D01*
X106503216Y-57891544D01*
X106667188Y-57823624D01*
X106816488Y-57793927D01*
X106841258Y-57789000D01*
X107018742Y-57789000D01*
X107043512Y-57793927D01*
X107043512Y-57793927D01*
G37*
G36*
X109583512Y-57793927D02*
G01*
X109732812Y-57823624D01*
X109896784Y-57891544D01*
X110044354Y-57990147D01*
X110169853Y-58115646D01*
X110268456Y-58263216D01*
X110336376Y-58427188D01*
X110371000Y-58601259D01*
X110371000Y-58778741D01*
X110336376Y-58952812D01*
X110268456Y-59116784D01*
X110169853Y-59264354D01*
X110044354Y-59389853D01*
X109896784Y-59488456D01*
X109732812Y-59556376D01*
X109583512Y-59586073D01*
X109558742Y-59591000D01*
X109381258Y-59591000D01*
X109356488Y-59586073D01*
X109207188Y-59556376D01*
X109043216Y-59488456D01*
X108895646Y-59389853D01*
X108770147Y-59264354D01*
X108671544Y-59116784D01*
X108603624Y-58952812D01*
X108569000Y-58778741D01*
X108569000Y-58601259D01*
X108603624Y-58427188D01*
X108671544Y-58263216D01*
X108770147Y-58115646D01*
X108895646Y-57990147D01*
X109043216Y-57891544D01*
X109207188Y-57823624D01*
X109356488Y-57793927D01*
X109381258Y-57789000D01*
X109558742Y-57789000D01*
X109583512Y-57793927D01*
X109583512Y-57793927D01*
G37*
G36*
X112123512Y-57793927D02*
G01*
X112272812Y-57823624D01*
X112436784Y-57891544D01*
X112584354Y-57990147D01*
X112709853Y-58115646D01*
X112808456Y-58263216D01*
X112876376Y-58427188D01*
X112911000Y-58601259D01*
X112911000Y-58778741D01*
X112876376Y-58952812D01*
X112808456Y-59116784D01*
X112709853Y-59264354D01*
X112584354Y-59389853D01*
X112436784Y-59488456D01*
X112272812Y-59556376D01*
X112123512Y-59586073D01*
X112098742Y-59591000D01*
X111921258Y-59591000D01*
X111896488Y-59586073D01*
X111747188Y-59556376D01*
X111583216Y-59488456D01*
X111435646Y-59389853D01*
X111310147Y-59264354D01*
X111211544Y-59116784D01*
X111143624Y-58952812D01*
X111109000Y-58778741D01*
X111109000Y-58601259D01*
X111143624Y-58427188D01*
X111211544Y-58263216D01*
X111310147Y-58115646D01*
X111435646Y-57990147D01*
X111583216Y-57891544D01*
X111747188Y-57823624D01*
X111896488Y-57793927D01*
X111921258Y-57789000D01*
X112098742Y-57789000D01*
X112123512Y-57793927D01*
X112123512Y-57793927D01*
G37*
G36*
X114663512Y-57793927D02*
G01*
X114812812Y-57823624D01*
X114976784Y-57891544D01*
X115124354Y-57990147D01*
X115249853Y-58115646D01*
X115348456Y-58263216D01*
X115416376Y-58427188D01*
X115451000Y-58601259D01*
X115451000Y-58778741D01*
X115416376Y-58952812D01*
X115348456Y-59116784D01*
X115249853Y-59264354D01*
X115124354Y-59389853D01*
X114976784Y-59488456D01*
X114812812Y-59556376D01*
X114663512Y-59586073D01*
X114638742Y-59591000D01*
X114461258Y-59591000D01*
X114436488Y-59586073D01*
X114287188Y-59556376D01*
X114123216Y-59488456D01*
X113975646Y-59389853D01*
X113850147Y-59264354D01*
X113751544Y-59116784D01*
X113683624Y-58952812D01*
X113649000Y-58778741D01*
X113649000Y-58601259D01*
X113683624Y-58427188D01*
X113751544Y-58263216D01*
X113850147Y-58115646D01*
X113975646Y-57990147D01*
X114123216Y-57891544D01*
X114287188Y-57823624D01*
X114436488Y-57793927D01*
X114461258Y-57789000D01*
X114638742Y-57789000D01*
X114663512Y-57793927D01*
X114663512Y-57793927D01*
G37*
G36*
X117203512Y-57793927D02*
G01*
X117352812Y-57823624D01*
X117516784Y-57891544D01*
X117664354Y-57990147D01*
X117789853Y-58115646D01*
X117888456Y-58263216D01*
X117956376Y-58427188D01*
X117991000Y-58601259D01*
X117991000Y-58778741D01*
X117956376Y-58952812D01*
X117888456Y-59116784D01*
X117789853Y-59264354D01*
X117664354Y-59389853D01*
X117516784Y-59488456D01*
X117352812Y-59556376D01*
X117203512Y-59586073D01*
X117178742Y-59591000D01*
X117001258Y-59591000D01*
X116976488Y-59586073D01*
X116827188Y-59556376D01*
X116663216Y-59488456D01*
X116515646Y-59389853D01*
X116390147Y-59264354D01*
X116291544Y-59116784D01*
X116223624Y-58952812D01*
X116189000Y-58778741D01*
X116189000Y-58601259D01*
X116223624Y-58427188D01*
X116291544Y-58263216D01*
X116390147Y-58115646D01*
X116515646Y-57990147D01*
X116663216Y-57891544D01*
X116827188Y-57823624D01*
X116976488Y-57793927D01*
X117001258Y-57789000D01*
X117178742Y-57789000D01*
X117203512Y-57793927D01*
X117203512Y-57793927D01*
G37*
G36*
X101963512Y-57793927D02*
G01*
X102112812Y-57823624D01*
X102276784Y-57891544D01*
X102424354Y-57990147D01*
X102549853Y-58115646D01*
X102648456Y-58263216D01*
X102716376Y-58427188D01*
X102751000Y-58601259D01*
X102751000Y-58778741D01*
X102716376Y-58952812D01*
X102648456Y-59116784D01*
X102549853Y-59264354D01*
X102424354Y-59389853D01*
X102276784Y-59488456D01*
X102112812Y-59556376D01*
X101963512Y-59586073D01*
X101938742Y-59591000D01*
X101761258Y-59591000D01*
X101736488Y-59586073D01*
X101587188Y-59556376D01*
X101423216Y-59488456D01*
X101275646Y-59389853D01*
X101150147Y-59264354D01*
X101051544Y-59116784D01*
X100983624Y-58952812D01*
X100949000Y-58778741D01*
X100949000Y-58601259D01*
X100983624Y-58427188D01*
X101051544Y-58263216D01*
X101150147Y-58115646D01*
X101275646Y-57990147D01*
X101423216Y-57891544D01*
X101587188Y-57823624D01*
X101736488Y-57793927D01*
X101761258Y-57789000D01*
X101938742Y-57789000D01*
X101963512Y-57793927D01*
X101963512Y-57793927D01*
G37*
G36*
X122283512Y-57793927D02*
G01*
X122432812Y-57823624D01*
X122596784Y-57891544D01*
X122744354Y-57990147D01*
X122869853Y-58115646D01*
X122968456Y-58263216D01*
X123036376Y-58427188D01*
X123071000Y-58601259D01*
X123071000Y-58778741D01*
X123036376Y-58952812D01*
X122968456Y-59116784D01*
X122869853Y-59264354D01*
X122744354Y-59389853D01*
X122596784Y-59488456D01*
X122432812Y-59556376D01*
X122283512Y-59586073D01*
X122258742Y-59591000D01*
X122081258Y-59591000D01*
X122056488Y-59586073D01*
X121907188Y-59556376D01*
X121743216Y-59488456D01*
X121595646Y-59389853D01*
X121470147Y-59264354D01*
X121371544Y-59116784D01*
X121303624Y-58952812D01*
X121269000Y-58778741D01*
X121269000Y-58601259D01*
X121303624Y-58427188D01*
X121371544Y-58263216D01*
X121470147Y-58115646D01*
X121595646Y-57990147D01*
X121743216Y-57891544D01*
X121907188Y-57823624D01*
X122056488Y-57793927D01*
X122081258Y-57789000D01*
X122258742Y-57789000D01*
X122283512Y-57793927D01*
X122283512Y-57793927D01*
G37*
M02*
