G04 #@! TF.GenerationSoftware,KiCad,Pcbnew,(5.1.2)-1*
G04 #@! TF.CreationDate,2019-07-17T11:08:16+10:00*
G04 #@! TF.ProjectId,pmod-breakout,706d6f64-2d62-4726-9561-6b6f75742e6b,rev?*
G04 #@! TF.SameCoordinates,Original*
G04 #@! TF.FileFunction,Copper,L1,Top*
G04 #@! TF.FilePolarity,Positive*
%FSLAX46Y46*%
G04 Gerber Fmt 4.6, Leading zero omitted, Abs format (unit mm)*
G04 Created by KiCad (PCBNEW (5.1.2)-1) date 2019-07-17 11:08:16*
%MOMM*%
%LPD*%
G04 APERTURE LIST*
%ADD10C,1.700000*%
%ADD11C,3.556000*%
%ADD12R,1.700000X1.700000*%
%ADD13O,1.700000X1.700000*%
%ADD14C,0.300000*%
%ADD15C,0.400000*%
%ADD16C,0.250000*%
%ADD17C,0.200000*%
G04 APERTURE END LIST*
D10*
X94230000Y-79010000D03*
X96770000Y-79010000D03*
X99310000Y-79010000D03*
X101850000Y-79010000D03*
X104390000Y-79010000D03*
X106930000Y-79010000D03*
X109470000Y-79010000D03*
X112010000Y-79010000D03*
X114550000Y-79010000D03*
X117090000Y-79010000D03*
X119630000Y-79010000D03*
X122170000Y-79010000D03*
X124710000Y-79010000D03*
X127250000Y-79010000D03*
X91690000Y-79010000D03*
X129790000Y-79010000D03*
X101850000Y-58690000D03*
X104390000Y-58690000D03*
X106930000Y-58690000D03*
X109470000Y-58690000D03*
X112010000Y-58690000D03*
X114550000Y-58690000D03*
X117090000Y-58690000D03*
X119630000Y-58690000D03*
X122170000Y-58690000D03*
X124710000Y-58690000D03*
X127250000Y-58690000D03*
X129790000Y-58690000D03*
D11*
X87880000Y-59960000D03*
X133600000Y-59960000D03*
X87880000Y-77740000D03*
X133600000Y-77740000D03*
D12*
X106182440Y-70615200D03*
D13*
X93482440Y-73155200D03*
X96022440Y-70615200D03*
X96022440Y-73155200D03*
X98562440Y-70615200D03*
X98562440Y-73155200D03*
X101102440Y-70615200D03*
X101102440Y-73155200D03*
X103642440Y-70615200D03*
X103642440Y-73155200D03*
X93482440Y-70615200D03*
X106182440Y-73155200D03*
D12*
X129042440Y-70615200D03*
D13*
X116342440Y-73155200D03*
X118882440Y-70615200D03*
X118882440Y-73155200D03*
X121422440Y-70615200D03*
X121422440Y-73155200D03*
X123962440Y-70615200D03*
X123962440Y-73155200D03*
X126502440Y-70615200D03*
X126502440Y-73155200D03*
X116342440Y-70615200D03*
X129042440Y-73155200D03*
D14*
X116400000Y-73100000D02*
X116300000Y-73200000D01*
D15*
X116300000Y-70700000D02*
X116300000Y-73200000D01*
X114500000Y-68900000D02*
X116300000Y-70700000D01*
X97195559Y-68900000D02*
X114500000Y-68900000D01*
X97195559Y-68900000D02*
X95100000Y-68900000D01*
X95100000Y-68900000D02*
X93400000Y-70600000D01*
X93400000Y-70600000D02*
X93500000Y-70700000D01*
X93500000Y-72000000D02*
X93500000Y-72700000D01*
X93500000Y-70700000D02*
X93500000Y-72000000D01*
X93500000Y-72000000D02*
X93500000Y-73200000D01*
X93500000Y-72700000D02*
X93500000Y-74800000D01*
X93500000Y-74800000D02*
X94300000Y-75600000D01*
X94300000Y-75600000D02*
X94300000Y-79000000D01*
D14*
X96022440Y-73177560D02*
X96000000Y-73200000D01*
D16*
X98562440Y-74357281D02*
X101900000Y-77694841D01*
X98562440Y-73155200D02*
X98562440Y-74357281D01*
X101900000Y-77694841D02*
X101900000Y-79100000D01*
X99800000Y-74500000D02*
X104400000Y-79100000D01*
X98562440Y-70615200D02*
X99800000Y-71852760D01*
X99800000Y-71852760D02*
X99800000Y-74500000D01*
X101102440Y-74357281D02*
X104245159Y-77500000D01*
X101102440Y-73155200D02*
X101102440Y-74357281D01*
X104245159Y-77500000D02*
X105400000Y-77500000D01*
X105400000Y-77500000D02*
X106900000Y-79000000D01*
X107300000Y-76900000D02*
X109500000Y-79100000D01*
X105100000Y-76900000D02*
X107300000Y-76900000D01*
X102400000Y-74200000D02*
X105100000Y-76900000D01*
X101102440Y-70615200D02*
X102400000Y-71912760D01*
X102400000Y-71912760D02*
X102400000Y-74200000D01*
X103600000Y-73197640D02*
X103642440Y-73155200D01*
X103600000Y-73600000D02*
X103600000Y-73197640D01*
X110550000Y-77450000D02*
X112200000Y-79100000D01*
X108800000Y-77450000D02*
X110550000Y-77450000D01*
X107650000Y-76300000D02*
X108800000Y-77450000D01*
X105500000Y-76300000D02*
X107650000Y-76300000D01*
X103600000Y-73197640D02*
X103600000Y-74400000D01*
X103600000Y-74400000D02*
X105500000Y-76300000D01*
X112350000Y-76750000D02*
X114600000Y-79000000D01*
X103642440Y-70615200D02*
X104900000Y-71872760D01*
X104900000Y-74100000D02*
X106300000Y-75500000D01*
X106300000Y-75500000D02*
X107900000Y-75500000D01*
X104900000Y-71872760D02*
X104900000Y-74100000D01*
X107900000Y-75500000D02*
X109150000Y-76750000D01*
X109150000Y-76750000D02*
X112350000Y-76750000D01*
X106182440Y-73155200D02*
X106391611Y-73155200D01*
X114200000Y-76100000D02*
X117200000Y-79100000D01*
X109300000Y-76100000D02*
X114200000Y-76100000D01*
X106300000Y-73100000D02*
X109300000Y-76100000D01*
X106200000Y-73100000D02*
X106300000Y-73100000D01*
X106182440Y-73155200D02*
X106200000Y-73137640D01*
X106200000Y-73137640D02*
X106200000Y-73100000D01*
X116200000Y-75600000D02*
X119700000Y-79100000D01*
X111200000Y-75600000D02*
X116200000Y-75600000D01*
X106182440Y-70615200D02*
X106215200Y-70615200D01*
X106215200Y-70615200D02*
X111200000Y-75600000D01*
X120100000Y-66700000D02*
X112100000Y-58700000D01*
X121422440Y-73155200D02*
X120100000Y-71832760D01*
X120100000Y-71832760D02*
X120100000Y-66700000D01*
X121422440Y-65522440D02*
X114600000Y-58700000D01*
X121422440Y-70615200D02*
X121422440Y-65522440D01*
X122700000Y-64400000D02*
X117100000Y-58800000D01*
X123962440Y-73155200D02*
X122700000Y-71892760D01*
X122700000Y-71892760D02*
X122700000Y-64400000D01*
X123962440Y-63062440D02*
X119700000Y-58800000D01*
X123962440Y-70615200D02*
X123962440Y-63062440D01*
X125200000Y-61800000D02*
X122200000Y-58800000D01*
X126502440Y-73155200D02*
X125200000Y-71852760D01*
X125200000Y-71852760D02*
X125200000Y-61800000D01*
X126502440Y-60502440D02*
X124800000Y-58800000D01*
X126502440Y-70615200D02*
X126502440Y-60502440D01*
X127800000Y-72000000D02*
X129000000Y-73200000D01*
X127800000Y-60500000D02*
X127800000Y-72000000D01*
X127310000Y-60010000D02*
X127800000Y-60500000D01*
X127300000Y-58700000D02*
X127310000Y-58710000D01*
X127310000Y-58710000D02*
X127310000Y-60010000D01*
X129900000Y-58800000D02*
X129800000Y-58700000D01*
X129900000Y-60000000D02*
X129900000Y-58800000D01*
X129042440Y-70615200D02*
X129042440Y-60857560D01*
X129042440Y-60857560D02*
X129900000Y-60000000D01*
D17*
G36*
X101116918Y-57796737D02*
G01*
X100956737Y-57956918D01*
X100830884Y-58145271D01*
X100744194Y-58354557D01*
X100700000Y-58576735D01*
X100700000Y-58803265D01*
X100744194Y-59025443D01*
X100830884Y-59234729D01*
X100956737Y-59423082D01*
X101116918Y-59583263D01*
X101305271Y-59709116D01*
X101514557Y-59795806D01*
X101736735Y-59840000D01*
X101963265Y-59840000D01*
X102185443Y-59795806D01*
X102394729Y-59709116D01*
X102583082Y-59583263D01*
X102743263Y-59423082D01*
X102869116Y-59234729D01*
X102955806Y-59025443D01*
X103000000Y-58803265D01*
X103000000Y-58576735D01*
X102955806Y-58354557D01*
X102869116Y-58145271D01*
X102743263Y-57956918D01*
X102583082Y-57796737D01*
X102505652Y-57745000D01*
X103734348Y-57745000D01*
X103656918Y-57796737D01*
X103496737Y-57956918D01*
X103370884Y-58145271D01*
X103284194Y-58354557D01*
X103240000Y-58576735D01*
X103240000Y-58803265D01*
X103284194Y-59025443D01*
X103370884Y-59234729D01*
X103496737Y-59423082D01*
X103656918Y-59583263D01*
X103845271Y-59709116D01*
X104054557Y-59795806D01*
X104276735Y-59840000D01*
X104503265Y-59840000D01*
X104725443Y-59795806D01*
X104934729Y-59709116D01*
X105123082Y-59583263D01*
X105283263Y-59423082D01*
X105409116Y-59234729D01*
X105495806Y-59025443D01*
X105540000Y-58803265D01*
X105540000Y-58576735D01*
X105495806Y-58354557D01*
X105409116Y-58145271D01*
X105283263Y-57956918D01*
X105123082Y-57796737D01*
X105045652Y-57745000D01*
X106274348Y-57745000D01*
X106196918Y-57796737D01*
X106036737Y-57956918D01*
X105910884Y-58145271D01*
X105824194Y-58354557D01*
X105780000Y-58576735D01*
X105780000Y-58803265D01*
X105824194Y-59025443D01*
X105910884Y-59234729D01*
X106036737Y-59423082D01*
X106196918Y-59583263D01*
X106385271Y-59709116D01*
X106594557Y-59795806D01*
X106816735Y-59840000D01*
X107043265Y-59840000D01*
X107265443Y-59795806D01*
X107474729Y-59709116D01*
X107663082Y-59583263D01*
X107823263Y-59423082D01*
X107949116Y-59234729D01*
X108035806Y-59025443D01*
X108080000Y-58803265D01*
X108080000Y-58576735D01*
X108035806Y-58354557D01*
X107949116Y-58145271D01*
X107823263Y-57956918D01*
X107663082Y-57796737D01*
X107585652Y-57745000D01*
X108814348Y-57745000D01*
X108736918Y-57796737D01*
X108576737Y-57956918D01*
X108450884Y-58145271D01*
X108364194Y-58354557D01*
X108320000Y-58576735D01*
X108320000Y-58803265D01*
X108364194Y-59025443D01*
X108450884Y-59234729D01*
X108576737Y-59423082D01*
X108736918Y-59583263D01*
X108925271Y-59709116D01*
X109134557Y-59795806D01*
X109356735Y-59840000D01*
X109583265Y-59840000D01*
X109805443Y-59795806D01*
X110014729Y-59709116D01*
X110203082Y-59583263D01*
X110363263Y-59423082D01*
X110489116Y-59234729D01*
X110575806Y-59025443D01*
X110620000Y-58803265D01*
X110620000Y-58576735D01*
X110575806Y-58354557D01*
X110489116Y-58145271D01*
X110363263Y-57956918D01*
X110203082Y-57796737D01*
X110125652Y-57745000D01*
X111354348Y-57745000D01*
X111276918Y-57796737D01*
X111116737Y-57956918D01*
X110990884Y-58145271D01*
X110904194Y-58354557D01*
X110860000Y-58576735D01*
X110860000Y-58803265D01*
X110904194Y-59025443D01*
X110990884Y-59234729D01*
X111116737Y-59423082D01*
X111276918Y-59583263D01*
X111465271Y-59709116D01*
X111674557Y-59795806D01*
X111896735Y-59840000D01*
X112123265Y-59840000D01*
X112345443Y-59795806D01*
X112521740Y-59722780D01*
X119675001Y-66876042D01*
X119675000Y-69774925D01*
X119560219Y-69673810D01*
X119363540Y-69559670D01*
X119148372Y-69486094D01*
X119068841Y-69470275D01*
X118887440Y-69532712D01*
X118887440Y-70610200D01*
X118907440Y-70610200D01*
X118907440Y-70620200D01*
X118887440Y-70620200D01*
X118887440Y-71697688D01*
X119068841Y-71760125D01*
X119148372Y-71744306D01*
X119363540Y-71670730D01*
X119560219Y-71556590D01*
X119675000Y-71455475D01*
X119675000Y-71811893D01*
X119672945Y-71832760D01*
X119675000Y-71853627D01*
X119675000Y-71853633D01*
X119681150Y-71916073D01*
X119705452Y-71996186D01*
X119744916Y-72070019D01*
X119798026Y-72134734D01*
X119814244Y-72148044D01*
X120363319Y-72697119D01*
X120354838Y-72712985D01*
X120289080Y-72929761D01*
X120266876Y-73155200D01*
X120289080Y-73380639D01*
X120354838Y-73597415D01*
X120461624Y-73797197D01*
X120605333Y-73972307D01*
X120780443Y-74116016D01*
X120980225Y-74222802D01*
X121197001Y-74288560D01*
X121365948Y-74305200D01*
X121478932Y-74305200D01*
X121647879Y-74288560D01*
X121864655Y-74222802D01*
X122064437Y-74116016D01*
X122239547Y-73972307D01*
X122383256Y-73797197D01*
X122490042Y-73597415D01*
X122555800Y-73380639D01*
X122578004Y-73155200D01*
X122555800Y-72929761D01*
X122490042Y-72712985D01*
X122383256Y-72513203D01*
X122239547Y-72338093D01*
X122064437Y-72194384D01*
X121864655Y-72087598D01*
X121647879Y-72021840D01*
X121478932Y-72005200D01*
X121365948Y-72005200D01*
X121197001Y-72021840D01*
X120980225Y-72087598D01*
X120964359Y-72096079D01*
X120525000Y-71656720D01*
X120525000Y-71334421D01*
X120605333Y-71432307D01*
X120780443Y-71576016D01*
X120980225Y-71682802D01*
X121197001Y-71748560D01*
X121365948Y-71765200D01*
X121478932Y-71765200D01*
X121647879Y-71748560D01*
X121864655Y-71682802D01*
X122064437Y-71576016D01*
X122239547Y-71432307D01*
X122275000Y-71389107D01*
X122275000Y-71871893D01*
X122272945Y-71892760D01*
X122275000Y-71913627D01*
X122275000Y-71913633D01*
X122279180Y-71956073D01*
X122281150Y-71976074D01*
X122288408Y-72000000D01*
X122305452Y-72056186D01*
X122344916Y-72130019D01*
X122398026Y-72194734D01*
X122414243Y-72208043D01*
X122903319Y-72697119D01*
X122894838Y-72712985D01*
X122829080Y-72929761D01*
X122806876Y-73155200D01*
X122829080Y-73380639D01*
X122894838Y-73597415D01*
X123001624Y-73797197D01*
X123145333Y-73972307D01*
X123320443Y-74116016D01*
X123520225Y-74222802D01*
X123737001Y-74288560D01*
X123905948Y-74305200D01*
X124018932Y-74305200D01*
X124187879Y-74288560D01*
X124404655Y-74222802D01*
X124604437Y-74116016D01*
X124779547Y-73972307D01*
X124923256Y-73797197D01*
X125030042Y-73597415D01*
X125095800Y-73380639D01*
X125118004Y-73155200D01*
X125095800Y-72929761D01*
X125030042Y-72712985D01*
X124923256Y-72513203D01*
X124779547Y-72338093D01*
X124604437Y-72194384D01*
X124404655Y-72087598D01*
X124187879Y-72021840D01*
X124018932Y-72005200D01*
X123905948Y-72005200D01*
X123737001Y-72021840D01*
X123520225Y-72087598D01*
X123504359Y-72096079D01*
X123125000Y-71716720D01*
X123125000Y-71407531D01*
X123145333Y-71432307D01*
X123320443Y-71576016D01*
X123520225Y-71682802D01*
X123737001Y-71748560D01*
X123905948Y-71765200D01*
X124018932Y-71765200D01*
X124187879Y-71748560D01*
X124404655Y-71682802D01*
X124604437Y-71576016D01*
X124775000Y-71436039D01*
X124775000Y-71831893D01*
X124772945Y-71852760D01*
X124775000Y-71873627D01*
X124775000Y-71873633D01*
X124781150Y-71936073D01*
X124805452Y-72016186D01*
X124844916Y-72090019D01*
X124898026Y-72154734D01*
X124914243Y-72168043D01*
X125443319Y-72697119D01*
X125434838Y-72712985D01*
X125369080Y-72929761D01*
X125346876Y-73155200D01*
X125369080Y-73380639D01*
X125434838Y-73597415D01*
X125541624Y-73797197D01*
X125685333Y-73972307D01*
X125860443Y-74116016D01*
X126060225Y-74222802D01*
X126277001Y-74288560D01*
X126445948Y-74305200D01*
X126558932Y-74305200D01*
X126727879Y-74288560D01*
X126944655Y-74222802D01*
X127144437Y-74116016D01*
X127319547Y-73972307D01*
X127463256Y-73797197D01*
X127570042Y-73597415D01*
X127635800Y-73380639D01*
X127658004Y-73155200D01*
X127635800Y-72929761D01*
X127570042Y-72712985D01*
X127463256Y-72513203D01*
X127319547Y-72338093D01*
X127144437Y-72194384D01*
X126944655Y-72087598D01*
X126727879Y-72021840D01*
X126558932Y-72005200D01*
X126445948Y-72005200D01*
X126277001Y-72021840D01*
X126060225Y-72087598D01*
X126044359Y-72096079D01*
X125625000Y-71676720D01*
X125625000Y-71358791D01*
X125685333Y-71432307D01*
X125860443Y-71576016D01*
X126060225Y-71682802D01*
X126277001Y-71748560D01*
X126445948Y-71765200D01*
X126558932Y-71765200D01*
X126727879Y-71748560D01*
X126944655Y-71682802D01*
X127144437Y-71576016D01*
X127319547Y-71432307D01*
X127375001Y-71364736D01*
X127375001Y-71979123D01*
X127372945Y-72000000D01*
X127381150Y-72083314D01*
X127401386Y-72150019D01*
X127405453Y-72163427D01*
X127444917Y-72237260D01*
X127498027Y-72301974D01*
X127514239Y-72315279D01*
X127960200Y-72761240D01*
X127909080Y-72929761D01*
X127886876Y-73155200D01*
X127909080Y-73380639D01*
X127974838Y-73597415D01*
X128081624Y-73797197D01*
X128225333Y-73972307D01*
X128400443Y-74116016D01*
X128600225Y-74222802D01*
X128817001Y-74288560D01*
X128985948Y-74305200D01*
X129098932Y-74305200D01*
X129267879Y-74288560D01*
X129484655Y-74222802D01*
X129684437Y-74116016D01*
X129859547Y-73972307D01*
X130003256Y-73797197D01*
X130110042Y-73597415D01*
X130175800Y-73380639D01*
X130198004Y-73155200D01*
X130175800Y-72929761D01*
X130110042Y-72712985D01*
X130003256Y-72513203D01*
X129859547Y-72338093D01*
X129684437Y-72194384D01*
X129484655Y-72087598D01*
X129267879Y-72021840D01*
X129098932Y-72005200D01*
X128985948Y-72005200D01*
X128817001Y-72021840D01*
X128600225Y-72087598D01*
X128527507Y-72126467D01*
X128225000Y-71823960D01*
X128225000Y-71766651D01*
X129892440Y-71766651D01*
X129951250Y-71760859D01*
X130007800Y-71743704D01*
X130059917Y-71715847D01*
X130105598Y-71678358D01*
X130143087Y-71632677D01*
X130170944Y-71580560D01*
X130188099Y-71524010D01*
X130193891Y-71465200D01*
X130193891Y-69765200D01*
X130188099Y-69706390D01*
X130170944Y-69649840D01*
X130143087Y-69597723D01*
X130105598Y-69552042D01*
X130059917Y-69514553D01*
X130007800Y-69486696D01*
X129951250Y-69469541D01*
X129892440Y-69463749D01*
X129467440Y-69463749D01*
X129467440Y-61033600D01*
X130185763Y-60315278D01*
X130201974Y-60301974D01*
X130217003Y-60283662D01*
X130227832Y-60270466D01*
X130255084Y-60237260D01*
X130294548Y-60163427D01*
X130317736Y-60086986D01*
X130318850Y-60083315D01*
X130319871Y-60072944D01*
X130325000Y-60020874D01*
X130325000Y-60020867D01*
X130327055Y-60000000D01*
X130325000Y-59979133D01*
X130325000Y-59713146D01*
X130334729Y-59709116D01*
X130523082Y-59583263D01*
X130683263Y-59423082D01*
X130809116Y-59234729D01*
X130895806Y-59025443D01*
X130940000Y-58803265D01*
X130940000Y-58576735D01*
X130895806Y-58354557D01*
X130809116Y-58145271D01*
X130683263Y-57956918D01*
X130523082Y-57796737D01*
X130445652Y-57745000D01*
X133177703Y-57745000D01*
X133623526Y-57788713D01*
X134037078Y-57913572D01*
X134081122Y-57936991D01*
X133804665Y-57882000D01*
X133395335Y-57882000D01*
X132993870Y-57961856D01*
X132615698Y-58118500D01*
X132275352Y-58345912D01*
X131985912Y-58635352D01*
X131758500Y-58975698D01*
X131601856Y-59353870D01*
X131522000Y-59755335D01*
X131522000Y-60164665D01*
X131601856Y-60566130D01*
X131758500Y-60944302D01*
X131985912Y-61284648D01*
X132275352Y-61574088D01*
X132615698Y-61801500D01*
X132993870Y-61958144D01*
X133395335Y-62038000D01*
X133804665Y-62038000D01*
X134206130Y-61958144D01*
X134584302Y-61801500D01*
X134924648Y-61574088D01*
X135214088Y-61284648D01*
X135408573Y-60993580D01*
X135408161Y-76705802D01*
X135214088Y-76415352D01*
X134924648Y-76125912D01*
X134584302Y-75898500D01*
X134206130Y-75741856D01*
X133804665Y-75662000D01*
X133395335Y-75662000D01*
X132993870Y-75741856D01*
X132615698Y-75898500D01*
X132275352Y-76125912D01*
X131985912Y-76415352D01*
X131758500Y-76755698D01*
X131601856Y-77133870D01*
X131522000Y-77535335D01*
X131522000Y-77944665D01*
X131601856Y-78346130D01*
X131758500Y-78724302D01*
X131985912Y-79064648D01*
X132275352Y-79354088D01*
X132615698Y-79581500D01*
X132993870Y-79738144D01*
X133395335Y-79818000D01*
X133804665Y-79818000D01*
X134074505Y-79764326D01*
X134012009Y-79796582D01*
X133596007Y-79916655D01*
X133178696Y-79955000D01*
X130471534Y-79955000D01*
X130555869Y-79782940D01*
X129790000Y-79017071D01*
X129024131Y-79782940D01*
X129108466Y-79955000D01*
X127905652Y-79955000D01*
X127983082Y-79903263D01*
X128143263Y-79743082D01*
X128269116Y-79554729D01*
X128355806Y-79345443D01*
X128400000Y-79123265D01*
X128400000Y-78969235D01*
X128625101Y-78969235D01*
X128639532Y-79197279D01*
X128698174Y-79418126D01*
X128798774Y-79623289D01*
X128844069Y-79691078D01*
X129017060Y-79775869D01*
X129782929Y-79010000D01*
X129797071Y-79010000D01*
X130562940Y-79775869D01*
X130735931Y-79691078D01*
X130850627Y-79493450D01*
X130924563Y-79277242D01*
X130954899Y-79050765D01*
X130940468Y-78822721D01*
X130881826Y-78601874D01*
X130781226Y-78396711D01*
X130735931Y-78328922D01*
X130562940Y-78244131D01*
X129797071Y-79010000D01*
X129782929Y-79010000D01*
X129017060Y-78244131D01*
X128844069Y-78328922D01*
X128729373Y-78526550D01*
X128655437Y-78742758D01*
X128625101Y-78969235D01*
X128400000Y-78969235D01*
X128400000Y-78896735D01*
X128355806Y-78674557D01*
X128269116Y-78465271D01*
X128143263Y-78276918D01*
X128103405Y-78237060D01*
X129024131Y-78237060D01*
X129790000Y-79002929D01*
X130555869Y-78237060D01*
X130471078Y-78064069D01*
X130273450Y-77949373D01*
X130057242Y-77875437D01*
X129830765Y-77845101D01*
X129602721Y-77859532D01*
X129381874Y-77918174D01*
X129176711Y-78018774D01*
X129108922Y-78064069D01*
X129024131Y-78237060D01*
X128103405Y-78237060D01*
X127983082Y-78116737D01*
X127794729Y-77990884D01*
X127585443Y-77904194D01*
X127363265Y-77860000D01*
X127136735Y-77860000D01*
X126914557Y-77904194D01*
X126705271Y-77990884D01*
X126516918Y-78116737D01*
X126356737Y-78276918D01*
X126230884Y-78465271D01*
X126144194Y-78674557D01*
X126100000Y-78896735D01*
X126100000Y-79123265D01*
X126144194Y-79345443D01*
X126230884Y-79554729D01*
X126356737Y-79743082D01*
X126516918Y-79903263D01*
X126594348Y-79955000D01*
X125365652Y-79955000D01*
X125443082Y-79903263D01*
X125603263Y-79743082D01*
X125729116Y-79554729D01*
X125815806Y-79345443D01*
X125860000Y-79123265D01*
X125860000Y-78896735D01*
X125815806Y-78674557D01*
X125729116Y-78465271D01*
X125603263Y-78276918D01*
X125443082Y-78116737D01*
X125254729Y-77990884D01*
X125045443Y-77904194D01*
X124823265Y-77860000D01*
X124596735Y-77860000D01*
X124374557Y-77904194D01*
X124165271Y-77990884D01*
X123976918Y-78116737D01*
X123816737Y-78276918D01*
X123690884Y-78465271D01*
X123604194Y-78674557D01*
X123560000Y-78896735D01*
X123560000Y-79123265D01*
X123604194Y-79345443D01*
X123690884Y-79554729D01*
X123816737Y-79743082D01*
X123976918Y-79903263D01*
X124054348Y-79955000D01*
X122825652Y-79955000D01*
X122903082Y-79903263D01*
X123063263Y-79743082D01*
X123189116Y-79554729D01*
X123275806Y-79345443D01*
X123320000Y-79123265D01*
X123320000Y-78896735D01*
X123275806Y-78674557D01*
X123189116Y-78465271D01*
X123063263Y-78276918D01*
X122903082Y-78116737D01*
X122714729Y-77990884D01*
X122505443Y-77904194D01*
X122283265Y-77860000D01*
X122056735Y-77860000D01*
X121834557Y-77904194D01*
X121625271Y-77990884D01*
X121436918Y-78116737D01*
X121276737Y-78276918D01*
X121150884Y-78465271D01*
X121064194Y-78674557D01*
X121020000Y-78896735D01*
X121020000Y-79123265D01*
X121064194Y-79345443D01*
X121150884Y-79554729D01*
X121276737Y-79743082D01*
X121436918Y-79903263D01*
X121514348Y-79955000D01*
X120285652Y-79955000D01*
X120363082Y-79903263D01*
X120523263Y-79743082D01*
X120649116Y-79554729D01*
X120735806Y-79345443D01*
X120780000Y-79123265D01*
X120780000Y-78896735D01*
X120735806Y-78674557D01*
X120649116Y-78465271D01*
X120523263Y-78276918D01*
X120363082Y-78116737D01*
X120174729Y-77990884D01*
X119965443Y-77904194D01*
X119743265Y-77860000D01*
X119516735Y-77860000D01*
X119294557Y-77904194D01*
X119160686Y-77959646D01*
X116515283Y-75314243D01*
X116501974Y-75298026D01*
X116437260Y-75244916D01*
X116363427Y-75205452D01*
X116283314Y-75181150D01*
X116220874Y-75175000D01*
X116220867Y-75175000D01*
X116200000Y-75172945D01*
X116179133Y-75175000D01*
X111376041Y-75175000D01*
X107333891Y-71132851D01*
X107333891Y-69765200D01*
X107328099Y-69706390D01*
X107310944Y-69649840D01*
X107283087Y-69597723D01*
X107245598Y-69552042D01*
X107199917Y-69514553D01*
X107147800Y-69486696D01*
X107091250Y-69469541D01*
X107032440Y-69463749D01*
X105332440Y-69463749D01*
X105273630Y-69469541D01*
X105217080Y-69486696D01*
X105164963Y-69514553D01*
X105119282Y-69552042D01*
X105081793Y-69597723D01*
X105053936Y-69649840D01*
X105036781Y-69706390D01*
X105030989Y-69765200D01*
X105030989Y-71402708D01*
X104701561Y-71073281D01*
X104710042Y-71057415D01*
X104775800Y-70840639D01*
X104798004Y-70615200D01*
X104775800Y-70389761D01*
X104710042Y-70172985D01*
X104603256Y-69973203D01*
X104459547Y-69798093D01*
X104284437Y-69654384D01*
X104084655Y-69547598D01*
X103867879Y-69481840D01*
X103698932Y-69465200D01*
X103585948Y-69465200D01*
X103417001Y-69481840D01*
X103200225Y-69547598D01*
X103000443Y-69654384D01*
X102825333Y-69798093D01*
X102681624Y-69973203D01*
X102574838Y-70172985D01*
X102509080Y-70389761D01*
X102486876Y-70615200D01*
X102509080Y-70840639D01*
X102574838Y-71057415D01*
X102681624Y-71257197D01*
X102825333Y-71432307D01*
X103000443Y-71576016D01*
X103200225Y-71682802D01*
X103417001Y-71748560D01*
X103585948Y-71765200D01*
X103698932Y-71765200D01*
X103867879Y-71748560D01*
X104084655Y-71682802D01*
X104100521Y-71674321D01*
X104475000Y-72048801D01*
X104475000Y-72356923D01*
X104459547Y-72338093D01*
X104284437Y-72194384D01*
X104084655Y-72087598D01*
X103867879Y-72021840D01*
X103698932Y-72005200D01*
X103585948Y-72005200D01*
X103417001Y-72021840D01*
X103200225Y-72087598D01*
X103000443Y-72194384D01*
X102825333Y-72338093D01*
X102825000Y-72338499D01*
X102825000Y-71933627D01*
X102827055Y-71912760D01*
X102825000Y-71891893D01*
X102825000Y-71891886D01*
X102818850Y-71829446D01*
X102794548Y-71749333D01*
X102755084Y-71675500D01*
X102701974Y-71610786D01*
X102685763Y-71597482D01*
X102161561Y-71073281D01*
X102170042Y-71057415D01*
X102235800Y-70840639D01*
X102258004Y-70615200D01*
X102235800Y-70389761D01*
X102170042Y-70172985D01*
X102063256Y-69973203D01*
X101919547Y-69798093D01*
X101744437Y-69654384D01*
X101544655Y-69547598D01*
X101327879Y-69481840D01*
X101158932Y-69465200D01*
X101045948Y-69465200D01*
X100877001Y-69481840D01*
X100660225Y-69547598D01*
X100460443Y-69654384D01*
X100285333Y-69798093D01*
X100141624Y-69973203D01*
X100034838Y-70172985D01*
X99969080Y-70389761D01*
X99946876Y-70615200D01*
X99969080Y-70840639D01*
X100034838Y-71057415D01*
X100141624Y-71257197D01*
X100285333Y-71432307D01*
X100460443Y-71576016D01*
X100660225Y-71682802D01*
X100877001Y-71748560D01*
X101045948Y-71765200D01*
X101158932Y-71765200D01*
X101327879Y-71748560D01*
X101544655Y-71682802D01*
X101560521Y-71674321D01*
X101975000Y-72088801D01*
X101975000Y-72405663D01*
X101919547Y-72338093D01*
X101744437Y-72194384D01*
X101544655Y-72087598D01*
X101327879Y-72021840D01*
X101158932Y-72005200D01*
X101045948Y-72005200D01*
X100877001Y-72021840D01*
X100660225Y-72087598D01*
X100460443Y-72194384D01*
X100285333Y-72338093D01*
X100225000Y-72411609D01*
X100225000Y-71873626D01*
X100227055Y-71852759D01*
X100225000Y-71831892D01*
X100225000Y-71831886D01*
X100218850Y-71769446D01*
X100212749Y-71749332D01*
X100200615Y-71709334D01*
X100194548Y-71689333D01*
X100155084Y-71615500D01*
X100101974Y-71550786D01*
X100085761Y-71537480D01*
X99621561Y-71073281D01*
X99630042Y-71057415D01*
X99695800Y-70840639D01*
X99718004Y-70615200D01*
X99695800Y-70389761D01*
X99630042Y-70172985D01*
X99523256Y-69973203D01*
X99379547Y-69798093D01*
X99204437Y-69654384D01*
X99004655Y-69547598D01*
X98787879Y-69481840D01*
X98618932Y-69465200D01*
X98505948Y-69465200D01*
X98337001Y-69481840D01*
X98120225Y-69547598D01*
X97920443Y-69654384D01*
X97745333Y-69798093D01*
X97601624Y-69973203D01*
X97494838Y-70172985D01*
X97429080Y-70389761D01*
X97406876Y-70615200D01*
X97429080Y-70840639D01*
X97494838Y-71057415D01*
X97601624Y-71257197D01*
X97745333Y-71432307D01*
X97920443Y-71576016D01*
X98120225Y-71682802D01*
X98337001Y-71748560D01*
X98505948Y-71765200D01*
X98618932Y-71765200D01*
X98787879Y-71748560D01*
X99004655Y-71682802D01*
X99020521Y-71674321D01*
X99375000Y-72028801D01*
X99375000Y-72334362D01*
X99204437Y-72194384D01*
X99004655Y-72087598D01*
X98787879Y-72021840D01*
X98618932Y-72005200D01*
X98505948Y-72005200D01*
X98337001Y-72021840D01*
X98120225Y-72087598D01*
X97920443Y-72194384D01*
X97745333Y-72338093D01*
X97601624Y-72513203D01*
X97494838Y-72712985D01*
X97429080Y-72929761D01*
X97406876Y-73155200D01*
X97429080Y-73380639D01*
X97494838Y-73597415D01*
X97601624Y-73797197D01*
X97745333Y-73972307D01*
X97920443Y-74116016D01*
X98120225Y-74222802D01*
X98137441Y-74228024D01*
X98137441Y-74336405D01*
X98135385Y-74357281D01*
X98143590Y-74440595D01*
X98159957Y-74494548D01*
X98167893Y-74520708D01*
X98207357Y-74594541D01*
X98260467Y-74659255D01*
X98276679Y-74672560D01*
X101475000Y-77870881D01*
X101475000Y-77920579D01*
X101305271Y-77990884D01*
X101116918Y-78116737D01*
X100956737Y-78276918D01*
X100830884Y-78465271D01*
X100744194Y-78674557D01*
X100700000Y-78896735D01*
X100700000Y-79123265D01*
X100744194Y-79345443D01*
X100830884Y-79554729D01*
X100956737Y-79743082D01*
X101116918Y-79903263D01*
X101194348Y-79955000D01*
X99991534Y-79955000D01*
X100075869Y-79782940D01*
X99310000Y-79017071D01*
X98544131Y-79782940D01*
X98628466Y-79955000D01*
X97425652Y-79955000D01*
X97503082Y-79903263D01*
X97663263Y-79743082D01*
X97789116Y-79554729D01*
X97875806Y-79345443D01*
X97920000Y-79123265D01*
X97920000Y-78969235D01*
X98145101Y-78969235D01*
X98159532Y-79197279D01*
X98218174Y-79418126D01*
X98318774Y-79623289D01*
X98364069Y-79691078D01*
X98537060Y-79775869D01*
X99302929Y-79010000D01*
X99317071Y-79010000D01*
X100082940Y-79775869D01*
X100255931Y-79691078D01*
X100370627Y-79493450D01*
X100444563Y-79277242D01*
X100474899Y-79050765D01*
X100460468Y-78822721D01*
X100401826Y-78601874D01*
X100301226Y-78396711D01*
X100255931Y-78328922D01*
X100082940Y-78244131D01*
X99317071Y-79010000D01*
X99302929Y-79010000D01*
X98537060Y-78244131D01*
X98364069Y-78328922D01*
X98249373Y-78526550D01*
X98175437Y-78742758D01*
X98145101Y-78969235D01*
X97920000Y-78969235D01*
X97920000Y-78896735D01*
X97875806Y-78674557D01*
X97789116Y-78465271D01*
X97663263Y-78276918D01*
X97623405Y-78237060D01*
X98544131Y-78237060D01*
X99310000Y-79002929D01*
X100075869Y-78237060D01*
X99991078Y-78064069D01*
X99793450Y-77949373D01*
X99577242Y-77875437D01*
X99350765Y-77845101D01*
X99122721Y-77859532D01*
X98901874Y-77918174D01*
X98696711Y-78018774D01*
X98628922Y-78064069D01*
X98544131Y-78237060D01*
X97623405Y-78237060D01*
X97503082Y-78116737D01*
X97314729Y-77990884D01*
X97105443Y-77904194D01*
X96883265Y-77860000D01*
X96656735Y-77860000D01*
X96434557Y-77904194D01*
X96225271Y-77990884D01*
X96036918Y-78116737D01*
X95876737Y-78276918D01*
X95750884Y-78465271D01*
X95664194Y-78674557D01*
X95620000Y-78896735D01*
X95620000Y-79123265D01*
X95664194Y-79345443D01*
X95750884Y-79554729D01*
X95876737Y-79743082D01*
X96036918Y-79903263D01*
X96114348Y-79955000D01*
X94885652Y-79955000D01*
X94963082Y-79903263D01*
X95123263Y-79743082D01*
X95249116Y-79554729D01*
X95335806Y-79345443D01*
X95380000Y-79123265D01*
X95380000Y-78896735D01*
X95335806Y-78674557D01*
X95249116Y-78465271D01*
X95123263Y-78276918D01*
X94963082Y-78116737D01*
X94800000Y-78007769D01*
X94800000Y-75624560D01*
X94802419Y-75600000D01*
X94792765Y-75501983D01*
X94772923Y-75436572D01*
X94764175Y-75407733D01*
X94717746Y-75320871D01*
X94655264Y-75244736D01*
X94636187Y-75229080D01*
X94000000Y-74592895D01*
X94000000Y-74182529D01*
X94124437Y-74116016D01*
X94299547Y-73972307D01*
X94443256Y-73797197D01*
X94550042Y-73597415D01*
X94615800Y-73380639D01*
X94619644Y-73341601D01*
X94877515Y-73341601D01*
X94935879Y-73561383D01*
X95035999Y-73765556D01*
X95174028Y-73946273D01*
X95344661Y-74096590D01*
X95541340Y-74210730D01*
X95756508Y-74284306D01*
X95836039Y-74300125D01*
X96017440Y-74237688D01*
X96017440Y-73160200D01*
X96027440Y-73160200D01*
X96027440Y-74237688D01*
X96208841Y-74300125D01*
X96288372Y-74284306D01*
X96503540Y-74210730D01*
X96700219Y-74096590D01*
X96870852Y-73946273D01*
X97008881Y-73765556D01*
X97109001Y-73561383D01*
X97167365Y-73341601D01*
X97104929Y-73160200D01*
X96027440Y-73160200D01*
X96017440Y-73160200D01*
X94939951Y-73160200D01*
X94877515Y-73341601D01*
X94619644Y-73341601D01*
X94638004Y-73155200D01*
X94619645Y-72968799D01*
X94877515Y-72968799D01*
X94939951Y-73150200D01*
X96017440Y-73150200D01*
X96017440Y-72072712D01*
X96027440Y-72072712D01*
X96027440Y-73150200D01*
X97104929Y-73150200D01*
X97167365Y-72968799D01*
X97109001Y-72749017D01*
X97008881Y-72544844D01*
X96870852Y-72364127D01*
X96700219Y-72213810D01*
X96503540Y-72099670D01*
X96288372Y-72026094D01*
X96208841Y-72010275D01*
X96027440Y-72072712D01*
X96017440Y-72072712D01*
X95836039Y-72010275D01*
X95756508Y-72026094D01*
X95541340Y-72099670D01*
X95344661Y-72213810D01*
X95174028Y-72364127D01*
X95035999Y-72544844D01*
X94935879Y-72749017D01*
X94877515Y-72968799D01*
X94619645Y-72968799D01*
X94615800Y-72929761D01*
X94550042Y-72712985D01*
X94443256Y-72513203D01*
X94299547Y-72338093D01*
X94124437Y-72194384D01*
X94000000Y-72127871D01*
X94000000Y-71642529D01*
X94124437Y-71576016D01*
X94299547Y-71432307D01*
X94443256Y-71257197D01*
X94550042Y-71057415D01*
X94615800Y-70840639D01*
X94619644Y-70801601D01*
X94877515Y-70801601D01*
X94935879Y-71021383D01*
X95035999Y-71225556D01*
X95174028Y-71406273D01*
X95344661Y-71556590D01*
X95541340Y-71670730D01*
X95756508Y-71744306D01*
X95836039Y-71760125D01*
X96017440Y-71697688D01*
X96017440Y-70620200D01*
X96027440Y-70620200D01*
X96027440Y-71697688D01*
X96208841Y-71760125D01*
X96288372Y-71744306D01*
X96503540Y-71670730D01*
X96700219Y-71556590D01*
X96870852Y-71406273D01*
X97008881Y-71225556D01*
X97109001Y-71021383D01*
X97167365Y-70801601D01*
X97104929Y-70620200D01*
X96027440Y-70620200D01*
X96017440Y-70620200D01*
X94939951Y-70620200D01*
X94877515Y-70801601D01*
X94619644Y-70801601D01*
X94638004Y-70615200D01*
X94619645Y-70428799D01*
X94877515Y-70428799D01*
X94939951Y-70610200D01*
X96017440Y-70610200D01*
X96017440Y-69532712D01*
X96027440Y-69532712D01*
X96027440Y-70610200D01*
X97104929Y-70610200D01*
X97167365Y-70428799D01*
X97109001Y-70209017D01*
X97008881Y-70004844D01*
X96870852Y-69824127D01*
X96700219Y-69673810D01*
X96503540Y-69559670D01*
X96288372Y-69486094D01*
X96208841Y-69470275D01*
X96027440Y-69532712D01*
X96017440Y-69532712D01*
X95836039Y-69470275D01*
X95756508Y-69486094D01*
X95541340Y-69559670D01*
X95344661Y-69673810D01*
X95174028Y-69824127D01*
X95035999Y-70004844D01*
X94935879Y-70209017D01*
X94877515Y-70428799D01*
X94619645Y-70428799D01*
X94615800Y-70389761D01*
X94550042Y-70172985D01*
X94544496Y-70162609D01*
X95307106Y-69400000D01*
X114292895Y-69400000D01*
X115226204Y-70333310D01*
X115209080Y-70389761D01*
X115186876Y-70615200D01*
X115209080Y-70840639D01*
X115274838Y-71057415D01*
X115381624Y-71257197D01*
X115525333Y-71432307D01*
X115700443Y-71576016D01*
X115800000Y-71629231D01*
X115800001Y-72141169D01*
X115700443Y-72194384D01*
X115525333Y-72338093D01*
X115381624Y-72513203D01*
X115274838Y-72712985D01*
X115209080Y-72929761D01*
X115186876Y-73155200D01*
X115209080Y-73380639D01*
X115274838Y-73597415D01*
X115381624Y-73797197D01*
X115525333Y-73972307D01*
X115700443Y-74116016D01*
X115900225Y-74222802D01*
X116117001Y-74288560D01*
X116285948Y-74305200D01*
X116398932Y-74305200D01*
X116567879Y-74288560D01*
X116784655Y-74222802D01*
X116984437Y-74116016D01*
X117159547Y-73972307D01*
X117303256Y-73797197D01*
X117410042Y-73597415D01*
X117475800Y-73380639D01*
X117479644Y-73341601D01*
X117737515Y-73341601D01*
X117795879Y-73561383D01*
X117895999Y-73765556D01*
X118034028Y-73946273D01*
X118204661Y-74096590D01*
X118401340Y-74210730D01*
X118616508Y-74284306D01*
X118696039Y-74300125D01*
X118877440Y-74237688D01*
X118877440Y-73160200D01*
X118887440Y-73160200D01*
X118887440Y-74237688D01*
X119068841Y-74300125D01*
X119148372Y-74284306D01*
X119363540Y-74210730D01*
X119560219Y-74096590D01*
X119730852Y-73946273D01*
X119868881Y-73765556D01*
X119969001Y-73561383D01*
X120027365Y-73341601D01*
X119964929Y-73160200D01*
X118887440Y-73160200D01*
X118877440Y-73160200D01*
X117799951Y-73160200D01*
X117737515Y-73341601D01*
X117479644Y-73341601D01*
X117498004Y-73155200D01*
X117479645Y-72968799D01*
X117737515Y-72968799D01*
X117799951Y-73150200D01*
X118877440Y-73150200D01*
X118877440Y-72072712D01*
X118887440Y-72072712D01*
X118887440Y-73150200D01*
X119964929Y-73150200D01*
X120027365Y-72968799D01*
X119969001Y-72749017D01*
X119868881Y-72544844D01*
X119730852Y-72364127D01*
X119560219Y-72213810D01*
X119363540Y-72099670D01*
X119148372Y-72026094D01*
X119068841Y-72010275D01*
X118887440Y-72072712D01*
X118877440Y-72072712D01*
X118696039Y-72010275D01*
X118616508Y-72026094D01*
X118401340Y-72099670D01*
X118204661Y-72213810D01*
X118034028Y-72364127D01*
X117895999Y-72544844D01*
X117795879Y-72749017D01*
X117737515Y-72968799D01*
X117479645Y-72968799D01*
X117475800Y-72929761D01*
X117410042Y-72712985D01*
X117303256Y-72513203D01*
X117159547Y-72338093D01*
X116984437Y-72194384D01*
X116800000Y-72095800D01*
X116800000Y-71674600D01*
X116984437Y-71576016D01*
X117159547Y-71432307D01*
X117303256Y-71257197D01*
X117410042Y-71057415D01*
X117475800Y-70840639D01*
X117479644Y-70801601D01*
X117737515Y-70801601D01*
X117795879Y-71021383D01*
X117895999Y-71225556D01*
X118034028Y-71406273D01*
X118204661Y-71556590D01*
X118401340Y-71670730D01*
X118616508Y-71744306D01*
X118696039Y-71760125D01*
X118877440Y-71697688D01*
X118877440Y-70620200D01*
X117799951Y-70620200D01*
X117737515Y-70801601D01*
X117479644Y-70801601D01*
X117498004Y-70615200D01*
X117479645Y-70428799D01*
X117737515Y-70428799D01*
X117799951Y-70610200D01*
X118877440Y-70610200D01*
X118877440Y-69532712D01*
X118696039Y-69470275D01*
X118616508Y-69486094D01*
X118401340Y-69559670D01*
X118204661Y-69673810D01*
X118034028Y-69824127D01*
X117895999Y-70004844D01*
X117795879Y-70209017D01*
X117737515Y-70428799D01*
X117479645Y-70428799D01*
X117475800Y-70389761D01*
X117410042Y-70172985D01*
X117303256Y-69973203D01*
X117159547Y-69798093D01*
X116984437Y-69654384D01*
X116784655Y-69547598D01*
X116567879Y-69481840D01*
X116398932Y-69465200D01*
X116285948Y-69465200D01*
X116117001Y-69481840D01*
X115900225Y-69547598D01*
X115870560Y-69563454D01*
X114870929Y-68563824D01*
X114855264Y-68544736D01*
X114779129Y-68482254D01*
X114692267Y-68435825D01*
X114598017Y-68407235D01*
X114524560Y-68400000D01*
X114500000Y-68397581D01*
X114475440Y-68400000D01*
X95124557Y-68400000D01*
X95099999Y-68397581D01*
X95075441Y-68400000D01*
X95075440Y-68400000D01*
X95001983Y-68407235D01*
X94907733Y-68435825D01*
X94820871Y-68482254D01*
X94744736Y-68544736D01*
X94729075Y-68563819D01*
X93787041Y-69505853D01*
X93707879Y-69481840D01*
X93538932Y-69465200D01*
X93425948Y-69465200D01*
X93257001Y-69481840D01*
X93040225Y-69547598D01*
X92840443Y-69654384D01*
X92665333Y-69798093D01*
X92521624Y-69973203D01*
X92414838Y-70172985D01*
X92349080Y-70389761D01*
X92326876Y-70615200D01*
X92349080Y-70840639D01*
X92414838Y-71057415D01*
X92521624Y-71257197D01*
X92665333Y-71432307D01*
X92840443Y-71576016D01*
X93000001Y-71661302D01*
X93000001Y-71975431D01*
X93000000Y-71975441D01*
X93000000Y-72109099D01*
X92840443Y-72194384D01*
X92665333Y-72338093D01*
X92521624Y-72513203D01*
X92414838Y-72712985D01*
X92349080Y-72929761D01*
X92326876Y-73155200D01*
X92349080Y-73380639D01*
X92414838Y-73597415D01*
X92521624Y-73797197D01*
X92665333Y-73972307D01*
X92840443Y-74116016D01*
X93000001Y-74201302D01*
X93000001Y-74775430D01*
X92997581Y-74800000D01*
X93007235Y-74898017D01*
X93035826Y-74992267D01*
X93082255Y-75079129D01*
X93144737Y-75155264D01*
X93163819Y-75170924D01*
X93800000Y-75807107D01*
X93800001Y-77943361D01*
X93685271Y-77990884D01*
X93496918Y-78116737D01*
X93336737Y-78276918D01*
X93210884Y-78465271D01*
X93124194Y-78674557D01*
X93080000Y-78896735D01*
X93080000Y-79123265D01*
X93124194Y-79345443D01*
X93210884Y-79554729D01*
X93336737Y-79743082D01*
X93496918Y-79903263D01*
X93574348Y-79955000D01*
X92345652Y-79955000D01*
X92423082Y-79903263D01*
X92583263Y-79743082D01*
X92709116Y-79554729D01*
X92795806Y-79345443D01*
X92840000Y-79123265D01*
X92840000Y-78896735D01*
X92795806Y-78674557D01*
X92709116Y-78465271D01*
X92583263Y-78276918D01*
X92423082Y-78116737D01*
X92234729Y-77990884D01*
X92025443Y-77904194D01*
X91803265Y-77860000D01*
X91576735Y-77860000D01*
X91354557Y-77904194D01*
X91145271Y-77990884D01*
X90956918Y-78116737D01*
X90796737Y-78276918D01*
X90670884Y-78465271D01*
X90584194Y-78674557D01*
X90540000Y-78896735D01*
X90540000Y-79123265D01*
X90584194Y-79345443D01*
X90670884Y-79554729D01*
X90796737Y-79743082D01*
X90956918Y-79903263D01*
X91034348Y-79955000D01*
X88302297Y-79955000D01*
X87856475Y-79911287D01*
X87442922Y-79786428D01*
X87398877Y-79763009D01*
X87675335Y-79818000D01*
X88084665Y-79818000D01*
X88486130Y-79738144D01*
X88864302Y-79581500D01*
X89204648Y-79354088D01*
X89494088Y-79064648D01*
X89721500Y-78724302D01*
X89878144Y-78346130D01*
X89958000Y-77944665D01*
X89958000Y-77535335D01*
X89878144Y-77133870D01*
X89721500Y-76755698D01*
X89494088Y-76415352D01*
X89204648Y-76125912D01*
X88864302Y-75898500D01*
X88486130Y-75741856D01*
X88084665Y-75662000D01*
X87675335Y-75662000D01*
X87273870Y-75741856D01*
X86895698Y-75898500D01*
X86555352Y-76125912D01*
X86265912Y-76415352D01*
X86071400Y-76706460D01*
X86071400Y-60993540D01*
X86265912Y-61284648D01*
X86555352Y-61574088D01*
X86895698Y-61801500D01*
X87273870Y-61958144D01*
X87675335Y-62038000D01*
X88084665Y-62038000D01*
X88486130Y-61958144D01*
X88864302Y-61801500D01*
X89204648Y-61574088D01*
X89494088Y-61284648D01*
X89721500Y-60944302D01*
X89878144Y-60566130D01*
X89958000Y-60164665D01*
X89958000Y-59755335D01*
X89878144Y-59353870D01*
X89721500Y-58975698D01*
X89494088Y-58635352D01*
X89204648Y-58345912D01*
X88864302Y-58118500D01*
X88486130Y-57961856D01*
X88084665Y-57882000D01*
X87675335Y-57882000D01*
X87394844Y-57937793D01*
X87428660Y-57919509D01*
X87841323Y-57791768D01*
X88286271Y-57745002D01*
X88286964Y-57745000D01*
X101194348Y-57745000D01*
X101116918Y-57796737D01*
X101116918Y-57796737D01*
G37*
X101116918Y-57796737D02*
X100956737Y-57956918D01*
X100830884Y-58145271D01*
X100744194Y-58354557D01*
X100700000Y-58576735D01*
X100700000Y-58803265D01*
X100744194Y-59025443D01*
X100830884Y-59234729D01*
X100956737Y-59423082D01*
X101116918Y-59583263D01*
X101305271Y-59709116D01*
X101514557Y-59795806D01*
X101736735Y-59840000D01*
X101963265Y-59840000D01*
X102185443Y-59795806D01*
X102394729Y-59709116D01*
X102583082Y-59583263D01*
X102743263Y-59423082D01*
X102869116Y-59234729D01*
X102955806Y-59025443D01*
X103000000Y-58803265D01*
X103000000Y-58576735D01*
X102955806Y-58354557D01*
X102869116Y-58145271D01*
X102743263Y-57956918D01*
X102583082Y-57796737D01*
X102505652Y-57745000D01*
X103734348Y-57745000D01*
X103656918Y-57796737D01*
X103496737Y-57956918D01*
X103370884Y-58145271D01*
X103284194Y-58354557D01*
X103240000Y-58576735D01*
X103240000Y-58803265D01*
X103284194Y-59025443D01*
X103370884Y-59234729D01*
X103496737Y-59423082D01*
X103656918Y-59583263D01*
X103845271Y-59709116D01*
X104054557Y-59795806D01*
X104276735Y-59840000D01*
X104503265Y-59840000D01*
X104725443Y-59795806D01*
X104934729Y-59709116D01*
X105123082Y-59583263D01*
X105283263Y-59423082D01*
X105409116Y-59234729D01*
X105495806Y-59025443D01*
X105540000Y-58803265D01*
X105540000Y-58576735D01*
X105495806Y-58354557D01*
X105409116Y-58145271D01*
X105283263Y-57956918D01*
X105123082Y-57796737D01*
X105045652Y-57745000D01*
X106274348Y-57745000D01*
X106196918Y-57796737D01*
X106036737Y-57956918D01*
X105910884Y-58145271D01*
X105824194Y-58354557D01*
X105780000Y-58576735D01*
X105780000Y-58803265D01*
X105824194Y-59025443D01*
X105910884Y-59234729D01*
X106036737Y-59423082D01*
X106196918Y-59583263D01*
X106385271Y-59709116D01*
X106594557Y-59795806D01*
X106816735Y-59840000D01*
X107043265Y-59840000D01*
X107265443Y-59795806D01*
X107474729Y-59709116D01*
X107663082Y-59583263D01*
X107823263Y-59423082D01*
X107949116Y-59234729D01*
X108035806Y-59025443D01*
X108080000Y-58803265D01*
X108080000Y-58576735D01*
X108035806Y-58354557D01*
X107949116Y-58145271D01*
X107823263Y-57956918D01*
X107663082Y-57796737D01*
X107585652Y-57745000D01*
X108814348Y-57745000D01*
X108736918Y-57796737D01*
X108576737Y-57956918D01*
X108450884Y-58145271D01*
X108364194Y-58354557D01*
X108320000Y-58576735D01*
X108320000Y-58803265D01*
X108364194Y-59025443D01*
X108450884Y-59234729D01*
X108576737Y-59423082D01*
X108736918Y-59583263D01*
X108925271Y-59709116D01*
X109134557Y-59795806D01*
X109356735Y-59840000D01*
X109583265Y-59840000D01*
X109805443Y-59795806D01*
X110014729Y-59709116D01*
X110203082Y-59583263D01*
X110363263Y-59423082D01*
X110489116Y-59234729D01*
X110575806Y-59025443D01*
X110620000Y-58803265D01*
X110620000Y-58576735D01*
X110575806Y-58354557D01*
X110489116Y-58145271D01*
X110363263Y-57956918D01*
X110203082Y-57796737D01*
X110125652Y-57745000D01*
X111354348Y-57745000D01*
X111276918Y-57796737D01*
X111116737Y-57956918D01*
X110990884Y-58145271D01*
X110904194Y-58354557D01*
X110860000Y-58576735D01*
X110860000Y-58803265D01*
X110904194Y-59025443D01*
X110990884Y-59234729D01*
X111116737Y-59423082D01*
X111276918Y-59583263D01*
X111465271Y-59709116D01*
X111674557Y-59795806D01*
X111896735Y-59840000D01*
X112123265Y-59840000D01*
X112345443Y-59795806D01*
X112521740Y-59722780D01*
X119675001Y-66876042D01*
X119675000Y-69774925D01*
X119560219Y-69673810D01*
X119363540Y-69559670D01*
X119148372Y-69486094D01*
X119068841Y-69470275D01*
X118887440Y-69532712D01*
X118887440Y-70610200D01*
X118907440Y-70610200D01*
X118907440Y-70620200D01*
X118887440Y-70620200D01*
X118887440Y-71697688D01*
X119068841Y-71760125D01*
X119148372Y-71744306D01*
X119363540Y-71670730D01*
X119560219Y-71556590D01*
X119675000Y-71455475D01*
X119675000Y-71811893D01*
X119672945Y-71832760D01*
X119675000Y-71853627D01*
X119675000Y-71853633D01*
X119681150Y-71916073D01*
X119705452Y-71996186D01*
X119744916Y-72070019D01*
X119798026Y-72134734D01*
X119814244Y-72148044D01*
X120363319Y-72697119D01*
X120354838Y-72712985D01*
X120289080Y-72929761D01*
X120266876Y-73155200D01*
X120289080Y-73380639D01*
X120354838Y-73597415D01*
X120461624Y-73797197D01*
X120605333Y-73972307D01*
X120780443Y-74116016D01*
X120980225Y-74222802D01*
X121197001Y-74288560D01*
X121365948Y-74305200D01*
X121478932Y-74305200D01*
X121647879Y-74288560D01*
X121864655Y-74222802D01*
X122064437Y-74116016D01*
X122239547Y-73972307D01*
X122383256Y-73797197D01*
X122490042Y-73597415D01*
X122555800Y-73380639D01*
X122578004Y-73155200D01*
X122555800Y-72929761D01*
X122490042Y-72712985D01*
X122383256Y-72513203D01*
X122239547Y-72338093D01*
X122064437Y-72194384D01*
X121864655Y-72087598D01*
X121647879Y-72021840D01*
X121478932Y-72005200D01*
X121365948Y-72005200D01*
X121197001Y-72021840D01*
X120980225Y-72087598D01*
X120964359Y-72096079D01*
X120525000Y-71656720D01*
X120525000Y-71334421D01*
X120605333Y-71432307D01*
X120780443Y-71576016D01*
X120980225Y-71682802D01*
X121197001Y-71748560D01*
X121365948Y-71765200D01*
X121478932Y-71765200D01*
X121647879Y-71748560D01*
X121864655Y-71682802D01*
X122064437Y-71576016D01*
X122239547Y-71432307D01*
X122275000Y-71389107D01*
X122275000Y-71871893D01*
X122272945Y-71892760D01*
X122275000Y-71913627D01*
X122275000Y-71913633D01*
X122279180Y-71956073D01*
X122281150Y-71976074D01*
X122288408Y-72000000D01*
X122305452Y-72056186D01*
X122344916Y-72130019D01*
X122398026Y-72194734D01*
X122414243Y-72208043D01*
X122903319Y-72697119D01*
X122894838Y-72712985D01*
X122829080Y-72929761D01*
X122806876Y-73155200D01*
X122829080Y-73380639D01*
X122894838Y-73597415D01*
X123001624Y-73797197D01*
X123145333Y-73972307D01*
X123320443Y-74116016D01*
X123520225Y-74222802D01*
X123737001Y-74288560D01*
X123905948Y-74305200D01*
X124018932Y-74305200D01*
X124187879Y-74288560D01*
X124404655Y-74222802D01*
X124604437Y-74116016D01*
X124779547Y-73972307D01*
X124923256Y-73797197D01*
X125030042Y-73597415D01*
X125095800Y-73380639D01*
X125118004Y-73155200D01*
X125095800Y-72929761D01*
X125030042Y-72712985D01*
X124923256Y-72513203D01*
X124779547Y-72338093D01*
X124604437Y-72194384D01*
X124404655Y-72087598D01*
X124187879Y-72021840D01*
X124018932Y-72005200D01*
X123905948Y-72005200D01*
X123737001Y-72021840D01*
X123520225Y-72087598D01*
X123504359Y-72096079D01*
X123125000Y-71716720D01*
X123125000Y-71407531D01*
X123145333Y-71432307D01*
X123320443Y-71576016D01*
X123520225Y-71682802D01*
X123737001Y-71748560D01*
X123905948Y-71765200D01*
X124018932Y-71765200D01*
X124187879Y-71748560D01*
X124404655Y-71682802D01*
X124604437Y-71576016D01*
X124775000Y-71436039D01*
X124775000Y-71831893D01*
X124772945Y-71852760D01*
X124775000Y-71873627D01*
X124775000Y-71873633D01*
X124781150Y-71936073D01*
X124805452Y-72016186D01*
X124844916Y-72090019D01*
X124898026Y-72154734D01*
X124914243Y-72168043D01*
X125443319Y-72697119D01*
X125434838Y-72712985D01*
X125369080Y-72929761D01*
X125346876Y-73155200D01*
X125369080Y-73380639D01*
X125434838Y-73597415D01*
X125541624Y-73797197D01*
X125685333Y-73972307D01*
X125860443Y-74116016D01*
X126060225Y-74222802D01*
X126277001Y-74288560D01*
X126445948Y-74305200D01*
X126558932Y-74305200D01*
X126727879Y-74288560D01*
X126944655Y-74222802D01*
X127144437Y-74116016D01*
X127319547Y-73972307D01*
X127463256Y-73797197D01*
X127570042Y-73597415D01*
X127635800Y-73380639D01*
X127658004Y-73155200D01*
X127635800Y-72929761D01*
X127570042Y-72712985D01*
X127463256Y-72513203D01*
X127319547Y-72338093D01*
X127144437Y-72194384D01*
X126944655Y-72087598D01*
X126727879Y-72021840D01*
X126558932Y-72005200D01*
X126445948Y-72005200D01*
X126277001Y-72021840D01*
X126060225Y-72087598D01*
X126044359Y-72096079D01*
X125625000Y-71676720D01*
X125625000Y-71358791D01*
X125685333Y-71432307D01*
X125860443Y-71576016D01*
X126060225Y-71682802D01*
X126277001Y-71748560D01*
X126445948Y-71765200D01*
X126558932Y-71765200D01*
X126727879Y-71748560D01*
X126944655Y-71682802D01*
X127144437Y-71576016D01*
X127319547Y-71432307D01*
X127375001Y-71364736D01*
X127375001Y-71979123D01*
X127372945Y-72000000D01*
X127381150Y-72083314D01*
X127401386Y-72150019D01*
X127405453Y-72163427D01*
X127444917Y-72237260D01*
X127498027Y-72301974D01*
X127514239Y-72315279D01*
X127960200Y-72761240D01*
X127909080Y-72929761D01*
X127886876Y-73155200D01*
X127909080Y-73380639D01*
X127974838Y-73597415D01*
X128081624Y-73797197D01*
X128225333Y-73972307D01*
X128400443Y-74116016D01*
X128600225Y-74222802D01*
X128817001Y-74288560D01*
X128985948Y-74305200D01*
X129098932Y-74305200D01*
X129267879Y-74288560D01*
X129484655Y-74222802D01*
X129684437Y-74116016D01*
X129859547Y-73972307D01*
X130003256Y-73797197D01*
X130110042Y-73597415D01*
X130175800Y-73380639D01*
X130198004Y-73155200D01*
X130175800Y-72929761D01*
X130110042Y-72712985D01*
X130003256Y-72513203D01*
X129859547Y-72338093D01*
X129684437Y-72194384D01*
X129484655Y-72087598D01*
X129267879Y-72021840D01*
X129098932Y-72005200D01*
X128985948Y-72005200D01*
X128817001Y-72021840D01*
X128600225Y-72087598D01*
X128527507Y-72126467D01*
X128225000Y-71823960D01*
X128225000Y-71766651D01*
X129892440Y-71766651D01*
X129951250Y-71760859D01*
X130007800Y-71743704D01*
X130059917Y-71715847D01*
X130105598Y-71678358D01*
X130143087Y-71632677D01*
X130170944Y-71580560D01*
X130188099Y-71524010D01*
X130193891Y-71465200D01*
X130193891Y-69765200D01*
X130188099Y-69706390D01*
X130170944Y-69649840D01*
X130143087Y-69597723D01*
X130105598Y-69552042D01*
X130059917Y-69514553D01*
X130007800Y-69486696D01*
X129951250Y-69469541D01*
X129892440Y-69463749D01*
X129467440Y-69463749D01*
X129467440Y-61033600D01*
X130185763Y-60315278D01*
X130201974Y-60301974D01*
X130217003Y-60283662D01*
X130227832Y-60270466D01*
X130255084Y-60237260D01*
X130294548Y-60163427D01*
X130317736Y-60086986D01*
X130318850Y-60083315D01*
X130319871Y-60072944D01*
X130325000Y-60020874D01*
X130325000Y-60020867D01*
X130327055Y-60000000D01*
X130325000Y-59979133D01*
X130325000Y-59713146D01*
X130334729Y-59709116D01*
X130523082Y-59583263D01*
X130683263Y-59423082D01*
X130809116Y-59234729D01*
X130895806Y-59025443D01*
X130940000Y-58803265D01*
X130940000Y-58576735D01*
X130895806Y-58354557D01*
X130809116Y-58145271D01*
X130683263Y-57956918D01*
X130523082Y-57796737D01*
X130445652Y-57745000D01*
X133177703Y-57745000D01*
X133623526Y-57788713D01*
X134037078Y-57913572D01*
X134081122Y-57936991D01*
X133804665Y-57882000D01*
X133395335Y-57882000D01*
X132993870Y-57961856D01*
X132615698Y-58118500D01*
X132275352Y-58345912D01*
X131985912Y-58635352D01*
X131758500Y-58975698D01*
X131601856Y-59353870D01*
X131522000Y-59755335D01*
X131522000Y-60164665D01*
X131601856Y-60566130D01*
X131758500Y-60944302D01*
X131985912Y-61284648D01*
X132275352Y-61574088D01*
X132615698Y-61801500D01*
X132993870Y-61958144D01*
X133395335Y-62038000D01*
X133804665Y-62038000D01*
X134206130Y-61958144D01*
X134584302Y-61801500D01*
X134924648Y-61574088D01*
X135214088Y-61284648D01*
X135408573Y-60993580D01*
X135408161Y-76705802D01*
X135214088Y-76415352D01*
X134924648Y-76125912D01*
X134584302Y-75898500D01*
X134206130Y-75741856D01*
X133804665Y-75662000D01*
X133395335Y-75662000D01*
X132993870Y-75741856D01*
X132615698Y-75898500D01*
X132275352Y-76125912D01*
X131985912Y-76415352D01*
X131758500Y-76755698D01*
X131601856Y-77133870D01*
X131522000Y-77535335D01*
X131522000Y-77944665D01*
X131601856Y-78346130D01*
X131758500Y-78724302D01*
X131985912Y-79064648D01*
X132275352Y-79354088D01*
X132615698Y-79581500D01*
X132993870Y-79738144D01*
X133395335Y-79818000D01*
X133804665Y-79818000D01*
X134074505Y-79764326D01*
X134012009Y-79796582D01*
X133596007Y-79916655D01*
X133178696Y-79955000D01*
X130471534Y-79955000D01*
X130555869Y-79782940D01*
X129790000Y-79017071D01*
X129024131Y-79782940D01*
X129108466Y-79955000D01*
X127905652Y-79955000D01*
X127983082Y-79903263D01*
X128143263Y-79743082D01*
X128269116Y-79554729D01*
X128355806Y-79345443D01*
X128400000Y-79123265D01*
X128400000Y-78969235D01*
X128625101Y-78969235D01*
X128639532Y-79197279D01*
X128698174Y-79418126D01*
X128798774Y-79623289D01*
X128844069Y-79691078D01*
X129017060Y-79775869D01*
X129782929Y-79010000D01*
X129797071Y-79010000D01*
X130562940Y-79775869D01*
X130735931Y-79691078D01*
X130850627Y-79493450D01*
X130924563Y-79277242D01*
X130954899Y-79050765D01*
X130940468Y-78822721D01*
X130881826Y-78601874D01*
X130781226Y-78396711D01*
X130735931Y-78328922D01*
X130562940Y-78244131D01*
X129797071Y-79010000D01*
X129782929Y-79010000D01*
X129017060Y-78244131D01*
X128844069Y-78328922D01*
X128729373Y-78526550D01*
X128655437Y-78742758D01*
X128625101Y-78969235D01*
X128400000Y-78969235D01*
X128400000Y-78896735D01*
X128355806Y-78674557D01*
X128269116Y-78465271D01*
X128143263Y-78276918D01*
X128103405Y-78237060D01*
X129024131Y-78237060D01*
X129790000Y-79002929D01*
X130555869Y-78237060D01*
X130471078Y-78064069D01*
X130273450Y-77949373D01*
X130057242Y-77875437D01*
X129830765Y-77845101D01*
X129602721Y-77859532D01*
X129381874Y-77918174D01*
X129176711Y-78018774D01*
X129108922Y-78064069D01*
X129024131Y-78237060D01*
X128103405Y-78237060D01*
X127983082Y-78116737D01*
X127794729Y-77990884D01*
X127585443Y-77904194D01*
X127363265Y-77860000D01*
X127136735Y-77860000D01*
X126914557Y-77904194D01*
X126705271Y-77990884D01*
X126516918Y-78116737D01*
X126356737Y-78276918D01*
X126230884Y-78465271D01*
X126144194Y-78674557D01*
X126100000Y-78896735D01*
X126100000Y-79123265D01*
X126144194Y-79345443D01*
X126230884Y-79554729D01*
X126356737Y-79743082D01*
X126516918Y-79903263D01*
X126594348Y-79955000D01*
X125365652Y-79955000D01*
X125443082Y-79903263D01*
X125603263Y-79743082D01*
X125729116Y-79554729D01*
X125815806Y-79345443D01*
X125860000Y-79123265D01*
X125860000Y-78896735D01*
X125815806Y-78674557D01*
X125729116Y-78465271D01*
X125603263Y-78276918D01*
X125443082Y-78116737D01*
X125254729Y-77990884D01*
X125045443Y-77904194D01*
X124823265Y-77860000D01*
X124596735Y-77860000D01*
X124374557Y-77904194D01*
X124165271Y-77990884D01*
X123976918Y-78116737D01*
X123816737Y-78276918D01*
X123690884Y-78465271D01*
X123604194Y-78674557D01*
X123560000Y-78896735D01*
X123560000Y-79123265D01*
X123604194Y-79345443D01*
X123690884Y-79554729D01*
X123816737Y-79743082D01*
X123976918Y-79903263D01*
X124054348Y-79955000D01*
X122825652Y-79955000D01*
X122903082Y-79903263D01*
X123063263Y-79743082D01*
X123189116Y-79554729D01*
X123275806Y-79345443D01*
X123320000Y-79123265D01*
X123320000Y-78896735D01*
X123275806Y-78674557D01*
X123189116Y-78465271D01*
X123063263Y-78276918D01*
X122903082Y-78116737D01*
X122714729Y-77990884D01*
X122505443Y-77904194D01*
X122283265Y-77860000D01*
X122056735Y-77860000D01*
X121834557Y-77904194D01*
X121625271Y-77990884D01*
X121436918Y-78116737D01*
X121276737Y-78276918D01*
X121150884Y-78465271D01*
X121064194Y-78674557D01*
X121020000Y-78896735D01*
X121020000Y-79123265D01*
X121064194Y-79345443D01*
X121150884Y-79554729D01*
X121276737Y-79743082D01*
X121436918Y-79903263D01*
X121514348Y-79955000D01*
X120285652Y-79955000D01*
X120363082Y-79903263D01*
X120523263Y-79743082D01*
X120649116Y-79554729D01*
X120735806Y-79345443D01*
X120780000Y-79123265D01*
X120780000Y-78896735D01*
X120735806Y-78674557D01*
X120649116Y-78465271D01*
X120523263Y-78276918D01*
X120363082Y-78116737D01*
X120174729Y-77990884D01*
X119965443Y-77904194D01*
X119743265Y-77860000D01*
X119516735Y-77860000D01*
X119294557Y-77904194D01*
X119160686Y-77959646D01*
X116515283Y-75314243D01*
X116501974Y-75298026D01*
X116437260Y-75244916D01*
X116363427Y-75205452D01*
X116283314Y-75181150D01*
X116220874Y-75175000D01*
X116220867Y-75175000D01*
X116200000Y-75172945D01*
X116179133Y-75175000D01*
X111376041Y-75175000D01*
X107333891Y-71132851D01*
X107333891Y-69765200D01*
X107328099Y-69706390D01*
X107310944Y-69649840D01*
X107283087Y-69597723D01*
X107245598Y-69552042D01*
X107199917Y-69514553D01*
X107147800Y-69486696D01*
X107091250Y-69469541D01*
X107032440Y-69463749D01*
X105332440Y-69463749D01*
X105273630Y-69469541D01*
X105217080Y-69486696D01*
X105164963Y-69514553D01*
X105119282Y-69552042D01*
X105081793Y-69597723D01*
X105053936Y-69649840D01*
X105036781Y-69706390D01*
X105030989Y-69765200D01*
X105030989Y-71402708D01*
X104701561Y-71073281D01*
X104710042Y-71057415D01*
X104775800Y-70840639D01*
X104798004Y-70615200D01*
X104775800Y-70389761D01*
X104710042Y-70172985D01*
X104603256Y-69973203D01*
X104459547Y-69798093D01*
X104284437Y-69654384D01*
X104084655Y-69547598D01*
X103867879Y-69481840D01*
X103698932Y-69465200D01*
X103585948Y-69465200D01*
X103417001Y-69481840D01*
X103200225Y-69547598D01*
X103000443Y-69654384D01*
X102825333Y-69798093D01*
X102681624Y-69973203D01*
X102574838Y-70172985D01*
X102509080Y-70389761D01*
X102486876Y-70615200D01*
X102509080Y-70840639D01*
X102574838Y-71057415D01*
X102681624Y-71257197D01*
X102825333Y-71432307D01*
X103000443Y-71576016D01*
X103200225Y-71682802D01*
X103417001Y-71748560D01*
X103585948Y-71765200D01*
X103698932Y-71765200D01*
X103867879Y-71748560D01*
X104084655Y-71682802D01*
X104100521Y-71674321D01*
X104475000Y-72048801D01*
X104475000Y-72356923D01*
X104459547Y-72338093D01*
X104284437Y-72194384D01*
X104084655Y-72087598D01*
X103867879Y-72021840D01*
X103698932Y-72005200D01*
X103585948Y-72005200D01*
X103417001Y-72021840D01*
X103200225Y-72087598D01*
X103000443Y-72194384D01*
X102825333Y-72338093D01*
X102825000Y-72338499D01*
X102825000Y-71933627D01*
X102827055Y-71912760D01*
X102825000Y-71891893D01*
X102825000Y-71891886D01*
X102818850Y-71829446D01*
X102794548Y-71749333D01*
X102755084Y-71675500D01*
X102701974Y-71610786D01*
X102685763Y-71597482D01*
X102161561Y-71073281D01*
X102170042Y-71057415D01*
X102235800Y-70840639D01*
X102258004Y-70615200D01*
X102235800Y-70389761D01*
X102170042Y-70172985D01*
X102063256Y-69973203D01*
X101919547Y-69798093D01*
X101744437Y-69654384D01*
X101544655Y-69547598D01*
X101327879Y-69481840D01*
X101158932Y-69465200D01*
X101045948Y-69465200D01*
X100877001Y-69481840D01*
X100660225Y-69547598D01*
X100460443Y-69654384D01*
X100285333Y-69798093D01*
X100141624Y-69973203D01*
X100034838Y-70172985D01*
X99969080Y-70389761D01*
X99946876Y-70615200D01*
X99969080Y-70840639D01*
X100034838Y-71057415D01*
X100141624Y-71257197D01*
X100285333Y-71432307D01*
X100460443Y-71576016D01*
X100660225Y-71682802D01*
X100877001Y-71748560D01*
X101045948Y-71765200D01*
X101158932Y-71765200D01*
X101327879Y-71748560D01*
X101544655Y-71682802D01*
X101560521Y-71674321D01*
X101975000Y-72088801D01*
X101975000Y-72405663D01*
X101919547Y-72338093D01*
X101744437Y-72194384D01*
X101544655Y-72087598D01*
X101327879Y-72021840D01*
X101158932Y-72005200D01*
X101045948Y-72005200D01*
X100877001Y-72021840D01*
X100660225Y-72087598D01*
X100460443Y-72194384D01*
X100285333Y-72338093D01*
X100225000Y-72411609D01*
X100225000Y-71873626D01*
X100227055Y-71852759D01*
X100225000Y-71831892D01*
X100225000Y-71831886D01*
X100218850Y-71769446D01*
X100212749Y-71749332D01*
X100200615Y-71709334D01*
X100194548Y-71689333D01*
X100155084Y-71615500D01*
X100101974Y-71550786D01*
X100085761Y-71537480D01*
X99621561Y-71073281D01*
X99630042Y-71057415D01*
X99695800Y-70840639D01*
X99718004Y-70615200D01*
X99695800Y-70389761D01*
X99630042Y-70172985D01*
X99523256Y-69973203D01*
X99379547Y-69798093D01*
X99204437Y-69654384D01*
X99004655Y-69547598D01*
X98787879Y-69481840D01*
X98618932Y-69465200D01*
X98505948Y-69465200D01*
X98337001Y-69481840D01*
X98120225Y-69547598D01*
X97920443Y-69654384D01*
X97745333Y-69798093D01*
X97601624Y-69973203D01*
X97494838Y-70172985D01*
X97429080Y-70389761D01*
X97406876Y-70615200D01*
X97429080Y-70840639D01*
X97494838Y-71057415D01*
X97601624Y-71257197D01*
X97745333Y-71432307D01*
X97920443Y-71576016D01*
X98120225Y-71682802D01*
X98337001Y-71748560D01*
X98505948Y-71765200D01*
X98618932Y-71765200D01*
X98787879Y-71748560D01*
X99004655Y-71682802D01*
X99020521Y-71674321D01*
X99375000Y-72028801D01*
X99375000Y-72334362D01*
X99204437Y-72194384D01*
X99004655Y-72087598D01*
X98787879Y-72021840D01*
X98618932Y-72005200D01*
X98505948Y-72005200D01*
X98337001Y-72021840D01*
X98120225Y-72087598D01*
X97920443Y-72194384D01*
X97745333Y-72338093D01*
X97601624Y-72513203D01*
X97494838Y-72712985D01*
X97429080Y-72929761D01*
X97406876Y-73155200D01*
X97429080Y-73380639D01*
X97494838Y-73597415D01*
X97601624Y-73797197D01*
X97745333Y-73972307D01*
X97920443Y-74116016D01*
X98120225Y-74222802D01*
X98137441Y-74228024D01*
X98137441Y-74336405D01*
X98135385Y-74357281D01*
X98143590Y-74440595D01*
X98159957Y-74494548D01*
X98167893Y-74520708D01*
X98207357Y-74594541D01*
X98260467Y-74659255D01*
X98276679Y-74672560D01*
X101475000Y-77870881D01*
X101475000Y-77920579D01*
X101305271Y-77990884D01*
X101116918Y-78116737D01*
X100956737Y-78276918D01*
X100830884Y-78465271D01*
X100744194Y-78674557D01*
X100700000Y-78896735D01*
X100700000Y-79123265D01*
X100744194Y-79345443D01*
X100830884Y-79554729D01*
X100956737Y-79743082D01*
X101116918Y-79903263D01*
X101194348Y-79955000D01*
X99991534Y-79955000D01*
X100075869Y-79782940D01*
X99310000Y-79017071D01*
X98544131Y-79782940D01*
X98628466Y-79955000D01*
X97425652Y-79955000D01*
X97503082Y-79903263D01*
X97663263Y-79743082D01*
X97789116Y-79554729D01*
X97875806Y-79345443D01*
X97920000Y-79123265D01*
X97920000Y-78969235D01*
X98145101Y-78969235D01*
X98159532Y-79197279D01*
X98218174Y-79418126D01*
X98318774Y-79623289D01*
X98364069Y-79691078D01*
X98537060Y-79775869D01*
X99302929Y-79010000D01*
X99317071Y-79010000D01*
X100082940Y-79775869D01*
X100255931Y-79691078D01*
X100370627Y-79493450D01*
X100444563Y-79277242D01*
X100474899Y-79050765D01*
X100460468Y-78822721D01*
X100401826Y-78601874D01*
X100301226Y-78396711D01*
X100255931Y-78328922D01*
X100082940Y-78244131D01*
X99317071Y-79010000D01*
X99302929Y-79010000D01*
X98537060Y-78244131D01*
X98364069Y-78328922D01*
X98249373Y-78526550D01*
X98175437Y-78742758D01*
X98145101Y-78969235D01*
X97920000Y-78969235D01*
X97920000Y-78896735D01*
X97875806Y-78674557D01*
X97789116Y-78465271D01*
X97663263Y-78276918D01*
X97623405Y-78237060D01*
X98544131Y-78237060D01*
X99310000Y-79002929D01*
X100075869Y-78237060D01*
X99991078Y-78064069D01*
X99793450Y-77949373D01*
X99577242Y-77875437D01*
X99350765Y-77845101D01*
X99122721Y-77859532D01*
X98901874Y-77918174D01*
X98696711Y-78018774D01*
X98628922Y-78064069D01*
X98544131Y-78237060D01*
X97623405Y-78237060D01*
X97503082Y-78116737D01*
X97314729Y-77990884D01*
X97105443Y-77904194D01*
X96883265Y-77860000D01*
X96656735Y-77860000D01*
X96434557Y-77904194D01*
X96225271Y-77990884D01*
X96036918Y-78116737D01*
X95876737Y-78276918D01*
X95750884Y-78465271D01*
X95664194Y-78674557D01*
X95620000Y-78896735D01*
X95620000Y-79123265D01*
X95664194Y-79345443D01*
X95750884Y-79554729D01*
X95876737Y-79743082D01*
X96036918Y-79903263D01*
X96114348Y-79955000D01*
X94885652Y-79955000D01*
X94963082Y-79903263D01*
X95123263Y-79743082D01*
X95249116Y-79554729D01*
X95335806Y-79345443D01*
X95380000Y-79123265D01*
X95380000Y-78896735D01*
X95335806Y-78674557D01*
X95249116Y-78465271D01*
X95123263Y-78276918D01*
X94963082Y-78116737D01*
X94800000Y-78007769D01*
X94800000Y-75624560D01*
X94802419Y-75600000D01*
X94792765Y-75501983D01*
X94772923Y-75436572D01*
X94764175Y-75407733D01*
X94717746Y-75320871D01*
X94655264Y-75244736D01*
X94636187Y-75229080D01*
X94000000Y-74592895D01*
X94000000Y-74182529D01*
X94124437Y-74116016D01*
X94299547Y-73972307D01*
X94443256Y-73797197D01*
X94550042Y-73597415D01*
X94615800Y-73380639D01*
X94619644Y-73341601D01*
X94877515Y-73341601D01*
X94935879Y-73561383D01*
X95035999Y-73765556D01*
X95174028Y-73946273D01*
X95344661Y-74096590D01*
X95541340Y-74210730D01*
X95756508Y-74284306D01*
X95836039Y-74300125D01*
X96017440Y-74237688D01*
X96017440Y-73160200D01*
X96027440Y-73160200D01*
X96027440Y-74237688D01*
X96208841Y-74300125D01*
X96288372Y-74284306D01*
X96503540Y-74210730D01*
X96700219Y-74096590D01*
X96870852Y-73946273D01*
X97008881Y-73765556D01*
X97109001Y-73561383D01*
X97167365Y-73341601D01*
X97104929Y-73160200D01*
X96027440Y-73160200D01*
X96017440Y-73160200D01*
X94939951Y-73160200D01*
X94877515Y-73341601D01*
X94619644Y-73341601D01*
X94638004Y-73155200D01*
X94619645Y-72968799D01*
X94877515Y-72968799D01*
X94939951Y-73150200D01*
X96017440Y-73150200D01*
X96017440Y-72072712D01*
X96027440Y-72072712D01*
X96027440Y-73150200D01*
X97104929Y-73150200D01*
X97167365Y-72968799D01*
X97109001Y-72749017D01*
X97008881Y-72544844D01*
X96870852Y-72364127D01*
X96700219Y-72213810D01*
X96503540Y-72099670D01*
X96288372Y-72026094D01*
X96208841Y-72010275D01*
X96027440Y-72072712D01*
X96017440Y-72072712D01*
X95836039Y-72010275D01*
X95756508Y-72026094D01*
X95541340Y-72099670D01*
X95344661Y-72213810D01*
X95174028Y-72364127D01*
X95035999Y-72544844D01*
X94935879Y-72749017D01*
X94877515Y-72968799D01*
X94619645Y-72968799D01*
X94615800Y-72929761D01*
X94550042Y-72712985D01*
X94443256Y-72513203D01*
X94299547Y-72338093D01*
X94124437Y-72194384D01*
X94000000Y-72127871D01*
X94000000Y-71642529D01*
X94124437Y-71576016D01*
X94299547Y-71432307D01*
X94443256Y-71257197D01*
X94550042Y-71057415D01*
X94615800Y-70840639D01*
X94619644Y-70801601D01*
X94877515Y-70801601D01*
X94935879Y-71021383D01*
X95035999Y-71225556D01*
X95174028Y-71406273D01*
X95344661Y-71556590D01*
X95541340Y-71670730D01*
X95756508Y-71744306D01*
X95836039Y-71760125D01*
X96017440Y-71697688D01*
X96017440Y-70620200D01*
X96027440Y-70620200D01*
X96027440Y-71697688D01*
X96208841Y-71760125D01*
X96288372Y-71744306D01*
X96503540Y-71670730D01*
X96700219Y-71556590D01*
X96870852Y-71406273D01*
X97008881Y-71225556D01*
X97109001Y-71021383D01*
X97167365Y-70801601D01*
X97104929Y-70620200D01*
X96027440Y-70620200D01*
X96017440Y-70620200D01*
X94939951Y-70620200D01*
X94877515Y-70801601D01*
X94619644Y-70801601D01*
X94638004Y-70615200D01*
X94619645Y-70428799D01*
X94877515Y-70428799D01*
X94939951Y-70610200D01*
X96017440Y-70610200D01*
X96017440Y-69532712D01*
X96027440Y-69532712D01*
X96027440Y-70610200D01*
X97104929Y-70610200D01*
X97167365Y-70428799D01*
X97109001Y-70209017D01*
X97008881Y-70004844D01*
X96870852Y-69824127D01*
X96700219Y-69673810D01*
X96503540Y-69559670D01*
X96288372Y-69486094D01*
X96208841Y-69470275D01*
X96027440Y-69532712D01*
X96017440Y-69532712D01*
X95836039Y-69470275D01*
X95756508Y-69486094D01*
X95541340Y-69559670D01*
X95344661Y-69673810D01*
X95174028Y-69824127D01*
X95035999Y-70004844D01*
X94935879Y-70209017D01*
X94877515Y-70428799D01*
X94619645Y-70428799D01*
X94615800Y-70389761D01*
X94550042Y-70172985D01*
X94544496Y-70162609D01*
X95307106Y-69400000D01*
X114292895Y-69400000D01*
X115226204Y-70333310D01*
X115209080Y-70389761D01*
X115186876Y-70615200D01*
X115209080Y-70840639D01*
X115274838Y-71057415D01*
X115381624Y-71257197D01*
X115525333Y-71432307D01*
X115700443Y-71576016D01*
X115800000Y-71629231D01*
X115800001Y-72141169D01*
X115700443Y-72194384D01*
X115525333Y-72338093D01*
X115381624Y-72513203D01*
X115274838Y-72712985D01*
X115209080Y-72929761D01*
X115186876Y-73155200D01*
X115209080Y-73380639D01*
X115274838Y-73597415D01*
X115381624Y-73797197D01*
X115525333Y-73972307D01*
X115700443Y-74116016D01*
X115900225Y-74222802D01*
X116117001Y-74288560D01*
X116285948Y-74305200D01*
X116398932Y-74305200D01*
X116567879Y-74288560D01*
X116784655Y-74222802D01*
X116984437Y-74116016D01*
X117159547Y-73972307D01*
X117303256Y-73797197D01*
X117410042Y-73597415D01*
X117475800Y-73380639D01*
X117479644Y-73341601D01*
X117737515Y-73341601D01*
X117795879Y-73561383D01*
X117895999Y-73765556D01*
X118034028Y-73946273D01*
X118204661Y-74096590D01*
X118401340Y-74210730D01*
X118616508Y-74284306D01*
X118696039Y-74300125D01*
X118877440Y-74237688D01*
X118877440Y-73160200D01*
X118887440Y-73160200D01*
X118887440Y-74237688D01*
X119068841Y-74300125D01*
X119148372Y-74284306D01*
X119363540Y-74210730D01*
X119560219Y-74096590D01*
X119730852Y-73946273D01*
X119868881Y-73765556D01*
X119969001Y-73561383D01*
X120027365Y-73341601D01*
X119964929Y-73160200D01*
X118887440Y-73160200D01*
X118877440Y-73160200D01*
X117799951Y-73160200D01*
X117737515Y-73341601D01*
X117479644Y-73341601D01*
X117498004Y-73155200D01*
X117479645Y-72968799D01*
X117737515Y-72968799D01*
X117799951Y-73150200D01*
X118877440Y-73150200D01*
X118877440Y-72072712D01*
X118887440Y-72072712D01*
X118887440Y-73150200D01*
X119964929Y-73150200D01*
X120027365Y-72968799D01*
X119969001Y-72749017D01*
X119868881Y-72544844D01*
X119730852Y-72364127D01*
X119560219Y-72213810D01*
X119363540Y-72099670D01*
X119148372Y-72026094D01*
X119068841Y-72010275D01*
X118887440Y-72072712D01*
X118877440Y-72072712D01*
X118696039Y-72010275D01*
X118616508Y-72026094D01*
X118401340Y-72099670D01*
X118204661Y-72213810D01*
X118034028Y-72364127D01*
X117895999Y-72544844D01*
X117795879Y-72749017D01*
X117737515Y-72968799D01*
X117479645Y-72968799D01*
X117475800Y-72929761D01*
X117410042Y-72712985D01*
X117303256Y-72513203D01*
X117159547Y-72338093D01*
X116984437Y-72194384D01*
X116800000Y-72095800D01*
X116800000Y-71674600D01*
X116984437Y-71576016D01*
X117159547Y-71432307D01*
X117303256Y-71257197D01*
X117410042Y-71057415D01*
X117475800Y-70840639D01*
X117479644Y-70801601D01*
X117737515Y-70801601D01*
X117795879Y-71021383D01*
X117895999Y-71225556D01*
X118034028Y-71406273D01*
X118204661Y-71556590D01*
X118401340Y-71670730D01*
X118616508Y-71744306D01*
X118696039Y-71760125D01*
X118877440Y-71697688D01*
X118877440Y-70620200D01*
X117799951Y-70620200D01*
X117737515Y-70801601D01*
X117479644Y-70801601D01*
X117498004Y-70615200D01*
X117479645Y-70428799D01*
X117737515Y-70428799D01*
X117799951Y-70610200D01*
X118877440Y-70610200D01*
X118877440Y-69532712D01*
X118696039Y-69470275D01*
X118616508Y-69486094D01*
X118401340Y-69559670D01*
X118204661Y-69673810D01*
X118034028Y-69824127D01*
X117895999Y-70004844D01*
X117795879Y-70209017D01*
X117737515Y-70428799D01*
X117479645Y-70428799D01*
X117475800Y-70389761D01*
X117410042Y-70172985D01*
X117303256Y-69973203D01*
X117159547Y-69798093D01*
X116984437Y-69654384D01*
X116784655Y-69547598D01*
X116567879Y-69481840D01*
X116398932Y-69465200D01*
X116285948Y-69465200D01*
X116117001Y-69481840D01*
X115900225Y-69547598D01*
X115870560Y-69563454D01*
X114870929Y-68563824D01*
X114855264Y-68544736D01*
X114779129Y-68482254D01*
X114692267Y-68435825D01*
X114598017Y-68407235D01*
X114524560Y-68400000D01*
X114500000Y-68397581D01*
X114475440Y-68400000D01*
X95124557Y-68400000D01*
X95099999Y-68397581D01*
X95075441Y-68400000D01*
X95075440Y-68400000D01*
X95001983Y-68407235D01*
X94907733Y-68435825D01*
X94820871Y-68482254D01*
X94744736Y-68544736D01*
X94729075Y-68563819D01*
X93787041Y-69505853D01*
X93707879Y-69481840D01*
X93538932Y-69465200D01*
X93425948Y-69465200D01*
X93257001Y-69481840D01*
X93040225Y-69547598D01*
X92840443Y-69654384D01*
X92665333Y-69798093D01*
X92521624Y-69973203D01*
X92414838Y-70172985D01*
X92349080Y-70389761D01*
X92326876Y-70615200D01*
X92349080Y-70840639D01*
X92414838Y-71057415D01*
X92521624Y-71257197D01*
X92665333Y-71432307D01*
X92840443Y-71576016D01*
X93000001Y-71661302D01*
X93000001Y-71975431D01*
X93000000Y-71975441D01*
X93000000Y-72109099D01*
X92840443Y-72194384D01*
X92665333Y-72338093D01*
X92521624Y-72513203D01*
X92414838Y-72712985D01*
X92349080Y-72929761D01*
X92326876Y-73155200D01*
X92349080Y-73380639D01*
X92414838Y-73597415D01*
X92521624Y-73797197D01*
X92665333Y-73972307D01*
X92840443Y-74116016D01*
X93000001Y-74201302D01*
X93000001Y-74775430D01*
X92997581Y-74800000D01*
X93007235Y-74898017D01*
X93035826Y-74992267D01*
X93082255Y-75079129D01*
X93144737Y-75155264D01*
X93163819Y-75170924D01*
X93800000Y-75807107D01*
X93800001Y-77943361D01*
X93685271Y-77990884D01*
X93496918Y-78116737D01*
X93336737Y-78276918D01*
X93210884Y-78465271D01*
X93124194Y-78674557D01*
X93080000Y-78896735D01*
X93080000Y-79123265D01*
X93124194Y-79345443D01*
X93210884Y-79554729D01*
X93336737Y-79743082D01*
X93496918Y-79903263D01*
X93574348Y-79955000D01*
X92345652Y-79955000D01*
X92423082Y-79903263D01*
X92583263Y-79743082D01*
X92709116Y-79554729D01*
X92795806Y-79345443D01*
X92840000Y-79123265D01*
X92840000Y-78896735D01*
X92795806Y-78674557D01*
X92709116Y-78465271D01*
X92583263Y-78276918D01*
X92423082Y-78116737D01*
X92234729Y-77990884D01*
X92025443Y-77904194D01*
X91803265Y-77860000D01*
X91576735Y-77860000D01*
X91354557Y-77904194D01*
X91145271Y-77990884D01*
X90956918Y-78116737D01*
X90796737Y-78276918D01*
X90670884Y-78465271D01*
X90584194Y-78674557D01*
X90540000Y-78896735D01*
X90540000Y-79123265D01*
X90584194Y-79345443D01*
X90670884Y-79554729D01*
X90796737Y-79743082D01*
X90956918Y-79903263D01*
X91034348Y-79955000D01*
X88302297Y-79955000D01*
X87856475Y-79911287D01*
X87442922Y-79786428D01*
X87398877Y-79763009D01*
X87675335Y-79818000D01*
X88084665Y-79818000D01*
X88486130Y-79738144D01*
X88864302Y-79581500D01*
X89204648Y-79354088D01*
X89494088Y-79064648D01*
X89721500Y-78724302D01*
X89878144Y-78346130D01*
X89958000Y-77944665D01*
X89958000Y-77535335D01*
X89878144Y-77133870D01*
X89721500Y-76755698D01*
X89494088Y-76415352D01*
X89204648Y-76125912D01*
X88864302Y-75898500D01*
X88486130Y-75741856D01*
X88084665Y-75662000D01*
X87675335Y-75662000D01*
X87273870Y-75741856D01*
X86895698Y-75898500D01*
X86555352Y-76125912D01*
X86265912Y-76415352D01*
X86071400Y-76706460D01*
X86071400Y-60993540D01*
X86265912Y-61284648D01*
X86555352Y-61574088D01*
X86895698Y-61801500D01*
X87273870Y-61958144D01*
X87675335Y-62038000D01*
X88084665Y-62038000D01*
X88486130Y-61958144D01*
X88864302Y-61801500D01*
X89204648Y-61574088D01*
X89494088Y-61284648D01*
X89721500Y-60944302D01*
X89878144Y-60566130D01*
X89958000Y-60164665D01*
X89958000Y-59755335D01*
X89878144Y-59353870D01*
X89721500Y-58975698D01*
X89494088Y-58635352D01*
X89204648Y-58345912D01*
X88864302Y-58118500D01*
X88486130Y-57961856D01*
X88084665Y-57882000D01*
X87675335Y-57882000D01*
X87394844Y-57937793D01*
X87428660Y-57919509D01*
X87841323Y-57791768D01*
X88286271Y-57745002D01*
X88286964Y-57745000D01*
X101194348Y-57745000D01*
X101116918Y-57796737D01*
M02*
