M48
; DRILL file {KiCad (5.1.2)-1} date 17/07/2019 11:08:19
; FORMAT={-:-/ absolute / metric / decimal}
; #@! TF.CreationDate,2019-07-17T11:08:19+10:00
; #@! TF.GenerationSoftware,Kicad,Pcbnew,(5.1.2)-1
FMAT,2
METRIC
T1C1.000
T2C2.540
%
G90
G05
T1
X93.482Y-70.615
X93.482Y-73.155
X96.022Y-70.615
X96.022Y-73.155
X98.562Y-70.615
X98.562Y-73.155
X101.102Y-70.615
X101.102Y-73.155
X103.642Y-70.615
X103.642Y-73.155
X106.182Y-70.615
X106.182Y-73.155
X91.69Y-79.01
X94.23Y-79.01
X96.77Y-79.01
X99.31Y-79.01
X101.85Y-58.69
X101.85Y-79.01
X104.39Y-58.69
X104.39Y-79.01
X106.93Y-58.69
X106.93Y-79.01
X109.47Y-58.69
X109.47Y-79.01
X112.01Y-58.69
X112.01Y-79.01
X114.55Y-58.69
X114.55Y-79.01
X117.09Y-58.69
X117.09Y-79.01
X119.63Y-58.69
X119.63Y-79.01
X122.17Y-58.69
X122.17Y-79.01
X124.71Y-58.69
X124.71Y-79.01
X127.25Y-58.69
X127.25Y-79.01
X129.79Y-58.69
X129.79Y-79.01
X116.342Y-70.615
X116.342Y-73.155
X118.882Y-70.615
X118.882Y-73.155
X121.422Y-70.615
X121.422Y-73.155
X123.962Y-70.615
X123.962Y-73.155
X126.502Y-70.615
X126.502Y-73.155
X129.042Y-70.615
X129.042Y-73.155
T2
X87.88Y-59.96
X87.88Y-77.74
X133.6Y-59.96
X133.6Y-77.74
T0
M30
