M48
; DRILL file {KiCad (5.1.2)-1} date 17/07/2019 11:56:12
; FORMAT={-:-/ absolute / metric / decimal}
; #@! TF.CreationDate,2019-07-17T11:56:12+10:00
; #@! TF.GenerationSoftware,Kicad,Pcbnew,(5.1.2)-1
FMAT,2
METRIC
T1C0.250
T2C0.800
T3C1.000
T4C0.300
T5C0.900
T6C2.540
%
G90
G05
T1
X47.5Y-55.0
X47.5Y-65.0
X47.5Y-80.4
X47.5Y-90.4
X47.5Y-105.8
X47.5Y-115.8
X47.5Y-131.2
X47.5Y-141.2
X53.0Y-60.65
X53.0Y-86.05
X53.0Y-111.45
X53.0Y-136.85
X53.1Y-55.6
X53.1Y-81.0
X53.1Y-106.4
X53.1Y-131.8
X54.524Y-63.924
X54.524Y-89.324
X54.524Y-114.724
X54.524Y-140.124
X54.6Y-67.5
X54.6Y-92.9
X54.6Y-118.3
X54.6Y-143.7
X56.9Y-64.4
X56.9Y-89.8
X56.9Y-115.2
X56.9Y-140.6
X57.2Y-67.6
X57.2Y-93.0
X57.2Y-118.4
X57.2Y-143.8
X57.5Y-55.9
X57.5Y-81.3
X57.5Y-106.7
X57.5Y-132.1
X57.55Y-60.65
X57.55Y-86.05
X57.55Y-111.45
X57.55Y-136.85
X58.9Y-53.9
X58.9Y-79.3
X58.9Y-104.7
X58.9Y-130.1
X60.26Y-64.86
X60.26Y-90.26
X60.26Y-115.66
X60.26Y-141.06
X61.5Y-62.6
X61.5Y-88.0
X61.5Y-113.4
X61.5Y-138.8
X62.0Y-64.1
X62.0Y-89.5
X62.0Y-114.9
X62.0Y-140.3
X62.2Y-67.6
X62.2Y-93.0
X62.2Y-118.4
X62.2Y-143.8
X62.3Y-54.7
X62.3Y-56.7
X62.3Y-65.5
X62.3Y-80.1
X62.3Y-82.1
X62.3Y-90.9
X62.3Y-105.5
X62.3Y-107.5
X62.3Y-116.3
X62.3Y-130.9
X62.3Y-132.9
X62.3Y-141.7
X63.2Y-62.5
X63.2Y-87.9
X63.2Y-113.3
X63.2Y-138.7
X63.75Y-64.25
X63.75Y-89.65
X63.75Y-115.05
X63.75Y-140.45
X63.8Y-61.9
X63.8Y-87.3
X63.8Y-112.7
X63.8Y-138.1
X64.5Y-61.3
X64.5Y-86.7
X64.5Y-112.1
X64.5Y-137.5
X65.0Y-67.6
X65.0Y-93.0
X65.0Y-118.4
X65.0Y-143.8
X72.5Y-55.0
X72.5Y-80.4
X72.5Y-105.8
X72.5Y-131.2
X78.3Y-60.0
X78.3Y-85.4
X78.3Y-110.8
X78.3Y-136.2
X82.8Y-50.6
X82.8Y-76.0
X82.8Y-101.4
X82.8Y-126.8
X83.3Y-60.0
X83.3Y-85.4
X83.3Y-110.8
X83.3Y-136.2
X86.2Y-53.8
X86.2Y-79.2
X86.2Y-104.6
X86.2Y-130.0
X90.0Y-65.0
X90.0Y-90.4
X90.0Y-115.8
X90.0Y-141.2
X90.8Y-60.0
X90.8Y-85.4
X90.8Y-110.8
X90.8Y-136.2
X95.8Y-60.0
X95.8Y-85.4
X95.8Y-110.8
X95.8Y-136.2
T2
X77.32Y-80.7
X77.32Y-88.32
X79.86Y-80.7
X79.86Y-88.32
X82.4Y-80.7
X82.4Y-88.32
X84.94Y-80.7
X84.94Y-88.32
X87.48Y-80.7
X87.48Y-88.32
X90.02Y-80.7
X90.02Y-88.32
X92.56Y-80.7
X92.56Y-88.32
X95.1Y-80.7
X95.1Y-88.32
X77.32Y-131.5
X77.32Y-139.12
X79.86Y-131.5
X79.86Y-139.12
X82.4Y-131.5
X82.4Y-139.12
X84.94Y-131.5
X84.94Y-139.12
X87.48Y-131.5
X87.48Y-139.12
X90.02Y-131.5
X90.02Y-139.12
X92.56Y-131.5
X92.56Y-139.12
X95.1Y-131.5
X95.1Y-139.12
X77.32Y-55.3
X77.32Y-62.92
X79.86Y-55.3
X79.86Y-62.92
X82.4Y-55.3
X82.4Y-62.92
X84.94Y-55.3
X84.94Y-62.92
X87.48Y-55.3
X87.48Y-62.92
X90.02Y-55.3
X90.02Y-62.92
X92.56Y-55.3
X92.56Y-62.92
X95.1Y-55.3
X95.1Y-62.92
X77.32Y-106.1
X77.32Y-113.72
X79.86Y-106.1
X79.86Y-113.72
X82.4Y-106.1
X82.4Y-113.72
X84.94Y-106.1
X84.94Y-113.72
X87.48Y-106.1
X87.48Y-113.72
X90.02Y-106.1
X90.02Y-113.72
X92.56Y-106.1
X92.56Y-113.72
X95.1Y-106.1
X95.1Y-113.72
T3
X51.769Y-69.215
X54.309Y-69.215
X56.849Y-69.215
X59.389Y-69.215
X61.929Y-48.895
X61.929Y-69.215
X64.469Y-48.895
X64.469Y-69.215
X67.009Y-48.895
X67.009Y-69.215
X69.549Y-48.895
X69.549Y-69.215
X72.089Y-48.895
X72.089Y-69.215
X74.629Y-48.895
X74.629Y-69.215
X77.169Y-48.895
X77.169Y-69.215
X79.709Y-48.895
X79.709Y-69.215
X82.249Y-48.895
X82.249Y-69.215
X84.789Y-48.895
X84.789Y-69.215
X87.329Y-48.895
X87.329Y-69.215
X89.869Y-48.895
X89.869Y-69.215
X51.769Y-120.015
X54.309Y-120.015
X56.849Y-120.015
X59.389Y-120.015
X61.929Y-99.695
X61.929Y-120.015
X64.469Y-99.695
X64.469Y-120.015
X67.009Y-99.695
X67.009Y-120.015
X69.549Y-99.695
X69.549Y-120.015
X72.089Y-99.695
X72.089Y-120.015
X74.629Y-99.695
X74.629Y-120.015
X77.169Y-99.695
X77.169Y-120.015
X79.709Y-99.695
X79.709Y-120.015
X82.249Y-99.695
X82.249Y-120.015
X84.789Y-99.695
X84.789Y-120.015
X87.329Y-99.695
X87.329Y-120.015
X89.869Y-99.695
X89.869Y-120.015
X50.9Y-127.56
X50.9Y-142.8
X53.44Y-127.56
X53.44Y-142.8
X55.98Y-127.56
X55.98Y-142.8
X58.52Y-127.56
X58.52Y-142.8
X61.06Y-127.56
X61.06Y-142.8
X63.6Y-127.56
X63.6Y-142.8
X66.14Y-127.56
X66.14Y-142.8
X68.68Y-127.56
X68.68Y-142.8
X71.22Y-127.56
X71.22Y-142.8
X51.769Y-145.415
X54.309Y-145.415
X56.849Y-145.415
X59.389Y-145.415
X61.929Y-125.095
X61.929Y-145.415
X64.469Y-125.095
X64.469Y-145.415
X67.009Y-125.095
X67.009Y-145.415
X69.549Y-125.095
X69.549Y-145.415
X72.089Y-125.095
X72.089Y-145.415
X74.629Y-125.095
X74.629Y-145.415
X77.169Y-125.095
X77.169Y-145.415
X79.709Y-125.095
X79.709Y-145.415
X82.249Y-125.095
X82.249Y-145.415
X84.789Y-125.095
X84.789Y-145.415
X87.329Y-125.095
X87.329Y-145.415
X89.869Y-125.095
X89.869Y-145.415
X50.9Y-51.36
X50.9Y-66.6
X53.44Y-51.36
X53.44Y-66.6
X55.98Y-51.36
X55.98Y-66.6
X58.52Y-51.36
X58.52Y-66.6
X61.06Y-51.36
X61.06Y-66.6
X63.6Y-51.36
X63.6Y-66.6
X66.14Y-51.36
X66.14Y-66.6
X68.68Y-51.36
X68.68Y-66.6
X71.22Y-51.36
X71.22Y-66.6
X50.9Y-102.16
X50.9Y-117.4
X53.44Y-102.16
X53.44Y-117.4
X55.98Y-102.16
X55.98Y-117.4
X58.52Y-102.16
X58.52Y-117.4
X61.06Y-102.16
X61.06Y-117.4
X63.6Y-102.16
X63.6Y-117.4
X66.14Y-102.16
X66.14Y-117.4
X68.68Y-102.16
X68.68Y-117.4
X71.22Y-102.16
X71.22Y-117.4
X51.769Y-94.615
X54.309Y-94.615
X56.849Y-94.615
X59.389Y-94.615
X61.929Y-74.295
X61.929Y-94.615
X64.469Y-74.295
X64.469Y-94.615
X67.009Y-74.295
X67.009Y-94.615
X69.549Y-74.295
X69.549Y-94.615
X72.089Y-74.295
X72.089Y-94.615
X74.629Y-74.295
X74.629Y-94.615
X77.169Y-74.295
X77.169Y-94.615
X79.709Y-74.295
X79.709Y-94.615
X82.249Y-74.295
X82.249Y-94.615
X84.789Y-74.295
X84.789Y-94.615
X87.329Y-74.295
X87.329Y-94.615
X89.869Y-74.295
X89.869Y-94.615
X50.9Y-76.76
X50.9Y-92.0
X53.44Y-76.76
X53.44Y-92.0
X55.98Y-76.76
X55.98Y-92.0
X58.52Y-76.76
X58.52Y-92.0
X61.06Y-76.76
X61.06Y-92.0
X63.6Y-76.76
X63.6Y-92.0
X66.14Y-76.76
X66.14Y-92.0
X68.68Y-76.76
X68.68Y-92.0
X71.22Y-76.76
X71.22Y-92.0
T4
X88.5Y-70.635
X89.5Y-70.635
X90.5Y-70.635
X91.5Y-70.635
X92.5Y-70.635
X93.5Y-70.635
X88.5Y-123.675
X89.5Y-123.675
X90.5Y-123.675
X91.5Y-123.675
X92.5Y-123.675
X93.5Y-123.675
X48.5Y-123.675
X49.5Y-123.675
X50.5Y-123.675
X51.5Y-123.675
X52.5Y-123.675
X53.5Y-123.675
X88.5Y-72.875
X89.5Y-72.875
X90.5Y-72.875
X91.5Y-72.875
X92.5Y-72.875
X93.5Y-72.875
X48.5Y-121.435
X49.5Y-121.435
X50.5Y-121.435
X51.5Y-121.435
X52.5Y-121.435
X53.5Y-121.435
X48.5Y-96.035
X49.5Y-96.035
X50.5Y-96.035
X51.5Y-96.035
X52.5Y-96.035
X53.5Y-96.035
X48.5Y-72.875
X49.5Y-72.875
X50.5Y-72.875
X51.5Y-72.875
X52.5Y-72.875
X53.5Y-72.875
X48.5Y-70.635
X49.5Y-70.635
X50.5Y-70.635
X51.5Y-70.635
X52.5Y-70.635
X53.5Y-70.635
X88.5Y-98.275
X89.5Y-98.275
X90.5Y-98.275
X91.5Y-98.275
X92.5Y-98.275
X93.5Y-98.275
X88.5Y-121.435
X89.5Y-121.435
X90.5Y-121.435
X91.5Y-121.435
X92.5Y-121.435
X93.5Y-121.435
X48.5Y-98.275
X49.5Y-98.275
X50.5Y-98.275
X51.5Y-98.275
X52.5Y-98.275
X53.5Y-98.275
X88.5Y-96.035
X89.5Y-96.035
X90.5Y-96.035
X91.5Y-96.035
X92.5Y-96.035
X93.5Y-96.035
T5
X47.57Y-108.3
X47.57Y-111.3
X47.57Y-82.9
X47.57Y-85.9
X47.57Y-57.5
X47.57Y-60.5
X47.57Y-133.7
X47.57Y-136.7
T6
X47.959Y-50.165
X47.959Y-67.945
X93.679Y-50.165
X93.679Y-67.945
X47.959Y-100.965
X47.959Y-118.745
X93.679Y-100.965
X93.679Y-118.745
X47.959Y-126.365
X47.959Y-144.145
X93.679Y-126.365
X93.679Y-144.145
X47.959Y-75.565
X47.959Y-93.345
X93.679Y-75.565
X93.679Y-93.345
T0
M30
