G04 #@! TF.GenerationSoftware,KiCad,Pcbnew,(5.1.2)-1*
G04 #@! TF.CreationDate,2019-07-17T10:41:17+10:00*
G04 #@! TF.ProjectId,iCE40-fpga,69434534-302d-4667-9067-612e6b696361,rev?*
G04 #@! TF.SameCoordinates,Original*
G04 #@! TF.FileFunction,Legend,Top*
G04 #@! TF.FilePolarity,Positive*
%FSLAX46Y46*%
G04 Gerber Fmt 4.6, Leading zero omitted, Abs format (unit mm)*
G04 Created by KiCad (PCBNEW (5.1.2)-1) date 2019-07-17 10:41:17*
%MOMM*%
%LPD*%
G04 APERTURE LIST*
%ADD10C,0.150000*%
%ADD11C,0.125000*%
%ADD12C,0.120000*%
G04 APERTURE END LIST*
D10*
X30716666Y-40516666D02*
X30483333Y-40183333D01*
X30316666Y-40516666D02*
X30316666Y-39816666D01*
X30583333Y-39816666D01*
X30650000Y-39850000D01*
X30683333Y-39883333D01*
X30716666Y-39950000D01*
X30716666Y-40050000D01*
X30683333Y-40116666D01*
X30650000Y-40150000D01*
X30583333Y-40183333D01*
X30316666Y-40183333D01*
X30300000Y-41416666D02*
X30700000Y-41416666D01*
X30500000Y-42116666D02*
X30500000Y-41416666D01*
D11*
X51329636Y-24818198D02*
X51046793Y-25101040D01*
X51188214Y-24959619D02*
X50693240Y-24464644D01*
X50716810Y-24582495D01*
X50716810Y-24676776D01*
X50693240Y-24747487D01*
X51329636Y-24252512D02*
X51258925Y-24276082D01*
X51211785Y-24276082D01*
X51141074Y-24252512D01*
X51117504Y-24228942D01*
X51093933Y-24158231D01*
X51093933Y-24111091D01*
X51117504Y-24040380D01*
X51211785Y-23946099D01*
X51282495Y-23922529D01*
X51329636Y-23922529D01*
X51400346Y-23946099D01*
X51423917Y-23969669D01*
X51447487Y-24040380D01*
X51447487Y-24087521D01*
X51423917Y-24158231D01*
X51329636Y-24252512D01*
X51306066Y-24323223D01*
X51306066Y-24370363D01*
X51329636Y-24441074D01*
X51423917Y-24535355D01*
X51494627Y-24558925D01*
X51541768Y-24558925D01*
X51612478Y-24535355D01*
X51706759Y-24441074D01*
X51730330Y-24370363D01*
X51730330Y-24323223D01*
X51706759Y-24252512D01*
X51612478Y-24158231D01*
X51541768Y-24134661D01*
X51494627Y-24134661D01*
X51423917Y-24158231D01*
X58954636Y-24843198D02*
X58671793Y-25126040D01*
X58813214Y-24984619D02*
X58318240Y-24489644D01*
X58341810Y-24607495D01*
X58341810Y-24701776D01*
X58318240Y-24772487D01*
X58907495Y-23900389D02*
X58671793Y-24136091D01*
X58883925Y-24395363D01*
X58883925Y-24348223D01*
X58907495Y-24277512D01*
X59025346Y-24159661D01*
X59096057Y-24136091D01*
X59143198Y-24136091D01*
X59213908Y-24159661D01*
X59331759Y-24277512D01*
X59355330Y-24348223D01*
X59355330Y-24395363D01*
X59331759Y-24466074D01*
X59213908Y-24583925D01*
X59143198Y-24607495D01*
X59096057Y-24607495D01*
X69829636Y-25368198D02*
X69546793Y-25651040D01*
X69688214Y-25509619D02*
X69193240Y-25014644D01*
X69216810Y-25132495D01*
X69216810Y-25226776D01*
X69193240Y-25297487D01*
X70301040Y-24896793D02*
X70018198Y-25179636D01*
X70159619Y-25038214D02*
X69664644Y-24543240D01*
X69688214Y-24661091D01*
X69688214Y-24755372D01*
X69664644Y-24826082D01*
X56429636Y-24818198D02*
X56146793Y-25101040D01*
X56288214Y-24959619D02*
X55793240Y-24464644D01*
X55816810Y-24582495D01*
X55816810Y-24676776D01*
X55793240Y-24747487D01*
X56358925Y-23898959D02*
X56264644Y-23993240D01*
X56241074Y-24063950D01*
X56241074Y-24111091D01*
X56264644Y-24228942D01*
X56335355Y-24346793D01*
X56523917Y-24535355D01*
X56594627Y-24558925D01*
X56641768Y-24558925D01*
X56712478Y-24535355D01*
X56806759Y-24441074D01*
X56830330Y-24370363D01*
X56830330Y-24323223D01*
X56806759Y-24252512D01*
X56688908Y-24134661D01*
X56618198Y-24111091D01*
X56571057Y-24111091D01*
X56500346Y-24134661D01*
X56406066Y-24228942D01*
X56382495Y-24299653D01*
X56382495Y-24346793D01*
X56406066Y-24417504D01*
X48829636Y-24918198D02*
X48546793Y-25201040D01*
X48688214Y-25059619D02*
X48193240Y-24564644D01*
X48216810Y-24682495D01*
X48216810Y-24776776D01*
X48193240Y-24847487D01*
X49065338Y-24682495D02*
X49159619Y-24588214D01*
X49183189Y-24517504D01*
X49183189Y-24470363D01*
X49159619Y-24352512D01*
X49088908Y-24234661D01*
X48900346Y-24046099D01*
X48829636Y-24022529D01*
X48782495Y-24022529D01*
X48711785Y-24046099D01*
X48617504Y-24140380D01*
X48593933Y-24211091D01*
X48593933Y-24258231D01*
X48617504Y-24328942D01*
X48735355Y-24446793D01*
X48806066Y-24470363D01*
X48853206Y-24470363D01*
X48923917Y-24446793D01*
X49018198Y-24352512D01*
X49041768Y-24281801D01*
X49041768Y-24234661D01*
X49018198Y-24163950D01*
X45834661Y-24323223D02*
X45598959Y-24558925D01*
X45811091Y-24818198D01*
X45811091Y-24771057D01*
X45834661Y-24700346D01*
X45952512Y-24582495D01*
X46023223Y-24558925D01*
X46070363Y-24558925D01*
X46141074Y-24582495D01*
X46258925Y-24700346D01*
X46282495Y-24771057D01*
X46282495Y-24818198D01*
X46258925Y-24888908D01*
X46141074Y-25006759D01*
X46070363Y-25030330D01*
X46023223Y-25030330D01*
X45999653Y-24158231D02*
X46659619Y-24488214D01*
X46329636Y-23828248D01*
X43299306Y-25029983D02*
X43464297Y-24864991D01*
X43794280Y-25053553D02*
X43558578Y-25289255D01*
X43063603Y-24794280D01*
X43299306Y-24558578D01*
X44006412Y-24841421D02*
X43511438Y-24346446D01*
X44289255Y-24558578D01*
X43794280Y-24063603D01*
X41299306Y-25829983D02*
X41393587Y-25782842D01*
X41440727Y-25782842D01*
X41511438Y-25806412D01*
X41582148Y-25877123D01*
X41605719Y-25947834D01*
X41605719Y-25994974D01*
X41582148Y-26065685D01*
X41393587Y-26254247D01*
X40898612Y-25759272D01*
X41063603Y-25594280D01*
X41134314Y-25570710D01*
X41181455Y-25570710D01*
X41252165Y-25594280D01*
X41299306Y-25641421D01*
X41322876Y-25712132D01*
X41322876Y-25759272D01*
X41299306Y-25829983D01*
X41134314Y-25994974D01*
X41723570Y-25641421D02*
X41959272Y-25405719D01*
X41817851Y-25829983D02*
X41487867Y-25170016D01*
X42147834Y-25499999D01*
X41747140Y-24910744D02*
X42029983Y-24627901D01*
X42383536Y-25264297D02*
X41888561Y-24769322D01*
X68975389Y-42929636D02*
X68904678Y-42953206D01*
X68833967Y-43023917D01*
X68786827Y-43118198D01*
X68786827Y-43212478D01*
X68810397Y-43283189D01*
X68881108Y-43401040D01*
X68951818Y-43471751D01*
X69069669Y-43542462D01*
X69140380Y-43566032D01*
X69234661Y-43566032D01*
X69328942Y-43518891D01*
X69376082Y-43471751D01*
X69423223Y-43377470D01*
X69423223Y-43330330D01*
X69258231Y-43165338D01*
X69163950Y-43259619D01*
X69682495Y-43165338D02*
X69187521Y-42670363D01*
X69965338Y-42882495D01*
X69470363Y-42387521D01*
X70201040Y-42646793D02*
X69706066Y-42151818D01*
X69823917Y-42033967D01*
X69918198Y-41986827D01*
X70012478Y-41986827D01*
X70083189Y-42010397D01*
X70201040Y-42081108D01*
X70271751Y-42151818D01*
X70342462Y-42269669D01*
X70366032Y-42340380D01*
X70366032Y-42434661D01*
X70318891Y-42528942D01*
X70201040Y-42646793D01*
X66929636Y-43318198D02*
X66646793Y-43601040D01*
X66788214Y-43459619D02*
X66293240Y-42964644D01*
X66316810Y-43082495D01*
X66316810Y-43176776D01*
X66293240Y-43247487D01*
X66741074Y-42516810D02*
X66788214Y-42469669D01*
X66858925Y-42446099D01*
X66906066Y-42446099D01*
X66976776Y-42469669D01*
X67094627Y-42540380D01*
X67212478Y-42658231D01*
X67283189Y-42776082D01*
X67306759Y-42846793D01*
X67306759Y-42893933D01*
X67283189Y-42964644D01*
X67236049Y-43011785D01*
X67165338Y-43035355D01*
X67118198Y-43035355D01*
X67047487Y-43011785D01*
X66929636Y-42941074D01*
X66811785Y-42823223D01*
X66741074Y-42705372D01*
X66717504Y-42634661D01*
X66717504Y-42587521D01*
X66741074Y-42516810D01*
X64329636Y-43518198D02*
X64423917Y-43423917D01*
X64447487Y-43353206D01*
X64447487Y-43306066D01*
X64423917Y-43188214D01*
X64353206Y-43070363D01*
X64164644Y-42881801D01*
X64093933Y-42858231D01*
X64046793Y-42858231D01*
X63976082Y-42881801D01*
X63881801Y-42976082D01*
X63858231Y-43046793D01*
X63858231Y-43093933D01*
X63881801Y-43164644D01*
X63999653Y-43282495D01*
X64070363Y-43306066D01*
X64117504Y-43306066D01*
X64188214Y-43282495D01*
X64282495Y-43188214D01*
X64306066Y-43117504D01*
X64306066Y-43070363D01*
X64282495Y-42999653D01*
X61493933Y-43188214D02*
X61423223Y-43211785D01*
X61376082Y-43211785D01*
X61305372Y-43188214D01*
X61281801Y-43164644D01*
X61258231Y-43093933D01*
X61258231Y-43046793D01*
X61281801Y-42976082D01*
X61376082Y-42881801D01*
X61446793Y-42858231D01*
X61493933Y-42858231D01*
X61564644Y-42881801D01*
X61588214Y-42905372D01*
X61611785Y-42976082D01*
X61611785Y-43023223D01*
X61588214Y-43093933D01*
X61493933Y-43188214D01*
X61470363Y-43258925D01*
X61470363Y-43306066D01*
X61493933Y-43376776D01*
X61588214Y-43471057D01*
X61658925Y-43494627D01*
X61706066Y-43494627D01*
X61776776Y-43471057D01*
X61871057Y-43376776D01*
X61894627Y-43306066D01*
X61894627Y-43258925D01*
X61871057Y-43188214D01*
X61776776Y-43093933D01*
X61706066Y-43070363D01*
X61658925Y-43070363D01*
X61588214Y-43093933D01*
X58663950Y-43093933D02*
X58993933Y-42763950D01*
X59276776Y-43471057D01*
X56323223Y-42834661D02*
X56228942Y-42928942D01*
X56205372Y-42999653D01*
X56205372Y-43046793D01*
X56228942Y-43164644D01*
X56299653Y-43282495D01*
X56488214Y-43471057D01*
X56558925Y-43494627D01*
X56606066Y-43494627D01*
X56676776Y-43471057D01*
X56771057Y-43376776D01*
X56794627Y-43306066D01*
X56794627Y-43258925D01*
X56771057Y-43188214D01*
X56653206Y-43070363D01*
X56582495Y-43046793D01*
X56535355Y-43046793D01*
X56464644Y-43070363D01*
X56370363Y-43164644D01*
X56346793Y-43235355D01*
X56346793Y-43282495D01*
X56370363Y-43353206D01*
X53746793Y-42911091D02*
X53511091Y-43146793D01*
X53723223Y-43406066D01*
X53723223Y-43358925D01*
X53746793Y-43288214D01*
X53864644Y-43170363D01*
X53935355Y-43146793D01*
X53982495Y-43146793D01*
X54053206Y-43170363D01*
X54171057Y-43288214D01*
X54194627Y-43358925D01*
X54194627Y-43406066D01*
X54171057Y-43476776D01*
X54053206Y-43594627D01*
X53982495Y-43618198D01*
X53935355Y-43618198D01*
X51388214Y-42999653D02*
X51718198Y-43329636D01*
X51081801Y-42928942D02*
X51317504Y-43400346D01*
X51623917Y-43093933D01*
X48563950Y-42993933D02*
X48870363Y-42687521D01*
X48893933Y-43041074D01*
X48964644Y-42970363D01*
X49035355Y-42946793D01*
X49082495Y-42946793D01*
X49153206Y-42970363D01*
X49271057Y-43088214D01*
X49294627Y-43158925D01*
X49294627Y-43206066D01*
X49271057Y-43276776D01*
X49129636Y-43418198D01*
X49058925Y-43441768D01*
X49011785Y-43441768D01*
X46034661Y-43017504D02*
X46034661Y-42970363D01*
X46058231Y-42899653D01*
X46176082Y-42781801D01*
X46246793Y-42758231D01*
X46293933Y-42758231D01*
X46364644Y-42781801D01*
X46411785Y-42828942D01*
X46458925Y-42923223D01*
X46458925Y-43488908D01*
X46765338Y-43182495D01*
X44265338Y-43182495D02*
X43982495Y-43465338D01*
X44123917Y-43323917D02*
X43628942Y-42828942D01*
X43652512Y-42946793D01*
X43652512Y-43041074D01*
X43628942Y-43111785D01*
X41105372Y-42852512D02*
X41152512Y-42805372D01*
X41223223Y-42781801D01*
X41270363Y-42781801D01*
X41341074Y-42805372D01*
X41458925Y-42876082D01*
X41576776Y-42993933D01*
X41647487Y-43111785D01*
X41671057Y-43182495D01*
X41671057Y-43229636D01*
X41647487Y-43300346D01*
X41600346Y-43347487D01*
X41529636Y-43371057D01*
X41482495Y-43371057D01*
X41411785Y-43347487D01*
X41293933Y-43276776D01*
X41176082Y-43158925D01*
X41105372Y-43041074D01*
X41081801Y-42970363D01*
X41081801Y-42923223D01*
X41105372Y-42852512D01*
X38475389Y-43029636D02*
X38404678Y-43053206D01*
X38333967Y-43123917D01*
X38286827Y-43218198D01*
X38286827Y-43312478D01*
X38310397Y-43383189D01*
X38381108Y-43501040D01*
X38451818Y-43571751D01*
X38569669Y-43642462D01*
X38640380Y-43666032D01*
X38734661Y-43666032D01*
X38828942Y-43618891D01*
X38876082Y-43571751D01*
X38923223Y-43477470D01*
X38923223Y-43430330D01*
X38758231Y-43265338D01*
X38663950Y-43359619D01*
X39182495Y-43265338D02*
X38687521Y-42770363D01*
X39465338Y-42982495D01*
X38970363Y-42487521D01*
X39701040Y-42746793D02*
X39206066Y-42251818D01*
X39323917Y-42133967D01*
X39418198Y-42086827D01*
X39512478Y-42086827D01*
X39583189Y-42110397D01*
X39701040Y-42181108D01*
X39771751Y-42251818D01*
X39842462Y-42369669D01*
X39866032Y-42440380D01*
X39866032Y-42534661D01*
X39818891Y-42628942D01*
X39701040Y-42746793D01*
X36335008Y-43512825D02*
X35840033Y-43017851D01*
X36617851Y-43229983D01*
X36122876Y-42735008D01*
X37089255Y-42664297D02*
X37089255Y-42711438D01*
X37042115Y-42805719D01*
X36994974Y-42852859D01*
X36900693Y-42900000D01*
X36806412Y-42899999D01*
X36735702Y-42876429D01*
X36617851Y-42805719D01*
X36547140Y-42735008D01*
X36476429Y-42617157D01*
X36452859Y-42546446D01*
X36452859Y-42452165D01*
X36500000Y-42357884D01*
X36547140Y-42310744D01*
X36641421Y-42263603D01*
X36688561Y-42263603D01*
X33116116Y-43141768D02*
X33422529Y-42835355D01*
X33446099Y-43188908D01*
X33516810Y-43118198D01*
X33587521Y-43094627D01*
X33634661Y-43094627D01*
X33705372Y-43118198D01*
X33823223Y-43236049D01*
X33846793Y-43306759D01*
X33846793Y-43353900D01*
X33823223Y-43424610D01*
X33681801Y-43566032D01*
X33611091Y-43589602D01*
X33563950Y-43589602D01*
X33563950Y-42693933D02*
X34223917Y-43023917D01*
X33893933Y-42363950D01*
X34011785Y-42246099D02*
X34318198Y-41939686D01*
X34341768Y-42293240D01*
X34412478Y-42222529D01*
X34483189Y-42198959D01*
X34530330Y-42198959D01*
X34601040Y-42222529D01*
X34718891Y-42340380D01*
X34742462Y-42411091D01*
X34742462Y-42458231D01*
X34718891Y-42528942D01*
X34577470Y-42670363D01*
X34506759Y-42693933D01*
X34459619Y-42693933D01*
X29766116Y-44521751D02*
X30096099Y-44851734D01*
X29813256Y-44568891D02*
X29813256Y-44521751D01*
X29836827Y-44451040D01*
X29907537Y-44380330D01*
X29978248Y-44356759D01*
X30048959Y-44380330D01*
X30308231Y-44639602D01*
X30826776Y-44121057D02*
X30426082Y-44050346D01*
X30543933Y-44403900D02*
X30048959Y-43908925D01*
X30237521Y-43720363D01*
X30308231Y-43696793D01*
X30355372Y-43696793D01*
X30426082Y-43720363D01*
X30496793Y-43791074D01*
X30520363Y-43861785D01*
X30520363Y-43908925D01*
X30496793Y-43979636D01*
X30308231Y-44168198D01*
X30991768Y-43908925D02*
X31086049Y-43861785D01*
X31203900Y-43743933D01*
X31227470Y-43673223D01*
X31227470Y-43626082D01*
X31203900Y-43555372D01*
X31156759Y-43508231D01*
X31086049Y-43484661D01*
X31038908Y-43484661D01*
X30968198Y-43508231D01*
X30850346Y-43578942D01*
X30779636Y-43602512D01*
X30732495Y-43602512D01*
X30661785Y-43578942D01*
X30614644Y-43531801D01*
X30591074Y-43461091D01*
X30591074Y-43413950D01*
X30614644Y-43343240D01*
X30732495Y-43225389D01*
X30826776Y-43178248D01*
X30944627Y-43013256D02*
X31227470Y-42730414D01*
X31581023Y-43366810D02*
X31086049Y-42871835D01*
D10*
X44147619Y-41885714D02*
X44109523Y-41923809D01*
X43995238Y-41961904D01*
X43919047Y-41961904D01*
X43804761Y-41923809D01*
X43728571Y-41847619D01*
X43690476Y-41771428D01*
X43652380Y-41619047D01*
X43652380Y-41504761D01*
X43690476Y-41352380D01*
X43728571Y-41276190D01*
X43804761Y-41200000D01*
X43919047Y-41161904D01*
X43995238Y-41161904D01*
X44109523Y-41200000D01*
X44147619Y-41238095D01*
X44490476Y-41961904D02*
X44490476Y-41161904D01*
X44680952Y-41161904D01*
X44795238Y-41200000D01*
X44871428Y-41276190D01*
X44909523Y-41352380D01*
X44947619Y-41504761D01*
X44947619Y-41619047D01*
X44909523Y-41771428D01*
X44871428Y-41847619D01*
X44795238Y-41923809D01*
X44680952Y-41961904D01*
X44490476Y-41961904D01*
X45442857Y-41161904D02*
X45595238Y-41161904D01*
X45671428Y-41200000D01*
X45747619Y-41276190D01*
X45785714Y-41428571D01*
X45785714Y-41695238D01*
X45747619Y-41847619D01*
X45671428Y-41923809D01*
X45595238Y-41961904D01*
X45442857Y-41961904D01*
X45366666Y-41923809D01*
X45290476Y-41847619D01*
X45252380Y-41695238D01*
X45252380Y-41428571D01*
X45290476Y-41276190D01*
X45366666Y-41200000D01*
X45442857Y-41161904D01*
X46128571Y-41961904D02*
X46128571Y-41161904D01*
X46585714Y-41961904D01*
X46585714Y-41161904D01*
X46966666Y-41542857D02*
X47233333Y-41542857D01*
X47347619Y-41961904D02*
X46966666Y-41961904D01*
X46966666Y-41161904D01*
X47347619Y-41161904D01*
X29800000Y-38950000D02*
X29766666Y-38983333D01*
X29666666Y-39016666D01*
X29600000Y-39016666D01*
X29500000Y-38983333D01*
X29433333Y-38916666D01*
X29400000Y-38850000D01*
X29366666Y-38716666D01*
X29366666Y-38616666D01*
X29400000Y-38483333D01*
X29433333Y-38416666D01*
X29500000Y-38350000D01*
X29600000Y-38316666D01*
X29666666Y-38316666D01*
X29766666Y-38350000D01*
X29800000Y-38383333D01*
X30100000Y-39016666D02*
X30100000Y-38316666D01*
X30100000Y-38650000D02*
X30500000Y-38650000D01*
X30500000Y-39016666D02*
X30500000Y-38316666D01*
X31200000Y-38350000D02*
X31133333Y-38316666D01*
X31033333Y-38316666D01*
X30933333Y-38350000D01*
X30866666Y-38416666D01*
X30833333Y-38483333D01*
X30800000Y-38616666D01*
X30800000Y-38716666D01*
X30833333Y-38850000D01*
X30866666Y-38916666D01*
X30933333Y-38983333D01*
X31033333Y-39016666D01*
X31100000Y-39016666D01*
X31200000Y-38983333D01*
X31233333Y-38950000D01*
X31233333Y-38716666D01*
X31100000Y-38716666D01*
X29400000Y-28950000D02*
X29400000Y-29416666D01*
X29400000Y-29016666D02*
X29433333Y-28983333D01*
X29500000Y-28950000D01*
X29600000Y-28950000D01*
X29666666Y-28983333D01*
X29700000Y-29050000D01*
X29700000Y-29416666D01*
X30033333Y-28716666D02*
X30033333Y-29283333D01*
X30066666Y-29350000D01*
X30100000Y-29383333D01*
X30166666Y-29416666D01*
X30300000Y-29416666D01*
X30366666Y-29383333D01*
X30400000Y-29350000D01*
X30433333Y-29283333D01*
X30433333Y-28716666D01*
X30733333Y-29383333D02*
X30833333Y-29416666D01*
X31000000Y-29416666D01*
X31066666Y-29383333D01*
X31100000Y-29350000D01*
X31133333Y-29283333D01*
X31133333Y-29216666D01*
X31100000Y-29150000D01*
X31066666Y-29116666D01*
X31000000Y-29083333D01*
X30866666Y-29050000D01*
X30800000Y-29016666D01*
X30766666Y-28983333D01*
X30733333Y-28916666D01*
X30733333Y-28850000D01*
X30766666Y-28783333D01*
X30800000Y-28750000D01*
X30866666Y-28716666D01*
X31033333Y-28716666D01*
X31133333Y-28750000D01*
X31833333Y-29416666D02*
X31600000Y-29083333D01*
X31433333Y-29416666D02*
X31433333Y-28716666D01*
X31700000Y-28716666D01*
X31766666Y-28750000D01*
X31800000Y-28783333D01*
X31833333Y-28850000D01*
X31833333Y-28950000D01*
X31800000Y-29016666D01*
X31766666Y-29050000D01*
X31700000Y-29083333D01*
X31433333Y-29083333D01*
D12*
X38940000Y-22990000D02*
X34260000Y-22990000D01*
X33560000Y-29210000D02*
X34840000Y-29210000D01*
X33560000Y-30810000D02*
X33560000Y-29210000D01*
X32540000Y-30810000D02*
X33560000Y-30810000D01*
X32540000Y-26560000D02*
X32540000Y-30810000D01*
X38360000Y-29210000D02*
X38360000Y-32100000D01*
X39640000Y-29210000D02*
X38360000Y-29210000D01*
X39640000Y-30810000D02*
X39640000Y-29210000D01*
X40660000Y-30810000D02*
X39640000Y-30810000D01*
X40660000Y-26560000D02*
X40660000Y-30810000D01*
X45390000Y-27620000D02*
X45390000Y-30050000D01*
X48460000Y-29380000D02*
X48460000Y-27620000D01*
X73810000Y-30715000D02*
X73810000Y-30240000D01*
X66590000Y-37460000D02*
X67065000Y-37460000D01*
X66590000Y-36985000D02*
X66590000Y-37460000D01*
X66590000Y-30240000D02*
X67065000Y-30240000D01*
X66590000Y-30715000D02*
X66590000Y-30240000D01*
X73810000Y-37460000D02*
X73335000Y-37460000D01*
X73810000Y-36985000D02*
X73810000Y-37460000D01*
D10*
X48950000Y-30100000D02*
X48950000Y-28400000D01*
X50250000Y-30100000D02*
X50250000Y-28400000D01*
X46450000Y-36750000D02*
X44750000Y-36750000D01*
X46450000Y-35450000D02*
X44750000Y-35450000D01*
X32450000Y-34500000D02*
X34150000Y-34500000D01*
X32450000Y-35800000D02*
X34150000Y-35800000D01*
D12*
X42125000Y-26220000D02*
X42625000Y-26220000D01*
X42125000Y-28580000D02*
X42625000Y-28580000D01*
X62530000Y-40850000D02*
X62530000Y-41350000D01*
X60170000Y-40850000D02*
X60170000Y-41350000D01*
X70510000Y-27512779D02*
X70510000Y-27187221D01*
X69490000Y-27512779D02*
X69490000Y-27187221D01*
X60075000Y-29935000D02*
X66075000Y-29935000D01*
X63075000Y-24715000D02*
X66075000Y-24715000D01*
X32140000Y-37391422D02*
X32140000Y-37908578D01*
X33560000Y-37391422D02*
X33560000Y-37908578D01*
X52140000Y-30490000D02*
X51640000Y-30490000D01*
X60860000Y-39710000D02*
X60860000Y-39210000D01*
X60360000Y-39710000D02*
X60860000Y-39710000D01*
X51640000Y-39710000D02*
X51640000Y-39210000D01*
X52140000Y-39710000D02*
X51640000Y-39710000D01*
X60860000Y-30490000D02*
X60860000Y-30990000D01*
X60360000Y-30490000D02*
X60860000Y-30490000D01*
X61775000Y-35825000D02*
X61775000Y-32825000D01*
X65375000Y-35825000D02*
X61775000Y-35825000D01*
X65375000Y-32425000D02*
X65375000Y-35825000D01*
X62275000Y-32425000D02*
X65375000Y-32425000D01*
X61775000Y-32825000D02*
X62275000Y-32425000D01*
X53550000Y-26190000D02*
X51100000Y-26190000D01*
X51750000Y-29410000D02*
X53550000Y-29410000D01*
X44000000Y-28890000D02*
X41550000Y-28890000D01*
X42200000Y-32110000D02*
X44000000Y-32110000D01*
X30915000Y-40835000D02*
X33200000Y-40835000D01*
X30915000Y-39365000D02*
X30915000Y-40835000D01*
X33200000Y-39365000D02*
X30915000Y-39365000D01*
X30915000Y-42435000D02*
X33200000Y-42435000D01*
X30915000Y-40965000D02*
X30915000Y-42435000D01*
X33200000Y-40965000D02*
X30915000Y-40965000D01*
X44390000Y-38437221D02*
X44390000Y-38762779D01*
X45410000Y-38437221D02*
X45410000Y-38762779D01*
X51850000Y-42730000D02*
X52350000Y-42730000D01*
X51850000Y-40370000D02*
X52350000Y-40370000D01*
X63937221Y-41635000D02*
X64262779Y-41635000D01*
X63937221Y-40615000D02*
X64262779Y-40615000D01*
X73587221Y-28610000D02*
X73912779Y-28610000D01*
X73587221Y-27590000D02*
X73912779Y-27590000D01*
X39760000Y-36962779D02*
X39760000Y-36637221D01*
X38740000Y-36962779D02*
X38740000Y-36637221D01*
X42637221Y-33610000D02*
X42962779Y-33610000D01*
X42637221Y-32590000D02*
X42962779Y-32590000D01*
X63987779Y-31115000D02*
X63662221Y-31115000D01*
X63987779Y-32135000D02*
X63662221Y-32135000D01*
X42175279Y-39440000D02*
X41849721Y-39440000D01*
X42175279Y-40460000D02*
X41849721Y-40460000D01*
X46510000Y-32087221D02*
X46510000Y-32412779D01*
X45490000Y-32087221D02*
X45490000Y-32412779D01*
X46637221Y-25090000D02*
X46962779Y-25090000D01*
X46637221Y-26110000D02*
X46962779Y-26110000D01*
X68110000Y-26049721D02*
X68110000Y-26375279D01*
X67090000Y-26049721D02*
X67090000Y-26375279D01*
X73637221Y-39040000D02*
X73962779Y-39040000D01*
X73637221Y-40060000D02*
X73962779Y-40060000D01*
X70990000Y-27525279D02*
X70990000Y-27199721D01*
X72010000Y-27525279D02*
X72010000Y-27199721D01*
X70612221Y-40590000D02*
X70937779Y-40590000D01*
X70612221Y-41610000D02*
X70937779Y-41610000D01*
X67510000Y-40487779D02*
X67510000Y-40162221D01*
X66490000Y-40487779D02*
X66490000Y-40162221D01*
X70612221Y-40085000D02*
X70937779Y-40085000D01*
X70612221Y-39065000D02*
X70937779Y-39065000D01*
X63787779Y-37640000D02*
X63462221Y-37640000D01*
X63787779Y-38660000D02*
X63462221Y-38660000D01*
X52737779Y-25910000D02*
X52412221Y-25910000D01*
X52737779Y-24890000D02*
X52412221Y-24890000D01*
X48510000Y-38424721D02*
X48510000Y-38750279D01*
X47490000Y-38424721D02*
X47490000Y-38750279D01*
X48990000Y-38424721D02*
X48990000Y-38750279D01*
X50010000Y-38424721D02*
X50010000Y-38750279D01*
X48962779Y-36610000D02*
X48637221Y-36610000D01*
X48962779Y-35590000D02*
X48637221Y-35590000D01*
X48962779Y-30990000D02*
X48637221Y-30990000D01*
X48962779Y-32010000D02*
X48637221Y-32010000D01*
X57462779Y-27890000D02*
X57137221Y-27890000D01*
X57462779Y-28910000D02*
X57137221Y-28910000D01*
X63787779Y-37160000D02*
X63462221Y-37160000D01*
X63787779Y-36140000D02*
X63462221Y-36140000D01*
X54937779Y-41290000D02*
X54612221Y-41290000D01*
X54937779Y-42310000D02*
X54612221Y-42310000D01*
X57687221Y-41290000D02*
X58012779Y-41290000D01*
X57687221Y-42310000D02*
X58012779Y-42310000D01*
X29250000Y-39265000D02*
X26965000Y-39265000D01*
X26965000Y-39265000D02*
X26965000Y-40735000D01*
X26965000Y-40735000D02*
X29250000Y-40735000D01*
X38400000Y-40450000D02*
X38400000Y-38450000D01*
X38400000Y-38450000D02*
X34550000Y-38450000D01*
X38400000Y-40450000D02*
X34550000Y-40450000D01*
X65025000Y-40250000D02*
X65025000Y-39050000D01*
X63175000Y-40250000D02*
X65025000Y-40250000D01*
X63175000Y-39050000D02*
X65025000Y-39050000D01*
X40502500Y-42335000D02*
X42787500Y-42335000D01*
X40502500Y-40865000D02*
X40502500Y-42335000D01*
X42787500Y-40865000D02*
X40502500Y-40865000D01*
X29250000Y-26965000D02*
X26965000Y-26965000D01*
X26965000Y-26965000D02*
X26965000Y-28435000D01*
X26965000Y-28435000D02*
X29250000Y-28435000D01*
X38280000Y-35790000D02*
X37350000Y-35790000D01*
X35120000Y-35790000D02*
X36050000Y-35790000D01*
X35120000Y-35790000D02*
X35120000Y-37950000D01*
X38280000Y-35790000D02*
X38280000Y-37250000D01*
X35437221Y-40890000D02*
X35762779Y-40890000D01*
X35437221Y-41910000D02*
X35762779Y-41910000D01*
X43640000Y-27362779D02*
X43640000Y-27037221D01*
X44660000Y-27362779D02*
X44660000Y-27037221D01*
X38740000Y-40012779D02*
X38740000Y-39687221D01*
X39760000Y-40012779D02*
X39760000Y-39687221D01*
X67990000Y-40162221D02*
X67990000Y-40487779D01*
X69010000Y-40162221D02*
X69010000Y-40487779D01*
X50110000Y-26362779D02*
X50110000Y-26037221D01*
X49090000Y-26362779D02*
X49090000Y-26037221D01*
X46960000Y-38437221D02*
X46960000Y-38762779D01*
X45940000Y-38437221D02*
X45940000Y-38762779D01*
X48962779Y-32490000D02*
X48637221Y-32490000D01*
X48962779Y-33510000D02*
X48637221Y-33510000D01*
X58075000Y-27530000D02*
X58575000Y-27530000D01*
X58075000Y-25170000D02*
X58575000Y-25170000D01*
X56500000Y-27530000D02*
X56000000Y-27530000D01*
X56500000Y-25170000D02*
X56000000Y-25170000D01*
X43460000Y-38150000D02*
X43460000Y-35700000D01*
X40240000Y-36350000D02*
X40240000Y-38150000D01*
M02*
