G04 #@! TF.GenerationSoftware,KiCad,Pcbnew,(5.1.2)-1*
G04 #@! TF.CreationDate,2019-07-17T12:10:41+10:00*
G04 #@! TF.ProjectId,output.panel,6f757470-7574-42e7-9061-6e656c2e6b69,0*
G04 #@! TF.SameCoordinates,Original*
G04 #@! TF.FileFunction,Soldermask,Bot*
G04 #@! TF.FilePolarity,Negative*
%FSLAX46Y46*%
G04 Gerber Fmt 4.6, Leading zero omitted, Abs format (unit mm)*
G04 Created by KiCad (PCBNEW (5.1.2)-1) date 2019-07-17 12:10:41*
%MOMM*%
%LPD*%
G04 APERTURE LIST*
%ADD10C,0.010000*%
%ADD11C,3.556000*%
%ADD12C,1.700000*%
%ADD13C,0.300000*%
G04 APERTURE END LIST*
D10*
G36*
X179813358Y-118946025D02*
G01*
X179813668Y-118987086D01*
X179814144Y-119023939D01*
X179814763Y-119055448D01*
X179815502Y-119080478D01*
X179816337Y-119097893D01*
X179817244Y-119106557D01*
X179817471Y-119107210D01*
X179823471Y-119109787D01*
X179838787Y-119113922D01*
X179862721Y-119119466D01*
X179894573Y-119126268D01*
X179933644Y-119134179D01*
X179979237Y-119143047D01*
X180020850Y-119150901D01*
X180064601Y-119159151D01*
X180105265Y-119167001D01*
X180141748Y-119174225D01*
X180172957Y-119180599D01*
X180197798Y-119185898D01*
X180215177Y-119189897D01*
X180224000Y-119192372D01*
X180224834Y-119192802D01*
X180228371Y-119199048D01*
X180234916Y-119213151D01*
X180243889Y-119233676D01*
X180254710Y-119259190D01*
X180266800Y-119288258D01*
X180279578Y-119319446D01*
X180292466Y-119351320D01*
X180304882Y-119382447D01*
X180316248Y-119411392D01*
X180325983Y-119436721D01*
X180333508Y-119456999D01*
X180338242Y-119470794D01*
X180339607Y-119476671D01*
X180339605Y-119476678D01*
X180336333Y-119481988D01*
X180327928Y-119494724D01*
X180315025Y-119513948D01*
X180298257Y-119538724D01*
X180278260Y-119568114D01*
X180255669Y-119601180D01*
X180231119Y-119636986D01*
X180225162Y-119645656D01*
X180200277Y-119682085D01*
X180177306Y-119716148D01*
X180156874Y-119746886D01*
X180139606Y-119773339D01*
X180126126Y-119794549D01*
X180117059Y-119809556D01*
X180113028Y-119817401D01*
X180112879Y-119818086D01*
X180116391Y-119823807D01*
X180126292Y-119835602D01*
X180141632Y-119852520D01*
X180161458Y-119873609D01*
X180184820Y-119897919D01*
X180210767Y-119924500D01*
X180238347Y-119952400D01*
X180266609Y-119980669D01*
X180294603Y-120008355D01*
X180321376Y-120034508D01*
X180345978Y-120058178D01*
X180367458Y-120078412D01*
X180384864Y-120094261D01*
X180397246Y-120104774D01*
X180403651Y-120108999D01*
X180403938Y-120109040D01*
X180410058Y-120106243D01*
X180423530Y-120098279D01*
X180443372Y-120085789D01*
X180468598Y-120069410D01*
X180498226Y-120049783D01*
X180531269Y-120027547D01*
X180566745Y-120003341D01*
X180569005Y-120001788D01*
X180604726Y-119977294D01*
X180638139Y-119954499D01*
X180668244Y-119934080D01*
X180694038Y-119916708D01*
X180714521Y-119903060D01*
X180728692Y-119893807D01*
X180735550Y-119889626D01*
X180735670Y-119889568D01*
X180740391Y-119888784D01*
X180748231Y-119889912D01*
X180760143Y-119893299D01*
X180777084Y-119899292D01*
X180800007Y-119908241D01*
X180829867Y-119920491D01*
X180867619Y-119936390D01*
X180887252Y-119944749D01*
X180924852Y-119961018D01*
X180958510Y-119976011D01*
X180987168Y-119989231D01*
X181009772Y-120000175D01*
X181025265Y-120008346D01*
X181032592Y-120013243D01*
X181032948Y-120013710D01*
X181034928Y-120020560D01*
X181038502Y-120036248D01*
X181043434Y-120059616D01*
X181049491Y-120089508D01*
X181056439Y-120124767D01*
X181064044Y-120164236D01*
X181072071Y-120206757D01*
X181072940Y-120211409D01*
X181082180Y-120260146D01*
X181090621Y-120303053D01*
X181098102Y-120339390D01*
X181104463Y-120368418D01*
X181109544Y-120389397D01*
X181113184Y-120401585D01*
X181114714Y-120404451D01*
X181121096Y-120405372D01*
X181136503Y-120406225D01*
X181159798Y-120406989D01*
X181189847Y-120407638D01*
X181225514Y-120408151D01*
X181265663Y-120408503D01*
X181309159Y-120408671D01*
X181320027Y-120408682D01*
X181371548Y-120408649D01*
X181413801Y-120408486D01*
X181447680Y-120408162D01*
X181474077Y-120407647D01*
X181493884Y-120406908D01*
X181507996Y-120405916D01*
X181517303Y-120404639D01*
X181522699Y-120403046D01*
X181524741Y-120401595D01*
X181526999Y-120395095D01*
X181530799Y-120379763D01*
X181535898Y-120356765D01*
X181542050Y-120327271D01*
X181549013Y-120292450D01*
X181556543Y-120253470D01*
X181564236Y-120212365D01*
X181572897Y-120166210D01*
X181580981Y-120124798D01*
X181588286Y-120089062D01*
X181594611Y-120059937D01*
X181599758Y-120038354D01*
X181603525Y-120025249D01*
X181605133Y-120021726D01*
X181611585Y-120017704D01*
X181625987Y-120010714D01*
X181646948Y-120001314D01*
X181673082Y-119990063D01*
X181703000Y-119977519D01*
X181735313Y-119964240D01*
X181768634Y-119950785D01*
X181801575Y-119937712D01*
X181832747Y-119925580D01*
X181860763Y-119914946D01*
X181884233Y-119906369D01*
X181901771Y-119900408D01*
X181911987Y-119897620D01*
X181913842Y-119897556D01*
X181919358Y-119900901D01*
X181932262Y-119909348D01*
X181951573Y-119922236D01*
X181976312Y-119938906D01*
X182005498Y-119958697D01*
X182038151Y-119980948D01*
X182072582Y-120004512D01*
X182107797Y-120028487D01*
X182140662Y-120050526D01*
X182170174Y-120069982D01*
X182195331Y-120086209D01*
X182215130Y-120098558D01*
X182228568Y-120106383D01*
X182234588Y-120109040D01*
X182240258Y-120105537D01*
X182252017Y-120095662D01*
X182268914Y-120080363D01*
X182289997Y-120060590D01*
X182314314Y-120037290D01*
X182340912Y-120011414D01*
X182368838Y-119983908D01*
X182397142Y-119955723D01*
X182424870Y-119927807D01*
X182451071Y-119901109D01*
X182474792Y-119876578D01*
X182495081Y-119855162D01*
X182510985Y-119837810D01*
X182521554Y-119825471D01*
X182525834Y-119819094D01*
X182525880Y-119818792D01*
X182523089Y-119812917D01*
X182515148Y-119799690D01*
X182502705Y-119780102D01*
X182486406Y-119755147D01*
X182466900Y-119725814D01*
X182444834Y-119693098D01*
X182421740Y-119659274D01*
X182397807Y-119624192D01*
X182375813Y-119591493D01*
X182356405Y-119562179D01*
X182340232Y-119537247D01*
X182327942Y-119517696D01*
X182320183Y-119504527D01*
X182317600Y-119498812D01*
X182319920Y-119491386D01*
X182326305Y-119476894D01*
X182335890Y-119457157D01*
X182347810Y-119433991D01*
X182353481Y-119423350D01*
X182366747Y-119397800D01*
X182377375Y-119375514D01*
X182384622Y-119358172D01*
X182387744Y-119347456D01*
X182387771Y-119345823D01*
X182386377Y-119343235D01*
X182382452Y-119339874D01*
X182375381Y-119335467D01*
X182364547Y-119329738D01*
X182349334Y-119322414D01*
X182329125Y-119313220D01*
X182303305Y-119301884D01*
X182271257Y-119288129D01*
X182232365Y-119271684D01*
X182186012Y-119252272D01*
X182131582Y-119229620D01*
X182068459Y-119203454D01*
X182057359Y-119198860D01*
X182002528Y-119176257D01*
X181950342Y-119154911D01*
X181901575Y-119135128D01*
X181856998Y-119117213D01*
X181817386Y-119101473D01*
X181783510Y-119088212D01*
X181756143Y-119077736D01*
X181736060Y-119070352D01*
X181724031Y-119066364D01*
X181720809Y-119065760D01*
X181714897Y-119070949D01*
X181704827Y-119082723D01*
X181692102Y-119099234D01*
X181680629Y-119115173D01*
X181649570Y-119157327D01*
X181620231Y-119191753D01*
X181590682Y-119220203D01*
X181558997Y-119244432D01*
X181523247Y-119266194D01*
X181502918Y-119276863D01*
X181444488Y-119300756D01*
X181384158Y-119315076D01*
X181322953Y-119319979D01*
X181261898Y-119315623D01*
X181202019Y-119302163D01*
X181144342Y-119279756D01*
X181089891Y-119248559D01*
X181039692Y-119208727D01*
X181036411Y-119205664D01*
X180992833Y-119158017D01*
X180957422Y-119104808D01*
X180929755Y-119045354D01*
X180919807Y-119016660D01*
X180914974Y-118999933D01*
X180911632Y-118984165D01*
X180909519Y-118966854D01*
X180908373Y-118945497D01*
X180907935Y-118917593D01*
X180907900Y-118902540D01*
X180908110Y-118870915D01*
X180908916Y-118846936D01*
X180910578Y-118828093D01*
X180913357Y-118811877D01*
X180917516Y-118795778D01*
X180919802Y-118788240D01*
X180944205Y-118726246D01*
X180976690Y-118669961D01*
X181016763Y-118619969D01*
X181063933Y-118576854D01*
X181117707Y-118541201D01*
X181136500Y-118531329D01*
X181183357Y-118510756D01*
X181227726Y-118497234D01*
X181273443Y-118489860D01*
X181321920Y-118487727D01*
X181386989Y-118492586D01*
X181449065Y-118506992D01*
X181507510Y-118530688D01*
X181561687Y-118563416D01*
X181609975Y-118603955D01*
X181626971Y-118622140D01*
X181646791Y-118645762D01*
X181667052Y-118671748D01*
X181685368Y-118697023D01*
X181699354Y-118718514D01*
X181700883Y-118721139D01*
X181709785Y-118732832D01*
X181719264Y-118739872D01*
X181720648Y-118740325D01*
X181727322Y-118738872D01*
X181742833Y-118733641D01*
X181766671Y-118724832D01*
X181798326Y-118712647D01*
X181837287Y-118697287D01*
X181883043Y-118678953D01*
X181935085Y-118657846D01*
X181992901Y-118634166D01*
X182049679Y-118610728D01*
X182103781Y-118588300D01*
X182155286Y-118566914D01*
X182203399Y-118546903D01*
X182247325Y-118528599D01*
X182286268Y-118512334D01*
X182319433Y-118498442D01*
X182346026Y-118487253D01*
X182365249Y-118479102D01*
X182376309Y-118474319D01*
X182378609Y-118473253D01*
X182386716Y-118465020D01*
X182388720Y-118458211D01*
X182386394Y-118450498D01*
X182379995Y-118435745D01*
X182370387Y-118415790D01*
X182358437Y-118392470D01*
X182352672Y-118381642D01*
X182337192Y-118351834D01*
X182326189Y-118328316D01*
X182320007Y-118311875D01*
X182318837Y-118303822D01*
X182322269Y-118296680D01*
X182330700Y-118282538D01*
X182343286Y-118262709D01*
X182359184Y-118238506D01*
X182377551Y-118211241D01*
X182389461Y-118193880D01*
X182421822Y-118146962D01*
X182448815Y-118107682D01*
X182470892Y-118075352D01*
X182488506Y-118049281D01*
X182502109Y-118028781D01*
X182512155Y-118013163D01*
X182519097Y-118001739D01*
X182523388Y-117993819D01*
X182525480Y-117988714D01*
X182525880Y-117986387D01*
X182522399Y-117981121D01*
X182512478Y-117969535D01*
X182496897Y-117952460D01*
X182476437Y-117930721D01*
X182451880Y-117905148D01*
X182424006Y-117876568D01*
X182393597Y-117845809D01*
X182387541Y-117839731D01*
X182356470Y-117808736D01*
X182327382Y-117780010D01*
X182301112Y-117754357D01*
X182278494Y-117732577D01*
X182260363Y-117715473D01*
X182247552Y-117703847D01*
X182240896Y-117698501D01*
X182240413Y-117698266D01*
X182237436Y-117697367D01*
X182234393Y-117697052D01*
X182230460Y-117697835D01*
X182224812Y-117700226D01*
X182216624Y-117704737D01*
X182205072Y-117711879D01*
X182189330Y-117722165D01*
X182168575Y-117736105D01*
X182141980Y-117754212D01*
X182108721Y-117776996D01*
X182067973Y-117804969D01*
X182064266Y-117807515D01*
X182029625Y-117831161D01*
X181997438Y-117852865D01*
X181968706Y-117871973D01*
X181944428Y-117887831D01*
X181925605Y-117899785D01*
X181913237Y-117907181D01*
X181908469Y-117909400D01*
X181902070Y-117907571D01*
X181887455Y-117902390D01*
X181865826Y-117894314D01*
X181838385Y-117883802D01*
X181806333Y-117871312D01*
X181770874Y-117857300D01*
X181753307Y-117850294D01*
X181709314Y-117832557D01*
X181674051Y-117818005D01*
X181646727Y-117806276D01*
X181626551Y-117797006D01*
X181612734Y-117789833D01*
X181604485Y-117784394D01*
X181601059Y-117780444D01*
X181599121Y-117773085D01*
X181595609Y-117756936D01*
X181590762Y-117733202D01*
X181584819Y-117703091D01*
X181578018Y-117667809D01*
X181570597Y-117628562D01*
X181563414Y-117589921D01*
X181555616Y-117548281D01*
X181548154Y-117509669D01*
X181541273Y-117475261D01*
X181535217Y-117446230D01*
X181530232Y-117423751D01*
X181526560Y-117408998D01*
X181524531Y-117403231D01*
X181521360Y-117401433D01*
X181514541Y-117399961D01*
X181503211Y-117398785D01*
X181486509Y-117397877D01*
X181463571Y-117397207D01*
X181433536Y-117396746D01*
X181395541Y-117396465D01*
X181348724Y-117396336D01*
X181318875Y-117396320D01*
X181118954Y-117396320D01*
X181111902Y-117407750D01*
X181109400Y-117415237D01*
X181105372Y-117431536D01*
X181100066Y-117455455D01*
X181093732Y-117485802D01*
X181086617Y-117521384D01*
X181078971Y-117561009D01*
X181071042Y-117603486D01*
X181070838Y-117604600D01*
X181062950Y-117646876D01*
X181055374Y-117686108D01*
X181048352Y-117721145D01*
X181042126Y-117750836D01*
X181036937Y-117774030D01*
X181033026Y-117789576D01*
X181030637Y-117796323D01*
X181030566Y-117796405D01*
X181024301Y-117800090D01*
X181010106Y-117807022D01*
X180989428Y-117816577D01*
X180963713Y-117828134D01*
X180934406Y-117841070D01*
X180902954Y-117854763D01*
X180870802Y-117868591D01*
X180839397Y-117881931D01*
X180810185Y-117894161D01*
X180784611Y-117904659D01*
X180764123Y-117912803D01*
X180750165Y-117917969D01*
X180744394Y-117919560D01*
X180738575Y-117916767D01*
X180725372Y-117908811D01*
X180705749Y-117896319D01*
X180680667Y-117879924D01*
X180651089Y-117860254D01*
X180617976Y-117837939D01*
X180582293Y-117813611D01*
X180576655Y-117809742D01*
X180540538Y-117785048D01*
X180506750Y-117762155D01*
X180476274Y-117741713D01*
X180450088Y-117724371D01*
X180429175Y-117710778D01*
X180414516Y-117701583D01*
X180407090Y-117697434D01*
X180406684Y-117697293D01*
X180402579Y-117698054D01*
X180395668Y-117702214D01*
X180385355Y-117710317D01*
X180371048Y-117722905D01*
X180352154Y-117740521D01*
X180328078Y-117763708D01*
X180298226Y-117793008D01*
X180262005Y-117828964D01*
X180254749Y-117836199D01*
X180218889Y-117872218D01*
X180187378Y-117904356D01*
X180160731Y-117932068D01*
X180139461Y-117954806D01*
X180124081Y-117972023D01*
X180115105Y-117983174D01*
X180112880Y-117987325D01*
X180115672Y-117993560D01*
X180123627Y-118007156D01*
X180136110Y-118027133D01*
X180152487Y-118052508D01*
X180172122Y-118082300D01*
X180194382Y-118115526D01*
X180218631Y-118151205D01*
X180221289Y-118155086D01*
X180245928Y-118191100D01*
X180268914Y-118224822D01*
X180289573Y-118255253D01*
X180307230Y-118281395D01*
X180321211Y-118302248D01*
X180330841Y-118316815D01*
X180335446Y-118324096D01*
X180335587Y-118324352D01*
X180336941Y-118328805D01*
X180336744Y-118335339D01*
X180334631Y-118345059D01*
X180330234Y-118359068D01*
X180323187Y-118378471D01*
X180313124Y-118404373D01*
X180299677Y-118437877D01*
X180290068Y-118461512D01*
X180272981Y-118503366D01*
X180259243Y-118536788D01*
X180248382Y-118562760D01*
X180239926Y-118582264D01*
X180233403Y-118596281D01*
X180228340Y-118605795D01*
X180224266Y-118611786D01*
X180220708Y-118615236D01*
X180217193Y-118617128D01*
X180214840Y-118617945D01*
X180207736Y-118619560D01*
X180191805Y-118622793D01*
X180168215Y-118627420D01*
X180138129Y-118633216D01*
X180102714Y-118639958D01*
X180063135Y-118647420D01*
X180020558Y-118655378D01*
X180016168Y-118656195D01*
X179973481Y-118664252D01*
X179933799Y-118671968D01*
X179898266Y-118679104D01*
X179868028Y-118685420D01*
X179844228Y-118690676D01*
X179828012Y-118694633D01*
X179820524Y-118697050D01*
X179820283Y-118697212D01*
X179818437Y-118700242D01*
X179816928Y-118706563D01*
X179815727Y-118717063D01*
X179814801Y-118732633D01*
X179814121Y-118754159D01*
X179813657Y-118782532D01*
X179813376Y-118818639D01*
X179813250Y-118863370D01*
X179813237Y-118901892D01*
X179813358Y-118946025D01*
X179813358Y-118946025D01*
G37*
X179813358Y-118946025D02*
X179813668Y-118987086D01*
X179814144Y-119023939D01*
X179814763Y-119055448D01*
X179815502Y-119080478D01*
X179816337Y-119097893D01*
X179817244Y-119106557D01*
X179817471Y-119107210D01*
X179823471Y-119109787D01*
X179838787Y-119113922D01*
X179862721Y-119119466D01*
X179894573Y-119126268D01*
X179933644Y-119134179D01*
X179979237Y-119143047D01*
X180020850Y-119150901D01*
X180064601Y-119159151D01*
X180105265Y-119167001D01*
X180141748Y-119174225D01*
X180172957Y-119180599D01*
X180197798Y-119185898D01*
X180215177Y-119189897D01*
X180224000Y-119192372D01*
X180224834Y-119192802D01*
X180228371Y-119199048D01*
X180234916Y-119213151D01*
X180243889Y-119233676D01*
X180254710Y-119259190D01*
X180266800Y-119288258D01*
X180279578Y-119319446D01*
X180292466Y-119351320D01*
X180304882Y-119382447D01*
X180316248Y-119411392D01*
X180325983Y-119436721D01*
X180333508Y-119456999D01*
X180338242Y-119470794D01*
X180339607Y-119476671D01*
X180339605Y-119476678D01*
X180336333Y-119481988D01*
X180327928Y-119494724D01*
X180315025Y-119513948D01*
X180298257Y-119538724D01*
X180278260Y-119568114D01*
X180255669Y-119601180D01*
X180231119Y-119636986D01*
X180225162Y-119645656D01*
X180200277Y-119682085D01*
X180177306Y-119716148D01*
X180156874Y-119746886D01*
X180139606Y-119773339D01*
X180126126Y-119794549D01*
X180117059Y-119809556D01*
X180113028Y-119817401D01*
X180112879Y-119818086D01*
X180116391Y-119823807D01*
X180126292Y-119835602D01*
X180141632Y-119852520D01*
X180161458Y-119873609D01*
X180184820Y-119897919D01*
X180210767Y-119924500D01*
X180238347Y-119952400D01*
X180266609Y-119980669D01*
X180294603Y-120008355D01*
X180321376Y-120034508D01*
X180345978Y-120058178D01*
X180367458Y-120078412D01*
X180384864Y-120094261D01*
X180397246Y-120104774D01*
X180403651Y-120108999D01*
X180403938Y-120109040D01*
X180410058Y-120106243D01*
X180423530Y-120098279D01*
X180443372Y-120085789D01*
X180468598Y-120069410D01*
X180498226Y-120049783D01*
X180531269Y-120027547D01*
X180566745Y-120003341D01*
X180569005Y-120001788D01*
X180604726Y-119977294D01*
X180638139Y-119954499D01*
X180668244Y-119934080D01*
X180694038Y-119916708D01*
X180714521Y-119903060D01*
X180728692Y-119893807D01*
X180735550Y-119889626D01*
X180735670Y-119889568D01*
X180740391Y-119888784D01*
X180748231Y-119889912D01*
X180760143Y-119893299D01*
X180777084Y-119899292D01*
X180800007Y-119908241D01*
X180829867Y-119920491D01*
X180867619Y-119936390D01*
X180887252Y-119944749D01*
X180924852Y-119961018D01*
X180958510Y-119976011D01*
X180987168Y-119989231D01*
X181009772Y-120000175D01*
X181025265Y-120008346D01*
X181032592Y-120013243D01*
X181032948Y-120013710D01*
X181034928Y-120020560D01*
X181038502Y-120036248D01*
X181043434Y-120059616D01*
X181049491Y-120089508D01*
X181056439Y-120124767D01*
X181064044Y-120164236D01*
X181072071Y-120206757D01*
X181072940Y-120211409D01*
X181082180Y-120260146D01*
X181090621Y-120303053D01*
X181098102Y-120339390D01*
X181104463Y-120368418D01*
X181109544Y-120389397D01*
X181113184Y-120401585D01*
X181114714Y-120404451D01*
X181121096Y-120405372D01*
X181136503Y-120406225D01*
X181159798Y-120406989D01*
X181189847Y-120407638D01*
X181225514Y-120408151D01*
X181265663Y-120408503D01*
X181309159Y-120408671D01*
X181320027Y-120408682D01*
X181371548Y-120408649D01*
X181413801Y-120408486D01*
X181447680Y-120408162D01*
X181474077Y-120407647D01*
X181493884Y-120406908D01*
X181507996Y-120405916D01*
X181517303Y-120404639D01*
X181522699Y-120403046D01*
X181524741Y-120401595D01*
X181526999Y-120395095D01*
X181530799Y-120379763D01*
X181535898Y-120356765D01*
X181542050Y-120327271D01*
X181549013Y-120292450D01*
X181556543Y-120253470D01*
X181564236Y-120212365D01*
X181572897Y-120166210D01*
X181580981Y-120124798D01*
X181588286Y-120089062D01*
X181594611Y-120059937D01*
X181599758Y-120038354D01*
X181603525Y-120025249D01*
X181605133Y-120021726D01*
X181611585Y-120017704D01*
X181625987Y-120010714D01*
X181646948Y-120001314D01*
X181673082Y-119990063D01*
X181703000Y-119977519D01*
X181735313Y-119964240D01*
X181768634Y-119950785D01*
X181801575Y-119937712D01*
X181832747Y-119925580D01*
X181860763Y-119914946D01*
X181884233Y-119906369D01*
X181901771Y-119900408D01*
X181911987Y-119897620D01*
X181913842Y-119897556D01*
X181919358Y-119900901D01*
X181932262Y-119909348D01*
X181951573Y-119922236D01*
X181976312Y-119938906D01*
X182005498Y-119958697D01*
X182038151Y-119980948D01*
X182072582Y-120004512D01*
X182107797Y-120028487D01*
X182140662Y-120050526D01*
X182170174Y-120069982D01*
X182195331Y-120086209D01*
X182215130Y-120098558D01*
X182228568Y-120106383D01*
X182234588Y-120109040D01*
X182240258Y-120105537D01*
X182252017Y-120095662D01*
X182268914Y-120080363D01*
X182289997Y-120060590D01*
X182314314Y-120037290D01*
X182340912Y-120011414D01*
X182368838Y-119983908D01*
X182397142Y-119955723D01*
X182424870Y-119927807D01*
X182451071Y-119901109D01*
X182474792Y-119876578D01*
X182495081Y-119855162D01*
X182510985Y-119837810D01*
X182521554Y-119825471D01*
X182525834Y-119819094D01*
X182525880Y-119818792D01*
X182523089Y-119812917D01*
X182515148Y-119799690D01*
X182502705Y-119780102D01*
X182486406Y-119755147D01*
X182466900Y-119725814D01*
X182444834Y-119693098D01*
X182421740Y-119659274D01*
X182397807Y-119624192D01*
X182375813Y-119591493D01*
X182356405Y-119562179D01*
X182340232Y-119537247D01*
X182327942Y-119517696D01*
X182320183Y-119504527D01*
X182317600Y-119498812D01*
X182319920Y-119491386D01*
X182326305Y-119476894D01*
X182335890Y-119457157D01*
X182347810Y-119433991D01*
X182353481Y-119423350D01*
X182366747Y-119397800D01*
X182377375Y-119375514D01*
X182384622Y-119358172D01*
X182387744Y-119347456D01*
X182387771Y-119345823D01*
X182386377Y-119343235D01*
X182382452Y-119339874D01*
X182375381Y-119335467D01*
X182364547Y-119329738D01*
X182349334Y-119322414D01*
X182329125Y-119313220D01*
X182303305Y-119301884D01*
X182271257Y-119288129D01*
X182232365Y-119271684D01*
X182186012Y-119252272D01*
X182131582Y-119229620D01*
X182068459Y-119203454D01*
X182057359Y-119198860D01*
X182002528Y-119176257D01*
X181950342Y-119154911D01*
X181901575Y-119135128D01*
X181856998Y-119117213D01*
X181817386Y-119101473D01*
X181783510Y-119088212D01*
X181756143Y-119077736D01*
X181736060Y-119070352D01*
X181724031Y-119066364D01*
X181720809Y-119065760D01*
X181714897Y-119070949D01*
X181704827Y-119082723D01*
X181692102Y-119099234D01*
X181680629Y-119115173D01*
X181649570Y-119157327D01*
X181620231Y-119191753D01*
X181590682Y-119220203D01*
X181558997Y-119244432D01*
X181523247Y-119266194D01*
X181502918Y-119276863D01*
X181444488Y-119300756D01*
X181384158Y-119315076D01*
X181322953Y-119319979D01*
X181261898Y-119315623D01*
X181202019Y-119302163D01*
X181144342Y-119279756D01*
X181089891Y-119248559D01*
X181039692Y-119208727D01*
X181036411Y-119205664D01*
X180992833Y-119158017D01*
X180957422Y-119104808D01*
X180929755Y-119045354D01*
X180919807Y-119016660D01*
X180914974Y-118999933D01*
X180911632Y-118984165D01*
X180909519Y-118966854D01*
X180908373Y-118945497D01*
X180907935Y-118917593D01*
X180907900Y-118902540D01*
X180908110Y-118870915D01*
X180908916Y-118846936D01*
X180910578Y-118828093D01*
X180913357Y-118811877D01*
X180917516Y-118795778D01*
X180919802Y-118788240D01*
X180944205Y-118726246D01*
X180976690Y-118669961D01*
X181016763Y-118619969D01*
X181063933Y-118576854D01*
X181117707Y-118541201D01*
X181136500Y-118531329D01*
X181183357Y-118510756D01*
X181227726Y-118497234D01*
X181273443Y-118489860D01*
X181321920Y-118487727D01*
X181386989Y-118492586D01*
X181449065Y-118506992D01*
X181507510Y-118530688D01*
X181561687Y-118563416D01*
X181609975Y-118603955D01*
X181626971Y-118622140D01*
X181646791Y-118645762D01*
X181667052Y-118671748D01*
X181685368Y-118697023D01*
X181699354Y-118718514D01*
X181700883Y-118721139D01*
X181709785Y-118732832D01*
X181719264Y-118739872D01*
X181720648Y-118740325D01*
X181727322Y-118738872D01*
X181742833Y-118733641D01*
X181766671Y-118724832D01*
X181798326Y-118712647D01*
X181837287Y-118697287D01*
X181883043Y-118678953D01*
X181935085Y-118657846D01*
X181992901Y-118634166D01*
X182049679Y-118610728D01*
X182103781Y-118588300D01*
X182155286Y-118566914D01*
X182203399Y-118546903D01*
X182247325Y-118528599D01*
X182286268Y-118512334D01*
X182319433Y-118498442D01*
X182346026Y-118487253D01*
X182365249Y-118479102D01*
X182376309Y-118474319D01*
X182378609Y-118473253D01*
X182386716Y-118465020D01*
X182388720Y-118458211D01*
X182386394Y-118450498D01*
X182379995Y-118435745D01*
X182370387Y-118415790D01*
X182358437Y-118392470D01*
X182352672Y-118381642D01*
X182337192Y-118351834D01*
X182326189Y-118328316D01*
X182320007Y-118311875D01*
X182318837Y-118303822D01*
X182322269Y-118296680D01*
X182330700Y-118282538D01*
X182343286Y-118262709D01*
X182359184Y-118238506D01*
X182377551Y-118211241D01*
X182389461Y-118193880D01*
X182421822Y-118146962D01*
X182448815Y-118107682D01*
X182470892Y-118075352D01*
X182488506Y-118049281D01*
X182502109Y-118028781D01*
X182512155Y-118013163D01*
X182519097Y-118001739D01*
X182523388Y-117993819D01*
X182525480Y-117988714D01*
X182525880Y-117986387D01*
X182522399Y-117981121D01*
X182512478Y-117969535D01*
X182496897Y-117952460D01*
X182476437Y-117930721D01*
X182451880Y-117905148D01*
X182424006Y-117876568D01*
X182393597Y-117845809D01*
X182387541Y-117839731D01*
X182356470Y-117808736D01*
X182327382Y-117780010D01*
X182301112Y-117754357D01*
X182278494Y-117732577D01*
X182260363Y-117715473D01*
X182247552Y-117703847D01*
X182240896Y-117698501D01*
X182240413Y-117698266D01*
X182237436Y-117697367D01*
X182234393Y-117697052D01*
X182230460Y-117697835D01*
X182224812Y-117700226D01*
X182216624Y-117704737D01*
X182205072Y-117711879D01*
X182189330Y-117722165D01*
X182168575Y-117736105D01*
X182141980Y-117754212D01*
X182108721Y-117776996D01*
X182067973Y-117804969D01*
X182064266Y-117807515D01*
X182029625Y-117831161D01*
X181997438Y-117852865D01*
X181968706Y-117871973D01*
X181944428Y-117887831D01*
X181925605Y-117899785D01*
X181913237Y-117907181D01*
X181908469Y-117909400D01*
X181902070Y-117907571D01*
X181887455Y-117902390D01*
X181865826Y-117894314D01*
X181838385Y-117883802D01*
X181806333Y-117871312D01*
X181770874Y-117857300D01*
X181753307Y-117850294D01*
X181709314Y-117832557D01*
X181674051Y-117818005D01*
X181646727Y-117806276D01*
X181626551Y-117797006D01*
X181612734Y-117789833D01*
X181604485Y-117784394D01*
X181601059Y-117780444D01*
X181599121Y-117773085D01*
X181595609Y-117756936D01*
X181590762Y-117733202D01*
X181584819Y-117703091D01*
X181578018Y-117667809D01*
X181570597Y-117628562D01*
X181563414Y-117589921D01*
X181555616Y-117548281D01*
X181548154Y-117509669D01*
X181541273Y-117475261D01*
X181535217Y-117446230D01*
X181530232Y-117423751D01*
X181526560Y-117408998D01*
X181524531Y-117403231D01*
X181521360Y-117401433D01*
X181514541Y-117399961D01*
X181503211Y-117398785D01*
X181486509Y-117397877D01*
X181463571Y-117397207D01*
X181433536Y-117396746D01*
X181395541Y-117396465D01*
X181348724Y-117396336D01*
X181318875Y-117396320D01*
X181118954Y-117396320D01*
X181111902Y-117407750D01*
X181109400Y-117415237D01*
X181105372Y-117431536D01*
X181100066Y-117455455D01*
X181093732Y-117485802D01*
X181086617Y-117521384D01*
X181078971Y-117561009D01*
X181071042Y-117603486D01*
X181070838Y-117604600D01*
X181062950Y-117646876D01*
X181055374Y-117686108D01*
X181048352Y-117721145D01*
X181042126Y-117750836D01*
X181036937Y-117774030D01*
X181033026Y-117789576D01*
X181030637Y-117796323D01*
X181030566Y-117796405D01*
X181024301Y-117800090D01*
X181010106Y-117807022D01*
X180989428Y-117816577D01*
X180963713Y-117828134D01*
X180934406Y-117841070D01*
X180902954Y-117854763D01*
X180870802Y-117868591D01*
X180839397Y-117881931D01*
X180810185Y-117894161D01*
X180784611Y-117904659D01*
X180764123Y-117912803D01*
X180750165Y-117917969D01*
X180744394Y-117919560D01*
X180738575Y-117916767D01*
X180725372Y-117908811D01*
X180705749Y-117896319D01*
X180680667Y-117879924D01*
X180651089Y-117860254D01*
X180617976Y-117837939D01*
X180582293Y-117813611D01*
X180576655Y-117809742D01*
X180540538Y-117785048D01*
X180506750Y-117762155D01*
X180476274Y-117741713D01*
X180450088Y-117724371D01*
X180429175Y-117710778D01*
X180414516Y-117701583D01*
X180407090Y-117697434D01*
X180406684Y-117697293D01*
X180402579Y-117698054D01*
X180395668Y-117702214D01*
X180385355Y-117710317D01*
X180371048Y-117722905D01*
X180352154Y-117740521D01*
X180328078Y-117763708D01*
X180298226Y-117793008D01*
X180262005Y-117828964D01*
X180254749Y-117836199D01*
X180218889Y-117872218D01*
X180187378Y-117904356D01*
X180160731Y-117932068D01*
X180139461Y-117954806D01*
X180124081Y-117972023D01*
X180115105Y-117983174D01*
X180112880Y-117987325D01*
X180115672Y-117993560D01*
X180123627Y-118007156D01*
X180136110Y-118027133D01*
X180152487Y-118052508D01*
X180172122Y-118082300D01*
X180194382Y-118115526D01*
X180218631Y-118151205D01*
X180221289Y-118155086D01*
X180245928Y-118191100D01*
X180268914Y-118224822D01*
X180289573Y-118255253D01*
X180307230Y-118281395D01*
X180321211Y-118302248D01*
X180330841Y-118316815D01*
X180335446Y-118324096D01*
X180335587Y-118324352D01*
X180336941Y-118328805D01*
X180336744Y-118335339D01*
X180334631Y-118345059D01*
X180330234Y-118359068D01*
X180323187Y-118378471D01*
X180313124Y-118404373D01*
X180299677Y-118437877D01*
X180290068Y-118461512D01*
X180272981Y-118503366D01*
X180259243Y-118536788D01*
X180248382Y-118562760D01*
X180239926Y-118582264D01*
X180233403Y-118596281D01*
X180228340Y-118605795D01*
X180224266Y-118611786D01*
X180220708Y-118615236D01*
X180217193Y-118617128D01*
X180214840Y-118617945D01*
X180207736Y-118619560D01*
X180191805Y-118622793D01*
X180168215Y-118627420D01*
X180138129Y-118633216D01*
X180102714Y-118639958D01*
X180063135Y-118647420D01*
X180020558Y-118655378D01*
X180016168Y-118656195D01*
X179973481Y-118664252D01*
X179933799Y-118671968D01*
X179898266Y-118679104D01*
X179868028Y-118685420D01*
X179844228Y-118690676D01*
X179828012Y-118694633D01*
X179820524Y-118697050D01*
X179820283Y-118697212D01*
X179818437Y-118700242D01*
X179816928Y-118706563D01*
X179815727Y-118717063D01*
X179814801Y-118732633D01*
X179814121Y-118754159D01*
X179813657Y-118782532D01*
X179813376Y-118818639D01*
X179813250Y-118863370D01*
X179813237Y-118901892D01*
X179813358Y-118946025D01*
G36*
X154413358Y-118946025D02*
G01*
X154413668Y-118987086D01*
X154414144Y-119023939D01*
X154414763Y-119055448D01*
X154415502Y-119080478D01*
X154416337Y-119097893D01*
X154417244Y-119106557D01*
X154417471Y-119107210D01*
X154423471Y-119109787D01*
X154438787Y-119113922D01*
X154462721Y-119119466D01*
X154494573Y-119126268D01*
X154533644Y-119134179D01*
X154579237Y-119143047D01*
X154620850Y-119150901D01*
X154664601Y-119159151D01*
X154705265Y-119167001D01*
X154741748Y-119174225D01*
X154772957Y-119180599D01*
X154797798Y-119185898D01*
X154815177Y-119189897D01*
X154824000Y-119192372D01*
X154824834Y-119192802D01*
X154828371Y-119199048D01*
X154834916Y-119213151D01*
X154843889Y-119233676D01*
X154854710Y-119259190D01*
X154866800Y-119288258D01*
X154879578Y-119319446D01*
X154892466Y-119351320D01*
X154904882Y-119382447D01*
X154916248Y-119411392D01*
X154925983Y-119436721D01*
X154933508Y-119456999D01*
X154938242Y-119470794D01*
X154939607Y-119476671D01*
X154939605Y-119476678D01*
X154936333Y-119481988D01*
X154927928Y-119494724D01*
X154915025Y-119513948D01*
X154898257Y-119538724D01*
X154878260Y-119568114D01*
X154855669Y-119601180D01*
X154831119Y-119636986D01*
X154825162Y-119645656D01*
X154800277Y-119682085D01*
X154777306Y-119716148D01*
X154756874Y-119746886D01*
X154739606Y-119773339D01*
X154726126Y-119794549D01*
X154717059Y-119809556D01*
X154713028Y-119817401D01*
X154712879Y-119818086D01*
X154716391Y-119823807D01*
X154726292Y-119835602D01*
X154741632Y-119852520D01*
X154761458Y-119873609D01*
X154784820Y-119897919D01*
X154810767Y-119924500D01*
X154838347Y-119952400D01*
X154866609Y-119980669D01*
X154894603Y-120008355D01*
X154921376Y-120034508D01*
X154945978Y-120058178D01*
X154967458Y-120078412D01*
X154984864Y-120094261D01*
X154997246Y-120104774D01*
X155003651Y-120108999D01*
X155003938Y-120109040D01*
X155010058Y-120106243D01*
X155023530Y-120098279D01*
X155043372Y-120085789D01*
X155068598Y-120069410D01*
X155098226Y-120049783D01*
X155131269Y-120027547D01*
X155166745Y-120003341D01*
X155169005Y-120001788D01*
X155204726Y-119977294D01*
X155238139Y-119954499D01*
X155268244Y-119934080D01*
X155294038Y-119916708D01*
X155314521Y-119903060D01*
X155328692Y-119893807D01*
X155335550Y-119889626D01*
X155335670Y-119889568D01*
X155340391Y-119888784D01*
X155348231Y-119889912D01*
X155360143Y-119893299D01*
X155377084Y-119899292D01*
X155400007Y-119908241D01*
X155429867Y-119920491D01*
X155467619Y-119936390D01*
X155487252Y-119944749D01*
X155524852Y-119961018D01*
X155558510Y-119976011D01*
X155587168Y-119989231D01*
X155609772Y-120000175D01*
X155625265Y-120008346D01*
X155632592Y-120013243D01*
X155632948Y-120013710D01*
X155634928Y-120020560D01*
X155638502Y-120036248D01*
X155643434Y-120059616D01*
X155649491Y-120089508D01*
X155656439Y-120124767D01*
X155664044Y-120164236D01*
X155672071Y-120206757D01*
X155672940Y-120211409D01*
X155682180Y-120260146D01*
X155690621Y-120303053D01*
X155698102Y-120339390D01*
X155704463Y-120368418D01*
X155709544Y-120389397D01*
X155713184Y-120401585D01*
X155714714Y-120404451D01*
X155721096Y-120405372D01*
X155736503Y-120406225D01*
X155759798Y-120406989D01*
X155789847Y-120407638D01*
X155825514Y-120408151D01*
X155865663Y-120408503D01*
X155909159Y-120408671D01*
X155920027Y-120408682D01*
X155971548Y-120408649D01*
X156013801Y-120408486D01*
X156047680Y-120408162D01*
X156074077Y-120407647D01*
X156093884Y-120406908D01*
X156107996Y-120405916D01*
X156117303Y-120404639D01*
X156122699Y-120403046D01*
X156124741Y-120401595D01*
X156126999Y-120395095D01*
X156130799Y-120379763D01*
X156135898Y-120356765D01*
X156142050Y-120327271D01*
X156149013Y-120292450D01*
X156156543Y-120253470D01*
X156164236Y-120212365D01*
X156172897Y-120166210D01*
X156180981Y-120124798D01*
X156188286Y-120089062D01*
X156194611Y-120059937D01*
X156199758Y-120038354D01*
X156203525Y-120025249D01*
X156205133Y-120021726D01*
X156211585Y-120017704D01*
X156225987Y-120010714D01*
X156246948Y-120001314D01*
X156273082Y-119990063D01*
X156303000Y-119977519D01*
X156335313Y-119964240D01*
X156368634Y-119950785D01*
X156401575Y-119937712D01*
X156432747Y-119925580D01*
X156460763Y-119914946D01*
X156484233Y-119906369D01*
X156501771Y-119900408D01*
X156511987Y-119897620D01*
X156513842Y-119897556D01*
X156519358Y-119900901D01*
X156532262Y-119909348D01*
X156551573Y-119922236D01*
X156576312Y-119938906D01*
X156605498Y-119958697D01*
X156638151Y-119980948D01*
X156672582Y-120004512D01*
X156707797Y-120028487D01*
X156740662Y-120050526D01*
X156770174Y-120069982D01*
X156795331Y-120086209D01*
X156815130Y-120098558D01*
X156828568Y-120106383D01*
X156834588Y-120109040D01*
X156840258Y-120105537D01*
X156852017Y-120095662D01*
X156868914Y-120080363D01*
X156889997Y-120060590D01*
X156914314Y-120037290D01*
X156940912Y-120011414D01*
X156968838Y-119983908D01*
X156997142Y-119955723D01*
X157024870Y-119927807D01*
X157051071Y-119901109D01*
X157074792Y-119876578D01*
X157095081Y-119855162D01*
X157110985Y-119837810D01*
X157121554Y-119825471D01*
X157125834Y-119819094D01*
X157125880Y-119818792D01*
X157123089Y-119812917D01*
X157115148Y-119799690D01*
X157102705Y-119780102D01*
X157086406Y-119755147D01*
X157066900Y-119725814D01*
X157044834Y-119693098D01*
X157021740Y-119659274D01*
X156997807Y-119624192D01*
X156975813Y-119591493D01*
X156956405Y-119562179D01*
X156940232Y-119537247D01*
X156927942Y-119517696D01*
X156920183Y-119504527D01*
X156917600Y-119498812D01*
X156919920Y-119491386D01*
X156926305Y-119476894D01*
X156935890Y-119457157D01*
X156947810Y-119433991D01*
X156953481Y-119423350D01*
X156966747Y-119397800D01*
X156977375Y-119375514D01*
X156984622Y-119358172D01*
X156987744Y-119347456D01*
X156987771Y-119345823D01*
X156986377Y-119343235D01*
X156982452Y-119339874D01*
X156975381Y-119335467D01*
X156964547Y-119329738D01*
X156949334Y-119322414D01*
X156929125Y-119313220D01*
X156903305Y-119301884D01*
X156871257Y-119288129D01*
X156832365Y-119271684D01*
X156786012Y-119252272D01*
X156731582Y-119229620D01*
X156668459Y-119203454D01*
X156657359Y-119198860D01*
X156602528Y-119176257D01*
X156550342Y-119154911D01*
X156501575Y-119135128D01*
X156456998Y-119117213D01*
X156417386Y-119101473D01*
X156383510Y-119088212D01*
X156356143Y-119077736D01*
X156336060Y-119070352D01*
X156324031Y-119066364D01*
X156320809Y-119065760D01*
X156314897Y-119070949D01*
X156304827Y-119082723D01*
X156292102Y-119099234D01*
X156280629Y-119115173D01*
X156249570Y-119157327D01*
X156220231Y-119191753D01*
X156190682Y-119220203D01*
X156158997Y-119244432D01*
X156123247Y-119266194D01*
X156102918Y-119276863D01*
X156044488Y-119300756D01*
X155984158Y-119315076D01*
X155922953Y-119319979D01*
X155861898Y-119315623D01*
X155802019Y-119302163D01*
X155744342Y-119279756D01*
X155689891Y-119248559D01*
X155639692Y-119208727D01*
X155636411Y-119205664D01*
X155592833Y-119158017D01*
X155557422Y-119104808D01*
X155529755Y-119045354D01*
X155519807Y-119016660D01*
X155514974Y-118999933D01*
X155511632Y-118984165D01*
X155509519Y-118966854D01*
X155508373Y-118945497D01*
X155507935Y-118917593D01*
X155507900Y-118902540D01*
X155508110Y-118870915D01*
X155508916Y-118846936D01*
X155510578Y-118828093D01*
X155513357Y-118811877D01*
X155517516Y-118795778D01*
X155519802Y-118788240D01*
X155544205Y-118726246D01*
X155576690Y-118669961D01*
X155616763Y-118619969D01*
X155663933Y-118576854D01*
X155717707Y-118541201D01*
X155736500Y-118531329D01*
X155783357Y-118510756D01*
X155827726Y-118497234D01*
X155873443Y-118489860D01*
X155921920Y-118487727D01*
X155986989Y-118492586D01*
X156049065Y-118506992D01*
X156107510Y-118530688D01*
X156161687Y-118563416D01*
X156209975Y-118603955D01*
X156226971Y-118622140D01*
X156246791Y-118645762D01*
X156267052Y-118671748D01*
X156285368Y-118697023D01*
X156299354Y-118718514D01*
X156300883Y-118721139D01*
X156309785Y-118732832D01*
X156319264Y-118739872D01*
X156320648Y-118740325D01*
X156327322Y-118738872D01*
X156342833Y-118733641D01*
X156366671Y-118724832D01*
X156398326Y-118712647D01*
X156437287Y-118697287D01*
X156483043Y-118678953D01*
X156535085Y-118657846D01*
X156592901Y-118634166D01*
X156649679Y-118610728D01*
X156703781Y-118588300D01*
X156755286Y-118566914D01*
X156803399Y-118546903D01*
X156847325Y-118528599D01*
X156886268Y-118512334D01*
X156919433Y-118498442D01*
X156946026Y-118487253D01*
X156965249Y-118479102D01*
X156976309Y-118474319D01*
X156978609Y-118473253D01*
X156986716Y-118465020D01*
X156988720Y-118458211D01*
X156986394Y-118450498D01*
X156979995Y-118435745D01*
X156970387Y-118415790D01*
X156958437Y-118392470D01*
X156952672Y-118381642D01*
X156937192Y-118351834D01*
X156926189Y-118328316D01*
X156920007Y-118311875D01*
X156918837Y-118303822D01*
X156922269Y-118296680D01*
X156930700Y-118282538D01*
X156943286Y-118262709D01*
X156959184Y-118238506D01*
X156977551Y-118211241D01*
X156989461Y-118193880D01*
X157021822Y-118146962D01*
X157048815Y-118107682D01*
X157070892Y-118075352D01*
X157088506Y-118049281D01*
X157102109Y-118028781D01*
X157112155Y-118013163D01*
X157119097Y-118001739D01*
X157123388Y-117993819D01*
X157125480Y-117988714D01*
X157125880Y-117986387D01*
X157122399Y-117981121D01*
X157112478Y-117969535D01*
X157096897Y-117952460D01*
X157076437Y-117930721D01*
X157051880Y-117905148D01*
X157024006Y-117876568D01*
X156993597Y-117845809D01*
X156987541Y-117839731D01*
X156956470Y-117808736D01*
X156927382Y-117780010D01*
X156901112Y-117754357D01*
X156878494Y-117732577D01*
X156860363Y-117715473D01*
X156847552Y-117703847D01*
X156840896Y-117698501D01*
X156840413Y-117698266D01*
X156837436Y-117697367D01*
X156834393Y-117697052D01*
X156830460Y-117697835D01*
X156824812Y-117700226D01*
X156816624Y-117704737D01*
X156805072Y-117711879D01*
X156789330Y-117722165D01*
X156768575Y-117736105D01*
X156741980Y-117754212D01*
X156708721Y-117776996D01*
X156667973Y-117804969D01*
X156664266Y-117807515D01*
X156629625Y-117831161D01*
X156597438Y-117852865D01*
X156568706Y-117871973D01*
X156544428Y-117887831D01*
X156525605Y-117899785D01*
X156513237Y-117907181D01*
X156508469Y-117909400D01*
X156502070Y-117907571D01*
X156487455Y-117902390D01*
X156465826Y-117894314D01*
X156438385Y-117883802D01*
X156406333Y-117871312D01*
X156370874Y-117857300D01*
X156353307Y-117850294D01*
X156309314Y-117832557D01*
X156274051Y-117818005D01*
X156246727Y-117806276D01*
X156226551Y-117797006D01*
X156212734Y-117789833D01*
X156204485Y-117784394D01*
X156201059Y-117780444D01*
X156199121Y-117773085D01*
X156195609Y-117756936D01*
X156190762Y-117733202D01*
X156184819Y-117703091D01*
X156178018Y-117667809D01*
X156170597Y-117628562D01*
X156163414Y-117589921D01*
X156155616Y-117548281D01*
X156148154Y-117509669D01*
X156141273Y-117475261D01*
X156135217Y-117446230D01*
X156130232Y-117423751D01*
X156126560Y-117408998D01*
X156124531Y-117403231D01*
X156121360Y-117401433D01*
X156114541Y-117399961D01*
X156103211Y-117398785D01*
X156086509Y-117397877D01*
X156063571Y-117397207D01*
X156033536Y-117396746D01*
X155995541Y-117396465D01*
X155948724Y-117396336D01*
X155918875Y-117396320D01*
X155718954Y-117396320D01*
X155711902Y-117407750D01*
X155709400Y-117415237D01*
X155705372Y-117431536D01*
X155700066Y-117455455D01*
X155693732Y-117485802D01*
X155686617Y-117521384D01*
X155678971Y-117561009D01*
X155671042Y-117603486D01*
X155670838Y-117604600D01*
X155662950Y-117646876D01*
X155655374Y-117686108D01*
X155648352Y-117721145D01*
X155642126Y-117750836D01*
X155636937Y-117774030D01*
X155633026Y-117789576D01*
X155630637Y-117796323D01*
X155630566Y-117796405D01*
X155624301Y-117800090D01*
X155610106Y-117807022D01*
X155589428Y-117816577D01*
X155563713Y-117828134D01*
X155534406Y-117841070D01*
X155502954Y-117854763D01*
X155470802Y-117868591D01*
X155439397Y-117881931D01*
X155410185Y-117894161D01*
X155384611Y-117904659D01*
X155364123Y-117912803D01*
X155350165Y-117917969D01*
X155344394Y-117919560D01*
X155338575Y-117916767D01*
X155325372Y-117908811D01*
X155305749Y-117896319D01*
X155280667Y-117879924D01*
X155251089Y-117860254D01*
X155217976Y-117837939D01*
X155182293Y-117813611D01*
X155176655Y-117809742D01*
X155140538Y-117785048D01*
X155106750Y-117762155D01*
X155076274Y-117741713D01*
X155050088Y-117724371D01*
X155029175Y-117710778D01*
X155014516Y-117701583D01*
X155007090Y-117697434D01*
X155006684Y-117697293D01*
X155002579Y-117698054D01*
X154995668Y-117702214D01*
X154985355Y-117710317D01*
X154971048Y-117722905D01*
X154952154Y-117740521D01*
X154928078Y-117763708D01*
X154898226Y-117793008D01*
X154862005Y-117828964D01*
X154854749Y-117836199D01*
X154818889Y-117872218D01*
X154787378Y-117904356D01*
X154760731Y-117932068D01*
X154739461Y-117954806D01*
X154724081Y-117972023D01*
X154715105Y-117983174D01*
X154712880Y-117987325D01*
X154715672Y-117993560D01*
X154723627Y-118007156D01*
X154736110Y-118027133D01*
X154752487Y-118052508D01*
X154772122Y-118082300D01*
X154794382Y-118115526D01*
X154818631Y-118151205D01*
X154821289Y-118155086D01*
X154845928Y-118191100D01*
X154868914Y-118224822D01*
X154889573Y-118255253D01*
X154907230Y-118281395D01*
X154921211Y-118302248D01*
X154930841Y-118316815D01*
X154935446Y-118324096D01*
X154935587Y-118324352D01*
X154936941Y-118328805D01*
X154936744Y-118335339D01*
X154934631Y-118345059D01*
X154930234Y-118359068D01*
X154923187Y-118378471D01*
X154913124Y-118404373D01*
X154899677Y-118437877D01*
X154890068Y-118461512D01*
X154872981Y-118503366D01*
X154859243Y-118536788D01*
X154848382Y-118562760D01*
X154839926Y-118582264D01*
X154833403Y-118596281D01*
X154828340Y-118605795D01*
X154824266Y-118611786D01*
X154820708Y-118615236D01*
X154817193Y-118617128D01*
X154814840Y-118617945D01*
X154807736Y-118619560D01*
X154791805Y-118622793D01*
X154768215Y-118627420D01*
X154738129Y-118633216D01*
X154702714Y-118639958D01*
X154663135Y-118647420D01*
X154620558Y-118655378D01*
X154616168Y-118656195D01*
X154573481Y-118664252D01*
X154533799Y-118671968D01*
X154498266Y-118679104D01*
X154468028Y-118685420D01*
X154444228Y-118690676D01*
X154428012Y-118694633D01*
X154420524Y-118697050D01*
X154420283Y-118697212D01*
X154418437Y-118700242D01*
X154416928Y-118706563D01*
X154415727Y-118717063D01*
X154414801Y-118732633D01*
X154414121Y-118754159D01*
X154413657Y-118782532D01*
X154413376Y-118818639D01*
X154413250Y-118863370D01*
X154413237Y-118901892D01*
X154413358Y-118946025D01*
X154413358Y-118946025D01*
G37*
X154413358Y-118946025D02*
X154413668Y-118987086D01*
X154414144Y-119023939D01*
X154414763Y-119055448D01*
X154415502Y-119080478D01*
X154416337Y-119097893D01*
X154417244Y-119106557D01*
X154417471Y-119107210D01*
X154423471Y-119109787D01*
X154438787Y-119113922D01*
X154462721Y-119119466D01*
X154494573Y-119126268D01*
X154533644Y-119134179D01*
X154579237Y-119143047D01*
X154620850Y-119150901D01*
X154664601Y-119159151D01*
X154705265Y-119167001D01*
X154741748Y-119174225D01*
X154772957Y-119180599D01*
X154797798Y-119185898D01*
X154815177Y-119189897D01*
X154824000Y-119192372D01*
X154824834Y-119192802D01*
X154828371Y-119199048D01*
X154834916Y-119213151D01*
X154843889Y-119233676D01*
X154854710Y-119259190D01*
X154866800Y-119288258D01*
X154879578Y-119319446D01*
X154892466Y-119351320D01*
X154904882Y-119382447D01*
X154916248Y-119411392D01*
X154925983Y-119436721D01*
X154933508Y-119456999D01*
X154938242Y-119470794D01*
X154939607Y-119476671D01*
X154939605Y-119476678D01*
X154936333Y-119481988D01*
X154927928Y-119494724D01*
X154915025Y-119513948D01*
X154898257Y-119538724D01*
X154878260Y-119568114D01*
X154855669Y-119601180D01*
X154831119Y-119636986D01*
X154825162Y-119645656D01*
X154800277Y-119682085D01*
X154777306Y-119716148D01*
X154756874Y-119746886D01*
X154739606Y-119773339D01*
X154726126Y-119794549D01*
X154717059Y-119809556D01*
X154713028Y-119817401D01*
X154712879Y-119818086D01*
X154716391Y-119823807D01*
X154726292Y-119835602D01*
X154741632Y-119852520D01*
X154761458Y-119873609D01*
X154784820Y-119897919D01*
X154810767Y-119924500D01*
X154838347Y-119952400D01*
X154866609Y-119980669D01*
X154894603Y-120008355D01*
X154921376Y-120034508D01*
X154945978Y-120058178D01*
X154967458Y-120078412D01*
X154984864Y-120094261D01*
X154997246Y-120104774D01*
X155003651Y-120108999D01*
X155003938Y-120109040D01*
X155010058Y-120106243D01*
X155023530Y-120098279D01*
X155043372Y-120085789D01*
X155068598Y-120069410D01*
X155098226Y-120049783D01*
X155131269Y-120027547D01*
X155166745Y-120003341D01*
X155169005Y-120001788D01*
X155204726Y-119977294D01*
X155238139Y-119954499D01*
X155268244Y-119934080D01*
X155294038Y-119916708D01*
X155314521Y-119903060D01*
X155328692Y-119893807D01*
X155335550Y-119889626D01*
X155335670Y-119889568D01*
X155340391Y-119888784D01*
X155348231Y-119889912D01*
X155360143Y-119893299D01*
X155377084Y-119899292D01*
X155400007Y-119908241D01*
X155429867Y-119920491D01*
X155467619Y-119936390D01*
X155487252Y-119944749D01*
X155524852Y-119961018D01*
X155558510Y-119976011D01*
X155587168Y-119989231D01*
X155609772Y-120000175D01*
X155625265Y-120008346D01*
X155632592Y-120013243D01*
X155632948Y-120013710D01*
X155634928Y-120020560D01*
X155638502Y-120036248D01*
X155643434Y-120059616D01*
X155649491Y-120089508D01*
X155656439Y-120124767D01*
X155664044Y-120164236D01*
X155672071Y-120206757D01*
X155672940Y-120211409D01*
X155682180Y-120260146D01*
X155690621Y-120303053D01*
X155698102Y-120339390D01*
X155704463Y-120368418D01*
X155709544Y-120389397D01*
X155713184Y-120401585D01*
X155714714Y-120404451D01*
X155721096Y-120405372D01*
X155736503Y-120406225D01*
X155759798Y-120406989D01*
X155789847Y-120407638D01*
X155825514Y-120408151D01*
X155865663Y-120408503D01*
X155909159Y-120408671D01*
X155920027Y-120408682D01*
X155971548Y-120408649D01*
X156013801Y-120408486D01*
X156047680Y-120408162D01*
X156074077Y-120407647D01*
X156093884Y-120406908D01*
X156107996Y-120405916D01*
X156117303Y-120404639D01*
X156122699Y-120403046D01*
X156124741Y-120401595D01*
X156126999Y-120395095D01*
X156130799Y-120379763D01*
X156135898Y-120356765D01*
X156142050Y-120327271D01*
X156149013Y-120292450D01*
X156156543Y-120253470D01*
X156164236Y-120212365D01*
X156172897Y-120166210D01*
X156180981Y-120124798D01*
X156188286Y-120089062D01*
X156194611Y-120059937D01*
X156199758Y-120038354D01*
X156203525Y-120025249D01*
X156205133Y-120021726D01*
X156211585Y-120017704D01*
X156225987Y-120010714D01*
X156246948Y-120001314D01*
X156273082Y-119990063D01*
X156303000Y-119977519D01*
X156335313Y-119964240D01*
X156368634Y-119950785D01*
X156401575Y-119937712D01*
X156432747Y-119925580D01*
X156460763Y-119914946D01*
X156484233Y-119906369D01*
X156501771Y-119900408D01*
X156511987Y-119897620D01*
X156513842Y-119897556D01*
X156519358Y-119900901D01*
X156532262Y-119909348D01*
X156551573Y-119922236D01*
X156576312Y-119938906D01*
X156605498Y-119958697D01*
X156638151Y-119980948D01*
X156672582Y-120004512D01*
X156707797Y-120028487D01*
X156740662Y-120050526D01*
X156770174Y-120069982D01*
X156795331Y-120086209D01*
X156815130Y-120098558D01*
X156828568Y-120106383D01*
X156834588Y-120109040D01*
X156840258Y-120105537D01*
X156852017Y-120095662D01*
X156868914Y-120080363D01*
X156889997Y-120060590D01*
X156914314Y-120037290D01*
X156940912Y-120011414D01*
X156968838Y-119983908D01*
X156997142Y-119955723D01*
X157024870Y-119927807D01*
X157051071Y-119901109D01*
X157074792Y-119876578D01*
X157095081Y-119855162D01*
X157110985Y-119837810D01*
X157121554Y-119825471D01*
X157125834Y-119819094D01*
X157125880Y-119818792D01*
X157123089Y-119812917D01*
X157115148Y-119799690D01*
X157102705Y-119780102D01*
X157086406Y-119755147D01*
X157066900Y-119725814D01*
X157044834Y-119693098D01*
X157021740Y-119659274D01*
X156997807Y-119624192D01*
X156975813Y-119591493D01*
X156956405Y-119562179D01*
X156940232Y-119537247D01*
X156927942Y-119517696D01*
X156920183Y-119504527D01*
X156917600Y-119498812D01*
X156919920Y-119491386D01*
X156926305Y-119476894D01*
X156935890Y-119457157D01*
X156947810Y-119433991D01*
X156953481Y-119423350D01*
X156966747Y-119397800D01*
X156977375Y-119375514D01*
X156984622Y-119358172D01*
X156987744Y-119347456D01*
X156987771Y-119345823D01*
X156986377Y-119343235D01*
X156982452Y-119339874D01*
X156975381Y-119335467D01*
X156964547Y-119329738D01*
X156949334Y-119322414D01*
X156929125Y-119313220D01*
X156903305Y-119301884D01*
X156871257Y-119288129D01*
X156832365Y-119271684D01*
X156786012Y-119252272D01*
X156731582Y-119229620D01*
X156668459Y-119203454D01*
X156657359Y-119198860D01*
X156602528Y-119176257D01*
X156550342Y-119154911D01*
X156501575Y-119135128D01*
X156456998Y-119117213D01*
X156417386Y-119101473D01*
X156383510Y-119088212D01*
X156356143Y-119077736D01*
X156336060Y-119070352D01*
X156324031Y-119066364D01*
X156320809Y-119065760D01*
X156314897Y-119070949D01*
X156304827Y-119082723D01*
X156292102Y-119099234D01*
X156280629Y-119115173D01*
X156249570Y-119157327D01*
X156220231Y-119191753D01*
X156190682Y-119220203D01*
X156158997Y-119244432D01*
X156123247Y-119266194D01*
X156102918Y-119276863D01*
X156044488Y-119300756D01*
X155984158Y-119315076D01*
X155922953Y-119319979D01*
X155861898Y-119315623D01*
X155802019Y-119302163D01*
X155744342Y-119279756D01*
X155689891Y-119248559D01*
X155639692Y-119208727D01*
X155636411Y-119205664D01*
X155592833Y-119158017D01*
X155557422Y-119104808D01*
X155529755Y-119045354D01*
X155519807Y-119016660D01*
X155514974Y-118999933D01*
X155511632Y-118984165D01*
X155509519Y-118966854D01*
X155508373Y-118945497D01*
X155507935Y-118917593D01*
X155507900Y-118902540D01*
X155508110Y-118870915D01*
X155508916Y-118846936D01*
X155510578Y-118828093D01*
X155513357Y-118811877D01*
X155517516Y-118795778D01*
X155519802Y-118788240D01*
X155544205Y-118726246D01*
X155576690Y-118669961D01*
X155616763Y-118619969D01*
X155663933Y-118576854D01*
X155717707Y-118541201D01*
X155736500Y-118531329D01*
X155783357Y-118510756D01*
X155827726Y-118497234D01*
X155873443Y-118489860D01*
X155921920Y-118487727D01*
X155986989Y-118492586D01*
X156049065Y-118506992D01*
X156107510Y-118530688D01*
X156161687Y-118563416D01*
X156209975Y-118603955D01*
X156226971Y-118622140D01*
X156246791Y-118645762D01*
X156267052Y-118671748D01*
X156285368Y-118697023D01*
X156299354Y-118718514D01*
X156300883Y-118721139D01*
X156309785Y-118732832D01*
X156319264Y-118739872D01*
X156320648Y-118740325D01*
X156327322Y-118738872D01*
X156342833Y-118733641D01*
X156366671Y-118724832D01*
X156398326Y-118712647D01*
X156437287Y-118697287D01*
X156483043Y-118678953D01*
X156535085Y-118657846D01*
X156592901Y-118634166D01*
X156649679Y-118610728D01*
X156703781Y-118588300D01*
X156755286Y-118566914D01*
X156803399Y-118546903D01*
X156847325Y-118528599D01*
X156886268Y-118512334D01*
X156919433Y-118498442D01*
X156946026Y-118487253D01*
X156965249Y-118479102D01*
X156976309Y-118474319D01*
X156978609Y-118473253D01*
X156986716Y-118465020D01*
X156988720Y-118458211D01*
X156986394Y-118450498D01*
X156979995Y-118435745D01*
X156970387Y-118415790D01*
X156958437Y-118392470D01*
X156952672Y-118381642D01*
X156937192Y-118351834D01*
X156926189Y-118328316D01*
X156920007Y-118311875D01*
X156918837Y-118303822D01*
X156922269Y-118296680D01*
X156930700Y-118282538D01*
X156943286Y-118262709D01*
X156959184Y-118238506D01*
X156977551Y-118211241D01*
X156989461Y-118193880D01*
X157021822Y-118146962D01*
X157048815Y-118107682D01*
X157070892Y-118075352D01*
X157088506Y-118049281D01*
X157102109Y-118028781D01*
X157112155Y-118013163D01*
X157119097Y-118001739D01*
X157123388Y-117993819D01*
X157125480Y-117988714D01*
X157125880Y-117986387D01*
X157122399Y-117981121D01*
X157112478Y-117969535D01*
X157096897Y-117952460D01*
X157076437Y-117930721D01*
X157051880Y-117905148D01*
X157024006Y-117876568D01*
X156993597Y-117845809D01*
X156987541Y-117839731D01*
X156956470Y-117808736D01*
X156927382Y-117780010D01*
X156901112Y-117754357D01*
X156878494Y-117732577D01*
X156860363Y-117715473D01*
X156847552Y-117703847D01*
X156840896Y-117698501D01*
X156840413Y-117698266D01*
X156837436Y-117697367D01*
X156834393Y-117697052D01*
X156830460Y-117697835D01*
X156824812Y-117700226D01*
X156816624Y-117704737D01*
X156805072Y-117711879D01*
X156789330Y-117722165D01*
X156768575Y-117736105D01*
X156741980Y-117754212D01*
X156708721Y-117776996D01*
X156667973Y-117804969D01*
X156664266Y-117807515D01*
X156629625Y-117831161D01*
X156597438Y-117852865D01*
X156568706Y-117871973D01*
X156544428Y-117887831D01*
X156525605Y-117899785D01*
X156513237Y-117907181D01*
X156508469Y-117909400D01*
X156502070Y-117907571D01*
X156487455Y-117902390D01*
X156465826Y-117894314D01*
X156438385Y-117883802D01*
X156406333Y-117871312D01*
X156370874Y-117857300D01*
X156353307Y-117850294D01*
X156309314Y-117832557D01*
X156274051Y-117818005D01*
X156246727Y-117806276D01*
X156226551Y-117797006D01*
X156212734Y-117789833D01*
X156204485Y-117784394D01*
X156201059Y-117780444D01*
X156199121Y-117773085D01*
X156195609Y-117756936D01*
X156190762Y-117733202D01*
X156184819Y-117703091D01*
X156178018Y-117667809D01*
X156170597Y-117628562D01*
X156163414Y-117589921D01*
X156155616Y-117548281D01*
X156148154Y-117509669D01*
X156141273Y-117475261D01*
X156135217Y-117446230D01*
X156130232Y-117423751D01*
X156126560Y-117408998D01*
X156124531Y-117403231D01*
X156121360Y-117401433D01*
X156114541Y-117399961D01*
X156103211Y-117398785D01*
X156086509Y-117397877D01*
X156063571Y-117397207D01*
X156033536Y-117396746D01*
X155995541Y-117396465D01*
X155948724Y-117396336D01*
X155918875Y-117396320D01*
X155718954Y-117396320D01*
X155711902Y-117407750D01*
X155709400Y-117415237D01*
X155705372Y-117431536D01*
X155700066Y-117455455D01*
X155693732Y-117485802D01*
X155686617Y-117521384D01*
X155678971Y-117561009D01*
X155671042Y-117603486D01*
X155670838Y-117604600D01*
X155662950Y-117646876D01*
X155655374Y-117686108D01*
X155648352Y-117721145D01*
X155642126Y-117750836D01*
X155636937Y-117774030D01*
X155633026Y-117789576D01*
X155630637Y-117796323D01*
X155630566Y-117796405D01*
X155624301Y-117800090D01*
X155610106Y-117807022D01*
X155589428Y-117816577D01*
X155563713Y-117828134D01*
X155534406Y-117841070D01*
X155502954Y-117854763D01*
X155470802Y-117868591D01*
X155439397Y-117881931D01*
X155410185Y-117894161D01*
X155384611Y-117904659D01*
X155364123Y-117912803D01*
X155350165Y-117917969D01*
X155344394Y-117919560D01*
X155338575Y-117916767D01*
X155325372Y-117908811D01*
X155305749Y-117896319D01*
X155280667Y-117879924D01*
X155251089Y-117860254D01*
X155217976Y-117837939D01*
X155182293Y-117813611D01*
X155176655Y-117809742D01*
X155140538Y-117785048D01*
X155106750Y-117762155D01*
X155076274Y-117741713D01*
X155050088Y-117724371D01*
X155029175Y-117710778D01*
X155014516Y-117701583D01*
X155007090Y-117697434D01*
X155006684Y-117697293D01*
X155002579Y-117698054D01*
X154995668Y-117702214D01*
X154985355Y-117710317D01*
X154971048Y-117722905D01*
X154952154Y-117740521D01*
X154928078Y-117763708D01*
X154898226Y-117793008D01*
X154862005Y-117828964D01*
X154854749Y-117836199D01*
X154818889Y-117872218D01*
X154787378Y-117904356D01*
X154760731Y-117932068D01*
X154739461Y-117954806D01*
X154724081Y-117972023D01*
X154715105Y-117983174D01*
X154712880Y-117987325D01*
X154715672Y-117993560D01*
X154723627Y-118007156D01*
X154736110Y-118027133D01*
X154752487Y-118052508D01*
X154772122Y-118082300D01*
X154794382Y-118115526D01*
X154818631Y-118151205D01*
X154821289Y-118155086D01*
X154845928Y-118191100D01*
X154868914Y-118224822D01*
X154889573Y-118255253D01*
X154907230Y-118281395D01*
X154921211Y-118302248D01*
X154930841Y-118316815D01*
X154935446Y-118324096D01*
X154935587Y-118324352D01*
X154936941Y-118328805D01*
X154936744Y-118335339D01*
X154934631Y-118345059D01*
X154930234Y-118359068D01*
X154923187Y-118378471D01*
X154913124Y-118404373D01*
X154899677Y-118437877D01*
X154890068Y-118461512D01*
X154872981Y-118503366D01*
X154859243Y-118536788D01*
X154848382Y-118562760D01*
X154839926Y-118582264D01*
X154833403Y-118596281D01*
X154828340Y-118605795D01*
X154824266Y-118611786D01*
X154820708Y-118615236D01*
X154817193Y-118617128D01*
X154814840Y-118617945D01*
X154807736Y-118619560D01*
X154791805Y-118622793D01*
X154768215Y-118627420D01*
X154738129Y-118633216D01*
X154702714Y-118639958D01*
X154663135Y-118647420D01*
X154620558Y-118655378D01*
X154616168Y-118656195D01*
X154573481Y-118664252D01*
X154533799Y-118671968D01*
X154498266Y-118679104D01*
X154468028Y-118685420D01*
X154444228Y-118690676D01*
X154428012Y-118694633D01*
X154420524Y-118697050D01*
X154420283Y-118697212D01*
X154418437Y-118700242D01*
X154416928Y-118706563D01*
X154415727Y-118717063D01*
X154414801Y-118732633D01*
X154414121Y-118754159D01*
X154413657Y-118782532D01*
X154413376Y-118818639D01*
X154413250Y-118863370D01*
X154413237Y-118901892D01*
X154413358Y-118946025D01*
G36*
X129013358Y-118946025D02*
G01*
X129013668Y-118987086D01*
X129014144Y-119023939D01*
X129014763Y-119055448D01*
X129015502Y-119080478D01*
X129016337Y-119097893D01*
X129017244Y-119106557D01*
X129017471Y-119107210D01*
X129023471Y-119109787D01*
X129038787Y-119113922D01*
X129062721Y-119119466D01*
X129094573Y-119126268D01*
X129133644Y-119134179D01*
X129179237Y-119143047D01*
X129220850Y-119150901D01*
X129264601Y-119159151D01*
X129305265Y-119167001D01*
X129341748Y-119174225D01*
X129372957Y-119180599D01*
X129397798Y-119185898D01*
X129415177Y-119189897D01*
X129424000Y-119192372D01*
X129424834Y-119192802D01*
X129428371Y-119199048D01*
X129434916Y-119213151D01*
X129443889Y-119233676D01*
X129454710Y-119259190D01*
X129466800Y-119288258D01*
X129479578Y-119319446D01*
X129492466Y-119351320D01*
X129504882Y-119382447D01*
X129516248Y-119411392D01*
X129525983Y-119436721D01*
X129533508Y-119456999D01*
X129538242Y-119470794D01*
X129539607Y-119476671D01*
X129539605Y-119476678D01*
X129536333Y-119481988D01*
X129527928Y-119494724D01*
X129515025Y-119513948D01*
X129498257Y-119538724D01*
X129478260Y-119568114D01*
X129455669Y-119601180D01*
X129431119Y-119636986D01*
X129425162Y-119645656D01*
X129400277Y-119682085D01*
X129377306Y-119716148D01*
X129356874Y-119746886D01*
X129339606Y-119773339D01*
X129326126Y-119794549D01*
X129317059Y-119809556D01*
X129313028Y-119817401D01*
X129312879Y-119818086D01*
X129316391Y-119823807D01*
X129326292Y-119835602D01*
X129341632Y-119852520D01*
X129361458Y-119873609D01*
X129384820Y-119897919D01*
X129410767Y-119924500D01*
X129438347Y-119952400D01*
X129466609Y-119980669D01*
X129494603Y-120008355D01*
X129521376Y-120034508D01*
X129545978Y-120058178D01*
X129567458Y-120078412D01*
X129584864Y-120094261D01*
X129597246Y-120104774D01*
X129603651Y-120108999D01*
X129603938Y-120109040D01*
X129610058Y-120106243D01*
X129623530Y-120098279D01*
X129643372Y-120085789D01*
X129668598Y-120069410D01*
X129698226Y-120049783D01*
X129731269Y-120027547D01*
X129766745Y-120003341D01*
X129769005Y-120001788D01*
X129804726Y-119977294D01*
X129838139Y-119954499D01*
X129868244Y-119934080D01*
X129894038Y-119916708D01*
X129914521Y-119903060D01*
X129928692Y-119893807D01*
X129935550Y-119889626D01*
X129935670Y-119889568D01*
X129940391Y-119888784D01*
X129948231Y-119889912D01*
X129960143Y-119893299D01*
X129977084Y-119899292D01*
X130000007Y-119908241D01*
X130029867Y-119920491D01*
X130067619Y-119936390D01*
X130087252Y-119944749D01*
X130124852Y-119961018D01*
X130158510Y-119976011D01*
X130187168Y-119989231D01*
X130209772Y-120000175D01*
X130225265Y-120008346D01*
X130232592Y-120013243D01*
X130232948Y-120013710D01*
X130234928Y-120020560D01*
X130238502Y-120036248D01*
X130243434Y-120059616D01*
X130249491Y-120089508D01*
X130256439Y-120124767D01*
X130264044Y-120164236D01*
X130272071Y-120206757D01*
X130272940Y-120211409D01*
X130282180Y-120260146D01*
X130290621Y-120303053D01*
X130298102Y-120339390D01*
X130304463Y-120368418D01*
X130309544Y-120389397D01*
X130313184Y-120401585D01*
X130314714Y-120404451D01*
X130321096Y-120405372D01*
X130336503Y-120406225D01*
X130359798Y-120406989D01*
X130389847Y-120407638D01*
X130425514Y-120408151D01*
X130465663Y-120408503D01*
X130509159Y-120408671D01*
X130520027Y-120408682D01*
X130571548Y-120408649D01*
X130613801Y-120408486D01*
X130647680Y-120408162D01*
X130674077Y-120407647D01*
X130693884Y-120406908D01*
X130707996Y-120405916D01*
X130717303Y-120404639D01*
X130722699Y-120403046D01*
X130724741Y-120401595D01*
X130726999Y-120395095D01*
X130730799Y-120379763D01*
X130735898Y-120356765D01*
X130742050Y-120327271D01*
X130749013Y-120292450D01*
X130756543Y-120253470D01*
X130764236Y-120212365D01*
X130772897Y-120166210D01*
X130780981Y-120124798D01*
X130788286Y-120089062D01*
X130794611Y-120059937D01*
X130799758Y-120038354D01*
X130803525Y-120025249D01*
X130805133Y-120021726D01*
X130811585Y-120017704D01*
X130825987Y-120010714D01*
X130846948Y-120001314D01*
X130873082Y-119990063D01*
X130903000Y-119977519D01*
X130935313Y-119964240D01*
X130968634Y-119950785D01*
X131001575Y-119937712D01*
X131032747Y-119925580D01*
X131060763Y-119914946D01*
X131084233Y-119906369D01*
X131101771Y-119900408D01*
X131111987Y-119897620D01*
X131113842Y-119897556D01*
X131119358Y-119900901D01*
X131132262Y-119909348D01*
X131151573Y-119922236D01*
X131176312Y-119938906D01*
X131205498Y-119958697D01*
X131238151Y-119980948D01*
X131272582Y-120004512D01*
X131307797Y-120028487D01*
X131340662Y-120050526D01*
X131370174Y-120069982D01*
X131395331Y-120086209D01*
X131415130Y-120098558D01*
X131428568Y-120106383D01*
X131434588Y-120109040D01*
X131440258Y-120105537D01*
X131452017Y-120095662D01*
X131468914Y-120080363D01*
X131489997Y-120060590D01*
X131514314Y-120037290D01*
X131540912Y-120011414D01*
X131568838Y-119983908D01*
X131597142Y-119955723D01*
X131624870Y-119927807D01*
X131651071Y-119901109D01*
X131674792Y-119876578D01*
X131695081Y-119855162D01*
X131710985Y-119837810D01*
X131721554Y-119825471D01*
X131725834Y-119819094D01*
X131725880Y-119818792D01*
X131723089Y-119812917D01*
X131715148Y-119799690D01*
X131702705Y-119780102D01*
X131686406Y-119755147D01*
X131666900Y-119725814D01*
X131644834Y-119693098D01*
X131621740Y-119659274D01*
X131597807Y-119624192D01*
X131575813Y-119591493D01*
X131556405Y-119562179D01*
X131540232Y-119537247D01*
X131527942Y-119517696D01*
X131520183Y-119504527D01*
X131517600Y-119498812D01*
X131519920Y-119491386D01*
X131526305Y-119476894D01*
X131535890Y-119457157D01*
X131547810Y-119433991D01*
X131553481Y-119423350D01*
X131566747Y-119397800D01*
X131577375Y-119375514D01*
X131584622Y-119358172D01*
X131587744Y-119347456D01*
X131587771Y-119345823D01*
X131586377Y-119343235D01*
X131582452Y-119339874D01*
X131575381Y-119335467D01*
X131564547Y-119329738D01*
X131549334Y-119322414D01*
X131529125Y-119313220D01*
X131503305Y-119301884D01*
X131471257Y-119288129D01*
X131432365Y-119271684D01*
X131386012Y-119252272D01*
X131331582Y-119229620D01*
X131268459Y-119203454D01*
X131257359Y-119198860D01*
X131202528Y-119176257D01*
X131150342Y-119154911D01*
X131101575Y-119135128D01*
X131056998Y-119117213D01*
X131017386Y-119101473D01*
X130983510Y-119088212D01*
X130956143Y-119077736D01*
X130936060Y-119070352D01*
X130924031Y-119066364D01*
X130920809Y-119065760D01*
X130914897Y-119070949D01*
X130904827Y-119082723D01*
X130892102Y-119099234D01*
X130880629Y-119115173D01*
X130849570Y-119157327D01*
X130820231Y-119191753D01*
X130790682Y-119220203D01*
X130758997Y-119244432D01*
X130723247Y-119266194D01*
X130702918Y-119276863D01*
X130644488Y-119300756D01*
X130584158Y-119315076D01*
X130522953Y-119319979D01*
X130461898Y-119315623D01*
X130402019Y-119302163D01*
X130344342Y-119279756D01*
X130289891Y-119248559D01*
X130239692Y-119208727D01*
X130236411Y-119205664D01*
X130192833Y-119158017D01*
X130157422Y-119104808D01*
X130129755Y-119045354D01*
X130119807Y-119016660D01*
X130114974Y-118999933D01*
X130111632Y-118984165D01*
X130109519Y-118966854D01*
X130108373Y-118945497D01*
X130107935Y-118917593D01*
X130107900Y-118902540D01*
X130108110Y-118870915D01*
X130108916Y-118846936D01*
X130110578Y-118828093D01*
X130113357Y-118811877D01*
X130117516Y-118795778D01*
X130119802Y-118788240D01*
X130144205Y-118726246D01*
X130176690Y-118669961D01*
X130216763Y-118619969D01*
X130263933Y-118576854D01*
X130317707Y-118541201D01*
X130336500Y-118531329D01*
X130383357Y-118510756D01*
X130427726Y-118497234D01*
X130473443Y-118489860D01*
X130521920Y-118487727D01*
X130586989Y-118492586D01*
X130649065Y-118506992D01*
X130707510Y-118530688D01*
X130761687Y-118563416D01*
X130809975Y-118603955D01*
X130826971Y-118622140D01*
X130846791Y-118645762D01*
X130867052Y-118671748D01*
X130885368Y-118697023D01*
X130899354Y-118718514D01*
X130900883Y-118721139D01*
X130909785Y-118732832D01*
X130919264Y-118739872D01*
X130920648Y-118740325D01*
X130927322Y-118738872D01*
X130942833Y-118733641D01*
X130966671Y-118724832D01*
X130998326Y-118712647D01*
X131037287Y-118697287D01*
X131083043Y-118678953D01*
X131135085Y-118657846D01*
X131192901Y-118634166D01*
X131249679Y-118610728D01*
X131303781Y-118588300D01*
X131355286Y-118566914D01*
X131403399Y-118546903D01*
X131447325Y-118528599D01*
X131486268Y-118512334D01*
X131519433Y-118498442D01*
X131546026Y-118487253D01*
X131565249Y-118479102D01*
X131576309Y-118474319D01*
X131578609Y-118473253D01*
X131586716Y-118465020D01*
X131588720Y-118458211D01*
X131586394Y-118450498D01*
X131579995Y-118435745D01*
X131570387Y-118415790D01*
X131558437Y-118392470D01*
X131552672Y-118381642D01*
X131537192Y-118351834D01*
X131526189Y-118328316D01*
X131520007Y-118311875D01*
X131518837Y-118303822D01*
X131522269Y-118296680D01*
X131530700Y-118282538D01*
X131543286Y-118262709D01*
X131559184Y-118238506D01*
X131577551Y-118211241D01*
X131589461Y-118193880D01*
X131621822Y-118146962D01*
X131648815Y-118107682D01*
X131670892Y-118075352D01*
X131688506Y-118049281D01*
X131702109Y-118028781D01*
X131712155Y-118013163D01*
X131719097Y-118001739D01*
X131723388Y-117993819D01*
X131725480Y-117988714D01*
X131725880Y-117986387D01*
X131722399Y-117981121D01*
X131712478Y-117969535D01*
X131696897Y-117952460D01*
X131676437Y-117930721D01*
X131651880Y-117905148D01*
X131624006Y-117876568D01*
X131593597Y-117845809D01*
X131587541Y-117839731D01*
X131556470Y-117808736D01*
X131527382Y-117780010D01*
X131501112Y-117754357D01*
X131478494Y-117732577D01*
X131460363Y-117715473D01*
X131447552Y-117703847D01*
X131440896Y-117698501D01*
X131440413Y-117698266D01*
X131437436Y-117697367D01*
X131434393Y-117697052D01*
X131430460Y-117697835D01*
X131424812Y-117700226D01*
X131416624Y-117704737D01*
X131405072Y-117711879D01*
X131389330Y-117722165D01*
X131368575Y-117736105D01*
X131341980Y-117754212D01*
X131308721Y-117776996D01*
X131267973Y-117804969D01*
X131264266Y-117807515D01*
X131229625Y-117831161D01*
X131197438Y-117852865D01*
X131168706Y-117871973D01*
X131144428Y-117887831D01*
X131125605Y-117899785D01*
X131113237Y-117907181D01*
X131108469Y-117909400D01*
X131102070Y-117907571D01*
X131087455Y-117902390D01*
X131065826Y-117894314D01*
X131038385Y-117883802D01*
X131006333Y-117871312D01*
X130970874Y-117857300D01*
X130953307Y-117850294D01*
X130909314Y-117832557D01*
X130874051Y-117818005D01*
X130846727Y-117806276D01*
X130826551Y-117797006D01*
X130812734Y-117789833D01*
X130804485Y-117784394D01*
X130801059Y-117780444D01*
X130799121Y-117773085D01*
X130795609Y-117756936D01*
X130790762Y-117733202D01*
X130784819Y-117703091D01*
X130778018Y-117667809D01*
X130770597Y-117628562D01*
X130763414Y-117589921D01*
X130755616Y-117548281D01*
X130748154Y-117509669D01*
X130741273Y-117475261D01*
X130735217Y-117446230D01*
X130730232Y-117423751D01*
X130726560Y-117408998D01*
X130724531Y-117403231D01*
X130721360Y-117401433D01*
X130714541Y-117399961D01*
X130703211Y-117398785D01*
X130686509Y-117397877D01*
X130663571Y-117397207D01*
X130633536Y-117396746D01*
X130595541Y-117396465D01*
X130548724Y-117396336D01*
X130518875Y-117396320D01*
X130318954Y-117396320D01*
X130311902Y-117407750D01*
X130309400Y-117415237D01*
X130305372Y-117431536D01*
X130300066Y-117455455D01*
X130293732Y-117485802D01*
X130286617Y-117521384D01*
X130278971Y-117561009D01*
X130271042Y-117603486D01*
X130270838Y-117604600D01*
X130262950Y-117646876D01*
X130255374Y-117686108D01*
X130248352Y-117721145D01*
X130242126Y-117750836D01*
X130236937Y-117774030D01*
X130233026Y-117789576D01*
X130230637Y-117796323D01*
X130230566Y-117796405D01*
X130224301Y-117800090D01*
X130210106Y-117807022D01*
X130189428Y-117816577D01*
X130163713Y-117828134D01*
X130134406Y-117841070D01*
X130102954Y-117854763D01*
X130070802Y-117868591D01*
X130039397Y-117881931D01*
X130010185Y-117894161D01*
X129984611Y-117904659D01*
X129964123Y-117912803D01*
X129950165Y-117917969D01*
X129944394Y-117919560D01*
X129938575Y-117916767D01*
X129925372Y-117908811D01*
X129905749Y-117896319D01*
X129880667Y-117879924D01*
X129851089Y-117860254D01*
X129817976Y-117837939D01*
X129782293Y-117813611D01*
X129776655Y-117809742D01*
X129740538Y-117785048D01*
X129706750Y-117762155D01*
X129676274Y-117741713D01*
X129650088Y-117724371D01*
X129629175Y-117710778D01*
X129614516Y-117701583D01*
X129607090Y-117697434D01*
X129606684Y-117697293D01*
X129602579Y-117698054D01*
X129595668Y-117702214D01*
X129585355Y-117710317D01*
X129571048Y-117722905D01*
X129552154Y-117740521D01*
X129528078Y-117763708D01*
X129498226Y-117793008D01*
X129462005Y-117828964D01*
X129454749Y-117836199D01*
X129418889Y-117872218D01*
X129387378Y-117904356D01*
X129360731Y-117932068D01*
X129339461Y-117954806D01*
X129324081Y-117972023D01*
X129315105Y-117983174D01*
X129312880Y-117987325D01*
X129315672Y-117993560D01*
X129323627Y-118007156D01*
X129336110Y-118027133D01*
X129352487Y-118052508D01*
X129372122Y-118082300D01*
X129394382Y-118115526D01*
X129418631Y-118151205D01*
X129421289Y-118155086D01*
X129445928Y-118191100D01*
X129468914Y-118224822D01*
X129489573Y-118255253D01*
X129507230Y-118281395D01*
X129521211Y-118302248D01*
X129530841Y-118316815D01*
X129535446Y-118324096D01*
X129535587Y-118324352D01*
X129536941Y-118328805D01*
X129536744Y-118335339D01*
X129534631Y-118345059D01*
X129530234Y-118359068D01*
X129523187Y-118378471D01*
X129513124Y-118404373D01*
X129499677Y-118437877D01*
X129490068Y-118461512D01*
X129472981Y-118503366D01*
X129459243Y-118536788D01*
X129448382Y-118562760D01*
X129439926Y-118582264D01*
X129433403Y-118596281D01*
X129428340Y-118605795D01*
X129424266Y-118611786D01*
X129420708Y-118615236D01*
X129417193Y-118617128D01*
X129414840Y-118617945D01*
X129407736Y-118619560D01*
X129391805Y-118622793D01*
X129368215Y-118627420D01*
X129338129Y-118633216D01*
X129302714Y-118639958D01*
X129263135Y-118647420D01*
X129220558Y-118655378D01*
X129216168Y-118656195D01*
X129173481Y-118664252D01*
X129133799Y-118671968D01*
X129098266Y-118679104D01*
X129068028Y-118685420D01*
X129044228Y-118690676D01*
X129028012Y-118694633D01*
X129020524Y-118697050D01*
X129020283Y-118697212D01*
X129018437Y-118700242D01*
X129016928Y-118706563D01*
X129015727Y-118717063D01*
X129014801Y-118732633D01*
X129014121Y-118754159D01*
X129013657Y-118782532D01*
X129013376Y-118818639D01*
X129013250Y-118863370D01*
X129013237Y-118901892D01*
X129013358Y-118946025D01*
X129013358Y-118946025D01*
G37*
X129013358Y-118946025D02*
X129013668Y-118987086D01*
X129014144Y-119023939D01*
X129014763Y-119055448D01*
X129015502Y-119080478D01*
X129016337Y-119097893D01*
X129017244Y-119106557D01*
X129017471Y-119107210D01*
X129023471Y-119109787D01*
X129038787Y-119113922D01*
X129062721Y-119119466D01*
X129094573Y-119126268D01*
X129133644Y-119134179D01*
X129179237Y-119143047D01*
X129220850Y-119150901D01*
X129264601Y-119159151D01*
X129305265Y-119167001D01*
X129341748Y-119174225D01*
X129372957Y-119180599D01*
X129397798Y-119185898D01*
X129415177Y-119189897D01*
X129424000Y-119192372D01*
X129424834Y-119192802D01*
X129428371Y-119199048D01*
X129434916Y-119213151D01*
X129443889Y-119233676D01*
X129454710Y-119259190D01*
X129466800Y-119288258D01*
X129479578Y-119319446D01*
X129492466Y-119351320D01*
X129504882Y-119382447D01*
X129516248Y-119411392D01*
X129525983Y-119436721D01*
X129533508Y-119456999D01*
X129538242Y-119470794D01*
X129539607Y-119476671D01*
X129539605Y-119476678D01*
X129536333Y-119481988D01*
X129527928Y-119494724D01*
X129515025Y-119513948D01*
X129498257Y-119538724D01*
X129478260Y-119568114D01*
X129455669Y-119601180D01*
X129431119Y-119636986D01*
X129425162Y-119645656D01*
X129400277Y-119682085D01*
X129377306Y-119716148D01*
X129356874Y-119746886D01*
X129339606Y-119773339D01*
X129326126Y-119794549D01*
X129317059Y-119809556D01*
X129313028Y-119817401D01*
X129312879Y-119818086D01*
X129316391Y-119823807D01*
X129326292Y-119835602D01*
X129341632Y-119852520D01*
X129361458Y-119873609D01*
X129384820Y-119897919D01*
X129410767Y-119924500D01*
X129438347Y-119952400D01*
X129466609Y-119980669D01*
X129494603Y-120008355D01*
X129521376Y-120034508D01*
X129545978Y-120058178D01*
X129567458Y-120078412D01*
X129584864Y-120094261D01*
X129597246Y-120104774D01*
X129603651Y-120108999D01*
X129603938Y-120109040D01*
X129610058Y-120106243D01*
X129623530Y-120098279D01*
X129643372Y-120085789D01*
X129668598Y-120069410D01*
X129698226Y-120049783D01*
X129731269Y-120027547D01*
X129766745Y-120003341D01*
X129769005Y-120001788D01*
X129804726Y-119977294D01*
X129838139Y-119954499D01*
X129868244Y-119934080D01*
X129894038Y-119916708D01*
X129914521Y-119903060D01*
X129928692Y-119893807D01*
X129935550Y-119889626D01*
X129935670Y-119889568D01*
X129940391Y-119888784D01*
X129948231Y-119889912D01*
X129960143Y-119893299D01*
X129977084Y-119899292D01*
X130000007Y-119908241D01*
X130029867Y-119920491D01*
X130067619Y-119936390D01*
X130087252Y-119944749D01*
X130124852Y-119961018D01*
X130158510Y-119976011D01*
X130187168Y-119989231D01*
X130209772Y-120000175D01*
X130225265Y-120008346D01*
X130232592Y-120013243D01*
X130232948Y-120013710D01*
X130234928Y-120020560D01*
X130238502Y-120036248D01*
X130243434Y-120059616D01*
X130249491Y-120089508D01*
X130256439Y-120124767D01*
X130264044Y-120164236D01*
X130272071Y-120206757D01*
X130272940Y-120211409D01*
X130282180Y-120260146D01*
X130290621Y-120303053D01*
X130298102Y-120339390D01*
X130304463Y-120368418D01*
X130309544Y-120389397D01*
X130313184Y-120401585D01*
X130314714Y-120404451D01*
X130321096Y-120405372D01*
X130336503Y-120406225D01*
X130359798Y-120406989D01*
X130389847Y-120407638D01*
X130425514Y-120408151D01*
X130465663Y-120408503D01*
X130509159Y-120408671D01*
X130520027Y-120408682D01*
X130571548Y-120408649D01*
X130613801Y-120408486D01*
X130647680Y-120408162D01*
X130674077Y-120407647D01*
X130693884Y-120406908D01*
X130707996Y-120405916D01*
X130717303Y-120404639D01*
X130722699Y-120403046D01*
X130724741Y-120401595D01*
X130726999Y-120395095D01*
X130730799Y-120379763D01*
X130735898Y-120356765D01*
X130742050Y-120327271D01*
X130749013Y-120292450D01*
X130756543Y-120253470D01*
X130764236Y-120212365D01*
X130772897Y-120166210D01*
X130780981Y-120124798D01*
X130788286Y-120089062D01*
X130794611Y-120059937D01*
X130799758Y-120038354D01*
X130803525Y-120025249D01*
X130805133Y-120021726D01*
X130811585Y-120017704D01*
X130825987Y-120010714D01*
X130846948Y-120001314D01*
X130873082Y-119990063D01*
X130903000Y-119977519D01*
X130935313Y-119964240D01*
X130968634Y-119950785D01*
X131001575Y-119937712D01*
X131032747Y-119925580D01*
X131060763Y-119914946D01*
X131084233Y-119906369D01*
X131101771Y-119900408D01*
X131111987Y-119897620D01*
X131113842Y-119897556D01*
X131119358Y-119900901D01*
X131132262Y-119909348D01*
X131151573Y-119922236D01*
X131176312Y-119938906D01*
X131205498Y-119958697D01*
X131238151Y-119980948D01*
X131272582Y-120004512D01*
X131307797Y-120028487D01*
X131340662Y-120050526D01*
X131370174Y-120069982D01*
X131395331Y-120086209D01*
X131415130Y-120098558D01*
X131428568Y-120106383D01*
X131434588Y-120109040D01*
X131440258Y-120105537D01*
X131452017Y-120095662D01*
X131468914Y-120080363D01*
X131489997Y-120060590D01*
X131514314Y-120037290D01*
X131540912Y-120011414D01*
X131568838Y-119983908D01*
X131597142Y-119955723D01*
X131624870Y-119927807D01*
X131651071Y-119901109D01*
X131674792Y-119876578D01*
X131695081Y-119855162D01*
X131710985Y-119837810D01*
X131721554Y-119825471D01*
X131725834Y-119819094D01*
X131725880Y-119818792D01*
X131723089Y-119812917D01*
X131715148Y-119799690D01*
X131702705Y-119780102D01*
X131686406Y-119755147D01*
X131666900Y-119725814D01*
X131644834Y-119693098D01*
X131621740Y-119659274D01*
X131597807Y-119624192D01*
X131575813Y-119591493D01*
X131556405Y-119562179D01*
X131540232Y-119537247D01*
X131527942Y-119517696D01*
X131520183Y-119504527D01*
X131517600Y-119498812D01*
X131519920Y-119491386D01*
X131526305Y-119476894D01*
X131535890Y-119457157D01*
X131547810Y-119433991D01*
X131553481Y-119423350D01*
X131566747Y-119397800D01*
X131577375Y-119375514D01*
X131584622Y-119358172D01*
X131587744Y-119347456D01*
X131587771Y-119345823D01*
X131586377Y-119343235D01*
X131582452Y-119339874D01*
X131575381Y-119335467D01*
X131564547Y-119329738D01*
X131549334Y-119322414D01*
X131529125Y-119313220D01*
X131503305Y-119301884D01*
X131471257Y-119288129D01*
X131432365Y-119271684D01*
X131386012Y-119252272D01*
X131331582Y-119229620D01*
X131268459Y-119203454D01*
X131257359Y-119198860D01*
X131202528Y-119176257D01*
X131150342Y-119154911D01*
X131101575Y-119135128D01*
X131056998Y-119117213D01*
X131017386Y-119101473D01*
X130983510Y-119088212D01*
X130956143Y-119077736D01*
X130936060Y-119070352D01*
X130924031Y-119066364D01*
X130920809Y-119065760D01*
X130914897Y-119070949D01*
X130904827Y-119082723D01*
X130892102Y-119099234D01*
X130880629Y-119115173D01*
X130849570Y-119157327D01*
X130820231Y-119191753D01*
X130790682Y-119220203D01*
X130758997Y-119244432D01*
X130723247Y-119266194D01*
X130702918Y-119276863D01*
X130644488Y-119300756D01*
X130584158Y-119315076D01*
X130522953Y-119319979D01*
X130461898Y-119315623D01*
X130402019Y-119302163D01*
X130344342Y-119279756D01*
X130289891Y-119248559D01*
X130239692Y-119208727D01*
X130236411Y-119205664D01*
X130192833Y-119158017D01*
X130157422Y-119104808D01*
X130129755Y-119045354D01*
X130119807Y-119016660D01*
X130114974Y-118999933D01*
X130111632Y-118984165D01*
X130109519Y-118966854D01*
X130108373Y-118945497D01*
X130107935Y-118917593D01*
X130107900Y-118902540D01*
X130108110Y-118870915D01*
X130108916Y-118846936D01*
X130110578Y-118828093D01*
X130113357Y-118811877D01*
X130117516Y-118795778D01*
X130119802Y-118788240D01*
X130144205Y-118726246D01*
X130176690Y-118669961D01*
X130216763Y-118619969D01*
X130263933Y-118576854D01*
X130317707Y-118541201D01*
X130336500Y-118531329D01*
X130383357Y-118510756D01*
X130427726Y-118497234D01*
X130473443Y-118489860D01*
X130521920Y-118487727D01*
X130586989Y-118492586D01*
X130649065Y-118506992D01*
X130707510Y-118530688D01*
X130761687Y-118563416D01*
X130809975Y-118603955D01*
X130826971Y-118622140D01*
X130846791Y-118645762D01*
X130867052Y-118671748D01*
X130885368Y-118697023D01*
X130899354Y-118718514D01*
X130900883Y-118721139D01*
X130909785Y-118732832D01*
X130919264Y-118739872D01*
X130920648Y-118740325D01*
X130927322Y-118738872D01*
X130942833Y-118733641D01*
X130966671Y-118724832D01*
X130998326Y-118712647D01*
X131037287Y-118697287D01*
X131083043Y-118678953D01*
X131135085Y-118657846D01*
X131192901Y-118634166D01*
X131249679Y-118610728D01*
X131303781Y-118588300D01*
X131355286Y-118566914D01*
X131403399Y-118546903D01*
X131447325Y-118528599D01*
X131486268Y-118512334D01*
X131519433Y-118498442D01*
X131546026Y-118487253D01*
X131565249Y-118479102D01*
X131576309Y-118474319D01*
X131578609Y-118473253D01*
X131586716Y-118465020D01*
X131588720Y-118458211D01*
X131586394Y-118450498D01*
X131579995Y-118435745D01*
X131570387Y-118415790D01*
X131558437Y-118392470D01*
X131552672Y-118381642D01*
X131537192Y-118351834D01*
X131526189Y-118328316D01*
X131520007Y-118311875D01*
X131518837Y-118303822D01*
X131522269Y-118296680D01*
X131530700Y-118282538D01*
X131543286Y-118262709D01*
X131559184Y-118238506D01*
X131577551Y-118211241D01*
X131589461Y-118193880D01*
X131621822Y-118146962D01*
X131648815Y-118107682D01*
X131670892Y-118075352D01*
X131688506Y-118049281D01*
X131702109Y-118028781D01*
X131712155Y-118013163D01*
X131719097Y-118001739D01*
X131723388Y-117993819D01*
X131725480Y-117988714D01*
X131725880Y-117986387D01*
X131722399Y-117981121D01*
X131712478Y-117969535D01*
X131696897Y-117952460D01*
X131676437Y-117930721D01*
X131651880Y-117905148D01*
X131624006Y-117876568D01*
X131593597Y-117845809D01*
X131587541Y-117839731D01*
X131556470Y-117808736D01*
X131527382Y-117780010D01*
X131501112Y-117754357D01*
X131478494Y-117732577D01*
X131460363Y-117715473D01*
X131447552Y-117703847D01*
X131440896Y-117698501D01*
X131440413Y-117698266D01*
X131437436Y-117697367D01*
X131434393Y-117697052D01*
X131430460Y-117697835D01*
X131424812Y-117700226D01*
X131416624Y-117704737D01*
X131405072Y-117711879D01*
X131389330Y-117722165D01*
X131368575Y-117736105D01*
X131341980Y-117754212D01*
X131308721Y-117776996D01*
X131267973Y-117804969D01*
X131264266Y-117807515D01*
X131229625Y-117831161D01*
X131197438Y-117852865D01*
X131168706Y-117871973D01*
X131144428Y-117887831D01*
X131125605Y-117899785D01*
X131113237Y-117907181D01*
X131108469Y-117909400D01*
X131102070Y-117907571D01*
X131087455Y-117902390D01*
X131065826Y-117894314D01*
X131038385Y-117883802D01*
X131006333Y-117871312D01*
X130970874Y-117857300D01*
X130953307Y-117850294D01*
X130909314Y-117832557D01*
X130874051Y-117818005D01*
X130846727Y-117806276D01*
X130826551Y-117797006D01*
X130812734Y-117789833D01*
X130804485Y-117784394D01*
X130801059Y-117780444D01*
X130799121Y-117773085D01*
X130795609Y-117756936D01*
X130790762Y-117733202D01*
X130784819Y-117703091D01*
X130778018Y-117667809D01*
X130770597Y-117628562D01*
X130763414Y-117589921D01*
X130755616Y-117548281D01*
X130748154Y-117509669D01*
X130741273Y-117475261D01*
X130735217Y-117446230D01*
X130730232Y-117423751D01*
X130726560Y-117408998D01*
X130724531Y-117403231D01*
X130721360Y-117401433D01*
X130714541Y-117399961D01*
X130703211Y-117398785D01*
X130686509Y-117397877D01*
X130663571Y-117397207D01*
X130633536Y-117396746D01*
X130595541Y-117396465D01*
X130548724Y-117396336D01*
X130518875Y-117396320D01*
X130318954Y-117396320D01*
X130311902Y-117407750D01*
X130309400Y-117415237D01*
X130305372Y-117431536D01*
X130300066Y-117455455D01*
X130293732Y-117485802D01*
X130286617Y-117521384D01*
X130278971Y-117561009D01*
X130271042Y-117603486D01*
X130270838Y-117604600D01*
X130262950Y-117646876D01*
X130255374Y-117686108D01*
X130248352Y-117721145D01*
X130242126Y-117750836D01*
X130236937Y-117774030D01*
X130233026Y-117789576D01*
X130230637Y-117796323D01*
X130230566Y-117796405D01*
X130224301Y-117800090D01*
X130210106Y-117807022D01*
X130189428Y-117816577D01*
X130163713Y-117828134D01*
X130134406Y-117841070D01*
X130102954Y-117854763D01*
X130070802Y-117868591D01*
X130039397Y-117881931D01*
X130010185Y-117894161D01*
X129984611Y-117904659D01*
X129964123Y-117912803D01*
X129950165Y-117917969D01*
X129944394Y-117919560D01*
X129938575Y-117916767D01*
X129925372Y-117908811D01*
X129905749Y-117896319D01*
X129880667Y-117879924D01*
X129851089Y-117860254D01*
X129817976Y-117837939D01*
X129782293Y-117813611D01*
X129776655Y-117809742D01*
X129740538Y-117785048D01*
X129706750Y-117762155D01*
X129676274Y-117741713D01*
X129650088Y-117724371D01*
X129629175Y-117710778D01*
X129614516Y-117701583D01*
X129607090Y-117697434D01*
X129606684Y-117697293D01*
X129602579Y-117698054D01*
X129595668Y-117702214D01*
X129585355Y-117710317D01*
X129571048Y-117722905D01*
X129552154Y-117740521D01*
X129528078Y-117763708D01*
X129498226Y-117793008D01*
X129462005Y-117828964D01*
X129454749Y-117836199D01*
X129418889Y-117872218D01*
X129387378Y-117904356D01*
X129360731Y-117932068D01*
X129339461Y-117954806D01*
X129324081Y-117972023D01*
X129315105Y-117983174D01*
X129312880Y-117987325D01*
X129315672Y-117993560D01*
X129323627Y-118007156D01*
X129336110Y-118027133D01*
X129352487Y-118052508D01*
X129372122Y-118082300D01*
X129394382Y-118115526D01*
X129418631Y-118151205D01*
X129421289Y-118155086D01*
X129445928Y-118191100D01*
X129468914Y-118224822D01*
X129489573Y-118255253D01*
X129507230Y-118281395D01*
X129521211Y-118302248D01*
X129530841Y-118316815D01*
X129535446Y-118324096D01*
X129535587Y-118324352D01*
X129536941Y-118328805D01*
X129536744Y-118335339D01*
X129534631Y-118345059D01*
X129530234Y-118359068D01*
X129523187Y-118378471D01*
X129513124Y-118404373D01*
X129499677Y-118437877D01*
X129490068Y-118461512D01*
X129472981Y-118503366D01*
X129459243Y-118536788D01*
X129448382Y-118562760D01*
X129439926Y-118582264D01*
X129433403Y-118596281D01*
X129428340Y-118605795D01*
X129424266Y-118611786D01*
X129420708Y-118615236D01*
X129417193Y-118617128D01*
X129414840Y-118617945D01*
X129407736Y-118619560D01*
X129391805Y-118622793D01*
X129368215Y-118627420D01*
X129338129Y-118633216D01*
X129302714Y-118639958D01*
X129263135Y-118647420D01*
X129220558Y-118655378D01*
X129216168Y-118656195D01*
X129173481Y-118664252D01*
X129133799Y-118671968D01*
X129098266Y-118679104D01*
X129068028Y-118685420D01*
X129044228Y-118690676D01*
X129028012Y-118694633D01*
X129020524Y-118697050D01*
X129020283Y-118697212D01*
X129018437Y-118700242D01*
X129016928Y-118706563D01*
X129015727Y-118717063D01*
X129014801Y-118732633D01*
X129014121Y-118754159D01*
X129013657Y-118782532D01*
X129013376Y-118818639D01*
X129013250Y-118863370D01*
X129013237Y-118901892D01*
X129013358Y-118946025D01*
G36*
X179428400Y-106413747D02*
G01*
X179428400Y-106959059D01*
X179629787Y-106760279D01*
X179992691Y-106430571D01*
X180266815Y-106216151D01*
X180370400Y-106137703D01*
X180490529Y-106043144D01*
X180614202Y-105943050D01*
X180728419Y-105847998D01*
X180820181Y-105768566D01*
X180847760Y-105743468D01*
X180935212Y-105662036D01*
X181026356Y-105731994D01*
X181215604Y-105867436D01*
X181355050Y-105954978D01*
X181437286Y-106009848D01*
X181516612Y-106071124D01*
X181522607Y-106076273D01*
X181605581Y-106145222D01*
X181708137Y-106225747D01*
X181818288Y-106308942D01*
X181924047Y-106385902D01*
X182013425Y-106447719D01*
X182070547Y-106483376D01*
X182123596Y-106518457D01*
X182202062Y-106576986D01*
X182293252Y-106648820D01*
X182384472Y-106723815D01*
X182463032Y-106791828D01*
X182502020Y-106828200D01*
X182528081Y-106852089D01*
X182575406Y-106894363D01*
X182584570Y-106902477D01*
X182654200Y-106964055D01*
X182654200Y-105837600D01*
X182575923Y-105837600D01*
X182499395Y-105820837D01*
X182394149Y-105773607D01*
X182268239Y-105700493D01*
X182129716Y-105606081D01*
X182015533Y-105518542D01*
X181923313Y-105447268D01*
X181832269Y-105381947D01*
X181759535Y-105334777D01*
X181748833Y-105328671D01*
X181682434Y-105288629D01*
X181634284Y-105253342D01*
X181625500Y-105244699D01*
X181586816Y-105210138D01*
X181530250Y-105169915D01*
X181482093Y-105132226D01*
X181460487Y-105101715D01*
X181460400Y-105100414D01*
X181485091Y-105091538D01*
X181556381Y-105084418D01*
X181670092Y-105079264D01*
X181822044Y-105076283D01*
X181956961Y-105075600D01*
X182136263Y-105076284D01*
X182272270Y-105078695D01*
X182372475Y-105083375D01*
X182444369Y-105090863D01*
X182495443Y-105101698D01*
X182533188Y-105116421D01*
X182534811Y-105117244D01*
X182594491Y-105152717D01*
X182632618Y-105184223D01*
X182634761Y-105187094D01*
X182640323Y-105171597D01*
X182645262Y-105112247D01*
X182649312Y-105015986D01*
X182652207Y-104889759D01*
X182653682Y-104740511D01*
X182653811Y-104688794D01*
X182654200Y-104162289D01*
X182584350Y-104191968D01*
X182525758Y-104220141D01*
X182490370Y-104242224D01*
X182461142Y-104246057D01*
X182385781Y-104249657D01*
X182268951Y-104252959D01*
X182115317Y-104255896D01*
X181929546Y-104258399D01*
X181716302Y-104260404D01*
X181480251Y-104261842D01*
X181226059Y-104262647D01*
X181054290Y-104262799D01*
X180750311Y-104262741D01*
X180492912Y-104262470D01*
X180277874Y-104261846D01*
X180100978Y-104260726D01*
X179958004Y-104258969D01*
X179844733Y-104256433D01*
X179756945Y-104252976D01*
X179690421Y-104248457D01*
X179640941Y-104242733D01*
X179604286Y-104235662D01*
X179576237Y-104227104D01*
X179552574Y-104216916D01*
X179542699Y-104211999D01*
X179480869Y-104181244D01*
X179441660Y-104163190D01*
X179435729Y-104161199D01*
X179433507Y-104185335D01*
X179431556Y-104252688D01*
X179429984Y-104355672D01*
X179428901Y-104486706D01*
X179428415Y-104638205D01*
X179428400Y-104671917D01*
X179428664Y-104845060D01*
X179429831Y-104973629D01*
X179432464Y-105063846D01*
X179437123Y-105121937D01*
X179444372Y-105154124D01*
X179454772Y-105166632D01*
X179468885Y-105165686D01*
X179472850Y-105164164D01*
X179561673Y-105130805D01*
X179650181Y-105106739D01*
X179749141Y-105090580D01*
X179869321Y-105080942D01*
X180021488Y-105076440D01*
X180161088Y-105075600D01*
X180580904Y-105075599D01*
X180507900Y-105151799D01*
X180457557Y-105199413D01*
X180420278Y-105225994D01*
X180413483Y-105228000D01*
X180387550Y-105243137D01*
X180334128Y-105282628D01*
X180264145Y-105337588D01*
X180188529Y-105399132D01*
X180118209Y-105458377D01*
X180064114Y-105506439D01*
X180038000Y-105533239D01*
X180010734Y-105555561D01*
X179954630Y-105593936D01*
X179911000Y-105621802D01*
X179823298Y-105680005D01*
X179736698Y-105742951D01*
X179708362Y-105765299D01*
X179641736Y-105810013D01*
X179580643Y-105835408D01*
X179564390Y-105837600D01*
X179520677Y-105838122D01*
X179487502Y-105843791D01*
X179463412Y-105860762D01*
X179446955Y-105895189D01*
X179436677Y-105953226D01*
X179431127Y-106041028D01*
X179428851Y-106164750D01*
X179428396Y-106330545D01*
X179428400Y-106413747D01*
X179428400Y-106413747D01*
G37*
X179428400Y-106413747D02*
X179428400Y-106959059D01*
X179629787Y-106760279D01*
X179992691Y-106430571D01*
X180266815Y-106216151D01*
X180370400Y-106137703D01*
X180490529Y-106043144D01*
X180614202Y-105943050D01*
X180728419Y-105847998D01*
X180820181Y-105768566D01*
X180847760Y-105743468D01*
X180935212Y-105662036D01*
X181026356Y-105731994D01*
X181215604Y-105867436D01*
X181355050Y-105954978D01*
X181437286Y-106009848D01*
X181516612Y-106071124D01*
X181522607Y-106076273D01*
X181605581Y-106145222D01*
X181708137Y-106225747D01*
X181818288Y-106308942D01*
X181924047Y-106385902D01*
X182013425Y-106447719D01*
X182070547Y-106483376D01*
X182123596Y-106518457D01*
X182202062Y-106576986D01*
X182293252Y-106648820D01*
X182384472Y-106723815D01*
X182463032Y-106791828D01*
X182502020Y-106828200D01*
X182528081Y-106852089D01*
X182575406Y-106894363D01*
X182584570Y-106902477D01*
X182654200Y-106964055D01*
X182654200Y-105837600D01*
X182575923Y-105837600D01*
X182499395Y-105820837D01*
X182394149Y-105773607D01*
X182268239Y-105700493D01*
X182129716Y-105606081D01*
X182015533Y-105518542D01*
X181923313Y-105447268D01*
X181832269Y-105381947D01*
X181759535Y-105334777D01*
X181748833Y-105328671D01*
X181682434Y-105288629D01*
X181634284Y-105253342D01*
X181625500Y-105244699D01*
X181586816Y-105210138D01*
X181530250Y-105169915D01*
X181482093Y-105132226D01*
X181460487Y-105101715D01*
X181460400Y-105100414D01*
X181485091Y-105091538D01*
X181556381Y-105084418D01*
X181670092Y-105079264D01*
X181822044Y-105076283D01*
X181956961Y-105075600D01*
X182136263Y-105076284D01*
X182272270Y-105078695D01*
X182372475Y-105083375D01*
X182444369Y-105090863D01*
X182495443Y-105101698D01*
X182533188Y-105116421D01*
X182534811Y-105117244D01*
X182594491Y-105152717D01*
X182632618Y-105184223D01*
X182634761Y-105187094D01*
X182640323Y-105171597D01*
X182645262Y-105112247D01*
X182649312Y-105015986D01*
X182652207Y-104889759D01*
X182653682Y-104740511D01*
X182653811Y-104688794D01*
X182654200Y-104162289D01*
X182584350Y-104191968D01*
X182525758Y-104220141D01*
X182490370Y-104242224D01*
X182461142Y-104246057D01*
X182385781Y-104249657D01*
X182268951Y-104252959D01*
X182115317Y-104255896D01*
X181929546Y-104258399D01*
X181716302Y-104260404D01*
X181480251Y-104261842D01*
X181226059Y-104262647D01*
X181054290Y-104262799D01*
X180750311Y-104262741D01*
X180492912Y-104262470D01*
X180277874Y-104261846D01*
X180100978Y-104260726D01*
X179958004Y-104258969D01*
X179844733Y-104256433D01*
X179756945Y-104252976D01*
X179690421Y-104248457D01*
X179640941Y-104242733D01*
X179604286Y-104235662D01*
X179576237Y-104227104D01*
X179552574Y-104216916D01*
X179542699Y-104211999D01*
X179480869Y-104181244D01*
X179441660Y-104163190D01*
X179435729Y-104161199D01*
X179433507Y-104185335D01*
X179431556Y-104252688D01*
X179429984Y-104355672D01*
X179428901Y-104486706D01*
X179428415Y-104638205D01*
X179428400Y-104671917D01*
X179428664Y-104845060D01*
X179429831Y-104973629D01*
X179432464Y-105063846D01*
X179437123Y-105121937D01*
X179444372Y-105154124D01*
X179454772Y-105166632D01*
X179468885Y-105165686D01*
X179472850Y-105164164D01*
X179561673Y-105130805D01*
X179650181Y-105106739D01*
X179749141Y-105090580D01*
X179869321Y-105080942D01*
X180021488Y-105076440D01*
X180161088Y-105075600D01*
X180580904Y-105075599D01*
X180507900Y-105151799D01*
X180457557Y-105199413D01*
X180420278Y-105225994D01*
X180413483Y-105228000D01*
X180387550Y-105243137D01*
X180334128Y-105282628D01*
X180264145Y-105337588D01*
X180188529Y-105399132D01*
X180118209Y-105458377D01*
X180064114Y-105506439D01*
X180038000Y-105533239D01*
X180010734Y-105555561D01*
X179954630Y-105593936D01*
X179911000Y-105621802D01*
X179823298Y-105680005D01*
X179736698Y-105742951D01*
X179708362Y-105765299D01*
X179641736Y-105810013D01*
X179580643Y-105835408D01*
X179564390Y-105837600D01*
X179520677Y-105838122D01*
X179487502Y-105843791D01*
X179463412Y-105860762D01*
X179446955Y-105895189D01*
X179436677Y-105953226D01*
X179431127Y-106041028D01*
X179428851Y-106164750D01*
X179428396Y-106330545D01*
X179428400Y-106413747D01*
G36*
X181392045Y-107996600D02*
G01*
X181663528Y-107996821D01*
X181888618Y-107997583D01*
X182071721Y-107999026D01*
X182217240Y-108001294D01*
X182329583Y-108004531D01*
X182413155Y-108008878D01*
X182472359Y-108014480D01*
X182511603Y-108021478D01*
X182535292Y-108030016D01*
X182541395Y-108033892D01*
X182578943Y-108060178D01*
X182607085Y-108070891D01*
X182627174Y-108060710D01*
X182640563Y-108024312D01*
X182648605Y-107956376D01*
X182652653Y-107851578D01*
X182654060Y-107704598D01*
X182654200Y-107590200D01*
X182653515Y-107439918D01*
X182651608Y-107308727D01*
X182648702Y-107204427D01*
X182645017Y-107134819D01*
X182640776Y-107107705D01*
X182640488Y-107107600D01*
X182611454Y-107118155D01*
X182554509Y-107144726D01*
X182527200Y-107158400D01*
X182499760Y-107171266D01*
X182469394Y-107181759D01*
X182430920Y-107190120D01*
X182379155Y-107196591D01*
X182308918Y-107201411D01*
X182215027Y-107204822D01*
X182092301Y-107207065D01*
X181935559Y-107208381D01*
X181739617Y-107209010D01*
X181499296Y-107209195D01*
X181434750Y-107209200D01*
X181177269Y-107208947D01*
X180965749Y-107208071D01*
X180795351Y-107206396D01*
X180661238Y-107203748D01*
X180558571Y-107199950D01*
X180482513Y-107194827D01*
X180428226Y-107188203D01*
X180390872Y-107179903D01*
X180366938Y-107170447D01*
X180292000Y-107131695D01*
X180292000Y-107996600D01*
X181392045Y-107996600D01*
X181392045Y-107996600D01*
G37*
X181392045Y-107996600D02*
X181663528Y-107996821D01*
X181888618Y-107997583D01*
X182071721Y-107999026D01*
X182217240Y-108001294D01*
X182329583Y-108004531D01*
X182413155Y-108008878D01*
X182472359Y-108014480D01*
X182511603Y-108021478D01*
X182535292Y-108030016D01*
X182541395Y-108033892D01*
X182578943Y-108060178D01*
X182607085Y-108070891D01*
X182627174Y-108060710D01*
X182640563Y-108024312D01*
X182648605Y-107956376D01*
X182652653Y-107851578D01*
X182654060Y-107704598D01*
X182654200Y-107590200D01*
X182653515Y-107439918D01*
X182651608Y-107308727D01*
X182648702Y-107204427D01*
X182645017Y-107134819D01*
X182640776Y-107107705D01*
X182640488Y-107107600D01*
X182611454Y-107118155D01*
X182554509Y-107144726D01*
X182527200Y-107158400D01*
X182499760Y-107171266D01*
X182469394Y-107181759D01*
X182430920Y-107190120D01*
X182379155Y-107196591D01*
X182308918Y-107201411D01*
X182215027Y-107204822D01*
X182092301Y-107207065D01*
X181935559Y-107208381D01*
X181739617Y-107209010D01*
X181499296Y-107209195D01*
X181434750Y-107209200D01*
X181177269Y-107208947D01*
X180965749Y-107208071D01*
X180795351Y-107206396D01*
X180661238Y-107203748D01*
X180558571Y-107199950D01*
X180482513Y-107194827D01*
X180428226Y-107188203D01*
X180390872Y-107179903D01*
X180366938Y-107170447D01*
X180292000Y-107131695D01*
X180292000Y-107996600D01*
X181392045Y-107996600D01*
G36*
X178525960Y-107755941D02*
G01*
X178592395Y-107873545D01*
X178695045Y-107967023D01*
X178781124Y-108010812D01*
X178919614Y-108041422D01*
X179057591Y-108032321D01*
X179179084Y-107984973D01*
X179197850Y-107972588D01*
X179285408Y-107882149D01*
X179345553Y-107763271D01*
X179375418Y-107630333D01*
X179372134Y-107497713D01*
X179332832Y-107379790D01*
X179320244Y-107359006D01*
X179241394Y-107276737D01*
X179132770Y-107208914D01*
X179015295Y-107166747D01*
X178945799Y-107158400D01*
X178836575Y-107177674D01*
X178722110Y-107228190D01*
X178623158Y-107298982D01*
X178574295Y-107354642D01*
X178513876Y-107486861D01*
X178498776Y-107623837D01*
X178525960Y-107755941D01*
X178525960Y-107755941D01*
G37*
X178525960Y-107755941D02*
X178592395Y-107873545D01*
X178695045Y-107967023D01*
X178781124Y-108010812D01*
X178919614Y-108041422D01*
X179057591Y-108032321D01*
X179179084Y-107984973D01*
X179197850Y-107972588D01*
X179285408Y-107882149D01*
X179345553Y-107763271D01*
X179375418Y-107630333D01*
X179372134Y-107497713D01*
X179332832Y-107379790D01*
X179320244Y-107359006D01*
X179241394Y-107276737D01*
X179132770Y-107208914D01*
X179015295Y-107166747D01*
X178945799Y-107158400D01*
X178836575Y-107177674D01*
X178722110Y-107228190D01*
X178623158Y-107298982D01*
X178574295Y-107354642D01*
X178513876Y-107486861D01*
X178498776Y-107623837D01*
X178525960Y-107755941D01*
G36*
X154028400Y-106413747D02*
G01*
X154028400Y-106959059D01*
X154229787Y-106760279D01*
X154592691Y-106430571D01*
X154866815Y-106216151D01*
X154970400Y-106137703D01*
X155090529Y-106043144D01*
X155214202Y-105943050D01*
X155328419Y-105847998D01*
X155420181Y-105768566D01*
X155447760Y-105743468D01*
X155535212Y-105662036D01*
X155626356Y-105731994D01*
X155815604Y-105867436D01*
X155955050Y-105954978D01*
X156037286Y-106009848D01*
X156116612Y-106071124D01*
X156122607Y-106076273D01*
X156205581Y-106145222D01*
X156308137Y-106225747D01*
X156418288Y-106308942D01*
X156524047Y-106385902D01*
X156613425Y-106447719D01*
X156670547Y-106483376D01*
X156723596Y-106518457D01*
X156802062Y-106576986D01*
X156893252Y-106648820D01*
X156984472Y-106723815D01*
X157063032Y-106791828D01*
X157102020Y-106828200D01*
X157128081Y-106852089D01*
X157175406Y-106894363D01*
X157184570Y-106902477D01*
X157254200Y-106964055D01*
X157254200Y-105837600D01*
X157175923Y-105837600D01*
X157099395Y-105820837D01*
X156994149Y-105773607D01*
X156868239Y-105700493D01*
X156729716Y-105606081D01*
X156615533Y-105518542D01*
X156523313Y-105447268D01*
X156432269Y-105381947D01*
X156359535Y-105334777D01*
X156348833Y-105328671D01*
X156282434Y-105288629D01*
X156234284Y-105253342D01*
X156225500Y-105244699D01*
X156186816Y-105210138D01*
X156130250Y-105169915D01*
X156082093Y-105132226D01*
X156060487Y-105101715D01*
X156060400Y-105100414D01*
X156085091Y-105091538D01*
X156156381Y-105084418D01*
X156270092Y-105079264D01*
X156422044Y-105076283D01*
X156556961Y-105075600D01*
X156736263Y-105076284D01*
X156872270Y-105078695D01*
X156972475Y-105083375D01*
X157044369Y-105090863D01*
X157095443Y-105101698D01*
X157133188Y-105116421D01*
X157134811Y-105117244D01*
X157194491Y-105152717D01*
X157232618Y-105184223D01*
X157234761Y-105187094D01*
X157240323Y-105171597D01*
X157245262Y-105112247D01*
X157249312Y-105015986D01*
X157252207Y-104889759D01*
X157253682Y-104740511D01*
X157253811Y-104688794D01*
X157254200Y-104162289D01*
X157184350Y-104191968D01*
X157125758Y-104220141D01*
X157090370Y-104242224D01*
X157061142Y-104246057D01*
X156985781Y-104249657D01*
X156868951Y-104252959D01*
X156715317Y-104255896D01*
X156529546Y-104258399D01*
X156316302Y-104260404D01*
X156080251Y-104261842D01*
X155826059Y-104262647D01*
X155654290Y-104262799D01*
X155350311Y-104262741D01*
X155092912Y-104262470D01*
X154877874Y-104261846D01*
X154700978Y-104260726D01*
X154558004Y-104258969D01*
X154444733Y-104256433D01*
X154356945Y-104252976D01*
X154290421Y-104248457D01*
X154240941Y-104242733D01*
X154204286Y-104235662D01*
X154176237Y-104227104D01*
X154152574Y-104216916D01*
X154142699Y-104211999D01*
X154080869Y-104181244D01*
X154041660Y-104163190D01*
X154035729Y-104161199D01*
X154033507Y-104185335D01*
X154031556Y-104252688D01*
X154029984Y-104355672D01*
X154028901Y-104486706D01*
X154028415Y-104638205D01*
X154028400Y-104671917D01*
X154028664Y-104845060D01*
X154029831Y-104973629D01*
X154032464Y-105063846D01*
X154037123Y-105121937D01*
X154044372Y-105154124D01*
X154054772Y-105166632D01*
X154068885Y-105165686D01*
X154072850Y-105164164D01*
X154161673Y-105130805D01*
X154250181Y-105106739D01*
X154349141Y-105090580D01*
X154469321Y-105080942D01*
X154621488Y-105076440D01*
X154761088Y-105075600D01*
X155180904Y-105075599D01*
X155107900Y-105151799D01*
X155057557Y-105199413D01*
X155020278Y-105225994D01*
X155013483Y-105228000D01*
X154987550Y-105243137D01*
X154934128Y-105282628D01*
X154864145Y-105337588D01*
X154788529Y-105399132D01*
X154718209Y-105458377D01*
X154664114Y-105506439D01*
X154638000Y-105533239D01*
X154610734Y-105555561D01*
X154554630Y-105593936D01*
X154511000Y-105621802D01*
X154423298Y-105680005D01*
X154336698Y-105742951D01*
X154308362Y-105765299D01*
X154241736Y-105810013D01*
X154180643Y-105835408D01*
X154164390Y-105837600D01*
X154120677Y-105838122D01*
X154087502Y-105843791D01*
X154063412Y-105860762D01*
X154046955Y-105895189D01*
X154036677Y-105953226D01*
X154031127Y-106041028D01*
X154028851Y-106164750D01*
X154028396Y-106330545D01*
X154028400Y-106413747D01*
X154028400Y-106413747D01*
G37*
X154028400Y-106413747D02*
X154028400Y-106959059D01*
X154229787Y-106760279D01*
X154592691Y-106430571D01*
X154866815Y-106216151D01*
X154970400Y-106137703D01*
X155090529Y-106043144D01*
X155214202Y-105943050D01*
X155328419Y-105847998D01*
X155420181Y-105768566D01*
X155447760Y-105743468D01*
X155535212Y-105662036D01*
X155626356Y-105731994D01*
X155815604Y-105867436D01*
X155955050Y-105954978D01*
X156037286Y-106009848D01*
X156116612Y-106071124D01*
X156122607Y-106076273D01*
X156205581Y-106145222D01*
X156308137Y-106225747D01*
X156418288Y-106308942D01*
X156524047Y-106385902D01*
X156613425Y-106447719D01*
X156670547Y-106483376D01*
X156723596Y-106518457D01*
X156802062Y-106576986D01*
X156893252Y-106648820D01*
X156984472Y-106723815D01*
X157063032Y-106791828D01*
X157102020Y-106828200D01*
X157128081Y-106852089D01*
X157175406Y-106894363D01*
X157184570Y-106902477D01*
X157254200Y-106964055D01*
X157254200Y-105837600D01*
X157175923Y-105837600D01*
X157099395Y-105820837D01*
X156994149Y-105773607D01*
X156868239Y-105700493D01*
X156729716Y-105606081D01*
X156615533Y-105518542D01*
X156523313Y-105447268D01*
X156432269Y-105381947D01*
X156359535Y-105334777D01*
X156348833Y-105328671D01*
X156282434Y-105288629D01*
X156234284Y-105253342D01*
X156225500Y-105244699D01*
X156186816Y-105210138D01*
X156130250Y-105169915D01*
X156082093Y-105132226D01*
X156060487Y-105101715D01*
X156060400Y-105100414D01*
X156085091Y-105091538D01*
X156156381Y-105084418D01*
X156270092Y-105079264D01*
X156422044Y-105076283D01*
X156556961Y-105075600D01*
X156736263Y-105076284D01*
X156872270Y-105078695D01*
X156972475Y-105083375D01*
X157044369Y-105090863D01*
X157095443Y-105101698D01*
X157133188Y-105116421D01*
X157134811Y-105117244D01*
X157194491Y-105152717D01*
X157232618Y-105184223D01*
X157234761Y-105187094D01*
X157240323Y-105171597D01*
X157245262Y-105112247D01*
X157249312Y-105015986D01*
X157252207Y-104889759D01*
X157253682Y-104740511D01*
X157253811Y-104688794D01*
X157254200Y-104162289D01*
X157184350Y-104191968D01*
X157125758Y-104220141D01*
X157090370Y-104242224D01*
X157061142Y-104246057D01*
X156985781Y-104249657D01*
X156868951Y-104252959D01*
X156715317Y-104255896D01*
X156529546Y-104258399D01*
X156316302Y-104260404D01*
X156080251Y-104261842D01*
X155826059Y-104262647D01*
X155654290Y-104262799D01*
X155350311Y-104262741D01*
X155092912Y-104262470D01*
X154877874Y-104261846D01*
X154700978Y-104260726D01*
X154558004Y-104258969D01*
X154444733Y-104256433D01*
X154356945Y-104252976D01*
X154290421Y-104248457D01*
X154240941Y-104242733D01*
X154204286Y-104235662D01*
X154176237Y-104227104D01*
X154152574Y-104216916D01*
X154142699Y-104211999D01*
X154080869Y-104181244D01*
X154041660Y-104163190D01*
X154035729Y-104161199D01*
X154033507Y-104185335D01*
X154031556Y-104252688D01*
X154029984Y-104355672D01*
X154028901Y-104486706D01*
X154028415Y-104638205D01*
X154028400Y-104671917D01*
X154028664Y-104845060D01*
X154029831Y-104973629D01*
X154032464Y-105063846D01*
X154037123Y-105121937D01*
X154044372Y-105154124D01*
X154054772Y-105166632D01*
X154068885Y-105165686D01*
X154072850Y-105164164D01*
X154161673Y-105130805D01*
X154250181Y-105106739D01*
X154349141Y-105090580D01*
X154469321Y-105080942D01*
X154621488Y-105076440D01*
X154761088Y-105075600D01*
X155180904Y-105075599D01*
X155107900Y-105151799D01*
X155057557Y-105199413D01*
X155020278Y-105225994D01*
X155013483Y-105228000D01*
X154987550Y-105243137D01*
X154934128Y-105282628D01*
X154864145Y-105337588D01*
X154788529Y-105399132D01*
X154718209Y-105458377D01*
X154664114Y-105506439D01*
X154638000Y-105533239D01*
X154610734Y-105555561D01*
X154554630Y-105593936D01*
X154511000Y-105621802D01*
X154423298Y-105680005D01*
X154336698Y-105742951D01*
X154308362Y-105765299D01*
X154241736Y-105810013D01*
X154180643Y-105835408D01*
X154164390Y-105837600D01*
X154120677Y-105838122D01*
X154087502Y-105843791D01*
X154063412Y-105860762D01*
X154046955Y-105895189D01*
X154036677Y-105953226D01*
X154031127Y-106041028D01*
X154028851Y-106164750D01*
X154028396Y-106330545D01*
X154028400Y-106413747D01*
G36*
X155992045Y-107996600D02*
G01*
X156263528Y-107996821D01*
X156488618Y-107997583D01*
X156671721Y-107999026D01*
X156817240Y-108001294D01*
X156929583Y-108004531D01*
X157013155Y-108008878D01*
X157072359Y-108014480D01*
X157111603Y-108021478D01*
X157135292Y-108030016D01*
X157141395Y-108033892D01*
X157178943Y-108060178D01*
X157207085Y-108070891D01*
X157227174Y-108060710D01*
X157240563Y-108024312D01*
X157248605Y-107956376D01*
X157252653Y-107851578D01*
X157254060Y-107704598D01*
X157254200Y-107590200D01*
X157253515Y-107439918D01*
X157251608Y-107308727D01*
X157248702Y-107204427D01*
X157245017Y-107134819D01*
X157240776Y-107107705D01*
X157240488Y-107107600D01*
X157211454Y-107118155D01*
X157154509Y-107144726D01*
X157127200Y-107158400D01*
X157099760Y-107171266D01*
X157069394Y-107181759D01*
X157030920Y-107190120D01*
X156979155Y-107196591D01*
X156908918Y-107201411D01*
X156815027Y-107204822D01*
X156692301Y-107207065D01*
X156535559Y-107208381D01*
X156339617Y-107209010D01*
X156099296Y-107209195D01*
X156034750Y-107209200D01*
X155777269Y-107208947D01*
X155565749Y-107208071D01*
X155395351Y-107206396D01*
X155261238Y-107203748D01*
X155158571Y-107199950D01*
X155082513Y-107194827D01*
X155028226Y-107188203D01*
X154990872Y-107179903D01*
X154966938Y-107170447D01*
X154892000Y-107131695D01*
X154892000Y-107996600D01*
X155992045Y-107996600D01*
X155992045Y-107996600D01*
G37*
X155992045Y-107996600D02*
X156263528Y-107996821D01*
X156488618Y-107997583D01*
X156671721Y-107999026D01*
X156817240Y-108001294D01*
X156929583Y-108004531D01*
X157013155Y-108008878D01*
X157072359Y-108014480D01*
X157111603Y-108021478D01*
X157135292Y-108030016D01*
X157141395Y-108033892D01*
X157178943Y-108060178D01*
X157207085Y-108070891D01*
X157227174Y-108060710D01*
X157240563Y-108024312D01*
X157248605Y-107956376D01*
X157252653Y-107851578D01*
X157254060Y-107704598D01*
X157254200Y-107590200D01*
X157253515Y-107439918D01*
X157251608Y-107308727D01*
X157248702Y-107204427D01*
X157245017Y-107134819D01*
X157240776Y-107107705D01*
X157240488Y-107107600D01*
X157211454Y-107118155D01*
X157154509Y-107144726D01*
X157127200Y-107158400D01*
X157099760Y-107171266D01*
X157069394Y-107181759D01*
X157030920Y-107190120D01*
X156979155Y-107196591D01*
X156908918Y-107201411D01*
X156815027Y-107204822D01*
X156692301Y-107207065D01*
X156535559Y-107208381D01*
X156339617Y-107209010D01*
X156099296Y-107209195D01*
X156034750Y-107209200D01*
X155777269Y-107208947D01*
X155565749Y-107208071D01*
X155395351Y-107206396D01*
X155261238Y-107203748D01*
X155158571Y-107199950D01*
X155082513Y-107194827D01*
X155028226Y-107188203D01*
X154990872Y-107179903D01*
X154966938Y-107170447D01*
X154892000Y-107131695D01*
X154892000Y-107996600D01*
X155992045Y-107996600D01*
G36*
X153125960Y-107755941D02*
G01*
X153192395Y-107873545D01*
X153295045Y-107967023D01*
X153381124Y-108010812D01*
X153519614Y-108041422D01*
X153657591Y-108032321D01*
X153779084Y-107984973D01*
X153797850Y-107972588D01*
X153885408Y-107882149D01*
X153945553Y-107763271D01*
X153975418Y-107630333D01*
X153972134Y-107497713D01*
X153932832Y-107379790D01*
X153920244Y-107359006D01*
X153841394Y-107276737D01*
X153732770Y-107208914D01*
X153615295Y-107166747D01*
X153545799Y-107158400D01*
X153436575Y-107177674D01*
X153322110Y-107228190D01*
X153223158Y-107298982D01*
X153174295Y-107354642D01*
X153113876Y-107486861D01*
X153098776Y-107623837D01*
X153125960Y-107755941D01*
X153125960Y-107755941D01*
G37*
X153125960Y-107755941D02*
X153192395Y-107873545D01*
X153295045Y-107967023D01*
X153381124Y-108010812D01*
X153519614Y-108041422D01*
X153657591Y-108032321D01*
X153779084Y-107984973D01*
X153797850Y-107972588D01*
X153885408Y-107882149D01*
X153945553Y-107763271D01*
X153975418Y-107630333D01*
X153972134Y-107497713D01*
X153932832Y-107379790D01*
X153920244Y-107359006D01*
X153841394Y-107276737D01*
X153732770Y-107208914D01*
X153615295Y-107166747D01*
X153545799Y-107158400D01*
X153436575Y-107177674D01*
X153322110Y-107228190D01*
X153223158Y-107298982D01*
X153174295Y-107354642D01*
X153113876Y-107486861D01*
X153098776Y-107623837D01*
X153125960Y-107755941D01*
G36*
X128628400Y-106413747D02*
G01*
X128628400Y-106959059D01*
X128829787Y-106760279D01*
X129192691Y-106430571D01*
X129466815Y-106216151D01*
X129570400Y-106137703D01*
X129690529Y-106043144D01*
X129814202Y-105943050D01*
X129928419Y-105847998D01*
X130020181Y-105768566D01*
X130047760Y-105743468D01*
X130135212Y-105662036D01*
X130226356Y-105731994D01*
X130415604Y-105867436D01*
X130555050Y-105954978D01*
X130637286Y-106009848D01*
X130716612Y-106071124D01*
X130722607Y-106076273D01*
X130805581Y-106145222D01*
X130908137Y-106225747D01*
X131018288Y-106308942D01*
X131124047Y-106385902D01*
X131213425Y-106447719D01*
X131270547Y-106483376D01*
X131323596Y-106518457D01*
X131402062Y-106576986D01*
X131493252Y-106648820D01*
X131584472Y-106723815D01*
X131663032Y-106791828D01*
X131702020Y-106828200D01*
X131728081Y-106852089D01*
X131775406Y-106894363D01*
X131784570Y-106902477D01*
X131854200Y-106964055D01*
X131854200Y-105837600D01*
X131775923Y-105837600D01*
X131699395Y-105820837D01*
X131594149Y-105773607D01*
X131468239Y-105700493D01*
X131329716Y-105606081D01*
X131215533Y-105518542D01*
X131123313Y-105447268D01*
X131032269Y-105381947D01*
X130959535Y-105334777D01*
X130948833Y-105328671D01*
X130882434Y-105288629D01*
X130834284Y-105253342D01*
X130825500Y-105244699D01*
X130786816Y-105210138D01*
X130730250Y-105169915D01*
X130682093Y-105132226D01*
X130660487Y-105101715D01*
X130660400Y-105100414D01*
X130685091Y-105091538D01*
X130756381Y-105084418D01*
X130870092Y-105079264D01*
X131022044Y-105076283D01*
X131156961Y-105075600D01*
X131336263Y-105076284D01*
X131472270Y-105078695D01*
X131572475Y-105083375D01*
X131644369Y-105090863D01*
X131695443Y-105101698D01*
X131733188Y-105116421D01*
X131734811Y-105117244D01*
X131794491Y-105152717D01*
X131832618Y-105184223D01*
X131834761Y-105187094D01*
X131840323Y-105171597D01*
X131845262Y-105112247D01*
X131849312Y-105015986D01*
X131852207Y-104889759D01*
X131853682Y-104740511D01*
X131853811Y-104688794D01*
X131854200Y-104162289D01*
X131784350Y-104191968D01*
X131725758Y-104220141D01*
X131690370Y-104242224D01*
X131661142Y-104246057D01*
X131585781Y-104249657D01*
X131468951Y-104252959D01*
X131315317Y-104255896D01*
X131129546Y-104258399D01*
X130916302Y-104260404D01*
X130680251Y-104261842D01*
X130426059Y-104262647D01*
X130254290Y-104262799D01*
X129950311Y-104262741D01*
X129692912Y-104262470D01*
X129477874Y-104261846D01*
X129300978Y-104260726D01*
X129158004Y-104258969D01*
X129044733Y-104256433D01*
X128956945Y-104252976D01*
X128890421Y-104248457D01*
X128840941Y-104242733D01*
X128804286Y-104235662D01*
X128776237Y-104227104D01*
X128752574Y-104216916D01*
X128742699Y-104211999D01*
X128680869Y-104181244D01*
X128641660Y-104163190D01*
X128635729Y-104161199D01*
X128633507Y-104185335D01*
X128631556Y-104252688D01*
X128629984Y-104355672D01*
X128628901Y-104486706D01*
X128628415Y-104638205D01*
X128628400Y-104671917D01*
X128628664Y-104845060D01*
X128629831Y-104973629D01*
X128632464Y-105063846D01*
X128637123Y-105121937D01*
X128644372Y-105154124D01*
X128654772Y-105166632D01*
X128668885Y-105165686D01*
X128672850Y-105164164D01*
X128761673Y-105130805D01*
X128850181Y-105106739D01*
X128949141Y-105090580D01*
X129069321Y-105080942D01*
X129221488Y-105076440D01*
X129361088Y-105075600D01*
X129780904Y-105075599D01*
X129707900Y-105151799D01*
X129657557Y-105199413D01*
X129620278Y-105225994D01*
X129613483Y-105228000D01*
X129587550Y-105243137D01*
X129534128Y-105282628D01*
X129464145Y-105337588D01*
X129388529Y-105399132D01*
X129318209Y-105458377D01*
X129264114Y-105506439D01*
X129238000Y-105533239D01*
X129210734Y-105555561D01*
X129154630Y-105593936D01*
X129111000Y-105621802D01*
X129023298Y-105680005D01*
X128936698Y-105742951D01*
X128908362Y-105765299D01*
X128841736Y-105810013D01*
X128780643Y-105835408D01*
X128764390Y-105837600D01*
X128720677Y-105838122D01*
X128687502Y-105843791D01*
X128663412Y-105860762D01*
X128646955Y-105895189D01*
X128636677Y-105953226D01*
X128631127Y-106041028D01*
X128628851Y-106164750D01*
X128628396Y-106330545D01*
X128628400Y-106413747D01*
X128628400Y-106413747D01*
G37*
X128628400Y-106413747D02*
X128628400Y-106959059D01*
X128829787Y-106760279D01*
X129192691Y-106430571D01*
X129466815Y-106216151D01*
X129570400Y-106137703D01*
X129690529Y-106043144D01*
X129814202Y-105943050D01*
X129928419Y-105847998D01*
X130020181Y-105768566D01*
X130047760Y-105743468D01*
X130135212Y-105662036D01*
X130226356Y-105731994D01*
X130415604Y-105867436D01*
X130555050Y-105954978D01*
X130637286Y-106009848D01*
X130716612Y-106071124D01*
X130722607Y-106076273D01*
X130805581Y-106145222D01*
X130908137Y-106225747D01*
X131018288Y-106308942D01*
X131124047Y-106385902D01*
X131213425Y-106447719D01*
X131270547Y-106483376D01*
X131323596Y-106518457D01*
X131402062Y-106576986D01*
X131493252Y-106648820D01*
X131584472Y-106723815D01*
X131663032Y-106791828D01*
X131702020Y-106828200D01*
X131728081Y-106852089D01*
X131775406Y-106894363D01*
X131784570Y-106902477D01*
X131854200Y-106964055D01*
X131854200Y-105837600D01*
X131775923Y-105837600D01*
X131699395Y-105820837D01*
X131594149Y-105773607D01*
X131468239Y-105700493D01*
X131329716Y-105606081D01*
X131215533Y-105518542D01*
X131123313Y-105447268D01*
X131032269Y-105381947D01*
X130959535Y-105334777D01*
X130948833Y-105328671D01*
X130882434Y-105288629D01*
X130834284Y-105253342D01*
X130825500Y-105244699D01*
X130786816Y-105210138D01*
X130730250Y-105169915D01*
X130682093Y-105132226D01*
X130660487Y-105101715D01*
X130660400Y-105100414D01*
X130685091Y-105091538D01*
X130756381Y-105084418D01*
X130870092Y-105079264D01*
X131022044Y-105076283D01*
X131156961Y-105075600D01*
X131336263Y-105076284D01*
X131472270Y-105078695D01*
X131572475Y-105083375D01*
X131644369Y-105090863D01*
X131695443Y-105101698D01*
X131733188Y-105116421D01*
X131734811Y-105117244D01*
X131794491Y-105152717D01*
X131832618Y-105184223D01*
X131834761Y-105187094D01*
X131840323Y-105171597D01*
X131845262Y-105112247D01*
X131849312Y-105015986D01*
X131852207Y-104889759D01*
X131853682Y-104740511D01*
X131853811Y-104688794D01*
X131854200Y-104162289D01*
X131784350Y-104191968D01*
X131725758Y-104220141D01*
X131690370Y-104242224D01*
X131661142Y-104246057D01*
X131585781Y-104249657D01*
X131468951Y-104252959D01*
X131315317Y-104255896D01*
X131129546Y-104258399D01*
X130916302Y-104260404D01*
X130680251Y-104261842D01*
X130426059Y-104262647D01*
X130254290Y-104262799D01*
X129950311Y-104262741D01*
X129692912Y-104262470D01*
X129477874Y-104261846D01*
X129300978Y-104260726D01*
X129158004Y-104258969D01*
X129044733Y-104256433D01*
X128956945Y-104252976D01*
X128890421Y-104248457D01*
X128840941Y-104242733D01*
X128804286Y-104235662D01*
X128776237Y-104227104D01*
X128752574Y-104216916D01*
X128742699Y-104211999D01*
X128680869Y-104181244D01*
X128641660Y-104163190D01*
X128635729Y-104161199D01*
X128633507Y-104185335D01*
X128631556Y-104252688D01*
X128629984Y-104355672D01*
X128628901Y-104486706D01*
X128628415Y-104638205D01*
X128628400Y-104671917D01*
X128628664Y-104845060D01*
X128629831Y-104973629D01*
X128632464Y-105063846D01*
X128637123Y-105121937D01*
X128644372Y-105154124D01*
X128654772Y-105166632D01*
X128668885Y-105165686D01*
X128672850Y-105164164D01*
X128761673Y-105130805D01*
X128850181Y-105106739D01*
X128949141Y-105090580D01*
X129069321Y-105080942D01*
X129221488Y-105076440D01*
X129361088Y-105075600D01*
X129780904Y-105075599D01*
X129707900Y-105151799D01*
X129657557Y-105199413D01*
X129620278Y-105225994D01*
X129613483Y-105228000D01*
X129587550Y-105243137D01*
X129534128Y-105282628D01*
X129464145Y-105337588D01*
X129388529Y-105399132D01*
X129318209Y-105458377D01*
X129264114Y-105506439D01*
X129238000Y-105533239D01*
X129210734Y-105555561D01*
X129154630Y-105593936D01*
X129111000Y-105621802D01*
X129023298Y-105680005D01*
X128936698Y-105742951D01*
X128908362Y-105765299D01*
X128841736Y-105810013D01*
X128780643Y-105835408D01*
X128764390Y-105837600D01*
X128720677Y-105838122D01*
X128687502Y-105843791D01*
X128663412Y-105860762D01*
X128646955Y-105895189D01*
X128636677Y-105953226D01*
X128631127Y-106041028D01*
X128628851Y-106164750D01*
X128628396Y-106330545D01*
X128628400Y-106413747D01*
G36*
X130592045Y-107996600D02*
G01*
X130863528Y-107996821D01*
X131088618Y-107997583D01*
X131271721Y-107999026D01*
X131417240Y-108001294D01*
X131529583Y-108004531D01*
X131613155Y-108008878D01*
X131672359Y-108014480D01*
X131711603Y-108021478D01*
X131735292Y-108030016D01*
X131741395Y-108033892D01*
X131778943Y-108060178D01*
X131807085Y-108070891D01*
X131827174Y-108060710D01*
X131840563Y-108024312D01*
X131848605Y-107956376D01*
X131852653Y-107851578D01*
X131854060Y-107704598D01*
X131854200Y-107590200D01*
X131853515Y-107439918D01*
X131851608Y-107308727D01*
X131848702Y-107204427D01*
X131845017Y-107134819D01*
X131840776Y-107107705D01*
X131840488Y-107107600D01*
X131811454Y-107118155D01*
X131754509Y-107144726D01*
X131727200Y-107158400D01*
X131699760Y-107171266D01*
X131669394Y-107181759D01*
X131630920Y-107190120D01*
X131579155Y-107196591D01*
X131508918Y-107201411D01*
X131415027Y-107204822D01*
X131292301Y-107207065D01*
X131135559Y-107208381D01*
X130939617Y-107209010D01*
X130699296Y-107209195D01*
X130634750Y-107209200D01*
X130377269Y-107208947D01*
X130165749Y-107208071D01*
X129995351Y-107206396D01*
X129861238Y-107203748D01*
X129758571Y-107199950D01*
X129682513Y-107194827D01*
X129628226Y-107188203D01*
X129590872Y-107179903D01*
X129566938Y-107170447D01*
X129492000Y-107131695D01*
X129492000Y-107996600D01*
X130592045Y-107996600D01*
X130592045Y-107996600D01*
G37*
X130592045Y-107996600D02*
X130863528Y-107996821D01*
X131088618Y-107997583D01*
X131271721Y-107999026D01*
X131417240Y-108001294D01*
X131529583Y-108004531D01*
X131613155Y-108008878D01*
X131672359Y-108014480D01*
X131711603Y-108021478D01*
X131735292Y-108030016D01*
X131741395Y-108033892D01*
X131778943Y-108060178D01*
X131807085Y-108070891D01*
X131827174Y-108060710D01*
X131840563Y-108024312D01*
X131848605Y-107956376D01*
X131852653Y-107851578D01*
X131854060Y-107704598D01*
X131854200Y-107590200D01*
X131853515Y-107439918D01*
X131851608Y-107308727D01*
X131848702Y-107204427D01*
X131845017Y-107134819D01*
X131840776Y-107107705D01*
X131840488Y-107107600D01*
X131811454Y-107118155D01*
X131754509Y-107144726D01*
X131727200Y-107158400D01*
X131699760Y-107171266D01*
X131669394Y-107181759D01*
X131630920Y-107190120D01*
X131579155Y-107196591D01*
X131508918Y-107201411D01*
X131415027Y-107204822D01*
X131292301Y-107207065D01*
X131135559Y-107208381D01*
X130939617Y-107209010D01*
X130699296Y-107209195D01*
X130634750Y-107209200D01*
X130377269Y-107208947D01*
X130165749Y-107208071D01*
X129995351Y-107206396D01*
X129861238Y-107203748D01*
X129758571Y-107199950D01*
X129682513Y-107194827D01*
X129628226Y-107188203D01*
X129590872Y-107179903D01*
X129566938Y-107170447D01*
X129492000Y-107131695D01*
X129492000Y-107996600D01*
X130592045Y-107996600D01*
G36*
X127725960Y-107755941D02*
G01*
X127792395Y-107873545D01*
X127895045Y-107967023D01*
X127981124Y-108010812D01*
X128119614Y-108041422D01*
X128257591Y-108032321D01*
X128379084Y-107984973D01*
X128397850Y-107972588D01*
X128485408Y-107882149D01*
X128545553Y-107763271D01*
X128575418Y-107630333D01*
X128572134Y-107497713D01*
X128532832Y-107379790D01*
X128520244Y-107359006D01*
X128441394Y-107276737D01*
X128332770Y-107208914D01*
X128215295Y-107166747D01*
X128145799Y-107158400D01*
X128036575Y-107177674D01*
X127922110Y-107228190D01*
X127823158Y-107298982D01*
X127774295Y-107354642D01*
X127713876Y-107486861D01*
X127698776Y-107623837D01*
X127725960Y-107755941D01*
X127725960Y-107755941D01*
G37*
X127725960Y-107755941D02*
X127792395Y-107873545D01*
X127895045Y-107967023D01*
X127981124Y-108010812D01*
X128119614Y-108041422D01*
X128257591Y-108032321D01*
X128379084Y-107984973D01*
X128397850Y-107972588D01*
X128485408Y-107882149D01*
X128545553Y-107763271D01*
X128575418Y-107630333D01*
X128572134Y-107497713D01*
X128532832Y-107379790D01*
X128520244Y-107359006D01*
X128441394Y-107276737D01*
X128332770Y-107208914D01*
X128215295Y-107166747D01*
X128145799Y-107158400D01*
X128036575Y-107177674D01*
X127922110Y-107228190D01*
X127823158Y-107298982D01*
X127774295Y-107354642D01*
X127713876Y-107486861D01*
X127698776Y-107623837D01*
X127725960Y-107755941D01*
G36*
X103613358Y-118946025D02*
G01*
X103613668Y-118987086D01*
X103614144Y-119023939D01*
X103614763Y-119055448D01*
X103615502Y-119080478D01*
X103616337Y-119097893D01*
X103617244Y-119106557D01*
X103617471Y-119107210D01*
X103623471Y-119109787D01*
X103638787Y-119113922D01*
X103662721Y-119119466D01*
X103694573Y-119126268D01*
X103733644Y-119134179D01*
X103779237Y-119143047D01*
X103820850Y-119150901D01*
X103864601Y-119159151D01*
X103905265Y-119167001D01*
X103941748Y-119174225D01*
X103972957Y-119180599D01*
X103997798Y-119185898D01*
X104015177Y-119189897D01*
X104024000Y-119192372D01*
X104024834Y-119192802D01*
X104028371Y-119199048D01*
X104034916Y-119213151D01*
X104043889Y-119233676D01*
X104054710Y-119259190D01*
X104066800Y-119288258D01*
X104079578Y-119319446D01*
X104092466Y-119351320D01*
X104104882Y-119382447D01*
X104116248Y-119411392D01*
X104125983Y-119436721D01*
X104133508Y-119456999D01*
X104138242Y-119470794D01*
X104139607Y-119476671D01*
X104139605Y-119476678D01*
X104136333Y-119481988D01*
X104127928Y-119494724D01*
X104115025Y-119513948D01*
X104098257Y-119538724D01*
X104078260Y-119568114D01*
X104055669Y-119601180D01*
X104031119Y-119636986D01*
X104025162Y-119645656D01*
X104000277Y-119682085D01*
X103977306Y-119716148D01*
X103956874Y-119746886D01*
X103939606Y-119773339D01*
X103926126Y-119794549D01*
X103917059Y-119809556D01*
X103913028Y-119817401D01*
X103912879Y-119818086D01*
X103916391Y-119823807D01*
X103926292Y-119835602D01*
X103941632Y-119852520D01*
X103961458Y-119873609D01*
X103984820Y-119897919D01*
X104010767Y-119924500D01*
X104038347Y-119952400D01*
X104066609Y-119980669D01*
X104094603Y-120008355D01*
X104121376Y-120034508D01*
X104145978Y-120058178D01*
X104167458Y-120078412D01*
X104184864Y-120094261D01*
X104197246Y-120104774D01*
X104203651Y-120108999D01*
X104203938Y-120109040D01*
X104210058Y-120106243D01*
X104223530Y-120098279D01*
X104243372Y-120085789D01*
X104268598Y-120069410D01*
X104298226Y-120049783D01*
X104331269Y-120027547D01*
X104366745Y-120003341D01*
X104369005Y-120001788D01*
X104404726Y-119977294D01*
X104438139Y-119954499D01*
X104468244Y-119934080D01*
X104494038Y-119916708D01*
X104514521Y-119903060D01*
X104528692Y-119893807D01*
X104535550Y-119889626D01*
X104535670Y-119889568D01*
X104540391Y-119888784D01*
X104548231Y-119889912D01*
X104560143Y-119893299D01*
X104577084Y-119899292D01*
X104600007Y-119908241D01*
X104629867Y-119920491D01*
X104667619Y-119936390D01*
X104687252Y-119944749D01*
X104724852Y-119961018D01*
X104758510Y-119976011D01*
X104787168Y-119989231D01*
X104809772Y-120000175D01*
X104825265Y-120008346D01*
X104832592Y-120013243D01*
X104832948Y-120013710D01*
X104834928Y-120020560D01*
X104838502Y-120036248D01*
X104843434Y-120059616D01*
X104849491Y-120089508D01*
X104856439Y-120124767D01*
X104864044Y-120164236D01*
X104872071Y-120206757D01*
X104872940Y-120211409D01*
X104882180Y-120260146D01*
X104890621Y-120303053D01*
X104898102Y-120339390D01*
X104904463Y-120368418D01*
X104909544Y-120389397D01*
X104913184Y-120401585D01*
X104914714Y-120404451D01*
X104921096Y-120405372D01*
X104936503Y-120406225D01*
X104959798Y-120406989D01*
X104989847Y-120407638D01*
X105025514Y-120408151D01*
X105065663Y-120408503D01*
X105109159Y-120408671D01*
X105120027Y-120408682D01*
X105171548Y-120408649D01*
X105213801Y-120408486D01*
X105247680Y-120408162D01*
X105274077Y-120407647D01*
X105293884Y-120406908D01*
X105307996Y-120405916D01*
X105317303Y-120404639D01*
X105322699Y-120403046D01*
X105324741Y-120401595D01*
X105326999Y-120395095D01*
X105330799Y-120379763D01*
X105335898Y-120356765D01*
X105342050Y-120327271D01*
X105349013Y-120292450D01*
X105356543Y-120253470D01*
X105364236Y-120212365D01*
X105372897Y-120166210D01*
X105380981Y-120124798D01*
X105388286Y-120089062D01*
X105394611Y-120059937D01*
X105399758Y-120038354D01*
X105403525Y-120025249D01*
X105405133Y-120021726D01*
X105411585Y-120017704D01*
X105425987Y-120010714D01*
X105446948Y-120001314D01*
X105473082Y-119990063D01*
X105503000Y-119977519D01*
X105535313Y-119964240D01*
X105568634Y-119950785D01*
X105601575Y-119937712D01*
X105632747Y-119925580D01*
X105660763Y-119914946D01*
X105684233Y-119906369D01*
X105701771Y-119900408D01*
X105711987Y-119897620D01*
X105713842Y-119897556D01*
X105719358Y-119900901D01*
X105732262Y-119909348D01*
X105751573Y-119922236D01*
X105776312Y-119938906D01*
X105805498Y-119958697D01*
X105838151Y-119980948D01*
X105872582Y-120004512D01*
X105907797Y-120028487D01*
X105940662Y-120050526D01*
X105970174Y-120069982D01*
X105995331Y-120086209D01*
X106015130Y-120098558D01*
X106028568Y-120106383D01*
X106034588Y-120109040D01*
X106040258Y-120105537D01*
X106052017Y-120095662D01*
X106068914Y-120080363D01*
X106089997Y-120060590D01*
X106114314Y-120037290D01*
X106140912Y-120011414D01*
X106168838Y-119983908D01*
X106197142Y-119955723D01*
X106224870Y-119927807D01*
X106251071Y-119901109D01*
X106274792Y-119876578D01*
X106295081Y-119855162D01*
X106310985Y-119837810D01*
X106321554Y-119825471D01*
X106325834Y-119819094D01*
X106325880Y-119818792D01*
X106323089Y-119812917D01*
X106315148Y-119799690D01*
X106302705Y-119780102D01*
X106286406Y-119755147D01*
X106266900Y-119725814D01*
X106244834Y-119693098D01*
X106221740Y-119659274D01*
X106197807Y-119624192D01*
X106175813Y-119591493D01*
X106156405Y-119562179D01*
X106140232Y-119537247D01*
X106127942Y-119517696D01*
X106120183Y-119504527D01*
X106117600Y-119498812D01*
X106119920Y-119491386D01*
X106126305Y-119476894D01*
X106135890Y-119457157D01*
X106147810Y-119433991D01*
X106153481Y-119423350D01*
X106166747Y-119397800D01*
X106177375Y-119375514D01*
X106184622Y-119358172D01*
X106187744Y-119347456D01*
X106187771Y-119345823D01*
X106186377Y-119343235D01*
X106182452Y-119339874D01*
X106175381Y-119335467D01*
X106164547Y-119329738D01*
X106149334Y-119322414D01*
X106129125Y-119313220D01*
X106103305Y-119301884D01*
X106071257Y-119288129D01*
X106032365Y-119271684D01*
X105986012Y-119252272D01*
X105931582Y-119229620D01*
X105868459Y-119203454D01*
X105857359Y-119198860D01*
X105802528Y-119176257D01*
X105750342Y-119154911D01*
X105701575Y-119135128D01*
X105656998Y-119117213D01*
X105617386Y-119101473D01*
X105583510Y-119088212D01*
X105556143Y-119077736D01*
X105536060Y-119070352D01*
X105524031Y-119066364D01*
X105520809Y-119065760D01*
X105514897Y-119070949D01*
X105504827Y-119082723D01*
X105492102Y-119099234D01*
X105480629Y-119115173D01*
X105449570Y-119157327D01*
X105420231Y-119191753D01*
X105390682Y-119220203D01*
X105358997Y-119244432D01*
X105323247Y-119266194D01*
X105302918Y-119276863D01*
X105244488Y-119300756D01*
X105184158Y-119315076D01*
X105122953Y-119319979D01*
X105061898Y-119315623D01*
X105002019Y-119302163D01*
X104944342Y-119279756D01*
X104889891Y-119248559D01*
X104839692Y-119208727D01*
X104836411Y-119205664D01*
X104792833Y-119158017D01*
X104757422Y-119104808D01*
X104729755Y-119045354D01*
X104719807Y-119016660D01*
X104714974Y-118999933D01*
X104711632Y-118984165D01*
X104709519Y-118966854D01*
X104708373Y-118945497D01*
X104707935Y-118917593D01*
X104707900Y-118902540D01*
X104708110Y-118870915D01*
X104708916Y-118846936D01*
X104710578Y-118828093D01*
X104713357Y-118811877D01*
X104717516Y-118795778D01*
X104719802Y-118788240D01*
X104744205Y-118726246D01*
X104776690Y-118669961D01*
X104816763Y-118619969D01*
X104863933Y-118576854D01*
X104917707Y-118541201D01*
X104936500Y-118531329D01*
X104983357Y-118510756D01*
X105027726Y-118497234D01*
X105073443Y-118489860D01*
X105121920Y-118487727D01*
X105186989Y-118492586D01*
X105249065Y-118506992D01*
X105307510Y-118530688D01*
X105361687Y-118563416D01*
X105409975Y-118603955D01*
X105426971Y-118622140D01*
X105446791Y-118645762D01*
X105467052Y-118671748D01*
X105485368Y-118697023D01*
X105499354Y-118718514D01*
X105500883Y-118721139D01*
X105509785Y-118732832D01*
X105519264Y-118739872D01*
X105520648Y-118740325D01*
X105527322Y-118738872D01*
X105542833Y-118733641D01*
X105566671Y-118724832D01*
X105598326Y-118712647D01*
X105637287Y-118697287D01*
X105683043Y-118678953D01*
X105735085Y-118657846D01*
X105792901Y-118634166D01*
X105849679Y-118610728D01*
X105903781Y-118588300D01*
X105955286Y-118566914D01*
X106003399Y-118546903D01*
X106047325Y-118528599D01*
X106086268Y-118512334D01*
X106119433Y-118498442D01*
X106146026Y-118487253D01*
X106165249Y-118479102D01*
X106176309Y-118474319D01*
X106178609Y-118473253D01*
X106186716Y-118465020D01*
X106188720Y-118458211D01*
X106186394Y-118450498D01*
X106179995Y-118435745D01*
X106170387Y-118415790D01*
X106158437Y-118392470D01*
X106152672Y-118381642D01*
X106137192Y-118351834D01*
X106126189Y-118328316D01*
X106120007Y-118311875D01*
X106118837Y-118303822D01*
X106122269Y-118296680D01*
X106130700Y-118282538D01*
X106143286Y-118262709D01*
X106159184Y-118238506D01*
X106177551Y-118211241D01*
X106189461Y-118193880D01*
X106221822Y-118146962D01*
X106248815Y-118107682D01*
X106270892Y-118075352D01*
X106288506Y-118049281D01*
X106302109Y-118028781D01*
X106312155Y-118013163D01*
X106319097Y-118001739D01*
X106323388Y-117993819D01*
X106325480Y-117988714D01*
X106325880Y-117986387D01*
X106322399Y-117981121D01*
X106312478Y-117969535D01*
X106296897Y-117952460D01*
X106276437Y-117930721D01*
X106251880Y-117905148D01*
X106224006Y-117876568D01*
X106193597Y-117845809D01*
X106187541Y-117839731D01*
X106156470Y-117808736D01*
X106127382Y-117780010D01*
X106101112Y-117754357D01*
X106078494Y-117732577D01*
X106060363Y-117715473D01*
X106047552Y-117703847D01*
X106040896Y-117698501D01*
X106040413Y-117698266D01*
X106037436Y-117697367D01*
X106034393Y-117697052D01*
X106030460Y-117697835D01*
X106024812Y-117700226D01*
X106016624Y-117704737D01*
X106005072Y-117711879D01*
X105989330Y-117722165D01*
X105968575Y-117736105D01*
X105941980Y-117754212D01*
X105908721Y-117776996D01*
X105867973Y-117804969D01*
X105864266Y-117807515D01*
X105829625Y-117831161D01*
X105797438Y-117852865D01*
X105768706Y-117871973D01*
X105744428Y-117887831D01*
X105725605Y-117899785D01*
X105713237Y-117907181D01*
X105708469Y-117909400D01*
X105702070Y-117907571D01*
X105687455Y-117902390D01*
X105665826Y-117894314D01*
X105638385Y-117883802D01*
X105606333Y-117871312D01*
X105570874Y-117857300D01*
X105553307Y-117850294D01*
X105509314Y-117832557D01*
X105474051Y-117818005D01*
X105446727Y-117806276D01*
X105426551Y-117797006D01*
X105412734Y-117789833D01*
X105404485Y-117784394D01*
X105401059Y-117780444D01*
X105399121Y-117773085D01*
X105395609Y-117756936D01*
X105390762Y-117733202D01*
X105384819Y-117703091D01*
X105378018Y-117667809D01*
X105370597Y-117628562D01*
X105363414Y-117589921D01*
X105355616Y-117548281D01*
X105348154Y-117509669D01*
X105341273Y-117475261D01*
X105335217Y-117446230D01*
X105330232Y-117423751D01*
X105326560Y-117408998D01*
X105324531Y-117403231D01*
X105321360Y-117401433D01*
X105314541Y-117399961D01*
X105303211Y-117398785D01*
X105286509Y-117397877D01*
X105263571Y-117397207D01*
X105233536Y-117396746D01*
X105195541Y-117396465D01*
X105148724Y-117396336D01*
X105118875Y-117396320D01*
X104918954Y-117396320D01*
X104911902Y-117407750D01*
X104909400Y-117415237D01*
X104905372Y-117431536D01*
X104900066Y-117455455D01*
X104893732Y-117485802D01*
X104886617Y-117521384D01*
X104878971Y-117561009D01*
X104871042Y-117603486D01*
X104870838Y-117604600D01*
X104862950Y-117646876D01*
X104855374Y-117686108D01*
X104848352Y-117721145D01*
X104842126Y-117750836D01*
X104836937Y-117774030D01*
X104833026Y-117789576D01*
X104830637Y-117796323D01*
X104830566Y-117796405D01*
X104824301Y-117800090D01*
X104810106Y-117807022D01*
X104789428Y-117816577D01*
X104763713Y-117828134D01*
X104734406Y-117841070D01*
X104702954Y-117854763D01*
X104670802Y-117868591D01*
X104639397Y-117881931D01*
X104610185Y-117894161D01*
X104584611Y-117904659D01*
X104564123Y-117912803D01*
X104550165Y-117917969D01*
X104544394Y-117919560D01*
X104538575Y-117916767D01*
X104525372Y-117908811D01*
X104505749Y-117896319D01*
X104480667Y-117879924D01*
X104451089Y-117860254D01*
X104417976Y-117837939D01*
X104382293Y-117813611D01*
X104376655Y-117809742D01*
X104340538Y-117785048D01*
X104306750Y-117762155D01*
X104276274Y-117741713D01*
X104250088Y-117724371D01*
X104229175Y-117710778D01*
X104214516Y-117701583D01*
X104207090Y-117697434D01*
X104206684Y-117697293D01*
X104202579Y-117698054D01*
X104195668Y-117702214D01*
X104185355Y-117710317D01*
X104171048Y-117722905D01*
X104152154Y-117740521D01*
X104128078Y-117763708D01*
X104098226Y-117793008D01*
X104062005Y-117828964D01*
X104054749Y-117836199D01*
X104018889Y-117872218D01*
X103987378Y-117904356D01*
X103960731Y-117932068D01*
X103939461Y-117954806D01*
X103924081Y-117972023D01*
X103915105Y-117983174D01*
X103912880Y-117987325D01*
X103915672Y-117993560D01*
X103923627Y-118007156D01*
X103936110Y-118027133D01*
X103952487Y-118052508D01*
X103972122Y-118082300D01*
X103994382Y-118115526D01*
X104018631Y-118151205D01*
X104021289Y-118155086D01*
X104045928Y-118191100D01*
X104068914Y-118224822D01*
X104089573Y-118255253D01*
X104107230Y-118281395D01*
X104121211Y-118302248D01*
X104130841Y-118316815D01*
X104135446Y-118324096D01*
X104135587Y-118324352D01*
X104136941Y-118328805D01*
X104136744Y-118335339D01*
X104134631Y-118345059D01*
X104130234Y-118359068D01*
X104123187Y-118378471D01*
X104113124Y-118404373D01*
X104099677Y-118437877D01*
X104090068Y-118461512D01*
X104072981Y-118503366D01*
X104059243Y-118536788D01*
X104048382Y-118562760D01*
X104039926Y-118582264D01*
X104033403Y-118596281D01*
X104028340Y-118605795D01*
X104024266Y-118611786D01*
X104020708Y-118615236D01*
X104017193Y-118617128D01*
X104014840Y-118617945D01*
X104007736Y-118619560D01*
X103991805Y-118622793D01*
X103968215Y-118627420D01*
X103938129Y-118633216D01*
X103902714Y-118639958D01*
X103863135Y-118647420D01*
X103820558Y-118655378D01*
X103816168Y-118656195D01*
X103773481Y-118664252D01*
X103733799Y-118671968D01*
X103698266Y-118679104D01*
X103668028Y-118685420D01*
X103644228Y-118690676D01*
X103628012Y-118694633D01*
X103620524Y-118697050D01*
X103620283Y-118697212D01*
X103618437Y-118700242D01*
X103616928Y-118706563D01*
X103615727Y-118717063D01*
X103614801Y-118732633D01*
X103614121Y-118754159D01*
X103613657Y-118782532D01*
X103613376Y-118818639D01*
X103613250Y-118863370D01*
X103613237Y-118901892D01*
X103613358Y-118946025D01*
X103613358Y-118946025D01*
G37*
X103613358Y-118946025D02*
X103613668Y-118987086D01*
X103614144Y-119023939D01*
X103614763Y-119055448D01*
X103615502Y-119080478D01*
X103616337Y-119097893D01*
X103617244Y-119106557D01*
X103617471Y-119107210D01*
X103623471Y-119109787D01*
X103638787Y-119113922D01*
X103662721Y-119119466D01*
X103694573Y-119126268D01*
X103733644Y-119134179D01*
X103779237Y-119143047D01*
X103820850Y-119150901D01*
X103864601Y-119159151D01*
X103905265Y-119167001D01*
X103941748Y-119174225D01*
X103972957Y-119180599D01*
X103997798Y-119185898D01*
X104015177Y-119189897D01*
X104024000Y-119192372D01*
X104024834Y-119192802D01*
X104028371Y-119199048D01*
X104034916Y-119213151D01*
X104043889Y-119233676D01*
X104054710Y-119259190D01*
X104066800Y-119288258D01*
X104079578Y-119319446D01*
X104092466Y-119351320D01*
X104104882Y-119382447D01*
X104116248Y-119411392D01*
X104125983Y-119436721D01*
X104133508Y-119456999D01*
X104138242Y-119470794D01*
X104139607Y-119476671D01*
X104139605Y-119476678D01*
X104136333Y-119481988D01*
X104127928Y-119494724D01*
X104115025Y-119513948D01*
X104098257Y-119538724D01*
X104078260Y-119568114D01*
X104055669Y-119601180D01*
X104031119Y-119636986D01*
X104025162Y-119645656D01*
X104000277Y-119682085D01*
X103977306Y-119716148D01*
X103956874Y-119746886D01*
X103939606Y-119773339D01*
X103926126Y-119794549D01*
X103917059Y-119809556D01*
X103913028Y-119817401D01*
X103912879Y-119818086D01*
X103916391Y-119823807D01*
X103926292Y-119835602D01*
X103941632Y-119852520D01*
X103961458Y-119873609D01*
X103984820Y-119897919D01*
X104010767Y-119924500D01*
X104038347Y-119952400D01*
X104066609Y-119980669D01*
X104094603Y-120008355D01*
X104121376Y-120034508D01*
X104145978Y-120058178D01*
X104167458Y-120078412D01*
X104184864Y-120094261D01*
X104197246Y-120104774D01*
X104203651Y-120108999D01*
X104203938Y-120109040D01*
X104210058Y-120106243D01*
X104223530Y-120098279D01*
X104243372Y-120085789D01*
X104268598Y-120069410D01*
X104298226Y-120049783D01*
X104331269Y-120027547D01*
X104366745Y-120003341D01*
X104369005Y-120001788D01*
X104404726Y-119977294D01*
X104438139Y-119954499D01*
X104468244Y-119934080D01*
X104494038Y-119916708D01*
X104514521Y-119903060D01*
X104528692Y-119893807D01*
X104535550Y-119889626D01*
X104535670Y-119889568D01*
X104540391Y-119888784D01*
X104548231Y-119889912D01*
X104560143Y-119893299D01*
X104577084Y-119899292D01*
X104600007Y-119908241D01*
X104629867Y-119920491D01*
X104667619Y-119936390D01*
X104687252Y-119944749D01*
X104724852Y-119961018D01*
X104758510Y-119976011D01*
X104787168Y-119989231D01*
X104809772Y-120000175D01*
X104825265Y-120008346D01*
X104832592Y-120013243D01*
X104832948Y-120013710D01*
X104834928Y-120020560D01*
X104838502Y-120036248D01*
X104843434Y-120059616D01*
X104849491Y-120089508D01*
X104856439Y-120124767D01*
X104864044Y-120164236D01*
X104872071Y-120206757D01*
X104872940Y-120211409D01*
X104882180Y-120260146D01*
X104890621Y-120303053D01*
X104898102Y-120339390D01*
X104904463Y-120368418D01*
X104909544Y-120389397D01*
X104913184Y-120401585D01*
X104914714Y-120404451D01*
X104921096Y-120405372D01*
X104936503Y-120406225D01*
X104959798Y-120406989D01*
X104989847Y-120407638D01*
X105025514Y-120408151D01*
X105065663Y-120408503D01*
X105109159Y-120408671D01*
X105120027Y-120408682D01*
X105171548Y-120408649D01*
X105213801Y-120408486D01*
X105247680Y-120408162D01*
X105274077Y-120407647D01*
X105293884Y-120406908D01*
X105307996Y-120405916D01*
X105317303Y-120404639D01*
X105322699Y-120403046D01*
X105324741Y-120401595D01*
X105326999Y-120395095D01*
X105330799Y-120379763D01*
X105335898Y-120356765D01*
X105342050Y-120327271D01*
X105349013Y-120292450D01*
X105356543Y-120253470D01*
X105364236Y-120212365D01*
X105372897Y-120166210D01*
X105380981Y-120124798D01*
X105388286Y-120089062D01*
X105394611Y-120059937D01*
X105399758Y-120038354D01*
X105403525Y-120025249D01*
X105405133Y-120021726D01*
X105411585Y-120017704D01*
X105425987Y-120010714D01*
X105446948Y-120001314D01*
X105473082Y-119990063D01*
X105503000Y-119977519D01*
X105535313Y-119964240D01*
X105568634Y-119950785D01*
X105601575Y-119937712D01*
X105632747Y-119925580D01*
X105660763Y-119914946D01*
X105684233Y-119906369D01*
X105701771Y-119900408D01*
X105711987Y-119897620D01*
X105713842Y-119897556D01*
X105719358Y-119900901D01*
X105732262Y-119909348D01*
X105751573Y-119922236D01*
X105776312Y-119938906D01*
X105805498Y-119958697D01*
X105838151Y-119980948D01*
X105872582Y-120004512D01*
X105907797Y-120028487D01*
X105940662Y-120050526D01*
X105970174Y-120069982D01*
X105995331Y-120086209D01*
X106015130Y-120098558D01*
X106028568Y-120106383D01*
X106034588Y-120109040D01*
X106040258Y-120105537D01*
X106052017Y-120095662D01*
X106068914Y-120080363D01*
X106089997Y-120060590D01*
X106114314Y-120037290D01*
X106140912Y-120011414D01*
X106168838Y-119983908D01*
X106197142Y-119955723D01*
X106224870Y-119927807D01*
X106251071Y-119901109D01*
X106274792Y-119876578D01*
X106295081Y-119855162D01*
X106310985Y-119837810D01*
X106321554Y-119825471D01*
X106325834Y-119819094D01*
X106325880Y-119818792D01*
X106323089Y-119812917D01*
X106315148Y-119799690D01*
X106302705Y-119780102D01*
X106286406Y-119755147D01*
X106266900Y-119725814D01*
X106244834Y-119693098D01*
X106221740Y-119659274D01*
X106197807Y-119624192D01*
X106175813Y-119591493D01*
X106156405Y-119562179D01*
X106140232Y-119537247D01*
X106127942Y-119517696D01*
X106120183Y-119504527D01*
X106117600Y-119498812D01*
X106119920Y-119491386D01*
X106126305Y-119476894D01*
X106135890Y-119457157D01*
X106147810Y-119433991D01*
X106153481Y-119423350D01*
X106166747Y-119397800D01*
X106177375Y-119375514D01*
X106184622Y-119358172D01*
X106187744Y-119347456D01*
X106187771Y-119345823D01*
X106186377Y-119343235D01*
X106182452Y-119339874D01*
X106175381Y-119335467D01*
X106164547Y-119329738D01*
X106149334Y-119322414D01*
X106129125Y-119313220D01*
X106103305Y-119301884D01*
X106071257Y-119288129D01*
X106032365Y-119271684D01*
X105986012Y-119252272D01*
X105931582Y-119229620D01*
X105868459Y-119203454D01*
X105857359Y-119198860D01*
X105802528Y-119176257D01*
X105750342Y-119154911D01*
X105701575Y-119135128D01*
X105656998Y-119117213D01*
X105617386Y-119101473D01*
X105583510Y-119088212D01*
X105556143Y-119077736D01*
X105536060Y-119070352D01*
X105524031Y-119066364D01*
X105520809Y-119065760D01*
X105514897Y-119070949D01*
X105504827Y-119082723D01*
X105492102Y-119099234D01*
X105480629Y-119115173D01*
X105449570Y-119157327D01*
X105420231Y-119191753D01*
X105390682Y-119220203D01*
X105358997Y-119244432D01*
X105323247Y-119266194D01*
X105302918Y-119276863D01*
X105244488Y-119300756D01*
X105184158Y-119315076D01*
X105122953Y-119319979D01*
X105061898Y-119315623D01*
X105002019Y-119302163D01*
X104944342Y-119279756D01*
X104889891Y-119248559D01*
X104839692Y-119208727D01*
X104836411Y-119205664D01*
X104792833Y-119158017D01*
X104757422Y-119104808D01*
X104729755Y-119045354D01*
X104719807Y-119016660D01*
X104714974Y-118999933D01*
X104711632Y-118984165D01*
X104709519Y-118966854D01*
X104708373Y-118945497D01*
X104707935Y-118917593D01*
X104707900Y-118902540D01*
X104708110Y-118870915D01*
X104708916Y-118846936D01*
X104710578Y-118828093D01*
X104713357Y-118811877D01*
X104717516Y-118795778D01*
X104719802Y-118788240D01*
X104744205Y-118726246D01*
X104776690Y-118669961D01*
X104816763Y-118619969D01*
X104863933Y-118576854D01*
X104917707Y-118541201D01*
X104936500Y-118531329D01*
X104983357Y-118510756D01*
X105027726Y-118497234D01*
X105073443Y-118489860D01*
X105121920Y-118487727D01*
X105186989Y-118492586D01*
X105249065Y-118506992D01*
X105307510Y-118530688D01*
X105361687Y-118563416D01*
X105409975Y-118603955D01*
X105426971Y-118622140D01*
X105446791Y-118645762D01*
X105467052Y-118671748D01*
X105485368Y-118697023D01*
X105499354Y-118718514D01*
X105500883Y-118721139D01*
X105509785Y-118732832D01*
X105519264Y-118739872D01*
X105520648Y-118740325D01*
X105527322Y-118738872D01*
X105542833Y-118733641D01*
X105566671Y-118724832D01*
X105598326Y-118712647D01*
X105637287Y-118697287D01*
X105683043Y-118678953D01*
X105735085Y-118657846D01*
X105792901Y-118634166D01*
X105849679Y-118610728D01*
X105903781Y-118588300D01*
X105955286Y-118566914D01*
X106003399Y-118546903D01*
X106047325Y-118528599D01*
X106086268Y-118512334D01*
X106119433Y-118498442D01*
X106146026Y-118487253D01*
X106165249Y-118479102D01*
X106176309Y-118474319D01*
X106178609Y-118473253D01*
X106186716Y-118465020D01*
X106188720Y-118458211D01*
X106186394Y-118450498D01*
X106179995Y-118435745D01*
X106170387Y-118415790D01*
X106158437Y-118392470D01*
X106152672Y-118381642D01*
X106137192Y-118351834D01*
X106126189Y-118328316D01*
X106120007Y-118311875D01*
X106118837Y-118303822D01*
X106122269Y-118296680D01*
X106130700Y-118282538D01*
X106143286Y-118262709D01*
X106159184Y-118238506D01*
X106177551Y-118211241D01*
X106189461Y-118193880D01*
X106221822Y-118146962D01*
X106248815Y-118107682D01*
X106270892Y-118075352D01*
X106288506Y-118049281D01*
X106302109Y-118028781D01*
X106312155Y-118013163D01*
X106319097Y-118001739D01*
X106323388Y-117993819D01*
X106325480Y-117988714D01*
X106325880Y-117986387D01*
X106322399Y-117981121D01*
X106312478Y-117969535D01*
X106296897Y-117952460D01*
X106276437Y-117930721D01*
X106251880Y-117905148D01*
X106224006Y-117876568D01*
X106193597Y-117845809D01*
X106187541Y-117839731D01*
X106156470Y-117808736D01*
X106127382Y-117780010D01*
X106101112Y-117754357D01*
X106078494Y-117732577D01*
X106060363Y-117715473D01*
X106047552Y-117703847D01*
X106040896Y-117698501D01*
X106040413Y-117698266D01*
X106037436Y-117697367D01*
X106034393Y-117697052D01*
X106030460Y-117697835D01*
X106024812Y-117700226D01*
X106016624Y-117704737D01*
X106005072Y-117711879D01*
X105989330Y-117722165D01*
X105968575Y-117736105D01*
X105941980Y-117754212D01*
X105908721Y-117776996D01*
X105867973Y-117804969D01*
X105864266Y-117807515D01*
X105829625Y-117831161D01*
X105797438Y-117852865D01*
X105768706Y-117871973D01*
X105744428Y-117887831D01*
X105725605Y-117899785D01*
X105713237Y-117907181D01*
X105708469Y-117909400D01*
X105702070Y-117907571D01*
X105687455Y-117902390D01*
X105665826Y-117894314D01*
X105638385Y-117883802D01*
X105606333Y-117871312D01*
X105570874Y-117857300D01*
X105553307Y-117850294D01*
X105509314Y-117832557D01*
X105474051Y-117818005D01*
X105446727Y-117806276D01*
X105426551Y-117797006D01*
X105412734Y-117789833D01*
X105404485Y-117784394D01*
X105401059Y-117780444D01*
X105399121Y-117773085D01*
X105395609Y-117756936D01*
X105390762Y-117733202D01*
X105384819Y-117703091D01*
X105378018Y-117667809D01*
X105370597Y-117628562D01*
X105363414Y-117589921D01*
X105355616Y-117548281D01*
X105348154Y-117509669D01*
X105341273Y-117475261D01*
X105335217Y-117446230D01*
X105330232Y-117423751D01*
X105326560Y-117408998D01*
X105324531Y-117403231D01*
X105321360Y-117401433D01*
X105314541Y-117399961D01*
X105303211Y-117398785D01*
X105286509Y-117397877D01*
X105263571Y-117397207D01*
X105233536Y-117396746D01*
X105195541Y-117396465D01*
X105148724Y-117396336D01*
X105118875Y-117396320D01*
X104918954Y-117396320D01*
X104911902Y-117407750D01*
X104909400Y-117415237D01*
X104905372Y-117431536D01*
X104900066Y-117455455D01*
X104893732Y-117485802D01*
X104886617Y-117521384D01*
X104878971Y-117561009D01*
X104871042Y-117603486D01*
X104870838Y-117604600D01*
X104862950Y-117646876D01*
X104855374Y-117686108D01*
X104848352Y-117721145D01*
X104842126Y-117750836D01*
X104836937Y-117774030D01*
X104833026Y-117789576D01*
X104830637Y-117796323D01*
X104830566Y-117796405D01*
X104824301Y-117800090D01*
X104810106Y-117807022D01*
X104789428Y-117816577D01*
X104763713Y-117828134D01*
X104734406Y-117841070D01*
X104702954Y-117854763D01*
X104670802Y-117868591D01*
X104639397Y-117881931D01*
X104610185Y-117894161D01*
X104584611Y-117904659D01*
X104564123Y-117912803D01*
X104550165Y-117917969D01*
X104544394Y-117919560D01*
X104538575Y-117916767D01*
X104525372Y-117908811D01*
X104505749Y-117896319D01*
X104480667Y-117879924D01*
X104451089Y-117860254D01*
X104417976Y-117837939D01*
X104382293Y-117813611D01*
X104376655Y-117809742D01*
X104340538Y-117785048D01*
X104306750Y-117762155D01*
X104276274Y-117741713D01*
X104250088Y-117724371D01*
X104229175Y-117710778D01*
X104214516Y-117701583D01*
X104207090Y-117697434D01*
X104206684Y-117697293D01*
X104202579Y-117698054D01*
X104195668Y-117702214D01*
X104185355Y-117710317D01*
X104171048Y-117722905D01*
X104152154Y-117740521D01*
X104128078Y-117763708D01*
X104098226Y-117793008D01*
X104062005Y-117828964D01*
X104054749Y-117836199D01*
X104018889Y-117872218D01*
X103987378Y-117904356D01*
X103960731Y-117932068D01*
X103939461Y-117954806D01*
X103924081Y-117972023D01*
X103915105Y-117983174D01*
X103912880Y-117987325D01*
X103915672Y-117993560D01*
X103923627Y-118007156D01*
X103936110Y-118027133D01*
X103952487Y-118052508D01*
X103972122Y-118082300D01*
X103994382Y-118115526D01*
X104018631Y-118151205D01*
X104021289Y-118155086D01*
X104045928Y-118191100D01*
X104068914Y-118224822D01*
X104089573Y-118255253D01*
X104107230Y-118281395D01*
X104121211Y-118302248D01*
X104130841Y-118316815D01*
X104135446Y-118324096D01*
X104135587Y-118324352D01*
X104136941Y-118328805D01*
X104136744Y-118335339D01*
X104134631Y-118345059D01*
X104130234Y-118359068D01*
X104123187Y-118378471D01*
X104113124Y-118404373D01*
X104099677Y-118437877D01*
X104090068Y-118461512D01*
X104072981Y-118503366D01*
X104059243Y-118536788D01*
X104048382Y-118562760D01*
X104039926Y-118582264D01*
X104033403Y-118596281D01*
X104028340Y-118605795D01*
X104024266Y-118611786D01*
X104020708Y-118615236D01*
X104017193Y-118617128D01*
X104014840Y-118617945D01*
X104007736Y-118619560D01*
X103991805Y-118622793D01*
X103968215Y-118627420D01*
X103938129Y-118633216D01*
X103902714Y-118639958D01*
X103863135Y-118647420D01*
X103820558Y-118655378D01*
X103816168Y-118656195D01*
X103773481Y-118664252D01*
X103733799Y-118671968D01*
X103698266Y-118679104D01*
X103668028Y-118685420D01*
X103644228Y-118690676D01*
X103628012Y-118694633D01*
X103620524Y-118697050D01*
X103620283Y-118697212D01*
X103618437Y-118700242D01*
X103616928Y-118706563D01*
X103615727Y-118717063D01*
X103614801Y-118732633D01*
X103614121Y-118754159D01*
X103613657Y-118782532D01*
X103613376Y-118818639D01*
X103613250Y-118863370D01*
X103613237Y-118901892D01*
X103613358Y-118946025D01*
G36*
X102325960Y-107755941D02*
G01*
X102392395Y-107873545D01*
X102495045Y-107967023D01*
X102581124Y-108010812D01*
X102719614Y-108041422D01*
X102857591Y-108032321D01*
X102979084Y-107984973D01*
X102997850Y-107972588D01*
X103085408Y-107882149D01*
X103145553Y-107763271D01*
X103175418Y-107630333D01*
X103172134Y-107497713D01*
X103132832Y-107379790D01*
X103120244Y-107359006D01*
X103041394Y-107276737D01*
X102932770Y-107208914D01*
X102815295Y-107166747D01*
X102745799Y-107158400D01*
X102636575Y-107177674D01*
X102522110Y-107228190D01*
X102423158Y-107298982D01*
X102374295Y-107354642D01*
X102313876Y-107486861D01*
X102298776Y-107623837D01*
X102325960Y-107755941D01*
X102325960Y-107755941D01*
G37*
X102325960Y-107755941D02*
X102392395Y-107873545D01*
X102495045Y-107967023D01*
X102581124Y-108010812D01*
X102719614Y-108041422D01*
X102857591Y-108032321D01*
X102979084Y-107984973D01*
X102997850Y-107972588D01*
X103085408Y-107882149D01*
X103145553Y-107763271D01*
X103175418Y-107630333D01*
X103172134Y-107497713D01*
X103132832Y-107379790D01*
X103120244Y-107359006D01*
X103041394Y-107276737D01*
X102932770Y-107208914D01*
X102815295Y-107166747D01*
X102745799Y-107158400D01*
X102636575Y-107177674D01*
X102522110Y-107228190D01*
X102423158Y-107298982D01*
X102374295Y-107354642D01*
X102313876Y-107486861D01*
X102298776Y-107623837D01*
X102325960Y-107755941D01*
G36*
X105192045Y-107996600D02*
G01*
X105463528Y-107996821D01*
X105688618Y-107997583D01*
X105871721Y-107999026D01*
X106017240Y-108001294D01*
X106129583Y-108004531D01*
X106213155Y-108008878D01*
X106272359Y-108014480D01*
X106311603Y-108021478D01*
X106335292Y-108030016D01*
X106341395Y-108033892D01*
X106378943Y-108060178D01*
X106407085Y-108070891D01*
X106427174Y-108060710D01*
X106440563Y-108024312D01*
X106448605Y-107956376D01*
X106452653Y-107851578D01*
X106454060Y-107704598D01*
X106454200Y-107590200D01*
X106453515Y-107439918D01*
X106451608Y-107308727D01*
X106448702Y-107204427D01*
X106445017Y-107134819D01*
X106440776Y-107107705D01*
X106440488Y-107107600D01*
X106411454Y-107118155D01*
X106354509Y-107144726D01*
X106327200Y-107158400D01*
X106299760Y-107171266D01*
X106269394Y-107181759D01*
X106230920Y-107190120D01*
X106179155Y-107196591D01*
X106108918Y-107201411D01*
X106015027Y-107204822D01*
X105892301Y-107207065D01*
X105735559Y-107208381D01*
X105539617Y-107209010D01*
X105299296Y-107209195D01*
X105234750Y-107209200D01*
X104977269Y-107208947D01*
X104765749Y-107208071D01*
X104595351Y-107206396D01*
X104461238Y-107203748D01*
X104358571Y-107199950D01*
X104282513Y-107194827D01*
X104228226Y-107188203D01*
X104190872Y-107179903D01*
X104166938Y-107170447D01*
X104092000Y-107131695D01*
X104092000Y-107996600D01*
X105192045Y-107996600D01*
X105192045Y-107996600D01*
G37*
X105192045Y-107996600D02*
X105463528Y-107996821D01*
X105688618Y-107997583D01*
X105871721Y-107999026D01*
X106017240Y-108001294D01*
X106129583Y-108004531D01*
X106213155Y-108008878D01*
X106272359Y-108014480D01*
X106311603Y-108021478D01*
X106335292Y-108030016D01*
X106341395Y-108033892D01*
X106378943Y-108060178D01*
X106407085Y-108070891D01*
X106427174Y-108060710D01*
X106440563Y-108024312D01*
X106448605Y-107956376D01*
X106452653Y-107851578D01*
X106454060Y-107704598D01*
X106454200Y-107590200D01*
X106453515Y-107439918D01*
X106451608Y-107308727D01*
X106448702Y-107204427D01*
X106445017Y-107134819D01*
X106440776Y-107107705D01*
X106440488Y-107107600D01*
X106411454Y-107118155D01*
X106354509Y-107144726D01*
X106327200Y-107158400D01*
X106299760Y-107171266D01*
X106269394Y-107181759D01*
X106230920Y-107190120D01*
X106179155Y-107196591D01*
X106108918Y-107201411D01*
X106015027Y-107204822D01*
X105892301Y-107207065D01*
X105735559Y-107208381D01*
X105539617Y-107209010D01*
X105299296Y-107209195D01*
X105234750Y-107209200D01*
X104977269Y-107208947D01*
X104765749Y-107208071D01*
X104595351Y-107206396D01*
X104461238Y-107203748D01*
X104358571Y-107199950D01*
X104282513Y-107194827D01*
X104228226Y-107188203D01*
X104190872Y-107179903D01*
X104166938Y-107170447D01*
X104092000Y-107131695D01*
X104092000Y-107996600D01*
X105192045Y-107996600D01*
G36*
X103228400Y-106413747D02*
G01*
X103228400Y-106959059D01*
X103429787Y-106760279D01*
X103792691Y-106430571D01*
X104066815Y-106216151D01*
X104170400Y-106137703D01*
X104290529Y-106043144D01*
X104414202Y-105943050D01*
X104528419Y-105847998D01*
X104620181Y-105768566D01*
X104647760Y-105743468D01*
X104735212Y-105662036D01*
X104826356Y-105731994D01*
X105015604Y-105867436D01*
X105155050Y-105954978D01*
X105237286Y-106009848D01*
X105316612Y-106071124D01*
X105322607Y-106076273D01*
X105405581Y-106145222D01*
X105508137Y-106225747D01*
X105618288Y-106308942D01*
X105724047Y-106385902D01*
X105813425Y-106447719D01*
X105870547Y-106483376D01*
X105923596Y-106518457D01*
X106002062Y-106576986D01*
X106093252Y-106648820D01*
X106184472Y-106723815D01*
X106263032Y-106791828D01*
X106302020Y-106828200D01*
X106328081Y-106852089D01*
X106375406Y-106894363D01*
X106384570Y-106902477D01*
X106454200Y-106964055D01*
X106454200Y-105837600D01*
X106375923Y-105837600D01*
X106299395Y-105820837D01*
X106194149Y-105773607D01*
X106068239Y-105700493D01*
X105929716Y-105606081D01*
X105815533Y-105518542D01*
X105723313Y-105447268D01*
X105632269Y-105381947D01*
X105559535Y-105334777D01*
X105548833Y-105328671D01*
X105482434Y-105288629D01*
X105434284Y-105253342D01*
X105425500Y-105244699D01*
X105386816Y-105210138D01*
X105330250Y-105169915D01*
X105282093Y-105132226D01*
X105260487Y-105101715D01*
X105260400Y-105100414D01*
X105285091Y-105091538D01*
X105356381Y-105084418D01*
X105470092Y-105079264D01*
X105622044Y-105076283D01*
X105756961Y-105075600D01*
X105936263Y-105076284D01*
X106072270Y-105078695D01*
X106172475Y-105083375D01*
X106244369Y-105090863D01*
X106295443Y-105101698D01*
X106333188Y-105116421D01*
X106334811Y-105117244D01*
X106394491Y-105152717D01*
X106432618Y-105184223D01*
X106434761Y-105187094D01*
X106440323Y-105171597D01*
X106445262Y-105112247D01*
X106449312Y-105015986D01*
X106452207Y-104889759D01*
X106453682Y-104740511D01*
X106453811Y-104688794D01*
X106454200Y-104162289D01*
X106384350Y-104191968D01*
X106325758Y-104220141D01*
X106290370Y-104242224D01*
X106261142Y-104246057D01*
X106185781Y-104249657D01*
X106068951Y-104252959D01*
X105915317Y-104255896D01*
X105729546Y-104258399D01*
X105516302Y-104260404D01*
X105280251Y-104261842D01*
X105026059Y-104262647D01*
X104854290Y-104262799D01*
X104550311Y-104262741D01*
X104292912Y-104262470D01*
X104077874Y-104261846D01*
X103900978Y-104260726D01*
X103758004Y-104258969D01*
X103644733Y-104256433D01*
X103556945Y-104252976D01*
X103490421Y-104248457D01*
X103440941Y-104242733D01*
X103404286Y-104235662D01*
X103376237Y-104227104D01*
X103352574Y-104216916D01*
X103342699Y-104211999D01*
X103280869Y-104181244D01*
X103241660Y-104163190D01*
X103235729Y-104161199D01*
X103233507Y-104185335D01*
X103231556Y-104252688D01*
X103229984Y-104355672D01*
X103228901Y-104486706D01*
X103228415Y-104638205D01*
X103228400Y-104671917D01*
X103228664Y-104845060D01*
X103229831Y-104973629D01*
X103232464Y-105063846D01*
X103237123Y-105121937D01*
X103244372Y-105154124D01*
X103254772Y-105166632D01*
X103268885Y-105165686D01*
X103272850Y-105164164D01*
X103361673Y-105130805D01*
X103450181Y-105106739D01*
X103549141Y-105090580D01*
X103669321Y-105080942D01*
X103821488Y-105076440D01*
X103961088Y-105075600D01*
X104380904Y-105075599D01*
X104307900Y-105151799D01*
X104257557Y-105199413D01*
X104220278Y-105225994D01*
X104213483Y-105228000D01*
X104187550Y-105243137D01*
X104134128Y-105282628D01*
X104064145Y-105337588D01*
X103988529Y-105399132D01*
X103918209Y-105458377D01*
X103864114Y-105506439D01*
X103838000Y-105533239D01*
X103810734Y-105555561D01*
X103754630Y-105593936D01*
X103711000Y-105621802D01*
X103623298Y-105680005D01*
X103536698Y-105742951D01*
X103508362Y-105765299D01*
X103441736Y-105810013D01*
X103380643Y-105835408D01*
X103364390Y-105837600D01*
X103320677Y-105838122D01*
X103287502Y-105843791D01*
X103263412Y-105860762D01*
X103246955Y-105895189D01*
X103236677Y-105953226D01*
X103231127Y-106041028D01*
X103228851Y-106164750D01*
X103228396Y-106330545D01*
X103228400Y-106413747D01*
X103228400Y-106413747D01*
G37*
X103228400Y-106413747D02*
X103228400Y-106959059D01*
X103429787Y-106760279D01*
X103792691Y-106430571D01*
X104066815Y-106216151D01*
X104170400Y-106137703D01*
X104290529Y-106043144D01*
X104414202Y-105943050D01*
X104528419Y-105847998D01*
X104620181Y-105768566D01*
X104647760Y-105743468D01*
X104735212Y-105662036D01*
X104826356Y-105731994D01*
X105015604Y-105867436D01*
X105155050Y-105954978D01*
X105237286Y-106009848D01*
X105316612Y-106071124D01*
X105322607Y-106076273D01*
X105405581Y-106145222D01*
X105508137Y-106225747D01*
X105618288Y-106308942D01*
X105724047Y-106385902D01*
X105813425Y-106447719D01*
X105870547Y-106483376D01*
X105923596Y-106518457D01*
X106002062Y-106576986D01*
X106093252Y-106648820D01*
X106184472Y-106723815D01*
X106263032Y-106791828D01*
X106302020Y-106828200D01*
X106328081Y-106852089D01*
X106375406Y-106894363D01*
X106384570Y-106902477D01*
X106454200Y-106964055D01*
X106454200Y-105837600D01*
X106375923Y-105837600D01*
X106299395Y-105820837D01*
X106194149Y-105773607D01*
X106068239Y-105700493D01*
X105929716Y-105606081D01*
X105815533Y-105518542D01*
X105723313Y-105447268D01*
X105632269Y-105381947D01*
X105559535Y-105334777D01*
X105548833Y-105328671D01*
X105482434Y-105288629D01*
X105434284Y-105253342D01*
X105425500Y-105244699D01*
X105386816Y-105210138D01*
X105330250Y-105169915D01*
X105282093Y-105132226D01*
X105260487Y-105101715D01*
X105260400Y-105100414D01*
X105285091Y-105091538D01*
X105356381Y-105084418D01*
X105470092Y-105079264D01*
X105622044Y-105076283D01*
X105756961Y-105075600D01*
X105936263Y-105076284D01*
X106072270Y-105078695D01*
X106172475Y-105083375D01*
X106244369Y-105090863D01*
X106295443Y-105101698D01*
X106333188Y-105116421D01*
X106334811Y-105117244D01*
X106394491Y-105152717D01*
X106432618Y-105184223D01*
X106434761Y-105187094D01*
X106440323Y-105171597D01*
X106445262Y-105112247D01*
X106449312Y-105015986D01*
X106452207Y-104889759D01*
X106453682Y-104740511D01*
X106453811Y-104688794D01*
X106454200Y-104162289D01*
X106384350Y-104191968D01*
X106325758Y-104220141D01*
X106290370Y-104242224D01*
X106261142Y-104246057D01*
X106185781Y-104249657D01*
X106068951Y-104252959D01*
X105915317Y-104255896D01*
X105729546Y-104258399D01*
X105516302Y-104260404D01*
X105280251Y-104261842D01*
X105026059Y-104262647D01*
X104854290Y-104262799D01*
X104550311Y-104262741D01*
X104292912Y-104262470D01*
X104077874Y-104261846D01*
X103900978Y-104260726D01*
X103758004Y-104258969D01*
X103644733Y-104256433D01*
X103556945Y-104252976D01*
X103490421Y-104248457D01*
X103440941Y-104242733D01*
X103404286Y-104235662D01*
X103376237Y-104227104D01*
X103352574Y-104216916D01*
X103342699Y-104211999D01*
X103280869Y-104181244D01*
X103241660Y-104163190D01*
X103235729Y-104161199D01*
X103233507Y-104185335D01*
X103231556Y-104252688D01*
X103229984Y-104355672D01*
X103228901Y-104486706D01*
X103228415Y-104638205D01*
X103228400Y-104671917D01*
X103228664Y-104845060D01*
X103229831Y-104973629D01*
X103232464Y-105063846D01*
X103237123Y-105121937D01*
X103244372Y-105154124D01*
X103254772Y-105166632D01*
X103268885Y-105165686D01*
X103272850Y-105164164D01*
X103361673Y-105130805D01*
X103450181Y-105106739D01*
X103549141Y-105090580D01*
X103669321Y-105080942D01*
X103821488Y-105076440D01*
X103961088Y-105075600D01*
X104380904Y-105075599D01*
X104307900Y-105151799D01*
X104257557Y-105199413D01*
X104220278Y-105225994D01*
X104213483Y-105228000D01*
X104187550Y-105243137D01*
X104134128Y-105282628D01*
X104064145Y-105337588D01*
X103988529Y-105399132D01*
X103918209Y-105458377D01*
X103864114Y-105506439D01*
X103838000Y-105533239D01*
X103810734Y-105555561D01*
X103754630Y-105593936D01*
X103711000Y-105621802D01*
X103623298Y-105680005D01*
X103536698Y-105742951D01*
X103508362Y-105765299D01*
X103441736Y-105810013D01*
X103380643Y-105835408D01*
X103364390Y-105837600D01*
X103320677Y-105838122D01*
X103287502Y-105843791D01*
X103263412Y-105860762D01*
X103246955Y-105895189D01*
X103236677Y-105953226D01*
X103231127Y-106041028D01*
X103228851Y-106164750D01*
X103228396Y-106330545D01*
X103228400Y-106413747D01*
D11*
X178235000Y-121718600D03*
X178235000Y-75998600D03*
X196015000Y-121718600D03*
X196015000Y-75998600D03*
D12*
X197285000Y-117908600D03*
X197285000Y-115368600D03*
X197285000Y-112828600D03*
X197285000Y-110288600D03*
X197285000Y-107748600D03*
X197285000Y-105208600D03*
X197285000Y-102668600D03*
X197285000Y-100128600D03*
X197285000Y-97588600D03*
X197285000Y-95048600D03*
X197285000Y-92508600D03*
X197285000Y-89968600D03*
X176965000Y-117908600D03*
X176965000Y-79808600D03*
X176965000Y-115368600D03*
X176965000Y-112828600D03*
X176965000Y-110288600D03*
X176965000Y-107748600D03*
X176965000Y-105208600D03*
X176965000Y-102668600D03*
X176965000Y-100128600D03*
X176965000Y-97588600D03*
X176965000Y-95048600D03*
X176965000Y-92508600D03*
X176965000Y-89968600D03*
X176965000Y-87428600D03*
X176965000Y-84888600D03*
X176965000Y-82348600D03*
D11*
X152835000Y-121718600D03*
X152835000Y-75998600D03*
X170615000Y-121718600D03*
X170615000Y-75998600D03*
D12*
X171885000Y-117908600D03*
X171885000Y-115368600D03*
X171885000Y-112828600D03*
X171885000Y-110288600D03*
X171885000Y-107748600D03*
X171885000Y-105208600D03*
X171885000Y-102668600D03*
X171885000Y-100128600D03*
X171885000Y-97588600D03*
X171885000Y-95048600D03*
X171885000Y-92508600D03*
X171885000Y-89968600D03*
X151565000Y-117908600D03*
X151565000Y-79808600D03*
X151565000Y-115368600D03*
X151565000Y-112828600D03*
X151565000Y-110288600D03*
X151565000Y-107748600D03*
X151565000Y-105208600D03*
X151565000Y-102668600D03*
X151565000Y-100128600D03*
X151565000Y-97588600D03*
X151565000Y-95048600D03*
X151565000Y-92508600D03*
X151565000Y-89968600D03*
X151565000Y-87428600D03*
X151565000Y-84888600D03*
X151565000Y-82348600D03*
D11*
X127435000Y-121718600D03*
X127435000Y-75998600D03*
X145215000Y-121718600D03*
X145215000Y-75998600D03*
D12*
X146485000Y-117908600D03*
X146485000Y-115368600D03*
X146485000Y-112828600D03*
X146485000Y-110288600D03*
X146485000Y-107748600D03*
X146485000Y-105208600D03*
X146485000Y-102668600D03*
X146485000Y-100128600D03*
X146485000Y-97588600D03*
X146485000Y-95048600D03*
X146485000Y-92508600D03*
X146485000Y-89968600D03*
X126165000Y-117908600D03*
X126165000Y-79808600D03*
X126165000Y-115368600D03*
X126165000Y-112828600D03*
X126165000Y-110288600D03*
X126165000Y-107748600D03*
X126165000Y-105208600D03*
X126165000Y-102668600D03*
X126165000Y-100128600D03*
X126165000Y-97588600D03*
X126165000Y-95048600D03*
X126165000Y-92508600D03*
X126165000Y-89968600D03*
X126165000Y-87428600D03*
X126165000Y-84888600D03*
X126165000Y-82348600D03*
X100765000Y-82348600D03*
X100765000Y-84888600D03*
X100765000Y-87428600D03*
X100765000Y-89968600D03*
X100765000Y-92508600D03*
X100765000Y-95048600D03*
X100765000Y-97588600D03*
X100765000Y-100128600D03*
X100765000Y-102668600D03*
X100765000Y-105208600D03*
X100765000Y-107748600D03*
X100765000Y-110288600D03*
X100765000Y-112828600D03*
X100765000Y-115368600D03*
X100765000Y-79808600D03*
X100765000Y-117908600D03*
X121085000Y-89968600D03*
X121085000Y-92508600D03*
X121085000Y-95048600D03*
X121085000Y-97588600D03*
X121085000Y-100128600D03*
X121085000Y-102668600D03*
X121085000Y-105208600D03*
X121085000Y-107748600D03*
X121085000Y-110288600D03*
X121085000Y-112828600D03*
X121085000Y-115368600D03*
X121085000Y-117908600D03*
D11*
X119815000Y-75998600D03*
X119815000Y-121718600D03*
X102035000Y-75998600D03*
X102035000Y-121718600D03*
D13*
X173305000Y-83499960D03*
X173305000Y-82499969D03*
X173305000Y-81499978D03*
X173305000Y-80499987D03*
X173305000Y-79499996D03*
X173305000Y-78500005D03*
X175545000Y-78499997D03*
X175545000Y-79499988D03*
X175545000Y-80499979D03*
X175545000Y-81499970D03*
X175545000Y-82499961D03*
X175545000Y-83499952D03*
X147905000Y-83499960D03*
X147905000Y-82499969D03*
X147905000Y-81499978D03*
X147905000Y-80499987D03*
X147905000Y-79499996D03*
X147905000Y-78500005D03*
X150145000Y-78499997D03*
X150145000Y-79499988D03*
X150145000Y-80499979D03*
X150145000Y-81499970D03*
X150145000Y-82499961D03*
X150145000Y-83499952D03*
X173305000Y-118999998D03*
X173305000Y-117999998D03*
X173305000Y-116999998D03*
X173305000Y-115999998D03*
X173305000Y-114999998D03*
X173305000Y-113999998D03*
X175545000Y-114000000D03*
X175545000Y-115000000D03*
X175545000Y-116000000D03*
X175545000Y-117000000D03*
X175545000Y-118000000D03*
X175545000Y-119000000D03*
X147905000Y-118999998D03*
X147905000Y-117999998D03*
X147905000Y-116999998D03*
X147905000Y-115999998D03*
X147905000Y-114999998D03*
X147905000Y-113999998D03*
X150145000Y-114000000D03*
X150145000Y-115000000D03*
X150145000Y-116000000D03*
X150145000Y-117000000D03*
X150145000Y-118000000D03*
X150145000Y-119000000D03*
X122505000Y-118999998D03*
X122505000Y-117999995D03*
X122505000Y-116999992D03*
X122505000Y-115999989D03*
X122505000Y-114999986D03*
X122505000Y-113999983D03*
X124745000Y-113999977D03*
X124745000Y-114999980D03*
X124745000Y-115999983D03*
X124745000Y-116999986D03*
X124745000Y-117999989D03*
X124745000Y-118999992D03*
X122505000Y-83499995D03*
X122505000Y-82499995D03*
X122505000Y-81499995D03*
X122505000Y-80499995D03*
X122505000Y-79499995D03*
X122505000Y-78499995D03*
X124745000Y-78499997D03*
X124745000Y-79499997D03*
X124745000Y-80499997D03*
X124745000Y-81499997D03*
X124745000Y-82499997D03*
X124745000Y-83499997D03*
M02*
