G04 #@! TF.GenerationSoftware,KiCad,Pcbnew,(5.1.2)-1*
G04 #@! TF.CreationDate,2019-07-17T12:10:41+10:00*
G04 #@! TF.ProjectId,output.panel,6f757470-7574-42e7-9061-6e656c2e6b69,0*
G04 #@! TF.SameCoordinates,Original*
G04 #@! TF.FileFunction,Legend,Top*
G04 #@! TF.FilePolarity,Positive*
%FSLAX46Y46*%
G04 Gerber Fmt 4.6, Leading zero omitted, Abs format (unit mm)*
G04 Created by KiCad (PCBNEW (5.1.2)-1) date 2019-07-17 12:10:41*
%MOMM*%
%LPD*%
G04 APERTURE LIST*
%ADD10C,0.120000*%
%ADD11C,0.150000*%
G04 APERTURE END LIST*
D10*
X192970000Y-100825000D02*
X192970000Y-101325000D01*
X195330000Y-100825000D02*
X195330000Y-101325000D01*
X167570000Y-100825000D02*
X167570000Y-101325000D01*
X169930000Y-100825000D02*
X169930000Y-101325000D01*
X142170000Y-100825000D02*
X142170000Y-101325000D01*
X144530000Y-100825000D02*
X144530000Y-101325000D01*
X178970000Y-100825000D02*
X178970000Y-101325000D01*
X181330000Y-100825000D02*
X181330000Y-101325000D01*
X153570000Y-100825000D02*
X153570000Y-101325000D01*
X155930000Y-100825000D02*
X155930000Y-101325000D01*
X128170000Y-100825000D02*
X128170000Y-101325000D01*
X130530000Y-100825000D02*
X130530000Y-101325000D01*
X194330000Y-109925000D02*
X194330000Y-109425000D01*
X191970000Y-109925000D02*
X191970000Y-109425000D01*
X168930000Y-109925000D02*
X168930000Y-109425000D01*
X166570000Y-109925000D02*
X166570000Y-109425000D01*
X143530000Y-109925000D02*
X143530000Y-109425000D01*
X141170000Y-109925000D02*
X141170000Y-109425000D01*
X189462779Y-105260000D02*
X189137221Y-105260000D01*
X189462779Y-104240000D02*
X189137221Y-104240000D01*
X164062779Y-105260000D02*
X163737221Y-105260000D01*
X164062779Y-104240000D02*
X163737221Y-104240000D01*
X138662779Y-105260000D02*
X138337221Y-105260000D01*
X138662779Y-104240000D02*
X138337221Y-104240000D01*
D11*
X189350000Y-98350000D02*
X184950000Y-98350000D01*
X190925000Y-103875000D02*
X184950000Y-103875000D01*
X163950000Y-98350000D02*
X159550000Y-98350000D01*
X165525000Y-103875000D02*
X159550000Y-103875000D01*
X138550000Y-98350000D02*
X134150000Y-98350000D01*
X140125000Y-103875000D02*
X134150000Y-103875000D01*
D10*
X182330000Y-109925000D02*
X182330000Y-109425000D01*
X179970000Y-109925000D02*
X179970000Y-109425000D01*
X156930000Y-109925000D02*
X156930000Y-109425000D01*
X154570000Y-109925000D02*
X154570000Y-109425000D01*
X131530000Y-109925000D02*
X131530000Y-109425000D01*
X129170000Y-109925000D02*
X129170000Y-109425000D01*
D11*
X114725000Y-103875000D02*
X108750000Y-103875000D01*
X113150000Y-98350000D02*
X108750000Y-98350000D01*
D10*
X119130000Y-100825000D02*
X119130000Y-101325000D01*
X116770000Y-100825000D02*
X116770000Y-101325000D01*
X115770000Y-109925000D02*
X115770000Y-109425000D01*
X118130000Y-109925000D02*
X118130000Y-109425000D01*
X105130000Y-100825000D02*
X105130000Y-101325000D01*
X102770000Y-100825000D02*
X102770000Y-101325000D01*
X103770000Y-109925000D02*
X103770000Y-109425000D01*
X106130000Y-109925000D02*
X106130000Y-109425000D01*
X113262779Y-104240000D02*
X112937221Y-104240000D01*
X113262779Y-105260000D02*
X112937221Y-105260000D01*
D11*
X179816666Y-112579761D02*
X179959523Y-112627380D01*
X180197619Y-112627380D01*
X180292857Y-112579761D01*
X180340476Y-112532142D01*
X180388095Y-112436904D01*
X180388095Y-112341666D01*
X180340476Y-112246428D01*
X180292857Y-112198809D01*
X180197619Y-112151190D01*
X180007142Y-112103571D01*
X179911904Y-112055952D01*
X179864285Y-112008333D01*
X179816666Y-111913095D01*
X179816666Y-111817857D01*
X179864285Y-111722619D01*
X179911904Y-111675000D01*
X180007142Y-111627380D01*
X180245238Y-111627380D01*
X180388095Y-111675000D01*
X180721428Y-111627380D02*
X180959523Y-112627380D01*
X181150000Y-111913095D01*
X181340476Y-112627380D01*
X181578571Y-111627380D01*
X181911904Y-111722619D02*
X181959523Y-111675000D01*
X182054761Y-111627380D01*
X182292857Y-111627380D01*
X182388095Y-111675000D01*
X182435714Y-111722619D01*
X182483333Y-111817857D01*
X182483333Y-111913095D01*
X182435714Y-112055952D01*
X181864285Y-112627380D01*
X182483333Y-112627380D01*
X154416666Y-112579761D02*
X154559523Y-112627380D01*
X154797619Y-112627380D01*
X154892857Y-112579761D01*
X154940476Y-112532142D01*
X154988095Y-112436904D01*
X154988095Y-112341666D01*
X154940476Y-112246428D01*
X154892857Y-112198809D01*
X154797619Y-112151190D01*
X154607142Y-112103571D01*
X154511904Y-112055952D01*
X154464285Y-112008333D01*
X154416666Y-111913095D01*
X154416666Y-111817857D01*
X154464285Y-111722619D01*
X154511904Y-111675000D01*
X154607142Y-111627380D01*
X154845238Y-111627380D01*
X154988095Y-111675000D01*
X155321428Y-111627380D02*
X155559523Y-112627380D01*
X155750000Y-111913095D01*
X155940476Y-112627380D01*
X156178571Y-111627380D01*
X156511904Y-111722619D02*
X156559523Y-111675000D01*
X156654761Y-111627380D01*
X156892857Y-111627380D01*
X156988095Y-111675000D01*
X157035714Y-111722619D01*
X157083333Y-111817857D01*
X157083333Y-111913095D01*
X157035714Y-112055952D01*
X156464285Y-112627380D01*
X157083333Y-112627380D01*
X129016666Y-112579761D02*
X129159523Y-112627380D01*
X129397619Y-112627380D01*
X129492857Y-112579761D01*
X129540476Y-112532142D01*
X129588095Y-112436904D01*
X129588095Y-112341666D01*
X129540476Y-112246428D01*
X129492857Y-112198809D01*
X129397619Y-112151190D01*
X129207142Y-112103571D01*
X129111904Y-112055952D01*
X129064285Y-112008333D01*
X129016666Y-111913095D01*
X129016666Y-111817857D01*
X129064285Y-111722619D01*
X129111904Y-111675000D01*
X129207142Y-111627380D01*
X129445238Y-111627380D01*
X129588095Y-111675000D01*
X129921428Y-111627380D02*
X130159523Y-112627380D01*
X130350000Y-111913095D01*
X130540476Y-112627380D01*
X130778571Y-111627380D01*
X131111904Y-111722619D02*
X131159523Y-111675000D01*
X131254761Y-111627380D01*
X131492857Y-111627380D01*
X131588095Y-111675000D01*
X131635714Y-111722619D01*
X131683333Y-111817857D01*
X131683333Y-111913095D01*
X131635714Y-112055952D01*
X131064285Y-112627380D01*
X131683333Y-112627380D01*
X185816666Y-119692161D02*
X185959523Y-119739780D01*
X186197619Y-119739780D01*
X186292857Y-119692161D01*
X186340476Y-119644542D01*
X186388095Y-119549304D01*
X186388095Y-119454066D01*
X186340476Y-119358828D01*
X186292857Y-119311209D01*
X186197619Y-119263590D01*
X186007142Y-119215971D01*
X185911904Y-119168352D01*
X185864285Y-119120733D01*
X185816666Y-119025495D01*
X185816666Y-118930257D01*
X185864285Y-118835019D01*
X185911904Y-118787400D01*
X186007142Y-118739780D01*
X186245238Y-118739780D01*
X186388095Y-118787400D01*
X186721428Y-118739780D02*
X186959523Y-119739780D01*
X187150000Y-119025495D01*
X187340476Y-119739780D01*
X187578571Y-118739780D01*
X188388095Y-119073114D02*
X188388095Y-119739780D01*
X188150000Y-118692161D02*
X187911904Y-119406447D01*
X188530952Y-119406447D01*
X160416666Y-119692161D02*
X160559523Y-119739780D01*
X160797619Y-119739780D01*
X160892857Y-119692161D01*
X160940476Y-119644542D01*
X160988095Y-119549304D01*
X160988095Y-119454066D01*
X160940476Y-119358828D01*
X160892857Y-119311209D01*
X160797619Y-119263590D01*
X160607142Y-119215971D01*
X160511904Y-119168352D01*
X160464285Y-119120733D01*
X160416666Y-119025495D01*
X160416666Y-118930257D01*
X160464285Y-118835019D01*
X160511904Y-118787400D01*
X160607142Y-118739780D01*
X160845238Y-118739780D01*
X160988095Y-118787400D01*
X161321428Y-118739780D02*
X161559523Y-119739780D01*
X161750000Y-119025495D01*
X161940476Y-119739780D01*
X162178571Y-118739780D01*
X162988095Y-119073114D02*
X162988095Y-119739780D01*
X162750000Y-118692161D02*
X162511904Y-119406447D01*
X163130952Y-119406447D01*
X135016666Y-119692161D02*
X135159523Y-119739780D01*
X135397619Y-119739780D01*
X135492857Y-119692161D01*
X135540476Y-119644542D01*
X135588095Y-119549304D01*
X135588095Y-119454066D01*
X135540476Y-119358828D01*
X135492857Y-119311209D01*
X135397619Y-119263590D01*
X135207142Y-119215971D01*
X135111904Y-119168352D01*
X135064285Y-119120733D01*
X135016666Y-119025495D01*
X135016666Y-118930257D01*
X135064285Y-118835019D01*
X135111904Y-118787400D01*
X135207142Y-118739780D01*
X135445238Y-118739780D01*
X135588095Y-118787400D01*
X135921428Y-118739780D02*
X136159523Y-119739780D01*
X136350000Y-119025495D01*
X136540476Y-119739780D01*
X136778571Y-118739780D01*
X137588095Y-119073114D02*
X137588095Y-119739780D01*
X137350000Y-118692161D02*
X137111904Y-119406447D01*
X137730952Y-119406447D01*
X191816666Y-112604761D02*
X191959523Y-112652380D01*
X192197619Y-112652380D01*
X192292857Y-112604761D01*
X192340476Y-112557142D01*
X192388095Y-112461904D01*
X192388095Y-112366666D01*
X192340476Y-112271428D01*
X192292857Y-112223809D01*
X192197619Y-112176190D01*
X192007142Y-112128571D01*
X191911904Y-112080952D01*
X191864285Y-112033333D01*
X191816666Y-111938095D01*
X191816666Y-111842857D01*
X191864285Y-111747619D01*
X191911904Y-111700000D01*
X192007142Y-111652380D01*
X192245238Y-111652380D01*
X192388095Y-111700000D01*
X192721428Y-111652380D02*
X192959523Y-112652380D01*
X193150000Y-111938095D01*
X193340476Y-112652380D01*
X193578571Y-111652380D01*
X193864285Y-111652380D02*
X194483333Y-111652380D01*
X194150000Y-112033333D01*
X194292857Y-112033333D01*
X194388095Y-112080952D01*
X194435714Y-112128571D01*
X194483333Y-112223809D01*
X194483333Y-112461904D01*
X194435714Y-112557142D01*
X194388095Y-112604761D01*
X194292857Y-112652380D01*
X194007142Y-112652380D01*
X193911904Y-112604761D01*
X193864285Y-112557142D01*
X166416666Y-112604761D02*
X166559523Y-112652380D01*
X166797619Y-112652380D01*
X166892857Y-112604761D01*
X166940476Y-112557142D01*
X166988095Y-112461904D01*
X166988095Y-112366666D01*
X166940476Y-112271428D01*
X166892857Y-112223809D01*
X166797619Y-112176190D01*
X166607142Y-112128571D01*
X166511904Y-112080952D01*
X166464285Y-112033333D01*
X166416666Y-111938095D01*
X166416666Y-111842857D01*
X166464285Y-111747619D01*
X166511904Y-111700000D01*
X166607142Y-111652380D01*
X166845238Y-111652380D01*
X166988095Y-111700000D01*
X167321428Y-111652380D02*
X167559523Y-112652380D01*
X167750000Y-111938095D01*
X167940476Y-112652380D01*
X168178571Y-111652380D01*
X168464285Y-111652380D02*
X169083333Y-111652380D01*
X168750000Y-112033333D01*
X168892857Y-112033333D01*
X168988095Y-112080952D01*
X169035714Y-112128571D01*
X169083333Y-112223809D01*
X169083333Y-112461904D01*
X169035714Y-112557142D01*
X168988095Y-112604761D01*
X168892857Y-112652380D01*
X168607142Y-112652380D01*
X168511904Y-112604761D01*
X168464285Y-112557142D01*
X141016666Y-112604761D02*
X141159523Y-112652380D01*
X141397619Y-112652380D01*
X141492857Y-112604761D01*
X141540476Y-112557142D01*
X141588095Y-112461904D01*
X141588095Y-112366666D01*
X141540476Y-112271428D01*
X141492857Y-112223809D01*
X141397619Y-112176190D01*
X141207142Y-112128571D01*
X141111904Y-112080952D01*
X141064285Y-112033333D01*
X141016666Y-111938095D01*
X141016666Y-111842857D01*
X141064285Y-111747619D01*
X141111904Y-111700000D01*
X141207142Y-111652380D01*
X141445238Y-111652380D01*
X141588095Y-111700000D01*
X141921428Y-111652380D02*
X142159523Y-112652380D01*
X142350000Y-111938095D01*
X142540476Y-112652380D01*
X142778571Y-111652380D01*
X143064285Y-111652380D02*
X143683333Y-111652380D01*
X143350000Y-112033333D01*
X143492857Y-112033333D01*
X143588095Y-112080952D01*
X143635714Y-112128571D01*
X143683333Y-112223809D01*
X143683333Y-112461904D01*
X143635714Y-112557142D01*
X143588095Y-112604761D01*
X143492857Y-112652380D01*
X143207142Y-112652380D01*
X143111904Y-112604761D01*
X143064285Y-112557142D01*
X185816666Y-107704761D02*
X185959523Y-107752380D01*
X186197619Y-107752380D01*
X186292857Y-107704761D01*
X186340476Y-107657142D01*
X186388095Y-107561904D01*
X186388095Y-107466666D01*
X186340476Y-107371428D01*
X186292857Y-107323809D01*
X186197619Y-107276190D01*
X186007142Y-107228571D01*
X185911904Y-107180952D01*
X185864285Y-107133333D01*
X185816666Y-107038095D01*
X185816666Y-106942857D01*
X185864285Y-106847619D01*
X185911904Y-106800000D01*
X186007142Y-106752380D01*
X186245238Y-106752380D01*
X186388095Y-106800000D01*
X186721428Y-106752380D02*
X186959523Y-107752380D01*
X187150000Y-107038095D01*
X187340476Y-107752380D01*
X187578571Y-106752380D01*
X188483333Y-107752380D02*
X187911904Y-107752380D01*
X188197619Y-107752380D02*
X188197619Y-106752380D01*
X188102380Y-106895238D01*
X188007142Y-106990476D01*
X187911904Y-107038095D01*
X160416666Y-107704761D02*
X160559523Y-107752380D01*
X160797619Y-107752380D01*
X160892857Y-107704761D01*
X160940476Y-107657142D01*
X160988095Y-107561904D01*
X160988095Y-107466666D01*
X160940476Y-107371428D01*
X160892857Y-107323809D01*
X160797619Y-107276190D01*
X160607142Y-107228571D01*
X160511904Y-107180952D01*
X160464285Y-107133333D01*
X160416666Y-107038095D01*
X160416666Y-106942857D01*
X160464285Y-106847619D01*
X160511904Y-106800000D01*
X160607142Y-106752380D01*
X160845238Y-106752380D01*
X160988095Y-106800000D01*
X161321428Y-106752380D02*
X161559523Y-107752380D01*
X161750000Y-107038095D01*
X161940476Y-107752380D01*
X162178571Y-106752380D01*
X163083333Y-107752380D02*
X162511904Y-107752380D01*
X162797619Y-107752380D02*
X162797619Y-106752380D01*
X162702380Y-106895238D01*
X162607142Y-106990476D01*
X162511904Y-107038095D01*
X135016666Y-107704761D02*
X135159523Y-107752380D01*
X135397619Y-107752380D01*
X135492857Y-107704761D01*
X135540476Y-107657142D01*
X135588095Y-107561904D01*
X135588095Y-107466666D01*
X135540476Y-107371428D01*
X135492857Y-107323809D01*
X135397619Y-107276190D01*
X135207142Y-107228571D01*
X135111904Y-107180952D01*
X135064285Y-107133333D01*
X135016666Y-107038095D01*
X135016666Y-106942857D01*
X135064285Y-106847619D01*
X135111904Y-106800000D01*
X135207142Y-106752380D01*
X135445238Y-106752380D01*
X135588095Y-106800000D01*
X135921428Y-106752380D02*
X136159523Y-107752380D01*
X136350000Y-107038095D01*
X136540476Y-107752380D01*
X136778571Y-106752380D01*
X137683333Y-107752380D02*
X137111904Y-107752380D01*
X137397619Y-107752380D02*
X137397619Y-106752380D01*
X137302380Y-106895238D01*
X137207142Y-106990476D01*
X137111904Y-107038095D01*
X109616666Y-119692161D02*
X109759523Y-119739780D01*
X109997619Y-119739780D01*
X110092857Y-119692161D01*
X110140476Y-119644542D01*
X110188095Y-119549304D01*
X110188095Y-119454066D01*
X110140476Y-119358828D01*
X110092857Y-119311209D01*
X109997619Y-119263590D01*
X109807142Y-119215971D01*
X109711904Y-119168352D01*
X109664285Y-119120733D01*
X109616666Y-119025495D01*
X109616666Y-118930257D01*
X109664285Y-118835019D01*
X109711904Y-118787400D01*
X109807142Y-118739780D01*
X110045238Y-118739780D01*
X110188095Y-118787400D01*
X110521428Y-118739780D02*
X110759523Y-119739780D01*
X110950000Y-119025495D01*
X111140476Y-119739780D01*
X111378571Y-118739780D01*
X112188095Y-119073114D02*
X112188095Y-119739780D01*
X111950000Y-118692161D02*
X111711904Y-119406447D01*
X112330952Y-119406447D01*
X115616666Y-112604761D02*
X115759523Y-112652380D01*
X115997619Y-112652380D01*
X116092857Y-112604761D01*
X116140476Y-112557142D01*
X116188095Y-112461904D01*
X116188095Y-112366666D01*
X116140476Y-112271428D01*
X116092857Y-112223809D01*
X115997619Y-112176190D01*
X115807142Y-112128571D01*
X115711904Y-112080952D01*
X115664285Y-112033333D01*
X115616666Y-111938095D01*
X115616666Y-111842857D01*
X115664285Y-111747619D01*
X115711904Y-111700000D01*
X115807142Y-111652380D01*
X116045238Y-111652380D01*
X116188095Y-111700000D01*
X116521428Y-111652380D02*
X116759523Y-112652380D01*
X116950000Y-111938095D01*
X117140476Y-112652380D01*
X117378571Y-111652380D01*
X117664285Y-111652380D02*
X118283333Y-111652380D01*
X117950000Y-112033333D01*
X118092857Y-112033333D01*
X118188095Y-112080952D01*
X118235714Y-112128571D01*
X118283333Y-112223809D01*
X118283333Y-112461904D01*
X118235714Y-112557142D01*
X118188095Y-112604761D01*
X118092857Y-112652380D01*
X117807142Y-112652380D01*
X117711904Y-112604761D01*
X117664285Y-112557142D01*
X103616666Y-112579761D02*
X103759523Y-112627380D01*
X103997619Y-112627380D01*
X104092857Y-112579761D01*
X104140476Y-112532142D01*
X104188095Y-112436904D01*
X104188095Y-112341666D01*
X104140476Y-112246428D01*
X104092857Y-112198809D01*
X103997619Y-112151190D01*
X103807142Y-112103571D01*
X103711904Y-112055952D01*
X103664285Y-112008333D01*
X103616666Y-111913095D01*
X103616666Y-111817857D01*
X103664285Y-111722619D01*
X103711904Y-111675000D01*
X103807142Y-111627380D01*
X104045238Y-111627380D01*
X104188095Y-111675000D01*
X104521428Y-111627380D02*
X104759523Y-112627380D01*
X104950000Y-111913095D01*
X105140476Y-112627380D01*
X105378571Y-111627380D01*
X105711904Y-111722619D02*
X105759523Y-111675000D01*
X105854761Y-111627380D01*
X106092857Y-111627380D01*
X106188095Y-111675000D01*
X106235714Y-111722619D01*
X106283333Y-111817857D01*
X106283333Y-111913095D01*
X106235714Y-112055952D01*
X105664285Y-112627380D01*
X106283333Y-112627380D01*
X109616666Y-107704761D02*
X109759523Y-107752380D01*
X109997619Y-107752380D01*
X110092857Y-107704761D01*
X110140476Y-107657142D01*
X110188095Y-107561904D01*
X110188095Y-107466666D01*
X110140476Y-107371428D01*
X110092857Y-107323809D01*
X109997619Y-107276190D01*
X109807142Y-107228571D01*
X109711904Y-107180952D01*
X109664285Y-107133333D01*
X109616666Y-107038095D01*
X109616666Y-106942857D01*
X109664285Y-106847619D01*
X109711904Y-106800000D01*
X109807142Y-106752380D01*
X110045238Y-106752380D01*
X110188095Y-106800000D01*
X110521428Y-106752380D02*
X110759523Y-107752380D01*
X110950000Y-107038095D01*
X111140476Y-107752380D01*
X111378571Y-106752380D01*
X112283333Y-107752380D02*
X111711904Y-107752380D01*
X111997619Y-107752380D02*
X111997619Y-106752380D01*
X111902380Y-106895238D01*
X111807142Y-106990476D01*
X111711904Y-107038095D01*
M02*
