M48
; DRILL file {KiCad (5.1.2)-1} date 17/07/2019 12:10:42
; FORMAT={-:-/ absolute / metric / decimal}
; #@! TF.CreationDate,2019-07-17T12:10:42+10:00
; #@! TF.GenerationSoftware,Kicad,Pcbnew,(5.1.2)-1
FMAT,2
METRIC
T1C0.250
T2C0.300
T3C1.000
T4C0.300
T5C2.540
%
G90
G05
T1
X102.7Y-89.6
X103.6Y-99.5
X103.8Y-81.8
X103.8Y-84.6
X103.8Y-87.6
X103.8Y-90.3
X103.8Y-93.4
X104.0Y-78.8
X104.2Y-96.7
X104.2Y-108.6
X104.7Y-97.2
X105.0Y-78.8
X105.0Y-81.5
X105.0Y-84.2
X105.0Y-87.2
X105.0Y-90.2
X105.0Y-93.2
X105.55Y-89.15
X105.7Y-108.6
X106.55Y-102.05
X106.85Y-99.45
X107.9Y-78.8
X107.9Y-81.5
X107.9Y-84.2
X107.9Y-87.2
X107.9Y-90.2
X107.9Y-93.2
X109.2Y-100.7
X109.6Y-101.3
X110.8Y-78.8
X110.8Y-81.5
X110.8Y-84.2
X110.8Y-87.2
X110.8Y-90.2
X110.8Y-93.2
X111.6Y-104.7
X112.8Y-98.8
X113.7Y-78.8
X113.7Y-81.5
X113.7Y-84.2
X113.7Y-87.2
X113.7Y-90.2
X113.7Y-93.2
X113.9Y-112.3
X113.9Y-114.9
X113.9Y-121.5
X116.6Y-78.8
X116.6Y-81.5
X116.6Y-84.2
X116.6Y-87.2
X116.6Y-90.2
X116.6Y-93.2
X117.2Y-99.2
X117.7Y-99.7
X118.2Y-99.2
X118.708Y-99.606
X118.9Y-96.2
X119.3Y-86.8
X128.1Y-89.6
X129.0Y-99.5
X129.2Y-81.8
X129.2Y-84.6
X129.2Y-87.6
X129.2Y-90.3
X129.2Y-93.4
X129.4Y-78.8
X129.6Y-96.7
X129.6Y-108.6
X130.1Y-97.2
X130.4Y-78.8
X130.4Y-81.5
X130.4Y-84.2
X130.4Y-87.2
X130.4Y-90.2
X130.4Y-93.2
X130.95Y-89.15
X131.1Y-108.6
X131.95Y-102.05
X132.25Y-99.45
X133.3Y-78.8
X133.3Y-81.5
X133.3Y-84.2
X133.3Y-87.2
X133.3Y-90.2
X133.3Y-93.2
X134.6Y-100.7
X135.0Y-101.3
X136.2Y-78.8
X136.2Y-81.5
X136.2Y-84.2
X136.2Y-87.2
X136.2Y-90.2
X136.2Y-93.2
X137.0Y-104.7
X138.2Y-98.8
X139.1Y-78.8
X139.1Y-81.5
X139.1Y-84.2
X139.1Y-87.2
X139.1Y-90.2
X139.1Y-93.2
X139.3Y-112.3
X139.3Y-114.9
X139.3Y-121.5
X142.0Y-78.8
X142.0Y-81.5
X142.0Y-84.2
X142.0Y-87.2
X142.0Y-90.2
X142.0Y-93.2
X142.6Y-99.2
X143.1Y-99.7
X143.6Y-99.2
X144.108Y-99.606
X144.3Y-96.2
X144.7Y-86.8
X153.5Y-89.6
X154.4Y-99.5
X154.6Y-81.8
X154.6Y-84.6
X154.6Y-87.6
X154.6Y-90.3
X154.6Y-93.4
X154.8Y-78.8
X155.0Y-96.7
X155.0Y-108.6
X155.5Y-97.2
X155.8Y-78.8
X155.8Y-81.5
X155.8Y-84.2
X155.8Y-87.2
X155.8Y-90.2
X155.8Y-93.2
X156.35Y-89.15
X156.5Y-108.6
X157.35Y-102.05
X157.65Y-99.45
X158.7Y-78.8
X158.7Y-81.5
X158.7Y-84.2
X158.7Y-87.2
X158.7Y-90.2
X158.7Y-93.2
X160.0Y-100.7
X160.4Y-101.3
X161.6Y-78.8
X161.6Y-81.5
X161.6Y-84.2
X161.6Y-87.2
X161.6Y-90.2
X161.6Y-93.2
X162.4Y-104.7
X163.6Y-98.8
X164.5Y-78.8
X164.5Y-81.5
X164.5Y-84.2
X164.5Y-87.2
X164.5Y-90.2
X164.5Y-93.2
X164.7Y-112.3
X164.7Y-114.9
X164.7Y-121.5
X167.4Y-78.8
X167.4Y-81.5
X167.4Y-84.2
X167.4Y-87.2
X167.4Y-90.2
X167.4Y-93.2
X168.0Y-99.2
X168.5Y-99.7
X169.0Y-99.2
X169.508Y-99.606
X169.7Y-96.2
X170.1Y-86.8
X178.9Y-89.6
X179.8Y-99.5
X180.0Y-81.8
X180.0Y-84.6
X180.0Y-87.6
X180.0Y-90.3
X180.0Y-93.4
X180.2Y-78.8
X180.4Y-96.7
X180.4Y-108.6
X180.9Y-97.2
X181.2Y-78.8
X181.2Y-81.5
X181.2Y-84.2
X181.2Y-87.2
X181.2Y-90.2
X181.2Y-93.2
X181.75Y-89.15
X181.9Y-108.6
X182.75Y-102.05
X183.05Y-99.45
X184.1Y-78.8
X184.1Y-81.5
X184.1Y-84.2
X184.1Y-87.2
X184.1Y-90.2
X184.1Y-93.2
X185.4Y-100.7
X185.8Y-101.3
X187.0Y-78.8
X187.0Y-81.5
X187.0Y-84.2
X187.0Y-87.2
X187.0Y-90.2
X187.0Y-93.2
X187.8Y-104.7
X189.0Y-98.8
X189.9Y-78.8
X189.9Y-81.5
X189.9Y-84.2
X189.9Y-87.2
X189.9Y-90.2
X189.9Y-93.2
X190.1Y-112.3
X190.1Y-114.9
X190.1Y-121.5
X192.8Y-78.8
X192.8Y-81.5
X192.8Y-84.2
X192.8Y-87.2
X192.8Y-90.2
X192.8Y-93.2
X193.4Y-99.2
X193.9Y-99.7
X194.4Y-99.2
X194.908Y-99.606
X195.1Y-96.2
X195.5Y-86.8
T2
X113.9Y-105.8
X139.3Y-105.8
X164.7Y-105.8
X190.1Y-105.8
T3
X126.165Y-79.809
X126.165Y-82.349
X126.165Y-84.889
X126.165Y-87.429
X126.165Y-89.969
X126.165Y-92.509
X126.165Y-95.049
X126.165Y-97.589
X126.165Y-100.129
X126.165Y-102.669
X126.165Y-105.209
X126.165Y-107.749
X126.165Y-110.289
X126.165Y-112.829
X126.165Y-115.369
X126.165Y-117.909
X146.485Y-89.969
X146.485Y-92.509
X146.485Y-95.049
X146.485Y-97.589
X146.485Y-100.129
X146.485Y-102.669
X146.485Y-105.209
X146.485Y-107.749
X146.485Y-110.289
X146.485Y-112.829
X146.485Y-115.369
X146.485Y-117.909
X151.565Y-79.809
X151.565Y-82.349
X151.565Y-84.889
X151.565Y-87.429
X151.565Y-89.969
X151.565Y-92.509
X151.565Y-95.049
X151.565Y-97.589
X151.565Y-100.129
X151.565Y-102.669
X151.565Y-105.209
X151.565Y-107.749
X151.565Y-110.289
X151.565Y-112.829
X151.565Y-115.369
X151.565Y-117.909
X171.885Y-89.969
X171.885Y-92.509
X171.885Y-95.049
X171.885Y-97.589
X171.885Y-100.129
X171.885Y-102.669
X171.885Y-105.209
X171.885Y-107.749
X171.885Y-110.289
X171.885Y-112.829
X171.885Y-115.369
X171.885Y-117.909
X100.765Y-79.809
X100.765Y-82.349
X100.765Y-84.889
X100.765Y-87.429
X100.765Y-89.969
X100.765Y-92.509
X100.765Y-95.049
X100.765Y-97.589
X100.765Y-100.129
X100.765Y-102.669
X100.765Y-105.209
X100.765Y-107.749
X100.765Y-110.289
X100.765Y-112.829
X100.765Y-115.369
X100.765Y-117.909
X121.085Y-89.969
X121.085Y-92.509
X121.085Y-95.049
X121.085Y-97.589
X121.085Y-100.129
X121.085Y-102.669
X121.085Y-105.209
X121.085Y-107.749
X121.085Y-110.289
X121.085Y-112.829
X121.085Y-115.369
X121.085Y-117.909
X176.965Y-79.809
X176.965Y-82.349
X176.965Y-84.889
X176.965Y-87.429
X176.965Y-89.969
X176.965Y-92.509
X176.965Y-95.049
X176.965Y-97.589
X176.965Y-100.129
X176.965Y-102.669
X176.965Y-105.209
X176.965Y-107.749
X176.965Y-110.289
X176.965Y-112.829
X176.965Y-115.369
X176.965Y-117.909
X197.285Y-89.969
X197.285Y-92.509
X197.285Y-95.049
X197.285Y-97.589
X197.285Y-100.129
X197.285Y-102.669
X197.285Y-105.209
X197.285Y-107.749
X197.285Y-110.289
X197.285Y-112.829
X197.285Y-115.369
X197.285Y-117.909
T4
X150.145Y-114.0
X150.145Y-115.0
X150.145Y-116.0
X150.145Y-117.0
X150.145Y-118.0
X150.145Y-119.0
X122.505Y-114.0
X122.505Y-115.0
X122.505Y-116.0
X122.505Y-117.0
X122.505Y-118.0
X122.505Y-119.0
X173.305Y-78.5
X173.305Y-79.5
X173.305Y-80.5
X173.305Y-81.5
X173.305Y-82.5
X173.305Y-83.5
X122.505Y-78.5
X122.505Y-79.5
X122.505Y-80.5
X122.505Y-81.5
X122.505Y-82.5
X122.505Y-83.5
X147.905Y-114.0
X147.905Y-115.0
X147.905Y-116.0
X147.905Y-117.0
X147.905Y-118.0
X147.905Y-119.0
X150.145Y-78.5
X150.145Y-79.5
X150.145Y-80.5
X150.145Y-81.5
X150.145Y-82.5
X150.145Y-83.5
X124.745Y-78.5
X124.745Y-79.5
X124.745Y-80.5
X124.745Y-81.5
X124.745Y-82.5
X124.745Y-83.5
X175.545Y-78.5
X175.545Y-79.5
X175.545Y-80.5
X175.545Y-81.5
X175.545Y-82.5
X175.545Y-83.5
X147.905Y-78.5
X147.905Y-79.5
X147.905Y-80.5
X147.905Y-81.5
X147.905Y-82.5
X147.905Y-83.5
X124.745Y-114.0
X124.745Y-115.0
X124.745Y-116.0
X124.745Y-117.0
X124.745Y-118.0
X124.745Y-119.0
X173.305Y-114.0
X173.305Y-115.0
X173.305Y-116.0
X173.305Y-117.0
X173.305Y-118.0
X173.305Y-119.0
X175.545Y-114.0
X175.545Y-115.0
X175.545Y-116.0
X175.545Y-117.0
X175.545Y-118.0
X175.545Y-119.0
T5
X152.835Y-75.999
X152.835Y-121.719
X170.615Y-75.999
X170.615Y-121.719
X102.035Y-75.999
X102.035Y-121.719
X119.815Y-75.999
X119.815Y-121.719
X178.235Y-75.999
X178.235Y-121.719
X196.015Y-75.999
X196.015Y-121.719
X127.435Y-75.999
X127.435Y-121.719
X145.215Y-75.999
X145.215Y-121.719
T0
M30
