G04 #@! TF.GenerationSoftware,KiCad,Pcbnew,(5.1.2)-1*
G04 #@! TF.CreationDate,2019-07-17T12:10:41+10:00*
G04 #@! TF.ProjectId,output.panel,6f757470-7574-42e7-9061-6e656c2e6b69,0*
G04 #@! TF.SameCoordinates,Original*
G04 #@! TF.FileFunction,Profile,NP*
%FSLAX46Y46*%
G04 Gerber Fmt 4.6, Leading zero omitted, Abs format (unit mm)*
G04 Created by KiCad (PCBNEW (5.1.2)-1) date 2019-07-17 12:10:41*
%MOMM*%
%LPD*%
G04 APERTURE LIST*
%ADD10C,0.100000*%
%ADD11C,0.050000*%
G04 APERTURE END LIST*
D10*
X198555000Y-76405000D02*
X198555000Y-121312200D01*
X99495000Y-121312200D02*
X99495000Y-76405000D01*
X173155000Y-78499997D02*
X173155000Y-76405000D01*
X175695000Y-78499997D02*
X175695000Y-76405000D01*
X175695000Y-83499960D02*
X175686674Y-83400307D01*
X173155000Y-83499960D02*
X173163326Y-83400307D01*
X175686674Y-83400307D02*
X175670080Y-83301693D01*
X173163326Y-83400307D02*
X173179920Y-83301693D01*
X175670080Y-83301693D02*
X175645333Y-83204803D01*
X173179920Y-83301693D02*
X173204667Y-83204803D01*
X175645333Y-83204803D02*
X175612605Y-83110310D01*
X173204667Y-83204803D02*
X173237395Y-83110310D01*
X175612605Y-83110310D02*
X175572123Y-83018870D01*
X173237395Y-83110310D02*
X173277877Y-83018870D01*
X175572123Y-83018870D02*
X175524168Y-82931118D01*
X173277877Y-83018870D02*
X173325832Y-82931118D01*
X175524168Y-82931118D02*
X175469073Y-82847663D01*
X173325832Y-82931118D02*
X173380927Y-82847663D01*
X175469073Y-82847663D02*
X175407221Y-82769085D01*
X173380927Y-82847663D02*
X173442779Y-82769085D01*
X175407221Y-82769085D02*
X175339041Y-82695930D01*
X173442779Y-82769085D02*
X173510959Y-82695930D01*
X175339041Y-82695930D02*
X175265007Y-82628706D01*
X173510959Y-82695930D02*
X173584993Y-82628706D01*
X175265007Y-82628706D02*
X175185633Y-82567880D01*
X173584993Y-82628706D02*
X173664367Y-82567880D01*
X175185633Y-82567880D02*
X175101470Y-82513874D01*
X173664367Y-82567880D02*
X173748530Y-82513874D01*
X175101470Y-82513874D02*
X175013103Y-82467063D01*
X173748530Y-82513874D02*
X173836897Y-82467063D01*
X175013103Y-82467063D02*
X174921145Y-82427772D01*
X173836897Y-82467063D02*
X173928855Y-82427772D01*
X174921145Y-82427772D02*
X174826235Y-82396274D01*
X173928855Y-82427772D02*
X174023765Y-82396274D01*
X174826235Y-82396274D02*
X174729032Y-82372788D01*
X174023765Y-82396274D02*
X174120968Y-82372788D01*
X174729032Y-82372788D02*
X174630211Y-82357477D01*
X174120968Y-82372788D02*
X174219789Y-82357477D01*
X174630211Y-82357477D02*
X174530458Y-82350447D01*
X174219789Y-82357477D02*
X174319542Y-82350447D01*
X174319542Y-82350447D02*
X174530458Y-82350447D01*
X175695000Y-78499997D02*
X175686674Y-78599650D01*
X173155000Y-78499997D02*
X173163326Y-78599650D01*
X175686674Y-78599650D02*
X175670080Y-78698264D01*
X173163326Y-78599650D02*
X173179920Y-78698264D01*
X175670080Y-78698264D02*
X175645333Y-78795154D01*
X173179920Y-78698264D02*
X173204667Y-78795154D01*
X175645333Y-78795154D02*
X175612605Y-78889647D01*
X173204667Y-78795154D02*
X173237395Y-78889647D01*
X175612605Y-78889647D02*
X175572123Y-78981087D01*
X173237395Y-78889647D02*
X173277877Y-78981087D01*
X175572123Y-78981087D02*
X175524168Y-79068839D01*
X173277877Y-78981087D02*
X173325832Y-79068839D01*
X175524168Y-79068839D02*
X175469073Y-79152294D01*
X173325832Y-79068839D02*
X173380927Y-79152294D01*
X175469073Y-79152294D02*
X175407221Y-79230872D01*
X173380927Y-79152294D02*
X173442779Y-79230872D01*
X175407221Y-79230872D02*
X175339041Y-79304027D01*
X173442779Y-79230872D02*
X173510959Y-79304027D01*
X175339041Y-79304027D02*
X175265007Y-79371251D01*
X173510959Y-79304027D02*
X173584993Y-79371251D01*
X175265007Y-79371251D02*
X175185633Y-79432077D01*
X173584993Y-79371251D02*
X173664367Y-79432077D01*
X175185633Y-79432077D02*
X175101470Y-79486083D01*
X173664367Y-79432077D02*
X173748530Y-79486083D01*
X175101470Y-79486083D02*
X175013103Y-79532894D01*
X173748530Y-79486083D02*
X173836897Y-79532894D01*
X175013103Y-79532894D02*
X174921145Y-79572185D01*
X173836897Y-79532894D02*
X173928855Y-79572185D01*
X174921145Y-79572185D02*
X174826235Y-79603683D01*
X173928855Y-79572185D02*
X174023765Y-79603683D01*
X174826235Y-79603683D02*
X174729032Y-79627169D01*
X174023765Y-79603683D02*
X174120968Y-79627169D01*
X174729032Y-79627169D02*
X174630211Y-79642480D01*
X174120968Y-79627169D02*
X174219789Y-79642480D01*
X174630211Y-79642480D02*
X174530458Y-79649510D01*
X174219789Y-79642480D02*
X174319542Y-79649510D01*
X174319542Y-79649510D02*
X174530458Y-79649510D01*
X147755000Y-78499997D02*
X147755000Y-76405000D01*
X150295000Y-78499997D02*
X150295000Y-76405000D01*
X150295000Y-83499960D02*
X150286674Y-83400307D01*
X147755000Y-83499960D02*
X147763326Y-83400307D01*
X150286674Y-83400307D02*
X150270080Y-83301693D01*
X147763326Y-83400307D02*
X147779920Y-83301693D01*
X150270080Y-83301693D02*
X150245333Y-83204803D01*
X147779920Y-83301693D02*
X147804667Y-83204803D01*
X150245333Y-83204803D02*
X150212605Y-83110310D01*
X147804667Y-83204803D02*
X147837395Y-83110310D01*
X150212605Y-83110310D02*
X150172123Y-83018870D01*
X147837395Y-83110310D02*
X147877877Y-83018870D01*
X150172123Y-83018870D02*
X150124168Y-82931118D01*
X147877877Y-83018870D02*
X147925832Y-82931118D01*
X150124168Y-82931118D02*
X150069073Y-82847663D01*
X147925832Y-82931118D02*
X147980927Y-82847663D01*
X150069073Y-82847663D02*
X150007221Y-82769085D01*
X147980927Y-82847663D02*
X148042779Y-82769085D01*
X150007221Y-82769085D02*
X149939041Y-82695930D01*
X148042779Y-82769085D02*
X148110959Y-82695930D01*
X149939041Y-82695930D02*
X149865007Y-82628706D01*
X148110959Y-82695930D02*
X148184993Y-82628706D01*
X149865007Y-82628706D02*
X149785633Y-82567880D01*
X148184993Y-82628706D02*
X148264367Y-82567880D01*
X149785633Y-82567880D02*
X149701470Y-82513874D01*
X148264367Y-82567880D02*
X148348530Y-82513874D01*
X149701470Y-82513874D02*
X149613103Y-82467063D01*
X148348530Y-82513874D02*
X148436897Y-82467063D01*
X149613103Y-82467063D02*
X149521145Y-82427772D01*
X148436897Y-82467063D02*
X148528855Y-82427772D01*
X149521145Y-82427772D02*
X149426235Y-82396274D01*
X148528855Y-82427772D02*
X148623765Y-82396274D01*
X149426235Y-82396274D02*
X149329032Y-82372788D01*
X148623765Y-82396274D02*
X148720968Y-82372788D01*
X149329032Y-82372788D02*
X149230211Y-82357477D01*
X148720968Y-82372788D02*
X148819789Y-82357477D01*
X149230211Y-82357477D02*
X149130458Y-82350447D01*
X148819789Y-82357477D02*
X148919542Y-82350447D01*
X148919542Y-82350447D02*
X149130458Y-82350447D01*
X150295000Y-78499997D02*
X150286674Y-78599650D01*
X147755000Y-78499997D02*
X147763326Y-78599650D01*
X150286674Y-78599650D02*
X150270080Y-78698264D01*
X147763326Y-78599650D02*
X147779920Y-78698264D01*
X150270080Y-78698264D02*
X150245333Y-78795154D01*
X147779920Y-78698264D02*
X147804667Y-78795154D01*
X150245333Y-78795154D02*
X150212605Y-78889647D01*
X147804667Y-78795154D02*
X147837395Y-78889647D01*
X150212605Y-78889647D02*
X150172123Y-78981087D01*
X147837395Y-78889647D02*
X147877877Y-78981087D01*
X150172123Y-78981087D02*
X150124168Y-79068839D01*
X147877877Y-78981087D02*
X147925832Y-79068839D01*
X150124168Y-79068839D02*
X150069073Y-79152294D01*
X147925832Y-79068839D02*
X147980927Y-79152294D01*
X150069073Y-79152294D02*
X150007221Y-79230872D01*
X147980927Y-79152294D02*
X148042779Y-79230872D01*
X150007221Y-79230872D02*
X149939041Y-79304027D01*
X148042779Y-79230872D02*
X148110959Y-79304027D01*
X149939041Y-79304027D02*
X149865007Y-79371251D01*
X148110959Y-79304027D02*
X148184993Y-79371251D01*
X149865007Y-79371251D02*
X149785633Y-79432077D01*
X148184993Y-79371251D02*
X148264367Y-79432077D01*
X149785633Y-79432077D02*
X149701470Y-79486083D01*
X148264367Y-79432077D02*
X148348530Y-79486083D01*
X149701470Y-79486083D02*
X149613103Y-79532894D01*
X148348530Y-79486083D02*
X148436897Y-79532894D01*
X149613103Y-79532894D02*
X149521145Y-79572185D01*
X148436897Y-79532894D02*
X148528855Y-79572185D01*
X149521145Y-79572185D02*
X149426235Y-79603683D01*
X148528855Y-79572185D02*
X148623765Y-79603683D01*
X149426235Y-79603683D02*
X149329032Y-79627169D01*
X148623765Y-79603683D02*
X148720968Y-79627169D01*
X149329032Y-79627169D02*
X149230211Y-79642480D01*
X148720968Y-79627169D02*
X148819789Y-79642480D01*
X149230211Y-79642480D02*
X149130458Y-79649510D01*
X148819789Y-79642480D02*
X148919542Y-79649510D01*
X148919542Y-79649510D02*
X149130458Y-79649510D01*
X173155000Y-114000000D02*
X173155000Y-83499960D01*
X173155000Y-118999998D02*
X173155000Y-121312200D01*
X175695000Y-114000000D02*
X175695000Y-83499960D01*
X175695000Y-118999998D02*
X175695000Y-121312200D01*
X175695000Y-118999998D02*
X175686674Y-118900345D01*
X173155000Y-118999998D02*
X173163326Y-118900345D01*
X175686674Y-118900345D02*
X175670080Y-118801731D01*
X173163326Y-118900345D02*
X173179920Y-118801731D01*
X175670080Y-118801731D02*
X175645333Y-118704841D01*
X173179920Y-118801731D02*
X173204667Y-118704841D01*
X175645333Y-118704841D02*
X175612605Y-118610348D01*
X173204667Y-118704841D02*
X173237395Y-118610348D01*
X175612605Y-118610348D02*
X175572123Y-118518908D01*
X173237395Y-118610348D02*
X173277877Y-118518908D01*
X175572123Y-118518908D02*
X175524168Y-118431156D01*
X173277877Y-118518908D02*
X173325832Y-118431156D01*
X175524168Y-118431156D02*
X175469073Y-118347701D01*
X173325832Y-118431156D02*
X173380927Y-118347701D01*
X175469073Y-118347701D02*
X175407221Y-118269123D01*
X173380927Y-118347701D02*
X173442779Y-118269123D01*
X175407221Y-118269123D02*
X175339041Y-118195968D01*
X173442779Y-118269123D02*
X173510959Y-118195968D01*
X175339041Y-118195968D02*
X175265007Y-118128744D01*
X173510959Y-118195968D02*
X173584993Y-118128744D01*
X175265007Y-118128744D02*
X175185633Y-118067918D01*
X173584993Y-118128744D02*
X173664367Y-118067918D01*
X175185633Y-118067918D02*
X175101470Y-118013912D01*
X173664367Y-118067918D02*
X173748530Y-118013912D01*
X175101470Y-118013912D02*
X175013103Y-117967101D01*
X173748530Y-118013912D02*
X173836897Y-117967101D01*
X175013103Y-117967101D02*
X174921145Y-117927810D01*
X173836897Y-117967101D02*
X173928855Y-117927810D01*
X174921145Y-117927810D02*
X174826235Y-117896312D01*
X173928855Y-117927810D02*
X174023765Y-117896312D01*
X174826235Y-117896312D02*
X174729032Y-117872826D01*
X174023765Y-117896312D02*
X174120968Y-117872826D01*
X174729032Y-117872826D02*
X174630211Y-117857515D01*
X174120968Y-117872826D02*
X174219789Y-117857515D01*
X174630211Y-117857515D02*
X174530458Y-117850485D01*
X174219789Y-117857515D02*
X174319542Y-117850485D01*
X174319542Y-117850485D02*
X174530458Y-117850485D01*
X175695000Y-114000000D02*
X175686674Y-114099653D01*
X173155000Y-114000000D02*
X173163326Y-114099653D01*
X175686674Y-114099653D02*
X175670080Y-114198267D01*
X173163326Y-114099653D02*
X173179920Y-114198267D01*
X175670080Y-114198267D02*
X175645333Y-114295157D01*
X173179920Y-114198267D02*
X173204667Y-114295157D01*
X175645333Y-114295157D02*
X175612605Y-114389650D01*
X173204667Y-114295157D02*
X173237395Y-114389650D01*
X175612605Y-114389650D02*
X175572123Y-114481090D01*
X173237395Y-114389650D02*
X173277877Y-114481090D01*
X175572123Y-114481090D02*
X175524168Y-114568842D01*
X173277877Y-114481090D02*
X173325832Y-114568842D01*
X175524168Y-114568842D02*
X175469073Y-114652297D01*
X173325832Y-114568842D02*
X173380927Y-114652297D01*
X175469073Y-114652297D02*
X175407221Y-114730875D01*
X173380927Y-114652297D02*
X173442779Y-114730875D01*
X175407221Y-114730875D02*
X175339041Y-114804030D01*
X173442779Y-114730875D02*
X173510959Y-114804030D01*
X175339041Y-114804030D02*
X175265007Y-114871254D01*
X173510959Y-114804030D02*
X173584993Y-114871254D01*
X175265007Y-114871254D02*
X175185633Y-114932080D01*
X173584993Y-114871254D02*
X173664367Y-114932080D01*
X175185633Y-114932080D02*
X175101470Y-114986086D01*
X173664367Y-114932080D02*
X173748530Y-114986086D01*
X175101470Y-114986086D02*
X175013103Y-115032897D01*
X173748530Y-114986086D02*
X173836897Y-115032897D01*
X175013103Y-115032897D02*
X174921145Y-115072188D01*
X173836897Y-115032897D02*
X173928855Y-115072188D01*
X174921145Y-115072188D02*
X174826235Y-115103686D01*
X173928855Y-115072188D02*
X174023765Y-115103686D01*
X174826235Y-115103686D02*
X174729032Y-115127172D01*
X174023765Y-115103686D02*
X174120968Y-115127172D01*
X174729032Y-115127172D02*
X174630211Y-115142483D01*
X174120968Y-115127172D02*
X174219789Y-115142483D01*
X174630211Y-115142483D02*
X174530458Y-115149513D01*
X174219789Y-115142483D02*
X174319542Y-115149513D01*
X174319542Y-115149513D02*
X174530458Y-115149513D01*
X147755000Y-114000000D02*
X147755000Y-83499960D01*
X147755000Y-118999998D02*
X147755000Y-121312200D01*
X150295000Y-114000000D02*
X150295000Y-83499960D01*
X150295000Y-118999998D02*
X150295000Y-121312200D01*
X150295000Y-118999998D02*
X150286674Y-118900345D01*
X147755000Y-118999998D02*
X147763326Y-118900345D01*
X150286674Y-118900345D02*
X150270080Y-118801731D01*
X147763326Y-118900345D02*
X147779920Y-118801731D01*
X150270080Y-118801731D02*
X150245333Y-118704841D01*
X147779920Y-118801731D02*
X147804667Y-118704841D01*
X150245333Y-118704841D02*
X150212605Y-118610348D01*
X147804667Y-118704841D02*
X147837395Y-118610348D01*
X150212605Y-118610348D02*
X150172123Y-118518908D01*
X147837395Y-118610348D02*
X147877877Y-118518908D01*
X150172123Y-118518908D02*
X150124168Y-118431156D01*
X147877877Y-118518908D02*
X147925832Y-118431156D01*
X150124168Y-118431156D02*
X150069073Y-118347701D01*
X147925832Y-118431156D02*
X147980927Y-118347701D01*
X150069073Y-118347701D02*
X150007221Y-118269123D01*
X147980927Y-118347701D02*
X148042779Y-118269123D01*
X150007221Y-118269123D02*
X149939041Y-118195968D01*
X148042779Y-118269123D02*
X148110959Y-118195968D01*
X149939041Y-118195968D02*
X149865007Y-118128744D01*
X148110959Y-118195968D02*
X148184993Y-118128744D01*
X149865007Y-118128744D02*
X149785633Y-118067918D01*
X148184993Y-118128744D02*
X148264367Y-118067918D01*
X149785633Y-118067918D02*
X149701470Y-118013912D01*
X148264367Y-118067918D02*
X148348530Y-118013912D01*
X149701470Y-118013912D02*
X149613103Y-117967101D01*
X148348530Y-118013912D02*
X148436897Y-117967101D01*
X149613103Y-117967101D02*
X149521145Y-117927810D01*
X148436897Y-117967101D02*
X148528855Y-117927810D01*
X149521145Y-117927810D02*
X149426235Y-117896312D01*
X148528855Y-117927810D02*
X148623765Y-117896312D01*
X149426235Y-117896312D02*
X149329032Y-117872826D01*
X148623765Y-117896312D02*
X148720968Y-117872826D01*
X149329032Y-117872826D02*
X149230211Y-117857515D01*
X148720968Y-117872826D02*
X148819789Y-117857515D01*
X149230211Y-117857515D02*
X149130458Y-117850485D01*
X148819789Y-117857515D02*
X148919542Y-117850485D01*
X148919542Y-117850485D02*
X149130458Y-117850485D01*
X150295000Y-114000000D02*
X150286674Y-114099653D01*
X147755000Y-114000000D02*
X147763326Y-114099653D01*
X150286674Y-114099653D02*
X150270080Y-114198267D01*
X147763326Y-114099653D02*
X147779920Y-114198267D01*
X150270080Y-114198267D02*
X150245333Y-114295157D01*
X147779920Y-114198267D02*
X147804667Y-114295157D01*
X150245333Y-114295157D02*
X150212605Y-114389650D01*
X147804667Y-114295157D02*
X147837395Y-114389650D01*
X150212605Y-114389650D02*
X150172123Y-114481090D01*
X147837395Y-114389650D02*
X147877877Y-114481090D01*
X150172123Y-114481090D02*
X150124168Y-114568842D01*
X147877877Y-114481090D02*
X147925832Y-114568842D01*
X150124168Y-114568842D02*
X150069073Y-114652297D01*
X147925832Y-114568842D02*
X147980927Y-114652297D01*
X150069073Y-114652297D02*
X150007221Y-114730875D01*
X147980927Y-114652297D02*
X148042779Y-114730875D01*
X150007221Y-114730875D02*
X149939041Y-114804030D01*
X148042779Y-114730875D02*
X148110959Y-114804030D01*
X149939041Y-114804030D02*
X149865007Y-114871254D01*
X148110959Y-114804030D02*
X148184993Y-114871254D01*
X149865007Y-114871254D02*
X149785633Y-114932080D01*
X148184993Y-114871254D02*
X148264367Y-114932080D01*
X149785633Y-114932080D02*
X149701470Y-114986086D01*
X148264367Y-114932080D02*
X148348530Y-114986086D01*
X149701470Y-114986086D02*
X149613103Y-115032897D01*
X148348530Y-114986086D02*
X148436897Y-115032897D01*
X149613103Y-115032897D02*
X149521145Y-115072188D01*
X148436897Y-115032897D02*
X148528855Y-115072188D01*
X149521145Y-115072188D02*
X149426235Y-115103686D01*
X148528855Y-115072188D02*
X148623765Y-115103686D01*
X149426235Y-115103686D02*
X149329032Y-115127172D01*
X148623765Y-115103686D02*
X148720968Y-115127172D01*
X149329032Y-115127172D02*
X149230211Y-115142483D01*
X148720968Y-115127172D02*
X148819789Y-115142483D01*
X149230211Y-115142483D02*
X149130458Y-115149513D01*
X148819789Y-115142483D02*
X148919542Y-115149513D01*
X148919542Y-115149513D02*
X149130458Y-115149513D01*
X122355000Y-118999998D02*
X122355000Y-121312200D01*
X124895000Y-118999998D02*
X124895000Y-121312200D01*
X124895000Y-118999998D02*
X124886674Y-118900345D01*
X122355000Y-118999998D02*
X122363326Y-118900345D01*
X124886674Y-118900345D02*
X124870080Y-118801731D01*
X122363326Y-118900345D02*
X122379920Y-118801731D01*
X124870080Y-118801731D02*
X124845333Y-118704841D01*
X122379920Y-118801731D02*
X122404667Y-118704841D01*
X124845333Y-118704841D02*
X124812605Y-118610348D01*
X122404667Y-118704841D02*
X122437395Y-118610348D01*
X124812605Y-118610348D02*
X124772123Y-118518908D01*
X122437395Y-118610348D02*
X122477877Y-118518908D01*
X124772123Y-118518908D02*
X124724168Y-118431156D01*
X122477877Y-118518908D02*
X122525832Y-118431156D01*
X124724168Y-118431156D02*
X124669073Y-118347701D01*
X122525832Y-118431156D02*
X122580927Y-118347701D01*
X124669073Y-118347701D02*
X124607221Y-118269123D01*
X122580927Y-118347701D02*
X122642779Y-118269123D01*
X124607221Y-118269123D02*
X124539041Y-118195968D01*
X122642779Y-118269123D02*
X122710959Y-118195968D01*
X124539041Y-118195968D02*
X124465007Y-118128744D01*
X122710959Y-118195968D02*
X122784993Y-118128744D01*
X124465007Y-118128744D02*
X124385633Y-118067918D01*
X122784993Y-118128744D02*
X122864367Y-118067918D01*
X124385633Y-118067918D02*
X124301470Y-118013912D01*
X122864367Y-118067918D02*
X122948530Y-118013912D01*
X124301470Y-118013912D02*
X124213103Y-117967101D01*
X122948530Y-118013912D02*
X123036897Y-117967101D01*
X124213103Y-117967101D02*
X124121145Y-117927810D01*
X123036897Y-117967101D02*
X123128855Y-117927810D01*
X124121145Y-117927810D02*
X124026235Y-117896312D01*
X123128855Y-117927810D02*
X123223765Y-117896312D01*
X124026235Y-117896312D02*
X123929032Y-117872826D01*
X123223765Y-117896312D02*
X123320968Y-117872826D01*
X123929032Y-117872826D02*
X123830211Y-117857515D01*
X123320968Y-117872826D02*
X123419789Y-117857515D01*
X123830211Y-117857515D02*
X123730458Y-117850485D01*
X123419789Y-117857515D02*
X123519542Y-117850485D01*
X123519542Y-117850485D02*
X123730458Y-117850485D01*
X124895000Y-113999977D02*
X124886674Y-114099630D01*
X122355000Y-113999977D02*
X122363326Y-114099630D01*
X124886674Y-114099630D02*
X124870080Y-114198244D01*
X122363326Y-114099630D02*
X122379920Y-114198244D01*
X124870080Y-114198244D02*
X124845333Y-114295134D01*
X122379920Y-114198244D02*
X122404667Y-114295134D01*
X124845333Y-114295134D02*
X124812605Y-114389627D01*
X122404667Y-114295134D02*
X122437395Y-114389627D01*
X124812605Y-114389627D02*
X124772123Y-114481067D01*
X122437395Y-114389627D02*
X122477877Y-114481067D01*
X124772123Y-114481067D02*
X124724168Y-114568819D01*
X122477877Y-114481067D02*
X122525832Y-114568819D01*
X124724168Y-114568819D02*
X124669073Y-114652274D01*
X122525832Y-114568819D02*
X122580927Y-114652274D01*
X124669073Y-114652274D02*
X124607221Y-114730852D01*
X122580927Y-114652274D02*
X122642779Y-114730852D01*
X124607221Y-114730852D02*
X124539041Y-114804007D01*
X122642779Y-114730852D02*
X122710959Y-114804007D01*
X124539041Y-114804007D02*
X124465007Y-114871231D01*
X122710959Y-114804007D02*
X122784993Y-114871231D01*
X124465007Y-114871231D02*
X124385633Y-114932057D01*
X122784993Y-114871231D02*
X122864367Y-114932057D01*
X124385633Y-114932057D02*
X124301470Y-114986063D01*
X122864367Y-114932057D02*
X122948530Y-114986063D01*
X124301470Y-114986063D02*
X124213103Y-115032874D01*
X122948530Y-114986063D02*
X123036897Y-115032874D01*
X124213103Y-115032874D02*
X124121145Y-115072165D01*
X123036897Y-115032874D02*
X123128855Y-115072165D01*
X124121145Y-115072165D02*
X124026235Y-115103663D01*
X123128855Y-115072165D02*
X123223765Y-115103663D01*
X124026235Y-115103663D02*
X123929032Y-115127149D01*
X123223765Y-115103663D02*
X123320968Y-115127149D01*
X123929032Y-115127149D02*
X123830211Y-115142460D01*
X123320968Y-115127149D02*
X123419789Y-115142460D01*
X123830211Y-115142460D02*
X123730458Y-115149490D01*
X123419789Y-115142460D02*
X123519542Y-115149490D01*
X123519542Y-115149490D02*
X123730458Y-115149490D01*
X122355000Y-83499995D02*
X122355000Y-113999977D01*
X122355000Y-78499997D02*
X122355000Y-76405000D01*
X124895000Y-83499995D02*
X124895000Y-113999977D01*
X124895000Y-78499997D02*
X124895000Y-76405000D01*
X124895000Y-83499995D02*
X124886674Y-83400342D01*
X122355000Y-83499995D02*
X122363326Y-83400342D01*
X124886674Y-83400342D02*
X124870080Y-83301728D01*
X122363326Y-83400342D02*
X122379920Y-83301728D01*
X124870080Y-83301728D02*
X124845333Y-83204838D01*
X122379920Y-83301728D02*
X122404667Y-83204838D01*
X124845333Y-83204838D02*
X124812605Y-83110345D01*
X122404667Y-83204838D02*
X122437395Y-83110345D01*
X124812605Y-83110345D02*
X124772123Y-83018905D01*
X122437395Y-83110345D02*
X122477877Y-83018905D01*
X124772123Y-83018905D02*
X124724168Y-82931153D01*
X122477877Y-83018905D02*
X122525832Y-82931153D01*
X124724168Y-82931153D02*
X124669073Y-82847698D01*
X122525832Y-82931153D02*
X122580927Y-82847698D01*
X124669073Y-82847698D02*
X124607221Y-82769120D01*
X122580927Y-82847698D02*
X122642779Y-82769120D01*
X124607221Y-82769120D02*
X124539041Y-82695965D01*
X122642779Y-82769120D02*
X122710959Y-82695965D01*
X124539041Y-82695965D02*
X124465007Y-82628741D01*
X122710959Y-82695965D02*
X122784993Y-82628741D01*
X124465007Y-82628741D02*
X124385633Y-82567915D01*
X122784993Y-82628741D02*
X122864367Y-82567915D01*
X124385633Y-82567915D02*
X124301470Y-82513909D01*
X122864367Y-82567915D02*
X122948530Y-82513909D01*
X124301470Y-82513909D02*
X124213103Y-82467098D01*
X122948530Y-82513909D02*
X123036897Y-82467098D01*
X124213103Y-82467098D02*
X124121145Y-82427807D01*
X123036897Y-82467098D02*
X123128855Y-82427807D01*
X124121145Y-82427807D02*
X124026235Y-82396309D01*
X123128855Y-82427807D02*
X123223765Y-82396309D01*
X124026235Y-82396309D02*
X123929032Y-82372823D01*
X123223765Y-82396309D02*
X123320968Y-82372823D01*
X123929032Y-82372823D02*
X123830211Y-82357512D01*
X123320968Y-82372823D02*
X123419789Y-82357512D01*
X123830211Y-82357512D02*
X123730458Y-82350482D01*
X123419789Y-82357512D02*
X123519542Y-82350482D01*
X123519542Y-82350482D02*
X123730458Y-82350482D01*
X124895000Y-78499997D02*
X124886674Y-78599650D01*
X122355000Y-78499997D02*
X122363326Y-78599650D01*
X124886674Y-78599650D02*
X124870080Y-78698264D01*
X122363326Y-78599650D02*
X122379920Y-78698264D01*
X124870080Y-78698264D02*
X124845333Y-78795154D01*
X122379920Y-78698264D02*
X122404667Y-78795154D01*
X124845333Y-78795154D02*
X124812605Y-78889647D01*
X122404667Y-78795154D02*
X122437395Y-78889647D01*
X124812605Y-78889647D02*
X124772123Y-78981087D01*
X122437395Y-78889647D02*
X122477877Y-78981087D01*
X124772123Y-78981087D02*
X124724168Y-79068839D01*
X122477877Y-78981087D02*
X122525832Y-79068839D01*
X124724168Y-79068839D02*
X124669073Y-79152294D01*
X122525832Y-79068839D02*
X122580927Y-79152294D01*
X124669073Y-79152294D02*
X124607221Y-79230872D01*
X122580927Y-79152294D02*
X122642779Y-79230872D01*
X124607221Y-79230872D02*
X124539041Y-79304027D01*
X122642779Y-79230872D02*
X122710959Y-79304027D01*
X124539041Y-79304027D02*
X124465007Y-79371251D01*
X122710959Y-79304027D02*
X122784993Y-79371251D01*
X124465007Y-79371251D02*
X124385633Y-79432077D01*
X122784993Y-79371251D02*
X122864367Y-79432077D01*
X124385633Y-79432077D02*
X124301470Y-79486083D01*
X122864367Y-79432077D02*
X122948530Y-79486083D01*
X124301470Y-79486083D02*
X124213103Y-79532894D01*
X122948530Y-79486083D02*
X123036897Y-79532894D01*
X124213103Y-79532894D02*
X124121145Y-79572185D01*
X123036897Y-79532894D02*
X123128855Y-79572185D01*
X124121145Y-79572185D02*
X124026235Y-79603683D01*
X123128855Y-79572185D02*
X123223765Y-79603683D01*
X124026235Y-79603683D02*
X123929032Y-79627169D01*
X123223765Y-79603683D02*
X123320968Y-79627169D01*
X123929032Y-79627169D02*
X123830211Y-79642480D01*
X123320968Y-79627169D02*
X123419789Y-79642480D01*
X123830211Y-79642480D02*
X123730458Y-79649510D01*
X123419789Y-79642480D02*
X123519542Y-79649510D01*
X123519542Y-79649510D02*
X123730458Y-79649510D01*
D11*
X178186238Y-123851732D02*
X196015000Y-123852200D01*
X196015000Y-73865000D02*
X178235000Y-73865000D01*
X196015000Y-123852200D02*
G75*
G03X198555000Y-121312200I0J2540000D01*
G01*
X178186238Y-123851732D02*
G75*
G02X175695000Y-121312200I48762J2539532D01*
G01*
X178235000Y-73865000D02*
G75*
G03X175695000Y-76405000I0J-2540000D01*
G01*
X198555000Y-76405000D02*
G75*
G03X196015000Y-73865000I-2540000J0D01*
G01*
X152786238Y-123851732D02*
X170615000Y-123852200D01*
X170615000Y-73865000D02*
X152835000Y-73865000D01*
X170615000Y-123852200D02*
G75*
G03X173155000Y-121312200I0J2540000D01*
G01*
X152786238Y-123851732D02*
G75*
G02X150295000Y-121312200I48762J2539532D01*
G01*
X152835000Y-73865000D02*
G75*
G03X150295000Y-76405000I0J-2540000D01*
G01*
X173155000Y-76405000D02*
G75*
G03X170615000Y-73865000I-2540000J0D01*
G01*
X127386238Y-123851732D02*
X145215000Y-123852200D01*
X145215000Y-73865000D02*
X127435000Y-73865000D01*
X145215000Y-123852200D02*
G75*
G03X147755000Y-121312200I0J2540000D01*
G01*
X127386238Y-123851732D02*
G75*
G02X124895000Y-121312200I48762J2539532D01*
G01*
X127435000Y-73865000D02*
G75*
G03X124895000Y-76405000I0J-2540000D01*
G01*
X147755000Y-76405000D02*
G75*
G03X145215000Y-73865000I-2540000J0D01*
G01*
X122355000Y-76405000D02*
G75*
G03X119815000Y-73865000I-2540000J0D01*
G01*
X102035000Y-73865000D02*
G75*
G03X99495000Y-76405000I0J-2540000D01*
G01*
X101986238Y-123851732D02*
G75*
G02X99495000Y-121312200I48762J2539532D01*
G01*
X119815000Y-123852200D02*
G75*
G03X122355000Y-121312200I0J2540000D01*
G01*
X119815000Y-73865000D02*
X102035000Y-73865000D01*
X101986238Y-123851732D02*
X119815000Y-123852200D01*
M02*
