G04 #@! TF.GenerationSoftware,KiCad,Pcbnew,(5.1.2)-1*
G04 #@! TF.CreationDate,2019-07-17T12:19:40+10:00*
G04 #@! TF.ProjectId,output.panel,6f757470-7574-42e7-9061-6e656c2e6b69,rev?*
G04 #@! TF.SameCoordinates,Original*
G04 #@! TF.FileFunction,Legend,Bot*
G04 #@! TF.FilePolarity,Positive*
%FSLAX46Y46*%
G04 Gerber Fmt 4.6, Leading zero omitted, Abs format (unit mm)*
G04 Created by KiCad (PCBNEW (5.1.2)-1) date 2019-07-17 12:19:40*
%MOMM*%
%LPD*%
G04 APERTURE LIST*
%ADD10C,0.200000*%
%ADD11C,0.150000*%
G04 APERTURE END LIST*
D10*
X129833333Y-152952380D02*
X129833333Y-153666666D01*
X129880952Y-153809523D01*
X129976190Y-153904761D01*
X130119047Y-153952380D01*
X130214285Y-153952380D01*
X128880952Y-153952380D02*
X129357142Y-153952380D01*
X129357142Y-152952380D01*
X127976190Y-153857142D02*
X128023809Y-153904761D01*
X128166666Y-153952380D01*
X128261904Y-153952380D01*
X128404761Y-153904761D01*
X128500000Y-153809523D01*
X128547619Y-153714285D01*
X128595238Y-153523809D01*
X128595238Y-153380952D01*
X128547619Y-153190476D01*
X128500000Y-153095238D01*
X128404761Y-153000000D01*
X128261904Y-152952380D01*
X128166666Y-152952380D01*
X128023809Y-153000000D01*
X127976190Y-153047619D01*
X127261904Y-152952380D02*
X127261904Y-153666666D01*
X127309523Y-153809523D01*
X127404761Y-153904761D01*
X127547619Y-153952380D01*
X127642857Y-153952380D01*
X126309523Y-153952380D02*
X126785714Y-153952380D01*
X126785714Y-152952380D01*
X125404761Y-153857142D02*
X125452380Y-153904761D01*
X125595238Y-153952380D01*
X125690476Y-153952380D01*
X125833333Y-153904761D01*
X125928571Y-153809523D01*
X125976190Y-153714285D01*
X126023809Y-153523809D01*
X126023809Y-153380952D01*
X125976190Y-153190476D01*
X125928571Y-153095238D01*
X125833333Y-153000000D01*
X125690476Y-152952380D01*
X125595238Y-152952380D01*
X125452380Y-153000000D01*
X125404761Y-153047619D01*
X124690476Y-152952380D02*
X124690476Y-153666666D01*
X124738095Y-153809523D01*
X124833333Y-153904761D01*
X124976190Y-153952380D01*
X125071428Y-153952380D01*
X123738095Y-153952380D02*
X124214285Y-153952380D01*
X124214285Y-152952380D01*
X122833333Y-153857142D02*
X122880952Y-153904761D01*
X123023809Y-153952380D01*
X123119047Y-153952380D01*
X123261904Y-153904761D01*
X123357142Y-153809523D01*
X123404761Y-153714285D01*
X123452380Y-153523809D01*
X123452380Y-153380952D01*
X123404761Y-153190476D01*
X123357142Y-153095238D01*
X123261904Y-153000000D01*
X123119047Y-152952380D01*
X123023809Y-152952380D01*
X122880952Y-153000000D01*
X122833333Y-153047619D01*
D11*
X130495238Y-140252380D02*
X130495238Y-140966666D01*
X130542857Y-141109523D01*
X130638095Y-141204761D01*
X130780952Y-141252380D01*
X130876190Y-141252380D01*
X129876190Y-141252380D02*
X129971428Y-141204761D01*
X130019047Y-141157142D01*
X130066666Y-141061904D01*
X130066666Y-140776190D01*
X130019047Y-140680952D01*
X129971428Y-140633333D01*
X129876190Y-140585714D01*
X129733333Y-140585714D01*
X129638095Y-140633333D01*
X129590476Y-140680952D01*
X129542857Y-140776190D01*
X129542857Y-141061904D01*
X129590476Y-141157142D01*
X129638095Y-141204761D01*
X129733333Y-141252380D01*
X129876190Y-141252380D01*
X129161904Y-141204761D02*
X129066666Y-141252380D01*
X128876190Y-141252380D01*
X128780952Y-141204761D01*
X128733333Y-141109523D01*
X128733333Y-141061904D01*
X128780952Y-140966666D01*
X128876190Y-140919047D01*
X129019047Y-140919047D01*
X129114285Y-140871428D01*
X129161904Y-140776190D01*
X129161904Y-140728571D01*
X129114285Y-140633333D01*
X129019047Y-140585714D01*
X128876190Y-140585714D01*
X128780952Y-140633333D01*
X128304761Y-141252380D02*
X128304761Y-140252380D01*
X127876190Y-141252380D02*
X127876190Y-140728571D01*
X127923809Y-140633333D01*
X128019047Y-140585714D01*
X128161904Y-140585714D01*
X128257142Y-140633333D01*
X128304761Y-140680952D01*
X126352380Y-140252380D02*
X126352380Y-140966666D01*
X126400000Y-141109523D01*
X126495238Y-141204761D01*
X126638095Y-141252380D01*
X126733333Y-141252380D01*
X125733333Y-141252380D02*
X125828571Y-141204761D01*
X125876190Y-141157142D01*
X125923809Y-141061904D01*
X125923809Y-140776190D01*
X125876190Y-140680952D01*
X125828571Y-140633333D01*
X125733333Y-140585714D01*
X125590476Y-140585714D01*
X125495238Y-140633333D01*
X125447619Y-140680952D01*
X125400000Y-140776190D01*
X125400000Y-141061904D01*
X125447619Y-141157142D01*
X125495238Y-141204761D01*
X125590476Y-141252380D01*
X125733333Y-141252380D01*
X124971428Y-141252380D02*
X124971428Y-140252380D01*
X124542857Y-141252380D02*
X124542857Y-140728571D01*
X124590476Y-140633333D01*
X124685714Y-140585714D01*
X124828571Y-140585714D01*
X124923809Y-140633333D01*
X124971428Y-140680952D01*
X124066666Y-140585714D02*
X124066666Y-141252380D01*
X124066666Y-140680952D02*
X124019047Y-140633333D01*
X123923809Y-140585714D01*
X123780952Y-140585714D01*
X123685714Y-140633333D01*
X123638095Y-140728571D01*
X123638095Y-141252380D01*
X123209523Y-141204761D02*
X123114285Y-141252380D01*
X122923809Y-141252380D01*
X122828571Y-141204761D01*
X122780952Y-141109523D01*
X122780952Y-141061904D01*
X122828571Y-140966666D01*
X122923809Y-140919047D01*
X123066666Y-140919047D01*
X123161904Y-140871428D01*
X123209523Y-140776190D01*
X123209523Y-140728571D01*
X123161904Y-140633333D01*
X123066666Y-140585714D01*
X122923809Y-140585714D01*
X122828571Y-140633333D01*
X122209523Y-141252380D02*
X122304761Y-141204761D01*
X122352380Y-141157142D01*
X122400000Y-141061904D01*
X122400000Y-140776190D01*
X122352380Y-140680952D01*
X122304761Y-140633333D01*
X122209523Y-140585714D01*
X122066666Y-140585714D01*
X121971428Y-140633333D01*
X121923809Y-140680952D01*
X121876190Y-140776190D01*
X121876190Y-141061904D01*
X121923809Y-141157142D01*
X121971428Y-141204761D01*
X122066666Y-141252380D01*
X122209523Y-141252380D01*
X121447619Y-140585714D02*
X121447619Y-141252380D01*
X121447619Y-140680952D02*
X121400000Y-140633333D01*
X121304761Y-140585714D01*
X121161904Y-140585714D01*
X121066666Y-140633333D01*
X121019047Y-140728571D01*
X121019047Y-141252380D01*
X130552380Y-142085714D02*
X130552380Y-142942857D01*
X130600000Y-143038095D01*
X130695238Y-143085714D01*
X130742857Y-143085714D01*
X130552380Y-141752380D02*
X130600000Y-141800000D01*
X130552380Y-141847619D01*
X130504761Y-141800000D01*
X130552380Y-141752380D01*
X130552380Y-141847619D01*
X129933333Y-142752380D02*
X130028571Y-142704761D01*
X130076190Y-142657142D01*
X130123809Y-142561904D01*
X130123809Y-142276190D01*
X130076190Y-142180952D01*
X130028571Y-142133333D01*
X129933333Y-142085714D01*
X129790476Y-142085714D01*
X129695238Y-142133333D01*
X129647619Y-142180952D01*
X129600000Y-142276190D01*
X129600000Y-142561904D01*
X129647619Y-142657142D01*
X129695238Y-142704761D01*
X129790476Y-142752380D01*
X129933333Y-142752380D01*
X129219047Y-142704761D02*
X129123809Y-142752380D01*
X128933333Y-142752380D01*
X128838095Y-142704761D01*
X128790476Y-142609523D01*
X128790476Y-142561904D01*
X128838095Y-142466666D01*
X128933333Y-142419047D01*
X129076190Y-142419047D01*
X129171428Y-142371428D01*
X129219047Y-142276190D01*
X129219047Y-142228571D01*
X129171428Y-142133333D01*
X129076190Y-142085714D01*
X128933333Y-142085714D01*
X128838095Y-142133333D01*
X128361904Y-142752380D02*
X128361904Y-141752380D01*
X127933333Y-142752380D02*
X127933333Y-142228571D01*
X127980952Y-142133333D01*
X128076190Y-142085714D01*
X128219047Y-142085714D01*
X128314285Y-142133333D01*
X128361904Y-142180952D01*
X127028571Y-142752380D02*
X127028571Y-142228571D01*
X127076190Y-142133333D01*
X127171428Y-142085714D01*
X127361904Y-142085714D01*
X127457142Y-142133333D01*
X127028571Y-142704761D02*
X127123809Y-142752380D01*
X127361904Y-142752380D01*
X127457142Y-142704761D01*
X127504761Y-142609523D01*
X127504761Y-142514285D01*
X127457142Y-142419047D01*
X127361904Y-142371428D01*
X127123809Y-142371428D01*
X127028571Y-142323809D01*
X126552380Y-142085714D02*
X126552380Y-142942857D01*
X126600000Y-143038095D01*
X126695238Y-143085714D01*
X126742857Y-143085714D01*
X126552380Y-141752380D02*
X126600000Y-141800000D01*
X126552380Y-141847619D01*
X126504761Y-141800000D01*
X126552380Y-141752380D01*
X126552380Y-141847619D01*
X125933333Y-142752380D02*
X126028571Y-142704761D01*
X126076190Y-142657142D01*
X126123809Y-142561904D01*
X126123809Y-142276190D01*
X126076190Y-142180952D01*
X126028571Y-142133333D01*
X125933333Y-142085714D01*
X125790476Y-142085714D01*
X125695238Y-142133333D01*
X125647619Y-142180952D01*
X125600000Y-142276190D01*
X125600000Y-142561904D01*
X125647619Y-142657142D01*
X125695238Y-142704761D01*
X125790476Y-142752380D01*
X125933333Y-142752380D01*
X125171428Y-142752380D02*
X125171428Y-141752380D01*
X124742857Y-142752380D02*
X124742857Y-142228571D01*
X124790476Y-142133333D01*
X124885714Y-142085714D01*
X125028571Y-142085714D01*
X125123809Y-142133333D01*
X125171428Y-142180952D01*
X124266666Y-142085714D02*
X124266666Y-142752380D01*
X124266666Y-142180952D02*
X124219047Y-142133333D01*
X124123809Y-142085714D01*
X123980952Y-142085714D01*
X123885714Y-142133333D01*
X123838095Y-142228571D01*
X123838095Y-142752380D01*
X123409523Y-142704761D02*
X123314285Y-142752380D01*
X123123809Y-142752380D01*
X123028571Y-142704761D01*
X122980952Y-142609523D01*
X122980952Y-142561904D01*
X123028571Y-142466666D01*
X123123809Y-142419047D01*
X123266666Y-142419047D01*
X123361904Y-142371428D01*
X123409523Y-142276190D01*
X123409523Y-142228571D01*
X123361904Y-142133333D01*
X123266666Y-142085714D01*
X123123809Y-142085714D01*
X123028571Y-142133333D01*
X122409523Y-142752380D02*
X122504761Y-142704761D01*
X122552380Y-142657142D01*
X122600000Y-142561904D01*
X122600000Y-142276190D01*
X122552380Y-142180952D01*
X122504761Y-142133333D01*
X122409523Y-142085714D01*
X122266666Y-142085714D01*
X122171428Y-142133333D01*
X122123809Y-142180952D01*
X122076190Y-142276190D01*
X122076190Y-142561904D01*
X122123809Y-142657142D01*
X122171428Y-142704761D01*
X122266666Y-142752380D01*
X122409523Y-142752380D01*
X121647619Y-142085714D02*
X121647619Y-142752380D01*
X121647619Y-142180952D02*
X121600000Y-142133333D01*
X121504761Y-142085714D01*
X121361904Y-142085714D01*
X121266666Y-142133333D01*
X121219047Y-142228571D01*
X121219047Y-142752380D01*
X120742857Y-142657142D02*
X120695238Y-142704761D01*
X120742857Y-142752380D01*
X120790476Y-142704761D01*
X120742857Y-142657142D01*
X120742857Y-142752380D01*
X119838095Y-142704761D02*
X119933333Y-142752380D01*
X120123809Y-142752380D01*
X120219047Y-142704761D01*
X120266666Y-142657142D01*
X120314285Y-142561904D01*
X120314285Y-142276190D01*
X120266666Y-142180952D01*
X120219047Y-142133333D01*
X120123809Y-142085714D01*
X119933333Y-142085714D01*
X119838095Y-142133333D01*
X119266666Y-142752380D02*
X119361904Y-142704761D01*
X119409523Y-142657142D01*
X119457142Y-142561904D01*
X119457142Y-142276190D01*
X119409523Y-142180952D01*
X119361904Y-142133333D01*
X119266666Y-142085714D01*
X119123809Y-142085714D01*
X119028571Y-142133333D01*
X118980952Y-142180952D01*
X118933333Y-142276190D01*
X118933333Y-142561904D01*
X118980952Y-142657142D01*
X119028571Y-142704761D01*
X119123809Y-142752380D01*
X119266666Y-142752380D01*
X118504761Y-142752380D02*
X118504761Y-142085714D01*
X118504761Y-142180952D02*
X118457142Y-142133333D01*
X118361904Y-142085714D01*
X118219047Y-142085714D01*
X118123809Y-142133333D01*
X118076190Y-142228571D01*
X118076190Y-142752380D01*
X118076190Y-142228571D02*
X118028571Y-142133333D01*
X117933333Y-142085714D01*
X117790476Y-142085714D01*
X117695238Y-142133333D01*
X117647619Y-142228571D01*
X117647619Y-142752380D01*
X130307352Y-143617714D02*
X130307352Y-144427238D01*
X130354971Y-144522476D01*
X130402590Y-144570095D01*
X130497828Y-144617714D01*
X130640685Y-144617714D01*
X130735923Y-144570095D01*
X130307352Y-144236761D02*
X130402590Y-144284380D01*
X130593066Y-144284380D01*
X130688304Y-144236761D01*
X130735923Y-144189142D01*
X130783542Y-144093904D01*
X130783542Y-143808190D01*
X130735923Y-143712952D01*
X130688304Y-143665333D01*
X130593066Y-143617714D01*
X130402590Y-143617714D01*
X130307352Y-143665333D01*
X129831161Y-144284380D02*
X129831161Y-143617714D01*
X129831161Y-143284380D02*
X129878780Y-143332000D01*
X129831161Y-143379619D01*
X129783542Y-143332000D01*
X129831161Y-143284380D01*
X129831161Y-143379619D01*
X129497828Y-143617714D02*
X129116876Y-143617714D01*
X129354971Y-143284380D02*
X129354971Y-144141523D01*
X129307352Y-144236761D01*
X129212114Y-144284380D01*
X129116876Y-144284380D01*
X128783542Y-144284380D02*
X128783542Y-143284380D01*
X128354971Y-144284380D02*
X128354971Y-143760571D01*
X128402590Y-143665333D01*
X128497828Y-143617714D01*
X128640685Y-143617714D01*
X128735923Y-143665333D01*
X128783542Y-143712952D01*
X127450209Y-143617714D02*
X127450209Y-144284380D01*
X127878780Y-143617714D02*
X127878780Y-144141523D01*
X127831161Y-144236761D01*
X127735923Y-144284380D01*
X127593066Y-144284380D01*
X127497828Y-144236761D01*
X127450209Y-144189142D01*
X126974019Y-144284380D02*
X126974019Y-143284380D01*
X126974019Y-143665333D02*
X126878780Y-143617714D01*
X126688304Y-143617714D01*
X126593066Y-143665333D01*
X126545447Y-143712952D01*
X126497828Y-143808190D01*
X126497828Y-144093904D01*
X126545447Y-144189142D01*
X126593066Y-144236761D01*
X126688304Y-144284380D01*
X126878780Y-144284380D01*
X126974019Y-144236761D01*
X126069257Y-144189142D02*
X126021638Y-144236761D01*
X126069257Y-144284380D01*
X126116876Y-144236761D01*
X126069257Y-144189142D01*
X126069257Y-144284380D01*
X125164495Y-144236761D02*
X125259733Y-144284380D01*
X125450209Y-144284380D01*
X125545447Y-144236761D01*
X125593066Y-144189142D01*
X125640685Y-144093904D01*
X125640685Y-143808190D01*
X125593066Y-143712952D01*
X125545447Y-143665333D01*
X125450209Y-143617714D01*
X125259733Y-143617714D01*
X125164495Y-143665333D01*
X124593066Y-144284380D02*
X124688304Y-144236761D01*
X124735923Y-144189142D01*
X124783542Y-144093904D01*
X124783542Y-143808190D01*
X124735923Y-143712952D01*
X124688304Y-143665333D01*
X124593066Y-143617714D01*
X124450209Y-143617714D01*
X124354971Y-143665333D01*
X124307352Y-143712952D01*
X124259733Y-143808190D01*
X124259733Y-144093904D01*
X124307352Y-144189142D01*
X124354971Y-144236761D01*
X124450209Y-144284380D01*
X124593066Y-144284380D01*
X123831161Y-144284380D02*
X123831161Y-143617714D01*
X123831161Y-143712952D02*
X123783542Y-143665333D01*
X123688304Y-143617714D01*
X123545447Y-143617714D01*
X123450209Y-143665333D01*
X123402590Y-143760571D01*
X123402590Y-144284380D01*
X123402590Y-143760571D02*
X123354971Y-143665333D01*
X123259733Y-143617714D01*
X123116876Y-143617714D01*
X123021638Y-143665333D01*
X122974019Y-143760571D01*
X122974019Y-144284380D01*
X121783542Y-143236761D02*
X122640685Y-144522476D01*
X121450209Y-143617714D02*
X121450209Y-144474857D01*
X121497828Y-144570095D01*
X121593066Y-144617714D01*
X121640685Y-144617714D01*
X121450209Y-143284380D02*
X121497828Y-143332000D01*
X121450209Y-143379619D01*
X121402590Y-143332000D01*
X121450209Y-143284380D01*
X121450209Y-143379619D01*
X120831161Y-144284380D02*
X120926400Y-144236761D01*
X120974019Y-144189142D01*
X121021638Y-144093904D01*
X121021638Y-143808190D01*
X120974019Y-143712952D01*
X120926400Y-143665333D01*
X120831161Y-143617714D01*
X120688304Y-143617714D01*
X120593066Y-143665333D01*
X120545447Y-143712952D01*
X120497828Y-143808190D01*
X120497828Y-144093904D01*
X120545447Y-144189142D01*
X120593066Y-144236761D01*
X120688304Y-144284380D01*
X120831161Y-144284380D01*
X120116876Y-144236761D02*
X120021638Y-144284380D01*
X119831161Y-144284380D01*
X119735923Y-144236761D01*
X119688304Y-144141523D01*
X119688304Y-144093904D01*
X119735923Y-143998666D01*
X119831161Y-143951047D01*
X119974019Y-143951047D01*
X120069257Y-143903428D01*
X120116876Y-143808190D01*
X120116876Y-143760571D01*
X120069257Y-143665333D01*
X119974019Y-143617714D01*
X119831161Y-143617714D01*
X119735923Y-143665333D01*
X119259733Y-144284380D02*
X119259733Y-143284380D01*
X118831161Y-144284380D02*
X118831161Y-143760571D01*
X118878780Y-143665333D01*
X118974019Y-143617714D01*
X119116876Y-143617714D01*
X119212114Y-143665333D01*
X119259733Y-143712952D01*
X117926400Y-144284380D02*
X117926400Y-143760571D01*
X117974019Y-143665333D01*
X118069257Y-143617714D01*
X118259733Y-143617714D01*
X118354971Y-143665333D01*
X117926400Y-144236761D02*
X118021638Y-144284380D01*
X118259733Y-144284380D01*
X118354971Y-144236761D01*
X118402590Y-144141523D01*
X118402590Y-144046285D01*
X118354971Y-143951047D01*
X118259733Y-143903428D01*
X118021638Y-143903428D01*
X117926400Y-143855809D01*
X117450209Y-143617714D02*
X117450209Y-144474857D01*
X117497828Y-144570095D01*
X117593066Y-144617714D01*
X117640685Y-144617714D01*
X117450209Y-143284380D02*
X117497828Y-143332000D01*
X117450209Y-143379619D01*
X117402590Y-143332000D01*
X117450209Y-143284380D01*
X117450209Y-143379619D01*
X116831161Y-144284380D02*
X116926400Y-144236761D01*
X116974019Y-144189142D01*
X117021638Y-144093904D01*
X117021638Y-143808190D01*
X116974019Y-143712952D01*
X116926400Y-143665333D01*
X116831161Y-143617714D01*
X116688304Y-143617714D01*
X116593066Y-143665333D01*
X116545447Y-143712952D01*
X116497828Y-143808190D01*
X116497828Y-144093904D01*
X116545447Y-144189142D01*
X116593066Y-144236761D01*
X116688304Y-144284380D01*
X116831161Y-144284380D01*
X116069257Y-144284380D02*
X116069257Y-143284380D01*
X115640685Y-144284380D02*
X115640685Y-143760571D01*
X115688304Y-143665333D01*
X115783542Y-143617714D01*
X115926400Y-143617714D01*
X116021638Y-143665333D01*
X116069257Y-143712952D01*
X115164495Y-143617714D02*
X115164495Y-144284380D01*
X115164495Y-143712952D02*
X115116876Y-143665333D01*
X115021638Y-143617714D01*
X114878780Y-143617714D01*
X114783542Y-143665333D01*
X114735923Y-143760571D01*
X114735923Y-144284380D01*
X114307352Y-144236761D02*
X114212114Y-144284380D01*
X114021638Y-144284380D01*
X113926400Y-144236761D01*
X113878780Y-144141523D01*
X113878780Y-144093904D01*
X113926400Y-143998666D01*
X114021638Y-143951047D01*
X114164495Y-143951047D01*
X114259733Y-143903428D01*
X114307352Y-143808190D01*
X114307352Y-143760571D01*
X114259733Y-143665333D01*
X114164495Y-143617714D01*
X114021638Y-143617714D01*
X113926400Y-143665333D01*
X113307352Y-144284380D02*
X113402590Y-144236761D01*
X113450209Y-144189142D01*
X113497828Y-144093904D01*
X113497828Y-143808190D01*
X113450209Y-143712952D01*
X113402590Y-143665333D01*
X113307352Y-143617714D01*
X113164495Y-143617714D01*
X113069257Y-143665333D01*
X113021638Y-143712952D01*
X112974019Y-143808190D01*
X112974019Y-144093904D01*
X113021638Y-144189142D01*
X113069257Y-144236761D01*
X113164495Y-144284380D01*
X113307352Y-144284380D01*
X112545447Y-143617714D02*
X112545447Y-144284380D01*
X112545447Y-143712952D02*
X112497828Y-143665333D01*
X112402590Y-143617714D01*
X112259733Y-143617714D01*
X112164495Y-143665333D01*
X112116876Y-143760571D01*
X112116876Y-144284380D01*
X130495238Y-114852380D02*
X130495238Y-115566666D01*
X130542857Y-115709523D01*
X130638095Y-115804761D01*
X130780952Y-115852380D01*
X130876190Y-115852380D01*
X129876190Y-115852380D02*
X129971428Y-115804761D01*
X130019047Y-115757142D01*
X130066666Y-115661904D01*
X130066666Y-115376190D01*
X130019047Y-115280952D01*
X129971428Y-115233333D01*
X129876190Y-115185714D01*
X129733333Y-115185714D01*
X129638095Y-115233333D01*
X129590476Y-115280952D01*
X129542857Y-115376190D01*
X129542857Y-115661904D01*
X129590476Y-115757142D01*
X129638095Y-115804761D01*
X129733333Y-115852380D01*
X129876190Y-115852380D01*
X129161904Y-115804761D02*
X129066666Y-115852380D01*
X128876190Y-115852380D01*
X128780952Y-115804761D01*
X128733333Y-115709523D01*
X128733333Y-115661904D01*
X128780952Y-115566666D01*
X128876190Y-115519047D01*
X129019047Y-115519047D01*
X129114285Y-115471428D01*
X129161904Y-115376190D01*
X129161904Y-115328571D01*
X129114285Y-115233333D01*
X129019047Y-115185714D01*
X128876190Y-115185714D01*
X128780952Y-115233333D01*
X128304761Y-115852380D02*
X128304761Y-114852380D01*
X127876190Y-115852380D02*
X127876190Y-115328571D01*
X127923809Y-115233333D01*
X128019047Y-115185714D01*
X128161904Y-115185714D01*
X128257142Y-115233333D01*
X128304761Y-115280952D01*
X126352380Y-114852380D02*
X126352380Y-115566666D01*
X126400000Y-115709523D01*
X126495238Y-115804761D01*
X126638095Y-115852380D01*
X126733333Y-115852380D01*
X125733333Y-115852380D02*
X125828571Y-115804761D01*
X125876190Y-115757142D01*
X125923809Y-115661904D01*
X125923809Y-115376190D01*
X125876190Y-115280952D01*
X125828571Y-115233333D01*
X125733333Y-115185714D01*
X125590476Y-115185714D01*
X125495238Y-115233333D01*
X125447619Y-115280952D01*
X125400000Y-115376190D01*
X125400000Y-115661904D01*
X125447619Y-115757142D01*
X125495238Y-115804761D01*
X125590476Y-115852380D01*
X125733333Y-115852380D01*
X124971428Y-115852380D02*
X124971428Y-114852380D01*
X124542857Y-115852380D02*
X124542857Y-115328571D01*
X124590476Y-115233333D01*
X124685714Y-115185714D01*
X124828571Y-115185714D01*
X124923809Y-115233333D01*
X124971428Y-115280952D01*
X124066666Y-115185714D02*
X124066666Y-115852380D01*
X124066666Y-115280952D02*
X124019047Y-115233333D01*
X123923809Y-115185714D01*
X123780952Y-115185714D01*
X123685714Y-115233333D01*
X123638095Y-115328571D01*
X123638095Y-115852380D01*
X123209523Y-115804761D02*
X123114285Y-115852380D01*
X122923809Y-115852380D01*
X122828571Y-115804761D01*
X122780952Y-115709523D01*
X122780952Y-115661904D01*
X122828571Y-115566666D01*
X122923809Y-115519047D01*
X123066666Y-115519047D01*
X123161904Y-115471428D01*
X123209523Y-115376190D01*
X123209523Y-115328571D01*
X123161904Y-115233333D01*
X123066666Y-115185714D01*
X122923809Y-115185714D01*
X122828571Y-115233333D01*
X122209523Y-115852380D02*
X122304761Y-115804761D01*
X122352380Y-115757142D01*
X122400000Y-115661904D01*
X122400000Y-115376190D01*
X122352380Y-115280952D01*
X122304761Y-115233333D01*
X122209523Y-115185714D01*
X122066666Y-115185714D01*
X121971428Y-115233333D01*
X121923809Y-115280952D01*
X121876190Y-115376190D01*
X121876190Y-115661904D01*
X121923809Y-115757142D01*
X121971428Y-115804761D01*
X122066666Y-115852380D01*
X122209523Y-115852380D01*
X121447619Y-115185714D02*
X121447619Y-115852380D01*
X121447619Y-115280952D02*
X121400000Y-115233333D01*
X121304761Y-115185714D01*
X121161904Y-115185714D01*
X121066666Y-115233333D01*
X121019047Y-115328571D01*
X121019047Y-115852380D01*
X130552380Y-116685714D02*
X130552380Y-117542857D01*
X130600000Y-117638095D01*
X130695238Y-117685714D01*
X130742857Y-117685714D01*
X130552380Y-116352380D02*
X130600000Y-116400000D01*
X130552380Y-116447619D01*
X130504761Y-116400000D01*
X130552380Y-116352380D01*
X130552380Y-116447619D01*
X129933333Y-117352380D02*
X130028571Y-117304761D01*
X130076190Y-117257142D01*
X130123809Y-117161904D01*
X130123809Y-116876190D01*
X130076190Y-116780952D01*
X130028571Y-116733333D01*
X129933333Y-116685714D01*
X129790476Y-116685714D01*
X129695238Y-116733333D01*
X129647619Y-116780952D01*
X129600000Y-116876190D01*
X129600000Y-117161904D01*
X129647619Y-117257142D01*
X129695238Y-117304761D01*
X129790476Y-117352380D01*
X129933333Y-117352380D01*
X129219047Y-117304761D02*
X129123809Y-117352380D01*
X128933333Y-117352380D01*
X128838095Y-117304761D01*
X128790476Y-117209523D01*
X128790476Y-117161904D01*
X128838095Y-117066666D01*
X128933333Y-117019047D01*
X129076190Y-117019047D01*
X129171428Y-116971428D01*
X129219047Y-116876190D01*
X129219047Y-116828571D01*
X129171428Y-116733333D01*
X129076190Y-116685714D01*
X128933333Y-116685714D01*
X128838095Y-116733333D01*
X128361904Y-117352380D02*
X128361904Y-116352380D01*
X127933333Y-117352380D02*
X127933333Y-116828571D01*
X127980952Y-116733333D01*
X128076190Y-116685714D01*
X128219047Y-116685714D01*
X128314285Y-116733333D01*
X128361904Y-116780952D01*
X127028571Y-117352380D02*
X127028571Y-116828571D01*
X127076190Y-116733333D01*
X127171428Y-116685714D01*
X127361904Y-116685714D01*
X127457142Y-116733333D01*
X127028571Y-117304761D02*
X127123809Y-117352380D01*
X127361904Y-117352380D01*
X127457142Y-117304761D01*
X127504761Y-117209523D01*
X127504761Y-117114285D01*
X127457142Y-117019047D01*
X127361904Y-116971428D01*
X127123809Y-116971428D01*
X127028571Y-116923809D01*
X126552380Y-116685714D02*
X126552380Y-117542857D01*
X126600000Y-117638095D01*
X126695238Y-117685714D01*
X126742857Y-117685714D01*
X126552380Y-116352380D02*
X126600000Y-116400000D01*
X126552380Y-116447619D01*
X126504761Y-116400000D01*
X126552380Y-116352380D01*
X126552380Y-116447619D01*
X125933333Y-117352380D02*
X126028571Y-117304761D01*
X126076190Y-117257142D01*
X126123809Y-117161904D01*
X126123809Y-116876190D01*
X126076190Y-116780952D01*
X126028571Y-116733333D01*
X125933333Y-116685714D01*
X125790476Y-116685714D01*
X125695238Y-116733333D01*
X125647619Y-116780952D01*
X125600000Y-116876190D01*
X125600000Y-117161904D01*
X125647619Y-117257142D01*
X125695238Y-117304761D01*
X125790476Y-117352380D01*
X125933333Y-117352380D01*
X125171428Y-117352380D02*
X125171428Y-116352380D01*
X124742857Y-117352380D02*
X124742857Y-116828571D01*
X124790476Y-116733333D01*
X124885714Y-116685714D01*
X125028571Y-116685714D01*
X125123809Y-116733333D01*
X125171428Y-116780952D01*
X124266666Y-116685714D02*
X124266666Y-117352380D01*
X124266666Y-116780952D02*
X124219047Y-116733333D01*
X124123809Y-116685714D01*
X123980952Y-116685714D01*
X123885714Y-116733333D01*
X123838095Y-116828571D01*
X123838095Y-117352380D01*
X123409523Y-117304761D02*
X123314285Y-117352380D01*
X123123809Y-117352380D01*
X123028571Y-117304761D01*
X122980952Y-117209523D01*
X122980952Y-117161904D01*
X123028571Y-117066666D01*
X123123809Y-117019047D01*
X123266666Y-117019047D01*
X123361904Y-116971428D01*
X123409523Y-116876190D01*
X123409523Y-116828571D01*
X123361904Y-116733333D01*
X123266666Y-116685714D01*
X123123809Y-116685714D01*
X123028571Y-116733333D01*
X122409523Y-117352380D02*
X122504761Y-117304761D01*
X122552380Y-117257142D01*
X122600000Y-117161904D01*
X122600000Y-116876190D01*
X122552380Y-116780952D01*
X122504761Y-116733333D01*
X122409523Y-116685714D01*
X122266666Y-116685714D01*
X122171428Y-116733333D01*
X122123809Y-116780952D01*
X122076190Y-116876190D01*
X122076190Y-117161904D01*
X122123809Y-117257142D01*
X122171428Y-117304761D01*
X122266666Y-117352380D01*
X122409523Y-117352380D01*
X121647619Y-116685714D02*
X121647619Y-117352380D01*
X121647619Y-116780952D02*
X121600000Y-116733333D01*
X121504761Y-116685714D01*
X121361904Y-116685714D01*
X121266666Y-116733333D01*
X121219047Y-116828571D01*
X121219047Y-117352380D01*
X120742857Y-117257142D02*
X120695238Y-117304761D01*
X120742857Y-117352380D01*
X120790476Y-117304761D01*
X120742857Y-117257142D01*
X120742857Y-117352380D01*
X119838095Y-117304761D02*
X119933333Y-117352380D01*
X120123809Y-117352380D01*
X120219047Y-117304761D01*
X120266666Y-117257142D01*
X120314285Y-117161904D01*
X120314285Y-116876190D01*
X120266666Y-116780952D01*
X120219047Y-116733333D01*
X120123809Y-116685714D01*
X119933333Y-116685714D01*
X119838095Y-116733333D01*
X119266666Y-117352380D02*
X119361904Y-117304761D01*
X119409523Y-117257142D01*
X119457142Y-117161904D01*
X119457142Y-116876190D01*
X119409523Y-116780952D01*
X119361904Y-116733333D01*
X119266666Y-116685714D01*
X119123809Y-116685714D01*
X119028571Y-116733333D01*
X118980952Y-116780952D01*
X118933333Y-116876190D01*
X118933333Y-117161904D01*
X118980952Y-117257142D01*
X119028571Y-117304761D01*
X119123809Y-117352380D01*
X119266666Y-117352380D01*
X118504761Y-117352380D02*
X118504761Y-116685714D01*
X118504761Y-116780952D02*
X118457142Y-116733333D01*
X118361904Y-116685714D01*
X118219047Y-116685714D01*
X118123809Y-116733333D01*
X118076190Y-116828571D01*
X118076190Y-117352380D01*
X118076190Y-116828571D02*
X118028571Y-116733333D01*
X117933333Y-116685714D01*
X117790476Y-116685714D01*
X117695238Y-116733333D01*
X117647619Y-116828571D01*
X117647619Y-117352380D01*
X130307352Y-118217714D02*
X130307352Y-119027238D01*
X130354971Y-119122476D01*
X130402590Y-119170095D01*
X130497828Y-119217714D01*
X130640685Y-119217714D01*
X130735923Y-119170095D01*
X130307352Y-118836761D02*
X130402590Y-118884380D01*
X130593066Y-118884380D01*
X130688304Y-118836761D01*
X130735923Y-118789142D01*
X130783542Y-118693904D01*
X130783542Y-118408190D01*
X130735923Y-118312952D01*
X130688304Y-118265333D01*
X130593066Y-118217714D01*
X130402590Y-118217714D01*
X130307352Y-118265333D01*
X129831161Y-118884380D02*
X129831161Y-118217714D01*
X129831161Y-117884380D02*
X129878780Y-117932000D01*
X129831161Y-117979619D01*
X129783542Y-117932000D01*
X129831161Y-117884380D01*
X129831161Y-117979619D01*
X129497828Y-118217714D02*
X129116876Y-118217714D01*
X129354971Y-117884380D02*
X129354971Y-118741523D01*
X129307352Y-118836761D01*
X129212114Y-118884380D01*
X129116876Y-118884380D01*
X128783542Y-118884380D02*
X128783542Y-117884380D01*
X128354971Y-118884380D02*
X128354971Y-118360571D01*
X128402590Y-118265333D01*
X128497828Y-118217714D01*
X128640685Y-118217714D01*
X128735923Y-118265333D01*
X128783542Y-118312952D01*
X127450209Y-118217714D02*
X127450209Y-118884380D01*
X127878780Y-118217714D02*
X127878780Y-118741523D01*
X127831161Y-118836761D01*
X127735923Y-118884380D01*
X127593066Y-118884380D01*
X127497828Y-118836761D01*
X127450209Y-118789142D01*
X126974019Y-118884380D02*
X126974019Y-117884380D01*
X126974019Y-118265333D02*
X126878780Y-118217714D01*
X126688304Y-118217714D01*
X126593066Y-118265333D01*
X126545447Y-118312952D01*
X126497828Y-118408190D01*
X126497828Y-118693904D01*
X126545447Y-118789142D01*
X126593066Y-118836761D01*
X126688304Y-118884380D01*
X126878780Y-118884380D01*
X126974019Y-118836761D01*
X126069257Y-118789142D02*
X126021638Y-118836761D01*
X126069257Y-118884380D01*
X126116876Y-118836761D01*
X126069257Y-118789142D01*
X126069257Y-118884380D01*
X125164495Y-118836761D02*
X125259733Y-118884380D01*
X125450209Y-118884380D01*
X125545447Y-118836761D01*
X125593066Y-118789142D01*
X125640685Y-118693904D01*
X125640685Y-118408190D01*
X125593066Y-118312952D01*
X125545447Y-118265333D01*
X125450209Y-118217714D01*
X125259733Y-118217714D01*
X125164495Y-118265333D01*
X124593066Y-118884380D02*
X124688304Y-118836761D01*
X124735923Y-118789142D01*
X124783542Y-118693904D01*
X124783542Y-118408190D01*
X124735923Y-118312952D01*
X124688304Y-118265333D01*
X124593066Y-118217714D01*
X124450209Y-118217714D01*
X124354971Y-118265333D01*
X124307352Y-118312952D01*
X124259733Y-118408190D01*
X124259733Y-118693904D01*
X124307352Y-118789142D01*
X124354971Y-118836761D01*
X124450209Y-118884380D01*
X124593066Y-118884380D01*
X123831161Y-118884380D02*
X123831161Y-118217714D01*
X123831161Y-118312952D02*
X123783542Y-118265333D01*
X123688304Y-118217714D01*
X123545447Y-118217714D01*
X123450209Y-118265333D01*
X123402590Y-118360571D01*
X123402590Y-118884380D01*
X123402590Y-118360571D02*
X123354971Y-118265333D01*
X123259733Y-118217714D01*
X123116876Y-118217714D01*
X123021638Y-118265333D01*
X122974019Y-118360571D01*
X122974019Y-118884380D01*
X121783542Y-117836761D02*
X122640685Y-119122476D01*
X121450209Y-118217714D02*
X121450209Y-119074857D01*
X121497828Y-119170095D01*
X121593066Y-119217714D01*
X121640685Y-119217714D01*
X121450209Y-117884380D02*
X121497828Y-117932000D01*
X121450209Y-117979619D01*
X121402590Y-117932000D01*
X121450209Y-117884380D01*
X121450209Y-117979619D01*
X120831161Y-118884380D02*
X120926400Y-118836761D01*
X120974019Y-118789142D01*
X121021638Y-118693904D01*
X121021638Y-118408190D01*
X120974019Y-118312952D01*
X120926400Y-118265333D01*
X120831161Y-118217714D01*
X120688304Y-118217714D01*
X120593066Y-118265333D01*
X120545447Y-118312952D01*
X120497828Y-118408190D01*
X120497828Y-118693904D01*
X120545447Y-118789142D01*
X120593066Y-118836761D01*
X120688304Y-118884380D01*
X120831161Y-118884380D01*
X120116876Y-118836761D02*
X120021638Y-118884380D01*
X119831161Y-118884380D01*
X119735923Y-118836761D01*
X119688304Y-118741523D01*
X119688304Y-118693904D01*
X119735923Y-118598666D01*
X119831161Y-118551047D01*
X119974019Y-118551047D01*
X120069257Y-118503428D01*
X120116876Y-118408190D01*
X120116876Y-118360571D01*
X120069257Y-118265333D01*
X119974019Y-118217714D01*
X119831161Y-118217714D01*
X119735923Y-118265333D01*
X119259733Y-118884380D02*
X119259733Y-117884380D01*
X118831161Y-118884380D02*
X118831161Y-118360571D01*
X118878780Y-118265333D01*
X118974019Y-118217714D01*
X119116876Y-118217714D01*
X119212114Y-118265333D01*
X119259733Y-118312952D01*
X117926400Y-118884380D02*
X117926400Y-118360571D01*
X117974019Y-118265333D01*
X118069257Y-118217714D01*
X118259733Y-118217714D01*
X118354971Y-118265333D01*
X117926400Y-118836761D02*
X118021638Y-118884380D01*
X118259733Y-118884380D01*
X118354971Y-118836761D01*
X118402590Y-118741523D01*
X118402590Y-118646285D01*
X118354971Y-118551047D01*
X118259733Y-118503428D01*
X118021638Y-118503428D01*
X117926400Y-118455809D01*
X117450209Y-118217714D02*
X117450209Y-119074857D01*
X117497828Y-119170095D01*
X117593066Y-119217714D01*
X117640685Y-119217714D01*
X117450209Y-117884380D02*
X117497828Y-117932000D01*
X117450209Y-117979619D01*
X117402590Y-117932000D01*
X117450209Y-117884380D01*
X117450209Y-117979619D01*
X116831161Y-118884380D02*
X116926400Y-118836761D01*
X116974019Y-118789142D01*
X117021638Y-118693904D01*
X117021638Y-118408190D01*
X116974019Y-118312952D01*
X116926400Y-118265333D01*
X116831161Y-118217714D01*
X116688304Y-118217714D01*
X116593066Y-118265333D01*
X116545447Y-118312952D01*
X116497828Y-118408190D01*
X116497828Y-118693904D01*
X116545447Y-118789142D01*
X116593066Y-118836761D01*
X116688304Y-118884380D01*
X116831161Y-118884380D01*
X116069257Y-118884380D02*
X116069257Y-117884380D01*
X115640685Y-118884380D02*
X115640685Y-118360571D01*
X115688304Y-118265333D01*
X115783542Y-118217714D01*
X115926400Y-118217714D01*
X116021638Y-118265333D01*
X116069257Y-118312952D01*
X115164495Y-118217714D02*
X115164495Y-118884380D01*
X115164495Y-118312952D02*
X115116876Y-118265333D01*
X115021638Y-118217714D01*
X114878780Y-118217714D01*
X114783542Y-118265333D01*
X114735923Y-118360571D01*
X114735923Y-118884380D01*
X114307352Y-118836761D02*
X114212114Y-118884380D01*
X114021638Y-118884380D01*
X113926400Y-118836761D01*
X113878780Y-118741523D01*
X113878780Y-118693904D01*
X113926400Y-118598666D01*
X114021638Y-118551047D01*
X114164495Y-118551047D01*
X114259733Y-118503428D01*
X114307352Y-118408190D01*
X114307352Y-118360571D01*
X114259733Y-118265333D01*
X114164495Y-118217714D01*
X114021638Y-118217714D01*
X113926400Y-118265333D01*
X113307352Y-118884380D02*
X113402590Y-118836761D01*
X113450209Y-118789142D01*
X113497828Y-118693904D01*
X113497828Y-118408190D01*
X113450209Y-118312952D01*
X113402590Y-118265333D01*
X113307352Y-118217714D01*
X113164495Y-118217714D01*
X113069257Y-118265333D01*
X113021638Y-118312952D01*
X112974019Y-118408190D01*
X112974019Y-118693904D01*
X113021638Y-118789142D01*
X113069257Y-118836761D01*
X113164495Y-118884380D01*
X113307352Y-118884380D01*
X112545447Y-118217714D02*
X112545447Y-118884380D01*
X112545447Y-118312952D02*
X112497828Y-118265333D01*
X112402590Y-118217714D01*
X112259733Y-118217714D01*
X112164495Y-118265333D01*
X112116876Y-118360571D01*
X112116876Y-118884380D01*
X130495238Y-89452380D02*
X130495238Y-90166666D01*
X130542857Y-90309523D01*
X130638095Y-90404761D01*
X130780952Y-90452380D01*
X130876190Y-90452380D01*
X129876190Y-90452380D02*
X129971428Y-90404761D01*
X130019047Y-90357142D01*
X130066666Y-90261904D01*
X130066666Y-89976190D01*
X130019047Y-89880952D01*
X129971428Y-89833333D01*
X129876190Y-89785714D01*
X129733333Y-89785714D01*
X129638095Y-89833333D01*
X129590476Y-89880952D01*
X129542857Y-89976190D01*
X129542857Y-90261904D01*
X129590476Y-90357142D01*
X129638095Y-90404761D01*
X129733333Y-90452380D01*
X129876190Y-90452380D01*
X129161904Y-90404761D02*
X129066666Y-90452380D01*
X128876190Y-90452380D01*
X128780952Y-90404761D01*
X128733333Y-90309523D01*
X128733333Y-90261904D01*
X128780952Y-90166666D01*
X128876190Y-90119047D01*
X129019047Y-90119047D01*
X129114285Y-90071428D01*
X129161904Y-89976190D01*
X129161904Y-89928571D01*
X129114285Y-89833333D01*
X129019047Y-89785714D01*
X128876190Y-89785714D01*
X128780952Y-89833333D01*
X128304761Y-90452380D02*
X128304761Y-89452380D01*
X127876190Y-90452380D02*
X127876190Y-89928571D01*
X127923809Y-89833333D01*
X128019047Y-89785714D01*
X128161904Y-89785714D01*
X128257142Y-89833333D01*
X128304761Y-89880952D01*
X126352380Y-89452380D02*
X126352380Y-90166666D01*
X126400000Y-90309523D01*
X126495238Y-90404761D01*
X126638095Y-90452380D01*
X126733333Y-90452380D01*
X125733333Y-90452380D02*
X125828571Y-90404761D01*
X125876190Y-90357142D01*
X125923809Y-90261904D01*
X125923809Y-89976190D01*
X125876190Y-89880952D01*
X125828571Y-89833333D01*
X125733333Y-89785714D01*
X125590476Y-89785714D01*
X125495238Y-89833333D01*
X125447619Y-89880952D01*
X125400000Y-89976190D01*
X125400000Y-90261904D01*
X125447619Y-90357142D01*
X125495238Y-90404761D01*
X125590476Y-90452380D01*
X125733333Y-90452380D01*
X124971428Y-90452380D02*
X124971428Y-89452380D01*
X124542857Y-90452380D02*
X124542857Y-89928571D01*
X124590476Y-89833333D01*
X124685714Y-89785714D01*
X124828571Y-89785714D01*
X124923809Y-89833333D01*
X124971428Y-89880952D01*
X124066666Y-89785714D02*
X124066666Y-90452380D01*
X124066666Y-89880952D02*
X124019047Y-89833333D01*
X123923809Y-89785714D01*
X123780952Y-89785714D01*
X123685714Y-89833333D01*
X123638095Y-89928571D01*
X123638095Y-90452380D01*
X123209523Y-90404761D02*
X123114285Y-90452380D01*
X122923809Y-90452380D01*
X122828571Y-90404761D01*
X122780952Y-90309523D01*
X122780952Y-90261904D01*
X122828571Y-90166666D01*
X122923809Y-90119047D01*
X123066666Y-90119047D01*
X123161904Y-90071428D01*
X123209523Y-89976190D01*
X123209523Y-89928571D01*
X123161904Y-89833333D01*
X123066666Y-89785714D01*
X122923809Y-89785714D01*
X122828571Y-89833333D01*
X122209523Y-90452380D02*
X122304761Y-90404761D01*
X122352380Y-90357142D01*
X122400000Y-90261904D01*
X122400000Y-89976190D01*
X122352380Y-89880952D01*
X122304761Y-89833333D01*
X122209523Y-89785714D01*
X122066666Y-89785714D01*
X121971428Y-89833333D01*
X121923809Y-89880952D01*
X121876190Y-89976190D01*
X121876190Y-90261904D01*
X121923809Y-90357142D01*
X121971428Y-90404761D01*
X122066666Y-90452380D01*
X122209523Y-90452380D01*
X121447619Y-89785714D02*
X121447619Y-90452380D01*
X121447619Y-89880952D02*
X121400000Y-89833333D01*
X121304761Y-89785714D01*
X121161904Y-89785714D01*
X121066666Y-89833333D01*
X121019047Y-89928571D01*
X121019047Y-90452380D01*
X130552380Y-91285714D02*
X130552380Y-92142857D01*
X130600000Y-92238095D01*
X130695238Y-92285714D01*
X130742857Y-92285714D01*
X130552380Y-90952380D02*
X130600000Y-91000000D01*
X130552380Y-91047619D01*
X130504761Y-91000000D01*
X130552380Y-90952380D01*
X130552380Y-91047619D01*
X129933333Y-91952380D02*
X130028571Y-91904761D01*
X130076190Y-91857142D01*
X130123809Y-91761904D01*
X130123809Y-91476190D01*
X130076190Y-91380952D01*
X130028571Y-91333333D01*
X129933333Y-91285714D01*
X129790476Y-91285714D01*
X129695238Y-91333333D01*
X129647619Y-91380952D01*
X129600000Y-91476190D01*
X129600000Y-91761904D01*
X129647619Y-91857142D01*
X129695238Y-91904761D01*
X129790476Y-91952380D01*
X129933333Y-91952380D01*
X129219047Y-91904761D02*
X129123809Y-91952380D01*
X128933333Y-91952380D01*
X128838095Y-91904761D01*
X128790476Y-91809523D01*
X128790476Y-91761904D01*
X128838095Y-91666666D01*
X128933333Y-91619047D01*
X129076190Y-91619047D01*
X129171428Y-91571428D01*
X129219047Y-91476190D01*
X129219047Y-91428571D01*
X129171428Y-91333333D01*
X129076190Y-91285714D01*
X128933333Y-91285714D01*
X128838095Y-91333333D01*
X128361904Y-91952380D02*
X128361904Y-90952380D01*
X127933333Y-91952380D02*
X127933333Y-91428571D01*
X127980952Y-91333333D01*
X128076190Y-91285714D01*
X128219047Y-91285714D01*
X128314285Y-91333333D01*
X128361904Y-91380952D01*
X127028571Y-91952380D02*
X127028571Y-91428571D01*
X127076190Y-91333333D01*
X127171428Y-91285714D01*
X127361904Y-91285714D01*
X127457142Y-91333333D01*
X127028571Y-91904761D02*
X127123809Y-91952380D01*
X127361904Y-91952380D01*
X127457142Y-91904761D01*
X127504761Y-91809523D01*
X127504761Y-91714285D01*
X127457142Y-91619047D01*
X127361904Y-91571428D01*
X127123809Y-91571428D01*
X127028571Y-91523809D01*
X126552380Y-91285714D02*
X126552380Y-92142857D01*
X126600000Y-92238095D01*
X126695238Y-92285714D01*
X126742857Y-92285714D01*
X126552380Y-90952380D02*
X126600000Y-91000000D01*
X126552380Y-91047619D01*
X126504761Y-91000000D01*
X126552380Y-90952380D01*
X126552380Y-91047619D01*
X125933333Y-91952380D02*
X126028571Y-91904761D01*
X126076190Y-91857142D01*
X126123809Y-91761904D01*
X126123809Y-91476190D01*
X126076190Y-91380952D01*
X126028571Y-91333333D01*
X125933333Y-91285714D01*
X125790476Y-91285714D01*
X125695238Y-91333333D01*
X125647619Y-91380952D01*
X125600000Y-91476190D01*
X125600000Y-91761904D01*
X125647619Y-91857142D01*
X125695238Y-91904761D01*
X125790476Y-91952380D01*
X125933333Y-91952380D01*
X125171428Y-91952380D02*
X125171428Y-90952380D01*
X124742857Y-91952380D02*
X124742857Y-91428571D01*
X124790476Y-91333333D01*
X124885714Y-91285714D01*
X125028571Y-91285714D01*
X125123809Y-91333333D01*
X125171428Y-91380952D01*
X124266666Y-91285714D02*
X124266666Y-91952380D01*
X124266666Y-91380952D02*
X124219047Y-91333333D01*
X124123809Y-91285714D01*
X123980952Y-91285714D01*
X123885714Y-91333333D01*
X123838095Y-91428571D01*
X123838095Y-91952380D01*
X123409523Y-91904761D02*
X123314285Y-91952380D01*
X123123809Y-91952380D01*
X123028571Y-91904761D01*
X122980952Y-91809523D01*
X122980952Y-91761904D01*
X123028571Y-91666666D01*
X123123809Y-91619047D01*
X123266666Y-91619047D01*
X123361904Y-91571428D01*
X123409523Y-91476190D01*
X123409523Y-91428571D01*
X123361904Y-91333333D01*
X123266666Y-91285714D01*
X123123809Y-91285714D01*
X123028571Y-91333333D01*
X122409523Y-91952380D02*
X122504761Y-91904761D01*
X122552380Y-91857142D01*
X122600000Y-91761904D01*
X122600000Y-91476190D01*
X122552380Y-91380952D01*
X122504761Y-91333333D01*
X122409523Y-91285714D01*
X122266666Y-91285714D01*
X122171428Y-91333333D01*
X122123809Y-91380952D01*
X122076190Y-91476190D01*
X122076190Y-91761904D01*
X122123809Y-91857142D01*
X122171428Y-91904761D01*
X122266666Y-91952380D01*
X122409523Y-91952380D01*
X121647619Y-91285714D02*
X121647619Y-91952380D01*
X121647619Y-91380952D02*
X121600000Y-91333333D01*
X121504761Y-91285714D01*
X121361904Y-91285714D01*
X121266666Y-91333333D01*
X121219047Y-91428571D01*
X121219047Y-91952380D01*
X120742857Y-91857142D02*
X120695238Y-91904761D01*
X120742857Y-91952380D01*
X120790476Y-91904761D01*
X120742857Y-91857142D01*
X120742857Y-91952380D01*
X119838095Y-91904761D02*
X119933333Y-91952380D01*
X120123809Y-91952380D01*
X120219047Y-91904761D01*
X120266666Y-91857142D01*
X120314285Y-91761904D01*
X120314285Y-91476190D01*
X120266666Y-91380952D01*
X120219047Y-91333333D01*
X120123809Y-91285714D01*
X119933333Y-91285714D01*
X119838095Y-91333333D01*
X119266666Y-91952380D02*
X119361904Y-91904761D01*
X119409523Y-91857142D01*
X119457142Y-91761904D01*
X119457142Y-91476190D01*
X119409523Y-91380952D01*
X119361904Y-91333333D01*
X119266666Y-91285714D01*
X119123809Y-91285714D01*
X119028571Y-91333333D01*
X118980952Y-91380952D01*
X118933333Y-91476190D01*
X118933333Y-91761904D01*
X118980952Y-91857142D01*
X119028571Y-91904761D01*
X119123809Y-91952380D01*
X119266666Y-91952380D01*
X118504761Y-91952380D02*
X118504761Y-91285714D01*
X118504761Y-91380952D02*
X118457142Y-91333333D01*
X118361904Y-91285714D01*
X118219047Y-91285714D01*
X118123809Y-91333333D01*
X118076190Y-91428571D01*
X118076190Y-91952380D01*
X118076190Y-91428571D02*
X118028571Y-91333333D01*
X117933333Y-91285714D01*
X117790476Y-91285714D01*
X117695238Y-91333333D01*
X117647619Y-91428571D01*
X117647619Y-91952380D01*
X130307352Y-92817714D02*
X130307352Y-93627238D01*
X130354971Y-93722476D01*
X130402590Y-93770095D01*
X130497828Y-93817714D01*
X130640685Y-93817714D01*
X130735923Y-93770095D01*
X130307352Y-93436761D02*
X130402590Y-93484380D01*
X130593066Y-93484380D01*
X130688304Y-93436761D01*
X130735923Y-93389142D01*
X130783542Y-93293904D01*
X130783542Y-93008190D01*
X130735923Y-92912952D01*
X130688304Y-92865333D01*
X130593066Y-92817714D01*
X130402590Y-92817714D01*
X130307352Y-92865333D01*
X129831161Y-93484380D02*
X129831161Y-92817714D01*
X129831161Y-92484380D02*
X129878780Y-92532000D01*
X129831161Y-92579619D01*
X129783542Y-92532000D01*
X129831161Y-92484380D01*
X129831161Y-92579619D01*
X129497828Y-92817714D02*
X129116876Y-92817714D01*
X129354971Y-92484380D02*
X129354971Y-93341523D01*
X129307352Y-93436761D01*
X129212114Y-93484380D01*
X129116876Y-93484380D01*
X128783542Y-93484380D02*
X128783542Y-92484380D01*
X128354971Y-93484380D02*
X128354971Y-92960571D01*
X128402590Y-92865333D01*
X128497828Y-92817714D01*
X128640685Y-92817714D01*
X128735923Y-92865333D01*
X128783542Y-92912952D01*
X127450209Y-92817714D02*
X127450209Y-93484380D01*
X127878780Y-92817714D02*
X127878780Y-93341523D01*
X127831161Y-93436761D01*
X127735923Y-93484380D01*
X127593066Y-93484380D01*
X127497828Y-93436761D01*
X127450209Y-93389142D01*
X126974019Y-93484380D02*
X126974019Y-92484380D01*
X126974019Y-92865333D02*
X126878780Y-92817714D01*
X126688304Y-92817714D01*
X126593066Y-92865333D01*
X126545447Y-92912952D01*
X126497828Y-93008190D01*
X126497828Y-93293904D01*
X126545447Y-93389142D01*
X126593066Y-93436761D01*
X126688304Y-93484380D01*
X126878780Y-93484380D01*
X126974019Y-93436761D01*
X126069257Y-93389142D02*
X126021638Y-93436761D01*
X126069257Y-93484380D01*
X126116876Y-93436761D01*
X126069257Y-93389142D01*
X126069257Y-93484380D01*
X125164495Y-93436761D02*
X125259733Y-93484380D01*
X125450209Y-93484380D01*
X125545447Y-93436761D01*
X125593066Y-93389142D01*
X125640685Y-93293904D01*
X125640685Y-93008190D01*
X125593066Y-92912952D01*
X125545447Y-92865333D01*
X125450209Y-92817714D01*
X125259733Y-92817714D01*
X125164495Y-92865333D01*
X124593066Y-93484380D02*
X124688304Y-93436761D01*
X124735923Y-93389142D01*
X124783542Y-93293904D01*
X124783542Y-93008190D01*
X124735923Y-92912952D01*
X124688304Y-92865333D01*
X124593066Y-92817714D01*
X124450209Y-92817714D01*
X124354971Y-92865333D01*
X124307352Y-92912952D01*
X124259733Y-93008190D01*
X124259733Y-93293904D01*
X124307352Y-93389142D01*
X124354971Y-93436761D01*
X124450209Y-93484380D01*
X124593066Y-93484380D01*
X123831161Y-93484380D02*
X123831161Y-92817714D01*
X123831161Y-92912952D02*
X123783542Y-92865333D01*
X123688304Y-92817714D01*
X123545447Y-92817714D01*
X123450209Y-92865333D01*
X123402590Y-92960571D01*
X123402590Y-93484380D01*
X123402590Y-92960571D02*
X123354971Y-92865333D01*
X123259733Y-92817714D01*
X123116876Y-92817714D01*
X123021638Y-92865333D01*
X122974019Y-92960571D01*
X122974019Y-93484380D01*
X121783542Y-92436761D02*
X122640685Y-93722476D01*
X121450209Y-92817714D02*
X121450209Y-93674857D01*
X121497828Y-93770095D01*
X121593066Y-93817714D01*
X121640685Y-93817714D01*
X121450209Y-92484380D02*
X121497828Y-92532000D01*
X121450209Y-92579619D01*
X121402590Y-92532000D01*
X121450209Y-92484380D01*
X121450209Y-92579619D01*
X120831161Y-93484380D02*
X120926400Y-93436761D01*
X120974019Y-93389142D01*
X121021638Y-93293904D01*
X121021638Y-93008190D01*
X120974019Y-92912952D01*
X120926400Y-92865333D01*
X120831161Y-92817714D01*
X120688304Y-92817714D01*
X120593066Y-92865333D01*
X120545447Y-92912952D01*
X120497828Y-93008190D01*
X120497828Y-93293904D01*
X120545447Y-93389142D01*
X120593066Y-93436761D01*
X120688304Y-93484380D01*
X120831161Y-93484380D01*
X120116876Y-93436761D02*
X120021638Y-93484380D01*
X119831161Y-93484380D01*
X119735923Y-93436761D01*
X119688304Y-93341523D01*
X119688304Y-93293904D01*
X119735923Y-93198666D01*
X119831161Y-93151047D01*
X119974019Y-93151047D01*
X120069257Y-93103428D01*
X120116876Y-93008190D01*
X120116876Y-92960571D01*
X120069257Y-92865333D01*
X119974019Y-92817714D01*
X119831161Y-92817714D01*
X119735923Y-92865333D01*
X119259733Y-93484380D02*
X119259733Y-92484380D01*
X118831161Y-93484380D02*
X118831161Y-92960571D01*
X118878780Y-92865333D01*
X118974019Y-92817714D01*
X119116876Y-92817714D01*
X119212114Y-92865333D01*
X119259733Y-92912952D01*
X117926400Y-93484380D02*
X117926400Y-92960571D01*
X117974019Y-92865333D01*
X118069257Y-92817714D01*
X118259733Y-92817714D01*
X118354971Y-92865333D01*
X117926400Y-93436761D02*
X118021638Y-93484380D01*
X118259733Y-93484380D01*
X118354971Y-93436761D01*
X118402590Y-93341523D01*
X118402590Y-93246285D01*
X118354971Y-93151047D01*
X118259733Y-93103428D01*
X118021638Y-93103428D01*
X117926400Y-93055809D01*
X117450209Y-92817714D02*
X117450209Y-93674857D01*
X117497828Y-93770095D01*
X117593066Y-93817714D01*
X117640685Y-93817714D01*
X117450209Y-92484380D02*
X117497828Y-92532000D01*
X117450209Y-92579619D01*
X117402590Y-92532000D01*
X117450209Y-92484380D01*
X117450209Y-92579619D01*
X116831161Y-93484380D02*
X116926400Y-93436761D01*
X116974019Y-93389142D01*
X117021638Y-93293904D01*
X117021638Y-93008190D01*
X116974019Y-92912952D01*
X116926400Y-92865333D01*
X116831161Y-92817714D01*
X116688304Y-92817714D01*
X116593066Y-92865333D01*
X116545447Y-92912952D01*
X116497828Y-93008190D01*
X116497828Y-93293904D01*
X116545447Y-93389142D01*
X116593066Y-93436761D01*
X116688304Y-93484380D01*
X116831161Y-93484380D01*
X116069257Y-93484380D02*
X116069257Y-92484380D01*
X115640685Y-93484380D02*
X115640685Y-92960571D01*
X115688304Y-92865333D01*
X115783542Y-92817714D01*
X115926400Y-92817714D01*
X116021638Y-92865333D01*
X116069257Y-92912952D01*
X115164495Y-92817714D02*
X115164495Y-93484380D01*
X115164495Y-92912952D02*
X115116876Y-92865333D01*
X115021638Y-92817714D01*
X114878780Y-92817714D01*
X114783542Y-92865333D01*
X114735923Y-92960571D01*
X114735923Y-93484380D01*
X114307352Y-93436761D02*
X114212114Y-93484380D01*
X114021638Y-93484380D01*
X113926400Y-93436761D01*
X113878780Y-93341523D01*
X113878780Y-93293904D01*
X113926400Y-93198666D01*
X114021638Y-93151047D01*
X114164495Y-93151047D01*
X114259733Y-93103428D01*
X114307352Y-93008190D01*
X114307352Y-92960571D01*
X114259733Y-92865333D01*
X114164495Y-92817714D01*
X114021638Y-92817714D01*
X113926400Y-92865333D01*
X113307352Y-93484380D02*
X113402590Y-93436761D01*
X113450209Y-93389142D01*
X113497828Y-93293904D01*
X113497828Y-93008190D01*
X113450209Y-92912952D01*
X113402590Y-92865333D01*
X113307352Y-92817714D01*
X113164495Y-92817714D01*
X113069257Y-92865333D01*
X113021638Y-92912952D01*
X112974019Y-93008190D01*
X112974019Y-93293904D01*
X113021638Y-93389142D01*
X113069257Y-93436761D01*
X113164495Y-93484380D01*
X113307352Y-93484380D01*
X112545447Y-92817714D02*
X112545447Y-93484380D01*
X112545447Y-92912952D02*
X112497828Y-92865333D01*
X112402590Y-92817714D01*
X112259733Y-92817714D01*
X112164495Y-92865333D01*
X112116876Y-92960571D01*
X112116876Y-93484380D01*
X130307352Y-67417714D02*
X130307352Y-68227238D01*
X130354971Y-68322476D01*
X130402590Y-68370095D01*
X130497828Y-68417714D01*
X130640685Y-68417714D01*
X130735923Y-68370095D01*
X130307352Y-68036761D02*
X130402590Y-68084380D01*
X130593066Y-68084380D01*
X130688304Y-68036761D01*
X130735923Y-67989142D01*
X130783542Y-67893904D01*
X130783542Y-67608190D01*
X130735923Y-67512952D01*
X130688304Y-67465333D01*
X130593066Y-67417714D01*
X130402590Y-67417714D01*
X130307352Y-67465333D01*
X129831161Y-68084380D02*
X129831161Y-67417714D01*
X129831161Y-67084380D02*
X129878780Y-67132000D01*
X129831161Y-67179619D01*
X129783542Y-67132000D01*
X129831161Y-67084380D01*
X129831161Y-67179619D01*
X129497828Y-67417714D02*
X129116876Y-67417714D01*
X129354971Y-67084380D02*
X129354971Y-67941523D01*
X129307352Y-68036761D01*
X129212114Y-68084380D01*
X129116876Y-68084380D01*
X128783542Y-68084380D02*
X128783542Y-67084380D01*
X128354971Y-68084380D02*
X128354971Y-67560571D01*
X128402590Y-67465333D01*
X128497828Y-67417714D01*
X128640685Y-67417714D01*
X128735923Y-67465333D01*
X128783542Y-67512952D01*
X127450209Y-67417714D02*
X127450209Y-68084380D01*
X127878780Y-67417714D02*
X127878780Y-67941523D01*
X127831161Y-68036761D01*
X127735923Y-68084380D01*
X127593066Y-68084380D01*
X127497828Y-68036761D01*
X127450209Y-67989142D01*
X126974019Y-68084380D02*
X126974019Y-67084380D01*
X126974019Y-67465333D02*
X126878780Y-67417714D01*
X126688304Y-67417714D01*
X126593066Y-67465333D01*
X126545447Y-67512952D01*
X126497828Y-67608190D01*
X126497828Y-67893904D01*
X126545447Y-67989142D01*
X126593066Y-68036761D01*
X126688304Y-68084380D01*
X126878780Y-68084380D01*
X126974019Y-68036761D01*
X126069257Y-67989142D02*
X126021638Y-68036761D01*
X126069257Y-68084380D01*
X126116876Y-68036761D01*
X126069257Y-67989142D01*
X126069257Y-68084380D01*
X125164495Y-68036761D02*
X125259733Y-68084380D01*
X125450209Y-68084380D01*
X125545447Y-68036761D01*
X125593066Y-67989142D01*
X125640685Y-67893904D01*
X125640685Y-67608190D01*
X125593066Y-67512952D01*
X125545447Y-67465333D01*
X125450209Y-67417714D01*
X125259733Y-67417714D01*
X125164495Y-67465333D01*
X124593066Y-68084380D02*
X124688304Y-68036761D01*
X124735923Y-67989142D01*
X124783542Y-67893904D01*
X124783542Y-67608190D01*
X124735923Y-67512952D01*
X124688304Y-67465333D01*
X124593066Y-67417714D01*
X124450209Y-67417714D01*
X124354971Y-67465333D01*
X124307352Y-67512952D01*
X124259733Y-67608190D01*
X124259733Y-67893904D01*
X124307352Y-67989142D01*
X124354971Y-68036761D01*
X124450209Y-68084380D01*
X124593066Y-68084380D01*
X123831161Y-68084380D02*
X123831161Y-67417714D01*
X123831161Y-67512952D02*
X123783542Y-67465333D01*
X123688304Y-67417714D01*
X123545447Y-67417714D01*
X123450209Y-67465333D01*
X123402590Y-67560571D01*
X123402590Y-68084380D01*
X123402590Y-67560571D02*
X123354971Y-67465333D01*
X123259733Y-67417714D01*
X123116876Y-67417714D01*
X123021638Y-67465333D01*
X122974019Y-67560571D01*
X122974019Y-68084380D01*
X121783542Y-67036761D02*
X122640685Y-68322476D01*
X121450209Y-67417714D02*
X121450209Y-68274857D01*
X121497828Y-68370095D01*
X121593066Y-68417714D01*
X121640685Y-68417714D01*
X121450209Y-67084380D02*
X121497828Y-67132000D01*
X121450209Y-67179619D01*
X121402590Y-67132000D01*
X121450209Y-67084380D01*
X121450209Y-67179619D01*
X120831161Y-68084380D02*
X120926400Y-68036761D01*
X120974019Y-67989142D01*
X121021638Y-67893904D01*
X121021638Y-67608190D01*
X120974019Y-67512952D01*
X120926400Y-67465333D01*
X120831161Y-67417714D01*
X120688304Y-67417714D01*
X120593066Y-67465333D01*
X120545447Y-67512952D01*
X120497828Y-67608190D01*
X120497828Y-67893904D01*
X120545447Y-67989142D01*
X120593066Y-68036761D01*
X120688304Y-68084380D01*
X120831161Y-68084380D01*
X120116876Y-68036761D02*
X120021638Y-68084380D01*
X119831161Y-68084380D01*
X119735923Y-68036761D01*
X119688304Y-67941523D01*
X119688304Y-67893904D01*
X119735923Y-67798666D01*
X119831161Y-67751047D01*
X119974019Y-67751047D01*
X120069257Y-67703428D01*
X120116876Y-67608190D01*
X120116876Y-67560571D01*
X120069257Y-67465333D01*
X119974019Y-67417714D01*
X119831161Y-67417714D01*
X119735923Y-67465333D01*
X119259733Y-68084380D02*
X119259733Y-67084380D01*
X118831161Y-68084380D02*
X118831161Y-67560571D01*
X118878780Y-67465333D01*
X118974019Y-67417714D01*
X119116876Y-67417714D01*
X119212114Y-67465333D01*
X119259733Y-67512952D01*
X117926400Y-68084380D02*
X117926400Y-67560571D01*
X117974019Y-67465333D01*
X118069257Y-67417714D01*
X118259733Y-67417714D01*
X118354971Y-67465333D01*
X117926400Y-68036761D02*
X118021638Y-68084380D01*
X118259733Y-68084380D01*
X118354971Y-68036761D01*
X118402590Y-67941523D01*
X118402590Y-67846285D01*
X118354971Y-67751047D01*
X118259733Y-67703428D01*
X118021638Y-67703428D01*
X117926400Y-67655809D01*
X117450209Y-67417714D02*
X117450209Y-68274857D01*
X117497828Y-68370095D01*
X117593066Y-68417714D01*
X117640685Y-68417714D01*
X117450209Y-67084380D02*
X117497828Y-67132000D01*
X117450209Y-67179619D01*
X117402590Y-67132000D01*
X117450209Y-67084380D01*
X117450209Y-67179619D01*
X116831161Y-68084380D02*
X116926400Y-68036761D01*
X116974019Y-67989142D01*
X117021638Y-67893904D01*
X117021638Y-67608190D01*
X116974019Y-67512952D01*
X116926400Y-67465333D01*
X116831161Y-67417714D01*
X116688304Y-67417714D01*
X116593066Y-67465333D01*
X116545447Y-67512952D01*
X116497828Y-67608190D01*
X116497828Y-67893904D01*
X116545447Y-67989142D01*
X116593066Y-68036761D01*
X116688304Y-68084380D01*
X116831161Y-68084380D01*
X116069257Y-68084380D02*
X116069257Y-67084380D01*
X115640685Y-68084380D02*
X115640685Y-67560571D01*
X115688304Y-67465333D01*
X115783542Y-67417714D01*
X115926400Y-67417714D01*
X116021638Y-67465333D01*
X116069257Y-67512952D01*
X115164495Y-67417714D02*
X115164495Y-68084380D01*
X115164495Y-67512952D02*
X115116876Y-67465333D01*
X115021638Y-67417714D01*
X114878780Y-67417714D01*
X114783542Y-67465333D01*
X114735923Y-67560571D01*
X114735923Y-68084380D01*
X114307352Y-68036761D02*
X114212114Y-68084380D01*
X114021638Y-68084380D01*
X113926400Y-68036761D01*
X113878780Y-67941523D01*
X113878780Y-67893904D01*
X113926400Y-67798666D01*
X114021638Y-67751047D01*
X114164495Y-67751047D01*
X114259733Y-67703428D01*
X114307352Y-67608190D01*
X114307352Y-67560571D01*
X114259733Y-67465333D01*
X114164495Y-67417714D01*
X114021638Y-67417714D01*
X113926400Y-67465333D01*
X113307352Y-68084380D02*
X113402590Y-68036761D01*
X113450209Y-67989142D01*
X113497828Y-67893904D01*
X113497828Y-67608190D01*
X113450209Y-67512952D01*
X113402590Y-67465333D01*
X113307352Y-67417714D01*
X113164495Y-67417714D01*
X113069257Y-67465333D01*
X113021638Y-67512952D01*
X112974019Y-67608190D01*
X112974019Y-67893904D01*
X113021638Y-67989142D01*
X113069257Y-68036761D01*
X113164495Y-68084380D01*
X113307352Y-68084380D01*
X112545447Y-67417714D02*
X112545447Y-68084380D01*
X112545447Y-67512952D02*
X112497828Y-67465333D01*
X112402590Y-67417714D01*
X112259733Y-67417714D01*
X112164495Y-67465333D01*
X112116876Y-67560571D01*
X112116876Y-68084380D01*
X130552380Y-65885714D02*
X130552380Y-66742857D01*
X130600000Y-66838095D01*
X130695238Y-66885714D01*
X130742857Y-66885714D01*
X130552380Y-65552380D02*
X130600000Y-65600000D01*
X130552380Y-65647619D01*
X130504761Y-65600000D01*
X130552380Y-65552380D01*
X130552380Y-65647619D01*
X129933333Y-66552380D02*
X130028571Y-66504761D01*
X130076190Y-66457142D01*
X130123809Y-66361904D01*
X130123809Y-66076190D01*
X130076190Y-65980952D01*
X130028571Y-65933333D01*
X129933333Y-65885714D01*
X129790476Y-65885714D01*
X129695238Y-65933333D01*
X129647619Y-65980952D01*
X129600000Y-66076190D01*
X129600000Y-66361904D01*
X129647619Y-66457142D01*
X129695238Y-66504761D01*
X129790476Y-66552380D01*
X129933333Y-66552380D01*
X129219047Y-66504761D02*
X129123809Y-66552380D01*
X128933333Y-66552380D01*
X128838095Y-66504761D01*
X128790476Y-66409523D01*
X128790476Y-66361904D01*
X128838095Y-66266666D01*
X128933333Y-66219047D01*
X129076190Y-66219047D01*
X129171428Y-66171428D01*
X129219047Y-66076190D01*
X129219047Y-66028571D01*
X129171428Y-65933333D01*
X129076190Y-65885714D01*
X128933333Y-65885714D01*
X128838095Y-65933333D01*
X128361904Y-66552380D02*
X128361904Y-65552380D01*
X127933333Y-66552380D02*
X127933333Y-66028571D01*
X127980952Y-65933333D01*
X128076190Y-65885714D01*
X128219047Y-65885714D01*
X128314285Y-65933333D01*
X128361904Y-65980952D01*
X127028571Y-66552380D02*
X127028571Y-66028571D01*
X127076190Y-65933333D01*
X127171428Y-65885714D01*
X127361904Y-65885714D01*
X127457142Y-65933333D01*
X127028571Y-66504761D02*
X127123809Y-66552380D01*
X127361904Y-66552380D01*
X127457142Y-66504761D01*
X127504761Y-66409523D01*
X127504761Y-66314285D01*
X127457142Y-66219047D01*
X127361904Y-66171428D01*
X127123809Y-66171428D01*
X127028571Y-66123809D01*
X126552380Y-65885714D02*
X126552380Y-66742857D01*
X126600000Y-66838095D01*
X126695238Y-66885714D01*
X126742857Y-66885714D01*
X126552380Y-65552380D02*
X126600000Y-65600000D01*
X126552380Y-65647619D01*
X126504761Y-65600000D01*
X126552380Y-65552380D01*
X126552380Y-65647619D01*
X125933333Y-66552380D02*
X126028571Y-66504761D01*
X126076190Y-66457142D01*
X126123809Y-66361904D01*
X126123809Y-66076190D01*
X126076190Y-65980952D01*
X126028571Y-65933333D01*
X125933333Y-65885714D01*
X125790476Y-65885714D01*
X125695238Y-65933333D01*
X125647619Y-65980952D01*
X125600000Y-66076190D01*
X125600000Y-66361904D01*
X125647619Y-66457142D01*
X125695238Y-66504761D01*
X125790476Y-66552380D01*
X125933333Y-66552380D01*
X125171428Y-66552380D02*
X125171428Y-65552380D01*
X124742857Y-66552380D02*
X124742857Y-66028571D01*
X124790476Y-65933333D01*
X124885714Y-65885714D01*
X125028571Y-65885714D01*
X125123809Y-65933333D01*
X125171428Y-65980952D01*
X124266666Y-65885714D02*
X124266666Y-66552380D01*
X124266666Y-65980952D02*
X124219047Y-65933333D01*
X124123809Y-65885714D01*
X123980952Y-65885714D01*
X123885714Y-65933333D01*
X123838095Y-66028571D01*
X123838095Y-66552380D01*
X123409523Y-66504761D02*
X123314285Y-66552380D01*
X123123809Y-66552380D01*
X123028571Y-66504761D01*
X122980952Y-66409523D01*
X122980952Y-66361904D01*
X123028571Y-66266666D01*
X123123809Y-66219047D01*
X123266666Y-66219047D01*
X123361904Y-66171428D01*
X123409523Y-66076190D01*
X123409523Y-66028571D01*
X123361904Y-65933333D01*
X123266666Y-65885714D01*
X123123809Y-65885714D01*
X123028571Y-65933333D01*
X122409523Y-66552380D02*
X122504761Y-66504761D01*
X122552380Y-66457142D01*
X122600000Y-66361904D01*
X122600000Y-66076190D01*
X122552380Y-65980952D01*
X122504761Y-65933333D01*
X122409523Y-65885714D01*
X122266666Y-65885714D01*
X122171428Y-65933333D01*
X122123809Y-65980952D01*
X122076190Y-66076190D01*
X122076190Y-66361904D01*
X122123809Y-66457142D01*
X122171428Y-66504761D01*
X122266666Y-66552380D01*
X122409523Y-66552380D01*
X121647619Y-65885714D02*
X121647619Y-66552380D01*
X121647619Y-65980952D02*
X121600000Y-65933333D01*
X121504761Y-65885714D01*
X121361904Y-65885714D01*
X121266666Y-65933333D01*
X121219047Y-66028571D01*
X121219047Y-66552380D01*
X120742857Y-66457142D02*
X120695238Y-66504761D01*
X120742857Y-66552380D01*
X120790476Y-66504761D01*
X120742857Y-66457142D01*
X120742857Y-66552380D01*
X119838095Y-66504761D02*
X119933333Y-66552380D01*
X120123809Y-66552380D01*
X120219047Y-66504761D01*
X120266666Y-66457142D01*
X120314285Y-66361904D01*
X120314285Y-66076190D01*
X120266666Y-65980952D01*
X120219047Y-65933333D01*
X120123809Y-65885714D01*
X119933333Y-65885714D01*
X119838095Y-65933333D01*
X119266666Y-66552380D02*
X119361904Y-66504761D01*
X119409523Y-66457142D01*
X119457142Y-66361904D01*
X119457142Y-66076190D01*
X119409523Y-65980952D01*
X119361904Y-65933333D01*
X119266666Y-65885714D01*
X119123809Y-65885714D01*
X119028571Y-65933333D01*
X118980952Y-65980952D01*
X118933333Y-66076190D01*
X118933333Y-66361904D01*
X118980952Y-66457142D01*
X119028571Y-66504761D01*
X119123809Y-66552380D01*
X119266666Y-66552380D01*
X118504761Y-66552380D02*
X118504761Y-65885714D01*
X118504761Y-65980952D02*
X118457142Y-65933333D01*
X118361904Y-65885714D01*
X118219047Y-65885714D01*
X118123809Y-65933333D01*
X118076190Y-66028571D01*
X118076190Y-66552380D01*
X118076190Y-66028571D02*
X118028571Y-65933333D01*
X117933333Y-65885714D01*
X117790476Y-65885714D01*
X117695238Y-65933333D01*
X117647619Y-66028571D01*
X117647619Y-66552380D01*
X130495238Y-64052380D02*
X130495238Y-64766666D01*
X130542857Y-64909523D01*
X130638095Y-65004761D01*
X130780952Y-65052380D01*
X130876190Y-65052380D01*
X129876190Y-65052380D02*
X129971428Y-65004761D01*
X130019047Y-64957142D01*
X130066666Y-64861904D01*
X130066666Y-64576190D01*
X130019047Y-64480952D01*
X129971428Y-64433333D01*
X129876190Y-64385714D01*
X129733333Y-64385714D01*
X129638095Y-64433333D01*
X129590476Y-64480952D01*
X129542857Y-64576190D01*
X129542857Y-64861904D01*
X129590476Y-64957142D01*
X129638095Y-65004761D01*
X129733333Y-65052380D01*
X129876190Y-65052380D01*
X129161904Y-65004761D02*
X129066666Y-65052380D01*
X128876190Y-65052380D01*
X128780952Y-65004761D01*
X128733333Y-64909523D01*
X128733333Y-64861904D01*
X128780952Y-64766666D01*
X128876190Y-64719047D01*
X129019047Y-64719047D01*
X129114285Y-64671428D01*
X129161904Y-64576190D01*
X129161904Y-64528571D01*
X129114285Y-64433333D01*
X129019047Y-64385714D01*
X128876190Y-64385714D01*
X128780952Y-64433333D01*
X128304761Y-65052380D02*
X128304761Y-64052380D01*
X127876190Y-65052380D02*
X127876190Y-64528571D01*
X127923809Y-64433333D01*
X128019047Y-64385714D01*
X128161904Y-64385714D01*
X128257142Y-64433333D01*
X128304761Y-64480952D01*
X126352380Y-64052380D02*
X126352380Y-64766666D01*
X126400000Y-64909523D01*
X126495238Y-65004761D01*
X126638095Y-65052380D01*
X126733333Y-65052380D01*
X125733333Y-65052380D02*
X125828571Y-65004761D01*
X125876190Y-64957142D01*
X125923809Y-64861904D01*
X125923809Y-64576190D01*
X125876190Y-64480952D01*
X125828571Y-64433333D01*
X125733333Y-64385714D01*
X125590476Y-64385714D01*
X125495238Y-64433333D01*
X125447619Y-64480952D01*
X125400000Y-64576190D01*
X125400000Y-64861904D01*
X125447619Y-64957142D01*
X125495238Y-65004761D01*
X125590476Y-65052380D01*
X125733333Y-65052380D01*
X124971428Y-65052380D02*
X124971428Y-64052380D01*
X124542857Y-65052380D02*
X124542857Y-64528571D01*
X124590476Y-64433333D01*
X124685714Y-64385714D01*
X124828571Y-64385714D01*
X124923809Y-64433333D01*
X124971428Y-64480952D01*
X124066666Y-64385714D02*
X124066666Y-65052380D01*
X124066666Y-64480952D02*
X124019047Y-64433333D01*
X123923809Y-64385714D01*
X123780952Y-64385714D01*
X123685714Y-64433333D01*
X123638095Y-64528571D01*
X123638095Y-65052380D01*
X123209523Y-65004761D02*
X123114285Y-65052380D01*
X122923809Y-65052380D01*
X122828571Y-65004761D01*
X122780952Y-64909523D01*
X122780952Y-64861904D01*
X122828571Y-64766666D01*
X122923809Y-64719047D01*
X123066666Y-64719047D01*
X123161904Y-64671428D01*
X123209523Y-64576190D01*
X123209523Y-64528571D01*
X123161904Y-64433333D01*
X123066666Y-64385714D01*
X122923809Y-64385714D01*
X122828571Y-64433333D01*
X122209523Y-65052380D02*
X122304761Y-65004761D01*
X122352380Y-64957142D01*
X122400000Y-64861904D01*
X122400000Y-64576190D01*
X122352380Y-64480952D01*
X122304761Y-64433333D01*
X122209523Y-64385714D01*
X122066666Y-64385714D01*
X121971428Y-64433333D01*
X121923809Y-64480952D01*
X121876190Y-64576190D01*
X121876190Y-64861904D01*
X121923809Y-64957142D01*
X121971428Y-65004761D01*
X122066666Y-65052380D01*
X122209523Y-65052380D01*
X121447619Y-64385714D02*
X121447619Y-65052380D01*
X121447619Y-64480952D02*
X121400000Y-64433333D01*
X121304761Y-64385714D01*
X121161904Y-64385714D01*
X121066666Y-64433333D01*
X121019047Y-64528571D01*
X121019047Y-65052380D01*
M02*
