M48
; DRILL file {KiCad (5.1.2)-1} date 17/07/2019 12:19:42
; FORMAT={-:-/ absolute / metric / decimal}
; #@! TF.CreationDate,2019-07-17T12:19:42+10:00
; #@! TF.GenerationSoftware,Kicad,Pcbnew,(5.1.2)-1
FMAT,2
METRIC
T1C1.000
T2C0.300
T3C2.540
%
G90
G05
T1
X91.69Y-104.41
X94.23Y-104.41
X96.77Y-104.41
X99.31Y-104.41
X101.85Y-84.09
X101.85Y-104.41
X104.39Y-84.09
X104.39Y-104.41
X106.93Y-84.09
X106.93Y-104.41
X109.47Y-84.09
X109.47Y-104.41
X112.01Y-84.09
X112.01Y-104.41
X114.55Y-84.09
X114.55Y-104.41
X117.09Y-84.09
X117.09Y-104.41
X119.63Y-84.09
X119.63Y-104.41
X122.17Y-84.09
X122.17Y-104.41
X124.71Y-84.09
X124.71Y-104.41
X127.25Y-84.09
X127.25Y-104.41
X129.79Y-84.09
X129.79Y-104.41
X116.342Y-96.015
X116.342Y-98.555
X118.882Y-96.015
X118.882Y-98.555
X121.422Y-96.015
X121.422Y-98.555
X123.962Y-96.015
X123.962Y-98.555
X126.502Y-96.015
X126.502Y-98.555
X129.042Y-96.015
X129.042Y-98.555
X93.482Y-121.415
X93.482Y-123.955
X96.022Y-121.415
X96.022Y-123.955
X98.562Y-121.415
X98.562Y-123.955
X101.102Y-121.415
X101.102Y-123.955
X103.642Y-121.415
X103.642Y-123.955
X106.182Y-121.415
X106.182Y-123.955
X91.69Y-79.01
X94.23Y-79.01
X96.77Y-79.01
X99.31Y-79.01
X101.85Y-58.69
X101.85Y-79.01
X104.39Y-58.69
X104.39Y-79.01
X106.93Y-58.69
X106.93Y-79.01
X109.47Y-58.69
X109.47Y-79.01
X112.01Y-58.69
X112.01Y-79.01
X114.55Y-58.69
X114.55Y-79.01
X117.09Y-58.69
X117.09Y-79.01
X119.63Y-58.69
X119.63Y-79.01
X122.17Y-58.69
X122.17Y-79.01
X124.71Y-58.69
X124.71Y-79.01
X127.25Y-58.69
X127.25Y-79.01
X129.79Y-58.69
X129.79Y-79.01
X93.482Y-146.815
X93.482Y-149.355
X96.022Y-146.815
X96.022Y-149.355
X98.562Y-146.815
X98.562Y-149.355
X101.102Y-146.815
X101.102Y-149.355
X103.642Y-146.815
X103.642Y-149.355
X106.182Y-146.815
X106.182Y-149.355
X91.69Y-155.21
X94.23Y-155.21
X96.77Y-155.21
X99.31Y-155.21
X101.85Y-134.89
X101.85Y-155.21
X104.39Y-134.89
X104.39Y-155.21
X106.93Y-134.89
X106.93Y-155.21
X109.47Y-134.89
X109.47Y-155.21
X112.01Y-134.89
X112.01Y-155.21
X114.55Y-134.89
X114.55Y-155.21
X117.09Y-134.89
X117.09Y-155.21
X119.63Y-134.89
X119.63Y-155.21
X122.17Y-134.89
X122.17Y-155.21
X124.71Y-134.89
X124.71Y-155.21
X127.25Y-134.89
X127.25Y-155.21
X129.79Y-134.89
X129.79Y-155.21
X116.342Y-121.415
X116.342Y-123.955
X118.882Y-121.415
X118.882Y-123.955
X121.422Y-121.415
X121.422Y-123.955
X123.962Y-121.415
X123.962Y-123.955
X126.502Y-121.415
X126.502Y-123.955
X129.042Y-121.415
X129.042Y-123.955
X91.69Y-129.81
X94.23Y-129.81
X96.77Y-129.81
X99.31Y-129.81
X101.85Y-109.49
X101.85Y-129.81
X104.39Y-109.49
X104.39Y-129.81
X106.93Y-109.49
X106.93Y-129.81
X109.47Y-109.49
X109.47Y-129.81
X112.01Y-109.49
X112.01Y-129.81
X114.55Y-109.49
X114.55Y-129.81
X117.09Y-109.49
X117.09Y-129.81
X119.63Y-109.49
X119.63Y-129.81
X122.17Y-109.49
X122.17Y-129.81
X124.71Y-109.49
X124.71Y-129.81
X127.25Y-109.49
X127.25Y-129.81
X129.79Y-109.49
X129.79Y-129.81
X116.342Y-146.815
X116.342Y-149.355
X118.882Y-146.815
X118.882Y-149.355
X121.422Y-146.815
X121.422Y-149.355
X123.962Y-146.815
X123.962Y-149.355
X126.502Y-146.815
X126.502Y-149.355
X129.042Y-146.815
X129.042Y-149.355
X93.482Y-70.615
X93.482Y-73.155
X96.022Y-70.615
X96.022Y-73.155
X98.562Y-70.615
X98.562Y-73.155
X101.102Y-70.615
X101.102Y-73.155
X103.642Y-70.615
X103.642Y-73.155
X106.182Y-70.615
X106.182Y-73.155
X93.482Y-96.015
X93.482Y-98.555
X96.022Y-96.015
X96.022Y-98.555
X98.562Y-96.015
X98.562Y-98.555
X101.102Y-96.015
X101.102Y-98.555
X103.642Y-96.015
X103.642Y-98.555
X106.182Y-96.015
X106.182Y-98.555
X116.342Y-70.615
X116.342Y-73.155
X118.882Y-70.615
X118.882Y-73.155
X121.422Y-70.615
X121.422Y-73.155
X123.962Y-70.615
X123.962Y-73.155
X126.502Y-70.615
X126.502Y-73.155
X129.042Y-70.615
X129.042Y-73.155
T2
X126.0Y-133.47
X127.0Y-133.47
X128.0Y-133.47
X129.0Y-133.47
X130.0Y-133.47
X131.0Y-133.47
X126.0Y-131.23
X127.0Y-131.23
X128.0Y-131.23
X129.0Y-131.23
X130.0Y-131.23
X131.0Y-131.23
X126.0Y-80.43
X127.0Y-80.43
X128.0Y-80.43
X129.0Y-80.43
X130.0Y-80.43
X131.0Y-80.43
X90.5Y-108.07
X91.5Y-108.07
X92.5Y-108.07
X93.5Y-108.07
X94.5Y-108.07
X95.5Y-108.07
X126.0Y-108.07
X127.0Y-108.07
X128.0Y-108.07
X129.0Y-108.07
X130.0Y-108.07
X131.0Y-108.07
X126.0Y-105.83
X127.0Y-105.83
X128.0Y-105.83
X129.0Y-105.83
X130.0Y-105.83
X131.0Y-105.83
X90.5Y-105.83
X91.5Y-105.83
X92.5Y-105.83
X93.5Y-105.83
X94.5Y-105.83
X95.5Y-105.83
X126.0Y-82.67
X127.0Y-82.67
X128.0Y-82.67
X129.0Y-82.67
X130.0Y-82.67
X131.0Y-82.67
X90.5Y-80.43
X91.5Y-80.43
X92.5Y-80.43
X93.5Y-80.43
X94.5Y-80.43
X95.5Y-80.43
X90.5Y-133.47
X91.5Y-133.47
X92.5Y-133.47
X93.5Y-133.47
X94.5Y-133.47
X95.5Y-133.47
X90.5Y-82.67
X91.5Y-82.67
X92.5Y-82.67
X93.5Y-82.67
X94.5Y-82.67
X95.5Y-82.67
X90.5Y-131.23
X91.5Y-131.23
X92.5Y-131.23
X93.5Y-131.23
X94.5Y-131.23
X95.5Y-131.23
T3
X87.88Y-110.76
X87.88Y-128.54
X133.6Y-110.76
X133.6Y-128.54
X87.88Y-85.36
X87.88Y-103.14
X133.6Y-85.36
X133.6Y-103.14
X87.88Y-59.96
X87.88Y-77.74
X133.6Y-59.96
X133.6Y-77.74
X87.88Y-136.16
X87.88Y-153.94
X133.6Y-136.16
X133.6Y-153.94
T0
M30
